<svg width="23" height="22" viewBox="0 0 23 22" fill="none" xmlns="http://www.w3.org/2000/svg">
<path fill-rule="evenodd" clip-rule="evenodd" d="M8.80975 12.4836C8.39202 12.4836 8.00742 12.7088 7.80611 13.0715C7.38626 13.8278 7.93853 14.7533 8.80974 14.7533H19.4721C20.1047 14.7533 20.6175 15.2614 20.6175 15.8882C20.6175 16.5149 20.1047 17.023 19.4721 17.023H18.3381H6.88392H6.87252C5.13148 17.023 4.03188 15.1732 4.86804 13.6525L5.84524 11.9025C6.20251 11.2628 6.22683 10.4916 5.91058 9.83102L2.6712 3.06427C2.43891 2.57903 1.94534 2.26974 1.4033 2.26974H1.14542C0.512828 2.26974 0 1.76163 0 1.13487C0 0.508103 0.512828 0 1.14542 0H2.29535C3.18088 0 3.98711 0.505663 4.36595 1.29869L4.56134 1.70765C4.59817 1.70412 4.63551 1.7023 4.67327 1.7023H21.8546C22.4872 1.7023 23 2.21041 23 2.83717C23 3.14723 22.8745 3.42823 22.6712 3.63307C22.7077 3.87019 22.6685 4.12067 22.5427 4.34701L18.6703 11.3146C18.2809 12.0183 17.5249 12.4836 16.6658 12.4836H8.80975ZM6.88392 17.023C8.14912 17.023 9.17476 18.0392 9.17476 19.2928C9.17476 20.5463 8.14912 21.5625 6.88392 21.5625C5.61872 21.5625 4.59308 20.5463 4.59308 19.2928C4.59308 18.0392 5.61872 17.023 6.88392 17.023ZM18.3381 17.023C17.0729 17.023 16.0473 18.0392 16.0473 19.2928C16.0473 20.5463 17.0729 21.5625 18.3381 21.5625C19.6034 21.5625 20.629 20.5463 20.629 19.2928C20.629 18.0392 19.6034 17.023 18.3381 17.023Z" fill="#1D1C1C"/>
<path d="M7.1875 20.125C7.98142 20.125 8.625 19.4814 8.625 18.6875C8.625 17.8936 7.98142 17.25 7.1875 17.25C6.3936 17.25 5.75 17.8936 5.75 18.6875C5.75 19.4814 6.3936 20.125 7.1875 20.125Z" fill="#1D1C1C"/>
<path d="M18.6875 18.6875C18.6875 19.4814 18.3657 20.125 17.9688 20.125C17.5718 20.125 17.25 19.4814 17.25 18.6875C17.25 17.8936 17.5718 17.25 17.9688 17.25C18.3657 17.25 18.6875 17.8936 18.6875 18.6875Z" fill="#1D1C1C"/>
</svg>
