<svg width="22" height="24" viewBox="0 0 22 24" fill="none" xmlns="http://www.w3.org/2000/svg">
<path fill-rule="evenodd" clip-rule="evenodd" d="M9.69023 0.310363C10.4259 -0.103454 11.3241 -0.103454 12.0598 0.310363L20.5181 5.06818C21.2791 5.49622 21.75 6.3014 21.75 7.17448V16.5326C21.75 17.3017 21.3433 18.0134 20.6807 18.4039L11.9464 23.5513C11.2853 23.941 10.4647 23.941 9.80357 23.5513L1.06931 18.4039C0.406713 18.0134 0 17.3017 0 16.5326V7.17448C0 6.3014 0.470912 5.49622 1.23187 5.06818L9.69023 0.310363ZM2.57206 7.23469C2.89924 6.65306 3.63597 6.44678 4.21762 6.77394L10.8752 10.5188L17.5328 6.77394C18.1145 6.44678 18.8512 6.65306 19.1784 7.23469C19.5055 7.81634 19.2993 8.55308 18.7176 8.88025L12.0836 12.6119V20.3635C12.0836 21.0309 11.5426 21.5718 10.8752 21.5718C10.2079 21.5718 9.66691 21.0309 9.66691 20.3635V12.6119L3.03282 8.88025C2.45118 8.55308 2.24489 7.81634 2.57206 7.23469Z" fill="#C5904F"/>
</svg>
