<svg width="24" height="24" viewBox="0 0 24 24" fill="none" xmlns="http://www.w3.org/2000/svg">
<path fill-rule="evenodd" clip-rule="evenodd" d="M22 12.9342C22 12.956 22 12.978 22 13V15C22 15.022 22 15.044 22 15.0658C22 15.9523 22.0001 16.7161 21.9179 17.3278C21.8297 17.9833 21.631 18.6117 21.1213 19.1213C20.6117 19.631 19.9833 19.8297 19.3278 19.9179C18.7161 20.0001 17.9523 20.0001 17.0658 20H10.9342C10.0477 20.0001 9.28387 20.0001 8.67221 19.9179C8.0167 19.8297 7.38835 19.631 6.87868 19.1213C6.36902 18.6117 6.17028 17.9833 6.08215 17.3278C5.99991 16.7161 5.99995 15.9523 6 15.0658V12.9342C5.99995 12.0477 5.99991 11.2839 6.08215 10.6722C6.17028 10.0167 6.36902 9.38835 6.87868 8.87868C7.38835 8.36902 8.0167 8.17028 8.67221 8.08214C9.28387 7.99991 10.0477 7.99995 10.9342 8H17C17.022 8 17.044 8 17.0658 8C17.9523 7.99995 18.7161 7.99991 19.3278 8.08215C19.9833 8.17028 20.6117 8.36902 21.1213 8.87868C21.631 9.38835 21.8297 10.0167 21.9179 10.6722C22.0001 11.2839 22 12.0477 22 12.9342ZM11 14C11 12.3431 12.3432 11 14 11C15.6569 11 17 12.3431 17 14C17 15.6569 15.6569 17 14 17C12.3432 17 11 15.6569 11 14Z" fill="#1B1A1B" fill-opacity="0.5"/>
<path d="M17.9965 7.00403C17.7103 7.00006 17.4161 7.00009 17.1189 7.00013H10.8813C10.0376 7.00004 9.21767 6.99995 8.53906 7.09119C7.77331 7.19414 6.89841 7.44496 6.17167 8.1717C5.44493 8.89844 5.19411 9.77335 5.09116 10.5391C4.99992 11.2177 5 12.0376 5.00009 12.8814V15.1188C5.00006 15.4119 5.00003 15.7021 5.00383 15.9845C4.93907 15.9813 4.87645 15.9775 4.81603 15.9728C4.44281 15.944 4.07084 15.8805 3.70949 15.7083C3.08831 15.4123 2.58777 14.9118 2.29177 14.2906C2.11957 13.9292 2.05608 13.5573 2.02728 13.1841C1.99998 12.8302 1.99999 12.4012 2.00001 11.904L2 8.93427C1.99995 8.0478 1.99991 7.28397 2.08215 6.67231C2.17028 6.0168 2.36902 5.38845 2.87869 4.87878C3.38835 4.36912 4.0167 4.17038 4.67221 4.08225C5.28387 4.00001 6.04769 4.00005 6.93418 4.0001L14.539 4.00005C14.9608 3.99968 15.3242 3.99936 15.6475 4.07081C16.7872 4.32274 17.6774 5.21288 17.9293 6.35261C17.9736 6.55289 17.9903 6.76858 17.9965 7.00403Z" fill="#1B1A1B" fill-opacity="0.5"/>
</svg>
