<svg width="30" height="30" viewBox="0 0 30 30" fill="none" xmlns="http://www.w3.org/2000/svg">
<path d="M12.4998 19.9999C16.6419 19.9999 19.9998 16.6421 19.9998 12.4999C19.9998 12.2483 19.9873 11.9995 19.9632 11.7542C22.1901 12.7101 23.7497 14.9229 23.7497 17.4999C23.7497 20.9517 20.9514 23.7499 17.4997 23.7499C14.9227 23.7499 12.7099 22.1903 11.7539 19.9634C11.9992 19.9875 12.248 19.9999 12.4998 19.9999Z" fill="white"/>
<path d="M12.5 18.75C15.9518 18.75 18.75 15.9518 18.75 12.5C18.75 9.04822 15.9518 6.25 12.5 6.25C9.04822 6.25 6.25 9.04822 6.25 12.5C6.25 15.9518 9.04822 18.75 12.5 18.75Z" fill="white"/>
</svg>
