<svg width="19" height="19" viewBox="0 0 19 19" fill="none" xmlns="http://www.w3.org/2000/svg">
<path fill-rule="evenodd" clip-rule="evenodd" d="M1.4 0C0.626794 0 0 0.626808 0 1.4V16.8C0 17.5732 0.626808 18.2 1.4 18.2H11.9C12.2865 18.2 12.6 17.8865 12.6 17.5C12.6 17.1135 12.2865 16.8 11.9 16.8H1.4V1.4H11.9C12.2865 1.4 12.6 1.0866 12.6 0.7C12.6 0.313404 12.2865 0 11.9 0H1.4ZM14.845 5.45503C14.5716 5.18165 14.1284 5.18165 13.855 5.45503C13.5817 5.72839 13.5817 6.17161 13.855 6.44497L15.8101 8.4H6.3C5.9134 8.4 5.6 8.7134 5.6 9.1C5.6 9.4866 5.9134 9.8 6.3 9.8H15.8101L13.855 11.755C13.5817 12.0284 13.5817 12.4716 13.855 12.745C14.1284 13.0183 14.5716 13.0183 14.845 12.745L17.995 9.59497C18.2683 9.32161 18.2683 8.87839 17.995 8.60503L14.845 5.45503Z" fill="#EAEAEA"/>
</svg>
