<svg width="16" height="16" viewBox="0 0 16 16" fill="none" xmlns="http://www.w3.org/2000/svg">
<path fill-rule="evenodd" clip-rule="evenodd" d="M0 12.4688C0 10.1889 1.45321 8.24845 3.48387 7.52325C4.03578 7.32611 4.63035 7.21875 5.25 7.21875C5.86965 7.21875 6.46424 7.32611 7.0161 7.52325C7.31596 7.63026 7.60314 7.76388 7.875 7.92111C8.14686 7.76388 8.43404 7.63026 8.7339 7.52325C9.28576 7.32611 9.88033 7.21875 10.5 7.21875C11.1197 7.21875 11.7142 7.32611 12.2661 7.52325C14.2968 8.24845 15.75 10.1889 15.75 12.4688V15.0938H11.1562V13.7812H14.4375V12.4688C14.4375 10.2941 12.6746 8.53125 10.5 8.53125C9.97754 8.53125 9.47887 8.63301 9.02265 8.81781C9.9372 9.76264 10.5 11.0499 10.5 12.4688V15.0938H0V12.4688ZM5.25 6.5625C4.64716 6.5625 4.0823 6.39992 3.59685 6.11625C2.62299 5.54715 1.96875 4.4906 1.96875 3.28125C1.96875 1.46906 3.43781 0 5.25 0C6.32336 0 7.27633 0.515384 7.875 1.31218C8.47367 0.515384 9.42664 0 10.5 0C12.3122 0 13.7812 1.46906 13.7812 3.28125C13.7812 4.4906 13.127 5.54715 12.1531 6.11625C11.6677 6.39992 11.1029 6.5625 10.5 6.5625C9.89712 6.5625 9.33231 6.39992 8.84686 6.11625C8.4679 5.89479 8.13741 5.59956 7.875 5.25031C7.61259 5.59965 7.2821 5.89479 6.90314 6.11625C6.41769 6.39992 5.85284 6.5625 5.25 6.5625ZM9.1875 12.4688V13.7812H1.3125V12.4688C1.3125 10.2941 3.07538 8.53125 5.25 8.53125C7.42464 8.53125 9.1875 10.2941 9.1875 12.4688ZM7.21875 3.28125C7.21875 4.36856 6.33727 5.25 5.25 5.25C4.16269 5.25 3.28125 4.36856 3.28125 3.28125C3.28125 2.19394 4.16269 1.3125 5.25 1.3125C6.33727 1.3125 7.21875 2.19394 7.21875 3.28125ZM10.5 1.3125C9.41273 1.3125 8.53125 2.19394 8.53125 3.28125C8.53125 4.36856 9.41273 5.25 10.5 5.25C11.5873 5.25 12.4688 4.36856 12.4688 3.28125C12.4688 2.19394 11.5873 1.3125 10.5 1.3125Z" fill="#C5904F"/>
</svg>
