<svg width="45" height="45" viewBox="0 0 45 45" fill="none" xmlns="http://www.w3.org/2000/svg">
<path d="M15 23.4375L19.6875 28.125L30 17.8125" stroke="#C5904F" stroke-width="2" stroke-linecap="square"/>
<path d="M22.5 41.25C24.8181 41.25 26.8086 39.8479 27.6697 37.8456C27.9741 37.1377 28.9796 36.7213 29.6953 37.0065C31.7203 37.8135 34.1192 37.3974 35.7583 35.7583C37.3972 34.1192 37.8133 31.7203 37.0065 29.6955C36.7213 28.9796 37.1377 27.9741 37.8456 27.6697C39.8479 26.8086 41.25 24.8181 41.25 22.5C41.25 20.1819 39.8479 18.1915 37.8456 17.3303C37.1377 17.0259 36.7213 16.0204 37.0065 15.3046C37.8135 13.2798 37.3974 10.8808 35.7583 9.24176C34.1192 7.60269 31.7203 7.18661 29.6955 7.99352C28.9796 8.27876 27.9741 7.86225 27.6697 7.15444C26.8086 5.15209 24.8181 3.75 22.5 3.75C20.1819 3.75 18.1915 5.15207 17.3303 7.15442C17.0259 7.86221 16.0204 8.27871 15.3046 7.99348C13.2798 7.18657 10.8808 7.60264 9.24176 9.24171C7.60269 10.8808 7.18661 13.2797 7.99352 15.3046C8.27876 16.0203 7.86225 17.0259 7.15444 17.3303C5.15209 18.1915 3.75 20.1819 3.75 22.5C3.75 24.8181 5.15207 26.8086 7.15442 27.6697C7.86221 27.9741 8.27871 28.9796 7.99348 29.6953C7.18657 31.7203 7.60264 34.1192 9.24171 35.7583C10.8808 37.3972 13.2797 37.8133 15.3046 37.0065C16.0203 36.7213 17.0259 37.1377 17.3303 37.8456C18.1915 39.8479 20.1819 41.25 22.5 41.25Z" stroke="#C5904F" stroke-width="2" stroke-linecap="square"/>
</svg>
