<svg width="203" height="142" viewBox="0 0 203 142" fill="none" xmlns="http://www.w3.org/2000/svg">
<path d="M61.5547 60.2031L51.2547 75.2031L42.7547 60.2031H30.5547L44.4547 84.6031L43.6547 99.2031H56.1547L56.9547 84.5031L73.6547 60.2031H61.5547Z" fill="#ED1C24"/>
<path d="M108.761 60.2031L107.461 84.9031L93.4609 60.2031H79.5609L77.4609 99.2031H89.8609L91.0609 75.3031L104.661 99.2031H118.961L121.061 60.2031H108.761Z" fill="#ED1C24"/>
<path d="M142.855 60.2031H128.555L150.755 99.2031H165.055L142.855 60.2031Z" fill="#ED1C24"/>
<path d="M13.1578 89.2031L14.6578 60.2031H2.35781L0.257812 99.2031H30.1578L30.7578 89.2031H13.1578Z" fill="#ED1C24"/>
<path d="M145.355 116.1C141.955 117.7 148.555 110.6 147.255 108.9C147.155 108.4 146.455 108.1 145.955 108.1C146.855 108.3 147.355 109.1 146.755 109.8L146.955 109.6C146.855 110.1 146.955 110.6 146.555 110.4C146.455 110.9 146.055 111.9 145.555 112H145.655C145.455 112.1 144.755 113.5 144.855 112.9C144.855 113 144.855 113.1 144.755 113.2C144.655 113.1 144.355 112.7 144.655 112.7C144.555 112.6 144.655 112.5 144.855 112.5C144.655 112.3 145.255 111.9 145.155 111.8C147.055 110.6 146.055 107.1 143.255 108C143.455 108 143.355 108 143.455 108.1C142.355 108.2 141.755 108.3 140.655 108.9C140.955 108.5 141.255 108 141.455 107.5C141.155 107.5 140.555 108.5 141.155 107.9C140.455 108.6 139.855 109.4 139.355 110.3C140.455 110.8 140.455 109.1 141.355 108.9C142.955 108.4 146.855 108.1 145.355 110.8C145.355 110.8 145.355 110.8 145.255 110.9C145.255 110.9 145.255 110.8 145.355 110.8C145.555 110.4 145.755 109.9 145.455 109.4C145.555 109.6 145.455 109.8 145.455 110.1C145.355 111.1 143.155 111.4 142.755 111.1C142.455 111.3 142.355 111.1 142.155 111.1C141.955 111.2 142.355 111.1 142.255 111.2C142.055 111.2 141.455 111.7 141.755 111.3C140.855 111.7 139.755 111.9 138.755 112.3C138.955 112.2 139.155 112.1 139.355 112C138.855 112.2 138.455 112.5 137.955 112.8H138.055C138.055 112.8 137.955 112.8 137.955 112.9H138.155C137.855 113.3 137.555 113.4 137.155 113.6C137.355 113.6 137.055 114.1 136.855 114C136.755 114.6 136.555 114.2 136.255 114.9C136.155 115.4 136.355 114.9 136.355 115.2C136.255 115.9 136.155 115.2 135.955 115.5C135.855 114.8 136.355 114.1 136.555 113.8C136.355 114.1 136.155 114.5 135.955 114.9C135.855 114.8 135.655 115.7 135.655 115C134.955 116.4 136.655 118.5 138.055 118C137.155 117.8 138.455 117.9 138.355 118C139.255 117.5 139.755 117.5 140.655 117.4L140.555 117.3C140.855 117.2 140.955 117.2 141.155 117.1C140.855 117.6 140.755 118.3 141.655 119.1L141.455 119.2C143.355 119.6 143.755 118.1 144.855 118.2C146.555 118 148.355 115.6 145.355 116.1ZM139.955 109.7C139.855 109.9 139.755 110 139.755 110C139.855 109.8 140.055 109.4 140.255 109.2L139.955 109.7ZM144.555 113.5H144.355C144.555 113.3 144.555 113.4 144.555 113.5ZM144.755 111.1C144.555 111.2 144.355 111.3 144.055 111.2C144.255 111.2 144.455 111.1 144.755 111.1ZM143.755 111.2V111.3C143.655 111.3 143.655 111.2 143.455 111.2C143.655 111.2 143.755 111.2 143.755 111.2ZM138.555 112.3C138.555 112.4 138.455 112.3 138.455 112.4L138.555 112.3ZM136.955 115.7C137.155 116.1 137.455 116.4 137.855 116.6C137.255 116.5 136.855 116.2 136.955 115.7ZM143.455 115.9C143.255 116.2 143.255 116.9 143.755 117.2C143.255 117.3 142.755 117.5 142.355 117.6C142.555 117.2 142.555 116.9 142.755 116.5C142.655 116.4 142.655 116.4 142.655 116.4C142.555 116.3 142.155 115.9 142.055 115.5C142.055 115.8 141.655 115.3 142.055 115.4C142.055 115.4 141.955 115.3 141.955 115.2C141.855 115.4 141.855 115.4 141.755 115.3C141.655 115.4 141.555 115.4 141.455 115.4C139.655 116.9 135.155 115.8 138.655 113.6C138.555 113.7 138.455 113.8 138.455 113.9C138.555 113.7 138.655 113.6 138.855 113.5C138.755 113.5 138.555 113.6 138.555 113.6C138.755 113.4 138.855 113.3 139.055 113.2C139.355 112.8 139.855 112.8 139.555 113.3C139.655 113.2 139.855 113.2 139.855 113.4C140.255 113.3 140.555 113.1 140.755 112.9C140.455 112.9 140.755 112.7 140.855 112.9C140.855 112.5 141.155 112.5 141.555 112.6L141.455 112.5C141.555 112.5 141.955 112.2 141.755 112.5C141.855 112.4 141.955 112.6 142.055 112.5L141.955 112.7C142.055 112.7 142.255 112.6 142.155 112.7C142.255 112.6 142.955 112.2 142.955 112.4C143.055 112.2 143.455 112.3 143.555 112.2C143.555 112.3 143.755 112 143.855 112C144.055 112.1 143.955 112.2 144.155 112.1C143.555 113.1 142.955 114.1 142.855 115.2C143.055 114.8 143.055 114.6 143.555 114.6C143.255 114.6 143.555 114.4 143.555 114.3L143.755 114.4C143.655 114.3 143.855 114.2 143.955 114.2C143.755 114 144.055 114 144.155 114C143.155 115.4 144.155 114.5 143.455 115.9ZM142.355 116.7C142.655 117 142.555 116.9 142.355 116.7ZM143.955 114.4C144.055 114.2 144.055 114.1 143.955 114C143.955 114.1 143.855 114.1 143.855 114.1C143.955 114.1 144.155 113.6 144.255 113.9C144.455 113.2 144.155 114.4 143.955 114.4Z" fill="#333333"/>
<path d="M159.856 108.404C158.856 108.504 155.856 109.504 157.356 108.804C156.756 108.804 155.856 109.404 155.456 109.804C155.556 109.704 155.656 109.704 155.756 109.804C154.856 110.504 156.256 109.504 155.956 110.204C155.956 110.204 155.856 110.204 155.856 110.304C156.056 110.304 156.256 110.204 156.556 110.104C156.456 110.104 156.456 110.104 156.356 110.104C158.156 108.804 159.656 110.104 158.056 111.604C158.156 111.304 158.056 111.504 158.156 111.304C158.056 111.504 158.156 112.504 157.656 112.004C157.756 112.304 155.856 114.304 156.956 112.804C156.556 113.204 156.656 113.304 156.356 113.704L156.456 113.204C155.956 114.104 155.956 113.604 155.556 114.404C155.156 114.604 155.456 114.504 154.956 115.004C155.156 114.404 154.756 115.104 154.456 115.204C154.156 115.604 154.556 115.304 154.356 115.504C153.756 116.004 154.156 115.404 153.856 115.404C154.256 114.904 154.756 114.404 154.956 114.204L154.156 115.004C154.156 114.904 153.556 115.404 153.856 114.904C152.956 115.604 151.956 116.304 151.156 116.404C151.756 116.404 150.956 116.604 150.956 116.304C149.756 116.804 150.656 115.304 150.456 115.104C150.556 114.904 150.956 113.604 150.756 114.404C150.956 114.004 151.056 114.104 151.256 113.704V114.104C151.456 113.804 151.656 113.304 151.656 113.504C151.856 113.104 152.656 111.504 153.156 111.404C157.956 105.904 151.956 107.004 148.656 109.604C148.856 111.304 150.556 109.804 151.256 109.704C151.856 109.904 148.556 113.104 148.756 114.604C149.156 113.704 149.356 112.904 150.256 112.404L150.056 112.504C150.356 112.004 150.456 111.504 150.756 111.804C146.856 117.204 151.856 120.604 157.456 113.504L157.156 113.804C158.156 112.404 159.756 110.904 158.956 109.104L158.856 109.004C159.056 109.204 159.256 109.004 159.456 108.904C159.356 108.904 159.356 108.904 159.256 108.904C161.856 107.804 158.756 111.404 158.456 112.804C158.856 111.804 161.956 108.904 159.856 108.404ZM155.656 109.704C155.756 109.704 155.756 109.804 155.756 109.804C155.656 109.904 155.556 109.704 155.656 109.704ZM152.056 110.504H151.956C152.056 110.304 152.256 110.104 152.056 110.504ZM153.056 108.604C153.356 108.404 153.856 108.704 153.956 108.604C153.556 109.004 152.756 109.804 152.156 110.104C152.456 109.904 152.156 109.304 151.856 109.004C152.356 108.804 152.756 108.704 153.056 108.604ZM151.956 110.504C151.656 110.904 151.456 111.004 151.256 111.204C151.256 110.804 151.856 110.604 151.956 110.504Z" fill="#333333"/>
<path d="M171.355 107.902C170.755 107.602 168.555 107.502 168.155 107.802C168.855 107.802 169.655 107.702 170.455 107.802C170.355 107.802 168.455 107.902 168.255 107.902C168.455 107.902 168.355 107.902 168.455 108.002C165.655 108.302 168.155 106.302 169.255 105.602L168.855 105.802C169.755 105.202 169.255 105.202 169.055 105.202C168.955 105.202 168.955 105.102 169.155 104.902C168.955 105.102 169.055 105.002 169.055 105.202C169.255 104.902 169.255 104.802 169.255 104.702C168.955 104.802 168.355 105.102 168.955 104.702C168.755 104.902 168.555 105.002 168.655 104.602C168.255 104.802 166.655 106.702 167.355 105.702C166.655 106.702 166.755 106.402 166.055 106.902C165.655 107.302 166.155 106.902 165.955 107.302C165.255 107.902 165.755 107.202 165.355 107.302C165.755 106.802 166.355 106.102 166.555 105.802C166.255 106.102 165.955 106.402 165.655 106.702C165.655 106.602 164.955 107.202 165.355 106.702C164.555 107.802 163.055 107.502 161.955 108.102C162.955 107.902 161.455 108.402 161.455 108.402C160.655 110.202 162.955 109.402 163.355 109.502C163.155 109.802 163.055 109.802 162.855 110.202L162.955 109.802C162.755 110.202 162.455 110.702 162.455 110.502C162.255 111.302 161.455 112.402 161.255 113.402L161.155 113.302C160.155 115.402 160.955 118.502 163.355 118.602C165.155 118.202 163.955 119.102 163.755 120.302C164.355 123.002 165.955 118.702 166.455 117.902C166.655 117.002 169.655 114.602 167.755 114.402C166.755 115.102 166.455 116.102 165.855 117.202C166.255 116.802 166.255 116.302 166.655 116.302C166.455 116.402 165.655 117.702 165.655 117.502C165.555 117.802 165.255 118.002 165.155 118.302C163.455 117.002 160.355 117.902 162.655 114.302C162.355 114.102 162.955 113.102 163.355 112.802C163.655 112.202 163.055 113.102 163.155 112.702C163.355 112.402 164.355 110.402 164.055 111.102C164.355 110.602 165.155 109.802 164.755 109.202L165.155 109.102C166.955 108.302 166.155 107.602 167.055 108.202C164.755 108.802 164.255 111.702 163.555 113.402C165.155 109.302 166.955 108.002 171.055 108.502C170.655 108.202 171.955 108.302 171.055 108.102C170.755 107.602 172.055 108.202 171.255 108.502H171.355C171.355 108.502 171.455 108.502 171.455 108.402C171.455 108.302 171.455 108.102 171.355 107.902ZM164.255 120.302C164.355 120.202 164.255 120.202 164.255 120.302ZM166.555 116.102C166.655 115.802 167.155 115.302 167.455 115.202V115.502C166.955 115.802 166.755 116.002 166.555 116.102ZM163.455 109.502H163.555C163.555 109.702 163.255 109.902 163.455 109.502ZM164.155 108.302C164.055 108.202 164.055 108.102 164.155 108.302Z" fill="#333333"/>
<path d="M177.658 108.005C177.458 107.905 177.058 108.204 176.858 108.304C177.258 108.204 177.758 108.104 177.858 108.704C177.858 108.304 178.058 108.704 178.258 108.704L178.058 108.904C178.158 108.904 178.158 109.104 178.158 109.204C178.458 109.104 178.258 109.504 178.158 109.604H178.258C178.258 109.604 178.158 110.304 177.958 110.104C178.058 110.204 178.058 110.405 177.858 110.305C177.858 110.705 177.858 110.805 177.658 110.505C177.558 110.305 177.558 110.204 177.358 110.104C177.558 111.204 177.158 112.505 176.658 113.305C176.658 113.405 176.158 113.604 176.458 113.704C175.858 114.104 175.058 114.604 174.758 114.904L174.958 114.604C174.858 114.804 174.658 115.005 174.358 115.005C174.158 115.305 174.558 114.904 174.558 115.104C174.258 115.304 174.258 115.404 174.058 115.604C173.958 115.704 173.758 115.705 173.958 115.505L173.858 115.604C173.658 115.404 174.058 115.204 174.058 115.104C173.958 115.204 173.558 115.504 173.658 115.204C173.358 115.404 173.058 115.504 172.858 115.704C173.058 115.704 172.758 115.904 172.758 115.704C172.658 116.004 172.458 116.104 172.158 115.904V116.005C172.058 115.905 171.658 116.104 171.958 115.904C171.858 115.904 171.858 115.805 171.758 115.805L171.858 115.604C171.758 115.604 171.658 115.605 171.758 115.505C171.658 115.505 171.158 115.405 171.358 115.305C171.158 115.305 171.158 115.105 171.058 115.005C170.558 113.705 172.058 111.905 172.758 110.305C172.558 110.505 172.458 110.804 172.158 110.704C172.558 110.204 172.958 109.805 173.158 109.305C172.158 109.905 171.158 111.104 170.558 111.904C169.958 112.304 169.558 115.304 169.258 115.704C169.358 115.904 169.758 116.104 169.258 116.104C169.358 116.204 169.858 117.205 169.358 116.505C169.458 116.705 169.558 116.705 169.658 116.805H169.358C169.658 116.905 169.558 117.105 169.658 117.305C169.658 117.105 170.058 117.104 169.958 117.404C170.458 117.304 169.958 117.504 170.458 117.604C170.958 117.304 170.658 117.704 170.758 117.904C170.458 117.904 169.958 117.905 169.758 117.805C169.958 117.905 170.258 117.904 170.458 117.904C170.358 118.004 170.958 118.104 170.558 118.104C171.258 118.204 172.058 118.004 172.558 117.704C172.158 117.704 172.658 117.504 172.658 117.604C172.858 117.104 173.158 117.005 173.758 117.005L173.658 116.904C173.858 116.904 174.258 116.305 174.058 116.805C174.258 116.605 174.358 116.804 174.458 116.604L174.358 116.904C174.558 116.804 174.758 116.604 174.758 116.704C174.958 116.404 175.458 116.004 175.758 115.604L175.858 115.704C177.258 114.104 181.158 109.405 177.658 108.005ZM172.258 110.604C172.158 110.804 172.058 110.704 172.058 110.904C172.058 110.804 172.258 110.704 172.258 110.604ZM170.358 113.704C170.358 113.904 170.358 113.904 170.258 114.104C170.258 114.004 170.358 113.904 170.358 113.704ZM170.158 115.604C170.058 115.504 170.158 115.004 170.158 114.904C170.258 115.004 170.158 115.404 170.158 115.604ZM170.158 114.805C170.058 114.705 170.058 114.305 170.258 114.305C170.258 114.505 170.258 114.605 170.158 114.805ZM170.458 116.104C170.358 116.004 170.358 116.004 170.258 115.904C170.158 115.604 170.558 116.004 170.458 116.104ZM177.858 111.305C177.758 111.205 177.858 111.005 177.758 110.805C177.958 110.905 178.058 111.005 177.858 111.305Z" fill="#333333"/>
<path d="M7.65781 108.305C8.35781 108.305 8.85781 108.405 9.35781 108.605C9.75781 108.805 10.0578 109.005 10.2578 109.405C10.4578 109.705 10.5578 110.205 10.5578 110.705H8.55781C8.55781 110.405 8.45781 110.205 8.35781 110.105C8.25781 110.005 7.95781 109.905 7.55781 109.905H4.15781C3.55781 109.905 3.15781 110.205 3.15781 110.805C3.15781 111.205 3.25781 111.405 3.35781 111.505C3.55781 111.605 3.75781 111.705 4.05781 111.705H7.75781C8.25781 111.705 8.75781 111.705 9.05781 111.805C9.35781 111.905 9.65781 112.005 9.85781 112.105C10.0578 112.305 10.2578 112.505 10.3578 112.905C10.4578 113.205 10.5578 113.705 10.5578 114.305C10.5578 114.905 10.4578 115.405 10.2578 115.805C10.0578 116.205 9.75781 116.505 9.35781 116.605C8.95781 116.805 8.35781 116.905 7.75781 116.905H3.65781C2.95781 116.905 2.35781 116.805 1.95781 116.605C1.55781 116.405 1.25781 116.205 1.05781 115.805C0.857812 115.405 0.757812 115.005 0.757812 114.405H2.85781C2.85781 114.605 2.95781 114.805 3.15781 115.005C3.35781 115.205 3.55781 115.205 3.85781 115.205H7.25781C7.75781 115.205 8.05781 115.105 8.25781 115.005C8.45781 114.805 8.55781 114.605 8.55781 114.305C8.55781 114.105 8.55781 113.905 8.45781 113.805C8.35781 113.705 8.25781 113.605 8.05781 113.505C7.85781 113.405 7.55781 113.405 7.15781 113.405H4.15781C3.55781 113.405 3.05781 113.405 2.65781 113.305C2.25781 113.205 1.95781 113.105 1.75781 112.905C1.55781 112.705 1.35781 112.505 1.25781 112.105C1.15781 111.805 1.05781 111.305 1.05781 110.805C1.05781 110.405 1.15781 110.005 1.25781 109.705C1.35781 109.405 1.55781 109.205 1.75781 109.005C1.95781 108.805 2.35781 108.705 2.75781 108.605C3.15781 108.505 3.65781 108.505 4.15781 108.505H7.65781V108.305Z" fill="#333333"/>
<path d="M11.9609 116.705V108.305H17.6609C18.1609 108.305 18.6609 108.405 19.0609 108.505C19.4609 108.605 19.7609 108.805 19.9609 109.005C20.1609 109.205 20.3609 109.505 20.4609 109.905C20.5609 110.305 20.6609 110.705 20.6609 111.305C20.6609 112.005 20.5609 112.605 20.3609 113.005C20.1609 113.405 19.8609 113.805 19.4609 114.005C19.0609 114.205 18.4609 114.305 17.7609 114.305H13.9609V116.805L11.9609 116.705ZM13.9609 112.505H17.3609C17.6609 112.505 17.9609 112.505 18.1609 112.405C18.3609 112.305 18.4609 112.205 18.5609 112.005C18.6609 111.805 18.6609 111.605 18.6609 111.205C18.6609 110.805 18.5609 110.405 18.3609 110.205C18.1609 110.005 17.8609 109.905 17.3609 109.905H13.9609V112.505Z" fill="#333333"/>
<path d="M23.4547 116.705H21.0547L25.5547 108.305H28.5547L32.9547 116.705H30.5547L29.4547 114.605H24.4547L23.4547 116.705ZM25.3547 113.005H28.7547L27.1547 109.905H27.0547L25.3547 113.005Z" fill="#333333"/>
<path d="M43.2578 116.705H41.2578V115.405C41.2578 115.005 41.1578 114.705 40.8578 114.505C40.6578 114.305 40.1578 114.205 39.6578 114.205H35.7578V116.705H33.7578V108.305H40.1578C40.6578 108.305 41.0578 108.305 41.3578 108.405C41.7578 108.505 42.0578 108.605 42.2578 108.905C42.5578 109.105 42.7578 109.405 42.8578 109.805C42.9578 110.205 43.0578 110.705 43.0578 111.305C43.0578 111.905 42.9578 112.305 42.7578 112.705C42.5578 113.005 42.2578 113.305 41.8578 113.505C42.2578 113.605 42.4578 113.805 42.6578 113.805C42.8578 113.905 42.9578 114.005 43.0578 114.205C43.1578 114.405 43.2578 114.605 43.2578 115.005V116.705ZM35.6578 109.905V112.505H39.8578C40.2578 112.505 40.5578 112.405 40.7578 112.205C40.9578 112.005 41.0578 111.705 41.0578 111.205C41.0578 110.705 40.9578 110.405 40.8578 110.205C40.6578 110.005 40.3578 109.905 39.9578 109.905H35.6578Z" fill="#333333"/>
<path d="M44.5547 116.705V108.305H53.1547V109.905H46.5547V111.705H52.9547V113.205H46.5547V115.105H53.1547V116.705H44.5547Z" fill="#333333"/>
<path d="M58.7578 116.705V108.305H64.4578C64.9578 108.305 65.4578 108.405 65.8578 108.505C66.2578 108.605 66.5578 108.805 66.7578 109.005C66.9578 109.205 67.1578 109.505 67.2578 109.905C67.3578 110.305 67.4578 110.705 67.4578 111.305C67.4578 112.005 67.3578 112.605 67.1578 113.005C66.9578 113.405 66.6578 113.805 66.2578 114.005C65.8578 114.205 65.2578 114.305 64.5578 114.305H60.7578V116.805L58.7578 116.705ZM60.7578 112.505H64.1578C64.4578 112.505 64.7578 112.505 64.9578 112.405C65.1578 112.305 65.2578 112.205 65.3578 112.005C65.4578 111.805 65.4578 111.605 65.4578 111.205C65.4578 110.805 65.3578 110.405 65.1578 110.205C64.9578 110.005 64.6578 109.905 64.1578 109.905H60.7578V112.505Z" fill="#333333"/>
<path d="M70.2594 116.705H67.8594L72.3594 108.305H75.3594L79.7594 116.705H77.3594L76.2594 114.605H71.2594L70.2594 116.705ZM72.1594 113.005H75.5594L73.9594 109.905H73.8594L72.1594 113.005Z" fill="#333333"/>
<path d="M90.0547 116.705H88.0547V115.405C88.0547 115.005 87.9547 114.705 87.6547 114.505C87.4547 114.305 86.9547 114.205 86.4547 114.205H82.5547V116.705H80.5547V108.305H86.9547C87.4547 108.305 87.8547 108.305 88.1547 108.405C88.5547 108.505 88.8547 108.605 89.0547 108.905C89.3547 109.105 89.5547 109.405 89.6547 109.805C89.7547 110.205 89.8547 110.705 89.8547 111.305C89.8547 111.905 89.7547 112.305 89.5547 112.705C89.3547 113.005 89.0547 113.305 88.6547 113.505C89.0547 113.605 89.2547 113.805 89.4547 113.805C89.6547 113.905 89.7547 114.005 89.8547 114.205C89.9547 114.405 90.0547 114.605 90.0547 115.005V116.705ZM82.4547 109.905V112.505H86.6547C87.0547 112.505 87.3547 112.405 87.5547 112.205C87.7547 112.005 87.8547 111.705 87.8547 111.205C87.8547 110.705 87.7547 110.405 87.6547 110.205C87.4547 110.005 87.1547 109.905 86.7547 109.905H82.4547Z" fill="#333333"/>
<path d="M90.9609 108.305H100.061V110.005H96.5609V116.805H94.5609V110.005H91.0609V108.305H90.9609Z" fill="#333333"/>
<path d="M107.555 108.305C108.255 108.305 108.755 108.405 109.155 108.605C109.555 108.805 109.855 109.005 110.055 109.405C110.255 109.705 110.355 110.205 110.355 110.705H108.355C108.355 110.405 108.255 110.205 108.155 110.105C108.055 110.005 107.755 109.905 107.355 109.905H103.955C103.355 109.905 102.955 110.205 102.955 110.805C102.955 111.205 103.055 111.405 103.155 111.505C103.355 111.605 103.555 111.705 103.855 111.705H107.555C108.055 111.705 108.555 111.705 108.855 111.805C109.155 111.905 109.455 112.005 109.655 112.105C109.855 112.305 110.055 112.505 110.155 112.905C110.255 113.205 110.355 113.705 110.355 114.305C110.355 114.905 110.255 115.405 110.055 115.805C109.855 116.205 109.555 116.505 109.155 116.605C108.755 116.805 108.155 116.905 107.555 116.905H103.455C102.755 116.905 102.155 116.805 101.755 116.605C101.355 116.405 101.055 116.205 100.855 115.805C100.655 115.405 100.555 115.005 100.555 114.405H102.655C102.655 114.605 102.755 114.805 102.955 115.005C103.155 115.205 103.355 115.205 103.655 115.205H107.055C107.455 115.205 107.855 115.105 108.055 115.005C108.255 114.805 108.355 114.605 108.355 114.305C108.355 114.105 108.355 113.905 108.255 113.805C108.155 113.705 108.055 113.605 107.855 113.505C107.655 113.405 107.355 113.405 106.955 113.405H103.955C103.355 113.405 102.855 113.405 102.455 113.305C102.055 113.205 101.755 113.105 101.555 112.905C101.355 112.705 101.155 112.505 101.055 112.105C100.955 111.805 100.855 111.305 100.855 110.805C100.855 110.405 100.955 110.005 101.055 109.705C101.155 109.405 101.355 109.205 101.555 109.005C101.755 108.805 102.155 108.705 102.555 108.605C102.955 108.505 103.455 108.505 103.955 108.505H107.555V108.305Z" fill="#333333"/>
<path d="M184.659 8.5034C181.459 10.6034 180.659 13.3034 176.559 18.4034C176.359 18.6034 176.559 18.5034 176.659 18.5034C177.159 18.4034 173.859 24.1034 170.959 27.0034C165.659 32.0034 161.659 41.3034 156.659 48.5034C155.359 50.3034 154.259 52.3034 152.859 54.5034C145.159 65.6034 139.259 76.6034 131.659 88.6034C129.659 91.8034 128.259 94.8034 126.859 97.6034C125.959 99.3034 124.759 100.903 123.759 102.303C123.559 102.603 122.959 104.903 122.359 106.103C122.159 106.703 121.259 107.103 120.959 107.703C120.259 108.803 119.859 109.903 119.259 111.103C119.059 111.603 118.659 111.303 118.559 111.603C117.659 113.203 117.459 114.703 116.759 115.603L115.259 117.603L114.559 118.703L114.159 119.603C113.159 121.803 111.859 124.303 110.759 126.603L110.359 127.303C110.859 126.903 112.159 125.403 112.159 125.403C114.159 122.203 116.059 119.103 117.959 116.203C118.059 115.903 118.059 115.703 118.259 115.403L118.859 114.803L119.659 113.503L119.759 113.303L121.659 110.403L121.959 109.803C122.359 109.103 122.759 108.303 123.159 108.003L123.459 107.503H123.359L123.559 107.403L125.059 105.203L127.959 100.803C134.259 91.3034 139.759 82.3034 146.259 72.3034C149.759 66.9034 153.159 61.8034 156.659 56.8034C163.459 46.8034 168.759 37.2034 176.259 27.4034C179.059 23.6034 183.459 16.1034 185.859 12.3034C188.359 6.7034 184.959 8.3034 184.659 8.5034ZM111.659 125.503C111.659 125.503 111.459 126.003 111.359 126.303C111.059 126.603 111.059 126.703 110.859 126.603C111.459 125.503 112.159 124.403 113.059 123.303C113.159 123.103 113.159 123.203 113.059 123.103C113.059 123.103 113.059 122.803 113.259 122.503L113.759 122.103C113.159 123.403 112.559 124.603 111.659 125.503ZM120.259 112.303L119.859 113.003C119.859 112.803 119.859 112.803 119.659 112.903L120.259 112.303ZM126.659 102.103C127.059 101.403 127.659 100.503 128.359 99.9034C127.759 100.903 127.259 101.603 126.659 102.103Z" fill="#333333"/>
<path d="M200.362 0.801474C196.962 3.50147 195.763 6.60147 191.163 12.7015C190.863 13.1015 191.362 12.7015 191.262 13.0015C190.962 14.0015 187.362 19.8015 184.462 22.9015C178.662 29.1015 173.263 39.9015 167.363 48.4015C165.863 50.5015 164.462 52.9015 162.762 55.5015C153.662 68.7015 146.262 81.7015 137.062 95.8015C134.662 99.6015 132.862 103.101 131.062 106.401C129.862 108.401 128.363 110.501 127.163 112.201C126.963 112.501 126.163 114.901 125.363 116.301C125.063 116.901 124.063 117.601 123.863 118.201C123.063 119.501 122.462 120.701 121.762 122.101C121.462 122.701 121.163 122.401 121.062 122.701C119.962 124.601 119.563 126.301 118.663 127.401L116.962 129.801L115.962 131.301L115.462 132.401C114.162 134.901 112.562 137.901 111.062 140.601L110.562 141.401C111.163 140.901 112.663 139.001 112.663 139.001C115.063 135.201 117.363 131.601 119.663 128.101C119.763 127.801 119.862 127.501 120.062 127.201L120.663 126.501L121.663 125.001L121.762 124.801L121.962 124.401C122.062 124.101 122.063 124.201 121.863 124.301L122.462 123.501V123.601L122.262 124.001L122.062 124.301L121.962 124.401V124.501L124.062 121.201L124.462 120.401C124.962 119.501 125.462 118.701 125.962 118.201L126.363 117.601L126.262 117.701L126.462 117.501L128.163 114.901L131.562 109.701C139.062 98.4015 145.762 87.7015 153.562 75.9015C157.762 69.5015 161.862 63.4015 165.962 57.5015C174.062 45.6015 180.663 34.3015 189.363 22.6015C192.663 18.1015 198.062 9.30147 200.862 4.70147C204.062 -1.59853 200.662 0.501474 200.362 0.801474ZM111.962 139.301C111.962 139.301 111.662 139.901 111.462 140.201C111.162 140.501 111.162 140.601 110.962 140.601C111.762 139.201 112.663 137.901 113.663 136.601C113.763 136.501 113.562 136.601 113.562 136.601C113.562 136.501 113.663 136.301 113.863 135.901L114.462 135.401C113.762 136.801 113.062 138.201 111.962 139.301ZM130.363 110.801C130.863 109.901 131.163 109.501 131.863 108.701C131.363 109.901 131.063 110.201 130.363 110.801Z" fill="#333333"/>
<path d="M197.358 21.4993C195.158 22.6993 194.558 24.4993 191.858 27.6993C191.658 27.8993 191.858 27.7993 191.958 27.7993C192.158 27.9993 189.958 31.4993 188.058 33.1993C184.358 36.2993 181.758 42.3993 178.258 46.9993C177.458 48.0993 176.658 49.3993 175.658 50.7993C170.458 57.8993 166.458 65.0993 161.258 72.7993C159.958 74.8993 159.058 76.7993 158.058 78.6993C157.258 79.9993 156.258 81.1993 155.558 82.2993C154.558 83.7993 153.258 86.2993 152.458 87.6993C152.458 87.7993 152.358 87.7993 152.358 87.8993C151.858 88.8993 151.758 89.7993 151.258 90.3993L150.258 91.6993L149.658 92.4993L149.358 93.0993C148.658 94.4993 147.858 96.0993 147.058 97.5993L146.758 98.0993C147.158 97.7993 148.058 96.8993 148.058 96.8993C149.458 94.7993 150.758 92.8993 151.958 90.9993C151.958 90.7993 151.958 90.6993 152.158 90.4993L152.558 90.0993L153.158 89.2993L153.258 89.1993L154.558 87.2993L154.758 86.8993C155.058 86.3993 155.258 85.8993 155.558 85.6993L155.758 85.3993L156.758 83.9993L158.658 81.1993C162.958 75.0993 166.658 69.2993 171.058 62.8993C173.458 59.3993 175.758 56.0993 178.158 52.8993C182.858 46.4992 186.358 40.1993 191.458 33.9993C193.458 31.5993 196.358 26.7993 197.958 24.2993C199.958 20.4993 197.458 21.3993 197.358 21.4993ZM147.858 96.8993C147.858 96.8993 147.658 97.1993 147.658 97.3993C147.458 97.5993 147.458 97.5993 147.358 97.5993C147.758 96.8993 148.258 96.0993 148.858 95.4993C148.958 95.3993 148.858 95.3993 148.858 95.3993C148.758 95.3993 148.858 95.2993 148.958 94.9993L149.358 94.7993C148.858 95.4993 148.458 96.2993 147.858 96.8993ZM153.758 88.3993L153.458 88.8993C153.458 88.7993 153.458 88.7993 153.358 88.7993L153.758 88.1993V88.3993ZM155.058 84.2993C154.958 84.6993 154.258 84.8993 154.158 85.2993C153.758 85.9993 153.458 86.6993 153.058 87.4993C152.958 87.7993 152.858 87.6993 152.758 87.6993C153.658 86.1993 153.658 85.5993 155.758 82.4993C156.458 81.2993 155.458 83.4993 155.058 84.2993ZM157.958 81.7993C158.158 81.2993 158.658 80.7993 159.058 80.3993C158.858 80.9993 158.358 81.3993 157.958 81.7993Z" fill="#333333"/>
<path d="M184.361 60.2031C184.861 60.2031 185.261 60.3031 185.761 60.4031C186.161 60.5031 186.561 60.8031 186.961 61.0031C187.361 61.3031 187.661 61.6031 187.861 62.0031C188.161 62.4031 188.361 62.8031 188.461 63.2031C188.561 63.6031 188.661 64.1031 188.661 64.6031C188.661 65.1031 188.561 65.5031 188.461 66.0031C188.361 66.5031 188.061 66.9031 187.861 67.2031C187.561 67.6031 187.261 67.9031 186.961 68.2031C186.561 68.5031 186.161 68.7031 185.761 68.8031C185.361 69.0031 184.861 69.0031 184.361 69.0031C183.761 69.0031 183.161 68.9031 182.661 68.6031C182.161 68.4031 181.661 68.0031 181.261 67.6031C180.861 67.2031 180.561 66.7031 180.361 66.2031C180.161 65.7031 179.961 65.1031 179.961 64.5031C179.961 63.9031 180.061 63.3031 180.361 62.8031C180.561 62.3031 180.961 61.8031 181.261 61.4031C181.661 61.0031 182.161 60.7031 182.661 60.5031C183.161 60.3031 183.761 60.2031 184.361 60.2031ZM184.361 60.9031C183.661 60.9031 183.061 61.1031 182.461 61.4031C181.861 61.7031 181.461 62.2031 181.161 62.8031C180.861 63.4031 180.661 64.0031 180.661 64.7031C180.661 65.2031 180.761 65.7031 180.961 66.1031C181.161 66.6031 181.461 67.0031 181.761 67.3031C182.061 67.6031 182.461 67.9031 182.961 68.1031C183.461 68.3031 183.861 68.4031 184.361 68.4031C185.061 68.4031 185.661 68.2031 186.161 67.9031C186.761 67.6031 187.161 67.1031 187.461 66.5031C187.761 65.9031 187.961 65.3031 187.961 64.7031C187.961 64.0031 187.761 63.4031 187.461 62.8031C187.161 62.2031 186.661 61.8031 186.161 61.4031C185.661 61.0031 185.061 60.9031 184.361 60.9031ZM182.461 67.0031V62.1031H184.861C185.361 62.1031 185.761 62.2031 186.061 62.5031C186.361 62.7031 186.461 63.1031 186.461 63.7031C186.461 63.9031 186.461 64.0031 186.461 64.2031C186.461 64.3031 186.361 64.5031 186.361 64.6031C186.261 64.7031 186.161 64.8031 186.061 64.9031C185.961 65.0031 185.761 65.0031 185.661 65.0031C185.961 65.0031 186.161 65.1031 186.261 65.3031C186.361 65.5031 186.461 65.7031 186.461 66.0031V67.1031H185.561V66.1031C185.561 65.7031 185.261 65.5031 184.761 65.5031H183.461V67.1031L182.461 67.0031ZM183.361 62.9031V64.6031H184.661C184.961 64.6031 185.161 64.5031 185.261 64.4031C185.361 64.3031 185.461 64.1031 185.461 63.8031C185.461 63.5031 185.361 63.3031 185.261 63.2031C185.161 63.1031 184.961 63.0031 184.661 63.0031H183.361V62.9031Z" fill="#333333"/>
</svg>
