<svg width="202" height="142" viewBox="0 0 202 142" fill="none" xmlns="http://www.w3.org/2000/svg">
<path d="M61.3359 60.4766L51.0359 75.4766L42.5359 60.4766H30.3359L44.2359 84.8766L43.4359 99.4766H55.9359L56.7359 84.7766L73.4359 60.4766H61.3359Z" fill="#ED1C24"/>
<path d="M108.542 60.4766L107.242 85.1766L93.2422 60.4766H79.3422L77.2422 99.4766H89.6422L90.8422 75.5766L104.442 99.4766H118.742L120.842 60.4766H108.542Z" fill="#ED1C24"/>
<path d="M142.636 60.4766H128.336L150.536 99.4766H164.836L142.636 60.4766Z" fill="#ED1C24"/>
<path d="M12.9391 89.4766L14.4391 60.4766H2.13906L0.0390625 99.4766H29.9391L30.5391 89.4766H12.9391Z" fill="#ED1C24"/>
<path d="M145.136 116.373C141.736 117.973 148.336 110.873 147.036 109.173C146.936 108.673 146.236 108.373 145.736 108.373C146.636 108.573 147.136 109.373 146.536 110.073L146.736 109.873C146.636 110.373 146.736 110.873 146.336 110.673C146.236 111.173 145.836 112.173 145.336 112.273H145.436C145.236 112.373 144.536 113.773 144.636 113.173C144.636 113.273 144.636 113.373 144.536 113.473C144.436 113.373 144.136 112.973 144.436 112.973C144.336 112.873 144.436 112.773 144.636 112.773C144.436 112.573 145.036 112.173 144.936 112.073C146.836 110.873 145.836 107.373 143.036 108.273C143.236 108.273 143.136 108.273 143.236 108.373C142.136 108.473 141.536 108.573 140.436 109.173C140.736 108.773 141.036 108.273 141.236 107.773C140.936 107.773 140.336 108.773 140.936 108.173C140.236 108.873 139.636 109.673 139.136 110.573C140.236 111.073 140.236 109.373 141.136 109.173C142.736 108.673 146.636 108.373 145.136 111.073C145.136 111.073 145.136 111.073 145.036 111.173C145.036 111.173 145.036 111.073 145.136 111.073C145.336 110.673 145.536 110.173 145.236 109.673C145.336 109.873 145.236 110.073 145.236 110.373C145.136 111.373 142.936 111.673 142.536 111.373C142.236 111.573 142.136 111.373 141.936 111.373C141.736 111.473 142.136 111.373 142.036 111.473C141.836 111.473 141.236 111.973 141.536 111.573C140.636 111.973 139.536 112.173 138.536 112.573C138.736 112.473 138.936 112.373 139.136 112.273C138.636 112.473 138.236 112.773 137.736 113.073H137.836C137.836 113.073 137.736 113.073 137.736 113.173H137.936C137.636 113.573 137.336 113.673 136.936 113.873C137.136 113.873 136.836 114.373 136.636 114.273C136.536 114.873 136.336 114.473 136.036 115.173C135.936 115.673 136.136 115.173 136.136 115.473C136.036 116.173 135.936 115.473 135.736 115.773C135.636 115.073 136.136 114.373 136.336 114.073C136.136 114.373 135.936 114.773 135.736 115.173C135.636 115.073 135.436 115.973 135.436 115.273C134.736 116.673 136.436 118.773 137.836 118.273C136.936 118.073 138.236 118.173 138.136 118.273C139.036 117.773 139.536 117.773 140.436 117.673L140.336 117.573C140.636 117.473 140.736 117.473 140.936 117.373C140.636 117.873 140.536 118.573 141.436 119.373L141.236 119.473C143.136 119.873 143.536 118.373 144.636 118.473C146.336 118.273 148.136 115.873 145.136 116.373ZM139.736 109.973C139.636 110.173 139.536 110.273 139.536 110.273C139.636 110.073 139.836 109.673 140.036 109.473L139.736 109.973ZM144.336 113.773H144.136C144.336 113.573 144.336 113.673 144.336 113.773ZM144.536 111.373C144.336 111.473 144.136 111.573 143.836 111.473C144.036 111.473 144.236 111.373 144.536 111.373ZM143.536 111.473V111.573C143.436 111.573 143.436 111.473 143.236 111.473C143.436 111.473 143.536 111.473 143.536 111.473ZM138.336 112.573C138.336 112.673 138.236 112.573 138.236 112.673L138.336 112.573ZM136.736 115.973C136.936 116.373 137.236 116.673 137.636 116.873C137.036 116.773 136.636 116.473 136.736 115.973ZM143.236 116.173C143.036 116.473 143.036 117.173 143.536 117.473C143.036 117.573 142.536 117.773 142.136 117.873C142.336 117.473 142.336 117.173 142.536 116.773C142.436 116.673 142.436 116.673 142.436 116.673C142.336 116.573 141.936 116.173 141.836 115.773C141.836 116.073 141.436 115.573 141.836 115.673C141.836 115.673 141.736 115.573 141.736 115.473C141.636 115.673 141.636 115.673 141.536 115.573C141.436 115.673 141.336 115.673 141.236 115.673C139.436 117.173 134.936 116.073 138.436 113.873C138.336 113.973 138.236 114.073 138.236 114.173C138.336 113.973 138.436 113.873 138.636 113.773C138.536 113.773 138.336 113.873 138.336 113.873C138.536 113.673 138.636 113.573 138.836 113.473C139.136 113.073 139.636 113.073 139.336 113.573C139.436 113.473 139.636 113.473 139.636 113.673C140.036 113.573 140.336 113.373 140.536 113.173C140.236 113.173 140.536 112.973 140.636 113.173C140.636 112.773 140.936 112.773 141.336 112.873L141.236 112.773C141.336 112.773 141.736 112.473 141.536 112.773C141.636 112.673 141.736 112.873 141.836 112.773L141.736 112.973C141.836 112.973 142.036 112.873 141.936 112.973C142.036 112.873 142.736 112.473 142.736 112.673C142.836 112.473 143.236 112.573 143.336 112.473C143.336 112.573 143.536 112.273 143.636 112.273C143.836 112.373 143.736 112.473 143.936 112.373C143.336 113.373 142.736 114.373 142.636 115.473C142.836 115.073 142.836 114.873 143.336 114.873C143.036 114.873 143.336 114.673 143.336 114.573L143.536 114.673C143.436 114.573 143.636 114.473 143.736 114.473C143.536 114.273 143.836 114.273 143.936 114.273C142.936 115.673 143.936 114.773 143.236 116.173ZM142.136 116.973C142.436 117.273 142.336 117.173 142.136 116.973ZM143.736 114.673C143.836 114.473 143.836 114.373 143.736 114.273C143.736 114.373 143.636 114.373 143.636 114.373C143.736 114.373 143.936 113.873 144.036 114.173C144.236 113.473 143.936 114.673 143.736 114.673Z" fill="white"/>
<path d="M159.637 108.678C158.637 108.778 155.637 109.778 157.137 109.078C156.537 109.078 155.637 109.678 155.237 110.078C155.337 109.978 155.437 109.978 155.537 110.078C154.637 110.778 156.037 109.778 155.737 110.478C155.737 110.478 155.637 110.478 155.637 110.578C155.837 110.578 156.037 110.478 156.337 110.378C156.237 110.378 156.237 110.378 156.137 110.378C157.937 109.078 159.437 110.378 157.837 111.878C157.937 111.578 157.837 111.778 157.938 111.578C157.837 111.778 157.938 112.778 157.438 112.278C157.538 112.578 155.637 114.578 156.737 113.078C156.337 113.478 156.437 113.578 156.137 113.978L156.237 113.478C155.737 114.378 155.737 113.878 155.337 114.678C154.937 114.878 155.237 114.778 154.737 115.278C154.937 114.678 154.537 115.378 154.237 115.478C153.937 115.878 154.337 115.578 154.137 115.778C153.537 116.278 153.937 115.678 153.637 115.678C154.037 115.178 154.537 114.678 154.737 114.478L153.938 115.278C153.938 115.178 153.337 115.678 153.637 115.178C152.737 115.878 151.738 116.578 150.938 116.678C151.538 116.678 150.737 116.878 150.737 116.578C149.537 117.078 150.437 115.578 150.237 115.378C150.337 115.178 150.737 113.878 150.537 114.678C150.737 114.278 150.837 114.378 151.037 113.978V114.378C151.237 114.078 151.438 113.578 151.438 113.778C151.638 113.378 152.438 111.778 152.938 111.678C157.738 106.178 151.737 107.278 148.438 109.878C148.638 111.578 150.337 110.078 151.037 109.978C151.637 110.178 148.337 113.378 148.537 114.878C148.937 113.978 149.137 113.178 150.037 112.678L149.837 112.778C150.137 112.278 150.237 111.778 150.537 112.078C146.637 117.478 151.637 120.878 157.237 113.778L156.938 114.078C157.938 112.678 159.537 111.178 158.737 109.378L158.637 109.278C158.837 109.478 159.037 109.278 159.237 109.178C159.137 109.178 159.137 109.178 159.037 109.178C161.637 108.078 158.537 111.678 158.237 113.078C158.637 112.078 161.737 109.178 159.637 108.678ZM155.438 109.978C155.538 109.978 155.537 110.078 155.537 110.078C155.437 110.178 155.337 109.978 155.438 109.978ZM151.837 110.778H151.737C151.837 110.578 152.037 110.378 151.837 110.778ZM152.837 108.878C153.137 108.678 153.637 108.978 153.737 108.878C153.337 109.278 152.538 110.078 151.938 110.378C152.238 110.178 151.937 109.578 151.637 109.278C152.137 109.078 152.537 108.978 152.837 108.878ZM151.737 110.778C151.437 111.178 151.237 111.278 151.037 111.478C151.037 111.078 151.637 110.878 151.737 110.778Z" fill="white"/>
<path d="M171.137 108.175C170.537 107.875 168.337 107.775 167.937 108.075C168.637 108.075 169.437 107.975 170.237 108.075C170.137 108.075 168.237 108.175 168.037 108.175C168.237 108.175 168.137 108.175 168.237 108.275C165.437 108.575 167.937 106.575 169.037 105.875L168.637 106.075C169.537 105.475 169.037 105.475 168.837 105.475C168.737 105.475 168.737 105.375 168.937 105.175C168.737 105.375 168.837 105.275 168.837 105.475C169.037 105.175 169.037 105.075 169.037 104.975C168.737 105.075 168.137 105.375 168.737 104.975C168.537 105.175 168.337 105.275 168.437 104.875C168.037 105.075 166.437 106.975 167.137 105.975C166.437 106.975 166.537 106.675 165.837 107.175C165.437 107.575 165.937 107.175 165.737 107.575C165.037 108.175 165.537 107.475 165.137 107.575C165.537 107.075 166.137 106.375 166.337 106.075C166.037 106.375 165.737 106.675 165.437 106.975C165.437 106.875 164.737 107.475 165.137 106.975C164.337 108.075 162.837 107.775 161.737 108.375C162.737 108.175 161.237 108.675 161.237 108.675C160.437 110.475 162.737 109.675 163.137 109.775C162.937 110.075 162.837 110.075 162.637 110.475L162.737 110.075C162.537 110.475 162.237 110.975 162.237 110.775C162.037 111.575 161.237 112.675 161.037 113.675L160.937 113.575C159.937 115.675 160.737 118.775 163.137 118.875C164.937 118.475 163.737 119.375 163.537 120.575C164.137 123.275 165.737 118.975 166.237 118.175C166.437 117.275 169.437 114.875 167.537 114.675C166.537 115.375 166.237 116.375 165.637 117.475C166.037 117.075 166.037 116.575 166.437 116.575C166.237 116.675 165.437 117.975 165.437 117.775C165.337 118.075 165.037 118.275 164.937 118.575C163.237 117.275 160.137 118.175 162.437 114.575C162.137 114.375 162.737 113.375 163.137 113.075C163.437 112.475 162.837 113.375 162.937 112.975C163.137 112.675 164.137 110.675 163.837 111.375C164.137 110.875 164.937 110.075 164.537 109.475L164.937 109.375C166.737 108.575 165.937 107.875 166.837 108.475C164.537 109.075 164.037 111.975 163.337 113.675C164.937 109.575 166.737 108.275 170.837 108.775C170.437 108.475 171.737 108.575 170.837 108.375C170.537 107.875 171.837 108.475 171.037 108.775H171.137C171.137 108.775 171.237 108.775 171.237 108.675C171.237 108.575 171.237 108.375 171.137 108.175ZM164.037 120.575C164.137 120.475 164.037 120.475 164.037 120.575ZM166.337 116.375C166.437 116.075 166.937 115.575 167.237 115.475V115.775C166.737 116.075 166.537 116.275 166.337 116.375ZM163.237 109.775H163.337C163.337 109.975 163.037 110.175 163.237 109.775ZM163.937 108.575C163.837 108.475 163.837 108.375 163.937 108.575Z" fill="white"/>
<path d="M177.439 108.278C177.239 108.178 176.839 108.478 176.639 108.578C177.039 108.478 177.539 108.378 177.639 108.978C177.639 108.578 177.839 108.978 178.039 108.978L177.839 109.178C177.939 109.178 177.939 109.378 177.939 109.478C178.239 109.378 178.039 109.778 177.939 109.878H178.039C178.039 109.878 177.939 110.578 177.739 110.378C177.839 110.478 177.839 110.678 177.639 110.578C177.639 110.978 177.639 111.078 177.439 110.778C177.339 110.578 177.339 110.478 177.139 110.378C177.339 111.478 176.939 112.778 176.439 113.578C176.439 113.678 175.939 113.878 176.239 113.978C175.639 114.378 174.839 114.878 174.539 115.178L174.739 114.878C174.639 115.078 174.439 115.278 174.139 115.278C173.939 115.578 174.339 115.178 174.339 115.378C174.039 115.578 174.039 115.678 173.839 115.878C173.739 115.978 173.539 115.978 173.739 115.778L173.639 115.878C173.439 115.678 173.839 115.478 173.839 115.378C173.739 115.478 173.339 115.778 173.439 115.478C173.139 115.678 172.839 115.778 172.639 115.978C172.839 115.978 172.539 116.178 172.539 115.978C172.439 116.278 172.239 116.378 171.939 116.178V116.278C171.839 116.178 171.439 116.378 171.739 116.178C171.639 116.178 171.639 116.078 171.539 116.078L171.639 115.878C171.539 115.878 171.439 115.878 171.539 115.778C171.439 115.778 170.939 115.678 171.139 115.578C170.939 115.578 170.939 115.378 170.839 115.278C170.339 113.978 171.839 112.178 172.539 110.578C172.339 110.778 172.239 111.078 171.939 110.978C172.339 110.478 172.739 110.078 172.939 109.578C171.939 110.178 170.939 111.378 170.339 112.178C169.739 112.578 169.339 115.578 169.039 115.978C169.139 116.178 169.539 116.378 169.039 116.378C169.139 116.478 169.639 117.478 169.139 116.778C169.239 116.978 169.339 116.978 169.439 117.078H169.139C169.439 117.178 169.339 117.378 169.439 117.578C169.439 117.378 169.839 117.378 169.739 117.678C170.239 117.578 169.739 117.778 170.239 117.878C170.739 117.578 170.439 117.978 170.539 118.178C170.239 118.178 169.739 118.178 169.539 118.078C169.739 118.178 170.039 118.178 170.239 118.178C170.139 118.278 170.739 118.378 170.339 118.378C171.039 118.478 171.839 118.278 172.339 117.978C171.939 117.978 172.439 117.778 172.439 117.878C172.639 117.378 172.939 117.278 173.539 117.278L173.439 117.178C173.639 117.178 174.039 116.578 173.839 117.078C174.039 116.878 174.139 117.078 174.239 116.878L174.139 117.178C174.339 117.078 174.539 116.878 174.539 116.978C174.739 116.678 175.239 116.278 175.539 115.878L175.639 115.978C177.039 114.378 180.939 109.678 177.439 108.278ZM172.039 110.878C171.939 111.078 171.839 110.978 171.839 111.178C171.839 111.078 172.039 110.978 172.039 110.878ZM170.139 113.978C170.139 114.178 170.139 114.178 170.039 114.378C170.039 114.278 170.139 114.178 170.139 113.978ZM169.939 115.878C169.839 115.778 169.939 115.278 169.939 115.178C170.039 115.278 169.939 115.678 169.939 115.878ZM169.939 115.078C169.839 114.978 169.839 114.578 170.039 114.578C170.039 114.778 170.039 114.878 169.939 115.078ZM170.239 116.378C170.139 116.278 170.139 116.278 170.039 116.178C169.939 115.878 170.339 116.278 170.239 116.378ZM177.639 111.578C177.539 111.478 177.639 111.278 177.539 111.078C177.739 111.178 177.839 111.278 177.639 111.578Z" fill="white"/>
<path d="M7.43906 108.578C8.13906 108.578 8.63906 108.678 9.13906 108.878C9.53906 109.078 9.83906 109.278 10.0391 109.678C10.2391 109.978 10.3391 110.478 10.3391 110.978H8.33906C8.33906 110.678 8.23906 110.478 8.13906 110.378C8.03906 110.278 7.73906 110.178 7.33906 110.178H3.93906C3.33906 110.178 2.93906 110.478 2.93906 111.078C2.93906 111.478 3.03906 111.678 3.13906 111.778C3.33906 111.878 3.53906 111.978 3.83906 111.978H7.53906C8.03906 111.978 8.53906 111.978 8.83906 112.078C9.13906 112.178 9.43906 112.278 9.63906 112.378C9.83906 112.578 10.0391 112.778 10.1391 113.178C10.2391 113.478 10.3391 113.978 10.3391 114.578C10.3391 115.178 10.2391 115.678 10.0391 116.078C9.83906 116.478 9.53906 116.778 9.13906 116.878C8.73906 117.078 8.13906 117.178 7.53906 117.178H3.43906C2.73906 117.178 2.13906 117.078 1.73906 116.878C1.33906 116.678 1.03906 116.478 0.839062 116.078C0.639062 115.678 0.539062 115.278 0.539062 114.678H2.63906C2.63906 114.878 2.73906 115.078 2.93906 115.278C3.13906 115.478 3.33906 115.478 3.63906 115.478H7.03906C7.53906 115.478 7.83906 115.378 8.03906 115.278C8.23906 115.078 8.33906 114.878 8.33906 114.578C8.33906 114.378 8.33906 114.178 8.23906 114.078C8.13906 113.978 8.03906 113.878 7.83906 113.778C7.63906 113.678 7.33906 113.678 6.93906 113.678H3.93906C3.33906 113.678 2.83906 113.678 2.43906 113.578C2.03906 113.478 1.73906 113.378 1.53906 113.178C1.33906 112.978 1.13906 112.778 1.03906 112.378C0.939062 112.078 0.839062 111.578 0.839062 111.078C0.839062 110.678 0.939062 110.278 1.03906 109.978C1.13906 109.678 1.33906 109.478 1.53906 109.278C1.73906 109.078 2.13906 108.978 2.53906 108.878C2.93906 108.778 3.43906 108.778 3.93906 108.778H7.43906V108.578Z" fill="white"/>
<path d="M11.7422 116.978V108.578H17.4422C17.9422 108.578 18.4422 108.678 18.8422 108.778C19.2422 108.878 19.5422 109.078 19.7422 109.278C19.9422 109.478 20.1422 109.778 20.2422 110.178C20.3422 110.578 20.4422 110.978 20.4422 111.578C20.4422 112.278 20.3422 112.878 20.1422 113.278C19.9422 113.678 19.6422 114.078 19.2422 114.278C18.8422 114.478 18.2422 114.578 17.5422 114.578H13.7422V117.078H11.7422V116.978ZM13.7422 112.778H17.1422C17.4422 112.778 17.7422 112.778 17.9422 112.678C18.1422 112.578 18.2422 112.478 18.3422 112.278C18.4422 112.078 18.4422 111.878 18.4422 111.478C18.4422 111.078 18.3422 110.678 18.1422 110.478C17.9422 110.278 17.6422 110.178 17.1422 110.178H13.7422V112.778Z" fill="white"/>
<path d="M23.2359 116.978H20.8359L25.3359 108.578H28.3359L32.7359 116.978H30.3359L29.2359 114.878H24.2359L23.2359 116.978ZM25.1359 113.278H28.5359L26.9359 110.178H26.8359L25.1359 113.278Z" fill="white"/>
<path d="M43.0391 116.978H41.0391V115.678C41.0391 115.278 40.9391 114.978 40.6391 114.778C40.4391 114.578 39.9391 114.478 39.4391 114.478H35.5391V116.978H33.5391V108.578H39.9391C40.4391 108.578 40.8391 108.578 41.1391 108.678C41.5391 108.778 41.8391 108.878 42.0391 109.178C42.3391 109.378 42.5391 109.678 42.6391 110.078C42.7391 110.478 42.8391 110.978 42.8391 111.578C42.8391 112.178 42.7391 112.578 42.5391 112.978C42.3391 113.278 42.0391 113.578 41.6391 113.778C42.0391 113.878 42.2391 114.078 42.4391 114.078C42.6391 114.178 42.7391 114.278 42.8391 114.478C42.9391 114.678 43.0391 114.878 43.0391 115.278V116.978ZM35.4391 110.178V112.778H39.6391C40.0391 112.778 40.3391 112.678 40.5391 112.478C40.7391 112.278 40.8391 111.978 40.8391 111.478C40.8391 110.978 40.7391 110.678 40.6391 110.478C40.4391 110.278 40.1391 110.178 39.7391 110.178H35.4391Z" fill="white"/>
<path d="M44.3359 116.978V108.578H52.9359V110.178H46.3359V111.978H52.7359V113.478H46.3359V115.378H52.9359V116.978H44.3359Z" fill="white"/>
<path d="M58.5391 116.978V108.578H64.2391C64.7391 108.578 65.2391 108.678 65.6391 108.778C66.0391 108.878 66.3391 109.078 66.5391 109.278C66.7391 109.478 66.9391 109.778 67.0391 110.178C67.1391 110.578 67.2391 110.978 67.2391 111.578C67.2391 112.278 67.1391 112.878 66.9391 113.278C66.7391 113.678 66.4391 114.078 66.0391 114.278C65.6391 114.478 65.0391 114.578 64.3391 114.578H60.5391V117.078H58.5391V116.978ZM60.5391 112.778H63.9391C64.2391 112.778 64.5391 112.778 64.7391 112.678C64.9391 112.578 65.0391 112.478 65.1391 112.278C65.2391 112.078 65.2391 111.878 65.2391 111.478C65.2391 111.078 65.1391 110.678 64.9391 110.478C64.7391 110.278 64.4391 110.178 63.9391 110.178H60.5391V112.778Z" fill="white"/>
<path d="M70.0406 116.978H67.6406L72.1406 108.578H75.1406L79.5406 116.978H77.1406L76.0406 114.878H71.0406L70.0406 116.978ZM71.9406 113.278H75.3406L73.7406 110.178H73.6406L71.9406 113.278Z" fill="white"/>
<path d="M89.8359 116.978H87.8359V115.678C87.8359 115.278 87.7359 114.978 87.4359 114.778C87.2359 114.578 86.7359 114.478 86.2359 114.478H82.3359V116.978H80.3359V108.578H86.7359C87.2359 108.578 87.6359 108.578 87.9359 108.678C88.3359 108.778 88.6359 108.878 88.8359 109.178C89.1359 109.378 89.3359 109.678 89.4359 110.078C89.5359 110.478 89.6359 110.978 89.6359 111.578C89.6359 112.178 89.5359 112.578 89.3359 112.978C89.1359 113.278 88.8359 113.578 88.4359 113.778C88.8359 113.878 89.0359 114.078 89.2359 114.078C89.4359 114.178 89.5359 114.278 89.6359 114.478C89.7359 114.678 89.8359 114.878 89.8359 115.278V116.978ZM82.2359 110.178V112.778H86.4359C86.8359 112.778 87.1359 112.678 87.3359 112.478C87.5359 112.278 87.6359 111.978 87.6359 111.478C87.6359 110.978 87.5359 110.678 87.4359 110.478C87.2359 110.278 86.9359 110.178 86.5359 110.178H82.2359Z" fill="white"/>
<path d="M90.7422 108.578H99.8422V110.278H96.3422V117.078H94.3422V110.278H90.8422V108.578H90.7422Z" fill="white"/>
<path d="M107.336 108.578C108.036 108.578 108.536 108.678 108.936 108.878C109.336 109.078 109.636 109.278 109.836 109.678C110.036 109.978 110.136 110.478 110.136 110.978H108.136C108.136 110.678 108.036 110.478 107.936 110.378C107.836 110.278 107.536 110.178 107.136 110.178H103.736C103.136 110.178 102.736 110.478 102.736 111.078C102.736 111.478 102.836 111.678 102.936 111.778C103.136 111.878 103.336 111.978 103.636 111.978H107.336C107.836 111.978 108.336 111.978 108.636 112.078C108.936 112.178 109.236 112.278 109.436 112.378C109.636 112.578 109.836 112.778 109.936 113.178C110.036 113.478 110.136 113.978 110.136 114.578C110.136 115.178 110.036 115.678 109.836 116.078C109.636 116.478 109.336 116.778 108.936 116.878C108.536 117.078 107.936 117.178 107.336 117.178H103.236C102.536 117.178 101.936 117.078 101.536 116.878C101.136 116.678 100.836 116.478 100.636 116.078C100.436 115.678 100.336 115.278 100.336 114.678H102.436C102.436 114.878 102.536 115.078 102.736 115.278C102.936 115.478 103.136 115.478 103.436 115.478H106.836C107.236 115.478 107.636 115.378 107.836 115.278C108.036 115.078 108.136 114.878 108.136 114.578C108.136 114.378 108.136 114.178 108.036 114.078C107.936 113.978 107.836 113.878 107.636 113.778C107.436 113.678 107.136 113.678 106.736 113.678H103.736C103.136 113.678 102.636 113.678 102.236 113.578C101.836 113.478 101.536 113.378 101.336 113.178C101.136 112.978 100.936 112.778 100.836 112.378C100.736 112.078 100.636 111.578 100.636 111.078C100.636 110.678 100.736 110.278 100.836 109.978C100.936 109.678 101.136 109.478 101.336 109.278C101.536 109.078 101.936 108.978 102.336 108.878C102.736 108.778 103.236 108.778 103.736 108.778H107.336V108.578Z" fill="white"/>
<path d="M184.441 8.77684C181.241 10.8768 180.441 13.5768 176.341 18.6768C176.141 18.8768 176.341 18.7768 176.441 18.7768C176.941 18.6768 173.641 24.3768 170.741 27.2768C165.441 32.2768 161.441 41.5768 156.441 48.7768C155.141 50.5768 154.041 52.5768 152.641 54.7768C144.941 65.8768 139.041 76.8768 131.441 88.8768C129.441 92.0768 128.041 95.0768 126.641 97.8768C125.741 99.5768 124.541 101.177 123.541 102.577C123.341 102.877 122.741 105.177 122.141 106.377C121.941 106.977 121.041 107.377 120.741 107.977C120.041 109.077 119.641 110.177 119.041 111.377C118.841 111.877 118.441 111.577 118.341 111.877C117.441 113.477 117.241 114.977 116.541 115.877L115.041 117.877L114.341 118.977L113.941 119.877C112.941 122.077 111.641 124.577 110.541 126.877L110.141 127.577C110.641 127.177 111.941 125.677 111.941 125.677C113.941 122.477 115.841 119.377 117.741 116.477C117.841 116.177 117.841 115.977 118.041 115.677L118.641 115.077L119.441 113.777L119.541 113.577L121.441 110.677L121.741 110.077C122.141 109.377 122.541 108.577 122.941 108.277L123.241 107.777H123.141L123.341 107.677L124.841 105.477L127.741 101.077C134.041 91.5768 139.541 82.5768 146.041 72.5768C149.541 67.1768 152.941 62.0768 156.441 57.0768C163.241 47.0768 168.541 37.4768 176.041 27.6768C178.841 23.8768 183.241 16.3768 185.641 12.5768C188.141 6.97684 184.741 8.57684 184.441 8.77684ZM111.441 125.777C111.441 125.777 111.241 126.277 111.141 126.577C110.841 126.877 110.841 126.977 110.641 126.877C111.241 125.777 111.941 124.677 112.841 123.577C112.941 123.377 112.941 123.477 112.841 123.377C112.841 123.377 112.841 123.077 113.041 122.777L113.541 122.377C112.941 123.677 112.341 124.877 111.441 125.777ZM120.041 112.577L119.641 113.277C119.641 113.077 119.641 113.077 119.441 113.177L120.041 112.577ZM126.441 102.377C126.841 101.677 127.441 100.777 128.141 100.177C127.541 101.177 127.041 101.877 126.441 102.377Z" fill="white"/>
<path d="M200.144 1.07491C196.744 3.77491 195.544 6.87491 190.944 12.9749C190.644 13.3749 191.144 12.9749 191.044 13.2749C190.744 14.2749 187.144 20.0749 184.244 23.1749C178.444 29.3749 173.044 40.1749 167.144 48.6749C165.644 50.7749 164.244 53.1749 162.544 55.7749C153.444 68.9749 146.044 81.9749 136.844 96.0749C134.444 99.8749 132.644 103.375 130.844 106.675C129.644 108.675 128.144 110.775 126.944 112.475C126.744 112.775 125.944 115.175 125.144 116.575C124.844 117.175 123.844 117.875 123.644 118.475C122.844 119.775 122.244 120.975 121.544 122.375C121.244 122.975 120.944 122.675 120.844 122.975C119.744 124.875 119.344 126.575 118.444 127.675L116.744 130.075L115.744 131.575L115.244 132.675C113.944 135.175 112.344 138.175 110.844 140.875L110.344 141.675C110.944 141.175 112.444 139.275 112.444 139.275C114.844 135.475 117.144 131.875 119.444 128.375C119.544 128.075 119.644 127.775 119.844 127.475L120.444 126.775L121.444 125.275L121.544 125.075L121.744 124.675C121.844 124.375 121.844 124.475 121.644 124.575L122.244 123.775V123.875L122.044 124.275L121.844 124.575L121.744 124.675V124.775L123.844 121.475L124.244 120.675C124.744 119.775 125.244 118.975 125.744 118.475L126.144 117.875L126.044 117.975L126.244 117.775L127.944 115.175L131.344 109.975C138.844 98.6749 145.544 87.9749 153.344 76.1749C157.544 69.7749 161.644 63.6749 165.744 57.7749C173.844 45.8749 180.444 34.5749 189.144 22.8749C192.444 18.3749 197.844 9.57491 200.644 4.97491C203.844 -1.32509 200.444 0.774911 200.144 1.07491ZM111.744 139.575C111.744 139.575 111.444 140.175 111.244 140.475C110.944 140.775 110.944 140.875 110.744 140.875C111.544 139.475 112.444 138.175 113.444 136.875C113.544 136.775 113.344 136.875 113.344 136.875C113.344 136.775 113.444 136.575 113.644 136.175L114.244 135.675C113.544 137.075 112.844 138.475 111.744 139.575ZM130.144 111.075C130.644 110.175 130.944 109.775 131.644 108.975C131.144 110.175 130.844 110.475 130.144 111.075Z" fill="white"/>
<path d="M197.139 21.7727C194.939 22.9727 194.339 24.7727 191.639 27.9727C191.439 28.1727 191.639 28.0727 191.739 28.0727C191.939 28.2727 189.739 31.7727 187.839 33.4727C184.139 36.5727 181.539 42.6727 178.039 47.2727C177.239 48.3727 176.439 49.6727 175.439 51.0727C170.239 58.1727 166.239 65.3727 161.039 73.0727C159.739 75.1727 158.839 77.0727 157.839 78.9727C157.039 80.2727 156.039 81.4727 155.339 82.5727C154.339 84.0727 153.039 86.5727 152.239 87.9727C152.239 88.0727 152.139 88.0727 152.139 88.1727C151.639 89.1727 151.539 90.0727 151.039 90.6727L150.039 91.9727L149.439 92.7727L149.139 93.3727C148.439 94.7727 147.639 96.3727 146.839 97.8727L146.539 98.3727C146.939 98.0727 147.839 97.1727 147.839 97.1727C149.239 95.0727 150.539 93.1727 151.739 91.2727C151.739 91.0727 151.739 90.9727 151.939 90.7727L152.339 90.3727L152.939 89.5727L153.039 89.4727L154.339 87.5727L154.539 87.1727C154.839 86.6727 155.039 86.1727 155.339 85.9727L155.539 85.6727L156.539 84.2727L158.439 81.4727C162.739 75.3727 166.439 69.5727 170.839 63.1727C173.239 59.6727 175.539 56.3727 177.939 53.1727C182.639 46.7727 186.139 40.4727 191.239 34.2727C193.239 31.8727 196.139 27.0727 197.739 24.5727C199.739 20.7727 197.239 21.6727 197.139 21.7727ZM147.639 97.1727C147.639 97.1727 147.439 97.4727 147.439 97.6727C147.239 97.8727 147.239 97.8727 147.139 97.8727C147.539 97.1727 148.039 96.3727 148.639 95.7727C148.739 95.6727 148.639 95.6727 148.639 95.6727C148.539 95.6727 148.639 95.5727 148.739 95.2727L149.139 95.0727C148.639 95.7727 148.239 96.5727 147.639 97.1727ZM153.539 88.6727L153.239 89.1727C153.239 89.0727 153.239 89.0727 153.139 89.0727L153.539 88.4727V88.6727ZM154.839 84.5727C154.739 84.9727 154.039 85.1727 153.939 85.5727C153.539 86.2727 153.239 86.9727 152.839 87.7727C152.739 88.0727 152.639 87.9727 152.539 87.9727C153.439 86.4727 153.439 85.8727 155.539 82.7727C156.239 81.5727 155.239 83.7727 154.839 84.5727ZM157.739 82.0727C157.939 81.5727 158.439 81.0727 158.839 80.6727C158.639 81.2727 158.139 81.6727 157.739 82.0727Z" fill="white"/>
<path d="M184.142 60.4766C184.642 60.4766 185.042 60.5766 185.542 60.6766C185.942 60.7766 186.342 61.0766 186.742 61.2766C187.142 61.5766 187.442 61.8766 187.642 62.2766C187.942 62.6766 188.142 63.0766 188.242 63.4766C188.342 63.8766 188.442 64.3766 188.442 64.8766C188.442 65.3766 188.342 65.7766 188.242 66.2766C188.142 66.7766 187.842 67.1766 187.642 67.4766C187.342 67.8766 187.042 68.1766 186.742 68.4766C186.342 68.7766 185.942 68.9766 185.542 69.0766C185.142 69.2766 184.642 69.2766 184.142 69.2766C183.542 69.2766 182.942 69.1766 182.442 68.8766C181.942 68.6766 181.442 68.2766 181.042 67.8766C180.642 67.4766 180.342 66.9766 180.142 66.4766C179.942 65.9766 179.742 65.3766 179.742 64.7766C179.742 64.1766 179.842 63.5766 180.142 63.0766C180.342 62.5766 180.742 62.0766 181.042 61.6766C181.442 61.2766 181.942 60.9766 182.442 60.7766C182.942 60.5766 183.542 60.4766 184.142 60.4766ZM184.142 61.1766C183.442 61.1766 182.842 61.3766 182.242 61.6766C181.642 61.9766 181.242 62.4766 180.942 63.0766C180.642 63.6766 180.442 64.2766 180.442 64.9766C180.442 65.4766 180.542 65.9766 180.742 66.3766C180.942 66.8766 181.242 67.2766 181.542 67.5766C181.842 67.8766 182.242 68.1766 182.742 68.3766C183.242 68.5766 183.642 68.6766 184.142 68.6766C184.842 68.6766 185.442 68.4766 185.942 68.1766C186.542 67.8766 186.942 67.3766 187.242 66.7766C187.542 66.1766 187.742 65.5766 187.742 64.9766C187.742 64.2766 187.542 63.6766 187.242 63.0766C186.942 62.4766 186.442 62.0766 185.942 61.6766C185.442 61.2766 184.842 61.1766 184.142 61.1766ZM182.242 67.2766V62.3766H184.642C185.142 62.3766 185.542 62.4766 185.842 62.7766C186.142 62.9766 186.242 63.3766 186.242 63.9766C186.242 64.1766 186.242 64.2766 186.242 64.4766C186.242 64.5766 186.142 64.7766 186.142 64.8766C186.042 64.9766 185.942 65.0766 185.842 65.1766C185.742 65.2766 185.542 65.2766 185.442 65.2766C185.742 65.2766 185.942 65.3766 186.042 65.5766C186.142 65.7766 186.242 65.9766 186.242 66.2766V67.3766H185.342V66.3766C185.342 65.9766 185.042 65.7766 184.542 65.7766H183.242V67.3766H182.242V67.2766ZM183.142 63.1766V64.8766H184.442C184.742 64.8766 184.942 64.7766 185.042 64.6766C185.142 64.5766 185.242 64.3766 185.242 64.0766C185.242 63.7766 185.142 63.5766 185.042 63.4766C184.942 63.3766 184.742 63.2766 184.442 63.2766H183.142V63.1766Z" fill="white"/>
</svg>
