<svg width="679" height="206" viewBox="0 0 679 206" fill="none" xmlns="http://www.w3.org/2000/svg">
<path d="M669.149 4.86585C672.959 4.86585 676.077 11.3102 676.077 19.1866V107.348C676.077 120.685 674.215 133.618 670.708 144.761L657.175 187.813C654.599 196.047 650.225 200.925 645.484 200.925H10.0155C6.20481 200.925 3.08701 194.481 3.08701 186.605V98.4428C3.08701 85.1066 4.94903 72.1732 8.45656 61.0299L21.967 17.9783C24.5435 9.74384 28.9171 4.86585 33.6588 4.86585H669.127M669.149 0.390625H33.6804C28.2243 0.390625 23.1362 6.11891 20.17 15.5616L6.63784 58.6133C2.9138 70.4726 0.921875 84.3458 0.921875 98.4875V186.649C0.921875 197.032 4.99234 205.445 10.0155 205.445H645.484C650.94 205.445 656.028 199.717 658.994 190.274L672.526 147.223C676.25 135.363 678.242 121.49 678.242 107.348V19.1866C678.242 8.80404 674.172 0.390625 669.149 0.390625Z" fill="#3B4851"/>
</svg>
