<?xml version="1.0" standalone="no"?>
<!DOCTYPE svg PUBLIC "-//W3C//DTD SVG 1.1//EN" "http://www.w3.org/Graphics/SVG/1.1/DTD/svg11.dtd" >
<svg xmlns="http://www.w3.org/2000/svg" xmlns:xlink="http://www.w3.org/1999/xlink" version="1.1">
<metadata>
Created by FontForge 20161013 at Mon Apr 16 13:26:11 2007
 By ,,,
Copyright (c) 2005 Parachute :, www.parachute.gr.  All rights reserved.
</metadata>
<defs>
<font id="PFSquareSansPro-BoldItalic" horiz-adv-x="1818" >
  <font-face 
    font-family="PF Square Sans Pro"
    font-weight="700"
    font-style="italic"
    font-stretch="normal"
    units-per-em="1000"
    panose-1="2 0 8 0 0 0 0 9 0 4"
    ascent="750"
    descent="-250"
    x-height="494"
    cap-height="665"
    bbox="-172.4 -337.444 1760 929.9"
    underline-thickness="50"
    underline-position="-150"
    slope="-12"
    unicode-range="U+0020-FB05"
  />
<missing-glyph horiz-adv-x="456" 
d="M0 700h456v-700h-456v700zM331 85l-103 187l-103 -187h206zM331 615h-207l104 -185zM85 176l95 175l-95 175v-350zM371 176v349l-96 -176z" />
    <glyph glyph-name="fj" unicode="fj" horiz-adv-x="597" 
d="M481 -70q-8 -42 -25.5 -70.5t-42.5 -45t-56.5 -23.5t-67.5 -7q-28 0 -62.5 5.5t-59.5 16.5q-8 3 -12 11t1 24l20 68q4 14 9.5 16.5t24.5 0.5q11 -1 27 -2t26 -1q29 0 47.5 12t26.5 48l75 389h-132l-68 -350q-2 -7 -6.5 -14.5t-18.5 -7.5h-111q-13 0 -17 6t-2 16
q11 54 28 141t42 209h-43q-21 0 -17 23l15 77q4 22 26 22h42q1 4 2.5 11.5t3 16t3 16.5t2.5 12q8 41 24 74t43.5 56t68 35t97.5 12q16 0 38 -1.5t44.5 -4.5t43 -8t34.5 -12q17 -7 16 -16.5t-6 -20.5l-24 -65q-5 -13 -11.5 -14t-23.5 1q-26 2 -50.5 4t-44.5 2q-41 0 -66 -15
t-33 -53l-6 -30h265q11 0 14.5 -4t1.5 -16z" />
    <glyph glyph-name="ffj" unicode="ffj" horiz-adv-x="870" 
d="M755 -70q-9 -43 -26 -71t-41 -44.5t-55.5 -23.5t-68.5 -7q-28 0 -63.5 5.5t-59.5 16.5q-8 3 -12.5 11t0.5 24l20 68q4 13 9.5 16t25.5 1t40.5 -3.5t38 3t30.5 17.5t18 40l74 389h-133q-9 -45 -15 -76.5t-10.5 -55.5t-8.5 -44t-8.5 -43.5t-10.5 -54.5t-15 -76
q-1 -7 -5.5 -14.5t-18.5 -7.5h-111q-11 0 -15 4.5t-4 11.5v6q7 34 11.5 58.5t8.5 46t8 42.5t9.5 48.5t12.5 64.5t18 90h-130q-12 -60 -19.5 -100t-14.5 -75.5t-15 -75t-20 -99.5q-1 -7 -5.5 -14.5t-18.5 -7.5h-111q-11 0 -15 4.5t-4 11.5v6q6 32 11 56t9.5 46t9 44.5t10 51
t13 65t17.5 87.5h-43q-18 0 -18 14q0 2 0.5 4t0.5 4l15 77q5 23 26 23h42l10 48q9 41 25 73.5t43 55.5t65.5 35t92.5 12q32 0 69 -5t66 -16q29 25 80 35t108 9q33 -2 67 -8t64 -20q16 -7 16 -19q0 -5 -1.5 -9.5t-3.5 -9.5l-25 -64q-5 -11 -17 -13t-26 0q-28 5 -49 6t-38 1
q-39 0 -64.5 -14.5t-33.5 -52.5l-9 -44h266q11 0 15 -4t2 -16zM378 584q-66 0 -78 -57l-7 -33h129q3 12 5 24t4 25q2 10 4.5 19.5t5.5 17.5q-21 2 -37 3t-26 1z" />
    <glyph glyph-name="ff" unicode="ff" horiz-adv-x="708" 
d="M671 739q15 0 34 -1.5t38.5 -4.5t38.5 -7.5t33 -11.5q15 -7 15 -19q0 -5 -1.5 -9t-3.5 -9l-25 -65q-7 -14 -14.5 -14.5t-20.5 1.5q-35 5 -56.5 5.5t-29.5 0.5q-33 0 -51.5 -16.5t-26.5 -49.5l-10 -45h116q24 0 17 -22l-16 -78q-2 -11 -6.5 -16.5t-18.5 -5.5h-117
l-104 -542q-1 -7 -5.5 -14.5t-18.5 -7.5h-111q-11 0 -15 4t-4 11v7q26 136 52 270.5t52 271.5h-133q-23 -120 -46 -238.5t-47 -236.5q-1 -8 -6 -15.5t-19 -7.5h-110q-11 0 -15 4t-4 12v7l94 475h-43q-18 0 -18 13q0 2 0.5 4t0.5 4l15 81q3 20 26 20h42l10 48
q17 84 71.5 130.5t154.5 46.5q33 0 70 -5.5t66 -17.5q28 20 65 31.5t85 11.5zM390 584q-68 0 -78 -55l-7 -35h131l10 50q5 18 11 36q-24 2 -40.5 3t-26.5 1z" />
    <glyph glyph-name="fi" unicode="fi" horiz-adv-x="597" 
d="M394 727q16 0 38 -1.5t44.5 -4.5t43 -8t34.5 -12q17 -7 16 -16.5t-6 -20.5l-24 -65q-5 -13 -11.5 -14t-23.5 1q-27 2 -51 4t-44 2q-39 0 -65 -13.5t-34 -51.5l-6 -33h266q14 0 16 -7.5t0 -14.5l-87 -450q-1 -7 -6 -14.5t-19 -7.5h-111q-23 0 -18 22l68 350h-134
l-107 -543q-2 -7 -6.5 -14.5t-18.5 -7.5h-111q-13 0 -17 6t-2 16l108 543h-42q-21 0 -17 23l15 77q4 22 26 22h42l11 56q8 41 24 74t43.5 56t68 35t97.5 12z" />
    <glyph glyph-name="fl" unicode="fl" horiz-adv-x="601" 
d="M280 372l-79 -404q-1 -7 -6 -14.5t-19 -7.5h-111q-13 0 -16.5 6t-1.5 16l79 404h-42q-23 0 -17 23l14 77q6 22 26 22h43l11 56q8 41 24 74t43.5 56t68 35t97.5 12q15 0 35.5 -1t41.5 -4t40.5 -7.5t33.5 -10.5l69 17q14 3 17 -2t1 -15l-158 -821q-2 -7 -6.5 -14.5
t-18.5 -7.5h-112q-23 0 -18 22l136 707l-24 2t-22 1q-39 0 -64.5 -14t-33.5 -52l-6 -33h71q22 0 18 -22l-15 -77q-6 -23 -26 -23h-73z" />
    <glyph glyph-name="ffi" unicode="ffi" horiz-adv-x="870" 
d="M843 494q11 0 14 -4.5t3 -10.5q0 -5 -1 -8l-87 -449q-1 -8 -6 -15t-18 -7h-112q-11 0 -14.5 4t-3.5 12v6l68 350h-134l-108 -543q-1 -7 -5.5 -14.5t-18.5 -7.5h-111q-11 0 -15 4.5t-4 11.5v6l108 543h-130q-23 -121 -47 -239t-48 -238q-1 -7 -5.5 -14.5t-18.5 -7.5h-111
q-11 0 -15 4.5t-4 11.5v6l96 477h-43q-18 0 -18 14q0 2 0.5 4t0.5 4l15 77q5 23 26 23h42l10 48q9 41 25 73.5t43 55.5t65.5 35t92.5 12q32 0 69 -5t66 -16q29 25 80 35t108 9q33 -2 67 -8t64 -20q16 -7 16 -19q0 -5 -1.5 -9.5t-3.5 -9.5l-25 -64q-5 -11 -17 -13t-26 0
q-28 5 -49 6t-38 1q-39 0 -64.5 -14.5t-33.5 -52.5l-9 -44h266zM378 584q-66 0 -78 -57l-7 -33h129q3 12 5 24t4 25q2 10 4.5 19.5t5.5 17.5q-21 2 -37 3t-26 1z" />
    <glyph glyph-name="ffl" unicode="ffl" horiz-adv-x="885" 
d="M679 738q15 0 35.5 -1t42 -4t41 -7.5t33.5 -10.5l69 18q9 2 15.5 -0.5t2.5 -13.5l-135 -697q-1 -8 -6 -15t-18 -7h-112q-11 0 -15 4t-4 12v6l113 579q-13 1 -24.5 2t-21.5 1q-39 0 -64.5 -14t-33.5 -52l-9 -44h72q14 0 16.5 -6.5t0.5 -16.5l-15 -77q-4 -22 -26 -22h-73
l-108 -543q-1 -7 -5.5 -14.5t-18.5 -7.5h-111q-11 0 -14.5 4.5t-3.5 11.5v6q27 137 53.5 271.5t54.5 271.5h-131q-23 -121 -47 -239.5t-48 -237.5q-1 -7 -5.5 -14.5t-18.5 -7.5h-111q-11 0 -15 4.5t-4 11.5v6l96 477h-43q-18 0 -18 15q0 2 0.5 3.5t0.5 3.5q5 20 8 39t7 38
q6 23 26 23h42l9 48q8 40 24 72.5t42 56t62 36t84 12.5q33 0 73 -3t77 -19q56 41 159 41zM304 494h129l9 48l10 38q-21 2 -37 3.5t-25 1.5q-37 0 -55.5 -17.5t-25.5 -49.5z" />
    <glyph glyph-name="ft" unicode="ft" horiz-adv-x="723" 
d="M370 720q17 0 46 -3t58 -12q15 -4 15 -17q0 -5 -1 -9t-3 -9l-24 -74q-6 -15 -20 -14q-23 1 -43.5 2.5t-37.5 -3t-29.5 -17.5t-17.5 -41l-6 -29h153l17 87q4 19 14 23.5t25 8.5l94 25q12 4 20.5 -3t3.5 -19l-24 -122h101q11 0 15 -3.5t4 -10.5q0 -5 -1 -8l-16 -78
q-2 -11 -6.5 -16.5t-18.5 -5.5h-103l-33 -170q-4 -20 -4.5 -33t4.5 -20.5t17 -11t33 -3.5q10 0 29 1.5t35 2.5q11 0 17.5 -4t5.5 -17l-3 -71q-1 -14 -8 -21t-16 -11q-20 -7 -41 -11.5t-41 -6.5t-37.5 -3t-29.5 -1q-44 0 -70.5 13t-39.5 34.5t-14 50.5t5 62l41 220h-152
q-27 -137 -53.5 -272t-53.5 -271q-1 -7 -5.5 -14.5t-18.5 -7.5h-111q-11 0 -15 4.5t-4 11.5v6l107 543h-42q-24 0 -17 22l15 82q2 11 8 14.5t17 3.5h43l15 70q7 36 22 65t39 49t59 31t82 11z" />
    <glyph glyph-name=".notdef" horiz-adv-x="456" 
d="M0 700h456v-700h-456v700zM331 85l-103 187l-103 -187h206zM331 615h-207l104 -185zM85 176l95 175l-95 175v-350zM371 176v349l-96 -176z" />
    <glyph glyph-name=".null" horiz-adv-x="0" 
 />
    <glyph glyph-name="nonmarkingreturn" horiz-adv-x="333" 
 />
    <glyph glyph-name="space" unicode=" " horiz-adv-x="293" 
 />
    <glyph glyph-name="exclam" unicode="!" horiz-adv-x="294" 
d="M305 643q-29 -105 -49.5 -212t-44.5 -213q-5 -22 -24 -22h-81q-16 0 -16 13q0 2 0.5 3.5t0.5 3.5l68 426q2 12 7 16.5t16 4.5h108q16 0 16 -12q0 -5 -1 -8zM199 90q0 -17 -4 -34.5t-14.5 -32t-29 -24t-47.5 -9.5q-38 0 -52.5 14t-14.5 36q0 19 5 37t16 31.5t29.5 21.5
t44.5 8q37 0 52 -12.5t15 -35.5z" />
    <glyph glyph-name="quotedbl" unicode="&#x22;" horiz-adv-x="368" 
d="M351 436q-2 -6 -7 -10.5t-13 -4.5h-66q-14 0 -11 15l31 210q2 17 20 17h84q9 0 11 -6t1 -11zM203 436q-2 -6 -6.5 -10.5t-12.5 -4.5h-66q-14 0 -11 15l31 210q3 17 20 17h84q10 0 12 -6t1 -11z" />
    <glyph glyph-name="numbersign" unicode="#" horiz-adv-x="629" 
d="M316 213h-84l-84 -194q-5 -9 -9 -14t-14 -5h-76q-11 0 -15 4.5t1 15.5l84 193h-86q-10 0 -13 3.5t2 14.5l29 64q5 11 11 14.5t17 3.5h85l32 73h-86q-21 0 -11 19l29 62q8 19 29 19h83l70 157q5 11 8.5 15.5t14.5 4.5h79q21 0 10 -20l-68 -157h83l70 157q5 11 8.5 15.5
t13.5 4.5h80q10 0 12.5 -4.5t-2.5 -15.5l-69 -157h87q20 0 11 -19l-29 -62q-5 -10 -10.5 -14.5t-16.5 -4.5h-86l-32 -73h86q20 0 11 -19l-29 -63q-5 -10 -10.5 -14t-16.5 -4h-86l-85 -194q-5 -9 -8.5 -14t-13.5 -5h-76q-11 0 -15.5 4.5t0.5 15.5zM277 313h83l33 73h-84z" />
    <glyph glyph-name="dollar" unicode="$" horiz-adv-x="595" 
d="M342 737q3 19 22 19h77q12 0 14 -7t1 -12l-16 -84q30 -2 64.5 -7.5t60.5 -17.5q23 -9 24 -18t-4 -23l-21 -55q-8 -20 -18.5 -23t-30.5 -1q-32 5 -68.5 8t-81.5 3q-40 0 -66 -13.5t-29 -48.5q-3 -26 13.5 -35.5t59.5 -18.5q36 -8 71 -18.5t62.5 -30t44.5 -50t17 -79.5
q0 -53 -18.5 -91.5t-49.5 -65.5t-71.5 -42.5t-84.5 -20.5l-17 -83q0 -5 -5 -12t-17 -7h-77q-11 0 -13.5 5.5t-1.5 13.5l16 78q-36 2 -77 8.5t-72 20.5q-23 9 -24 18.5t4 23.5l23 57q8 19 15.5 21.5t27.5 -0.5q36 -5 78 -9.5t90 -4.5q50 0 76.5 16.5t30.5 52.5
q2 29 -16.5 39.5t-60.5 18.5q-36 9 -71 20.5t-62.5 31t-44 49t-16.5 74.5q0 51 17.5 89.5t48 65t71.5 41.5t88 20z" />
    <glyph glyph-name="percent" unicode="%" horiz-adv-x="957" 
d="M327 -11q-8 -12 -17 -12h-90q-9 0 -9 7q0 2 0.5 4.5t1.5 3.5q103 175 204 347.5t204 347.5q5 7 8.5 10t10.5 3q23 0 45 -0.5t45 -0.5q7 0 7 -6q0 -1 -0.5 -4t-1.5 -4zM264 677q49 0 81 -12.5t50.5 -33.5t26 -48t7.5 -55q0 -17 -2 -34.5t-5 -33.5q-7 -33 -18.5 -73
t-36 -74.5t-65.5 -58t-106 -23.5q-42 0 -70.5 10t-47 27t-27.5 39t-12 47q-1 10 -2 19t-1 19q1 17 3.5 34.5t5.5 33.5q4 25 15 62t34.5 71.5t64 59t105.5 24.5zM252 571q-35 0 -52.5 -34t-27.5 -84q-3 -17 -5 -33.5t-2 -30.5q1 -23 9.5 -37.5t31.5 -14.5q39 0 57 32t29 84
q3 20 5.5 35t2.5 29q0 26 -10.5 40t-37.5 14zM748 439q49 0 81 -12.5t50.5 -33.5t25.5 -47.5t7 -54.5q0 -17 -2 -34t-5 -34q-7 -33 -18.5 -73t-35.5 -74.5t-65 -57.5t-106 -23q-48 0 -79 12.5t-49 33.5t-25 48t-7 56q0 38 8 78q4 25 15 61.5t35 71t64.5 59t105.5 24.5z
M736 333q-36 0 -53.5 -33.5t-26.5 -83.5q-3 -15 -5 -29.5t-2 -27.5q0 -26 8.5 -42.5t32.5 -16.5q39 0 57 31.5t28 84.5q4 20 6 35t2 29q0 26 -10 39.5t-37 13.5z" />
    <glyph glyph-name="ampersand" unicode="&#x26;" horiz-adv-x="744" 
d="M393 676q74 0 116.5 -35.5t42.5 -91.5q0 -32 -13.5 -61t-36 -53.5t-50.5 -44t-58 -31.5q11 -22 21 -40t21 -35t24 -33.5t30 -35.5q39 38 70 85.5t49 99.5q4 10 6 16t5 9t8 4t15 1h70q20 0 24 -6.5t-1 -29.5q-9 -36 -27 -74.5t-41 -74.5t-48 -67t-47 -52
q21 -23 45.5 -42.5t51.5 -37.5q12 -8 9.5 -14.5t-12.5 -19.5l-48 -59q-8 -9 -16.5 -12.5t-23.5 4.5q-14 7 -30.5 18.5t-34 25t-34 28t-29.5 27.5q-100 -56 -224 -56q-42 0 -78 9.5t-62 29t-40.5 50t-14.5 72.5t15 78.5t41 67.5t60 57t72 47q-11 27 -15.5 50.5t-4.5 42.5
q0 41 14.5 75t40.5 58t61 37.5t77 13.5zM255 105q26 -1 56.5 7t58.5 22q-32 42 -59 83.5t-44 77.5q-38 -23 -64.5 -51.5t-26.5 -69.5q0 -33 22.5 -51t56.5 -18zM379 559q-20 0 -33 -15.5t-15 -32.5q-2 -25 14 -52q25 13 45.5 29t22.5 37q2 14 -7.5 24t-26.5 10z" />
    <glyph glyph-name="quotesingle" unicode="'" horiz-adv-x="228" 
d="M205 436q-1 -6 -6 -10.5t-13 -4.5h-66q-13 0 -11 15l31 210q3 17 20 17h84q11 0 12.5 -6t0.5 -11z" />
    <glyph glyph-name="parenleft" unicode="(" horiz-adv-x="339" 
d="M58 205q2 73 19.5 141.5t47 131t70 119t88.5 106.5q15 15 23 16t20 -7l52 -35q11 -7 11.5 -14.5t-12.5 -24.5q-85 -105 -124.5 -217.5t-41.5 -232.5q-1 -63 8 -120.5t27 -104.5q6 -17 3 -24t-17 -15l-66 -34q-15 -8 -22.5 -7.5t-16.5 15.5q-32 60 -51.5 137.5
t-17.5 169.5z" />
    <glyph glyph-name="parenright" unicode=")" horiz-adv-x="340" 
d="M322 396q-4 -147 -66 -272.5t-159 -225.5q-15 -15 -22.5 -16t-19.5 7l-53 35q-11 7 -11.5 14t13.5 24q84 105 124 217.5t42 233.5q1 62 -8 120t-28 105q-6 17 -2.5 24t17.5 15l65 34q16 8 23.5 7.5t15.5 -16.5q32 -60 51.5 -137t17.5 -169z" />
    <glyph glyph-name="asterisk" unicode="*" horiz-adv-x="435" 
d="M407 378q-11 -13 -18 -14t-19 5l-62 32l-19 -68q-5 -16 -9 -19.5t-21 -3.5h-47q-15 0 -18.5 3.5t-1.5 19.5l6 68l-69 -29q-11 -5 -19.5 -5.5t-13.5 10.5l-15 36q-4 8 -1 14t17 15l66 44l-51 36q-9 8 -11 15t10 22l21 32q12 15 20 14t20 -6l61 -28l18 70q5 14 10.5 18.5
t22.5 4.5h40q17 0 22 -5.5t3 -19.5l-10 -70l77 32q14 7 18.5 6.5t10.5 -13.5l14 -31q5 -11 3 -17.5t-9 -10.5l-78 -47l55 -47q11 -10 11 -16t-11 -19z" />
    <glyph glyph-name="plus" unicode="+" horiz-adv-x="595" 
d="M392 382h140q13 0 15.5 -5t0.5 -15l-14 -73q-2 -11 -7 -16t-18 -5h-140l-29 -147q-2 -13 -7.5 -17t-15.5 -4h-93q-11 0 -15.5 3.5t-2.5 17.5l29 147h-138q-21 0 -17 21l14 72q4 21 25 21h139l26 138q4 21 26 21h91q21 0 17 -21z" />
    <glyph glyph-name="comma" unicode="," horiz-adv-x="238" 
d="M167 58q0 -35 -13.5 -69t-35 -63.5t-48 -53t-52.5 -37.5q-24 -12 -36 6l-20 27q-9 13 -7 18.5t17 20.5q26 22 37 43t12 44q2 26 -12 46q-10 14 -9.5 23.5t21.5 23.5l76 51q17 12 26.5 8t19.5 -16q12 -14 18 -33t6 -39z" />
    <glyph glyph-name="hyphen" unicode="-" horiz-adv-x="410" 
d="M398 383q13 0 15.5 -5t0.5 -16l-16 -82q-2 -11 -6.5 -16t-18.5 -5h-312q-20 0 -16 21l16 82q3 21 25 21h312z" />
    <glyph glyph-name="period" unicode="." horiz-adv-x="231" 
d="M103 144q38 0 53.5 -13t15.5 -37q0 -18 -4 -36.5t-15 -33.5t-30 -24.5t-49 -9.5q-40 0 -55 15t-15 38q0 20 5 38t16.5 32t30.5 22.5t47 8.5z" />
    <glyph glyph-name="slash" unicode="/" horiz-adv-x="320" 
d="M94 -45q-3 -8 -10.5 -12.5t-13.5 -4.5h-98q-20 0 -12 21q18 42 43 100t53 123.5t58 135.5t58.5 135.5t53.5 123t43 99.5q7 17 25 17h95q11 0 13.5 -6.5t-0.5 -17.5z" />
    <glyph glyph-name="zero" unicode="0" horiz-adv-x="595" 
d="M267 -9q-66 0 -110 19t-70 51t-36.5 74t-9.5 88q1 60 14 118q6 31 15 68t24.5 74t38 71t55.5 60.5t78 42.5t106 16q67 0 111.5 -17.5t71.5 -47.5t38.5 -70.5t11.5 -86.5q0 -28 -2.5 -56t-7.5 -54q-9 -54 -26.5 -115t-53.5 -113.5t-95.5 -87t-152.5 -34.5zM359 536
q-30 0 -52 -14.5t-38.5 -39.5t-28 -59t-19.5 -73q-5 -24 -8.5 -47t-5.5 -43q-5 -62 10 -97t68 -35q30 0 52.5 13t39 37.5t28.5 58.5t21 76q5 26 8.5 49.5t5.5 44.5q5 62 -10.5 95.5t-70.5 33.5z" />
    <glyph glyph-name="one" unicode="1" horiz-adv-x="595" 
d="M82 0q-22 0 -18 22l17 89q4 21 26 21h105l74 380h-92q-13 0 -18.5 3t-3.5 16l9 50q3 11 8 19.5t19 14.5l95 38q19 8 34 10t32 2h80q23 0 20 -23l-100 -510h115q12 0 15 -5t1 -15l-18 -90q-2 -11 -6.5 -16.5t-17.5 -5.5h-376z" />
    <glyph glyph-name="two" unicode="2" horiz-adv-x="595" 
d="M262 133h236q12 0 15 -5t1 -16l-18 -90q-2 -11 -6.5 -16.5t-16.5 -5.5h-450q-21 0 -17 22l14 72q2 9 7 19.5t16 20.5q6 5 31 25t54.5 43.5t54 43t29.5 23.5q2 2 19 15.5t37.5 30t40 32t26.5 21.5q30 25 52.5 53.5t22.5 63.5q0 26 -19 37t-64 11t-91.5 -4t-81.5 -8
q-18 -2 -24.5 1.5t-6.5 20.5l4 57q0 12 6 23t30 20q22 8 51 13.5t57 9t52.5 5t38.5 1.5q109 0 162.5 -41.5t53.5 -119.5q0 -39 -10 -70t-29 -58.5t-45 -53t-57 -51.5q-20 -17 -38.5 -32t-38.5 -31t-44 -34.5t-55 -42.5z" />
    <glyph glyph-name="three" unicode="3" horiz-adv-x="595" 
d="M212 -9q-14 0 -37 1.5t-49.5 5t-52 9t-44.5 13.5q-23 10 -26.5 20t2.5 25l21 56q6 16 13.5 20.5t27.5 2.5q40 -6 82 -10t77 -4q30 0 57 6.5t48 20.5t33 36t12 54q0 18 -13.5 28t-35.5 14l-129 25q-17 3 -21.5 10t-1.5 26l7 37q3 17 7 25t13 15l136 102l-1 3h-207
q-22 0 -17 21l17 89q4 22 26 22h416q13 0 16 -5.5t1 -17.5l-15 -69q-2 -10 -8.5 -22.5t-21.5 -23.5l-133 -104v-3l48 -11q42 -11 66 -40t24 -71q0 -85 -25 -143.5t-69.5 -94.5t-106.5 -52t-136 -16z" />
    <glyph glyph-name="four" unicode="4" horiz-adv-x="595" 
d="M381 458l-64 -66l-112 -115h145l36 181h-5zM455 22q-2 -7 -6.5 -14.5t-18.5 -7.5h-115q-11 0 -14.5 6t-1.5 15l25 127l-289 -1q-11 0 -17.5 5.5t-4.5 19.5l16 79q1 7 4 15t13 17l356 362q11 9 20.5 13.5t23.5 4.5h113q14 0 16 -7.5t1 -13.5l-71 -362h64q13 0 16 -4.5
t1 -15.5l-17 -91q-3 -11 -7.5 -16.5t-17.5 -5.5l-64 1z" />
    <glyph glyph-name="five" unicode="5" horiz-adv-x="595" 
d="M305 532l-31 -90l162 -25q59 -9 90 -42.5t31 -90.5q0 -80 -27 -136t-72 -91t-104.5 -50.5t-123.5 -15.5q-14 0 -38 1.5t-51.5 5t-54.5 9t-46 13.5q-23 10 -26.5 20t2.5 25l21 56q6 16 13.5 20.5t27.5 2.5q41 -6 82.5 -10t76.5 -4q28 0 54.5 5t47.5 17.5t33.5 34.5
t12.5 56q0 37 -47 46l-213 38q-27 5 -30.5 19t4.5 37l87 244q7 20 18 28.5t32 8.5h340q21 0 17 -21l-17 -90q-5 -21 -27 -21h-244z" />
    <glyph glyph-name="six" unicode="6" horiz-adv-x="595" 
d="M393 672q10 0 32 -0.5t49.5 -3.5t57 -8.5t54.5 -15.5q21 -8 24 -17t-3 -24l-23 -60q-7 -16 -14.5 -21t-20.5 -3q-36 5 -80.5 10t-92.5 5q-59 0 -89 -32t-46 -89q27 3 48 4.5t39.5 2.5t35 1.5t34.5 0.5q81 0 124 -37.5t43 -118.5q0 -72 -25.5 -123.5t-68.5 -85.5t-99 -50
t-117 -16q-64 0 -105 14t-64.5 38t-32.5 57t-10 72q-1 32 2.5 67.5t8.5 71.5q8 60 27.5 124t57.5 116.5t99.5 86.5t154.5 34zM341 293q-11 0 -23 -0.5t-27 -1.5t-34.5 -2.5t-45.5 -4.5q-5 -26 -8.5 -49.5t-4.5 -43.5q0 -10 0.5 -18t2.5 -16q6 -15 23.5 -25t59.5 -10
q52 0 87 27.5t35 75.5q0 33 -13.5 50.5t-51.5 17.5z" />
    <glyph glyph-name="seven" unicode="7" horiz-adv-x="595" 
d="M220 -3q-8 -12 -15.5 -16t-20.5 4l-87 42q-14 7 -13.5 14t9.5 21l324 470h-291q-21 0 -16 21l17 89q5 23 25 23h460q12 0 15 -5.5t1 -17.5l-13 -64q-3 -14 -9 -24.5t-17 -25.5z" />
    <glyph glyph-name="eight" unicode="8" horiz-adv-x="595" 
d="M380 673q45 0 84.5 -8.5t68.5 -27.5t46 -48t17 -71q0 -59 -29.5 -100.5t-77.5 -64.5v-1q38 -19 54 -52t16 -72q0 -59 -24.5 -103t-66 -74t-96.5 -45t-116 -15q-47 0 -89 8.5t-74 28t-50.5 51t-18.5 77.5q0 69 34 119.5t94 75.5q-29 20 -41.5 49t-12.5 58q0 52 23 92
t62 67.5t90 41.5t107 14zM359 536q-42 0 -70 -19.5t-28 -54.5q0 -22 21 -34.5t53 -19.5q47 7 71 27.5t24 49.5q0 27 -21 39t-50 12zM307 297q-21 -4 -42 -11.5t-38 -20t-28 -31t-11 -43.5q0 -33 25 -48.5t63 -15.5q28 0 51 7.5t39 20.5t24.5 30.5t8.5 36.5q0 18 -8 30.5
t-21 21.5t-29.5 14.5t-33.5 8.5z" />
    <glyph glyph-name="nine" unicode="9" horiz-adv-x="595" 
d="M251 -9q-10 0 -32 0.5t-49.5 3.5t-57 8.5t-54.5 15.5q-21 8 -24 17t3 24l23 60q7 16 14.5 21t20.5 3q36 -5 80.5 -10t92.5 -5q59 0 89 32t46 89q-27 -3 -48 -4.5t-39.5 -2.5t-35 -1.5t-34.5 -0.5q-81 0 -124 37.5t-43 118.5q0 72 25.5 123.5t68.5 85.5t99 50t117 16
q64 0 105 -14t64.5 -38t32.5 -57t10 -72q1 -32 -2.5 -67.5t-8.5 -71.5q-8 -60 -27.5 -124t-57.5 -116.5t-99.5 -86.5t-154.5 -34zM303 370q11 0 23 0.5t27 1.5t34.5 2.5t45.5 4.5q5 26 8.5 49.5t4.5 43.5q0 10 -0.5 18t-2.5 16q-6 15 -23.5 25t-59.5 10q-52 0 -87 -27.5
t-35 -75.5q0 -33 13.5 -50.5t51.5 -17.5z" />
    <glyph glyph-name="colon" unicode=":" horiz-adv-x="234" 
d="M105 144q38 0 53.5 -13t15.5 -37q0 -18 -4 -36.5t-15.5 -33.5t-30.5 -24.5t-49 -9.5q-39 0 -54 15t-15 38q0 20 5 38t16.5 32t30.5 22.5t47 8.5zM165 454q38 0 54 -12.5t16 -37.5q0 -18 -4.5 -36t-15.5 -33t-30 -24.5t-49 -9.5q-40 0 -54.5 15t-14.5 38q0 19 5 37.5
t16.5 32t30 22t46.5 8.5z" />
    <glyph glyph-name="semicolon" unicode=";" horiz-adv-x="234" 
d="M165 454q38 0 54 -12.5t16 -37.5q0 -18 -4.5 -36t-15.5 -33t-30 -24.5t-49 -9.5q-40 0 -54.5 15t-14.5 38q0 19 5 37.5t16.5 32t30 22t46.5 8.5zM167 58q0 -35 -13.5 -69t-35 -63.5t-48 -53t-52.5 -37.5q-24 -12 -36 6l-20 27q-9 13 -7 18.5t17 20.5q26 22 37 43t12 44
q2 26 -12 46q-10 14 -9.5 23.5t21.5 23.5l76 51q17 12 26.5 8t19.5 -16q12 -14 18 -33t6 -39z" />
    <glyph glyph-name="less" unicode="&#x3c;" horiz-adv-x="595" 
d="M488 188q7 -3 10 -7.5t1 -15.5l-20 -94q-2 -8 -8 -10.5t-12 0.5l-365 206q-5 2 -8.5 7t-1.5 16l14 72q2 11 6.5 15t11.5 8l446 207q11 5 14 0t1 -11l-19 -108q-2 -11 -7.5 -15.5t-12.5 -7.5l-273 -130l-1 -5l224 -127v0z" />
    <glyph glyph-name="equal" unicode="=" horiz-adv-x="595" 
d="M549 474q13 0 16 -5t1 -16l-14 -73q-3 -11 -7.5 -16.5t-17.5 -5.5h-412q-21 0 -17 22l14 72q4 22 25 22h412zM513 288q13 0 16 -4.5t1 -15.5l-14 -74q-2 -11 -7 -16t-18 -5h-412q-22 0 -17 21l14 73q4 21 25 21h412z" />
    <glyph glyph-name="greater" unicode="&#x3e;" horiz-adv-x="595" 
d="M142 466q-7 3 -10 7.5t-1 15.5l20 94q2 8 8 10.5t12 -0.5l365 -206q5 -2 8.5 -7t1.5 -16l-14 -72q-2 -11 -6.5 -15t-11.5 -8l-446 -207q-11 -5 -14 0t-1 11l19 108q2 11 7.5 15.5t12.5 7.5l273 130l1 5l-224 127v0z" />
    <glyph glyph-name="question" unicode="?" horiz-adv-x="437" 
d="M157 138q38 0 52 -13t14 -35q0 -17 -3.5 -34.5t-14 -31.5t-29 -23.5t-48.5 -9.5q-40 0 -53.5 15t-13.5 35q0 19 5 36.5t16.5 31t29.5 21.5t45 8zM349 371q-21 -14 -37.5 -26.5t-29 -26.5t-21 -30t-13.5 -37q-3 -11 -5 -22.5t-4 -25.5q-2 -8 -6 -13.5t-14 -5.5h-101
q-10 0 -14 4t-4 15v1q1 15 2.5 27t3.5 23q7 37 19.5 64.5t30.5 50t42 41.5t54 40q20 14 32 27t12 33q0 18 -16 26t-55 8q-24 0 -49 -1.5t-48 -4.5q-11 -2 -19.5 0t-6.5 16l6 60q2 15 5 21t19 13q41 16 80.5 20t62.5 4q94 0 142 -33.5t48 -99.5q0 -29 -10.5 -54t-27.5 -46
t-37.5 -38t-40.5 -30z" />
    <glyph glyph-name="at" unicode="@" horiz-adv-x="903" 
d="M879 435q0 -64 -18 -116.5t-50 -90.5t-76 -59t-97 -21q-46 0 -76.5 19.5t-38.5 46.5q-22 -20 -58 -37t-75 -17q-31 0 -51 7.5t-31.5 21.5t-16 35t-4.5 47q0 19 2.5 40t6.5 43q8 44 19.5 80.5t30.5 62.5t47.5 40t70.5 14q20 0 46.5 -8t46.5 -19l3 13q2 8 5.5 10.5
t10.5 2.5h82q11 0 13.5 -4.5t0.5 -13.5l-45 -249q-1 -6 -1 -13t3.5 -12.5t11.5 -9t23 -3.5q21 0 40.5 13t34 37t23.5 57t9 73q0 43 -13.5 80t-41 63.5t-69 41.5t-97.5 15q-85 0 -152 -27.5t-113.5 -74.5t-71 -109t-24.5 -132q0 -47 11 -84.5t37.5 -64t69.5 -40.5t107 -14
q6 0 20 0.5t31 1.5t36.5 3.5t37.5 5.5q15 3 23 2.5t11 -18.5l7 -39q2 -11 -3 -18t-15 -11q-18 -8 -40.5 -13t-44.5 -8t-42 -4t-35 -1q-83 0 -143.5 20.5t-99.5 58.5t-58 91.5t-19 118.5q0 97 34 180.5t96.5 144.5t150 96t195.5 35q81 0 141.5 -22t101 -61t60.5 -92t20 -115z
M538 430q-30 10 -54 10q-31 0 -46 -20t-23 -62q-5 -28 -5 -48q0 -23 7.5 -30.5t22.5 -7.5q17 0 37.5 7.5t34.5 14.5z" />
    <glyph glyph-name="A" unicode="A" horiz-adv-x="617" 
d="M140 28q-8 -16 -17 -22t-23 -6h-115q-11 0 -14 4.5t5 21.5l310 610q8 14 16.5 21.5t28.5 7.5h126q21 0 26 -8t7 -22l82 -611q1 -12 -2 -18t-14 -6h-119q-17 0 -21.5 7.5t-6.5 23.5l-10 119h-199zM379 382l-8 122h-5l-57 -121l-51 -111h130z" />
    <glyph glyph-name="B" unicode="B" horiz-adv-x="617" 
d="M425 665q40 0 73.5 -9.5t57.5 -29t37 -50t12 -72.5q0 -18 -6.5 -39.5t-19.5 -42.5t-32 -40t-45 -32l-1 -4q22 -11 36 -27t21.5 -34t9.5 -36.5t1 -34.5q-2 -48 -21 -87.5t-51 -67.5t-74.5 -43.5t-91.5 -15.5h-283q-14 0 -18 6t-2 16l121 620q2 10 7.5 16t19.5 6zM213 136
h98q43 0 66 23.5t25 56.5q2 26 -14.5 44.5t-51.5 18.5h-96zM266 409h91q32 0 53.5 18t23.5 47q2 24 -10.5 39.5t-47.5 15.5h-88z" />
    <glyph glyph-name="C" unicode="C" horiz-adv-x="592" 
d="M427 672q24 0 49 -2t50 -5.5t47 -9.5t40 -15q14 -7 20.5 -16t-1.5 -29l-25 -59q-5 -14 -12.5 -18t-25.5 -2q-42 4 -77.5 7.5t-67.5 3.5q-41 0 -70 -15t-49 -41t-32.5 -61.5t-19.5 -76.5q-11 -51 -9 -90q2 -54 27 -81t83 -27q20 0 37.5 0.5t34.5 2t36.5 3t43.5 4.5
q19 2 26 -1.5t9 -18.5l2 -55q2 -19 -7.5 -29t-26.5 -17q-42 -17 -95.5 -25.5t-101.5 -8.5q-71 0 -118 19t-74 52t-38 77t-10 94q0 24 2.5 48.5t6.5 49.5q10 64 31 125.5t61 109.5t101.5 77.5t152.5 29.5z" />
    <glyph glyph-name="D" unicode="D" horiz-adv-x="657" 
d="M387 663q69 0 115 -17t74.5 -48t40.5 -74t12 -95q0 -23 -2 -47.5t-6 -48.5q-11 -71 -32 -132t-60 -105.5t-99 -70t-149 -25.5h-231q-20 0 -20 16v5q0 1 1 1l120 620q2 9 8 15t19 6h209zM290 528q-20 -99 -38.5 -196.5t-37.5 -196.5h64q75 0 119 45.5t59 145.5
q3 19 5.5 38.5t2.5 38.5q0 27 -5.5 49.5t-18.5 39.5t-34.5 26.5t-52.5 9.5h-63z" />
    <glyph glyph-name="E" unicode="E" horiz-adv-x="556" 
d="M151 642q2 10 8 16.5t19 6.5h394q21 0 16 -22l-18 -94q-2 -9 -7 -15t-18 -6h-255l-22 -116h222q22 0 17 -22l-18 -94q-2 -9 -7 -14.5t-18 -5.5h-222l-27 -140h262q20 0 17 -22l-18 -94q-2 -9 -7 -14.5t-18 -5.5h-402q-13 0 -17 6t-2 16z" />
    <glyph glyph-name="F" unicode="F" horiz-adv-x="533" 
d="M147 643q2 9 7.5 15.5t19.5 6.5h386q23 0 18 -22l-18 -94q-2 -9 -7.5 -15t-19.5 -6h-247l-22 -116h213q22 0 17 -22l-18 -94q-2 -9 -7 -15t-19 -6h-212l-50 -253q-1 -7 -6 -14.5t-18 -7.5h-119q-13 0 -16.5 6t-1.5 16z" />
    <glyph glyph-name="G" unicode="G" horiz-adv-x="642" 
d="M429 672q21 0 46 -2t50.5 -5.5t49 -9.5t41.5 -15q14 -7 20.5 -16t-2.5 -29l-24 -59q-5 -14 -12.5 -18t-25.5 -2q-42 4 -78 7.5t-68 3.5q-41 0 -70 -14.5t-49.5 -40.5t-33 -61.5t-20.5 -77.5q-5 -26 -7.5 -49t-1.5 -41q0 -26 4.5 -46.5t15 -34.5t30 -21.5t49.5 -7.5
q17 0 36.5 2t35.5 5l22 115h-67q-14 0 -17 5.5t-1 15.5l17 86q2 10 7 16t19 6h200q22 0 19 -22l-56 -284q-4 -17 -11.5 -31.5t-29.5 -22.5q-52 -19 -111.5 -26.5t-107.5 -7.5q-72 0 -116.5 19.5t-69 52.5t-33 76.5t-8.5 92.5q0 23 2.5 48t7.5 51q10 64 32 125.5t62 109.5
t102 77.5t152 29.5z" />
    <glyph glyph-name="H" unicode="H" horiz-adv-x="645" 
d="M502 646q4 19 27 19h117q14 0 16.5 -5.5t0.5 -13.5l-121 -628q-1 -7 -5.5 -12.5t-18.5 -5.5h-118q-13 0 -17 4t-2 14l49 258h-189l-49 -258q-2 -7 -6.5 -12.5t-17.5 -5.5h-119q-13 0 -17 4t-2 14l121 628q4 19 27 19h119q13 0 15 -5.5t0 -13.5l-44 -233h190z" />
    <glyph glyph-name="I" unicode="I" horiz-adv-x="304" 
d="M155 642q2 10 8 16.5t19 6.5h118q14 0 16 -7.5t0 -15.5l-120 -620q-2 -7 -6.5 -14.5t-18.5 -7.5h-118q-13 0 -17 6t-2 16z" />
    <glyph glyph-name="J" unicode="J" horiz-adv-x="485" 
d="M318 642q2 10 7.5 16.5t18.5 6.5h115q14 0 17 -6t1 -17l-87 -455q-8 -44 -24 -80.5t-44 -62t-71 -39.5t-106 -14q-12 0 -28 1t-33.5 3.5t-35 6t-32.5 9.5q-25 9 -28.5 17t2.5 28l20 67q5 16 12 18.5t20 0.5q25 -4 50 -6t46 -2q27 0 44.5 6.5t28.5 17.5t17 25.5t9 31.5z
" />
    <glyph glyph-name="K" unicode="K" horiz-adv-x="618" 
d="M211 166l-26 -144q-1 -7 -6 -14.5t-18 -7.5h-119q-13 0 -16.5 6t-1.5 16l120 620q2 10 8 16.5t19 6.5h119q13 0 15.5 -7.5t0.5 -15.5l-44 -223h3l81 88l135 138q11 10 20.5 15t25.5 5h148q11 0 15.5 -8t-8.5 -20l-264 -264l154 -342q6 -17 -0.5 -24t-17.5 -7h-123
q-19 0 -26.5 7.5t-12.5 18.5l-95 227z" />
    <glyph glyph-name="L" unicode="L" horiz-adv-x="524" 
d="M215 136h266q17 0 14 -17l-19 -99q-2 -9 -7 -14.5t-18 -5.5h-402q-23 0 -18 22l120 620q2 10 8 16.5t19 6.5h118q22 0 17 -23z" />
    <glyph glyph-name="M" unicode="M" horiz-adv-x="777" 
d="M403 293q7 12 26.5 40.5t41 60.5t40.5 60.5l27 40.5l101 145q9 12 18.5 18t31.5 6h89q14 0 16 -7.5t0 -13.5l-121 -621q-1 -8 -6 -15t-19 -7h-114q-13 0 -16 6.5t-1 15.5l58 298h-3q-2 -3 -10 -15.5t-18 -27t-18 -27.5t-10 -16q-16 -23 -38 -55.5t-39 -56.5
q-9 -12 -16.5 -19.5t-24.5 -7.5h-64q-17 0 -21 6.5t-9 19.5l-31 108l-26 93l-2 -1l-58 -299q-2 -8 -6.5 -15t-17.5 -7h-114q-14 0 -17.5 6t-1.5 16l121 621q2 9 7.5 15t18.5 6h81q21 0 28 -5t12 -18q3 -8 9 -28t12.5 -42.5t12.5 -43t8 -28.5q4 -12 12 -41t17 -61.5t17.5 -62
t11.5 -41.5h5z" />
    <glyph glyph-name="N" unicode="N" horiz-adv-x="667" 
d="M260 387h-3l-70 -365q-2 -8 -6.5 -15t-18.5 -7h-114q-19 0 -19 15q0 2 0.5 3.5t0.5 3.5l120 620q2 9 8 15.5t19 6.5h83q23 0 29.5 -7.5t12.5 -20.5l154 -354h4q17 91 34 180t34 179q2 8 6.5 15.5t18.5 7.5h114q19 0 19 -15q0 -5 -1 -8q-31 -155 -61 -309.5t-60 -310.5
q-2 -9 -7.5 -15t-18.5 -6h-83q-17 0 -25.5 6.5t-13.5 17.5l-101 232z" />
    <glyph glyph-name="O" unicode="O" horiz-adv-x="687" 
d="M418 673q74 0 122 -20t76 -54t38 -79.5t9 -95.5q0 -21 -2.5 -42t-5.5 -41q-9 -63 -28.5 -125.5t-58 -112.5t-101.5 -81t-159 -31q-70 0 -116 18.5t-73 50t-37.5 73.5t-10.5 90q0 30 3 59.5t8 58.5q8 50 27 108t57 108t99 83t153 33zM402 533q-34 0 -58.5 -14t-42 -40.5
t-29.5 -64t-21 -84.5q-5 -24 -7.5 -46t-3.5 -42q-2 -56 19 -83.5t70 -27.5q37 0 62.5 13.5t43.5 39.5t30.5 62.5t21.5 83.5q5 27 8 50.5t3 44.5q2 57 -21 82.5t-75 25.5z" />
    <glyph glyph-name="P" unicode="P" horiz-adv-x="563" 
d="M190 22q-2 -7 -6.5 -14.5t-18.5 -7.5h-118q-14 0 -17.5 6t-1.5 16l121 621q2 9 7.5 15.5t19.5 6.5l221 -1q43 0 79 -11t62 -33.5t41 -56t15 -79.5q0 -45 -15 -88.5t-47.5 -77t-82.5 -54.5t-120 -21h-96zM258 375h72q19 0 36 6t30.5 17.5t21.5 29t8 41.5q0 32 -19 45.5
t-52 13.5h-67z" />
    <glyph glyph-name="Q" unicode="Q" horiz-adv-x="689" 
d="M418 673q74 0 122 -20t76 -54t38 -79.5t9 -95.5q0 -21 -2.5 -42t-5.5 -41q-6 -39 -15 -77.5t-23.5 -75t-36 -69t-51.5 -57.5l79 -29q14 -5 16 -11t-5 -17l-55 -93q-8 -14 -20.5 -18t-25.5 4l-204 93h-6q-70 0 -116 18.5t-73 50t-37.5 73.5t-10.5 90q0 30 3 59.5t8 58.5
q8 50 27 108t57 108t99 83t153 33zM402 533q-34 0 -58.5 -14t-42 -40.5t-29.5 -64t-21 -84.5q-5 -24 -7.5 -46t-3.5 -42q-2 -56 19 -83.5t70 -27.5q37 0 62.5 13.5t43.5 39.5t30.5 62.5t21.5 83.5q5 27 8 50.5t3 44.5q2 57 -21 82.5t-75 25.5z" />
    <glyph glyph-name="R" unicode="R" horiz-adv-x="600" 
d="M531 26q6 -26 -18 -26h-111q-16 0 -24.5 4.5t-11.5 17.5q-8 28 -17.5 66t-17.5 72.5t-13.5 60.5t-6.5 31h-77l-44 -230q-1 -7 -6 -14.5t-18 -7.5h-119q-13 0 -17 6t-2 16l121 621q2 9 8 15.5t19 6.5l243 -1q38 0 71.5 -9.5t58.5 -30.5t39.5 -53t14.5 -77q0 -67 -36 -123
t-108 -90zM288 528l-27 -145h78q18 0 35 5t30.5 16t21.5 28t8 41q0 30 -19 42.5t-50 12.5h-77z" />
    <glyph glyph-name="S" unicode="S" horiz-adv-x="580" 
d="M241 -9q-16 0 -41 1.5t-53 5t-56 9.5t-50 15q-23 10 -24 19.5t4 23.5l23 60q8 20 16 22.5t28 -0.5q36 -6 83 -10t89 -4q51 0 82 16.5t32 52.5q1 25 -17 36.5t-60 22.5q-47 14 -85 29t-65 36t-41.5 51t-14.5 75q0 58 23.5 99.5t62.5 68t90 39t107 12.5q14 0 37 -0.5
t49 -3.5t52.5 -9t49.5 -16t24.5 -19.5t-4.5 -23.5l-24 -60q-5 -11 -8.5 -15.5t-9 -6t-12.5 -1t-18 1.5q-32 5 -67.5 8t-80.5 3q-18 0 -35.5 -2.5t-31 -9t-22 -19t-8.5 -32.5q0 -22 17.5 -32t58.5 -19q36 -8 73.5 -20t67.5 -33t49 -53.5t19 -82.5q0 -66 -24.5 -110.5
t-66.5 -72.5t-98.5 -40t-119.5 -12z" />
    <glyph glyph-name="T" unicode="T" horiz-adv-x="519" 
d="M574 549q-2 -9 -8 -15t-19 -6h-145l-99 -506q-1 -7 -5.5 -14.5t-18.5 -7.5h-118q-13 0 -17 6t-2 16l98 506h-144q-14 0 -17 6t-1 15l18 94q2 10 7.5 16t19.5 6h452q22 0 17 -22l-18 -94v0z" />
    <glyph glyph-name="U" unicode="U" horiz-adv-x="653" 
d="M311 132q101 0 125 119l75 391q2 10 8 16.5t19 6.5h117q14 0 16.5 -7.5t0.5 -15.5l-77 -394q-11 -60 -34 -107.5t-59 -81t-86.5 -51t-116.5 -17.5q-65 0 -113 18t-76.5 52t-38 81t2.5 106l77 394q2 10 7.5 16.5t19.5 6.5h117q14 0 16 -7.5t0 -15.5l-76 -391
q-23 -119 76 -119z" />
    <glyph glyph-name="V" unicode="V" horiz-adv-x="636" 
d="M382 29q-7 -13 -16 -21t-32 -8h-115q-26 0 -32 10t-8 27l-80 603q-3 24 23 24h101q20 0 27.5 -5.5t9.5 -21.5q5 -45 10.5 -102.5t12.5 -119.5q7 -61 13 -121t11 -107h5q21 47 50 108t60 124q29 59 55.5 114.5t46.5 98.5q8 17 18 24.5t27 7.5h126q14 0 13 -8.5t-6 -16.5z
" />
    <glyph glyph-name="W" unicode="W" horiz-adv-x="874" 
d="M446 260l-44 -88l-73 -142q-7 -14 -16 -22t-32 -8h-94q-21 0 -29 7.5t-9 21.5l-50 610q-3 26 22 26h108q17 0 24 -6t9 -22l12 -260l7 -157h5l51 110q1 1 7 13.5t14.5 29.5t18 37t18 37.5t14 30t6.5 14.5l-17 148q-1 9 3 17t15 8h107q17 0 24.5 -5.5t8.5 -22.5l9 -135
q2 -26 3.5 -51t3 -45t2.5 -33.5t1 -15.5l7 -137h5l59 149q1 3 6.5 15.5t13.5 32t18 43.5t21 48q25 57 55 129q6 16 16.5 22t29.5 6h116q14 0 16 -7.5t-4 -19.5l-277 -609q-8 -14 -18 -21.5t-32 -7.5h-93q-23 0 -29.5 8.5t-8.5 21.5l-15 142l-10 89z" />
    <glyph glyph-name="X" unicode="X" horiz-adv-x="588" 
d="M407 339l123 -312q3 -9 0.5 -18t-19.5 -9h-120q-13 0 -20 4t-12 18l-28 91l-31 106l-68 -108l-61 -87q-10 -14 -19 -19t-24 -5h-137q-14 0 -14.5 9t8.5 20l242 310l-113 297q-5 13 0.5 21t19.5 8h119q16 0 20.5 -4.5t9.5 -17.5l26 -87l26 -91l63 96l56 80q8 13 16 18
t21 5h138q11 0 15.5 -2.5t5 -6.5t-2 -8.5t-5.5 -8.5z" />
    <glyph glyph-name="Y" unicode="Y" horiz-adv-x="630" 
d="M233 241l-137 399q-3 10 1.5 17.5t15.5 7.5h111q17 0 23 -5t11 -19l40 -129l36 -124h6l85 125l85 120q11 15 20 23.5t26 8.5h133q12 0 13 -7t-5 -15l-303 -402l-42 -219q-1 -7 -6 -14.5t-19 -7.5h-118q-23 0 -18 22z" />
    <glyph glyph-name="Z" unicode="Z" horiz-adv-x="549" 
d="M208 136h264q14 0 17 -6t1 -15l-18 -93q-2 -10 -7 -16t-19 -6h-422q-23 0 -18 22l17 82q1 9 5 19t15 22l343 383h-240q-14 0 -17 6t-1 15l18 94q2 10 7.5 16t19.5 6h401q9 0 14 -6t3 -16l-15 -74q-3 -17 -8.5 -27.5t-15.5 -21.5z" />
    <glyph glyph-name="bracketleft" unicode="[" horiz-adv-x="294" 
d="M145 28h62q17 0 12 -21l-16 -83q-2 -8 -5 -13.5t-15 -5.5h-185q-12 0 -15.5 6t-1.5 16l145 746q3 22 26 22h184q17 0 12 -21l-16 -84q-2 -8 -5 -13.5t-16 -5.5h-61z" />
    <glyph glyph-name="backslash" unicode="\" horiz-adv-x="320" 
d="M266 -40q0 -10 -4.5 -16t-16.5 -6h-97q-16 0 -18 17q-10 179 -20 356t-21 357q2 11 6.5 17.5t14.5 6.5h96q9 0 12.5 -5t5.5 -11q11 -178 21.5 -358.5t20.5 -357.5z" />
    <glyph glyph-name="bracketright" unicode="]" horiz-adv-x="294" 
d="M188 571h-61q-12 0 -14 5.5t0 14.5l17 83q3 21 21 21h183q13 0 16.5 -6t1.5 -16l-146 -746q-3 -22 -26 -22h-184q-12 0 -13 5.5t1 14.5l15 82q5 21 22 21h61z" />
    <glyph glyph-name="asciicircum" unicode="^" horiz-adv-x="562" 
d="M354 542l-213 -195q-11 -10 -17.5 -10t-14.5 8l-38 32q-7 8 -6 13t11 16l213 240q10 10 18 14t26 4l82 -1q22 0 27 -4t10 -13l110 -245q6 -11 5 -16t-11 -12l-40 -26q-10 -8 -16.5 -7t-13.5 9z" />
    <glyph glyph-name="underscore" unicode="_" horiz-adv-x="496" 
d="M444 -45q13 0 16 -5t1 -16l-11 -55q-2 -11 -6.5 -16.5t-18.5 -5.5h-489q-22 0 -17 21l11 55q4 22 25 22h489z" />
    <glyph glyph-name="grave" unicode="`" horiz-adv-x="534" 
d="M299 779q12 7 19.5 5t15.5 -14l112 -185q7 -10 4.5 -15.5t-8.5 -9.5l-41 -26q-10 -7 -16.5 -6.5t-12.5 7.5l-142 171q-17 21 2 32z" />
    <glyph glyph-name="a" unicode="a" horiz-adv-x="561" 
d="M465 22q-1 -8 -6 -15t-19 -7h-113q-13 0 -15.5 5.5t-0.5 15.5l5 25l-1 1q-43 -28 -79.5 -41.5t-72.5 -13.5q-74 0 -101.5 38.5t-27.5 103.5q0 24 3.5 50.5t8.5 55.5q11 58 27.5 105.5t42.5 81t64.5 52t94.5 18.5q26 0 60 -9t62 -25l4 16q2 10 7 13t15 3h111q14 0 16.5 -6
t0.5 -17zM298 356q-20 0 -35 -6t-26 -19t-18.5 -34t-13.5 -51q-8 -40 -8 -61q0 -32 10.5 -42t33.5 -10q22 0 50 10.5t47 18.5l35 180q-42 14 -75 14z" />
    <glyph glyph-name="b" unicode="b" horiz-adv-x="549" 
d="M276 705q11 0 14.5 -4.5t3.5 -9.5q0 -6 -1 -8q-10 -49 -19.5 -97.5t-18.5 -98.5q29 8 55 12t46 4q50 0 82.5 -11t52 -31.5t27 -50t7.5 -65.5q0 -17 -2 -39.5t-6 -47.5q-9 -59 -27.5 -108.5t-51 -84.5t-81.5 -54.5t-119 -19.5q-24 0 -52 1.5t-55 5t-51 9.5t-42 14
q-12 6 -16.5 14t-4.5 19q0 4 0.5 8t1.5 9q30 154 60 306t59 306q2 10 8 16t18 6h112zM297 369q-17 0 -29.5 -1.5t-37.5 -8.5l-44 -228q17 -2 33.5 -4.5t40.5 -1.5q27 1 49 17t37 65q5 14 8 30.5t5 32.5q5 45 -7.5 72t-54.5 27z" />
    <glyph glyph-name="c" unicode="c" horiz-adv-x="477" 
d="M425 60q0 -18 -5.5 -27t-30.5 -19q-16 -5 -35.5 -9.5t-40.5 -7.5t-41.5 -4.5t-38.5 -1.5q-58 0 -95.5 14t-59 38t-30 55.5t-8.5 66.5q0 21 2.5 48t7.5 50q9 49 25 92.5t46 76.5t78 52.5t122 19.5q36 0 78 -6t71 -20q12 -5 16 -14t-3 -24l-19 -62q-3 -8 -6 -12.5t-7 -6
t-11 -1t-17 1.5q-30 3 -53.5 5t-46.5 2q-50 0 -77 -27t-38 -88q-2 -17 -3.5 -30.5t-1.5 -24.5q0 -38 18.5 -54t57.5 -16q21 0 52 2t64 6q16 2 23 0.5t7 -18.5v-57z" />
    <glyph glyph-name="d" unicode="d" horiz-adv-x="550" 
d="M299 505q19 0 48.5 -4t55.5 -12v1l4 22l34 171q2 10 7 16.5t18 6.5h112q11 0 14.5 -4.5t3.5 -10.5q0 -5 -1 -8l-129 -661q-1 -8 -6 -15t-19 -7h-113q-17 0 -17 13q0 5 1 8q1 6 2.5 12.5t2.5 12.5h-2q-39 -25 -78 -39.5t-73 -14.5q-38 0 -63 10.5t-40 29t-21 45t-5 59.5
q1 38 7 77t14 75q12 50 29.5 90.5t45.5 68.5t68.5 43t99.5 15zM377 360q-19 5 -32.5 7.5t-27.5 2.5q-21 0 -36.5 -3t-27.5 -12.5t-21.5 -26t-17.5 -43.5q-6 -22 -11 -52.5t-5 -50.5q0 -31 11 -40t32 -9q22 0 50.5 10.5t47.5 18.5z" />
    <glyph glyph-name="e" unicode="e" horiz-adv-x="530" 
d="M34 159q0 32 5.5 64.5t13.5 63.5q10 38 28 76t50 69t80 50t119 19q35 0 67.5 -8t57 -24.5t39 -42t14.5 -59.5q0 -59 -31.5 -95t-78.5 -55.5t-101.5 -27t-100.5 -9.5q-4 -11 -4 -25t6 -22t17 -12t26 -5t33 -1q34 0 65.5 2t73.5 7q11 2 18 -0.5t7 -16.5v-48
q0 -20 -6.5 -28.5t-28.5 -16.5q-17 -6 -39 -10.5t-46 -7t-48 -4t-45 -1.5q-43 0 -78 9t-60 29.5t-39 52.5t-14 77zM346 349q0 14 -11.5 23t-32.5 9q-22 0 -37 -9.5t-25.5 -24t-17 -32.5t-11.5 -35q22 1 46 5t43.5 12t32.5 20.5t13 31.5z" />
    <glyph glyph-name="f" unicode="f" horiz-adv-x="419" 
d="M133 372h-53q-20 0 -14 23l14 77q4 22 24 22h54l8 48q8 41 24 74.5t41.5 57t61.5 36.5t85 13q15 0 32 -1t35 -4t35 -7.5t31 -11.5q16 -8 15.5 -17.5t-5.5 -20.5l-21 -63q-5 -13 -10.5 -14t-23.5 1q-27 4 -46 5.5t-27 1.5q-36 0 -51.5 -17t-22.5 -49l-7 -32h115
q14 0 16.5 -5t0.5 -16l-15 -78q-2 -12 -7 -17.5t-19 -5.5h-116l-80 -402q-8 -41 -23 -73.5t-39.5 -55.5t-59 -35.5t-82.5 -12.5q-29 0 -65.5 6.5t-65.5 20.5q-16 7 -16.5 16.5t3.5 20.5l21 64q5 14 10.5 15.5t24.5 -1.5q28 -5 43 -6.5t24 -1.5q39 0 55 19.5t24 59.5z" />
    <glyph glyph-name="g" unicode="g" horiz-adv-x="549" 
d="M469 31q-10 -50 -23 -93.5t-41.5 -76t-78 -51.5t-132.5 -19q-21 0 -43.5 1.5t-44 5t-40.5 8t-32 9.5q-15 6 -21 12t-6 14q0 6 3 14l23 57q8 18 16 19.5t22 -0.5q35 -6 70.5 -8.5t62.5 -2.5t44.5 3.5t28.5 12t17 21.5t11 32l7 26q0 1 -1 1q-29 -9 -55 -12.5t-46 -3.5
q-50 0 -82.5 11t-51.5 32t-27 50t-8 65q0 32 5 68.5t13 67.5q12 47 33 86t53.5 66.5t78.5 42.5t110 15q24 0 50.5 -2t52 -5.5t48 -9.5t40.5 -13q19 -8 21 -21.5t-1 -28.5zM379 363q-17 2 -32 3.5t-30 1.5q-17 0 -33 -3.5t-29.5 -14.5t-24 -31t-17.5 -53q-4 -17 -6.5 -36.5
t-2.5 -33.5q0 -36 15 -48.5t42 -12.5q17 0 34 2t42 8z" />
    <glyph glyph-name="h" unicode="h" horiz-adv-x="557" 
d="M474 22q-2 -8 -6.5 -15t-18.5 -7h-110q-12 0 -16 6t-2 16q3 16 11 54t16 80.5t15.5 80.5t10.5 54q8 41 -3 58t-43 17q-11 0 -25.5 -3t-28.5 -7.5t-27.5 -9.5t-22.5 -9l-61 -315q-2 -8 -6.5 -15t-18.5 -7h-110q-11 0 -14.5 6t-1.5 16l128 662q3 22 25 22h111q14 0 16.5 -7
t0.5 -15l-44 -226q34 17 77 31t81 14q56 0 84.5 -17.5t39 -46t8 -63.5t-9.5 -70z" />
    <glyph glyph-name="i" unicode="i" horiz-adv-x="278" 
d="M234 700q38 0 53.5 -13.5t15.5 -36.5q0 -17 -4 -35t-15 -33t-30 -24.5t-49 -9.5q-40 0 -54.5 14.5t-14.5 37.5q0 20 5 38t16.5 32t30.5 22t46 8zM179 22q-1 -7 -6 -14.5t-19 -7.5h-112q-23 0 -18 22l87 450q2 11 8 16.5t19 5.5h112q14 0 16 -7.5t0 -14.5z" />
    <glyph glyph-name="j" unicode="j" horiz-adv-x="293" 
d="M247 700q38 0 53.5 -13t15.5 -37q0 -17 -4 -35t-15 -33t-30 -24.5t-49 -9.5q-40 0 -54.5 14.5t-14.5 37.5q0 20 5 38t17 32t30.5 22t45.5 8zM175 -70q-9 -43 -26 -71t-41 -44.5t-55.5 -23.5t-68.5 -7q-28 0 -63.5 5.5t-59.5 16.5q-8 3 -12.5 11t0.5 24l20 68q4 13 9.5 16
t25.5 1t40.5 -3.5t38 3t30.5 17.5t18 40l94 491q2 12 8 16t17 4h113q11 0 15 -4t2 -16z" />
    <glyph glyph-name="k" unicode="k" horiz-adv-x="530" 
d="M228 340q19 19 35.5 34.5l33 31t33.5 31t36 34.5q11 11 21 16.5t30 5.5h126q20 0 18 -11q-2 -7 -12 -16l-180 -170l117 -269q5 -8 3 -14q-2 -13 -23 -13h-100q-15 0 -23 2.5t-13 7.5t-8 12t-6 15l-64 147q-16 -15 -33.5 -31t-32.5 -31l-20 -101q-2 -8 -6.5 -14.5
t-18.5 -6.5h-109q-22 0 -17 21l128 663q3 22 26 22h109q14 0 16.5 -7t0.5 -15l-67 -343q1 0 0 -1z" />
    <glyph glyph-name="l" unicode="l" horiz-adv-x="301" 
d="M205 163q-5 -26 6.5 -31.5t34.5 -7.5q15 -2 18.5 -6t1.5 -15l-10 -73q-3 -15 -20 -22q-20 -8 -44.5 -10.5t-38.5 -2.5q-66 0 -95 30.5t-15 100.5l108 558q2 10 8 16t18 6h112q14 0 17 -7t1 -15z" />
    <glyph glyph-name="m" unicode="m" horiz-adv-x="838" 
d="M757 21q-2 -8 -6.5 -14.5t-17.5 -6.5h-110q-23 0 -18 21l51 263q9 46 -2 61t-39 15q-18 0 -46 -9.5t-49 -19.5l-9 -46l-51 -264q-2 -8 -6.5 -14.5t-18.5 -6.5h-110q-22 0 -17 21l51 266q8 42 -2 57.5t-37 15.5q-18 0 -45.5 -9t-50.5 -20l-60 -310q-2 -8 -7 -14.5
t-19 -6.5h-110q-22 0 -17 21l87 450q2 10 8 16t18 6h110q14 0 16.5 -7t0.5 -15l-4 -23l1 -1q37 26 77.5 40.5t79.5 14.5q45 0 76 -16.5t40 -51.5q42 29 89.5 48.5t92.5 19.5q53 0 79 -17.5t35 -45.5t5.5 -63t-10.5 -70l-55 -285v0z" />
    <glyph glyph-name="n" unicode="n" horiz-adv-x="557" 
d="M249 448h2q19 13 41 23t44 17t43 11t38 4q53 0 79.5 -18t36 -46.5t6.5 -64t-10 -69.5l-55 -283q-1 -7 -6 -14.5t-19 -7.5h-113q-13 0 -16 6t-1 16l51 260q8 47 -3.5 61.5t-41.5 14.5q-11 0 -24.5 -3t-27 -7.5t-26 -9.5t-21.5 -8l-60 -308q-1 -7 -6.5 -14.5t-19.5 -7.5
h-112q-12 0 -15.5 6t-1.5 16l87 450q2 10 8 16t18 6h112q14 0 16.5 -7t0.5 -15z" />
    <glyph glyph-name="o" unicode="o" horiz-adv-x="548" 
d="M318 504q57 0 96 -14t63 -38t34 -57t10 -71q0 -18 -2 -35.5t-5 -34.5q-8 -46 -21.5 -93t-42 -84.5t-78 -61t-129.5 -23.5q-59 0 -98 15t-62 40.5t-32.5 59t-9.5 71.5q0 20 2.5 39t5.5 37q7 40 22 84t45 81t78.5 61t123.5 24zM301 370q-23 0 -39 -9t-27 -25t-17.5 -38.5
t-11.5 -49.5q-3 -17 -5 -31.5t-2 -27.5q0 -35 13.5 -49.5t43.5 -14.5q25 0 42 8.5t28 24.5t17.5 38.5t11.5 51.5q3 17 5 31.5t2 28.5q0 33 -14.5 47.5t-46.5 14.5z" />
    <glyph glyph-name="p" unicode="p" horiz-adv-x="550" 
d="M406 502q34 0 57.5 -10t38 -28.5t21 -44.5t7.5 -57v-17.5t-1 -19.5q-1 -27 -5.5 -58.5t-10.5 -59.5q-11 -52 -29.5 -92.5t-47.5 -68t-70 -42t-97 -14.5q-20 0 -49.5 3.5t-54.5 11.5l-35 -179q-2 -7 -7 -14.5t-19 -7.5h-111q-22 0 -17 22l124 645q2 10 8.5 16.5t17.5 6.5
h112q14 0 17 -5.5t1 -13.5l-4 -27l1 -1q38 26 78 40.5t75 14.5zM324 358q-23 0 -50.5 -10t-45.5 -18q-11 -50 -20 -98t-19 -98q26 -6 43.5 -8.5t36.5 -2.5q29 0 48 19.5t30 47t15.5 57.5t4.5 52q0 31 -8 45t-35 14z" />
    <glyph glyph-name="q" unicode="q" horiz-adv-x="549" 
d="M333 504q24 0 51 -1.5t52.5 -5.5t48.5 -9.5t41 -13.5q17 -9 19 -21.5t0 -28.5l-117 -598q-1 -7 -6 -14.5t-19 -7.5h-112q-11 0 -14.5 4.5t-3.5 11.5v6l36 180l-1 1q-29 -8 -54.5 -11.5t-45.5 -3.5q-47 0 -79.5 10.5t-52.5 30.5t-28.5 48t-8.5 63q0 34 6 75.5t16 75.5
q13 49 34 87.5t53.5 65.5t77.5 41.5t107 14.5zM379 363q-17 2 -31.5 3.5t-29.5 1.5q-41 0 -69 -25.5t-40 -95.5q-3 -17 -4 -32t-1 -27q0 -38 15 -50.5t44 -12.5q28 0 72 10z" />
    <glyph glyph-name="r" unicode="r" horiz-adv-x="410" 
d="M258 412l1 -2q16 18 37 33t42.5 27t42 19.5t36.5 9.5q19 3 25.5 -0.5t4.5 -22.5l-8 -102q-1 -14 -6.5 -20t-27.5 -10q-46 -8 -90 -23t-82 -32l-51 -267q-2 -7 -6.5 -14.5t-18.5 -7.5h-113q-13 0 -16.5 6t-1.5 16l87 450q2 10 8 16t18 6h113q14 0 16.5 -7.5t0.5 -14.5z
" />
    <glyph glyph-name="s" unicode="s" horiz-adv-x="487" 
d="M302 504q16 0 36.5 -1.5t40.5 -4.5t39.5 -7t34.5 -10q19 -7 26.5 -14.5t-0.5 -27.5l-22 -52q-5 -14 -10.5 -17t-23.5 -1q-16 2 -35.5 4t-38.5 3.5t-35.5 3t-27.5 1.5q-35 1 -48 -8t-14 -27q-1 -8 4 -13t13 -8.5t18 -6t19 -3.5q31 -5 61 -12.5t53 -22t37.5 -38.5t14.5 -61
q0 -59 -22 -96t-57.5 -58t-81 -28.5t-93.5 -7.5q-18 0 -39.5 1.5t-42.5 4.5t-40 7t-33 9q-23 9 -28 19.5t4 30.5l20 48q6 15 12.5 18t22.5 0q34 -6 74 -9.5t66 -3.5q36 0 55 8.5t21 31.5q2 18 -11 24t-36 11q-34 6 -65 14.5t-54.5 23.5t-37.5 39t-14 61q0 51 19.5 84.5
t52.5 53.5t76 28.5t90 8.5z" />
    <glyph glyph-name="t" unicode="t" horiz-adv-x="409" 
d="M370 45q1 -11 -6.5 -20t-17.5 -12q-19 -6 -40.5 -10t-41.5 -6.5t-38 -3.5t-30 -1q-47 0 -73.5 13.5t-38.5 35.5t-12 50.5t6 59.5l44 223h-44q-12 0 -15.5 5.5t-1.5 16.5l15 75q2 11 7.5 16.5t17.5 5.5h45l19 98q2 12 9 17.5t18 8.5l106 27q11 4 17.5 -0.5t4.5 -16.5
l-26 -134h102q14 0 16.5 -5t0.5 -16l-15 -76q-2 -11 -6.5 -16.5t-18.5 -5.5h-103l-35 -186q-3 -14 -3.5 -24t4 -16.5t16 -10t33.5 -3.5q12 0 31.5 1t38.5 3q10 0 15.5 -2t4.5 -19z" />
    <glyph glyph-name="u" unicode="u" horiz-adv-x="552" 
d="M319 46l-2 1q-40 -26 -85.5 -40.5t-80.5 -14.5q-53 0 -79.5 16t-35.5 43t-5.5 62t10.5 73l56 286q2 7 6.5 14.5t18.5 7.5h113q13 0 16 -6t1 -16l-50 -260q-8 -42 2 -58.5t42 -16.5q23 0 51 10t45 17l59 308q2 7 7 14.5t19 7.5h112q23 0 18 -22l-88 -450q-2 -10 -7 -16
t-18 -6h-113q-14 0 -16 7t-1 15z" />
    <glyph glyph-name="v" unicode="v" horiz-adv-x="545" 
d="M261 171q0 1 10.5 22.5t22.5 46.5q14 29 33 66l88 167q5 11 12.5 16t26.5 5h111q17 0 18.5 -6t-6.5 -19l-248 -437q-9 -17 -19.5 -24.5t-30.5 -7.5h-94q-22 0 -29 7.5t-10 24.5l-78 436q-2 13 2.5 19.5t18.5 6.5h105q14 0 20.5 -3t8.5 -20l20 -171q4 -35 7 -63
q2 -24 4 -44t3 -22h4z" />
    <glyph glyph-name="w" unicode="w" horiz-adv-x="757" 
d="M475 469q4 -29 6.5 -58t5.5 -58q4 -42 7.5 -81.5t8.5 -80.5h4l51 112q17 42 36.5 83.5t36.5 83.5q6 14 12.5 19t17.5 5h120q15 0 15.5 -6.5t-4.5 -15.5l-227 -454q-7 -13 -18 -15.5t-22 -2.5h-86q-28 0 -31 32l-24 162h-3l-99 -174q-14 -20 -40 -20h-78q-19 0 -26.5 7.5
t-10.5 26.5l-60 440q-3 20 20 20h105q13 0 18.5 -4t6.5 -18q4 -42 7 -83.5t5 -83.5l10 -124h5q24 47 48 94.5t50 92.5l-15 103q0 9 4 16t15 7h105q14 0 18.5 -4t5.5 -21z" />
    <glyph glyph-name="x" unicode="x" horiz-adv-x="518" 
d="M360 251l114 -224q5 -10 0 -18.5t-19 -8.5h-115q-12 0 -18 3t-11 14l-56 130l-103 -128q-9 -11 -16.5 -15t-20.5 -4h-130q-13 0 -15.5 7t9.5 20l200 225l-105 216q-5 9 -1 17.5t19 8.5h114q14 0 18.5 -3t8.5 -14l50 -120l97 119q8 10 13 14t17 4h136q18 0 18 -8t-9 -18z
" />
    <glyph glyph-name="y" unicode="y" horiz-adv-x="521" 
d="M252 196q7 12 19 35l24 46q14 26 29 56q7 14 16.5 32.5t19 38t19 37.5t17.5 32q5 11 12.5 16t25.5 5h108q17 0 18 -6.5t-6 -19.5l-362 -641q-8 -14 -15.5 -18.5t-24.5 -4.5h-98q-15 0 -17.5 5.5t5.5 19.5l104 184l-83 456q-5 25 21 25h102q14 0 20 -2.5t8 -18.5l19 -142
l14 -135h5z" />
    <glyph glyph-name="z" unicode="z" horiz-adv-x="469" 
d="M401 123q21 0 17 -22l-15 -79q-4 -22 -25 -22h-370q-13 0 -16 5t-1 16l12 64q2 8 6 17.5t18 21.5l252 247h-185q-22 0 -16 23l14 79q6 21 26 21h350q13 0 16 -4.5t1 -15.5l-13 -67q-2 -9 -7 -18.5t-17 -21.5l-248 -244h201z" />
    <glyph glyph-name="braceleft" unicode="{" horiz-adv-x="345" 
d="M197 45q-5 -23 1 -33t27 -12l26 -2q9 -1 13 -4.5t2 -14.5l-13 -65q-3 -18 -20 -20q-26 -4 -44 -4.5t-35 -0.5q-39 0 -62 12t-33.5 30.5t-12 41t3.5 44.5l30 156q6 33 4.5 53t-29.5 29q-16 5 -13 20l10 54q3 13 19 17q33 9 42.5 29.5t15.5 53.5l30 154q4 23 14 44.5t27 38
t42.5 26.5t60.5 10q17 0 38 -0.5t48 -4.5q16 -2 13 -20l-14 -68q-2 -11 -7.5 -14.5t-14.5 -3.5l-27 -2q-21 -2 -30.5 -13t-14.5 -33l-25 -128q-2 -13 -7.5 -30t-16 -34t-26 -31t-37.5 -21l-1 -3q22 -9 32.5 -21t14 -27t1.5 -31.5t-5 -32.5z" />
    <glyph glyph-name="bar" unicode="|" horiz-adv-x="300" 
d="M82 675q0 10 4.5 16t17.5 6h93q14 0 17.5 -7.5t3.5 -14.5v-764q0 -7 -3.5 -14.5t-17.5 -7.5h-93q-13 0 -17.5 6t-4.5 16v764z" />
    <glyph glyph-name="braceright" unicode="}" horiz-adv-x="345" 
d="M104 184q3 16 8 32.5t14 31.5t24.5 27t40.5 21l1 3q-20 7 -30 21t-13.5 31t-3 34t3.5 30l24 128q5 22 -0.5 33t-26.5 13l-25 2q-9 0 -13 3.5t-2 14.5l13 68q3 18 21 20q28 4 47.5 4.5t36.5 0.5q31 0 52.5 -10t33.5 -26.5t15 -38t-1 -44.5l-30 -154q-6 -33 -4.5 -53.5
t31.5 -29.5q6 -2 10 -5.5t2 -11.5l-11 -54q-2 -8 -7.5 -13t-12.5 -7q-17 -5 -27 -12t-15.5 -17t-9 -23.5t-6.5 -29.5l-32 -167q-4 -21 -14.5 -42t-27.5 -37.5t-42 -27t-58 -10.5q-17 0 -40 0.5t-46 4.5q-16 1 -13 20l13 65q2 11 7.5 14.5t14.5 4.5l25 2q23 2 32 12t14 33z
" />
    <glyph glyph-name="asciitilde" unicode="~" horiz-adv-x="595" 
d="M393 218q-20 0 -42 8.5t-44.5 19t-44 19t-39.5 8.5q-23 0 -40 -10t-40 -36q-12 -15 -27 -6l-46 28q-12 7 -4 23q18 34 38 55.5t41.5 34t44.5 17.5t47 5q25 0 48.5 -7.5t45.5 -17t42.5 -17t38.5 -7.5q17 0 32.5 7.5t32.5 29.5q8 9 14 11t15 -5l45 -31q11 -7 11 -10t-5 -14
q-20 -33 -39.5 -53.5t-39.5 -32t-41.5 -15.5t-43.5 -4z" />
    <glyph glyph-name="exclamdown" unicode="&#xa1;" horiz-adv-x="294" 
d="M207 500q42 0 54.5 -16t11.5 -39q-1 -20 -5.5 -37t-15.5 -29.5t-28.5 -20t-44.5 -7.5q-41 0 -54.5 15.5t-11.5 40.5q0 15 4 31t14 30t28.5 23t47.5 9zM154 -153q-2 -12 -7.5 -16t-16.5 -4h-107q-20 0 -15 20l97 428q3 11 7.5 15.5t15.5 4.5h81q11 0 14.5 -5t1.5 -15z" />
    <glyph glyph-name="cent" unicode="&#xa2;" horiz-adv-x="595" 
d="M481 60q0 -18 -5 -27t-30 -19q-26 -9 -59 -14t-65 -7l-22 -120q-2 -7 -7 -14.5t-18 -7.5h-63q-12 0 -15 6t-1 16l23 126q-36 7 -59.5 23t-37.5 38t-20 48.5t-6 56.5q0 21 3 47t7 49q8 43 21 82.5t36.5 71.5t60.5 53.5t92 29.5l25 124q3 22 25 22h63q14 0 16 -7t0 -15
l-24 -121q29 -2 56.5 -7.5t49.5 -15.5q11 -5 15 -14t-2 -24l-20 -62q-3 -8 -5.5 -12.5t-7 -6t-11 -1t-17.5 1.5q-29 3 -52.5 5t-46.5 2q-51 0 -78 -27t-38 -88q-2 -17 -3.5 -30.5t-1.5 -24.5q0 -38 18.5 -54t57.5 -16q21 0 52 2t64 6q16 2 23.5 0.5t7.5 -18.5z" />
    <glyph glyph-name="sterling" unicode="&#xa3;" horiz-adv-x="595" 
d="M410 669q14 0 36 -1.5t47 -4.5t49.5 -8t44.5 -14q13 -6 14 -12.5t-3 -16.5l-24 -70q-4 -12 -10 -16t-16 -4q-30 5 -61.5 8t-65.5 3q-47 0 -69.5 -22t-30.5 -60l-11 -60h137q14 0 16.5 -4t0.5 -14l-15 -74q-2 -12 -7.5 -16t-16.5 -4h-133q-8 -41 -21 -77q-7 -20 -15.5 -41
t-20.5 -33q63 0 125 -0.5t125 -0.5q14 0 16 -5t0 -15l-16 -88q-3 -12 -7.5 -15.5t-16.5 -3.5h-427q-12 0 -15.5 5.5t-2.5 14.5l8 52q2 11 5 19t8 16t13.5 16.5t22.5 20.5q23 20 36.5 44t21.5 53l9 38h-50q-16 0 -17 5t-1 15l14 74q2 11 8 14.5t17 3.5h46q5 32 10 62t13 59
q9 35 26.5 64t45 49.5t66.5 32t92 11.5z" />
    <glyph glyph-name="currency" unicode="&#xa4;" horiz-adv-x="540" 
d="M175 288q0 -48 24 -73.5t68 -25.5q48 0 73 27.5t25 71.5q0 46 -25 72t-73 26q-44 0 -68 -26t-24 -72zM62 285q0 17 4.5 45t19.5 57l-51 52q-11 11 -11 17t11 17l43 41q14 14 20.5 12.5t17.5 -12.5l46 -47q20 11 46 17.5t57 7.5q33 0 60 -6.5t50 -20.5l55 54q13 13 19 12
t16 -10l47 -46q10 -11 9.5 -16.5t-11.5 -16.5l-58 -58q12 -23 17.5 -49t5.5 -46q0 -22 -6 -51.5t-20 -58.5l58 -58q11 -11 12.5 -17.5t-9.5 -17.5l-40 -42q-13 -14 -19.5 -14t-17.5 11l-62 60q-23 -11 -49.5 -18.5t-56.5 -6.5q-29 0 -51.5 5.5t-42.5 14.5l-56 -52
q-11 -11 -17.5 -13t-17.5 9l-46 47q-8 8 -8 14.5t12 17.5l51 50q-14 29 -20.5 61.5t-6.5 54.5z" />
    <glyph glyph-name="yen" unicode="&#xa5;" horiz-adv-x="595" 
d="M496 220q12 0 15 -3.5t1 -13.5l-9 -44q-2 -10 -6 -14t-17 -4h-136l-24 -119q-1 -7 -5.5 -14.5t-18.5 -7.5h-113q-12 0 -16 6t-2 16l24 119h-136q-11 0 -15 4t-2 15l9 43q4 17 24 17h427zM76 257q-11 0 -15 4t-2 15l9 43q3 18 24 18h91l-89 302q-3 10 3 17.5t17 7.5h107
q17 0 22.5 -4.5t10.5 -19.5l56 -250h6l147 243q11 14 19 22.5t25 8.5h123q11 0 12.5 -8.5t-5.5 -16.5l-210 -302h91q13 0 15.5 -3.5t0.5 -14.5l-9 -43q-2 -11 -6 -15t-16 -4h-427z" />
    <glyph glyph-name="brokenbar" unicode="&#xa6;" horiz-adv-x="300" 
d="M82 264q0 10 4.5 16t17.5 6h93q14 0 17.5 -7.5t3.5 -14.5v-353q0 -7 -3.5 -14.5t-17.5 -7.5h-93q-13 0 -17.5 6t-4.5 16v353zM82 673q0 11 4.5 17t17.5 6h93q14 0 17.5 -7.5t3.5 -15.5v-308q0 -8 -3.5 -15t-17.5 -7h-93q-13 0 -17.5 6t-4.5 16v308z" />
    <glyph glyph-name="section" unicode="&#xa7;" horiz-adv-x="454" 
d="M485 610q-6 -14 -10.5 -27t-9.5 -27q-5 -9 -9.5 -13.5t-9 -6t-10.5 -0.5t-15 3q-21 5 -52.5 9.5t-54.5 4.5q-15 0 -29.5 -1.5t-25.5 -7t-18.5 -15.5t-8.5 -26q0 -12 8.5 -22t21 -18.5t26 -15.5t22.5 -12q23 -12 45.5 -24.5t40.5 -29.5t29.5 -39.5t11.5 -54.5
q0 -47 -23.5 -83t-65.5 -73q20 -21 33 -48t13 -66q0 -45 -19 -79t-51 -57t-73.5 -34.5t-85.5 -11.5q-24 0 -47.5 2t-45.5 6t-39.5 9.5t-29.5 12.5q-12 8 -15.5 15.5t1.5 19.5l22 55q9 22 19.5 21.5t30.5 -6.5q23 -7 48.5 -9.5t47.5 -2.5q15 0 31 2.5t28.5 8.5t20.5 15t8 22
q0 18 -17 34.5t-40 30.5t-46.5 25t-36.5 20q-28 19 -46.5 47.5t-18.5 72.5q0 48 25.5 89t63.5 67q-20 19 -31 41t-11 51q0 50 18 86t48.5 59.5t71 34.5t85.5 11q24 0 48.5 -3t46.5 -7.5t40 -10.5t29 -12q12 -7 14 -14t-3 -18zM295 254q0 26 -29 43l-49 26
q-17 -19 -26.5 -36.5t-9.5 -31.5q0 -11 7 -19.5t18 -16t25 -14.5t29 -14q19 19 26 34t9 29z" />
    <glyph glyph-name="dieresis" unicode="&#xa8;" horiz-adv-x="534" 
d="M266 686q35 0 50 -11t15 -33q0 -18 -4.5 -35.5t-15 -31t-28.5 -22t-45 -8.5q-36 0 -49 13t-13 33t4.5 37.5t15 30t27.5 20t43 7.5zM475 686q35 0 50 -11t15 -33q0 -18 -4.5 -35.5t-15 -31t-28.5 -22t-45 -8.5q-35 0 -48.5 13t-13.5 33q0 40 19.5 67.5t70.5 27.5z" />
    <glyph glyph-name="copyright" unicode="&#xa9;" horiz-adv-x="828" 
d="M413 -14q-74 0 -138.5 27.5t-112.5 74.5t-75.5 111t-27.5 137t27.5 137t75.5 111t112.5 74.5t138.5 27.5q75 0 140 -27.5t113 -74.5t75 -111t27 -137t-28 -137t-76 -111t-113 -74.5t-138 -27.5zM413 604q-56 0 -104.5 -21t-85.5 -57.5t-58 -85.5t-21 -104
q0 -56 21 -104.5t58 -85.5t85.5 -58t104.5 -21t105 21t85.5 58t57.5 85.5t21 104.5q0 55 -21 104t-57.5 85.5t-85.5 57.5t-105 21zM242 330q0 36 7 72.5t25.5 65t52 46.5t87.5 18q28 0 58 -4t53 -14q9 -5 14 -10t3 -16l-7 -35q-2 -9 -7.5 -11.5t-13.5 -0.5q-21 3 -46.5 4.5
t-44.5 1.5q-24 0 -39.5 -9t-24.5 -25t-12 -37t-3 -45q0 -56 15.5 -86.5t63.5 -30.5q24 0 43.5 1.5t48.5 4.5q9 1 13.5 -1.5t7.5 -10.5l8 -32q2 -11 -2.5 -17t-13.5 -10q-23 -11 -54 -15.5t-60 -4.5q-53 0 -86.5 17.5t-52.5 46t-26 64.5t-7 73z" />
    <glyph glyph-name="ordfeminine" unicode="&#xaa;" horiz-adv-x="398" 
d="M222 569q18 0 39.5 -6t40.5 -20l3 14q1 10 14 10h84q13 0 13 -8q0 -4 -1 -7l-57 -300q-1 -5 -4.5 -10t-13.5 -5h-80q-12 0 -12 9v4l4 20h-1q-28 -20 -54 -29.5t-54 -9.5q-49 0 -69.5 24.5t-21.5 69.5q0 31 8 69q7 38 19 70t30.5 55.5t46 36.5t66.5 13zM260 346
q5 28 10.5 55t11.5 55q-13 5 -24.5 7t-20.5 2q-25 0 -37.5 -15.5t-21.5 -52.5q-2 -9 -3 -19t-1 -18q0 -30 26 -30q13 0 30.5 5t29.5 11z" />
    <glyph glyph-name="guillemotleft" unicode="&#xab;" horiz-adv-x="557" 
d="M178 355q6 6 15 12t19 6h122q9 0 10.5 -5t-3.5 -9l-160 -159l91 -154q2 -4 1 -11t-10 -7h-120q-11 0 -16 6.5t-9 12.5l-80 136q-8 13 -5.5 21.5t12.5 17.5zM390 355q6 6 15 12t19 6h121q10 0 11 -5t-4 -9l-158 -159l89 -154q2 -4 1 -11t-10 -7h-119q-11 0 -16 6.5
t-9 12.5l-81 136q-8 13 -5 21.5t13 17.5z" />
    <glyph glyph-name="logicalnot" unicode="&#xac;" horiz-adv-x="595" 
d="M532 385q13 0 16 -4.5t1 -15.5l-47 -243q-3 -13 -8.5 -16.5t-16.5 -3.5h-87q-11 0 -16 3.5t-2 16.5l29 152h-303q-20 0 -16 22l13 68q4 21 25 21h412z" />
    <glyph glyph-name="sfthyphen" unicode="&#xad;" horiz-adv-x="410" 
d="M398 383q13 0 15.5 -5t0.5 -16l-16 -82q-2 -11 -6.5 -16t-18.5 -5h-312q-20 0 -16 21l16 82q3 21 25 21h312z" />
    <glyph glyph-name="registered" unicode="&#xae;" horiz-adv-x="538" 
d="M273 277q-48 0 -89.5 17.5t-73 48.5t-49.5 72t-18 89t18 89t49.5 72t73 48.5t89.5 17.5q49 0 91 -17.5t73 -48.5t48.5 -72t17.5 -89t-18 -89t-49 -72t-73 -48.5t-90 -17.5zM273 676q-36 0 -67.5 -13.5t-55 -37t-37 -54.5t-13.5 -67t13.5 -67t37 -54.5t55 -37t67.5 -13.5
t67 13.5t54.5 37t37 54.5t13.5 67t-13.5 67t-37 54.5t-54.5 37t-67 13.5zM376 390q2 -4 0.5 -7t-6.5 -3h-49q-12 0 -16 9l-37 84h-20v-83q0 -3 -1 -6.5t-8 -3.5h-48q-7 0 -8.5 2.5t-1.5 7.5v233q0 11 11 11h94q15 0 30.5 -4.5t27.5 -14t19.5 -24.5t7.5 -36q0 -20 -8 -39
t-31 -30zM302 554q0 13 -8 18.5t-19 5.5h-27v-50h27q9 0 18 4.5t9 21.5z" />
    <glyph glyph-name="macron" unicode="&#xaf;" horiz-adv-x="537" 
d="M184 566q-21 0 -17 22l14 72q4 21 26 21h304q12 0 15 -4.5t1 -15.5l-15 -73q-2 -11 -6.5 -16.5t-16.5 -5.5h-305z" />
    <glyph glyph-name="degree" unicode="&#xb0;" horiz-adv-x="395" 
d="M201 362q-39 0 -69.5 12t-51.5 33t-32.5 49.5t-11.5 61.5q0 31 13 59.5t35.5 50t52.5 34t64 12.5t64 -12.5t51.5 -34t34 -50t12.5 -59.5q0 -33 -12.5 -61.5t-34.5 -49.5t-51.5 -33t-63.5 -12zM199 580q-26 0 -45.5 -19t-19.5 -45t18.5 -44.5t46.5 -18.5q26 0 45 18.5
t19 44.5t-19 45t-45 19z" />
    <glyph glyph-name="plusminus" unicode="&#xb1;" horiz-adv-x="595" 
d="M407 426h140q14 0 17 -5t1 -16l-14 -72q-2 -11 -7 -16t-19 -5h-140l-27 -138q-2 -13 -7.5 -17t-15.5 -4h-93q-11 0 -15 4t-2 17l26 138h-138q-20 0 -17 21l15 72q3 21 24 21h138l25 126q4 21 25 21h92q21 0 17 -21zM53 10q-22 0 -17 21l13 67q4 21 25 21h413
q13 0 15.5 -4.5t0.5 -15.5l-13 -68q-2 -11 -7 -16t-18 -5h-412z" />
    <glyph glyph-name="twosuperior" unicode="&#xb2;" horiz-adv-x="405" 
d="M336 503q-23 -19 -44.5 -35t-49.5 -37h140q16 0 13 -16l-14 -71q-2 -7 -5.5 -12t-13.5 -5h-312q-10 0 -12.5 4.5t-1.5 12.5l10 52q2 8 6.5 16.5t15.5 16.5q3 3 17 14t34 26t42 32.5t42 32.5t34.5 26.5t18.5 14.5q22 17 31.5 31t10.5 28q1 11 -8 18t-36 7q-29 0 -60.5 -2
t-52.5 -5q-10 -1 -16 -2t-9 0.5t-4 5.5t-1 13v40q-1 11 3.5 21t29.5 18q15 6 34 9.5t38 5.5t35.5 3t25.5 1q86 0 120.5 -28.5t34.5 -77.5t-25.5 -85t-70.5 -73z" />
    <glyph glyph-name="threesuperior" unicode="&#xb3;" horiz-adv-x="405" 
d="M361 598q58 -17 58 -97q0 -48 -17.5 -82t-48.5 -55.5t-72 -31.5t-88 -10q-13 0 -30.5 1t-35 3.5t-33.5 5.5t-27 7q-22 8 -27.5 17t1.5 26l16 39q5 14 9.5 17.5t16.5 1.5q29 -5 61.5 -8t52.5 -3q15 0 30.5 2t27.5 7.5t19.5 16t7.5 28.5q0 19 -25 23l-80 15q-16 3 -21 10
t-3 19l7 34q2 8 5.5 14t13.5 12q20 11 39.5 23t39.5 24v2h-137q-17 0 -14 16l14 70q3 17 19 17h293q12 0 14 -4.5t0 -12.5l-8 -45q-2 -9 -5 -15.5t-10 -14.5q-16 -16 -40 -32t-47 -33z" />
    <glyph glyph-name="acute" unicode="&#xb4;" horiz-adv-x="534" 
d="M506 731q19 -11 0 -32l-148 -151q-6 -7 -12.5 -10.5t-14.5 1.5l-47 29q-6 4 -8 9.5t6 14.5l126 173q8 11 16.5 12.5t14.5 -2.5z" />
    <glyph glyph-name="mu" unicode="&#xb5;" horiz-adv-x="552" 
d="M470 21q-2 -10 -7.5 -15.5t-18.5 -5.5h-110q-14 0 -16.5 6.5t-0.5 14.5l4 24q-1 0 -1 1q-29 -19 -64.5 -32t-68.5 -13q-15 0 -28 3q-2 -13 -5 -27.5t-7 -34t-9.5 -47.5t-13.5 -68q-2 -7 -6.5 -14.5t-18.5 -7.5h-110q-12 0 -15 6t-1 16l124 644q2 10 7.5 16t17.5 6h111
q14 0 16.5 -7t0.5 -15l-52 -269q-8 -40 3.5 -55t42.5 -15q24 0 52 9t48 20l60 310q2 8 6.5 15t18.5 7h110q23 0 18 -22l-87 -450v0z" />
    <glyph glyph-name="mu" unicode="&#x3bc;" horiz-adv-x="552" 
d="M470 21q-2 -10 -7.5 -15.5t-18.5 -5.5h-110q-14 0 -16.5 6.5t-0.5 14.5l4 24q-1 0 -1 1q-29 -19 -64.5 -32t-68.5 -13q-15 0 -28 3q-2 -13 -5 -27.5t-7 -34t-9.5 -47.5t-13.5 -68q-2 -7 -6.5 -14.5t-18.5 -7.5h-110q-12 0 -15 6t-1 16l124 644q2 10 7.5 16t17.5 6h111
q14 0 16.5 -7t0.5 -15l-52 -269q-8 -40 3.5 -55t42.5 -15q24 0 52 9t48 20l60 310q2 8 6.5 15t18.5 7h110q23 0 18 -22l-87 -450v0z" />
    <glyph glyph-name="paragraph" unicode="&#xb6;" horiz-adv-x="565" 
d="M598 665q24 0 19 -22l-16 -81q-2 -11 -7.5 -17.5t-19.5 -6.5h-18l-121 -622q-2 -14 -8.5 -19t-18.5 -5h-70q-11 0 -16 5t-3 19l121 623h-85l-121 -623q-2 -14 -9 -19t-19 -5h-68q-13 0 -18 5t-3 19l71 365q-32 2 -54 14.5t-36 32t-20.5 45.5t-6.5 55q0 55 20 98.5
t53 74.5t76 47.5t90 16.5h288z" />
    <glyph glyph-name="periodcentered" unicode="&#xb7;" horiz-adv-x="234" 
d="M146 347q38 0 53.5 -13t15.5 -37q0 -18 -4 -36.5t-15 -33.5t-30 -24.5t-49 -9.5q-40 0 -55 15.5t-15 38.5q0 19 5 37.5t16.5 32t30.5 22t47 8.5z" />
    <glyph glyph-name="cedilla" unicode="&#xb8;" horiz-adv-x="422" 
d="M204 -127q0 17 -15.5 22t-51.5 7q-23 2 -10 24l44 83q0 1 3.5 4t8.5 3h51q4 0 4 -3t-1 -5l-32 -56q47 -2 68 -22t21 -48q0 -54 -42.5 -85.5t-117.5 -31.5q-7 0 -18 0.5t-22.5 2t-23 4t-19.5 5.5q-10 4 -6 12l15 41q3 7 14 6q14 -2 32.5 -3.5t31.5 -1.5q12 0 23.5 2
t21 6.5t15.5 13t6 20.5z" />
    <glyph glyph-name="onesuperior" unicode="&#xb9;" horiz-adv-x="389" 
d="M83 327q-9 0 -12.5 3t-1.5 13l15 71q3 16 19 16h64l41 216h-60q-13 0 -15.5 4t-0.5 12l8 41q2 10 5.5 15t15.5 10l66 27q12 5 19.5 6t20.5 1h69q19 0 16 -17l-60 -315h68q9 0 12.5 -2.5t1.5 -12.5l-15 -72q-2 -8 -5 -12t-13 -4h-258z" />
    <glyph glyph-name="ordmasculine" unicode="&#xba;" horiz-adv-x="378" 
d="M253 572q41 0 68.5 -9t44 -25t23.5 -38t7 -47q0 -12 -1 -24t-3 -23q-5 -30 -15 -60.5t-31 -56t-56 -41.5t-91 -16q-39 0 -66 9t-43 24t-23.5 35.5t-7.5 44.5q-1 15 1 31t4 31q5 25 15.5 54t31.5 54t55.5 41t86.5 16zM240 473q-27 0 -39 -20t-19 -51q-2 -10 -3 -18.5
t-1 -16.5q0 -20 8 -28t26 -8q29 0 41 19t19 52q2 11 3.5 19.5t1.5 16.5q0 35 -37 35z" />
    <glyph glyph-name="guillemotright" unicode="&#xbb;" horiz-adv-x="557" 
d="M516 221q7 -11 6 -19t-13 -20l-133 -135q-7 -6 -14 -12.5t-18 -6.5h-122q-8 0 -7.5 6.5t4.5 10.5l154 156l-96 156q-3 5 0 10.5t13 5.5h120q10 0 15.5 -6.5t10.5 -11.5zM305 221q7 -10 5.5 -18.5t-12.5 -20.5l-134 -135q-6 -6 -13.5 -12.5t-18.5 -6.5h-122q-8 0 -7.5 6.5
t4.5 10.5l154 156l-95 156q-4 5 -0.5 10.5t13.5 5.5h118q11 0 17 -6.5t11 -11.5z" />
    <glyph glyph-name="onequarter" unicode="&#xbc;" horiz-adv-x="950" 
d="M106 237q-9 0 -12.5 3t-1.5 13l15 71q3 16 19 16h64l41 216h-60q-13 0 -15.5 4t-0.5 12l8 41q2 10 5.5 15t15.5 10l66 27q12 5 19.5 6t20.5 1h69q19 0 16 -17l-60 -315h68q9 0 12.5 -2.5t1.5 -12.5l-15 -72q-2 -8 -5 -12t-13 -4h-258zM370 -11q-6 -12 -17 -12h-90
q-15 0 -7 15l409 695q7 13 18 13h90q13 0 5 -15zM820 18q-2 -9 -5.5 -13t-14.5 -4h-90q-10 0 -13 2.5t-1 13.5l15 75h-188q-8 0 -13.5 3t-3.5 14l11 55q2 6 4.5 12.5t10.5 14.5l25.5 25.5t39.5 40t46.5 47t46.5 47t39.5 40l25.5 25.5q11 12 18.5 15t19.5 3h93q9 0 11.5 -4
t0.5 -12l-44 -225h41q16 0 12 -16l-13 -68q-2 -8 -5 -12.5t-14 -4.5h-40zM749 293q-7 -7 -21.5 -21t-30 -30t-29.5 -30l-21 -21h85l20 102h-3z" />
    <glyph glyph-name="onehalf" unicode="&#xbd;" horiz-adv-x="950" 
d="M84 237q-9 0 -12.5 3t-1.5 13l15 71q3 16 19 16h64l41 216h-60q-13 0 -15.5 4t-0.5 12l8 41q2 10 5.5 15t15.5 10l66 27q12 5 19.5 6t20.5 1h69q19 0 16 -17l-60 -315h68q9 0 12.5 -2.5t1.5 -12.5l-15 -72q-2 -8 -5 -12t-13 -4h-258zM341 -11q-6 -12 -17 -12h-90
q-15 0 -7 15l409 695q7 13 18 13h90q13 0 5 -15zM834 176q-23 -19 -44.5 -35t-49.5 -37h140q16 0 13 -16l-14 -71q-2 -7 -5.5 -12t-13.5 -5h-312q-10 0 -12.5 4.5t-1.5 12.5l10 52q2 8 6.5 16.5t15.5 16.5q3 3 17 14t34 26t42 32.5t42 32.5t34.5 26.5t18.5 14.5
q22 17 31.5 31t10.5 28q1 11 -8 18t-36 7q-29 0 -60.5 -2t-52.5 -5q-10 -1 -16 -2t-9 0.5t-4 5.5t-1 13v40q-1 11 3.5 21t29.5 18q15 6 34 9.5t38 5.5t35.5 3t25.5 1q86 0 120.5 -28.5t34.5 -77.5t-25.5 -85t-70.5 -73z" />
    <glyph glyph-name="threequarters" unicode="&#xbe;" horiz-adv-x="950" 
d="M393 508q58 -17 58 -97q0 -48 -17.5 -82t-48.5 -55.5t-72 -31.5t-88 -10q-13 0 -30.5 1t-35 3.5t-33.5 5.5t-27 7q-22 8 -27.5 17t1.5 26l16 39q5 14 9.5 17.5t16.5 1.5q29 -5 61.5 -8t52.5 -3q15 0 30.5 2t27.5 7.5t19.5 16t7.5 28.5q0 19 -25 23l-80 15q-16 3 -21 10
t-3 19l7 34q2 8 5.5 14t13.5 12q20 11 39.5 23t39.5 24v2h-137q-17 0 -14 16l14 70q3 17 19 17h293q12 0 14 -4.5t0 -12.5l-8 -45q-2 -9 -5 -15.5t-10 -14.5q-16 -16 -40 -32t-47 -33zM381 -11q-6 -12 -17 -12h-90q-15 0 -7 15l409 695q7 13 18 13h90q13 0 5 -15zM842 18
q-2 -9 -5.5 -13t-14.5 -4h-90q-10 0 -13 2.5t-1 13.5l15 75h-188q-8 0 -13.5 3t-3.5 14l11 55q2 6 4.5 12.5t10.5 14.5l25.5 25.5t39.5 40t46.5 47t46.5 47t39.5 40l25.5 25.5q11 12 18.5 15t19.5 3h93q9 0 11.5 -4t0.5 -12l-44 -225h41q16 0 12 -16l-13 -68q-2 -8 -5 -12.5
t-14 -4.5h-40zM771 293q-7 -7 -21.5 -21t-30 -30t-29.5 -30l-21 -21h85l20 102h-3z" />
    <glyph glyph-name="questiondown" unicode="&#xbf;" horiz-adv-x="437" 
d="M292 351q-38 0 -52 13t-14 35q0 16 3.5 34t14 32t29 23.5t48.5 9.5q40 0 53.5 -15t13.5 -35q0 -19 -5 -36.5t-16.5 -31t-29.5 -21.5t-45 -8zM100 118q21 14 37.5 26.5t29 26.5t21 30t13.5 37q3 11 5 22.5t4 25.5q2 8 6 13.5t14 5.5h101q10 0 14 -4t4 -15v-1
q-1 -15 -2.5 -27t-3.5 -23q-7 -38 -19.5 -65t-30.5 -49.5t-42 -41.5t-54 -40q-20 -14 -32 -27t-12 -33q0 -18 16 -26t55 -8q24 0 49 1.5t48 4.5q11 2 19.5 0t6.5 -16l-6 -60q-2 -15 -5 -21t-19 -13q-41 -16 -80.5 -20t-62.5 -4q-94 0 -142 33.5t-48 99.5q0 29 10.5 54
t27.5 46t37.5 38t40.5 30z" />
    <glyph glyph-name="Agrave" unicode="&#xc0;" horiz-adv-x="617" 
d="M140 28q-8 -16 -17 -22t-23 -6h-115q-11 0 -14 4.5t5 21.5l310 610q8 14 16.5 21.5t28.5 7.5h126q21 0 26 -8t7 -22l82 -611q1 -12 -2 -18t-14 -6h-119q-17 0 -21.5 7.5t-6.5 23.5l-10 119h-199zM379 382l-8 122h-5l-57 -121l-51 -111h130zM268 898q10 10 17.5 10
t18.5 -10l150 -144q10 -8 9 -13.5t-6 -11.5l-33 -35q-7 -9 -16 -7t-17 7l-170 116q-21 15 -6 30z" />
    <glyph glyph-name="Aacute" unicode="&#xc1;" horiz-adv-x="617" 
d="M140 28q-8 -16 -17 -22t-23 -6h-115q-11 0 -14 4.5t5 21.5l310 610q8 14 16.5 21.5t28.5 7.5h126q21 0 26 -8t7 -22l82 -611q1 -12 -2 -18t-14 -6h-119q-17 0 -21.5 7.5t-6.5 23.5l-10 119h-199zM379 382l-8 122h-5l-57 -121l-51 -111h130zM601 805q10 -19 -15 -29
l-191 -77q-8 -3 -15 -3t-12 8l-22 52q-3 5 -1.5 11t12.5 13l184 107q13 7 19.5 4t9.5 -9z" />
    <glyph glyph-name="Acircumflex" unicode="&#xc2;" horiz-adv-x="617" 
d="M140 28q-8 -16 -17 -22t-23 -6h-115q-11 0 -14 4.5t5 21.5l310 610q8 14 16.5 21.5t28.5 7.5h126q21 0 26 -8t7 -22l82 -611q1 -12 -2 -18t-14 -6h-119q-17 0 -21.5 7.5t-6.5 23.5l-10 119h-199zM379 382l-8 122h-5l-57 -121l-51 -111h130zM263 689q-12 -8 -18 -9t-12 7
l-32 35q-5 8 -5.5 12.5t10.5 14.5l150 121q10 9 18 13.5t25 4.5h64q18 0 24 -3.5t12 -11.5l100 -124q7 -9 5 -14.5t-11 -13.5l-34 -30q-10 -8 -15 -6.5t-13 8.5l-113 91z" />
    <glyph glyph-name="Atilde" unicode="&#xc3;" horiz-adv-x="617" 
d="M140 28q-8 -16 -17 -22t-23 -6h-115q-11 0 -14 4.5t5 21.5l310 610q8 14 16.5 21.5t28.5 7.5h126q21 0 26 -8t7 -22l82 -611q1 -12 -2 -18t-14 -6h-119q-17 0 -21.5 7.5t-6.5 23.5l-10 119h-199zM379 382l-8 122h-5l-57 -121l-51 -111h130zM345 860q22 0 42.5 -7
t39.5 -16t36.5 -16t33.5 -7q14 0 28 7.5t28 28.5q7 8 12.5 9.5t13.5 -3.5l42 -29q7 -5 8.5 -9t-3.5 -13q-17 -31 -34.5 -50.5t-35.5 -31t-37 -15.5t-38 -4q-17 0 -36.5 8t-39 17.5t-38 17.5t-34.5 8q-19 0 -34 -9.5t-35 -32.5q-13 -16 -28 -5l-39 26q-3 2 -6 7.5t2 13.5
q33 62 71 83.5t81 21.5z" />
    <glyph glyph-name="Adieresis" unicode="&#xc4;" horiz-adv-x="617" 
d="M140 28q-8 -16 -17 -22t-23 -6h-115q-11 0 -14 4.5t5 21.5l310 610q8 14 16.5 21.5t28.5 7.5h126q21 0 26 -8t7 -22l82 -611q1 -12 -2 -18t-14 -6h-119q-17 0 -21.5 7.5t-6.5 23.5l-10 119h-199zM379 382l-8 122h-5l-57 -121l-51 -111h130zM319 837q36 0 50.5 -11.5
t14.5 -34.5q0 -18 -4 -35.5t-14.5 -30.5t-28 -21t-44.5 -8q-36 0 -50 12.5t-14 32.5t4.5 37.5t15 30.5t27.5 20.5t43 7.5zM529 837q35 0 49.5 -11t14.5 -34q0 -18 -4 -35.5t-14.5 -31t-28 -21.5t-44.5 -8q-36 0 -50 12.5t-14 32.5t4.5 37.5t15 30.5t28 20.5t43.5 7.5z" />
    <glyph glyph-name="Aring" unicode="&#xc5;" horiz-adv-x="617" 
d="M140 28q-8 -16 -17 -22t-23 -6h-115q-11 0 -14 4.5t5 21.5l310 610q8 14 16.5 21.5t28.5 7.5h126q21 0 26 -8t7 -22l82 -611q1 -12 -2 -18t-14 -6h-119q-17 0 -21.5 7.5t-6.5 23.5l-10 119h-199zM379 382l-8 122h-5l-57 -121l-51 -111h130zM400 672q-23 0 -43 7.5t-35 21
t-23.5 32.5t-8.5 43q0 34 13 60.5t34 44.5t47 27.5t52 9.5q48 0 78.5 -31t30.5 -76q0 -30 -12 -55t-32.5 -44t-46.5 -29.5t-54 -10.5zM428 842q-23 0 -38.5 -17t-15.5 -40q0 -17 9.5 -27t26.5 -10q20 0 37.5 16.5t17.5 39.5q0 17 -10 27.5t-27 10.5z" />
    <glyph glyph-name="AE" unicode="&#xc6;" horiz-adv-x="905" 
d="M413 150h-190l-82 -127q-10 -13 -19.5 -18t-23.5 -5h-124q-24 0 -6 26l402 613q9 15 18 20.5t31 5.5h481q22 0 19 -22l-14 -94q-1 -9 -6 -15t-19 -6h-252l-16 -116h223q22 0 19 -22l-13 -94q-3 -20 -25 -20h-224l-19 -140h260q22 0 19 -22l-13 -94q-2 -9 -6.5 -14.5
t-17.5 -5.5h-401q-14 0 -17.5 6t-1.5 15zM464 526l-158 -250h124l36 250h-2z" />
    <glyph glyph-name="Ccedilla" unicode="&#xc7;" horiz-adv-x="592" 
d="M427 672q24 0 49 -2t50 -5.5t47 -9.5t40 -15q14 -7 20.5 -16t-1.5 -29l-25 -59q-5 -14 -12.5 -18t-25.5 -2q-42 4 -77.5 7.5t-67.5 3.5q-41 0 -70 -15t-49 -41t-32.5 -61.5t-19.5 -76.5q-11 -51 -9 -90q2 -54 27 -81t83 -27q20 0 37.5 0.5t34.5 2t36.5 3t43.5 4.5
q19 2 26 -1.5t9 -18.5l2 -55q2 -19 -7.5 -29t-26.5 -17q-37 -15 -84 -23t-91 -10l-22 -39q47 -2 68 -22t21 -48q0 -54 -42.5 -85.5t-117.5 -31.5q-7 0 -18 0.5t-22.5 2t-22.5 4t-19 5.5q-11 4 -7 12l15 41q3 7 13 6q15 -2 33.5 -3.5t31.5 -1.5q12 0 23.5 2t21 6.5t15.5 13
t6 20.5q0 17 -15.5 22t-51.5 7q-23 2 -9 24l35 66q-59 6 -97.5 26.5t-61 53t-31.5 73.5t-8 87q0 24 2.5 48.5t6.5 49.5q10 64 31 125.5t61 109.5t101.5 77.5t152.5 29.5z" />
    <glyph glyph-name="Egrave" unicode="&#xc8;" horiz-adv-x="556" 
d="M151 642q2 10 8 16.5t19 6.5h394q21 0 16 -22l-18 -94q-2 -9 -7 -15t-18 -6h-255l-22 -116h222q22 0 17 -22l-18 -94q-2 -9 -7 -14.5t-18 -5.5h-222l-27 -140h262q20 0 17 -22l-18 -94q-2 -9 -7 -14.5t-18 -5.5h-402q-13 0 -17 6t-2 16zM266 898q10 10 17.5 10t18.5 -10
l150 -144q10 -8 9 -13.5t-6 -11.5l-33 -35q-7 -9 -16 -7t-17 7l-170 116q-21 15 -6 30z" />
    <glyph glyph-name="Eacute" unicode="&#xc9;" horiz-adv-x="556" 
d="M151 642q2 10 8 16.5t19 6.5h394q21 0 16 -22l-18 -94q-2 -9 -7 -15t-18 -6h-255l-22 -116h222q22 0 17 -22l-18 -94q-2 -9 -7 -14.5t-18 -5.5h-222l-27 -140h262q20 0 17 -22l-18 -94q-2 -9 -7 -14.5t-18 -5.5h-402q-13 0 -17 6t-2 16zM553 805q10 -19 -15 -29l-191 -77
q-8 -3 -15 -3t-12 8l-22 52q-3 5 -1.5 11t12.5 13l184 107q13 7 19.5 4t9.5 -9z" />
    <glyph glyph-name="Ecircumflex" unicode="&#xca;" horiz-adv-x="556" 
d="M151 642q2 10 8 16.5t19 6.5h394q21 0 16 -22l-18 -94q-2 -9 -7 -15t-18 -6h-255l-22 -116h222q22 0 17 -22l-18 -94q-2 -9 -7 -14.5t-18 -5.5h-222l-27 -140h262q20 0 17 -22l-18 -94q-2 -9 -7 -14.5t-18 -5.5h-402q-13 0 -17 6t-2 16zM248 689q-12 -8 -18 -9t-12 7
l-32 35q-5 8 -5.5 12.5t10.5 14.5l150 121q10 9 18 13.5t25 4.5h64q18 0 24 -3.5t12 -11.5l100 -124q7 -9 5 -14.5t-11 -13.5l-34 -30q-10 -8 -15 -6.5t-13 8.5l-113 91z" />
    <glyph glyph-name="Edieresis" unicode="&#xcb;" horiz-adv-x="556" 
d="M151 642q2 10 8 16.5t19 6.5h394q21 0 16 -22l-18 -94q-2 -9 -7 -15t-18 -6h-255l-22 -116h222q22 0 17 -22l-18 -94q-2 -9 -7 -14.5t-18 -5.5h-222l-27 -140h262q20 0 17 -22l-18 -94q-2 -9 -7 -14.5t-18 -5.5h-402q-13 0 -17 6t-2 16zM303 837q36 0 50.5 -11.5
t14.5 -34.5q0 -18 -4 -35.5t-14.5 -30.5t-28 -21t-44.5 -8q-36 0 -50 12.5t-14 32.5t4.5 37.5t15 30.5t27.5 20.5t43 7.5zM513 837q35 0 49.5 -11t14.5 -34q0 -18 -4 -35.5t-14.5 -31t-28 -21.5t-44.5 -8q-36 0 -50 12.5t-14 32.5t4.5 37.5t15 30.5t28 20.5t43.5 7.5z" />
    <glyph glyph-name="Igrave" unicode="&#xcc;" horiz-adv-x="304" 
d="M155 642q2 10 8 16.5t19 6.5h118q14 0 16 -7.5t0 -15.5l-120 -620q-2 -7 -6.5 -14.5t-18.5 -7.5h-118q-13 0 -17 6t-2 16zM113 898q10 10 17.5 10t18.5 -10l150 -144q10 -8 9 -13.5t-6 -11.5l-33 -35q-7 -9 -16 -7t-17 7l-170 116q-21 15 -6 30z" />
    <glyph glyph-name="Iacute" unicode="&#xcd;" horiz-adv-x="304" 
d="M155 642q2 10 8 16.5t19 6.5h118q14 0 16 -7.5t0 -15.5l-120 -620q-2 -7 -6.5 -14.5t-18.5 -7.5h-118q-13 0 -17 6t-2 16zM450 805q10 -19 -15 -29l-191 -77q-8 -3 -15 -3t-12 8l-22 52q-3 5 -1.5 11t12.5 13l184 107q13 7 19.5 4t9.5 -9z" />
    <glyph glyph-name="Icircumflex" unicode="&#xce;" horiz-adv-x="304" 
d="M155 642q2 10 8 16.5t19 6.5h118q14 0 16 -7.5t0 -15.5l-120 -620q-2 -7 -6.5 -14.5t-18.5 -7.5h-118q-13 0 -17 6t-2 16zM121 689q-12 -8 -18 -9t-12 7l-32 35q-5 8 -5.5 12.5t10.5 14.5l150 121q10 9 18 13.5t25 4.5h64q18 0 24 -3.5t12 -11.5l100 -124q7 -9 5 -14.5
t-11 -13.5l-34 -30q-10 -8 -15 -6.5t-13 8.5l-113 91z" />
    <glyph glyph-name="Idieresis" unicode="&#xcf;" horiz-adv-x="304" 
d="M155 642q2 10 8 16.5t19 6.5h118q14 0 16 -7.5t0 -15.5l-120 -620q-2 -7 -6.5 -14.5t-18.5 -7.5h-118q-13 0 -17 6t-2 16zM171 837q36 0 50.5 -11.5t14.5 -34.5q0 -18 -4 -35.5t-14.5 -30.5t-28 -21t-44.5 -8q-36 0 -50 12.5t-14 32.5t4.5 37.5t15 30.5t27.5 20.5t43 7.5
zM381 837q35 0 49.5 -11t14.5 -34q0 -18 -4 -35.5t-14.5 -31t-28 -21.5t-44.5 -8q-36 0 -50 12.5t-14 32.5t4.5 37.5t15 30.5t28 20.5t43.5 7.5z" />
    <glyph glyph-name="Eth" unicode="&#xd0;" horiz-adv-x="657" 
d="M387 663q69 0 115 -17t74.5 -48t40.5 -74t12 -95q0 -23 -2 -47.5t-6 -48.5q-11 -71 -32 -132t-60 -105.5t-99 -70t-149 -25.5h-231q-20 0 -20 16v5q0 1 1 1q13 68 25.5 134.5t26.5 134.5h-33q-18 0 -18 11q0 2 0.5 3t0.5 3q3 15 6 29.5t7 28.5q4 18 24 18h31
q12 65 24.5 129t25.5 129q2 9 8 15t19 6h209zM261 384h108q17 0 17 -11q0 -4 -1 -7l-13 -58q-2 -9 -7 -13t-16 -4h-106l-29 -156h64q75 0 119 45.5t59 145.5q3 19 5.5 38.5t2.5 38.5q0 27 -5.5 49.5t-18.5 39.5t-34.5 26.5t-52.5 9.5h-63z" />
    <glyph glyph-name="Ntilde" unicode="&#xd1;" horiz-adv-x="667" 
d="M260 387h-3l-70 -365q-2 -8 -6.5 -15t-18.5 -7h-114q-19 0 -19 15q0 2 0.5 3.5t0.5 3.5l120 620q2 9 8 15.5t19 6.5h83q23 0 29.5 -7.5t12.5 -20.5l154 -354h4q17 91 34 180t34 179q2 8 6.5 15.5t18.5 7.5h114q19 0 19 -15q0 -5 -1 -8q-31 -155 -61 -309.5t-60 -310.5
q-2 -9 -7.5 -15t-18.5 -6h-83q-17 0 -25.5 6.5t-13.5 17.5l-101 232zM363 851q22 0 42.5 -7t39.5 -16t36.5 -16t33.5 -7q14 0 28 7.5t28 28.5q7 8 12.5 9.5t13.5 -3.5l42 -29q7 -5 8.5 -9t-3.5 -13q-17 -31 -34.5 -50.5t-35.5 -31t-37 -15.5t-38 -4q-17 0 -36.5 8t-39 17.5
t-38 17.5t-34.5 8q-19 0 -34 -9.5t-35 -32.5q-13 -16 -28 -5l-39 26q-3 2 -6 7.5t2 13.5q33 62 71 83.5t81 21.5z" />
    <glyph glyph-name="Ograve" unicode="&#xd2;" horiz-adv-x="687" 
d="M418 673q74 0 122 -20t76 -54t38 -79.5t9 -95.5q0 -21 -2.5 -42t-5.5 -41q-9 -63 -28.5 -125.5t-58 -112.5t-101.5 -81t-159 -31q-70 0 -116 18.5t-73 50t-37.5 73.5t-10.5 90q0 30 3 59.5t8 58.5q8 50 27 108t57 108t99 83t153 33zM402 533q-34 0 -58.5 -14t-42 -40.5
t-29.5 -64t-21 -84.5q-5 -24 -7.5 -46t-3.5 -42q-2 -56 19 -83.5t70 -27.5q37 0 62.5 13.5t43.5 39.5t30.5 62.5t21.5 83.5q5 27 8 50.5t3 44.5q2 57 -21 82.5t-75 25.5zM317 901q10 10 17.5 10t18.5 -10l150 -144q10 -8 9 -13.5t-6 -11.5l-33 -35q-7 -9 -16 -7t-17 7
l-170 116q-21 15 -6 30z" />
    <glyph glyph-name="Oacute" unicode="&#xd3;" horiz-adv-x="687" 
d="M418 673q74 0 122 -20t76 -54t38 -79.5t9 -95.5q0 -21 -2.5 -42t-5.5 -41q-9 -63 -28.5 -125.5t-58 -112.5t-101.5 -81t-159 -31q-70 0 -116 18.5t-73 50t-37.5 73.5t-10.5 90q0 30 3 59.5t8 58.5q8 50 27 108t57 108t99 83t153 33zM402 533q-34 0 -58.5 -14t-42 -40.5
t-29.5 -64t-21 -84.5q-5 -24 -7.5 -46t-3.5 -42q-2 -56 19 -83.5t70 -27.5q37 0 62.5 13.5t43.5 39.5t30.5 62.5t21.5 83.5q5 27 8 50.5t3 44.5q2 57 -21 82.5t-75 25.5zM638 805q10 -19 -15 -29l-191 -77q-8 -3 -15 -3t-12 8l-22 52q-3 5 -1.5 11t12.5 13l184 107
q13 7 19.5 4t9.5 -9z" />
    <glyph glyph-name="Ocircumflex" unicode="&#xd4;" horiz-adv-x="687" 
d="M418 673q74 0 122 -20t76 -54t38 -79.5t9 -95.5q0 -21 -2.5 -42t-5.5 -41q-9 -63 -28.5 -125.5t-58 -112.5t-101.5 -81t-159 -31q-70 0 -116 18.5t-73 50t-37.5 73.5t-10.5 90q0 30 3 59.5t8 58.5q8 50 27 108t57 108t99 83t153 33zM402 533q-34 0 -58.5 -14t-42 -40.5
t-29.5 -64t-21 -84.5q-5 -24 -7.5 -46t-3.5 -42q-2 -56 19 -83.5t70 -27.5q37 0 62.5 13.5t43.5 39.5t30.5 62.5t21.5 83.5q5 27 8 50.5t3 44.5q2 57 -21 82.5t-75 25.5zM313 689q-12 -8 -18 -9t-12 7l-32 35q-5 8 -5.5 12.5t10.5 14.5l150 121q10 9 18 13.5t25 4.5h64
q18 0 24 -3.5t12 -11.5l100 -124q7 -9 5 -14.5t-11 -13.5l-34 -30q-10 -8 -15 -6.5t-13 8.5l-113 91z" />
    <glyph glyph-name="Otilde" unicode="&#xd5;" horiz-adv-x="687" 
d="M418 673q74 0 122 -20t76 -54t38 -79.5t9 -95.5q0 -21 -2.5 -42t-5.5 -41q-9 -63 -28.5 -125.5t-58 -112.5t-101.5 -81t-159 -31q-70 0 -116 18.5t-73 50t-37.5 73.5t-10.5 90q0 30 3 59.5t8 58.5q8 50 27 108t57 108t99 83t153 33zM402 533q-34 0 -58.5 -14t-42 -40.5
t-29.5 -64t-21 -84.5q-5 -24 -7.5 -46t-3.5 -42q-2 -56 19 -83.5t70 -27.5q37 0 62.5 13.5t43.5 39.5t30.5 62.5t21.5 83.5q5 27 8 50.5t3 44.5q2 57 -21 82.5t-75 25.5zM386 855q22 0 42.5 -7t39.5 -16t36.5 -16t33.5 -7q14 0 28 7.5t28 28.5q7 8 12.5 9.5t13.5 -3.5
l42 -29q7 -5 8.5 -9t-3.5 -13q-17 -31 -34.5 -50.5t-35.5 -31t-37 -15.5t-38 -4q-17 0 -36.5 8t-39 17.5t-38 17.5t-34.5 8q-19 0 -34 -9.5t-35 -32.5q-13 -16 -28 -5l-39 26q-3 2 -6 7.5t2 13.5q33 62 71 83.5t81 21.5z" />
    <glyph glyph-name="Odieresis" unicode="&#xd6;" horiz-adv-x="687" 
d="M418 673q74 0 122 -20t76 -54t38 -79.5t9 -95.5q0 -21 -2.5 -42t-5.5 -41q-9 -63 -28.5 -125.5t-58 -112.5t-101.5 -81t-159 -31q-70 0 -116 18.5t-73 50t-37.5 73.5t-10.5 90q0 30 3 59.5t8 58.5q8 50 27 108t57 108t99 83t153 33zM402 533q-34 0 -58.5 -14t-42 -40.5
t-29.5 -64t-21 -84.5q-5 -24 -7.5 -46t-3.5 -42q-2 -56 19 -83.5t70 -27.5q37 0 62.5 13.5t43.5 39.5t30.5 62.5t21.5 83.5q5 27 8 50.5t3 44.5q2 57 -21 82.5t-75 25.5zM360 837q36 0 50.5 -11.5t14.5 -34.5q0 -18 -4 -35.5t-14.5 -30.5t-28 -21t-44.5 -8q-36 0 -50 12.5
t-14 32.5t4.5 37.5t15 30.5t27.5 20.5t43 7.5zM570 837q35 0 49.5 -11t14.5 -34q0 -18 -4 -35.5t-14.5 -31t-28 -21.5t-44.5 -8q-36 0 -50 12.5t-14 32.5t4.5 37.5t15 30.5t28 20.5t43.5 7.5z" />
    <glyph glyph-name="multiply" unicode="&#xd7;" horiz-adv-x="595" 
d="M329 407l129 109q18 15 31 0l52 -65q11 -14 -6 -30l-130 -109l88 -108q12 -15 -7 -31l-65 -55q-18 -15 -29 1l-88 110l-132 -112q-11 -9 -17 -8.5t-11 8.5l-54 65q-7 8 -6 14t11 15l133 112l-89 111q-7 9 -4.5 15t10.5 13l65 55q10 8 16 9t14 -8z" />
    <glyph glyph-name="Oslash" unicode="&#xd8;" horiz-adv-x="687" 
d="M418 673q65 0 109.5 -15.5t73.5 -42.5l35 38q10 10 14.5 12t12.5 -5l23 -20q8 -8 6.5 -12.5t-10.5 -14.5l-45 -48q16 -30 21.5 -66t4.5 -75q0 -21 -2.5 -42t-5.5 -41q-9 -63 -28.5 -125.5t-58 -112.5t-101.5 -81t-159 -31q-57 0 -97 11.5t-68 33.5l-35 -38q-8 -8 -14 -11
t-14 5l-21 20q-8 7 -6 13t10 14l40 43q-17 29 -24.5 65t-7.5 76q0 30 3 59.5t8 58.5q8 50 27 108t57 108t99 83t153 33zM402 533q-34 0 -58.5 -14t-42 -40.5t-29.5 -64t-21 -84.5q-5 -24 -7.5 -46t-3.5 -42v-14l246 264q-21 41 -84 41zM487 330q5 24 7.5 45t3.5 40
l-239 -256q21 -28 70 -28q37 0 62.5 13.5t43.5 39.5t30.5 62.5t21.5 83.5z" />
    <glyph glyph-name="Ugrave" unicode="&#xd9;" horiz-adv-x="653" 
d="M311 132q101 0 125 119l75 391q2 10 8 16.5t19 6.5h117q14 0 16.5 -7.5t0.5 -15.5l-77 -394q-11 -60 -34 -107.5t-59 -81t-86.5 -51t-116.5 -17.5q-65 0 -113 18t-76.5 52t-38 81t2.5 106l77 394q2 10 7.5 16.5t19.5 6.5h117q14 0 16 -7.5t0 -15.5l-76 -391
q-23 -119 76 -119zM295 898q10 10 17.5 10t18.5 -10l150 -144q10 -8 9 -13.5t-6 -11.5l-33 -35q-7 -9 -16 -7t-17 7l-170 116q-21 15 -6 30z" />
    <glyph glyph-name="Uacute" unicode="&#xda;" horiz-adv-x="653" 
d="M311 132q101 0 125 119l75 391q2 10 8 16.5t19 6.5h117q14 0 16.5 -7.5t0.5 -15.5l-77 -394q-11 -60 -34 -107.5t-59 -81t-86.5 -51t-116.5 -17.5q-65 0 -113 18t-76.5 52t-38 81t2.5 106l77 394q2 10 7.5 16.5t19.5 6.5h117q14 0 16 -7.5t0 -15.5l-76 -391
q-23 -119 76 -119zM608 805q10 -19 -15 -29l-191 -77q-8 -3 -15 -3t-12 8l-22 52q-3 5 -1.5 11t12.5 13l184 107q13 7 19.5 4t9.5 -9z" />
    <glyph glyph-name="Ucircumflex" unicode="&#xdb;" horiz-adv-x="653" 
d="M311 132q101 0 125 119l75 391q2 10 8 16.5t19 6.5h117q14 0 16.5 -7.5t0.5 -15.5l-77 -394q-11 -60 -34 -107.5t-59 -81t-86.5 -51t-116.5 -17.5q-65 0 -113 18t-76.5 52t-38 81t2.5 106l77 394q2 10 7.5 16.5t19.5 6.5h117q14 0 16 -7.5t0 -15.5l-76 -391
q-23 -119 76 -119zM295 689q-12 -8 -18 -9t-12 7l-32 35q-5 8 -5.5 12.5t10.5 14.5l150 121q10 9 18 13.5t25 4.5h64q18 0 24 -3.5t12 -11.5l100 -124q7 -9 5 -14.5t-11 -13.5l-34 -30q-10 -8 -15 -6.5t-13 8.5l-113 91z" />
    <glyph glyph-name="Udieresis" unicode="&#xdc;" horiz-adv-x="653" 
d="M311 132q101 0 125 119l75 391q2 10 8 16.5t19 6.5h117q14 0 16.5 -7.5t0.5 -15.5l-77 -394q-11 -60 -34 -107.5t-59 -81t-86.5 -51t-116.5 -17.5q-65 0 -113 18t-76.5 52t-38 81t2.5 106l77 394q2 10 7.5 16.5t19.5 6.5h117q14 0 16 -7.5t0 -15.5l-76 -391
q-23 -119 76 -119zM340 837q36 0 50.5 -11.5t14.5 -34.5q0 -18 -4 -35.5t-14.5 -30.5t-28 -21t-44.5 -8q-36 0 -50 12.5t-14 32.5t4.5 37.5t15 30.5t27.5 20.5t43 7.5zM550 837q35 0 49.5 -11t14.5 -34q0 -18 -4 -35.5t-14.5 -31t-28 -21.5t-44.5 -8q-36 0 -50 12.5
t-14 32.5t4.5 37.5t15 30.5t28 20.5t43.5 7.5z" />
    <glyph glyph-name="Yacute" unicode="&#xdd;" horiz-adv-x="630" 
d="M233 241l-137 399q-3 10 1.5 17.5t15.5 7.5h111q17 0 23 -5t11 -19l40 -129l36 -124h6l85 125l85 120q11 15 20 23.5t26 8.5h133q12 0 13 -7t-5 -15l-303 -402l-42 -219q-1 -7 -6 -14.5t-19 -7.5h-118q-23 0 -18 22zM579 805q10 -19 -15 -29l-191 -77q-8 -3 -15 -3t-12 8
l-22 52q-3 5 -1.5 11t12.5 13l184 107q13 7 19.5 4t9.5 -9z" />
    <glyph glyph-name="Thorn" unicode="&#xde;" horiz-adv-x="570" 
d="M190 22q-2 -7 -6.5 -14.5t-18.5 -7.5h-118q-14 0 -17.5 6t-1.5 16l121 621q2 10 7.5 16t18.5 6h119q14 0 16 -7.5t0 -14.5l-18 -90h90q86 0 138.5 -45.5t52.5 -139.5q0 -41 -16 -83t-48.5 -76t-83 -55.5t-119.5 -21.5h-95zM237 264h72q19 0 36.5 6t31 18t21.5 30t8 42
q0 31 -20 44.5t-53 13.5l-66 -1z" />
    <glyph glyph-name="germandbls" unicode="&#xdf;" horiz-adv-x="550" 
d="M164 21q-1 -8 -6 -15t-19 -7h-113q-13 0 -16 6t-1 15l91 467q23 117 85 172t159 55q40 0 74 -10t59.5 -29t40 -47t14.5 -64q0 -22 -4.5 -44.5t-14.5 -44.5t-26 -42t-39 -36q38 -15 54.5 -48.5t16.5 -73.5q0 -59 -14 -111.5t-41.5 -92t-70 -62.5t-99.5 -23q-6 0 -14.5 0.5
t-18.5 1.5t-18.5 2.5t-14.5 3.5q-12 3 -14 10.5t1 18.5l18 77q3 11 7.5 14t15.5 5q50 5 74 41t27 84q3 38 -8 60t-51 28q-15 2 -18.5 7t-1.5 13l10 51q2 12 7 16.5t13 7.5q32 11 54 38.5t22 65.5q0 23 -13.5 37.5t-38.5 14.5q-30 0 -48 -22t-25 -58z" />
    <glyph glyph-name="agrave" unicode="&#xe0;" horiz-adv-x="561" 
d="M465 22q-1 -8 -6 -15t-19 -7h-113q-13 0 -15.5 5.5t-0.5 15.5l5 25l-1 1q-43 -28 -79.5 -41.5t-72.5 -13.5q-74 0 -101.5 38.5t-27.5 103.5q0 24 3.5 50.5t8.5 55.5q11 58 27.5 105.5t42.5 81t64.5 52t94.5 18.5q26 0 60 -9t62 -25l4 16q2 10 7 13t15 3h111q14 0 16.5 -6
t0.5 -17zM298 356q-20 0 -35 -6t-26 -19t-18.5 -34t-13.5 -51q-8 -40 -8 -61q0 -32 10.5 -42t33.5 -10q22 0 50 10.5t47 18.5l35 180q-42 14 -75 14zM267 779q12 7 19.5 5t15.5 -14l112 -185q7 -10 4.5 -15.5t-8.5 -9.5l-41 -26q-10 -7 -16.5 -6.5t-12.5 7.5l-142 171
q-17 21 2 32z" />
    <glyph glyph-name="aacute" unicode="&#xe1;" horiz-adv-x="561" 
d="M465 22q-1 -8 -6 -15t-19 -7h-113q-13 0 -15.5 5.5t-0.5 15.5l5 25l-1 1q-43 -28 -79.5 -41.5t-72.5 -13.5q-74 0 -101.5 38.5t-27.5 103.5q0 24 3.5 50.5t8.5 55.5q11 58 27.5 105.5t42.5 81t64.5 52t94.5 18.5q26 0 60 -9t62 -25l4 16q2 10 7 13t15 3h111q14 0 16.5 -6
t0.5 -17zM298 356q-20 0 -35 -6t-26 -19t-18.5 -34t-13.5 -51q-8 -40 -8 -61q0 -32 10.5 -42t33.5 -10q22 0 50 10.5t47 18.5l35 180q-42 14 -75 14zM489 731q19 -11 0 -32l-148 -151q-6 -7 -12.5 -10.5t-14.5 1.5l-47 29q-6 4 -8 9.5t6 14.5l126 173q8 11 16.5 12.5
t14.5 -2.5z" />
    <glyph glyph-name="acircumflex" unicode="&#xe2;" horiz-adv-x="561" 
d="M465 22q-1 -8 -6 -15t-19 -7h-113q-13 0 -15.5 5.5t-0.5 15.5l5 25l-1 1q-43 -28 -79.5 -41.5t-72.5 -13.5q-74 0 -101.5 38.5t-27.5 103.5q0 24 3.5 50.5t8.5 55.5q11 58 27.5 105.5t42.5 81t64.5 52t94.5 18.5q26 0 60 -9t62 -25l4 16q2 10 7 13t15 3h111q14 0 16.5 -6
t0.5 -17zM213 529q-11 -7 -17 -8t-13 7l-34 34q-6 8 -6 12.5t10 14.5l149 135q10 8 18 13t26 5h64q19 0 25 -3.5t11 -12.5l97 -139q7 -10 5 -15t-10 -12l-39 -32q-9 -8 -14.5 -7.5t-13.5 8.5l-111 106zM298 356q-20 0 -35 -6t-26 -19t-18.5 -34t-13.5 -51q-8 -40 -8 -61
q0 -32 10.5 -42t33.5 -10q22 0 50 10.5t47 18.5l35 180q-42 14 -75 14z" />
    <glyph glyph-name="atilde" unicode="&#xe3;" horiz-adv-x="561" 
d="M465 22q-1 -8 -6 -15t-19 -7h-113q-13 0 -15.5 5.5t-0.5 15.5l5 25l-1 1q-43 -28 -79.5 -41.5t-72.5 -13.5q-74 0 -101.5 38.5t-27.5 103.5q0 24 3.5 50.5t8.5 55.5q11 58 27.5 105.5t42.5 81t64.5 52t94.5 18.5q26 0 60 -9t62 -25l4 16q2 10 7 13t15 3h111q14 0 16.5 -6
t0.5 -17zM290 705q22 0 42.5 -7t39.5 -16t36.5 -16t33.5 -7q14 0 28 7.5t28 28.5q7 8 12.5 9.5t13.5 -3.5l42 -29q7 -5 8.5 -9t-3.5 -13q-17 -31 -34.5 -50.5t-35.5 -31t-37 -15.5t-38 -4q-17 0 -36.5 8t-39 17.5t-38 17.5t-34.5 8q-19 0 -34 -9.5t-35 -32.5q-13 -16 -28 -5
l-39 26q-3 2 -6 7.5t2 13.5q33 62 71 83.5t81 21.5zM298 356q-20 0 -35 -6t-26 -19t-18.5 -34t-13.5 -51q-8 -40 -8 -61q0 -32 10.5 -42t33.5 -10q22 0 50 10.5t47 18.5l35 180q-42 14 -75 14z" />
    <glyph glyph-name="adieresis" unicode="&#xe4;" horiz-adv-x="561" 
d="M465 22q-1 -8 -6 -15t-19 -7h-113q-13 0 -15.5 5.5t-0.5 15.5l5 25l-1 1q-43 -28 -79.5 -41.5t-72.5 -13.5q-74 0 -101.5 38.5t-27.5 103.5q0 24 3.5 50.5t8.5 55.5q11 58 27.5 105.5t42.5 81t64.5 52t94.5 18.5q26 0 60 -9t62 -25l4 16q2 10 7 13t15 3h111q14 0 16.5 -6
t0.5 -17zM298 356q-20 0 -35 -6t-26 -19t-18.5 -34t-13.5 -51q-8 -40 -8 -61q0 -32 10.5 -42t33.5 -10q22 0 50 10.5t47 18.5l35 180q-42 14 -75 14zM273 686q35 0 50 -11t15 -33q0 -18 -4.5 -35.5t-15 -31t-28.5 -22t-45 -8.5q-36 0 -49 13t-13 33t4.5 37.5t15 30t27.5 20
t43 7.5zM482 686q35 0 50 -11t15 -33q0 -18 -4.5 -35.5t-15 -31t-28.5 -22t-45 -8.5q-35 0 -48.5 13t-13.5 33q0 40 19.5 67.5t70.5 27.5z" />
    <glyph glyph-name="aring" unicode="&#xe5;" horiz-adv-x="561" 
d="M465 22q-1 -8 -6 -15t-19 -7h-113q-13 0 -15.5 5.5t-0.5 15.5l5 25l-1 1q-43 -28 -79.5 -41.5t-72.5 -13.5q-74 0 -101.5 38.5t-27.5 103.5q0 24 3.5 50.5t8.5 55.5q11 58 27.5 105.5t42.5 81t64.5 52t94.5 18.5q26 0 60 -9t62 -25l4 16q2 10 7 13t15 3h111q14 0 16.5 -6
t0.5 -17zM344 530q-23 0 -43 7.5t-35 21t-23.5 32.5t-8.5 43q0 34 13 60.5t34 44.5t47 27.5t52 9.5q48 0 78.5 -31t30.5 -76q0 -30 -12 -55t-32.5 -44t-46.5 -29.5t-54 -10.5zM298 356q-20 0 -35 -6t-26 -19t-18.5 -34t-13.5 -51q-8 -40 -8 -61q0 -32 10.5 -42t33.5 -10
q22 0 50 10.5t47 18.5l35 180q-42 14 -75 14zM372 700q-23 0 -38.5 -17t-15.5 -40q0 -17 9.5 -27t26.5 -10q20 0 37.5 16.5t17.5 39.5q0 17 -10 27.5t-27 10.5z" />
    <glyph glyph-name="ae" unicode="&#xe6;" horiz-adv-x="836" 
d="M481 460q27 19 67 29.5t87 10.5q38 0 71.5 -8.5t58 -25t38.5 -41.5t14 -58q0 -53 -25.5 -86.5t-65 -53.5t-87.5 -28.5t-94 -10.5h-19t-19 -1q-2 -7 -4 -16.5t-2 -15.5q0 -26 19.5 -32.5t48.5 -7.5q35 0 69 1.5t74 6.5q15 2 25 -0.5t10 -21.5v-42q0 -20 -6.5 -28.5
t-27.5 -16.5q-17 -6 -39 -10.5t-46 -7t-48.5 -4t-45.5 -1.5q-58 0 -101 16.5t-66 55.5q-56 -38 -110 -54.5t-111 -16.5q-37 0 -61 8.5t-37.5 23.5t-18.5 34.5t-5 42.5q0 52 17.5 90.5t48 63.5t73.5 37t94 12q26 0 52 -1.5t54 -3.5q2 11 4.5 20.5t2.5 20.5q0 19 -16 28t-62 9
q-10 0 -26 -0.5t-34.5 -2l-37 -3t-33.5 -3.5q-14 -2 -24.5 -1t-10.5 18q0 14 -0.5 27t-0.5 27q0 12 7 21.5t33 17.5q18 6 41.5 11t47.5 8t47 4.5t41 1.5q54 0 87.5 -10t51.5 -33zM267 207q-82 0 -82 -67q1 -18 10.5 -25t30.5 -7q10 0 24.5 3t30 7.5t30 10t26.5 11.5
q1 16 2 31.5t4 32.5q-42 3 -76 3zM656 349q0 14 -11.5 23t-33.5 9q-20 0 -34.5 -7.5t-25 -20t-17.5 -30t-12 -36.5h10.5t10.5 1q20 1 40.5 4.5t36.5 10.5t26 18t10 28z" />
    <glyph glyph-name="ccedilla" unicode="&#xe7;" horiz-adv-x="477" 
d="M214 -127q0 17 -15.5 22t-51.5 7q-23 2 -10 24l37 70q-40 7 -66 23t-41 38.5t-21 50t-6 57.5q0 21 2.5 48t7.5 50q9 49 25 92.5t46 76.5t78 52.5t122 19.5q36 0 78 -6t71 -20q12 -5 16 -14t-3 -24l-19 -62q-3 -8 -6 -12.5t-7 -6t-11 -1t-17 1.5q-30 3 -53.5 5t-46.5 2
q-50 0 -77 -27t-38 -88q-2 -17 -3.5 -30.5t-1.5 -24.5q0 -38 18.5 -54t57.5 -16q21 0 52 2t64 6q16 2 23 0.5t7 -18.5v-57q0 -18 -5.5 -27t-30.5 -19q-31 -11 -73.5 -16.5t-78.5 -6.5l-22 -39q47 -2 68 -22t21 -48q0 -54 -42.5 -85.5t-117.5 -31.5q-7 0 -18 0.5t-22.5 2
t-23 4t-19.5 5.5q-10 4 -6 12l15 41q3 7 14 6q14 -2 32.5 -3.5t31.5 -1.5q12 0 23.5 2t21 6.5t15.5 13t6 20.5z" />
    <glyph glyph-name="egrave" unicode="&#xe8;" horiz-adv-x="530" 
d="M34 159q0 32 5.5 64.5t13.5 63.5q10 38 28 76t50 69t80 50t119 19q35 0 67.5 -8t57 -24.5t39 -42t14.5 -59.5q0 -59 -31.5 -95t-78.5 -55.5t-101.5 -27t-100.5 -9.5q-4 -11 -4 -25t6 -22t17 -12t26 -5t33 -1q34 0 65.5 2t73.5 7q11 2 18 -0.5t7 -16.5v-48
q0 -20 -6.5 -28.5t-28.5 -16.5q-17 -6 -39 -10.5t-46 -7t-48 -4t-45 -1.5q-43 0 -78 9t-60 29.5t-39 52.5t-14 77zM346 349q0 14 -11.5 23t-32.5 9q-22 0 -37 -9.5t-25.5 -24t-17 -32.5t-11.5 -35q22 1 46 5t43.5 12t32.5 20.5t13 31.5zM257 779q12 7 19.5 5t15.5 -14
l112 -185q7 -10 4.5 -15.5t-8.5 -9.5l-41 -26q-10 -7 -16.5 -6.5t-12.5 7.5l-142 171q-17 21 2 32z" />
    <glyph glyph-name="eacute" unicode="&#xe9;" horiz-adv-x="530" 
d="M34 159q0 32 5.5 64.5t13.5 63.5q10 38 28 76t50 69t80 50t119 19q35 0 67.5 -8t57 -24.5t39 -42t14.5 -59.5q0 -59 -31.5 -95t-78.5 -55.5t-101.5 -27t-100.5 -9.5q-4 -11 -4 -25t6 -22t17 -12t26 -5t33 -1q34 0 65.5 2t73.5 7q11 2 18 -0.5t7 -16.5v-48
q0 -20 -6.5 -28.5t-28.5 -16.5q-17 -6 -39 -10.5t-46 -7t-48 -4t-45 -1.5q-43 0 -78 9t-60 29.5t-39 52.5t-14 77zM346 349q0 14 -11.5 23t-32.5 9q-22 0 -37 -9.5t-25.5 -24t-17 -32.5t-11.5 -35q22 1 46 5t43.5 12t32.5 20.5t13 31.5zM506 731q19 -11 0 -32l-148 -151
q-6 -7 -12.5 -10.5t-14.5 1.5l-47 29q-6 4 -8 9.5t6 14.5l126 173q8 11 16.5 12.5t14.5 -2.5z" />
    <glyph glyph-name="ecircumflex" unicode="&#xea;" horiz-adv-x="530" 
d="M34 159q0 32 5.5 64.5t13.5 63.5q10 38 28 76t50 69t80 50t119 19q35 0 67.5 -8t57 -24.5t39 -42t14.5 -59.5q0 -59 -31.5 -95t-78.5 -55.5t-101.5 -27t-100.5 -9.5q-4 -11 -4 -25t6 -22t17 -12t26 -5t33 -1q34 0 65.5 2t73.5 7q11 2 18 -0.5t7 -16.5v-48
q0 -20 -6.5 -28.5t-28.5 -16.5q-17 -6 -39 -10.5t-46 -7t-48 -4t-45 -1.5q-43 0 -78 9t-60 29.5t-39 52.5t-14 77zM346 349q0 14 -11.5 23t-32.5 9q-22 0 -37 -9.5t-25.5 -24t-17 -32.5t-11.5 -35q22 1 46 5t43.5 12t32.5 20.5t13 31.5zM208 529q-11 -7 -17 -8t-13 7l-34 34
q-6 8 -6 12.5t10 14.5l149 135q10 8 18 13t26 5h64q19 0 25 -3.5t11 -12.5l97 -139q7 -10 5 -15t-10 -12l-39 -32q-9 -8 -14.5 -7.5t-13.5 8.5l-111 106z" />
    <glyph glyph-name="edieresis" unicode="&#xeb;" horiz-adv-x="530" 
d="M34 159q0 32 5.5 64.5t13.5 63.5q10 38 28 76t50 69t80 50t119 19q35 0 67.5 -8t57 -24.5t39 -42t14.5 -59.5q0 -59 -31.5 -95t-78.5 -55.5t-101.5 -27t-100.5 -9.5q-4 -11 -4 -25t6 -22t17 -12t26 -5t33 -1q34 0 65.5 2t73.5 7q11 2 18 -0.5t7 -16.5v-48
q0 -20 -6.5 -28.5t-28.5 -16.5q-17 -6 -39 -10.5t-46 -7t-48 -4t-45 -1.5q-43 0 -78 9t-60 29.5t-39 52.5t-14 77zM346 349q0 14 -11.5 23t-32.5 9q-22 0 -37 -9.5t-25.5 -24t-17 -32.5t-11.5 -35q22 1 46 5t43.5 12t32.5 20.5t13 31.5zM259 686q35 0 50 -11t15 -33
q0 -18 -4.5 -35.5t-15 -31t-28.5 -22t-45 -8.5q-36 0 -49 13t-13 33t4.5 37.5t15 30t27.5 20t43 7.5zM468 686q35 0 50 -11t15 -33q0 -18 -4.5 -35.5t-15 -31t-28.5 -22t-45 -8.5q-35 0 -48.5 13t-13.5 33q0 40 19.5 67.5t70.5 27.5z" />
    <glyph glyph-name="igrave" unicode="&#xec;" horiz-adv-x="296" 
d="M213 22q-1 -7 -5.5 -14.5t-18.5 -7.5h-113q-13 0 -16 6t-1 16l87 450q2 11 7.5 16.5t18.5 5.5h112q14 0 16.5 -7.5t0.5 -14.5zM144 779q12 7 19.5 5t15.5 -14l112 -185q7 -10 4.5 -15.5t-8.5 -9.5l-41 -26q-10 -7 -16.5 -6.5t-12.5 7.5l-142 171q-17 21 2 32z" />
    <glyph glyph-name="iacute" unicode="&#xed;" horiz-adv-x="268" 
d="M175 22q-1 -7 -5.5 -14.5t-18.5 -7.5h-113q-13 0 -16 6t-1 16l87 450q2 11 7.5 16.5t18.5 5.5h112q14 0 16.5 -7.5t0.5 -14.5zM387 731q19 -11 0 -32l-148 -151q-6 -7 -12.5 -10.5t-14.5 1.5l-47 29q-6 4 -8 9.5t6 14.5l126 173q8 11 16.5 12.5t14.5 -2.5z" />
    <glyph glyph-name="icircumflex" unicode="&#xee;" horiz-adv-x="384" 
d="M225 22q-1 -7 -5.5 -14.5t-18.5 -7.5h-113q-13 0 -16 6t-1 16l87 450q2 11 7.5 16.5t18.5 5.5h112q14 0 16.5 -7.5t0.5 -14.5zM124 529q-11 -7 -17 -8t-13 7l-34 34q-6 8 -6 12.5t10 14.5l149 135q10 8 18 13t26 5h64q19 0 25 -3.5t11 -12.5l97 -139q7 -10 5 -15t-10 -12
l-39 -32q-9 -8 -14.5 -7.5t-13.5 8.5l-111 106z" />
    <glyph glyph-name="idieresis" unicode="&#xef;" horiz-adv-x="364" 
d="M213 22q-1 -7 -5.5 -14.5t-18.5 -7.5h-113q-13 0 -16 6t-1 16l87 450q2 11 7.5 16.5t18.5 5.5h112q14 0 16.5 -7.5t0.5 -14.5zM158 686q35 0 50 -11t15 -33q0 -18 -4.5 -35.5t-15 -31t-28.5 -22t-45 -8.5q-36 0 -49 13t-13 33t4.5 37.5t15 30t27.5 20t43 7.5zM367 686
q35 0 50 -11t15 -33q0 -18 -4.5 -35.5t-15 -31t-28.5 -22t-45 -8.5q-35 0 -48.5 13t-13.5 33q0 40 19.5 67.5t70.5 27.5z" />
    <glyph glyph-name="eth" unicode="&#xf0;" horiz-adv-x="543" 
d="M571 710q7 -8 5.5 -11.5t-9.5 -10.5l-55 -47q19 -26 27.5 -67t9.5 -84q0 -36 -3.5 -75t-9.5 -78q-10 -63 -27.5 -125t-51.5 -111t-88.5 -79.5t-137.5 -30.5q-60 0 -97.5 15.5t-59 40t-29.5 55.5t-8 63q0 36 6 65q6 31 20 71.5t42.5 76.5t74.5 60.5t118 24.5q12 0 28 -2.5
t31.5 -6.5t28.5 -10t19 -13h1q2 12 3.5 31.5t1.5 37.5q0 14 -1.5 26t-5.5 20q-12 -11 -24 -20.5t-24 -19.5q-13 -13 -24 -1l-22 25q-6 6 -4 10.5t7 9.5q12 9 23.5 19t23.5 20q-11 6 -27.5 8.5t-34.5 2.5t-32.5 -1t-31.5 -3q-14 -2 -16.5 5.5t-2.5 16.5l2 61q0 19 21 26
q25 8 51 11.5t55 3.5q35 0 67.5 -8t57.5 -25l55 46q8 8 13 8.5t12 -6.5zM343 227q2 12 3.5 22t1.5 20q0 29 -12 45.5t-46 16.5q-39 0 -60.5 -27.5t-31.5 -78.5q-2 -12 -3.5 -22.5t-1.5 -19.5q0 -58 58 -58q42 0 63 30t29 72z" />
    <glyph glyph-name="ntilde" unicode="&#xf1;" horiz-adv-x="557" 
d="M249 448h2q19 13 41 23t44 17t43 11t38 4q53 0 79.5 -18t36 -46.5t6.5 -64t-10 -69.5l-55 -283q-1 -7 -6 -14.5t-19 -7.5h-113q-13 0 -16 6t-1 16l51 260q8 47 -3.5 61.5t-41.5 14.5q-11 0 -24.5 -3t-27 -7.5t-26 -9.5t-21.5 -8l-60 -308q-1 -7 -6.5 -14.5t-19.5 -7.5
h-112q-12 0 -15.5 6t-1.5 16l87 450q2 10 8 16t18 6h112q14 0 16.5 -7t0.5 -15zM271 705q22 0 42.5 -7t39.5 -16t36.5 -16t33.5 -7q14 0 28 7.5t28 28.5q7 8 12.5 9.5t13.5 -3.5l42 -29q7 -5 8.5 -9t-3.5 -13q-17 -31 -34.5 -50.5t-35.5 -31t-37 -15.5t-38 -4q-17 0 -36.5 8
t-39 17.5t-38 17.5t-34.5 8q-19 0 -34 -9.5t-35 -32.5q-13 -16 -28 -5l-39 26q-3 2 -6 7.5t2 13.5q33 62 71 83.5t81 21.5z" />
    <glyph glyph-name="ograve" unicode="&#xf2;" horiz-adv-x="548" 
d="M318 504q57 0 96 -14t63 -38t34 -57t10 -71q0 -18 -2 -35.5t-5 -34.5q-8 -46 -21.5 -93t-42 -84.5t-78 -61t-129.5 -23.5q-59 0 -98 15t-62 40.5t-32.5 59t-9.5 71.5q0 20 2.5 39t5.5 37q7 40 22 84t45 81t78.5 61t123.5 24zM301 370q-23 0 -39 -9t-27 -25t-17.5 -38.5
t-11.5 -49.5q-3 -17 -5 -31.5t-2 -27.5q0 -35 13.5 -49.5t43.5 -14.5q25 0 42 8.5t28 24.5t17.5 38.5t11.5 51.5q3 17 5 31.5t2 28.5q0 33 -14.5 47.5t-46.5 14.5zM257 779q12 7 19.5 5t15.5 -14l112 -185q7 -10 4.5 -15.5t-8.5 -9.5l-41 -26q-10 -7 -16.5 -6.5t-12.5 7.5
l-142 171q-17 21 2 32z" />
    <glyph glyph-name="oacute" unicode="&#xf3;" horiz-adv-x="548" 
d="M318 504q57 0 96 -14t63 -38t34 -57t10 -71q0 -18 -2 -35.5t-5 -34.5q-8 -46 -21.5 -93t-42 -84.5t-78 -61t-129.5 -23.5q-59 0 -98 15t-62 40.5t-32.5 59t-9.5 71.5q0 20 2.5 39t5.5 37q7 40 22 84t45 81t78.5 61t123.5 24zM301 370q-23 0 -39 -9t-27 -25t-17.5 -38.5
t-11.5 -49.5q-3 -17 -5 -31.5t-2 -27.5q0 -35 13.5 -49.5t43.5 -14.5q25 0 42 8.5t28 24.5t17.5 38.5t11.5 51.5q3 17 5 31.5t2 28.5q0 33 -14.5 47.5t-46.5 14.5zM515 731q19 -11 0 -32l-148 -151q-6 -7 -12.5 -10.5t-14.5 1.5l-47 29q-6 4 -8 9.5t6 14.5l126 173
q8 11 16.5 12.5t14.5 -2.5z" />
    <glyph glyph-name="ocircumflex" unicode="&#xf4;" horiz-adv-x="548" 
d="M318 504q57 0 96 -14t63 -38t34 -57t10 -71q0 -18 -2 -35.5t-5 -34.5q-8 -46 -21.5 -93t-42 -84.5t-78 -61t-129.5 -23.5q-59 0 -98 15t-62 40.5t-32.5 59t-9.5 71.5q0 20 2.5 39t5.5 37q7 40 22 84t45 81t78.5 61t123.5 24zM301 370q-23 0 -39 -9t-27 -25t-17.5 -38.5
t-11.5 -49.5q-3 -17 -5 -31.5t-2 -27.5q0 -35 13.5 -49.5t43.5 -14.5q25 0 42 8.5t28 24.5t17.5 38.5t11.5 51.5q3 17 5 31.5t2 28.5q0 33 -14.5 47.5t-46.5 14.5zM213 529q-11 -7 -17 -8t-13 7l-34 34q-6 8 -6 12.5t10 14.5l149 135q10 8 18 13t26 5h64q19 0 25 -3.5
t11 -12.5l97 -139q7 -10 5 -15t-10 -12l-39 -32q-9 -8 -14.5 -7.5t-13.5 8.5l-111 106z" />
    <glyph glyph-name="otilde" unicode="&#xf5;" horiz-adv-x="548" 
d="M318 504q57 0 96 -14t63 -38t34 -57t10 -71q0 -18 -2 -35.5t-5 -34.5q-8 -46 -21.5 -93t-42 -84.5t-78 -61t-129.5 -23.5q-59 0 -98 15t-62 40.5t-32.5 59t-9.5 71.5q0 20 2.5 39t5.5 37q7 40 22 84t45 81t78.5 61t123.5 24zM301 370q-23 0 -39 -9t-27 -25t-17.5 -38.5
t-11.5 -49.5q-3 -17 -5 -31.5t-2 -27.5q0 -35 13.5 -49.5t43.5 -14.5q25 0 42 8.5t28 24.5t17.5 38.5t11.5 51.5q3 17 5 31.5t2 28.5q0 33 -14.5 47.5t-46.5 14.5zM286 705q22 0 42.5 -7t39.5 -16t36.5 -16t33.5 -7q14 0 28 7.5t28 28.5q7 8 12.5 9.5t13.5 -3.5l42 -29
q7 -5 8.5 -9t-3.5 -13q-17 -31 -34.5 -50.5t-35.5 -31t-37 -15.5t-38 -4q-17 0 -36.5 8t-39 17.5t-38 17.5t-34.5 8q-19 0 -34 -9.5t-35 -32.5q-13 -16 -28 -5l-39 26q-3 2 -6 7.5t2 13.5q33 62 71 83.5t81 21.5z" />
    <glyph glyph-name="odieresis" unicode="&#xf6;" horiz-adv-x="548" 
d="M318 504q57 0 96 -14t63 -38t34 -57t10 -71q0 -18 -2 -35.5t-5 -34.5q-8 -46 -21.5 -93t-42 -84.5t-78 -61t-129.5 -23.5q-59 0 -98 15t-62 40.5t-32.5 59t-9.5 71.5q0 20 2.5 39t5.5 37q7 40 22 84t45 81t78.5 61t123.5 24zM301 370q-23 0 -39 -9t-27 -25t-17.5 -38.5
t-11.5 -49.5q-3 -17 -5 -31.5t-2 -27.5q0 -35 13.5 -49.5t43.5 -14.5q25 0 42 8.5t28 24.5t17.5 38.5t11.5 51.5q3 17 5 31.5t2 28.5q0 33 -14.5 47.5t-46.5 14.5zM263 686q35 0 50 -11t15 -33q0 -18 -4.5 -35.5t-15 -31t-28.5 -22t-45 -8.5q-36 0 -49 13t-13 33t4.5 37.5
t15 30t27.5 20t43 7.5zM472 686q35 0 50 -11t15 -33q0 -18 -4.5 -35.5t-15 -31t-28.5 -22t-45 -8.5q-35 0 -48.5 13t-13.5 33q0 40 19.5 67.5t70.5 27.5z" />
    <glyph glyph-name="divide" unicode="&#xf7;" horiz-adv-x="595" 
d="M97 267q-21 0 -17 22l14 72q4 20 26 20h412q13 0 15.5 -4.5t0.5 -15.5l-14 -72q-2 -11 -7 -16.5t-18 -5.5h-412zM331 423q-27 0 -41.5 6.5t-20.5 17t-6 24.5t3 29q6 32 25.5 53t68.5 21q25 0 39.5 -5t21.5 -15t7.5 -23.5t-2.5 -30.5q-3 -15 -8.5 -29t-16.5 -24.5t-28 -17
t-42 -6.5zM261 68q-27 0 -41 6.5t-20 17t-6 24.5t3 29q6 32 25.5 53t68.5 21t60.5 -20t4.5 -54q-3 -15 -8.5 -29t-16 -24.5t-27.5 -17t-43 -6.5z" />
    <glyph glyph-name="oslash" unicode="&#xf8;" horiz-adv-x="548" 
d="M318 504q50 0 85 -10.5t59 -29.5l49 49q9 9 13.5 10.5t11.5 -5.5l16 -15q8 -7 7 -11.5t-10 -13.5l-52 -52q13 -22 18.5 -47.5t5.5 -54.5q0 -18 -2 -35.5t-5 -34.5q-8 -46 -21.5 -93t-42 -84.5t-78 -61t-129.5 -23.5q-49 0 -83.5 10t-58.5 28l-37 -37q-8 -8 -13 -10t-13 6
l-16 14q-6 7 -4.5 12.5t9.5 13.5l40 40q-14 23 -20 51t-6 58q0 20 2.5 39t5.5 37q7 40 22 84t45 81t78.5 61t123.5 24zM301 370q-23 0 -39 -9t-27 -25t-17.5 -38.5t-11.5 -49.5q-2 -13 -4 -24.5t-3 -22.5l151 151q-14 18 -49 18zM355 248q4 22 6 42l-150 -150q12 -15 45 -15
q25 0 42 8.5t28 24.5t17.5 38.5t11.5 51.5z" />
    <glyph glyph-name="ugrave" unicode="&#xf9;" horiz-adv-x="552" 
d="M319 46l-2 1q-40 -26 -85.5 -40.5t-80.5 -14.5q-53 0 -79.5 16t-35.5 43t-5.5 62t10.5 73l56 286q2 7 6.5 14.5t18.5 7.5h113q13 0 16 -6t1 -16l-50 -260q-8 -42 2 -58.5t42 -16.5q23 0 51 10t45 17l59 308q2 7 7 14.5t19 7.5h112q23 0 18 -22l-88 -450q-2 -10 -7 -16
t-18 -6h-113q-14 0 -16 7t-1 15zM251 779q12 7 19.5 5t15.5 -14l112 -185q7 -10 4.5 -15.5t-8.5 -9.5l-41 -26q-10 -7 -16.5 -6.5t-12.5 7.5l-142 171q-17 21 2 32z" />
    <glyph glyph-name="uacute" unicode="&#xfa;" horiz-adv-x="552" 
d="M319 46l-2 1q-40 -26 -85.5 -40.5t-80.5 -14.5q-53 0 -79.5 16t-35.5 43t-5.5 62t10.5 73l56 286q2 7 6.5 14.5t18.5 7.5h113q13 0 16 -6t1 -16l-50 -260q-8 -42 2 -58.5t42 -16.5q23 0 51 10t45 17l59 308q2 7 7 14.5t19 7.5h112q23 0 18 -22l-88 -450q-2 -10 -7 -16
t-18 -6h-113q-14 0 -16 7t-1 15zM506 731q19 -11 0 -32l-148 -151q-6 -7 -12.5 -10.5t-14.5 1.5l-47 29q-6 4 -8 9.5t6 14.5l126 173q8 11 16.5 12.5t14.5 -2.5z" />
    <glyph glyph-name="ucircumflex" unicode="&#xfb;" horiz-adv-x="552" 
d="M319 46l-2 1q-40 -26 -85.5 -40.5t-80.5 -14.5q-53 0 -79.5 16t-35.5 43t-5.5 62t10.5 73l56 286q2 7 6.5 14.5t18.5 7.5h113q13 0 16 -6t1 -16l-50 -260q-8 -42 2 -58.5t42 -16.5q23 0 51 10t45 17l59 308q2 7 7 14.5t19 7.5h112q23 0 18 -22l-88 -450q-2 -10 -7 -16
t-18 -6h-113q-14 0 -16 7t-1 15zM212 529q-11 -7 -17 -8t-13 7l-34 34q-6 8 -6 12.5t10 14.5l149 135q10 8 18 13t26 5h64q19 0 25 -3.5t11 -12.5l97 -139q7 -10 5 -15t-10 -12l-39 -32q-9 -8 -14.5 -7.5t-13.5 8.5l-111 106z" />
    <glyph glyph-name="udieresis" unicode="&#xfc;" horiz-adv-x="552" 
d="M319 46l-2 1q-40 -26 -85.5 -40.5t-80.5 -14.5q-53 0 -79.5 16t-35.5 43t-5.5 62t10.5 73l56 286q2 7 6.5 14.5t18.5 7.5h113q13 0 16 -6t1 -16l-50 -260q-8 -42 2 -58.5t42 -16.5q23 0 51 10t45 17l59 308q2 7 7 14.5t19 7.5h112q23 0 18 -22l-88 -450q-2 -10 -7 -16
t-18 -6h-113q-14 0 -16 7t-1 15zM266 686q35 0 50 -11t15 -33q0 -18 -4.5 -35.5t-15 -31t-28.5 -22t-45 -8.5q-36 0 -49 13t-13 33t4.5 37.5t15 30t27.5 20t43 7.5zM475 686q35 0 50 -11t15 -33q0 -18 -4.5 -35.5t-15 -31t-28.5 -22t-45 -8.5q-35 0 -48.5 13t-13.5 33
q0 40 19.5 67.5t70.5 27.5z" />
    <glyph glyph-name="yacute" unicode="&#xfd;" horiz-adv-x="521" 
d="M252 196q7 12 19 35l24 46q14 26 29 56q7 14 16.5 32.5t19 38t19 37.5t17.5 32q5 11 12.5 16t25.5 5h108q17 0 18 -6.5t-6 -19.5l-362 -641q-8 -14 -15.5 -18.5t-24.5 -4.5h-98q-15 0 -17.5 5.5t5.5 19.5l104 184l-83 456q-5 25 21 25h102q14 0 20 -2.5t8 -18.5l19 -142
l14 -135h5zM500 731q19 -11 0 -32l-148 -151q-6 -7 -12.5 -10.5t-14.5 1.5l-47 29q-6 4 -8 9.5t6 14.5l126 173q8 11 16.5 12.5t14.5 -2.5z" />
    <glyph glyph-name="thorn" unicode="&#xfe;" horiz-adv-x="550" 
d="M406 502q34 0 57.5 -10t38 -28.5t21 -44.5t7.5 -57v-17.5t-1 -19.5q-1 -27 -5.5 -58.5t-10.5 -59.5q-11 -52 -29.5 -92.5t-47.5 -68t-70 -42t-97 -14.5q-20 0 -49.5 3.5t-54.5 11.5l-35 -179q-2 -7 -7 -14.5t-19 -7.5h-111q-22 0 -17 22l157 816q2 10 8.5 16.5t17.5 6.5
h112q14 0 17 -5.5t1 -13.5l-37 -198l1 -1q38 26 78 40.5t75 14.5zM324 358q-23 0 -50.5 -10t-45.5 -18q-11 -50 -20 -98t-19 -98q26 -6 43.5 -8.5t36.5 -2.5q29 0 48 19.5t30 47t15.5 57.5t4.5 52q0 31 -8 45t-35 14z" />
    <glyph glyph-name="ydieresis" unicode="&#xff;" horiz-adv-x="521" 
d="M252 196q7 12 19 35l24 46q14 26 29 56q7 14 16.5 32.5t19 38t19 37.5t17.5 32q5 11 12.5 16t25.5 5h108q17 0 18 -6.5t-6 -19.5l-362 -641q-8 -14 -15.5 -18.5t-24.5 -4.5h-98q-15 0 -17.5 5.5t5.5 19.5l104 184l-83 456q-5 25 21 25h102q14 0 20 -2.5t8 -18.5l19 -142
l14 -135h5zM247 686q35 0 50 -11t15 -33q0 -18 -4.5 -35.5t-15 -31t-28.5 -22t-45 -8.5q-36 0 -49 13t-13 33t4.5 37.5t15 30t27.5 20t43 7.5zM456 686q35 0 50 -11t15 -33q0 -18 -4.5 -35.5t-15 -31t-28.5 -22t-45 -8.5q-35 0 -48.5 13t-13.5 33q0 40 19.5 67.5t70.5 27.5z
" />
    <glyph glyph-name="Amacron" unicode="&#x100;" horiz-adv-x="617" 
d="M140 28q-8 -16 -17 -22t-23 -6h-115q-11 0 -14 4.5t5 21.5l310 610q8 14 16.5 21.5t28.5 7.5h126q21 0 26 -8t7 -22l82 -611q1 -12 -2 -18t-14 -6h-119q-17 0 -21.5 7.5t-6.5 23.5l-10 119h-199zM379 382l-8 122h-5l-57 -121l-51 -111h130zM248 711q-23 0 -17 21l13 72
q4 21 26 21h304q13 0 16 -4.5t1 -15.5l-15 -73q-2 -11 -7 -16t-17 -5h-304z" />
    <glyph glyph-name="amacron" unicode="&#x101;" horiz-adv-x="561" 
d="M465 22q-1 -8 -6 -15t-19 -7h-113q-13 0 -15.5 5.5t-0.5 15.5l5 25l-1 1q-43 -28 -79.5 -41.5t-72.5 -13.5q-74 0 -101.5 38.5t-27.5 103.5q0 24 3.5 50.5t8.5 55.5q11 58 27.5 105.5t42.5 81t64.5 52t94.5 18.5q26 0 60 -9t62 -25l4 16q2 10 7 13t15 3h111q14 0 16.5 -6
t0.5 -17zM195 566q-21 0 -17 22l14 72q4 21 26 21h304q12 0 15 -4.5t1 -15.5l-15 -73q-2 -11 -6.5 -16.5t-16.5 -5.5h-305zM298 356q-20 0 -35 -6t-26 -19t-18.5 -34t-13.5 -51q-8 -40 -8 -61q0 -32 10.5 -42t33.5 -10q22 0 50 10.5t47 18.5l35 180q-42 14 -75 14z" />
    <glyph glyph-name="Abreve" unicode="&#x102;" horiz-adv-x="617" 
d="M140 28q-8 -16 -17 -22t-23 -6h-115q-11 0 -14 4.5t5 21.5l310 610q8 14 16.5 21.5t28.5 7.5h126q21 0 26 -8t7 -22l82 -611q1 -12 -2 -18t-14 -6h-119q-17 0 -21.5 7.5t-6.5 23.5l-10 119h-199zM379 382l-8 122h-5l-57 -121l-51 -111h130zM402 692q-29 0 -57.5 6.5
t-53 20.5t-44.5 34.5t-30 49.5q-5 13 -5 24t14 20l42 28q12 8 19 6.5t15 -14.5q19 -29 44.5 -46.5t62.5 -17.5q65 0 131 66q12 12 19.5 14t17.5 -6l36 -27q13 -9 8 -20.5t-17 -26.5q-42 -57 -96.5 -84t-105.5 -27z" />
    <glyph glyph-name="abreve" unicode="&#x103;" horiz-adv-x="561" 
d="M465 22q-1 -8 -6 -15t-19 -7h-113q-13 0 -15.5 5.5t-0.5 15.5l5 25l-1 1q-43 -28 -79.5 -41.5t-72.5 -13.5q-74 0 -101.5 38.5t-27.5 103.5q0 24 3.5 50.5t8.5 55.5q11 58 27.5 105.5t42.5 81t64.5 52t94.5 18.5q26 0 60 -9t62 -25l4 16q2 10 7 13t15 3h111q14 0 16.5 -6
t0.5 -17zM351 534q-28 0 -56.5 6.5t-54 20.5t-45 34.5t-29.5 49.5q-5 13 -5.5 24t13.5 20l43 28q11 8 18 6.5t15 -14.5q20 -29 45.5 -46.5t62.5 -17.5q64 0 130 66q12 12 19.5 14t18.5 -6l37 -28q13 -8 8 -20t-17 -27q-42 -57 -97 -83.5t-106 -26.5zM298 356q-20 0 -35 -6
t-26 -19t-18.5 -34t-13.5 -51q-8 -40 -8 -61q0 -32 10.5 -42t33.5 -10q22 0 50 10.5t47 18.5l35 180q-42 14 -75 14z" />
    <glyph glyph-name="Aogonek" unicode="&#x104;" horiz-adv-x="617" 
d="M140 28q-8 -16 -17 -22t-23 -6h-115q-11 0 -14 4.5t5 21.5l310 610q8 14 16.5 21.5t28.5 7.5h126q21 0 26 -8t7 -22l82 -611q1 -12 -2 -18t-14 -6h-36q-40 -49 -40 -89q0 -14 9.5 -19.5t26.5 -5.5q11 0 27 2t30 6q6 2 9 1t5 -8l6 -39q0 -11 -4 -15t-12 -7
q-20 -9 -46.5 -15.5t-56.5 -6.5q-49 0 -73.5 23t-24.5 59q0 32 13 59t40 55q-11 2 -15 9.5t-5 21.5l-10 119h-199zM379 382l-8 122h-5l-57 -121l-51 -111h130z" />
    <glyph glyph-name="aogonek" unicode="&#x105;" horiz-adv-x="561" 
d="M465 22q-1 -8 -6 -15t-19 -7h-24q-40 -49 -40 -89q0 -14 9.5 -19.5t26.5 -5.5q11 0 27 2t30 6q6 2 9 1t5 -8l6 -39q0 -11 -4 -15t-12 -7q-20 -9 -46.5 -15.5t-56.5 -6.5q-49 0 -73.5 23t-24.5 59q0 32 13 59t40 55q-11 0 -13.5 5.5t-0.5 15.5l5 25l-1 1
q-43 -28 -79.5 -41.5t-72.5 -13.5q-74 0 -101.5 38.5t-27.5 103.5q0 24 3.5 50.5t8.5 55.5q11 58 27.5 105.5t42.5 81t64.5 52t94.5 18.5q26 0 60 -9t62 -25l4 16q2 10 7 13t15 3h111q14 0 16.5 -6t0.5 -17zM298 356q-20 0 -35 -6t-26 -19t-18.5 -34t-13.5 -51
q-8 -40 -8 -61q0 -32 10.5 -42t33.5 -10q22 0 50 10.5t47 18.5l35 180q-42 14 -75 14z" />
    <glyph glyph-name="Cacute" unicode="&#x106;" horiz-adv-x="592" 
d="M427 672q24 0 49 -2t50 -5.5t47 -9.5t40 -15q14 -7 20.5 -16t-1.5 -29l-25 -59q-5 -14 -12.5 -18t-25.5 -2q-42 4 -77.5 7.5t-67.5 3.5q-41 0 -70 -15t-49 -41t-32.5 -61.5t-19.5 -76.5q-11 -51 -9 -90q2 -54 27 -81t83 -27q20 0 37.5 0.5t34.5 2t36.5 3t43.5 4.5
q19 2 26 -1.5t9 -18.5l2 -55q2 -19 -7.5 -29t-26.5 -17q-42 -17 -95.5 -25.5t-101.5 -8.5q-71 0 -118 19t-74 52t-38 77t-10 94q0 24 2.5 48.5t6.5 49.5q10 64 31 125.5t61 109.5t101.5 77.5t152.5 29.5zM633 805q10 -19 -15 -29l-191 -77q-8 -3 -15 -3t-12 8l-22 52
q-3 5 -1.5 11t12.5 13l184 107q13 7 19.5 4t9.5 -9z" />
    <glyph glyph-name="cacute" unicode="&#x107;" horiz-adv-x="477" 
d="M425 60q0 -18 -5.5 -27t-30.5 -19q-16 -5 -35.5 -9.5t-40.5 -7.5t-41.5 -4.5t-38.5 -1.5q-58 0 -95.5 14t-59 38t-30 55.5t-8.5 66.5q0 21 2.5 48t7.5 50q9 49 25 92.5t46 76.5t78 52.5t122 19.5q36 0 78 -6t71 -20q12 -5 16 -14t-3 -24l-19 -62q-3 -8 -6 -12.5t-7 -6
t-11 -1t-17 1.5q-30 3 -53.5 5t-46.5 2q-50 0 -77 -27t-38 -88q-2 -17 -3.5 -30.5t-1.5 -24.5q0 -38 18.5 -54t57.5 -16q21 0 52 2t64 6q16 2 23 0.5t7 -18.5v-57zM471 731q19 -11 0 -32l-148 -151q-6 -7 -12.5 -10.5t-14.5 1.5l-47 29q-6 4 -8 9.5t6 14.5l126 173
q8 11 16.5 12.5t14.5 -2.5z" />
    <glyph glyph-name="Ccircumflex" unicode="&#x108;" horiz-adv-x="592" 
d="M427 672q24 0 49 -2t50 -5.5t47 -9.5t40 -15q14 -7 20.5 -16t-1.5 -29l-25 -59q-5 -14 -12.5 -18t-25.5 -2q-42 4 -77.5 7.5t-67.5 3.5q-41 0 -70 -15t-49 -41t-32.5 -61.5t-19.5 -76.5q-11 -51 -9 -90q2 -54 27 -81t83 -27q20 0 37.5 0.5t34.5 2t36.5 3t43.5 4.5
q19 2 26 -1.5t9 -18.5l2 -55q2 -19 -7.5 -29t-26.5 -17q-42 -17 -95.5 -25.5t-101.5 -8.5q-71 0 -118 19t-74 52t-38 77t-10 94q0 24 2.5 48.5t6.5 49.5q10 64 31 125.5t61 109.5t101.5 77.5t152.5 29.5zM304 689q-12 -8 -18 -9t-12 7l-32 35q-5 8 -5.5 12.5t10.5 14.5
l150 121q10 9 18 13.5t25 4.5h64q18 0 24 -3.5t12 -11.5l100 -124q7 -9 5 -14.5t-11 -13.5l-34 -30q-10 -8 -15 -6.5t-13 8.5l-113 91z" />
    <glyph glyph-name="ccircumflex" unicode="&#x109;" horiz-adv-x="477" 
d="M425 60q0 -18 -5.5 -27t-30.5 -19q-16 -5 -35.5 -9.5t-40.5 -7.5t-41.5 -4.5t-38.5 -1.5q-58 0 -95.5 14t-59 38t-30 55.5t-8.5 66.5q0 21 2.5 48t7.5 50q9 49 25 92.5t46 76.5t78 52.5t122 19.5q36 0 78 -6t71 -20q12 -5 16 -14t-3 -24l-19 -62q-3 -8 -6 -12.5t-7 -6
t-11 -1t-17 1.5q-30 3 -53.5 5t-46.5 2q-50 0 -77 -27t-38 -88q-2 -17 -3.5 -30.5t-1.5 -24.5q0 -38 18.5 -54t57.5 -16q21 0 52 2t64 6q16 2 23 0.5t7 -18.5v-57zM196 529q-11 -7 -17 -8t-13 7l-34 34q-6 8 -6 12.5t10 14.5l149 135q10 8 18 13t26 5h64q19 0 25 -3.5
t11 -12.5l97 -139q7 -10 5 -15t-10 -12l-39 -32q-9 -8 -14.5 -7.5t-13.5 8.5l-111 106z" />
    <glyph glyph-name="Cdotaccent" unicode="&#x10a;" horiz-adv-x="592" 
d="M427 672q24 0 49 -2t50 -5.5t47 -9.5t40 -15q14 -7 20.5 -16t-1.5 -29l-25 -59q-5 -14 -12.5 -18t-25.5 -2q-42 4 -77.5 7.5t-67.5 3.5q-41 0 -70 -15t-49 -41t-32.5 -61.5t-19.5 -76.5q-11 -51 -9 -90q2 -54 27 -81t83 -27q20 0 37.5 0.5t34.5 2t36.5 3t43.5 4.5
q19 2 26 -1.5t9 -18.5l2 -55q2 -19 -7.5 -29t-26.5 -17q-42 -17 -95.5 -25.5t-101.5 -8.5q-71 0 -118 19t-74 52t-38 77t-10 94q0 24 2.5 48.5t6.5 49.5q10 64 31 125.5t61 109.5t101.5 77.5t152.5 29.5zM469 864q38 0 53 -13t15 -37q0 -17 -4 -35t-15 -32.5t-30 -24
t-49 -9.5q-38 0 -52.5 14.5t-14.5 36.5q0 19 5 37.5t16 32t30 22t46 8.5z" />
    <glyph glyph-name="cdotaccent" unicode="&#x10b;" horiz-adv-x="477" 
d="M425 60q0 -18 -5.5 -27t-30.5 -19q-16 -5 -35.5 -9.5t-40.5 -7.5t-41.5 -4.5t-38.5 -1.5q-58 0 -95.5 14t-59 38t-30 55.5t-8.5 66.5q0 21 2.5 48t7.5 50q9 49 25 92.5t46 76.5t78 52.5t122 19.5q36 0 78 -6t71 -20q12 -5 16 -14t-3 -24l-19 -62q-3 -8 -6 -12.5t-7 -6
t-11 -1t-17 1.5q-30 3 -53.5 5t-46.5 2q-50 0 -77 -27t-38 -88q-2 -17 -3.5 -30.5t-1.5 -24.5q0 -38 18.5 -54t57.5 -16q21 0 52 2t64 6q16 2 23 0.5t7 -18.5v-57zM371 702q38 0 53 -13t15 -37q0 -17 -4 -35t-15 -32.5t-30 -24t-49 -9.5q-38 0 -52.5 14.5t-14.5 36.5
q0 19 5 37.5t16 32t30 22t46 8.5z" />
    <glyph glyph-name="Ccaron" unicode="&#x10c;" horiz-adv-x="592" 
d="M427 672q24 0 49 -2t50 -5.5t47 -9.5t40 -15q14 -7 20.5 -16t-1.5 -29l-25 -59q-5 -14 -12.5 -18t-25.5 -2q-42 4 -77.5 7.5t-67.5 3.5q-41 0 -70 -15t-49 -41t-32.5 -61.5t-19.5 -76.5q-11 -51 -9 -90q2 -54 27 -81t83 -27q20 0 37.5 0.5t34.5 2t36.5 3t43.5 4.5
q19 2 26 -1.5t9 -18.5l2 -55q2 -19 -7.5 -29t-26.5 -17q-42 -17 -95.5 -25.5t-101.5 -8.5q-71 0 -118 19t-74 52t-38 77t-10 94q0 24 2.5 48.5t6.5 49.5q10 64 31 125.5t61 109.5t101.5 77.5t152.5 29.5zM597 896q12 8 18 8.5t13 -7.5l34 -34q6 -7 6 -12t-11 -15l-149 -127
q-9 -9 -17 -13.5t-26 -4.5h-64q-20 0 -25.5 3.5t-10.5 11.5l-97 132q-7 10 -5.5 15t10.5 13l38 31q10 8 15.5 7.5t13.5 -8.5l106 -99z" />
    <glyph glyph-name="ccaron" unicode="&#x10d;" horiz-adv-x="477" 
d="M425 60q0 -18 -5.5 -27t-30.5 -19q-16 -5 -35.5 -9.5t-40.5 -7.5t-41.5 -4.5t-38.5 -1.5q-58 0 -95.5 14t-59 38t-30 55.5t-8.5 66.5q0 21 2.5 48t7.5 50q9 49 25 92.5t46 76.5t78 52.5t122 19.5q36 0 78 -6t71 -20q12 -5 16 -14t-3 -24l-19 -62q-3 -8 -6 -12.5t-7 -6
t-11 -1t-17 1.5q-30 3 -53.5 5t-46.5 2q-50 0 -77 -27t-38 -88q-2 -17 -3.5 -30.5t-1.5 -24.5q0 -38 18.5 -54t57.5 -16q21 0 52 2t64 6q16 2 23 0.5t7 -18.5v-57zM485 740q11 8 17 9t13 -7l34 -34q6 -8 6 -12.5t-10 -14.5l-149 -135q-10 -9 -18 -13.5t-26 -4.5h-64
q-19 0 -25 3.5t-11 12.5l-97 139q-7 9 -5 14.5t10 12.5l39 32q9 8 14.5 7.5t13.5 -8.5l106 -107z" />
    <glyph glyph-name="Dcaron" unicode="&#x10e;" horiz-adv-x="657" 
d="M387 663q69 0 115 -17t74.5 -48t40.5 -74t12 -95q0 -23 -2 -47.5t-6 -48.5q-11 -71 -32 -132t-60 -105.5t-99 -70t-149 -25.5h-231q-20 0 -20 16v5q0 1 1 1l120 620q2 9 8 15t19 6h209zM290 528q-20 -99 -38.5 -196.5t-37.5 -196.5h64q75 0 119 45.5t59 145.5
q3 19 5.5 38.5t2.5 38.5q0 27 -5.5 49.5t-18.5 39.5t-34.5 26.5t-52.5 9.5h-63zM533 896q12 8 18 8.5t13 -7.5l34 -34q6 -7 6 -12t-11 -15l-149 -127q-9 -9 -17 -13.5t-26 -4.5h-64q-20 0 -25.5 3.5t-10.5 11.5l-97 132q-7 10 -5.5 15t10.5 13l38 31q10 8 15.5 7.5
t13.5 -8.5l106 -99z" />
    <glyph glyph-name="dcaron" unicode="&#x10f;" horiz-adv-x="742" 
d="M299 505q19 0 48.5 -4t55.5 -12v1l4 22l34 171q2 10 7 16.5t18 6.5h112q11 0 14.5 -4.5t3.5 -10.5q0 -5 -1 -8l-129 -661q-1 -8 -6 -15t-19 -7h-113q-17 0 -17 13q0 5 1 8q1 6 2.5 12.5t2.5 12.5h-2q-39 -25 -78 -39.5t-73 -14.5q-38 0 -63 10.5t-40 29t-21 45t-5 59.5
q1 38 7 77t14 75q12 50 29.5 90.5t45.5 68.5t68.5 43t99.5 15zM739 736q17 12 26.5 8t20.5 -16q14 -16 19.5 -37.5t5.5 -44.5q0 -34 -12.5 -64t-32 -55.5t-43.5 -45t-46 -31.5q-13 -7 -21.5 -5t-15.5 10l-21 27q-9 12 -7 18t18 21q40 34 40 69q0 25 -17 50q-10 14 -9 23.5
t21 23.5zM377 360q-19 5 -32.5 7.5t-27.5 2.5q-21 0 -36.5 -3t-27.5 -12.5t-21.5 -26t-17.5 -43.5q-6 -22 -11 -52.5t-5 -50.5q0 -31 11 -40t32 -9q22 0 50.5 10.5t47.5 18.5z" />
    <glyph glyph-name="Dcroat" unicode="&#x110;" horiz-adv-x="657" 
d="M387 663q69 0 115 -17t74.5 -48t40.5 -74t12 -95q0 -23 -2 -47.5t-6 -48.5q-11 -71 -32 -132t-60 -105.5t-99 -70t-149 -25.5h-231q-20 0 -20 16v5q0 1 1 1l52 270h-27q-17 0 -17 13v5l6 28t7 28q4 18 24 18h25q12 65 24.5 129t25.5 129q2 9 8 15t19 6h209zM261 384h114
q17 0 17 -11q0 -4 -1 -7l-6 -28t-7 -28q-2 -10 -6.5 -14t-16.5 -4h-111l-30 -157h64q75 0 119 45.5t59 145.5q3 19 5.5 38.5t2.5 38.5q0 27 -5.5 49.5t-18.5 39.5t-34.5 26.5t-52.5 9.5h-63z" />
    <glyph glyph-name="dcroat" unicode="&#x111;" horiz-adv-x="565" 
d="M581 614h40q10 0 12 -4.5t0 -12.5l-10 -46q-2 -8 -5 -12t-13 -4h-39l-100 -513q-2 -8 -6.5 -15t-18.5 -7h-115q-11 0 -14 4t-1 11l6 31q-1 0 -1 1q-39 -26 -78.5 -40.5t-73.5 -14.5q-37 0 -62 9t-40 26t-21.5 42t-6.5 57q0 35 6 75.5t15 76.5q12 48 29.5 85t45 62
t67.5 38t97 13q19 0 48 -4t55 -12l1 1l14 74h-125q-14 0 -14 9q0 5 1 8l10 46q2 11 5.5 13.5t14.5 2.5h123l14 69q2 10 7.5 16.5t18.5 6.5h111q13 0 16 -7.5t1 -15.5zM372 331q-24 7 -40.5 9t-32.5 2q-40 0 -62 -24.5t-35 -86.5q-2 -14 -3.5 -26.5t-1.5 -23.5
q0 -29 11 -38.5t33 -9.5t50.5 10.5t47.5 18.5z" />
    <glyph glyph-name="Emacron" unicode="&#x112;" horiz-adv-x="556" 
d="M151 642q2 10 8 16.5t19 6.5h394q21 0 16 -22l-18 -94q-2 -9 -7 -15t-18 -6h-255l-22 -116h222q22 0 17 -22l-18 -94q-2 -9 -7 -14.5t-18 -5.5h-222l-27 -140h262q20 0 17 -22l-18 -94q-2 -9 -7 -14.5t-18 -5.5h-402q-13 0 -17 6t-2 16zM237 711q-23 0 -17 21l13 72
q4 21 26 21h304q13 0 16 -4.5t1 -15.5l-15 -73q-2 -11 -7 -16t-17 -5h-304z" />
    <glyph glyph-name="emacron" unicode="&#x113;" horiz-adv-x="530" 
d="M34 159q0 32 5.5 64.5t13.5 63.5q10 38 28 76t50 69t80 50t119 19q35 0 67.5 -8t57 -24.5t39 -42t14.5 -59.5q0 -59 -31.5 -95t-78.5 -55.5t-101.5 -27t-100.5 -9.5q-4 -11 -4 -25t6 -22t17 -12t26 -5t33 -1q34 0 65.5 2t73.5 7q11 2 18 -0.5t7 -16.5v-48
q0 -20 -6.5 -28.5t-28.5 -16.5q-17 -6 -39 -10.5t-46 -7t-48 -4t-45 -1.5q-43 0 -78 9t-60 29.5t-39 52.5t-14 77zM346 349q0 14 -11.5 23t-32.5 9q-22 0 -37 -9.5t-25.5 -24t-17 -32.5t-11.5 -35q22 1 46 5t43.5 12t32.5 20.5t13 31.5zM184 566q-21 0 -17 22l14 72
q4 21 26 21h304q12 0 15 -4.5t1 -15.5l-15 -73q-2 -11 -6.5 -16.5t-16.5 -5.5h-305z" />
    <glyph glyph-name="Ebreve" unicode="&#x114;" horiz-adv-x="556" 
d="M151 642q2 10 8 16.5t19 6.5h394q21 0 16 -22l-18 -94q-2 -9 -7 -15t-18 -6h-255l-22 -116h222q22 0 17 -22l-18 -94q-2 -9 -7 -14.5t-18 -5.5h-222l-27 -140h262q20 0 17 -22l-18 -94q-2 -9 -7 -14.5t-18 -5.5h-402q-13 0 -17 6t-2 16zM384 692q-29 0 -57.5 6.5
t-53 20.5t-44.5 34.5t-30 49.5q-5 13 -5 24t14 20l42 28q12 8 19 6.5t15 -14.5q19 -29 44.5 -46.5t62.5 -17.5q65 0 131 66q12 12 19.5 14t17.5 -6l36 -27q13 -9 8 -20.5t-17 -26.5q-42 -57 -96.5 -84t-105.5 -27z" />
    <glyph glyph-name="ebreve" unicode="&#x115;" horiz-adv-x="530" 
d="M34 159q0 32 5.5 64.5t13.5 63.5q10 38 28 76t50 69t80 50t119 19q35 0 67.5 -8t57 -24.5t39 -42t14.5 -59.5q0 -59 -31.5 -95t-78.5 -55.5t-101.5 -27t-100.5 -9.5q-4 -11 -4 -25t6 -22t17 -12t26 -5t33 -1q34 0 65.5 2t73.5 7q11 2 18 -0.5t7 -16.5v-48
q0 -20 -6.5 -28.5t-28.5 -16.5q-17 -6 -39 -10.5t-46 -7t-48 -4t-45 -1.5q-43 0 -78 9t-60 29.5t-39 52.5t-14 77zM346 349q0 14 -11.5 23t-32.5 9q-22 0 -37 -9.5t-25.5 -24t-17 -32.5t-11.5 -35q22 1 46 5t43.5 12t32.5 20.5t13 31.5zM342 534q-28 0 -56.5 6.5t-54 20.5
t-45 34.5t-29.5 49.5q-5 13 -5.5 24t13.5 20l43 28q11 8 18 6.5t15 -14.5q20 -29 45.5 -46.5t62.5 -17.5q64 0 130 66q12 12 19.5 14t18.5 -6l37 -28q13 -8 8 -20t-17 -27q-42 -57 -97 -83.5t-106 -26.5z" />
    <glyph glyph-name="Edotaccent" unicode="&#x116;" horiz-adv-x="556" 
d="M151 642q2 10 8 16.5t19 6.5h394q21 0 16 -22l-18 -94q-2 -9 -7 -15t-18 -6h-255l-22 -116h222q22 0 17 -22l-18 -94q-2 -9 -7 -14.5t-18 -5.5h-222l-27 -140h262q20 0 17 -22l-18 -94q-2 -9 -7 -14.5t-18 -5.5h-402q-13 0 -17 6t-2 16zM415 852q38 0 53 -13t15 -37
q0 -17 -4 -35t-15 -32.5t-30 -24t-49 -9.5q-38 0 -52.5 14.5t-14.5 36.5q0 19 5 37.5t16 32t30 22t46 8.5z" />
    <glyph glyph-name="edotaccent" unicode="&#x117;" horiz-adv-x="530" 
d="M34 159q0 32 5.5 64.5t13.5 63.5q10 38 28 76t50 69t80 50t119 19q35 0 67.5 -8t57 -24.5t39 -42t14.5 -59.5q0 -59 -31.5 -95t-78.5 -55.5t-101.5 -27t-100.5 -9.5q-4 -11 -4 -25t6 -22t17 -12t26 -5t33 -1q34 0 65.5 2t73.5 7q11 2 18 -0.5t7 -16.5v-48
q0 -20 -6.5 -28.5t-28.5 -16.5q-17 -6 -39 -10.5t-46 -7t-48 -4t-45 -1.5q-43 0 -78 9t-60 29.5t-39 52.5t-14 77zM346 349q0 14 -11.5 23t-32.5 9q-22 0 -37 -9.5t-25.5 -24t-17 -32.5t-11.5 -35q22 1 46 5t43.5 12t32.5 20.5t13 31.5zM378 702q38 0 53 -13t15 -37
q0 -17 -4 -35t-15 -32.5t-30 -24t-49 -9.5q-38 0 -52.5 14.5t-14.5 36.5q0 19 5 37.5t16 32t30 22t46 8.5z" />
    <glyph glyph-name="Eogonek" unicode="&#x118;" horiz-adv-x="556" 
d="M151 642q2 10 8 16.5t19 6.5h394q21 0 16 -22l-18 -94q-2 -9 -7 -15t-18 -6h-255l-22 -116h222q22 0 17 -22l-18 -94q-2 -9 -7 -14.5t-18 -5.5h-222l-27 -140h262q20 0 17 -22l-18 -94q-2 -9 -7 -14.5t-18 -5.5h-21q-40 -49 -40 -89q0 -14 9.5 -19.5t26.5 -5.5q11 0 27 2
t30 6q6 2 9 1t5 -8l6 -39q0 -11 -4 -15t-12 -7q-20 -9 -46.5 -15.5t-56.5 -6.5q-49 0 -73.5 23t-24.5 59q0 32 13 59t40 55h-290q-13 0 -17 6t-2 16z" />
    <glyph glyph-name="eogonek" unicode="&#x119;" horiz-adv-x="530" 
d="M34 159q0 32 5.5 64.5t13.5 63.5q10 38 28 76t50 69t80 50t119 19q35 0 67.5 -8t57 -24.5t39 -42t14.5 -59.5q0 -59 -31.5 -95t-78.5 -55.5t-101.5 -27t-100.5 -9.5q-4 -11 -4 -25t6 -22t17 -12t26 -5t33 -1q34 0 65.5 2t73.5 7q11 2 18 -0.5t7 -16.5v-48
q0 -20 -6.5 -28.5t-28.5 -16.5q-10 -4 -15 -5q-26 -29 -37 -52.5t-11 -45.5q0 -14 9.5 -19.5t26.5 -5.5q11 0 27 2t30 6q6 2 9 1t5 -8l6 -39q0 -11 -4 -15t-12 -7q-20 -9 -46.5 -15.5t-56.5 -6.5q-49 0 -73.5 23t-24.5 59q0 30 11.5 55.5t35.5 51.5q-16 -1 -30.5 -1.5
t-27.5 -0.5q-43 0 -78 9t-60 29.5t-39 52.5t-14 77zM346 349q0 14 -11.5 23t-32.5 9q-22 0 -37 -9.5t-25.5 -24t-17 -32.5t-11.5 -35q22 1 46 5t43.5 12t32.5 20.5t13 31.5z" />
    <glyph glyph-name="Ecaron" unicode="&#x11a;" horiz-adv-x="556" 
d="M151 642q2 10 8 16.5t19 6.5h394q21 0 16 -22l-18 -94q-2 -9 -7 -15t-18 -6h-255l-22 -116h222q22 0 17 -22l-18 -94q-2 -9 -7 -14.5t-18 -5.5h-222l-27 -140h262q20 0 17 -22l-18 -94q-2 -9 -7 -14.5t-18 -5.5h-402q-13 0 -17 6t-2 16zM547 896q12 8 18 8.5t13 -7.5
l34 -34q6 -7 6 -12t-11 -15l-149 -127q-9 -9 -17 -13.5t-26 -4.5h-64q-20 0 -25.5 3.5t-10.5 11.5l-97 132q-7 10 -5.5 15t10.5 13l38 31q10 8 15.5 7.5t13.5 -8.5l106 -99z" />
    <glyph glyph-name="ecaron" unicode="&#x11b;" horiz-adv-x="530" 
d="M34 159q0 32 5.5 64.5t13.5 63.5q10 38 28 76t50 69t80 50t119 19q35 0 67.5 -8t57 -24.5t39 -42t14.5 -59.5q0 -59 -31.5 -95t-78.5 -55.5t-101.5 -27t-100.5 -9.5q-4 -11 -4 -25t6 -22t17 -12t26 -5t33 -1q34 0 65.5 2t73.5 7q11 2 18 -0.5t7 -16.5v-48
q0 -20 -6.5 -28.5t-28.5 -16.5q-17 -6 -39 -10.5t-46 -7t-48 -4t-45 -1.5q-43 0 -78 9t-60 29.5t-39 52.5t-14 77zM346 349q0 14 -11.5 23t-32.5 9q-22 0 -37 -9.5t-25.5 -24t-17 -32.5t-11.5 -35q22 1 46 5t43.5 12t32.5 20.5t13 31.5zM512 740q11 8 17 9t13 -7l34 -34
q6 -8 6 -12.5t-10 -14.5l-149 -135q-10 -9 -18 -13.5t-26 -4.5h-64q-19 0 -25 3.5t-11 12.5l-97 139q-7 9 -5 14.5t10 12.5l39 32q9 8 14.5 7.5t13.5 -8.5l106 -107z" />
    <glyph glyph-name="Gcircumflex" unicode="&#x11c;" horiz-adv-x="642" 
d="M429 672q21 0 46 -2t50.5 -5.5t49 -9.5t41.5 -15q14 -7 20.5 -16t-2.5 -29l-24 -59q-5 -14 -12.5 -18t-25.5 -2q-42 4 -78 7.5t-68 3.5q-41 0 -70 -14.5t-49.5 -40.5t-33 -61.5t-20.5 -77.5q-5 -26 -7.5 -49t-1.5 -41q0 -26 4.5 -46.5t15 -34.5t30 -21.5t49.5 -7.5
q17 0 36.5 2t35.5 5l22 115h-67q-14 0 -17 5.5t-1 15.5l17 86q2 10 7 16t19 6h200q22 0 19 -22l-56 -284q-4 -17 -11.5 -31.5t-29.5 -22.5q-52 -19 -111.5 -26.5t-107.5 -7.5q-72 0 -116.5 19.5t-69 52.5t-33 76.5t-8.5 92.5q0 23 2.5 48t7.5 51q10 64 32 125.5t62 109.5
t102 77.5t152 29.5zM307 689q-12 -8 -18 -9t-12 7l-32 35q-5 8 -5.5 12.5t10.5 14.5l150 121q10 9 18 13.5t25 4.5h64q18 0 24 -3.5t12 -11.5l100 -124q7 -9 5 -14.5t-11 -13.5l-34 -30q-10 -8 -15 -6.5t-13 8.5l-113 91z" />
    <glyph glyph-name="gcircumflex" unicode="&#x11d;" horiz-adv-x="549" 
d="M469 31q-10 -50 -23 -93.5t-41.5 -76t-78 -51.5t-132.5 -19q-21 0 -43.5 1.5t-44 5t-40.5 8t-32 9.5q-15 6 -21 12t-6 14q0 6 3 14l23 57q8 18 16 19.5t22 -0.5q35 -6 70.5 -8.5t62.5 -2.5t44.5 3.5t28.5 12t17 21.5t11 32l7 26q0 1 -1 1q-29 -9 -55 -12.5t-46 -3.5
q-50 0 -82.5 11t-51.5 32t-27 50t-8 65q0 32 5 68.5t13 67.5q12 47 33 86t53.5 66.5t78.5 42.5t110 15q24 0 50.5 -2t52 -5.5t48 -9.5t40.5 -13q19 -8 21 -21.5t-1 -28.5zM233 529q-11 -7 -17 -8t-13 7l-34 34q-6 8 -6 12.5t10 14.5l149 135q10 8 18 13t26 5h64
q19 0 25 -3.5t11 -12.5l97 -139q7 -10 5 -15t-10 -12l-39 -32q-9 -8 -14.5 -7.5t-13.5 8.5l-111 106zM379 363q-17 2 -32 3.5t-30 1.5q-17 0 -33 -3.5t-29.5 -14.5t-24 -31t-17.5 -53q-4 -17 -6.5 -36.5t-2.5 -33.5q0 -36 15 -48.5t42 -12.5q17 0 34 2t42 8z" />
    <glyph glyph-name="Gbreve" unicode="&#x11e;" horiz-adv-x="642" 
d="M429 672q21 0 46 -2t50.5 -5.5t49 -9.5t41.5 -15q14 -7 20.5 -16t-2.5 -29l-24 -59q-5 -14 -12.5 -18t-25.5 -2q-42 4 -78 7.5t-68 3.5q-41 0 -70 -14.5t-49.5 -40.5t-33 -61.5t-20.5 -77.5q-5 -26 -7.5 -49t-1.5 -41q0 -26 4.5 -46.5t15 -34.5t30 -21.5t49.5 -7.5
q17 0 36.5 2t35.5 5l22 115h-67q-14 0 -17 5.5t-1 15.5l17 86q2 10 7 16t19 6h200q22 0 19 -22l-56 -284q-4 -17 -11.5 -31.5t-29.5 -22.5q-52 -19 -111.5 -26.5t-107.5 -7.5q-72 0 -116.5 19.5t-69 52.5t-33 76.5t-8.5 92.5q0 23 2.5 48t7.5 51q10 64 32 125.5t62 109.5
t102 77.5t152 29.5zM447 692q-29 0 -57.5 6.5t-53 20.5t-44.5 34.5t-30 49.5q-5 13 -5 24t14 20l42 28q12 8 19 6.5t15 -14.5q19 -29 44.5 -46.5t62.5 -17.5q65 0 131 66q12 12 19.5 14t17.5 -6l36 -27q13 -9 8 -20.5t-17 -26.5q-42 -57 -96.5 -84t-105.5 -27z" />
    <glyph glyph-name="gbreve" unicode="&#x11f;" horiz-adv-x="549" 
d="M469 31q-10 -50 -23 -93.5t-41.5 -76t-78 -51.5t-132.5 -19q-21 0 -43.5 1.5t-44 5t-40.5 8t-32 9.5q-15 6 -21 12t-6 14q0 6 3 14l23 57q8 18 16 19.5t22 -0.5q35 -6 70.5 -8.5t62.5 -2.5t44.5 3.5t28.5 12t17 21.5t11 32l7 26q0 1 -1 1q-29 -9 -55 -12.5t-46 -3.5
q-50 0 -82.5 11t-51.5 32t-27 50t-8 65q0 32 5 68.5t13 67.5q12 47 33 86t53.5 66.5t78.5 42.5t110 15q24 0 50.5 -2t52 -5.5t48 -9.5t40.5 -13q19 -8 21 -21.5t-1 -28.5zM351 534q-28 0 -56.5 6.5t-54 20.5t-45 34.5t-29.5 49.5q-5 13 -5.5 24t13.5 20l43 28q11 8 18 6.5
t15 -14.5q20 -29 45.5 -46.5t62.5 -17.5q64 0 130 66q12 12 19.5 14t18.5 -6l37 -28q13 -8 8 -20t-17 -27q-42 -57 -97 -83.5t-106 -26.5zM379 363q-17 2 -32 3.5t-30 1.5q-17 0 -33 -3.5t-29.5 -14.5t-24 -31t-17.5 -53q-4 -17 -6.5 -36.5t-2.5 -33.5q0 -36 15 -48.5
t42 -12.5q17 0 34 2t42 8z" />
    <glyph glyph-name="Gdotaccent" unicode="&#x120;" horiz-adv-x="642" 
d="M429 672q21 0 46 -2t50.5 -5.5t49 -9.5t41.5 -15q14 -7 20.5 -16t-2.5 -29l-24 -59q-5 -14 -12.5 -18t-25.5 -2q-42 4 -78 7.5t-68 3.5q-41 0 -70 -14.5t-49.5 -40.5t-33 -61.5t-20.5 -77.5q-5 -26 -7.5 -49t-1.5 -41q0 -26 4.5 -46.5t15 -34.5t30 -21.5t49.5 -7.5
q17 0 36.5 2t35.5 5l22 115h-67q-14 0 -17 5.5t-1 15.5l17 86q2 10 7 16t19 6h200q22 0 19 -22l-56 -284q-4 -17 -11.5 -31.5t-29.5 -22.5q-52 -19 -111.5 -26.5t-107.5 -7.5q-72 0 -116.5 19.5t-69 52.5t-33 76.5t-8.5 92.5q0 23 2.5 48t7.5 51q10 64 32 125.5t62 109.5
t102 77.5t152 29.5zM477 852q38 0 53 -13t15 -37q0 -17 -4 -35t-15 -32.5t-30 -24t-49 -9.5q-38 0 -52.5 14.5t-14.5 36.5q0 19 5 37.5t16 32t30 22t46 8.5z" />
    <glyph glyph-name="gdotaccent" unicode="&#x121;" horiz-adv-x="549" 
d="M469 31q-10 -50 -23 -93.5t-41.5 -76t-78 -51.5t-132.5 -19q-21 0 -43.5 1.5t-44 5t-40.5 8t-32 9.5q-15 6 -21 12t-6 14q0 6 3 14l23 57q8 18 16 19.5t22 -0.5q35 -6 70.5 -8.5t62.5 -2.5t44.5 3.5t28.5 12t17 21.5t11 32l7 26q0 1 -1 1q-29 -9 -55 -12.5t-46 -3.5
q-50 0 -82.5 11t-51.5 32t-27 50t-8 65q0 32 5 68.5t13 67.5q12 47 33 86t53.5 66.5t78.5 42.5t110 15q24 0 50.5 -2t52 -5.5t48 -9.5t40.5 -13q19 -8 21 -21.5t-1 -28.5zM379 363q-17 2 -32 3.5t-30 1.5q-17 0 -33 -3.5t-29.5 -14.5t-24 -31t-17.5 -53q-4 -17 -6.5 -36.5
t-2.5 -33.5q0 -36 15 -48.5t42 -12.5q17 0 34 2t42 8zM386 702q38 0 53 -13t15 -37q0 -17 -4 -35t-15 -32.5t-30 -24t-49 -9.5q-38 0 -52.5 14.5t-14.5 36.5q0 19 5 37.5t16 32t30 22t46 8.5z" />
    <glyph glyph-name="Gcommaaccent" unicode="&#x122;" horiz-adv-x="642" 
d="M429 672q21 0 46 -2t50.5 -5.5t49 -9.5t41.5 -15q14 -7 20.5 -16t-2.5 -29l-24 -59q-5 -14 -12.5 -18t-25.5 -2q-42 4 -78 7.5t-68 3.5q-41 0 -70 -14.5t-49.5 -40.5t-33 -61.5t-20.5 -77.5q-5 -26 -7.5 -49t-1.5 -41q0 -26 4.5 -46.5t15 -34.5t30 -21.5t49.5 -7.5
q17 0 36.5 2t35.5 5l22 115h-67q-14 0 -17 5.5t-1 15.5l17 86q2 10 7 16t19 6h200q22 0 19 -22l-56 -284q-4 -17 -11.5 -31.5t-29.5 -22.5q-52 -19 -111.5 -26.5t-107.5 -7.5q-72 0 -116.5 19.5t-69 52.5t-33 76.5t-8.5 92.5q0 23 2.5 48t7.5 51q10 64 32 125.5t62 109.5
t102 77.5t152 29.5zM300 -46q17 12 26.5 8t20.5 -16q14 -16 19.5 -37.5t5.5 -44.5q0 -34 -12.5 -64t-32 -55.5t-43.5 -45t-46 -31.5q-13 -7 -21.5 -5t-15.5 10l-21 27q-9 12 -7 18t18 21q40 34 40 69q0 25 -17 50q-10 14 -9 23.5t21 23.5z" />
    <glyph glyph-name="gcommaaccent" unicode="&#x123;" horiz-adv-x="549" 
d="M469 31q-10 -50 -23 -93.5t-41.5 -76t-78 -51.5t-132.5 -19q-21 0 -43.5 1.5t-44 5t-40.5 8t-32 9.5q-15 6 -21 12t-6 14q0 6 3 14l23 57q8 18 16 19.5t22 -0.5q35 -6 70.5 -8.5t62.5 -2.5t44.5 3.5t28.5 12t17 21.5t11 32l7 26q0 1 -1 1q-29 -9 -55 -12.5t-46 -3.5
q-50 0 -82.5 11t-51.5 32t-27 50t-8 65q0 32 5 68.5t13 67.5q12 47 33 86t53.5 66.5t78.5 42.5t110 15q24 0 50.5 -2t52 -5.5t48 -9.5t40.5 -13q19 -8 21 -21.5t-1 -28.5zM497 814q7 -8 7.5 -13.5t-7.5 -13.5q-27 -28 -38.5 -47t-11.5 -38q0 -14 5 -25.5t12 -22.5
q12 -13 9.5 -21.5t-17.5 -19.5l-76 -53q-15 -8 -27 -7.5t-24 14.5t-17.5 33.5t-5.5 39.5q0 35 12 67t31.5 58.5t44 47.5t48.5 34q11 5 18.5 5t15.5 -11zM379 363q-17 2 -32 3.5t-30 1.5q-17 0 -33 -3.5t-29.5 -14.5t-24 -31t-17.5 -53q-4 -17 -6.5 -36.5t-2.5 -33.5
q0 -36 15 -48.5t42 -12.5q17 0 34 2t42 8z" />
    <glyph glyph-name="Hcircumflex" unicode="&#x124;" horiz-adv-x="645" 
d="M502 646q4 19 27 19h117q14 0 16.5 -5.5t0.5 -13.5l-121 -628q-1 -7 -5.5 -12.5t-18.5 -5.5h-118q-13 0 -17 4t-2 14l49 258h-189l-49 -258q-2 -7 -6.5 -12.5t-17.5 -5.5h-119q-13 0 -17 4t-2 14l121 628q4 19 27 19h119q13 0 15 -5.5t0 -13.5l-44 -233h190zM291 689
q-12 -8 -18 -9t-12 7l-32 35q-5 8 -5.5 12.5t10.5 14.5l150 121q10 9 18 13.5t25 4.5h64q18 0 24 -3.5t12 -11.5l100 -124q7 -9 5 -14.5t-11 -13.5l-34 -30q-10 -8 -15 -6.5t-13 8.5l-113 91z" />
    <glyph glyph-name="hcircumflex" unicode="&#x125;" horiz-adv-x="557" 
d="M474 22q-2 -8 -6.5 -15t-18.5 -7h-110q-12 0 -16 6t-2 16q3 16 11 54t16 80.5t15.5 80.5t10.5 54q8 41 -3 58t-43 17q-11 0 -25.5 -3t-28.5 -7.5t-27.5 -9.5t-22.5 -9l-61 -315q-2 -8 -6.5 -15t-18.5 -7h-110q-11 0 -14.5 6t-1.5 16l128 662q3 22 25 22h111q14 0 16.5 -7
t0.5 -15l-44 -226q34 17 77 31t81 14q56 0 84.5 -17.5t39 -46t8 -63.5t-9.5 -70zM97 703q-12 -8 -18 -9t-12 7l-32 35q-5 8 -5.5 12.5t10.5 14.5l150 121q10 9 18 13.5t25 4.5h64q18 0 24 -3.5t12 -11.5l100 -124q7 -9 5 -14.5t-11 -13.5l-34 -30q-10 -8 -15 -6.5t-13 8.5
l-113 91z" />
    <glyph glyph-name="Hbar" unicode="&#x126;" horiz-adv-x="645" 
d="M633 491l-91 -473q-1 -7 -5.5 -12.5t-18.5 -5.5h-118q-13 0 -17 4t-2 14l49 258h-189l-49 -258q-2 -7 -6.5 -12.5t-17.5 -5.5h-119q-13 0 -17 4t-2 14l91 473h-30q-20 0 -17 22l9 43q3 21 25 21h29l14 69q4 19 27 19h119q13 0 15 -5.5t0 -13.5l-13 -69h190l13 69
q4 19 27 19h117q14 0 16.5 -5.5t0.5 -13.5l-14 -69h32q14 0 16 -5t0 -16l-8 -43q-2 -11 -6.5 -16.5t-17.5 -5.5h-32zM472 491h-190l-14 -78h190z" />
    <glyph glyph-name="hbar" unicode="&#x127;" horiz-adv-x="557" 
d="M474 22q-2 -8 -6.5 -15t-18.5 -7h-110q-12 0 -16 6t-2 16q3 16 10 49.5t14.5 70.5t14 70.5t9.5 49.5q8 41 -3 58t-43 17q-11 0 -25.5 -3t-28.5 -7.5t-27.5 -9.5t-22.5 -9l-56 -286q-2 -8 -6.5 -15t-18.5 -7h-110q-11 0 -14.5 6t-1.5 16l99 514h-38q-14 0 -14 9q0 2 0.5 4
t0.5 4l9 45q2 11 5.5 13.5t14.5 2.5h37l14 70q3 22 25 22h111q14 0 16.5 -7t0.5 -15l-14 -70h175q10 0 12.5 -4.5t0.5 -12.5l-9 -45q-2 -8 -5.5 -12t-12.5 -4h-176l-20 -107q34 17 77 31t81 14q56 0 84.5 -17.5t39 -46t8 -63.5t-9.5 -70z" />
    <glyph glyph-name="Itilde" unicode="&#x128;" horiz-adv-x="304" 
d="M155 642q2 10 8 16.5t19 6.5h118q14 0 16 -7.5t0 -15.5l-120 -620q-2 -7 -6.5 -14.5t-18.5 -7.5h-118q-13 0 -17 6t-2 16zM197 869q22 0 42.5 -7t39.5 -16t36.5 -16t33.5 -7q14 0 28 7.5t28 28.5q7 8 12.5 9.5t13.5 -3.5l42 -29q7 -5 8.5 -9t-3.5 -13
q-17 -31 -34.5 -50.5t-35.5 -31t-37 -15.5t-38 -4q-17 0 -36.5 8t-39 17.5t-38 17.5t-34.5 8q-19 0 -34 -9.5t-35 -32.5q-13 -16 -28 -5l-39 26q-3 2 -6 7.5t2 13.5q33 62 71 83.5t81 21.5z" />
    <glyph glyph-name="itilde" unicode="&#x129;" horiz-adv-x="411" 
d="M247 22q-1 -7 -5.5 -14.5t-18.5 -7.5h-113q-13 0 -16 6t-1 16l87 450q2 11 7.5 16.5t18.5 5.5h112q14 0 16.5 -7.5t0.5 -14.5zM216 705q22 0 42.5 -7t39.5 -16t36.5 -16t33.5 -7q14 0 28 7.5t28 28.5q7 8 12.5 9.5t13.5 -3.5l42 -29q7 -5 8.5 -9t-3.5 -13
q-17 -31 -34.5 -50.5t-35.5 -31t-37 -15.5t-38 -4q-17 0 -36.5 8t-39 17.5t-38 17.5t-34.5 8q-19 0 -34 -9.5t-35 -32.5q-13 -16 -28 -5l-39 26q-3 2 -6 7.5t2 13.5q33 62 71 83.5t81 21.5z" />
    <glyph glyph-name="Imacron" unicode="&#x12a;" horiz-adv-x="329" 
d="M165 642q2 10 8 16.5t19 6.5h118q14 0 16 -7.5t0 -15.5l-120 -620q-2 -7 -6.5 -14.5t-18.5 -7.5h-118q-13 0 -17 6t-2 16zM106 711q-23 0 -17 21l13 72q4 21 26 21h304q13 0 16 -4.5t1 -15.5l-15 -73q-2 -11 -7 -16t-17 -5h-304z" />
    <glyph glyph-name="imacron" unicode="&#x12b;" horiz-adv-x="365" 
d="M215 22q-1 -7 -5.5 -14.5t-18.5 -7.5h-113q-13 0 -16 6t-1 16l87 450q2 11 7.5 16.5t18.5 5.5h112q14 0 16.5 -7.5t0.5 -14.5zM96 566q-21 0 -17 22l14 72q4 21 26 21h304q12 0 15 -4.5t1 -15.5l-15 -73q-2 -11 -6.5 -16.5t-16.5 -5.5h-305z" />
    <glyph glyph-name="Ibreve" unicode="&#x12c;" horiz-adv-x="343" 
d="M279 692q-29 0 -57.5 6.5t-53 20.5t-44.5 34.5t-30 49.5q-5 13 -5 24t14 20l42 28q12 8 19 6.5t15 -14.5q19 -29 44.5 -46.5t62.5 -17.5q65 0 131 66q12 12 19.5 14t17.5 -6l36 -27q13 -9 8 -20.5t-17 -26.5q-42 -57 -96.5 -84t-105.5 -27zM174 642q2 10 8 16.5t19 6.5
h118q14 0 16 -7.5t0 -15.5l-120 -620q-2 -7 -6.5 -14.5t-18.5 -7.5h-118q-13 0 -17 6t-2 16z" />
    <glyph glyph-name="ibreve" unicode="&#x12d;" horiz-adv-x="411" 
d="M245 22q-1 -7 -5.5 -14.5t-18.5 -7.5h-113q-13 0 -16 6t-1 16l87 450q2 11 7.5 16.5t18.5 5.5h112q14 0 16.5 -7.5t0.5 -14.5zM284 540q-28 0 -56.5 6.5t-54 20.5t-45 34.5t-29.5 49.5q-5 13 -5.5 24t13.5 20l43 28q11 8 18 6.5t15 -14.5q20 -29 45.5 -46.5t62.5 -17.5
q64 0 130 66q12 12 19.5 14t18.5 -6l37 -28q13 -8 8 -20t-17 -27q-42 -57 -97 -83.5t-106 -26.5z" />
    <glyph glyph-name="Iogonek" unicode="&#x12e;" horiz-adv-x="304" 
d="M155 642q2 10 8 16.5t19 6.5h118q14 0 16 -7.5t0 -15.5l-120 -620q-2 -7 -6.5 -14.5t-18.5 -7.5h-29q-40 -49 -40 -89q0 -14 9.5 -19.5t26.5 -5.5q11 0 27 2t30 6q6 2 9 1t5 -8l6 -39q0 -11 -4 -15t-12 -7q-20 -9 -46.5 -15.5t-56.5 -6.5q-49 0 -73.5 23t-24.5 59
q0 32 13 59t40 55q-20 0 -17 22z" />
    <glyph glyph-name="iogonek" unicode="&#x12f;" horiz-adv-x="278" 
d="M179 22q-1 -7 -6 -14.5t-19 -7.5h-23q-40 -49 -40 -89q0 -14 9.5 -19.5t26.5 -5.5q11 0 27 2t30 6q6 2 9 1t5 -8l6 -39q0 -11 -4 -15t-12 -7q-20 -9 -46.5 -15.5t-56.5 -6.5q-49 0 -73.5 23t-24.5 59q0 32 13 59t40 55q-12 0 -15 6t-1 16l87 450q2 11 8 16.5t19 5.5h112
q14 0 16 -7.5t0 -14.5zM234 700q38 0 53.5 -13.5t15.5 -36.5q0 -17 -4 -35t-15 -33t-30 -24.5t-49 -9.5q-40 0 -54.5 14.5t-14.5 37.5q0 20 5 38t16.5 32t30.5 22t46 8z" />
    <glyph glyph-name="Idotaccent" unicode="&#x130;" horiz-adv-x="304" 
d="M155 642q2 10 8 16.5t19 6.5h118q14 0 16 -7.5t0 -15.5l-120 -620q-2 -7 -6.5 -14.5t-18.5 -7.5h-118q-13 0 -17 6t-2 16zM283 867q38 0 53 -13t15 -37q0 -17 -4 -35t-15 -32.5t-30 -24t-49 -9.5q-38 0 -52.5 14.5t-14.5 36.5q0 19 5 37.5t16 32t30 22t46 8.5z" />
    <glyph glyph-name="dotlessi" unicode="&#x131;" horiz-adv-x="268" 
d="M175 22q-1 -7 -5.5 -14.5t-18.5 -7.5h-113q-13 0 -16 6t-1 16l87 450q2 11 7.5 16.5t18.5 5.5h112q14 0 16.5 -7.5t0.5 -14.5z" />
    <glyph glyph-name="IJ" unicode="&#x132;" horiz-adv-x="757" 
d="M155 642q2 10 8 16.5t19 6.5h118q14 0 16 -7.5t0 -15.5l-120 -620q-2 -7 -6.5 -14.5t-18.5 -7.5h-118q-13 0 -17 6t-2 16zM590 642q2 10 7.5 16.5t18.5 6.5h115q14 0 17 -6t1 -17l-87 -455q-8 -44 -24 -80.5t-44 -62t-71 -39.5t-106 -14q-12 0 -28 1t-33.5 3.5t-35 6
t-32.5 9.5q-25 9 -28.5 17t2.5 28l20 67q5 16 12 18.5t20 0.5q25 -4 50 -6t46 -2q27 0 44.5 6.5t28.5 17.5t17 25.5t9 31.5z" />
    <glyph glyph-name="ij" unicode="&#x133;" horiz-adv-x="535" 
d="M234 700q38 0 53.5 -13.5t15.5 -36.5q0 -17 -4 -35t-15 -33t-30 -24.5t-49 -9.5q-40 0 -54.5 14.5t-14.5 37.5q0 20 5 38t16.5 32t30.5 22t46 8zM179 22q-1 -7 -6 -14.5t-19 -7.5h-112q-23 0 -18 22l87 450q2 11 8 16.5t19 5.5h112q14 0 16 -7.5t0 -14.5zM489 700
q38 0 53.5 -13t15.5 -37q0 -17 -4 -35t-15 -33t-30 -24.5t-49 -9.5q-40 0 -54.5 14.5t-14.5 37.5q0 20 5 38t17 32t30.5 22t45.5 8zM417 -70q-9 -43 -26 -71t-41 -44.5t-55.5 -23.5t-68.5 -7q-28 0 -63.5 5.5t-59.5 16.5q-8 3 -12.5 11t0.5 24l20 68q4 13 9.5 16t25.5 1
t40.5 -3.5t38 3t30.5 17.5t18 40l94 491q2 12 8 16t17 4h113q11 0 15 -4t2 -16z" />
    <glyph glyph-name="Jcircumflex" unicode="&#x134;" horiz-adv-x="485" 
d="M318 643q2 10 7.5 16.5t18.5 6.5h115q14 0 17 -6t1 -17l-87 -455q-8 -44 -24 -80.5t-44 -62t-71 -39.5t-106 -14q-12 0 -28 1t-33.5 3.5t-35 6t-32.5 9.5q-25 9 -28.5 17t2.5 28l20 67q5 16 12 18.5t20 0.5q25 -4 50 -6t46 -2q27 0 44.5 6.5t28.5 17.5t17 25.5t9 31.5z
M274 691q-12 -8 -18 -9t-12 7l-32 35q-5 8 -5.5 12.5t10.5 14.5l150 121q10 9 18 13.5t25 4.5h64q18 0 24 -3.5t12 -11.5l100 -124q7 -9 5 -14.5t-11 -13.5l-34 -30q-10 -8 -15 -6.5t-13 8.5l-113 91z" />
    <glyph glyph-name="jcircumflex" unicode="&#x135;" horiz-adv-x="395" 
d="M137 547q-11 -8 -17 -9t-13 7l-35 34q-5 8 -5 12.5t10 14.5l149 135q9 9 17 13.5t26 4.5h65q19 0 24.5 -3.5t10.5 -12.5l97 -139q7 -9 5.5 -14t-10.5 -13l-38 -32q-10 -8 -15.5 -7t-13.5 8l-110 106zM227 -70q-9 -43 -26 -71t-41 -44.5t-55.5 -23.5t-68.5 -7
q-28 0 -63.5 5.5t-59.5 16.5q-8 3 -12.5 11t0.5 24l20 68q4 13 9.5 16t25.5 1t40.5 -3.5t38 3t30.5 17.5t18 40l94 491q2 12 8 16t17 4h113q11 0 15 -4t2 -16z" />
    <glyph glyph-name="Kcommaaccent" unicode="&#x136;" horiz-adv-x="618" 
d="M211 166l-26 -144q-1 -7 -6 -14.5t-18 -7.5h-119q-13 0 -16.5 6t-1.5 16l120 620q2 10 8 16.5t19 6.5h119q13 0 15.5 -7.5t0.5 -15.5l-44 -223h3l81 88l135 138q11 10 20.5 15t25.5 5h148q11 0 15.5 -8t-8.5 -20l-264 -264l154 -342q6 -17 -0.5 -24t-17.5 -7h-123
q-19 0 -26.5 7.5t-12.5 18.5l-95 227zM250 -26q17 12 26.5 8t20.5 -16q14 -16 19.5 -37.5t5.5 -44.5q0 -34 -12.5 -64t-32 -55.5t-43.5 -45t-46 -31.5q-13 -7 -21.5 -5t-15.5 10l-21 27q-9 12 -7 18t18 21q40 34 40 69q0 25 -17 50q-10 14 -9 23.5t21 23.5z" />
    <glyph glyph-name="kcommaaccent" unicode="&#x137;" horiz-adv-x="530" 
d="M228 340q19 19 35.5 34.5l33 31t33.5 31t36 34.5q11 11 21 16.5t30 5.5h126q20 0 18 -11q-2 -7 -12 -16l-180 -170l117 -269q5 -8 3 -14q-2 -13 -23 -13h-100q-15 0 -23 2.5t-13 7.5t-8 12t-6 15l-64 147q-16 -15 -33.5 -31t-32.5 -31l-20 -101q-2 -8 -6.5 -14.5
t-18.5 -6.5h-109q-22 0 -17 21l128 663q3 22 26 22h109q14 0 16.5 -7t0.5 -15l-67 -343v-1zM208 -46q17 12 26.5 8t20.5 -16q14 -16 19.5 -37.5t5.5 -44.5q0 -34 -12.5 -64t-32 -55.5t-43.5 -45t-46 -31.5q-13 -7 -21.5 -5t-15.5 10l-21 27q-9 12 -7 18t18 21q40 34 40 69
q0 25 -17 50q-10 14 -9 23.5t21 23.5z" />
    <glyph glyph-name="kgreenlandic" unicode="&#x138;" horiz-adv-x="530" 
d="M228 340q19 19 35.5 34.5l33 31t33.5 31t36 34.5q11 11 21 16.5t30 5.5h123q20 0 20 -9t-11 -18l-180 -170l117 -269q5 -8 3 -14q-2 -13 -23 -13h-100q-15 0 -23 2.5t-13 7.5t-8 12t-6 15l-64 147q-16 -15 -33.5 -31t-32.5 -31l-20 -101q-2 -8 -6.5 -14.5t-18.5 -6.5
h-109q-22 0 -17 21l87 451q3 22 26 22h109q14 0 16.5 -7t0.5 -15l-26 -131q1 0 0 -1z" />
    <glyph glyph-name="Lacute" unicode="&#x139;" horiz-adv-x="524" 
d="M215 136h266q17 0 14 -17l-19 -99q-2 -9 -7 -14.5t-18 -5.5h-402q-23 0 -18 22l120 620q2 10 8 16.5t19 6.5h118q22 0 17 -23zM443 805q10 -19 -15 -29l-191 -77q-8 -3 -15 -3t-12 8l-22 52q-3 5 -1.5 11t12.5 13l184 107q13 7 19.5 4t9.5 -9z" />
    <glyph glyph-name="lacute" unicode="&#x13a;" horiz-adv-x="301" 
d="M205 163q-5 -26 6.5 -31.5t34.5 -7.5q15 -2 18.5 -6t1.5 -15l-10 -73q-3 -15 -20 -22q-20 -8 -44.5 -10.5t-38.5 -2.5q-66 0 -95 30.5t-15 100.5l108 558q2 10 8 16t18 6h112q14 0 17 -7t1 -15zM450 843q10 -19 -15 -29l-191 -77q-8 -3 -15 -3t-12 8l-22 52q-3 5 -1.5 11
t12.5 13l184 107q13 7 19.5 4t9.5 -9z" />
    <glyph glyph-name="Lcommaaccent" unicode="&#x13b;" horiz-adv-x="524" 
d="M215 136h266q17 0 14 -17l-19 -99q-2 -9 -7 -14.5t-18 -5.5h-402q-23 0 -18 22l120 620q2 10 8 16.5t19 6.5h118q22 0 17 -23zM226 -46q17 12 26.5 8t20.5 -16q14 -16 19.5 -37.5t5.5 -44.5q0 -34 -12.5 -64t-32 -55.5t-43.5 -45t-46 -31.5q-13 -7 -21.5 -5t-15.5 10
l-21 27q-9 12 -7 18t18 21q40 34 40 69q0 25 -17 50q-10 14 -9 23.5t21 23.5z" />
    <glyph glyph-name="lcommaaccent" unicode="&#x13c;" horiz-adv-x="301" 
d="M205 163q-5 -26 6.5 -31.5t34.5 -7.5q15 -2 18.5 -6t1.5 -15l-10 -73q-3 -15 -20 -22q-20 -8 -44.5 -10.5t-38.5 -2.5q-66 0 -95 30.5t-15 100.5l108 558q2 10 8 16t18 6h112q14 0 17 -7t1 -15zM99 -46q17 12 26.5 8t20.5 -16q14 -16 19.5 -37.5t5.5 -44.5
q0 -34 -12.5 -64t-32 -55.5t-43.5 -45t-46 -31.5q-13 -7 -21.5 -5t-15.5 10l-21 27q-9 12 -7 18t18 21q40 34 40 69q0 25 -17 50q-10 14 -9 23.5t21 23.5z" />
    <glyph glyph-name="Lcaron" unicode="&#x13d;" horiz-adv-x="524" 
d="M215 136h266q17 0 14 -17l-19 -99q-2 -9 -7 -14.5t-18 -5.5h-402q-23 0 -18 22l120 620q2 10 8 16.5t19 6.5h118q22 0 17 -23zM483 667q17 12 26.5 8t20.5 -16q14 -16 19.5 -37.5t5.5 -44.5q0 -34 -12.5 -64t-32 -55.5t-43.5 -45t-46 -31.5q-13 -7 -21.5 -5t-15.5 10
l-21 27q-9 12 -7 18t18 21q40 34 40 69q0 25 -17 50q-10 14 -9 23.5t21 23.5z" />
    <glyph glyph-name="lcaron" unicode="&#x13e;" horiz-adv-x="458" 
d="M442 716q17 12 26.5 8t20.5 -16q14 -16 19.5 -37.5t5.5 -44.5q0 -34 -12.5 -64t-32 -55.5t-43.5 -45t-46 -31.5q-13 -7 -21.5 -5t-15.5 10l-21 27q-9 12 -7 18t18 21q40 34 40 69q0 25 -17 50q-10 14 -9 23.5t21 23.5zM205 163q-5 -26 6.5 -31.5t34.5 -7.5q15 -2 18.5 -6
t1.5 -15l-10 -73q-3 -15 -20 -22q-20 -8 -44.5 -10.5t-38.5 -2.5q-66 0 -95 30.5t-15 100.5l108 558q2 10 8 16t18 6h112q14 0 17 -7t1 -15z" />
    <glyph glyph-name="Ldot" unicode="&#x13f;" horiz-adv-x="524" 
d="M215 136h266q17 0 14 -17l-19 -99q-2 -9 -7 -14.5t-18 -5.5h-402q-23 0 -18 22l120 620q2 10 8 16.5t19 6.5h118q22 0 17 -23zM442 441q38 0 53 -13t15 -37q0 -17 -4 -35t-15 -32.5t-30 -24t-49 -9.5q-38 0 -52.5 14.5t-14.5 36.5q0 19 5 37.5t16 32t30 22t46 8.5z" />
    <glyph glyph-name="ldot" unicode="&#x140;" horiz-adv-x="446" 
d="M390 465q38 0 53 -13t15 -37q0 -17 -4 -35t-15 -32.5t-30 -24t-49 -9.5q-38 0 -52.5 14.5t-14.5 36.5q0 19 5 37.5t16 32t30 22t46 8.5zM205 163q-5 -26 6.5 -31.5t34.5 -7.5q15 -2 18.5 -6t1.5 -15l-10 -73q-3 -15 -20 -22q-20 -8 -44.5 -10.5t-38.5 -2.5
q-66 0 -95 30.5t-15 100.5l108 558q2 10 8 16t18 6h112q14 0 17 -7t1 -15z" />
    <glyph glyph-name="Lslash" unicode="&#x141;" horiz-adv-x="524" 
d="M268 409l84 44q12 6 17.5 3.5t8.5 -11.5l18 -39q3 -10 1.5 -16.5t-14.5 -12.5l-135 -71l-33 -170h266q17 0 14 -17l-19 -99q-2 -9 -7 -14.5t-18 -5.5h-402q-23 0 -18 22l36 190l-34 -18q-20 -10 -28 8l-16 39q-7 18 14 29l84 44l64 328q2 10 8 16.5t19 6.5h118
q22 0 17 -23z" />
    <glyph glyph-name="lslash" unicode="&#x142;" horiz-adv-x="368" 
d="M282 430l53 28q12 6 17.5 3.5t8.5 -11.5l18 -41q4 -10 2 -16t-15 -13l-104 -55l-32 -162q-5 -26 6.5 -31.5t34.5 -7.5q15 -2 18.5 -6t1.5 -15l-10 -73q-3 -15 -20 -22q-20 -8 -44.5 -10.5t-38.5 -2.5q-66 0 -95 30.5t-15 100.5l21 109l-36 -19q-20 -11 -29 7l-17 41
q-7 19 13 29l89 47l67 344q2 10 8 16t18 6h112q14 0 17 -7t1 -15z" />
    <glyph glyph-name="Nacute" unicode="&#x143;" horiz-adv-x="667" 
d="M260 387h-3l-70 -365q-2 -8 -6.5 -15t-18.5 -7h-114q-19 0 -19 15q0 2 0.5 3.5t0.5 3.5l120 620q2 9 8 15.5t19 6.5h83q23 0 29.5 -7.5t12.5 -20.5l154 -354h4q17 91 34 180t34 179q2 8 6.5 15.5t18.5 7.5h114q19 0 19 -15q0 -5 -1 -8q-31 -155 -61 -309.5t-60 -310.5
q-2 -9 -7.5 -15t-18.5 -6h-83q-17 0 -25.5 6.5t-13.5 17.5l-101 232zM616 805q10 -19 -15 -29l-191 -77q-8 -3 -15 -3t-12 8l-22 52q-3 5 -1.5 11t12.5 13l184 107q13 7 19.5 4t9.5 -9z" />
    <glyph glyph-name="nacute" unicode="&#x144;" horiz-adv-x="557" 
d="M249 448h2q19 13 41 23t44 17t43 11t38 4q53 0 79.5 -18t36 -46.5t6.5 -64t-10 -69.5l-55 -283q-1 -7 -6 -14.5t-19 -7.5h-113q-13 0 -16 6t-1 16l51 260q8 47 -3.5 61.5t-41.5 14.5q-11 0 -24.5 -3t-27 -7.5t-26 -9.5t-21.5 -8l-60 -308q-1 -7 -6.5 -14.5t-19.5 -7.5
h-112q-12 0 -15.5 6t-1.5 16l87 450q2 10 8 16t18 6h112q14 0 16.5 -7t0.5 -15zM479 731q19 -11 0 -32l-148 -151q-6 -7 -12.5 -10.5t-14.5 1.5l-47 29q-6 4 -8 9.5t6 14.5l126 173q8 11 16.5 12.5t14.5 -2.5z" />
    <glyph glyph-name="Ncommaaccent" unicode="&#x145;" horiz-adv-x="667" 
d="M260 387h-3l-70 -365q-2 -8 -6.5 -15t-18.5 -7h-114q-19 0 -19 15q0 2 0.5 3.5t0.5 3.5l120 620q2 9 8 15.5t19 6.5h83q23 0 29.5 -7.5t12.5 -20.5l154 -354h4q17 91 34 180t34 179q2 8 6.5 15.5t18.5 7.5h114q19 0 19 -15q0 -5 -1 -8q-31 -155 -61 -309.5t-60 -310.5
q-2 -9 -7.5 -15t-18.5 -6h-83q-17 0 -25.5 6.5t-13.5 17.5l-101 232zM277 -26q17 12 26.5 8t20.5 -16q14 -16 19.5 -37.5t5.5 -44.5q0 -34 -12.5 -64t-32 -55.5t-43.5 -45t-46 -31.5q-13 -7 -21.5 -5t-15.5 10l-21 27q-9 12 -7 18t18 21q40 34 40 69q0 25 -17 50
q-10 14 -9 23.5t21 23.5z" />
    <glyph glyph-name="ncommaaccent" unicode="&#x146;" horiz-adv-x="557" 
d="M249 448h2q19 13 41 23t44 17t43 11t38 4q53 0 79.5 -18t36 -46.5t6.5 -64t-10 -69.5l-55 -283q-1 -7 -6 -14.5t-19 -7.5h-113q-13 0 -16 6t-1 16l51 260q8 47 -3.5 61.5t-41.5 14.5q-11 0 -24.5 -3t-27 -7.5t-26 -9.5t-21.5 -8l-60 -308q-1 -7 -6.5 -14.5t-19.5 -7.5
h-112q-12 0 -15.5 6t-1.5 16l87 450q2 10 8 16t18 6h112q14 0 16.5 -7t0.5 -15zM199 -46q17 12 26.5 8t20.5 -16q14 -16 19.5 -37.5t5.5 -44.5q0 -34 -12.5 -64t-32 -55.5t-43.5 -45t-46 -31.5q-13 -7 -21.5 -5t-15.5 10l-21 27q-9 12 -7 18t18 21q40 34 40 69q0 25 -17 50
q-10 14 -9 23.5t21 23.5z" />
    <glyph glyph-name="Ncaron" unicode="&#x147;" horiz-adv-x="667" 
d="M260 387h-3l-70 -365q-2 -8 -6.5 -15t-18.5 -7h-114q-19 0 -19 15q0 2 0.5 3.5t0.5 3.5l120 620q2 9 8 15.5t19 6.5h83q23 0 29.5 -7.5t12.5 -20.5l154 -354h4q17 91 34 180t34 179q2 8 6.5 15.5t18.5 7.5h114q19 0 19 -15q0 -5 -1 -8q-31 -155 -61 -309.5t-60 -310.5
q-2 -9 -7.5 -15t-18.5 -6h-83q-17 0 -25.5 6.5t-13.5 17.5l-101 232zM585 896q12 8 18 8.5t13 -7.5l34 -34q6 -7 6 -12t-11 -15l-149 -127q-9 -9 -17 -13.5t-26 -4.5h-64q-20 0 -25.5 3.5t-10.5 11.5l-97 132q-7 10 -5.5 15t10.5 13l38 31q10 8 15.5 7.5t13.5 -8.5l106 -99z
" />
    <glyph glyph-name="ncaron" unicode="&#x148;" horiz-adv-x="557" 
d="M249 448h2q19 13 41 23t44 17t43 11t38 4q53 0 79.5 -18t36 -46.5t6.5 -64t-10 -69.5l-55 -283q-1 -7 -6 -14.5t-19 -7.5h-113q-13 0 -16 6t-1 16l51 260q8 47 -3.5 61.5t-41.5 14.5q-11 0 -24.5 -3t-27 -7.5t-26 -9.5t-21.5 -8l-60 -308q-1 -7 -6.5 -14.5t-19.5 -7.5
h-112q-12 0 -15.5 6t-1.5 16l87 450q2 10 8 16t18 6h112q14 0 16.5 -7t0.5 -15zM472 740q11 8 17 9t13 -7l34 -34q6 -8 6 -12.5t-10 -14.5l-149 -135q-10 -9 -18 -13.5t-26 -4.5h-64q-19 0 -25 3.5t-11 12.5l-97 139q-7 9 -5 14.5t10 12.5l39 32q9 8 14.5 7.5t13.5 -8.5
l106 -107z" />
    <glyph glyph-name="napostrophe" unicode="&#x149;" horiz-adv-x="693" 
d="M385 448h2q19 13 41 23t44 17t43 11t38 4q53 0 79.5 -18t36 -46.5t6.5 -64t-10 -69.5l-55 -283q-1 -7 -6 -14.5t-19 -7.5h-113q-13 0 -16 6t-1 16l51 260q8 47 -3.5 61.5t-41.5 14.5q-11 0 -24.5 -3t-27 -7.5t-26 -9.5t-21.5 -8l-60 -308q-1 -7 -6.5 -14.5t-19.5 -7.5
h-112q-12 0 -15.5 6t-1.5 16l87 450q2 10 8 16t18 6h112q14 0 16.5 -7t0.5 -15zM178 724q17 12 26.5 8t20.5 -16q14 -16 19.5 -37.5t5.5 -44.5q0 -34 -12.5 -64t-32 -55.5t-43.5 -45t-46 -31.5q-13 -7 -21.5 -5t-15.5 10l-21 27q-9 12 -7 18t18 21q40 34 40 69q0 25 -17 50
q-10 14 -9 23.5t21 23.5z" />
    <glyph glyph-name="Eng" unicode="&#x14a;" horiz-adv-x="667" 
d="M254 365l-67 -343q-1 -7 -6 -14.5t-19 -7.5h-113q-13 0 -17 6t-2 16l121 621q2 9 8 15.5t18 6.5h85q20 0 26 -5.5t11 -16.5l108 -234l51 -111h3l67 344q2 8 7 15.5t19 7.5h114q12 0 15.5 -6.5t1.5 -16.5l-136 -697q-6 -32 -18 -61.5t-34.5 -52.5t-59.5 -37t-92 -14
q-13 0 -34 2t-35 7q-11 4 -7 19l19 92q3 8 7 10t12 2q23 1 39 4t26.5 10t17 19t10.5 30l11 60l-98 206l-56 124h-3z" />
    <glyph glyph-name="eng" unicode="&#x14b;" horiz-adv-x="555" 
d="M249 448h2q19 13 41 23t44 17t43 11t38 4q53 0 79.5 -18t36 -46.5t6.5 -64t-10 -69.5l-70 -352q-8 -38 -22 -69.5t-37.5 -54.5t-58 -35.5t-82.5 -12.5q-6 0 -15.5 0.5t-20 1t-20.5 2t-17 4.5q-11 4 -8 19l20 92q2 8 6.5 10t12.5 2q49 1 68.5 17t24.5 46q1 4 4.5 23t9 46
t11.5 59.5t12.5 65.5t12.5 62.5t10 50.5q8 47 -3.5 61.5t-41.5 14.5q-11 0 -24.5 -3t-27 -7.5t-26 -9.5t-21.5 -8l-60 -308q-1 -7 -6.5 -14.5t-19.5 -7.5h-112q-12 0 -15.5 6t-1.5 16l87 450q2 10 8 16t18 6h112q14 0 16.5 -7t0.5 -15z" />
    <glyph glyph-name="Omacron" unicode="&#x14c;" horiz-adv-x="687" 
d="M418 673q74 0 122 -20t76 -54t38 -79.5t9 -95.5q0 -21 -2.5 -42t-5.5 -41q-9 -63 -28.5 -125.5t-58 -112.5t-101.5 -81t-159 -31q-70 0 -116 18.5t-73 50t-37.5 73.5t-10.5 90q0 30 3 59.5t8 58.5q8 50 27 108t57 108t99 83t153 33zM402 533q-34 0 -58.5 -14t-42 -40.5
t-29.5 -64t-21 -84.5q-5 -24 -7.5 -46t-3.5 -42q-2 -56 19 -83.5t70 -27.5q37 0 62.5 13.5t43.5 39.5t30.5 62.5t21.5 83.5q5 27 8 50.5t3 44.5q2 57 -21 82.5t-75 25.5zM287 711q-23 0 -17 21l13 72q4 21 26 21h304q13 0 16 -4.5t1 -15.5l-15 -73q-2 -11 -7 -16t-17 -5
h-304z" />
    <glyph glyph-name="omacron" unicode="&#x14d;" horiz-adv-x="548" 
d="M318 504q57 0 96 -14t63 -38t34 -57t10 -71q0 -18 -2 -35.5t-5 -34.5q-8 -46 -21.5 -93t-42 -84.5t-78 -61t-129.5 -23.5q-59 0 -98 15t-62 40.5t-32.5 59t-9.5 71.5q0 20 2.5 39t5.5 37q7 40 22 84t45 81t78.5 61t123.5 24zM301 370q-23 0 -39 -9t-27 -25t-17.5 -38.5
t-11.5 -49.5q-3 -17 -5 -31.5t-2 -27.5q0 -35 13.5 -49.5t43.5 -14.5q25 0 42 8.5t28 24.5t17.5 38.5t11.5 51.5q3 17 5 31.5t2 28.5q0 33 -14.5 47.5t-46.5 14.5zM189 566q-21 0 -17 22l14 72q4 21 26 21h304q12 0 15 -4.5t1 -15.5l-15 -73q-2 -11 -6.5 -16.5t-16.5 -5.5
h-305z" />
    <glyph glyph-name="Obreve" unicode="&#x14e;" horiz-adv-x="687" 
d="M418 673q74 0 122 -20t76 -54t38 -79.5t9 -95.5q0 -21 -2.5 -42t-5.5 -41q-9 -63 -28.5 -125.5t-58 -112.5t-101.5 -81t-159 -31q-70 0 -116 18.5t-73 50t-37.5 73.5t-10.5 90q0 30 3 59.5t8 58.5q8 50 27 108t57 108t99 83t153 33zM402 533q-34 0 -58.5 -14t-42 -40.5
t-29.5 -64t-21 -84.5q-5 -24 -7.5 -46t-3.5 -42q-2 -56 19 -83.5t70 -27.5q37 0 62.5 13.5t43.5 39.5t30.5 62.5t21.5 83.5q5 27 8 50.5t3 44.5q2 57 -21 82.5t-75 25.5zM449 692q-29 0 -57.5 6.5t-53 20.5t-44.5 34.5t-30 49.5q-5 13 -5 24t14 20l42 28q12 8 19 6.5
t15 -14.5q19 -29 44.5 -46.5t62.5 -17.5q65 0 131 66q12 12 19.5 14t17.5 -6l36 -27q13 -9 8 -20.5t-17 -26.5q-42 -57 -96.5 -84t-105.5 -27z" />
    <glyph glyph-name="obreve" unicode="&#x14f;" horiz-adv-x="548" 
d="M318 504q57 0 96 -14t63 -38t34 -57t10 -71q0 -18 -2 -35.5t-5 -34.5q-8 -46 -21.5 -93t-42 -84.5t-78 -61t-129.5 -23.5q-59 0 -98 15t-62 40.5t-32.5 59t-9.5 71.5q0 20 2.5 39t5.5 37q7 40 22 84t45 81t78.5 61t123.5 24zM301 370q-23 0 -39 -9t-27 -25t-17.5 -38.5
t-11.5 -49.5q-3 -17 -5 -31.5t-2 -27.5q0 -35 13.5 -49.5t43.5 -14.5q25 0 42 8.5t28 24.5t17.5 38.5t11.5 51.5q3 17 5 31.5t2 28.5q0 33 -14.5 47.5t-46.5 14.5zM343 534q-28 0 -56.5 6.5t-54 20.5t-45 34.5t-29.5 49.5q-5 13 -5.5 24t13.5 20l43 28q11 8 18 6.5t15 -14.5
q20 -29 45.5 -46.5t62.5 -17.5q64 0 130 66q12 12 19.5 14t18.5 -6l37 -28q13 -8 8 -20t-17 -27q-42 -57 -97 -83.5t-106 -26.5z" />
    <glyph glyph-name="Ohungarumlaut" unicode="&#x150;" horiz-adv-x="687" 
d="M418 673q74 0 122 -20t76 -54t38 -79.5t9 -95.5q0 -21 -2.5 -42t-5.5 -41q-9 -63 -28.5 -125.5t-58 -112.5t-101.5 -81t-159 -31q-70 0 -116 18.5t-73 50t-37.5 73.5t-10.5 90q0 30 3 59.5t8 58.5q8 50 27 108t57 108t99 83t153 33zM402 533q-34 0 -58.5 -14t-42 -40.5
t-29.5 -64t-21 -84.5q-5 -24 -7.5 -46t-3.5 -42q-2 -56 19 -83.5t70 -27.5q37 0 62.5 13.5t43.5 39.5t30.5 62.5t21.5 83.5q5 27 8 50.5t3 44.5q2 57 -21 82.5t-75 25.5zM516 815q10 -18 -13 -30l-186 -94q-8 -5 -15 -6t-12 7l-28 48q-4 5 -4 11t11 13l176 124q11 8 18.5 6
t10.5 -8zM746 815q10 -18 -12 -30l-187 -94q-8 -5 -14.5 -6t-11.5 7l-29 48q-4 5 -4 11t11 13l176 124q12 8 19 6t11 -8z" />
    <glyph glyph-name="ohungarumlaut" unicode="&#x151;" horiz-adv-x="548" 
d="M318 504q57 0 96 -14t63 -38t34 -57t10 -71q0 -18 -2 -35.5t-5 -34.5q-8 -46 -21.5 -93t-42 -84.5t-78 -61t-129.5 -23.5q-59 0 -98 15t-62 40.5t-32.5 59t-9.5 71.5q0 20 2.5 39t5.5 37q7 40 22 84t45 81t78.5 61t123.5 24zM301 370q-23 0 -39 -9t-27 -25t-17.5 -38.5
t-11.5 -49.5q-3 -17 -5 -31.5t-2 -27.5q0 -35 13.5 -49.5t43.5 -14.5q25 0 42 8.5t28 24.5t17.5 38.5t11.5 51.5q3 17 5 31.5t2 28.5q0 33 -14.5 47.5t-46.5 14.5zM429 731q18 -11 -1 -32l-147 -151q-6 -7 -12.5 -10.5t-15.5 1.5l-46 29q-6 4 -8 9.5t6 14.5l126 173
q8 11 16 12.5t14 -2.5zM605 731q19 -11 0 -32l-147 -151q-6 -7 -13 -10.5t-15 1.5l-46 29q-6 4 -8 9.5t6 14.5l126 173q8 11 16 12.5t14 -2.5z" />
    <glyph glyph-name="OE" unicode="&#x152;" horiz-adv-x="842" 
d="M418 673q45 0 83 -8h366q21 0 16 -22l-18 -94q-2 -9 -7 -15t-18 -6h-255l-22 -116h222q22 0 17 -22l-18 -94q-2 -9 -7 -14.5t-18 -5.5h-222l-27 -140h262q20 0 17 -22l-18 -94q-2 -9 -7 -14.5t-18 -5.5h-346q-41 -9 -92 -9q-70 0 -116 18.5t-73 50t-37.5 73.5t-10.5 90
q0 30 3 59.5t8 58.5q8 50 27 108t57 108t99 83t153 33zM329 131h9t8 1l78 399q-5 1 -10.5 1.5t-11.5 0.5q-34 0 -58.5 -14t-42 -40.5t-29.5 -64t-21 -84.5q-5 -24 -7.5 -46t-3.5 -42q-2 -56 19 -83.5t70 -27.5z" />
    <glyph glyph-name="oe" unicode="&#x153;" horiz-adv-x="847" 
d="M318 504q56 0 94 -13t62 -36q30 21 72 33.5t99 12.5q35 0 67.5 -8t57 -24.5t39 -42t14.5 -59.5q0 -59 -31.5 -95t-78.5 -55.5t-101.5 -27t-100.5 -9.5q-4 -11 -4 -25t6 -22t17 -12t26 -5t33 -1q34 0 65.5 2t73.5 7q11 2 18 -0.5t7 -16.5v-48q0 -20 -6.5 -28.5
t-28.5 -16.5q-17 -6 -39 -10.5t-46 -7t-48 -4t-45 -1.5q-44 0 -79 9.5t-61 29.5q-28 -18 -66.5 -28t-90.5 -10q-59 0 -98 15t-62 40.5t-32.5 59t-9.5 71.5q0 20 2.5 39t5.5 37q7 40 22 84t45 81t78.5 61t123.5 24zM301 370q-23 0 -39 -9t-27 -25t-17.5 -38.5t-11.5 -49.5
q-3 -17 -5 -31.5t-2 -27.5q0 -35 13.5 -49.5t43.5 -14.5q25 0 42 8.5t28 24.5t17.5 38.5t11.5 51.5q3 17 5 31.5t2 28.5q0 33 -14.5 47.5t-46.5 14.5zM661 349q0 14 -11.5 23t-32.5 9q-22 0 -37 -9.5t-25.5 -24t-17 -32.5t-11.5 -35q22 1 46 5t43.5 12t32.5 20.5t13 31.5z
" />
    <glyph glyph-name="Racute" unicode="&#x154;" horiz-adv-x="600" 
d="M531 26q6 -26 -18 -26h-111q-16 0 -24.5 4.5t-11.5 17.5q-8 28 -17.5 66t-17.5 72.5t-13.5 60.5t-6.5 31h-77l-44 -230q-1 -7 -6 -14.5t-18 -7.5h-119q-13 0 -17 6t-2 16l121 621q2 9 8 15.5t19 6.5l243 -1q38 0 71.5 -9.5t58.5 -30.5t39.5 -53t14.5 -77q0 -67 -36 -123
t-108 -90zM288 528l-27 -145h78q18 0 35 5t30.5 16t21.5 28t8 41q0 30 -19 42.5t-50 12.5h-77zM573 805q10 -19 -15 -29l-191 -77q-8 -3 -15 -3t-12 8l-22 52q-3 5 -1.5 11t12.5 13l184 107q13 7 19.5 4t9.5 -9z" />
    <glyph glyph-name="racute" unicode="&#x155;" horiz-adv-x="410" 
d="M258 412l1 -2q16 18 37 33t42.5 27t42 19.5t36.5 9.5q19 3 25.5 -0.5t4.5 -22.5l-8 -102q-1 -14 -6.5 -20t-27.5 -10q-46 -8 -90 -23t-82 -32l-51 -267q-2 -7 -6.5 -14.5t-18.5 -7.5h-113q-13 0 -16.5 6t-1.5 16l87 450q2 10 8 16t18 6h113q14 0 16.5 -7.5t0.5 -14.5z
M420 731q19 -11 0 -32l-148 -151q-6 -7 -12.5 -10.5t-14.5 1.5l-47 29q-6 4 -8 9.5t6 14.5l126 173q8 11 16.5 12.5t14.5 -2.5z" />
    <glyph glyph-name="Rcommaaccent" unicode="&#x156;" horiz-adv-x="600" 
d="M531 26q6 -26 -18 -26h-111q-16 0 -24.5 4.5t-11.5 17.5q-8 28 -17.5 66t-17.5 72.5t-13.5 60.5t-6.5 31h-77l-44 -230q-1 -7 -6 -14.5t-18 -7.5h-119q-13 0 -17 6t-2 16l121 621q2 9 8 15.5t19 6.5l243 -1q38 0 71.5 -9.5t58.5 -30.5t39.5 -53t14.5 -77q0 -67 -36 -123
t-108 -90zM288 528l-27 -145h78q18 0 35 5t30.5 16t21.5 28t8 41q0 30 -19 42.5t-50 12.5h-77zM253 -26q17 12 26.5 8t20.5 -16q14 -16 19.5 -37.5t5.5 -44.5q0 -34 -12.5 -64t-32 -55.5t-43.5 -45t-46 -31.5q-13 -7 -21.5 -5t-15.5 10l-21 27q-9 12 -7 18t18 21
q40 34 40 69q0 25 -17 50q-10 14 -9 23.5t21 23.5z" />
    <glyph glyph-name="rcommaaccent" unicode="&#x157;" horiz-adv-x="410" 
d="M258 412l1 -2q16 18 37 33t42.5 27t42 19.5t36.5 9.5q19 3 25.5 -0.5t4.5 -22.5l-8 -102q-1 -14 -6.5 -20t-27.5 -10q-46 -8 -90 -23t-82 -32l-51 -267q-2 -7 -6.5 -14.5t-18.5 -7.5h-113q-13 0 -16.5 6t-1.5 16l87 450q2 10 8 16t18 6h113q14 0 16.5 -7.5t0.5 -14.5z
M84 -46q17 12 26.5 8t20.5 -16q14 -16 19.5 -37.5t5.5 -44.5q0 -34 -12.5 -64t-32 -55.5t-43.5 -45t-46 -31.5q-13 -7 -21.5 -5t-15.5 10l-21 27q-9 12 -7 18t18 21q40 34 40 69q0 25 -17 50q-10 14 -9 23.5t21 23.5z" />
    <glyph glyph-name="Rcaron" unicode="&#x158;" horiz-adv-x="600" 
d="M531 26q6 -26 -18 -26h-111q-16 0 -24.5 4.5t-11.5 17.5q-8 28 -17.5 66t-17.5 72.5t-13.5 60.5t-6.5 31h-77l-44 -230q-1 -7 -6 -14.5t-18 -7.5h-119q-13 0 -17 6t-2 16l121 621q2 9 8 15.5t19 6.5l243 -1q38 0 71.5 -9.5t58.5 -30.5t39.5 -53t14.5 -77q0 -67 -36 -123
t-108 -90zM288 528l-27 -145h78q18 0 35 5t30.5 16t21.5 28t8 41q0 30 -19 42.5t-50 12.5h-77zM542 896q12 8 18 8.5t13 -7.5l34 -34q6 -7 6 -12t-11 -15l-149 -127q-9 -9 -17 -13.5t-26 -4.5h-64q-20 0 -25.5 3.5t-10.5 11.5l-97 132q-7 10 -5.5 15t10.5 13l38 31
q10 8 15.5 7.5t13.5 -8.5l106 -99z" />
    <glyph glyph-name="rcaron" unicode="&#x159;" horiz-adv-x="410" 
d="M258 412l1 -2q16 18 37 33t42.5 27t42 19.5t36.5 9.5q19 3 25.5 -0.5t4.5 -22.5l-8 -102q-1 -14 -6.5 -20t-27.5 -10q-46 -8 -90 -23t-82 -32l-51 -267q-2 -7 -6.5 -14.5t-18.5 -7.5h-113q-13 0 -16.5 6t-1.5 16l87 450q2 10 8 16t18 6h113q14 0 16.5 -7.5t0.5 -14.5z
M414 740q11 8 17 9t13 -7l34 -34q6 -8 6 -12.5t-10 -14.5l-149 -135q-10 -9 -18 -13.5t-26 -4.5h-64q-19 0 -25 3.5t-11 12.5l-97 139q-7 9 -5 14.5t10 12.5l39 32q9 8 14.5 7.5t13.5 -8.5l106 -107z" />
    <glyph glyph-name="Sacute" unicode="&#x15a;" horiz-adv-x="580" 
d="M241 -9q-16 0 -41 1.5t-53 5t-56 9.5t-50 15q-23 10 -24 19.5t4 23.5l23 60q8 20 16 22.5t28 -0.5q36 -6 83 -10t89 -4q51 0 82 16.5t32 52.5q1 25 -17 36.5t-60 22.5q-47 14 -85 29t-65 36t-41.5 51t-14.5 75q0 58 23.5 99.5t62.5 68t90 39t107 12.5q14 0 37 -0.5
t49 -3.5t52.5 -9t49.5 -16t24.5 -19.5t-4.5 -23.5l-24 -60q-5 -11 -8.5 -15.5t-9 -6t-12.5 -1t-18 1.5q-32 5 -67.5 8t-80.5 3q-18 0 -35.5 -2.5t-31 -9t-22 -19t-8.5 -32.5q0 -22 17.5 -32t58.5 -19q36 -8 73.5 -20t67.5 -33t49 -53.5t19 -82.5q0 -66 -24.5 -110.5
t-66.5 -72.5t-98.5 -40t-119.5 -12zM551 805q10 -19 -15 -29l-191 -77q-8 -3 -15 -3t-12 8l-22 52q-3 5 -1.5 11t12.5 13l184 107q13 7 19.5 4t9.5 -9z" />
    <glyph glyph-name="sacute" unicode="&#x15b;" horiz-adv-x="487" 
d="M302 504q16 0 36.5 -1.5t40.5 -4.5t39.5 -7t34.5 -10q19 -7 26.5 -14.5t-0.5 -27.5l-22 -52q-5 -14 -10.5 -17t-23.5 -1q-16 2 -35.5 4t-38.5 3.5t-35.5 3t-27.5 1.5q-35 1 -48 -8t-14 -27q-1 -8 4 -13t13 -8.5t18 -6t19 -3.5q31 -5 61 -12.5t53 -22t37.5 -38.5t14.5 -61
q0 -59 -22 -96t-57.5 -58t-81 -28.5t-93.5 -7.5q-18 0 -39.5 1.5t-42.5 4.5t-40 7t-33 9q-23 9 -28 19.5t4 30.5l20 48q6 15 12.5 18t22.5 0q34 -6 74 -9.5t66 -3.5q36 0 55 8.5t21 31.5q2 18 -11 24t-36 11q-34 6 -65 14.5t-54.5 23.5t-37.5 39t-14 61q0 51 19.5 84.5
t52.5 53.5t76 28.5t90 8.5zM469 731q19 -11 0 -32l-148 -151q-6 -7 -12.5 -10.5t-14.5 1.5l-47 29q-6 4 -8 9.5t6 14.5l126 173q8 11 16.5 12.5t14.5 -2.5z" />
    <glyph glyph-name="Scircumflex" unicode="&#x15c;" horiz-adv-x="580" 
d="M241 -9q-16 0 -41 1.5t-53 5t-56 9.5t-50 15q-23 10 -24 19.5t4 23.5l23 60q8 20 16 22.5t28 -0.5q36 -6 83 -10t89 -4q51 0 82 16.5t32 52.5q1 25 -17 36.5t-60 22.5q-47 14 -85 29t-65 36t-41.5 51t-14.5 75q0 58 23.5 99.5t62.5 68t90 39t107 12.5q14 0 37 -0.5
t49 -3.5t52.5 -9t49.5 -16t24.5 -19.5t-4.5 -23.5l-24 -60q-5 -11 -8.5 -15.5t-9 -6t-12.5 -1t-18 1.5q-32 5 -67.5 8t-80.5 3q-18 0 -35.5 -2.5t-31 -9t-22 -19t-8.5 -32.5q0 -22 17.5 -32t58.5 -19q36 -8 73.5 -20t67.5 -33t49 -53.5t19 -82.5q0 -66 -24.5 -110.5
t-66.5 -72.5t-98.5 -40t-119.5 -12zM247 689q-12 -8 -18 -9t-12 7l-32 35q-5 8 -5.5 12.5t10.5 14.5l150 121q10 9 18 13.5t25 4.5h64q18 0 24 -3.5t12 -11.5l100 -124q7 -9 5 -14.5t-11 -13.5l-34 -30q-10 -8 -15 -6.5t-13 8.5l-113 91z" />
    <glyph glyph-name="scircumflex" unicode="&#x15d;" horiz-adv-x="487" 
d="M302 504q16 0 36.5 -1.5t40.5 -4.5t39.5 -7t34.5 -10q19 -7 26.5 -14.5t-0.5 -27.5l-22 -52q-5 -14 -10.5 -17t-23.5 -1q-16 2 -35.5 4t-38.5 3.5t-35.5 3t-27.5 1.5q-35 1 -48 -8t-14 -27q-1 -8 4 -13t13 -8.5t18 -6t19 -3.5q31 -5 61 -12.5t53 -22t37.5 -38.5t14.5 -61
q0 -59 -22 -96t-57.5 -58t-81 -28.5t-93.5 -7.5q-18 0 -39.5 1.5t-42.5 4.5t-40 7t-33 9q-23 9 -28 19.5t4 30.5l20 48q6 15 12.5 18t22.5 0q34 -6 74 -9.5t66 -3.5q36 0 55 8.5t21 31.5q2 18 -11 24t-36 11q-34 6 -65 14.5t-54.5 23.5t-37.5 39t-14 61q0 51 19.5 84.5
t52.5 53.5t76 28.5t90 8.5zM168 529q-11 -7 -17 -8t-13 7l-34 34q-6 8 -6 12.5t10 14.5l149 135q10 8 18 13t26 5h64q19 0 25 -3.5t11 -12.5l97 -139q7 -10 5 -15t-10 -12l-39 -32q-9 -8 -14.5 -7.5t-13.5 8.5l-111 106z" />
    <glyph glyph-name="Scedilla" unicode="&#x15e;" horiz-adv-x="580" 
d="M247 -127q0 17 -15.5 22t-51.5 7q-23 2 -10 24l35 66q-37 2 -83.5 8.5t-80.5 21.5q-23 10 -24 19.5t4 23.5l23 60q8 20 16 22.5t28 -0.5q36 -6 83 -10t89 -4q51 0 82 16.5t32 52.5q1 25 -17 36.5t-60 22.5q-47 14 -85 29t-65 36t-41.5 51t-14.5 75q0 58 23.5 99.5
t62.5 68t90 39t107 12.5q14 0 37 -0.5t49 -3.5t52.5 -9t49.5 -16t24.5 -19.5t-4.5 -23.5l-24 -60q-5 -11 -8.5 -15.5t-9 -6t-12.5 -1t-18 1.5q-32 5 -67.5 8t-80.5 3q-18 0 -35.5 -2.5t-31 -9t-22 -19t-8.5 -32.5q0 -22 17.5 -32t58.5 -19q36 -8 73.5 -20t67.5 -33t49 -53.5
t19 -82.5q0 -62 -22 -105.5t-59.5 -71t-89 -41t-109.5 -16.5l-22 -40q47 -2 68 -22t21 -48q0 -54 -42.5 -85.5t-117.5 -31.5q-7 0 -18 0.5t-22.5 2t-23 4t-19.5 5.5q-10 4 -6 12l15 41q3 7 14 6q14 -2 32.5 -3.5t31.5 -1.5q12 0 23.5 2t21 6.5t15.5 13t6 20.5z" />
    <glyph glyph-name="scedilla" unicode="&#x15f;" horiz-adv-x="487" 
d="M206 -127q0 17 -15.5 22t-51.5 7q-23 2 -10 24l35 66q-34 2 -70 7.5t-59 13.5q-23 9 -28 19.5t4 30.5l20 48q6 15 12.5 18t22.5 0q34 -6 74 -9.5t66 -3.5q36 0 55 8.5t21 31.5q2 18 -11 24t-36 11q-34 6 -65 14.5t-54.5 23.5t-37.5 39t-14 61q0 51 19.5 84.5t52.5 53.5
t76 28.5t90 8.5q16 0 36.5 -1.5t40.5 -4.5t39.5 -7t34.5 -10q19 -7 26.5 -14.5t-0.5 -27.5l-22 -52q-5 -14 -10.5 -17t-23.5 -1q-16 2 -35.5 4t-38.5 3.5t-35.5 3t-27.5 1.5q-35 1 -48 -8t-14 -27q-1 -8 4 -13t13 -8.5t18 -6t19 -3.5q31 -5 61 -12.5t53 -22t37.5 -38.5
t14.5 -61q0 -53 -17.5 -87.5t-47.5 -56.5t-68.5 -32t-80.5 -13l-23 -40q47 -2 68 -22t21 -48q0 -54 -42.5 -85.5t-117.5 -31.5q-7 0 -18 0.5t-22.5 2t-23 4t-19.5 5.5q-10 4 -6 12l15 41q3 7 14 6q14 -2 32.5 -3.5t31.5 -1.5q12 0 23.5 2t21 6.5t15.5 13t6 20.5z" />
    <glyph glyph-name="Scaron" unicode="&#x160;" horiz-adv-x="580" 
d="M241 -9q-16 0 -41 1.5t-53 5t-56 9.5t-50 15q-23 10 -24 19.5t4 23.5l23 60q8 20 16 22.5t28 -0.5q36 -6 83 -10t89 -4q51 0 82 16.5t32 52.5q1 25 -17 36.5t-60 22.5q-47 14 -85 29t-65 36t-41.5 51t-14.5 75q0 58 23.5 99.5t62.5 68t90 39t107 12.5q14 0 37 -0.5
t49 -3.5t52.5 -9t49.5 -16t24.5 -19.5t-4.5 -23.5l-24 -60q-5 -11 -8.5 -15.5t-9 -6t-12.5 -1t-18 1.5q-32 5 -67.5 8t-80.5 3q-18 0 -35.5 -2.5t-31 -9t-22 -19t-8.5 -32.5q0 -22 17.5 -32t58.5 -19q36 -8 73.5 -20t67.5 -33t49 -53.5t19 -82.5q0 -66 -24.5 -110.5
t-66.5 -72.5t-98.5 -40t-119.5 -12zM543 896q12 8 18 8.5t13 -7.5l34 -34q6 -7 6 -12t-11 -15l-149 -127q-9 -9 -17 -13.5t-26 -4.5h-64q-20 0 -25.5 3.5t-10.5 11.5l-97 132q-7 10 -5.5 15t10.5 13l38 31q10 8 15.5 7.5t13.5 -8.5l106 -99z" />
    <glyph glyph-name="scaron" unicode="&#x161;" horiz-adv-x="487" 
d="M302 504q16 0 36.5 -1.5t40.5 -4.5t39.5 -7t34.5 -10q19 -7 26.5 -14.5t-0.5 -27.5l-22 -52q-5 -14 -10.5 -17t-23.5 -1q-16 2 -35.5 4t-38.5 3.5t-35.5 3t-27.5 1.5q-35 1 -48 -8t-14 -27q-1 -8 4 -13t13 -8.5t18 -6t19 -3.5q31 -5 61 -12.5t53 -22t37.5 -38.5t14.5 -61
q0 -59 -22 -96t-57.5 -58t-81 -28.5t-93.5 -7.5q-18 0 -39.5 1.5t-42.5 4.5t-40 7t-33 9q-23 9 -28 19.5t4 30.5l20 48q6 15 12.5 18t22.5 0q34 -6 74 -9.5t66 -3.5q36 0 55 8.5t21 31.5q2 18 -11 24t-36 11q-34 6 -65 14.5t-54.5 23.5t-37.5 39t-14 61q0 51 19.5 84.5
t52.5 53.5t76 28.5t90 8.5zM468 740q11 8 17 9t13 -7l34 -34q6 -8 6 -12.5t-10 -14.5l-149 -135q-10 -9 -18 -13.5t-26 -4.5h-64q-19 0 -25 3.5t-11 12.5l-97 139q-7 9 -5 14.5t10 12.5l39 32q9 8 14.5 7.5t13.5 -8.5l106 -107z" />
    <glyph glyph-name="Tcommaaccent" unicode="&#x162;" horiz-adv-x="519" 
d="M574 549q-2 -9 -8 -15t-19 -6h-145l-99 -506q-1 -7 -5.5 -14.5t-18.5 -7.5h-118q-13 0 -17 6t-2 16l98 506h-144q-14 0 -17 6t-1 15l18 94q2 10 7.5 16t19.5 6h452q22 0 17 -22zM199 -46q17 12 26.5 8t20.5 -16q14 -16 19.5 -37.5t5.5 -44.5q0 -34 -12.5 -64t-32 -55.5
t-43.5 -45t-46 -31.5q-13 -7 -21.5 -5t-15.5 10l-21 27q-9 12 -7 18t18 21q40 34 40 69q0 25 -17 50q-10 14 -9 23.5t21 23.5z" />
    <glyph glyph-name="tcommaaccent" unicode="&#x163;" horiz-adv-x="409" 
d="M370 45q1 -11 -6.5 -20t-17.5 -12q-19 -6 -40.5 -10t-41.5 -6.5t-38 -3.5t-30 -1q-47 0 -73.5 13.5t-38.5 35.5t-12 50.5t6 59.5l44 223h-44q-12 0 -15.5 5.5t-1.5 16.5l15 75q2 11 7.5 16.5t17.5 5.5h45l19 98q2 12 9 17.5t18 8.5l106 27q11 4 17.5 -0.5t4.5 -16.5
l-26 -134h102q14 0 16.5 -5t0.5 -16l-15 -76q-2 -11 -6.5 -16.5t-18.5 -5.5h-103l-35 -186q-3 -14 -3.5 -24t4 -16.5t16 -10t33.5 -3.5q12 0 31.5 1t38.5 3q10 0 15.5 -2t4.5 -19zM147 -46q17 12 26.5 8t20.5 -16q14 -16 19.5 -37.5t5.5 -44.5q0 -34 -12.5 -64t-32 -55.5
t-43.5 -45t-46 -31.5q-13 -7 -21.5 -5t-15.5 10l-21 27q-9 12 -7 18t18 21q40 34 40 69q0 25 -17 50q-10 14 -9 23.5t21 23.5z" />
    <glyph glyph-name="Tcaron" unicode="&#x164;" horiz-adv-x="519" 
d="M574 549q-2 -9 -8 -15t-19 -6h-145l-99 -506q-1 -7 -5.5 -14.5t-18.5 -7.5h-118q-13 0 -17 6t-2 16l98 506h-144q-14 0 -17 6t-1 15l18 94q2 10 7.5 16t19.5 6h452q22 0 17 -22zM516 896q12 8 18 8.5t13 -7.5l34 -34q6 -7 6 -12t-11 -15l-149 -127q-9 -9 -17 -13.5
t-26 -4.5h-64q-20 0 -25.5 3.5t-10.5 11.5l-97 132q-7 10 -5.5 15t10.5 13l38 31q10 8 15.5 7.5t13.5 -8.5l106 -99z" />
    <glyph glyph-name="tcaron" unicode="&#x165;" horiz-adv-x="503" 
d="M517 798q17 12 26.5 8t20.5 -16q14 -16 19.5 -37.5t5.5 -44.5q0 -34 -12.5 -64t-32 -55.5t-43.5 -45t-46 -31.5q-13 -7 -21.5 -5t-15.5 10l-21 27q-9 12 -7 18t18 21q40 34 40 69q0 25 -17 50q-10 14 -9 23.5t21 23.5zM370 45q1 -11 -6.5 -20t-17.5 -12q-19 -6 -40.5 -10
t-41.5 -6.5t-38 -3.5t-30 -1q-47 0 -73.5 13.5t-38.5 35.5t-12 50.5t6 59.5l44 223h-44q-12 0 -15.5 5.5t-1.5 16.5l15 75q2 11 7.5 16.5t17.5 5.5h45l19 98q2 12 9 17.5t18 8.5l106 27q11 4 17.5 -0.5t4.5 -16.5l-26 -134h102q14 0 16.5 -5t0.5 -16l-15 -76
q-2 -11 -6.5 -16.5t-18.5 -5.5h-103l-35 -186q-3 -14 -3.5 -24t4 -16.5t16 -10t33.5 -3.5q12 0 31.5 1t38.5 3q10 0 15.5 -2t4.5 -19z" />
    <glyph glyph-name="Tbar" unicode="&#x166;" horiz-adv-x="519" 
d="M574 549q-2 -9 -8 -15t-19 -6h-145l-26 -131h102q14 0 16.5 -5t0.5 -15l-8 -48q-3 -11 -7 -16t-17 -5h-104l-56 -286q-1 -7 -5.5 -14.5t-18.5 -7.5h-118q-13 0 -17 6t-2 16l55 286h-96q-12 0 -15 5t-1 16l8 47q4 21 24 21h97l26 131h-144q-14 0 -17 6t-1 15l18 94
q2 10 7.5 16t19.5 6h452q22 0 17 -22l-18 -94v0z" />
    <glyph glyph-name="tbar" unicode="&#x167;" horiz-adv-x="417" 
d="M377 45q1 -11 -6.5 -20t-17.5 -12q-19 -6 -40.5 -10t-41.5 -6.5t-38 -3.5t-30 -1q-47 0 -73.5 13.5t-38.5 35.5t-12 50.5t6 59.5l14 70h-44q-12 0 -13.5 5t0.5 16l8 39q2 11 6 16t15 5h44l14 72h-44q-12 0 -15.5 5.5t-1.5 16.5l15 75q2 11 7.5 16.5t17.5 5.5h45l19 98
q2 12 9 17.5t18 8.5l106 27q11 4 17.5 -0.5t4.5 -16.5l-26 -134h102q14 0 16.5 -5t0.5 -16l-15 -76q-2 -11 -6.5 -16.5t-18.5 -5.5h-103l-14 -72h92q14 0 15.5 -5t-0.5 -15l-8 -40q-3 -11 -6 -16t-16 -5h-92l-6 -33q-3 -14 -3.5 -24t4 -16.5t16 -10t33.5 -3.5q12 0 31.5 1
t38.5 3q10 0 15.5 -2t4.5 -19z" />
    <glyph glyph-name="Utilde" unicode="&#x168;" horiz-adv-x="653" 
d="M311 132q101 0 125 119l75 391q2 10 8 16.5t19 6.5h117q14 0 16.5 -7.5t0.5 -15.5l-77 -394q-11 -60 -34 -107.5t-59 -81t-86.5 -51t-116.5 -17.5q-65 0 -113 18t-76.5 52t-38 81t2.5 106l77 394q2 10 7.5 16.5t19.5 6.5h117q14 0 16 -7.5t0 -15.5l-76 -391
q-23 -119 76 -119zM370 855q22 0 42.5 -7t39.5 -16t36.5 -16t33.5 -7q14 0 28 7.5t28 28.5q7 8 12.5 9.5t13.5 -3.5l42 -29q7 -5 8.5 -9t-3.5 -13q-17 -31 -34.5 -50.5t-35.5 -31t-37 -15.5t-38 -4q-17 0 -36.5 8t-39 17.5t-38 17.5t-34.5 8q-19 0 -34 -9.5t-35 -32.5
q-13 -16 -28 -5l-39 26q-3 2 -6 7.5t2 13.5q33 62 71 83.5t81 21.5z" />
    <glyph glyph-name="utilde" unicode="&#x169;" horiz-adv-x="552" 
d="M319 46l-2 1q-40 -26 -85.5 -40.5t-80.5 -14.5q-53 0 -79.5 16t-35.5 43t-5.5 62t10.5 73l56 286q2 7 6.5 14.5t18.5 7.5h113q13 0 16 -6t1 -16l-50 -260q-8 -42 2 -58.5t42 -16.5q23 0 51 10t45 17l59 308q2 7 7 14.5t19 7.5h112q23 0 18 -22l-88 -450q-2 -10 -7 -16
t-18 -6h-113q-14 0 -16 7t-1 15zM291 705q22 0 42.5 -7t39.5 -16t36.5 -16t33.5 -7q14 0 28 7.5t28 28.5q7 8 12.5 9.5t13.5 -3.5l42 -29q7 -5 8.5 -9t-3.5 -13q-17 -31 -34.5 -50.5t-35.5 -31t-37 -15.5t-38 -4q-17 0 -36.5 8t-39 17.5t-38 17.5t-34.5 8q-19 0 -34 -9.5
t-35 -32.5q-13 -16 -28 -5l-39 26q-3 2 -6 7.5t2 13.5q33 62 71 83.5t81 21.5z" />
    <glyph glyph-name="Umacron" unicode="&#x16a;" horiz-adv-x="653" 
d="M311 132q101 0 125 119l75 391q2 10 8 16.5t19 6.5h117q14 0 16.5 -7.5t0.5 -15.5l-77 -394q-11 -60 -34 -107.5t-59 -81t-86.5 -51t-116.5 -17.5q-65 0 -113 18t-76.5 52t-38 81t2.5 106l77 394q2 10 7.5 16.5t19.5 6.5h117q14 0 16 -7.5t0 -15.5l-76 -391
q-23 -119 76 -119zM272 711q-23 0 -17 21l13 72q4 21 26 21h304q13 0 16 -4.5t1 -15.5l-15 -73q-2 -11 -7 -16t-17 -5h-304z" />
    <glyph glyph-name="umacron" unicode="&#x16b;" horiz-adv-x="552" 
d="M319 46l-2 1q-40 -26 -85.5 -40.5t-80.5 -14.5q-53 0 -79.5 16t-35.5 43t-5.5 62t10.5 73l56 286q2 7 6.5 14.5t18.5 7.5h113q13 0 16 -6t1 -16l-50 -260q-8 -42 2 -58.5t42 -16.5q23 0 51 10t45 17l59 308q2 7 7 14.5t19 7.5h112q23 0 18 -22l-88 -450q-2 -10 -7 -16
t-18 -6h-113q-14 0 -16 7t-1 15zM187 566q-21 0 -17 22l14 72q4 21 26 21h304q12 0 15 -4.5t1 -15.5l-15 -73q-2 -11 -6.5 -16.5t-16.5 -5.5h-305z" />
    <glyph glyph-name="Ubreve" unicode="&#x16c;" horiz-adv-x="653" 
d="M311 132q101 0 125 119l75 391q2 10 8 16.5t19 6.5h117q14 0 16.5 -7.5t0.5 -15.5l-77 -394q-11 -60 -34 -107.5t-59 -81t-86.5 -51t-116.5 -17.5q-65 0 -113 18t-76.5 52t-38 81t2.5 106l77 394q2 10 7.5 16.5t19.5 6.5h117q14 0 16 -7.5t0 -15.5l-76 -391
q-23 -119 76 -119zM419 692q-29 0 -57.5 6.5t-53 20.5t-44.5 34.5t-30 49.5q-5 13 -5 24t14 20l42 28q12 8 19 6.5t15 -14.5q19 -29 44.5 -46.5t62.5 -17.5q65 0 131 66q12 12 19.5 14t17.5 -6l36 -27q13 -9 8 -20.5t-17 -26.5q-42 -57 -96.5 -84t-105.5 -27z" />
    <glyph glyph-name="ubreve" unicode="&#x16d;" horiz-adv-x="552" 
d="M319 46l-2 1q-40 -26 -85.5 -40.5t-80.5 -14.5q-53 0 -79.5 16t-35.5 43t-5.5 62t10.5 73l56 286q2 7 6.5 14.5t18.5 7.5h113q13 0 16 -6t1 -16l-50 -260q-8 -42 2 -58.5t42 -16.5q23 0 51 10t45 17l59 308q2 7 7 14.5t19 7.5h112q23 0 18 -22l-88 -450q-2 -10 -7 -16
t-18 -6h-113q-14 0 -16 7t-1 15zM343 534q-28 0 -56.5 6.5t-54 20.5t-45 34.5t-29.5 49.5q-5 13 -5.5 24t13.5 20l43 28q11 8 18 6.5t15 -14.5q20 -29 45.5 -46.5t62.5 -17.5q64 0 130 66q12 12 19.5 14t18.5 -6l37 -28q13 -8 8 -20t-17 -27q-42 -57 -97 -83.5t-106 -26.5z
" />
    <glyph glyph-name="Uring" unicode="&#x16e;" horiz-adv-x="653" 
d="M311 132q101 0 125 119l75 391q2 10 8 16.5t19 6.5h117q14 0 16.5 -7.5t0.5 -15.5l-77 -394q-11 -60 -34 -107.5t-59 -81t-86.5 -51t-116.5 -17.5q-65 0 -113 18t-76.5 52t-38 81t2.5 106l77 394q2 10 7.5 16.5t19.5 6.5h117q14 0 16 -7.5t0 -15.5l-76 -391
q-23 -119 76 -119zM420 673q-23 0 -43 7.5t-35 21t-23.5 32.5t-8.5 43q0 34 13 60.5t34 44.5t47 27.5t52 9.5q48 0 78.5 -31t30.5 -76q0 -30 -12 -55t-32.5 -44t-46.5 -29.5t-54 -10.5zM448 843q-23 0 -38.5 -17t-15.5 -40q0 -17 9.5 -27t26.5 -10q20 0 37.5 16.5t17.5 39.5
q0 17 -10 27.5t-27 10.5z" />
    <glyph glyph-name="uring" unicode="&#x16f;" horiz-adv-x="552" 
d="M319 46l-2 1q-40 -26 -85.5 -40.5t-80.5 -14.5q-53 0 -79.5 16t-35.5 43t-5.5 62t10.5 73l56 286q2 7 6.5 14.5t18.5 7.5h113q13 0 16 -6t1 -16l-50 -260q-8 -42 2 -58.5t42 -16.5q23 0 51 10t45 17l59 308q2 7 7 14.5t19 7.5h112q23 0 18 -22l-88 -450q-2 -10 -7 -16
t-18 -6h-113q-14 0 -16 7t-1 15zM342 530q-23 0 -43 7.5t-35 21t-23.5 32.5t-8.5 43q0 34 13 60.5t34 44.5t47 27.5t52 9.5q48 0 78.5 -31t30.5 -76q0 -30 -12 -55t-32.5 -44t-46.5 -29.5t-54 -10.5zM370 700q-23 0 -38.5 -17t-15.5 -40q0 -17 9.5 -27t26.5 -10
q20 0 37.5 16.5t17.5 39.5q0 17 -10 27.5t-27 10.5z" />
    <glyph glyph-name="Uhungarumlaut" unicode="&#x170;" horiz-adv-x="653" 
d="M311 132q101 0 125 119l75 391q2 10 8 16.5t19 6.5h117q14 0 16.5 -7.5t0.5 -15.5l-77 -394q-11 -60 -34 -107.5t-59 -81t-86.5 -51t-116.5 -17.5q-65 0 -113 18t-76.5 52t-38 81t2.5 106l77 394q2 10 7.5 16.5t19.5 6.5h117q14 0 16 -7.5t0 -15.5l-76 -391
q-23 -119 76 -119zM504 815q10 -18 -13 -30l-186 -94q-8 -5 -15 -6t-12 7l-28 48q-4 5 -4 11t11 13l176 124q11 8 18.5 6t10.5 -8zM734 815q10 -18 -12 -30l-187 -94q-8 -5 -14.5 -6t-11.5 7l-29 48q-4 5 -4 11t11 13l176 124q12 8 19 6t11 -8z" />
    <glyph glyph-name="uhungarumlaut" unicode="&#x171;" horiz-adv-x="552" 
d="M319 46l-2 1q-40 -26 -85.5 -40.5t-80.5 -14.5q-53 0 -79.5 16t-35.5 43t-5.5 62t10.5 73l56 286q2 7 6.5 14.5t18.5 7.5h113q13 0 16 -6t1 -16l-50 -260q-8 -42 2 -58.5t42 -16.5q23 0 51 10t45 17l59 308q2 7 7 14.5t19 7.5h112q23 0 18 -22l-88 -450q-2 -10 -7 -16
t-18 -6h-113q-14 0 -16 7t-1 15zM423 731q18 -11 -1 -32l-147 -151q-6 -7 -12.5 -10.5t-15.5 1.5l-46 29q-6 4 -8 9.5t6 14.5l126 173q8 11 16 12.5t14 -2.5zM599 731q19 -11 0 -32l-147 -151q-6 -7 -13 -10.5t-15 1.5l-46 29q-6 4 -8 9.5t6 14.5l126 173q8 11 16 12.5
t14 -2.5z" />
    <glyph glyph-name="Uogonek" unicode="&#x172;" horiz-adv-x="653" 
d="M311 132q101 0 125 119l75 391q2 10 8 16.5t19 6.5h117q14 0 16.5 -7.5t0.5 -15.5l-77 -394q-11 -58 -32.5 -104.5t-56 -79.5t-82 -52t-110.5 -21q-33 -43 -33 -80q0 -14 9.5 -19.5t26.5 -5.5q11 0 27 2t30 6q6 2 9 1t5 -8l6 -39q0 -11 -4 -15t-12 -7q-20 -9 -46.5 -15.5
t-56.5 -6.5q-49 0 -73.5 23t-24.5 59q0 32 12 58t38 54q-94 18 -133.5 84t-19.5 166l77 394q2 10 7.5 16.5t19.5 6.5h117q14 0 16 -7.5t0 -15.5l-76 -391q-23 -119 76 -119z" />
    <glyph glyph-name="uogonek" unicode="&#x173;" horiz-adv-x="552" 
d="M319 46l-2 1q-40 -26 -85.5 -40.5t-80.5 -14.5q-53 0 -79.5 16t-35.5 43t-5.5 62t10.5 73l56 286q2 7 6.5 14.5t18.5 7.5h113q13 0 16 -6t1 -16l-50 -260q-8 -42 2 -58.5t42 -16.5q23 0 51 10t45 17l59 308q2 7 7 14.5t19 7.5h112q23 0 18 -22l-88 -450q-2 -10 -7 -16
t-18 -6h-24q-40 -49 -40 -89q0 -14 9.5 -19.5t26.5 -5.5q11 0 27 2t30 6q6 2 9 1t5 -8l6 -39q0 -11 -4 -15t-12 -7q-20 -9 -46.5 -15.5t-56.5 -6.5q-49 0 -73.5 23t-24.5 59q0 32 13 59t40 55q-12 1 -14 7.5t-1 14.5z" />
    <glyph glyph-name="Wcircumflex" unicode="&#x174;" horiz-adv-x="874" 
d="M446 260l-44 -88l-73 -142q-7 -14 -16 -22t-32 -8h-94q-21 0 -29 7.5t-9 21.5l-50 610q-3 26 22 26h108q17 0 24 -6t9 -22l12 -260l7 -157h5l51 110q1 1 7 13.5t14.5 29.5t18 37t18 37.5t14 30t6.5 14.5l-17 148q-1 9 3 17t15 8h107q17 0 24.5 -5.5t8.5 -22.5l9 -135
q2 -26 3.5 -51t3 -45t2.5 -33.5t1 -15.5l7 -137h5l59 149q1 3 6.5 15.5t13.5 32t18 43.5t21 48q25 57 55 129q6 16 16.5 22t29.5 6h116q14 0 16 -7.5t-4 -19.5l-277 -609q-8 -14 -18 -21.5t-32 -7.5h-93q-23 0 -29.5 8.5t-8.5 21.5l-15 142l-10 89zM374 689q-12 -8 -18 -9
t-12 7l-32 35q-5 8 -5.5 12.5t10.5 14.5l150 121q10 9 18 13.5t25 4.5h64q18 0 24 -3.5t12 -11.5l100 -124q7 -9 5 -14.5t-11 -13.5l-34 -30q-10 -8 -15 -6.5t-13 8.5l-113 91z" />
    <glyph glyph-name="wcircumflex" unicode="&#x175;" horiz-adv-x="757" 
d="M475 469q4 -29 6.5 -58t5.5 -58q4 -42 7.5 -81.5t8.5 -80.5h4l51 112q17 42 36.5 83.5t36.5 83.5q6 14 12.5 19t17.5 5h120q15 0 15.5 -6.5t-4.5 -15.5l-227 -454q-7 -13 -18 -15.5t-22 -2.5h-86q-28 0 -31 32l-24 162h-3l-99 -174q-14 -20 -40 -20h-78q-19 0 -26.5 7.5
t-10.5 26.5l-60 440q-3 20 20 20h105q13 0 18.5 -4t6.5 -18q4 -42 7 -83.5t5 -83.5l10 -124h5q24 47 48 94.5t50 92.5l-15 103q0 9 4 16t15 7h105q14 0 18.5 -4t5.5 -21zM303 529q-11 -7 -17 -8t-13 7l-34 34q-6 8 -6 12.5t10 14.5l149 135q10 8 18 13t26 5h64q19 0 25 -3.5
t11 -12.5l97 -139q7 -10 5 -15t-10 -12l-39 -32q-9 -8 -14.5 -7.5t-13.5 8.5l-111 106z" />
    <glyph glyph-name="Ycircumflex" unicode="&#x176;" horiz-adv-x="630" 
d="M233 241l-137 399q-3 10 1.5 17.5t15.5 7.5h111q17 0 23 -5t11 -19l40 -129l36 -124h6l85 125l85 120q11 15 20 23.5t26 8.5h133q12 0 13 -7t-5 -15l-303 -402l-42 -219q-1 -7 -6 -14.5t-19 -7.5h-118q-23 0 -18 22zM273 689q-12 -8 -18 -9t-12 7l-32 35q-5 8 -5.5 12.5
t10.5 14.5l150 121q10 9 18 13.5t25 4.5h64q18 0 24 -3.5t12 -11.5l100 -124q7 -9 5 -14.5t-11 -13.5l-34 -30q-10 -8 -15 -6.5t-13 8.5l-113 91z" />
    <glyph glyph-name="ycircumflex" unicode="&#x177;" horiz-adv-x="521" 
d="M252 196q7 12 19 35l24 46q14 26 29 56q7 14 16.5 32.5t19 38t19 37.5t17.5 32q5 11 12.5 16t25.5 5h108q17 0 18 -6.5t-6 -19.5l-362 -641q-8 -14 -15.5 -18.5t-24.5 -4.5h-98q-15 0 -17.5 5.5t5.5 19.5l104 184l-83 456q-5 25 21 25h102q14 0 20 -2.5t8 -18.5l19 -142
l14 -135h5zM202 529q-11 -7 -17 -8t-13 7l-34 34q-6 8 -6 12.5t10 14.5l149 135q10 8 18 13t26 5h64q19 0 25 -3.5t11 -12.5l97 -139q7 -10 5 -15t-10 -12l-39 -32q-9 -8 -14.5 -7.5t-13.5 8.5l-111 106z" />
    <glyph glyph-name="Ydieresis" unicode="&#x178;" horiz-adv-x="630" 
d="M233 241l-137 399q-3 10 1.5 17.5t15.5 7.5h111q17 0 23 -5t11 -19l40 -129l36 -124h6l85 125l85 120q11 15 20 23.5t26 8.5h133q12 0 13 -7t-5 -15l-303 -402l-42 -219q-1 -7 -6 -14.5t-19 -7.5h-118q-23 0 -18 22zM317 837q36 0 50.5 -11.5t14.5 -34.5q0 -18 -4 -35.5
t-14.5 -30.5t-28 -21t-44.5 -8q-36 0 -50 12.5t-14 32.5t4.5 37.5t15 30.5t27.5 20.5t43 7.5zM527 837q35 0 49.5 -11t14.5 -34q0 -18 -4 -35.5t-14.5 -31t-28 -21.5t-44.5 -8q-36 0 -50 12.5t-14 32.5t4.5 37.5t15 30.5t28 20.5t43.5 7.5z" />
    <glyph glyph-name="Zacute" unicode="&#x179;" horiz-adv-x="549" 
d="M208 136h264q14 0 17 -6t1 -15l-18 -93q-2 -10 -7 -16t-19 -6h-422q-23 0 -18 22l17 82q1 9 5 19t15 22l343 383h-240q-14 0 -17 6t-1 15l18 94q2 10 7.5 16t19.5 6h401q9 0 14 -6t3 -16l-15 -74q-3 -17 -8.5 -27.5t-15.5 -21.5zM550 805q10 -19 -15 -29l-191 -77
q-8 -3 -15 -3t-12 8l-22 52q-3 5 -1.5 11t12.5 13l184 107q13 7 19.5 4t9.5 -9z" />
    <glyph glyph-name="zacute" unicode="&#x17a;" horiz-adv-x="469" 
d="M401 123q21 0 17 -22l-15 -79q-4 -22 -25 -22h-370q-13 0 -16 5t-1 16l12 64q2 8 6 17.5t18 21.5l252 247h-185q-22 0 -16 23l14 79q6 21 26 21h350q13 0 16 -4.5t1 -15.5l-13 -67q-2 -9 -7 -18.5t-17 -21.5l-248 -244h201zM478 731q19 -11 0 -32l-148 -151
q-6 -7 -12.5 -10.5t-14.5 1.5l-47 29q-6 4 -8 9.5t6 14.5l126 173q8 11 16.5 12.5t14.5 -2.5z" />
    <glyph glyph-name="Zdotaccent" unicode="&#x17b;" horiz-adv-x="549" 
d="M208 136h264q14 0 17 -6t1 -15l-18 -93q-2 -10 -7 -16t-19 -6h-422q-23 0 -18 22l17 82q1 9 5 19t15 22l343 383h-240q-14 0 -17 6t-1 15l18 94q2 10 7.5 16t19.5 6h401q9 0 14 -6t3 -16l-15 -74q-3 -17 -8.5 -27.5t-15.5 -21.5zM418 865q38 0 53 -13t15 -37
q0 -17 -4 -35t-15 -32.5t-30 -24t-49 -9.5q-38 0 -52.5 14.5t-14.5 36.5q0 19 5 37.5t16 32t30 22t46 8.5z" />
    <glyph glyph-name="zdotaccent" unicode="&#x17c;" horiz-adv-x="469" 
d="M401 123q21 0 17 -22l-15 -79q-4 -22 -25 -22h-370q-13 0 -16 5t-1 16l12 64q2 8 6 17.5t18 21.5l252 247h-185q-22 0 -16 23l14 79q6 21 26 21h350q13 0 16 -4.5t1 -15.5l-13 -67q-2 -9 -7 -18.5t-17 -21.5l-248 -244h201zM345 702q38 0 53 -13t15 -37q0 -17 -4 -35
t-15 -32.5t-30 -24t-49 -9.5q-38 0 -52.5 14.5t-14.5 36.5q0 19 5 37.5t16 32t30 22t46 8.5z" />
    <glyph glyph-name="Zcaron" unicode="&#x17d;" horiz-adv-x="549" 
d="M208 136h264q14 0 17 -6t1 -15l-18 -93q-2 -10 -7 -16t-19 -6h-422q-23 0 -18 22l17 82q1 9 5 19t15 22l343 383h-240q-14 0 -17 6t-1 15l18 94q2 10 7.5 16t19.5 6h401q9 0 14 -6t3 -16l-15 -74q-3 -17 -8.5 -27.5t-15.5 -21.5zM548 896q12 8 18 8.5t13 -7.5l34 -34
q6 -7 6 -12t-11 -15l-149 -127q-9 -9 -17 -13.5t-26 -4.5h-64q-20 0 -25.5 3.5t-10.5 11.5l-97 132q-7 10 -5.5 15t10.5 13l38 31q10 8 15.5 7.5t13.5 -8.5l106 -99z" />
    <glyph glyph-name="zcaron" unicode="&#x17e;" horiz-adv-x="469" 
d="M401 123q21 0 17 -22l-15 -79q-4 -22 -25 -22h-370q-13 0 -16 5t-1 16l12 64q2 8 6 17.5t18 21.5l252 247h-185q-22 0 -16 23l14 79q6 21 26 21h350q13 0 16 -4.5t1 -15.5l-13 -67q-2 -9 -7 -18.5t-17 -21.5l-248 -244h201zM464 740q11 8 17 9t13 -7l34 -34q6 -8 6 -12.5
t-10 -14.5l-149 -135q-10 -9 -18 -13.5t-26 -4.5h-64q-19 0 -25 3.5t-11 12.5l-97 139q-7 9 -5 14.5t10 12.5l39 32q9 8 14.5 7.5t13.5 -8.5l106 -107z" />
    <glyph glyph-name="florin" unicode="&#x192;" horiz-adv-x="595" 
d="M10 5q5 17 10.5 19t18.5 0q12 -2 27 -2.5t25 -0.5q38 0 53 27t27 76l46 185h-63q-12 0 -16.5 3.5t-3.5 16.5l7 68q1 14 4.5 18t16.5 4h78l24 97q7 28 20 57.5t35.5 54t56.5 40.5t82 16q27 0 54.5 -3.5t58.5 -13.5q6 -2 8.5 -7t-1.5 -16l-21 -70q-4 -11 -9 -13.5t-16 -0.5
q-16 2 -29 3t-18 1q-20 0 -33.5 -5.5t-22.5 -16t-14.5 -25t-10.5 -33.5l-15 -65h77q13 0 18 -3.5t3 -15.5l-6 -71q-1 -14 -5 -17t-18 -3h-92l-66 -263q-6 -26 -19.5 -52t-36 -47t-54 -34.5t-73.5 -13.5q-28 0 -61.5 5t-52.5 13q-7 2 -10 8t1 19z" />
    <glyph glyph-name="Ohorn" unicode="&#x1a0;" horiz-adv-x="707" 
d="M418 673q59 0 100.5 -12.5t70.5 -35.5q17 0 29 4t20.5 13.5t14 25.5t10.5 40l10 52q2 9 6 11.5t12 2.5h85q14 0 11 -14l-17 -87q-11 -55 -40 -93.5t-78 -52.5q7 -24 9.5 -50t1.5 -53q0 -21 -2.5 -42t-5.5 -41q-9 -63 -28.5 -125.5t-58 -112.5t-101.5 -81t-159 -31
q-70 0 -116 18.5t-73 50t-37.5 73.5t-10.5 90q0 30 3 59.5t8 58.5q8 50 27 108t57 108t99 83t153 33zM402 533q-34 0 -58.5 -14t-42 -40.5t-29.5 -64t-21 -84.5q-5 -24 -7.5 -46t-3.5 -42q-2 -56 19 -83.5t70 -27.5q37 0 62.5 13.5t43.5 39.5t30.5 62.5t21.5 83.5
q5 27 8 50.5t3 44.5q2 57 -21 82.5t-75 25.5z" />
    <glyph glyph-name="ohorn" unicode="&#x1a1;" horiz-adv-x="597" 
d="M318 504q48 0 82.5 -10t58.5 -28q29 3 42 20.5t22 62.5l10 52q2 9 6 11.5t12 2.5h85q14 0 11 -14l-17 -87q-11 -54 -38.5 -92t-74.5 -52q2 -11 3 -22.5t1 -23.5q0 -18 -2 -35.5t-5 -34.5q-8 -46 -21.5 -93t-42 -84.5t-78 -61t-129.5 -23.5q-59 0 -98 15t-62 40.5
t-32.5 59t-9.5 71.5q0 20 2.5 39t5.5 37q7 40 22 84t45 81t78.5 61t123.5 24zM301 370q-23 0 -39 -9t-27 -25t-17.5 -38.5t-11.5 -49.5q-3 -17 -5 -31.5t-2 -27.5q0 -35 13.5 -49.5t43.5 -14.5q25 0 42 8.5t28 24.5t17.5 38.5t11.5 51.5q3 17 5 31.5t2 28.5q0 33 -14.5 47.5
t-46.5 14.5z" />
    <glyph glyph-name="Uhorn" unicode="&#x1af;" horiz-adv-x="735" 
d="M311 132q101 0 125 119l75 391q2 10 8 16.5t19 6.5h117q14 0 16.5 -7.5t0.5 -15.5l-4 -17q23 5 34.5 22.5t19.5 58.5l10 52q2 9 6 11.5t12 2.5h85q14 0 11 -14l-17 -87q-13 -65 -52.5 -107.5t-108.5 -44.5q-5 -1 -10 -1h-10l-53 -270q-11 -60 -34 -107.5t-59 -81
t-86.5 -51t-116.5 -17.5q-65 0 -113 18t-76.5 52t-38 81t2.5 106l77 394q2 10 7.5 16.5t19.5 6.5h117q14 0 16 -7.5t0 -15.5l-76 -391q-23 -119 76 -119z" />
    <glyph glyph-name="uhorn" unicode="&#x1b0;" horiz-adv-x="666" 
d="M319 46l-2 1q-40 -26 -85.5 -40.5t-80.5 -14.5q-53 0 -79.5 16t-35.5 43t-5.5 62t10.5 73l56 286q2 7 6.5 14.5t18.5 7.5h113q13 0 16 -6t1 -16l-50 -260q-8 -42 2 -58.5t42 -16.5q23 0 51 10t45 17l59 308q2 7 7 14.5t19 7.5h112q23 0 18 -22l-2 -8q28 3 41 20t21 62
l10 52q2 9 6 11.5t12 2.5h85q14 0 11 -14l-17 -87q-13 -65 -52.5 -107.5t-108.5 -44.5q-6 -1 -12 -1h-12h-5l-65 -336q-2 -10 -7 -16t-18 -6h-113q-14 0 -16 7t-1 15z" />
    <glyph glyph-name="AEacute" unicode="&#x1fc;" horiz-adv-x="905" 
d="M413 150h-190l-82 -127q-10 -13 -19.5 -18t-23.5 -5h-124q-24 0 -6 26l402 613q9 15 18 20.5t31 5.5h481q22 0 19 -22l-14 -94q-1 -9 -6 -15t-19 -6h-252l-16 -116h223q22 0 19 -22l-13 -94q-3 -20 -25 -20h-224l-19 -140h260q22 0 19 -22l-13 -94q-2 -9 -6.5 -14.5
t-17.5 -5.5h-401q-14 0 -17.5 6t-1.5 15zM464 526l-158 -250h124l36 250h-2zM826 805q10 -19 -15 -29l-191 -77q-8 -3 -15 -3t-12 8l-22 52q-3 5 -1.5 11t12.5 13l184 107q13 7 19.5 4t9.5 -9z" />
    <glyph glyph-name="aeacute" unicode="&#x1fd;" horiz-adv-x="836" 
d="M481 460q27 19 67 29.5t87 10.5q38 0 71.5 -8.5t58 -25t38.5 -41.5t14 -58q0 -53 -25.5 -86.5t-65 -53.5t-87.5 -28.5t-94 -10.5h-19t-19 -1q-2 -7 -4 -16.5t-2 -15.5q0 -26 19.5 -32.5t48.5 -7.5q35 0 69 1.5t74 6.5q15 2 25 -0.5t10 -21.5v-42q0 -20 -6.5 -28.5
t-27.5 -16.5q-17 -6 -39 -10.5t-46 -7t-48.5 -4t-45.5 -1.5q-58 0 -101 16.5t-66 55.5q-56 -38 -110 -54.5t-111 -16.5q-37 0 -61 8.5t-37.5 23.5t-18.5 34.5t-5 42.5q0 52 17.5 90.5t48 63.5t73.5 37t94 12q26 0 52 -1.5t54 -3.5q2 11 4.5 20.5t2.5 20.5q0 19 -16 28t-62 9
q-10 0 -26 -0.5t-34.5 -2l-37 -3t-33.5 -3.5q-14 -2 -24.5 -1t-10.5 18q0 14 -0.5 27t-0.5 27q0 12 7 21.5t33 17.5q18 6 41.5 11t47.5 8t47 4.5t41 1.5q54 0 87.5 -10t51.5 -33zM267 207q-82 0 -82 -67q1 -18 10.5 -25t30.5 -7q10 0 24.5 3t30 7.5t30 10t26.5 11.5
q1 16 2 31.5t4 32.5q-42 3 -76 3zM656 349q0 14 -11.5 23t-33.5 9q-20 0 -34.5 -7.5t-25 -20t-17.5 -30t-12 -36.5h10.5t10.5 1q20 1 40.5 4.5t36.5 10.5t26 18t10 28zM677 731q19 -11 0 -32l-148 -151q-6 -7 -12.5 -10.5t-14.5 1.5l-47 29q-6 4 -8 9.5t6 14.5l126 173
q8 11 16.5 12.5t14.5 -2.5z" />
    <glyph glyph-name="Oslashacute" unicode="&#x1fe;" horiz-adv-x="687" 
d="M418 673q66 0 111 -16t74 -44l43 45q10 11 15 13t12 -6q2 -1 9 -7.5t9 -7.5q7 -8 6 -12.5t-10 -14.5l-52 -54q17 -31 23 -68t5 -77q0 -21 -2.5 -42t-5.5 -41q-9 -63 -28.5 -125.5t-58 -112.5t-101.5 -81t-159 -31q-63 0 -105.5 14t-70.5 40l-46 -48q-8 -8 -14 -11t-14 5
l-17 15q-7 7 -5 13t10 14l53 55q-16 29 -22 63t-6 72q0 30 3 59.5t8 58.5q8 50 27 108t57 108t99 83t153 33zM402 533q-34 0 -58.5 -14t-42 -40.5t-29.5 -64t-21 -84.5q-5 -24 -7.5 -46t-3.5 -42v-7l246 257q-21 41 -84 41zM487 330q5 27 8 50.5t3 44.5v1l-246 -256
q19 -39 77 -39q37 0 62.5 13.5t43.5 39.5t30.5 62.5t21.5 83.5zM634 805q10 -19 -15 -29l-191 -77q-8 -3 -15 -3t-12 8l-22 52q-3 5 -1.5 11t12.5 13l184 107q13 7 19.5 4t9.5 -9z" />
    <glyph glyph-name="oslashacute" unicode="&#x1ff;" horiz-adv-x="548" 
d="M318 504q48 0 82.5 -10t58.5 -27l44 45q9 9 13.5 10.5t12.5 -5.5l16 -15q8 -8 6.5 -12t-9.5 -13l-47 -48q14 -23 20 -49.5t6 -55.5q0 -18 -2 -35.5t-5 -34.5q-8 -46 -21.5 -93t-42 -84.5t-78 -61t-129.5 -23.5q-48 0 -82 10t-58 27l-35 -36q-8 -8 -13 -10t-13 5l-15 15
q-8 7 -6 12t9 13l38 39q-15 23 -21 51.5t-6 59.5q0 20 2.5 39t5.5 37q7 40 22 84t45 81t78.5 61t123.5 24zM514 731q19 -11 0 -32l-148 -151q-6 -7 -12.5 -10.5t-14.5 1.5l-47 29q-6 4 -8 9.5t6 14.5l126 173q8 11 16.5 12.5t14.5 -2.5zM301 370q-23 0 -39 -9t-27 -25
t-17.5 -38.5t-11.5 -49.5q-2 -13 -4 -24.5t-3 -22.5l150 153q-15 16 -48 16zM355 248q5 25 6 44l-149 -152q12 -15 44 -15q25 0 42 8.5t28 24.5t17.5 38.5t11.5 51.5z" />
    <glyph glyph-name="Scommaaccent" unicode="&#x218;" horiz-adv-x="580" 
d="M241 -9q-16 0 -41 1.5t-53 5t-56 9.5t-50 15q-23 10 -24 19.5t4 23.5l23 60q8 20 16 22.5t28 -0.5q36 -6 83 -10t89 -4q51 0 82 16.5t32 52.5q1 25 -17 36.5t-60 22.5q-47 14 -85 29t-65 36t-41.5 51t-14.5 75q0 58 23.5 99.5t62.5 68t90 39t107 12.5q14 0 37 -0.5
t49 -3.5t52.5 -9t49.5 -16t24.5 -19.5t-4.5 -23.5l-24 -60q-5 -11 -8.5 -15.5t-9 -6t-12.5 -1t-18 1.5q-32 5 -67.5 8t-80.5 3q-18 0 -35.5 -2.5t-31 -9t-22 -19t-8.5 -32.5q0 -22 17.5 -32t58.5 -19q36 -8 73.5 -20t67.5 -33t49 -53.5t19 -82.5q0 -66 -24.5 -110.5
t-66.5 -72.5t-98.5 -40t-119.5 -12zM243 -46q17 12 26.5 8t20.5 -16q14 -16 19.5 -37.5t5.5 -44.5q0 -34 -12.5 -64t-32 -55.5t-43.5 -45t-46 -31.5q-13 -7 -21.5 -5t-15.5 10l-21 27q-9 12 -7 18t18 21q40 34 40 69q0 25 -17 50q-10 14 -9 23.5t21 23.5z" />
    <glyph glyph-name="scommaaccent" unicode="&#x219;" horiz-adv-x="487" 
d="M302 504q16 0 36.5 -1.5t40.5 -4.5t39.5 -7t34.5 -10q19 -7 26.5 -14.5t-0.5 -27.5l-22 -52q-5 -14 -10.5 -17t-23.5 -1q-16 2 -35.5 4t-38.5 3.5t-35.5 3t-27.5 1.5q-35 1 -48 -8t-14 -27q-1 -8 4 -13t13 -8.5t18 -6t19 -3.5q31 -5 61 -12.5t53 -22t37.5 -38.5t14.5 -61
q0 -59 -22 -96t-57.5 -58t-81 -28.5t-93.5 -7.5q-18 0 -39.5 1.5t-42.5 4.5t-40 7t-33 9q-23 9 -28 19.5t4 30.5l20 48q6 15 12.5 18t22.5 0q34 -6 74 -9.5t66 -3.5q36 0 55 8.5t21 31.5q2 18 -11 24t-36 11q-34 6 -65 14.5t-54.5 23.5t-37.5 39t-14 61q0 51 19.5 84.5
t52.5 53.5t76 28.5t90 8.5zM198 -46q17 12 26.5 8t20.5 -16q14 -16 19.5 -37.5t5.5 -44.5q0 -34 -12.5 -64t-32 -55.5t-43.5 -45t-46 -31.5q-13 -7 -21.5 -5t-15.5 10l-21 27q-9 12 -7 18t18 21q40 34 40 69q0 25 -17 50q-10 14 -9 23.5t21 23.5z" />
    <glyph glyph-name="schwa" unicode="&#x259;" horiz-adv-x="531" 
d="M508 333q0 -32 -5.5 -64.5t-13.5 -63.5q-10 -38 -28 -76t-50 -69t-80.5 -50t-118.5 -19q-35 0 -67.5 8t-57 24.5t-39 42t-14.5 59.5q0 59 31.5 95t78.5 55.5t101.5 27t100.5 9.5q4 11 4 25t-6 22t-17 12t-26 5t-33 1q-34 0 -65.5 -2t-73.5 -7q-11 -2 -18 0.5t-7 16.5v48
q0 20 6.5 28.5t28.5 16.5q16 6 38 10.5t46 7t48.5 4t45.5 1.5q43 0 78 -9t60 -29.5t39 -52.5t14 -77zM196 143q0 -14 11.5 -23t32.5 -9q22 0 37 9.5t25.5 24t17 32.5t11.5 35q-22 -2 -46 -5.5t-43.5 -11.5t-32.5 -20.5t-13 -31.5z" />
    <glyph glyph-name="primemod" unicode="&#x2b9;" horiz-adv-x="304" 
d="M171 375q-4 -5 -9.5 -9t-14.5 0l-64 33q-8 4 -7.5 10.5t4.5 13.5l180 282q7 11 15.5 10.5t15.5 -2.5l82 -44q19 -8 1 -29l-203 -265v0z" />
    <glyph glyph-name="circumflex" unicode="&#x2c6;" horiz-adv-x="542" 
d="M203 529q-11 -7 -17 -8t-13 7l-34 34q-6 8 -6 12.5t10 14.5l149 135q10 8 18 13t26 5h64q19 0 25 -3.5t11 -12.5l97 -139q7 -10 5 -15t-10 -12l-39 -32q-9 -8 -14.5 -7.5t-13.5 8.5l-111 106z" />
    <glyph glyph-name="caron" unicode="&#x2c7;" horiz-adv-x="540" 
d="M500 740q11 8 17 9t13 -7l34 -34q6 -8 6 -12.5t-10 -14.5l-149 -135q-10 -9 -18 -13.5t-26 -4.5h-64q-19 0 -25 3.5t-11 12.5l-97 139q-7 9 -5 14.5t10 12.5l39 32q9 8 14.5 7.5t13.5 -8.5l106 -107z" />
    <glyph glyph-name="breve" unicode="&#x2d8;" horiz-adv-x="538" 
d="M346 534q-28 0 -56.5 6.5t-54 20.5t-45 34.5t-29.5 49.5q-5 13 -5.5 24t13.5 20l43 28q11 8 18 6.5t15 -14.5q20 -29 45.5 -46.5t62.5 -17.5q64 0 130 66q12 12 19.5 14t18.5 -6l37 -28q13 -8 8 -20t-17 -27q-42 -57 -97 -83.5t-106 -26.5z" />
    <glyph glyph-name="dotaccent" unicode="&#x2d9;" horiz-adv-x="537" 
d="M369 702q38 0 53 -13t15 -37q0 -17 -4 -35t-15 -32.5t-30 -24t-49 -9.5q-38 0 -52.5 14.5t-14.5 36.5q0 19 5 37.5t16 32t30 22t46 8.5z" />
    <glyph glyph-name="ring" unicode="&#x2da;" horiz-adv-x="523" 
d="M340 530q-23 0 -43 7.5t-35 21t-23.5 32.5t-8.5 43q0 34 13 60.5t34 44.5t47 27.5t52 9.5q48 0 78.5 -31t30.5 -76q0 -30 -12 -55t-32.5 -44t-46.5 -29.5t-54 -10.5zM368 700q-23 0 -38.5 -17t-15.5 -40q0 -17 9.5 -27t26.5 -10q20 0 37.5 16.5t17.5 39.5q0 17 -10 27.5
t-27 10.5z" />
    <glyph glyph-name="ogonek" unicode="&#x2db;" horiz-adv-x="377" 
d="M147 50q20 0 40.5 -0.5t40.5 -0.5v-1q-45 -45 -64.5 -76.5t-19.5 -60.5q0 -14 9.5 -19.5t26.5 -5.5q11 0 27 2t30 6q6 2 9 1t5 -8l6 -39q0 -11 -4 -15t-12 -7q-20 -9 -46.5 -15.5t-56.5 -6.5q-49 0 -73.5 23t-24.5 59q0 45 26.5 81.5t80.5 82.5z" />
    <glyph glyph-name="tilde" unicode="&#x2dc;" horiz-adv-x="542" 
d="M290 705q22 0 42.5 -7t39.5 -16t36.5 -16t33.5 -7q14 0 28 7.5t28 28.5q7 8 12.5 9.5t13.5 -3.5l42 -29q7 -5 8.5 -9t-3.5 -13q-17 -31 -34.5 -50.5t-35.5 -31t-37 -15.5t-38 -4q-17 0 -36.5 8t-39 17.5t-38 17.5t-34.5 8q-19 0 -34 -9.5t-35 -32.5q-13 -16 -28 -5
l-39 26q-3 2 -6 7.5t2 13.5q33 62 71 83.5t81 21.5z" />
    <glyph glyph-name="hungarumlaut" unicode="&#x2dd;" horiz-adv-x="596" 
d="M442 731q18 -11 -1 -32l-147 -151q-6 -7 -12.5 -10.5t-15.5 1.5l-46 29q-6 4 -8 9.5t6 14.5l126 173q8 11 16 12.5t14 -2.5zM618 731q19 -11 0 -32l-147 -151q-6 -7 -13 -10.5t-15 1.5l-46 29q-6 4 -8 9.5t6 14.5l126 173q8 11 16 12.5t14 -2.5z" />
    <glyph glyph-name="tonos" unicode="&#x384;" horiz-adv-x="534" 
d="M506 731q19 -11 0 -32l-148 -151q-6 -7 -12.5 -10.5t-14.5 1.5l-47 29q-6 4 -8 9.5t6 14.5l126 173q8 11 16.5 12.5t14.5 -2.5z" />
    <glyph glyph-name="dieresistonos" unicode="&#x385;" horiz-adv-x="520" 
d="M192 686q35 0 50 -11t15 -33q0 -18 -4.5 -35.5t-15 -31t-28.5 -22t-45 -8.5q-36 0 -49 13t-13 33t4.5 37.5t15 30t27.5 20t43 7.5zM525 686q35 0 50 -11t15 -33q0 -18 -4.5 -35.5t-15 -31t-28.5 -22t-45 -8.5q-35 0 -48.5 13t-13.5 33q0 40 19.5 67.5t70.5 27.5zM472 741
q19 -10 3 -32l-134 -164q-5 -8 -11.5 -11.5t-14.5 0.5l-50 24q-6 3 -8.5 8.5t4.5 15.5l110 184q8 12 16 14t14 -1z" />
    <glyph glyph-name="Alphatonos" unicode="&#x386;" horiz-adv-x="617" 
d="M177 638q19 -11 0 -32l-148 -151q-6 -7 -12.5 -10.5t-14.5 1.5l-47 29q-6 4 -8 9.5t6 14.5l126 173q8 11 16.5 12.5t14.5 -2.5zM140 28q-8 -16 -17 -22t-23 -6h-115q-11 0 -14 4.5t5 21.5l310 610q8 14 16.5 21.5t28.5 7.5h126q21 0 26 -8t7 -22l82 -611q1 -12 -2 -18
t-14 -6h-119q-17 0 -21.5 7.5t-6.5 23.5l-10 119h-199zM379 382l-8 122h-5l-57 -121l-51 -111h130z" />
    <glyph glyph-name="anoteleia" unicode="&#x387;" horiz-adv-x="234" 
d="M165 454q38 0 54 -12.5t16 -37.5q0 -18 -4.5 -36t-15.5 -33t-30 -24.5t-49 -9.5q-40 0 -54.5 15t-14.5 38q0 19 5 37.5t16.5 32t30 22t46.5 8.5z" />
    <glyph glyph-name="Epsilontonos" unicode="&#x388;" horiz-adv-x="556" 
d="M97 638q19 -11 0 -32l-148 -151q-6 -7 -12.5 -10.5t-14.5 1.5l-47 29q-6 4 -8 9.5t6 14.5l126 173q8 11 16.5 12.5t14.5 -2.5zM151 642q2 10 8 16.5t19 6.5h394q21 0 16 -22l-18 -94q-2 -9 -7 -15t-18 -6h-255l-22 -116h222q22 0 17 -22l-18 -94q-2 -9 -7 -14.5t-18 -5.5
h-222l-27 -140h262q20 0 17 -22l-18 -94q-2 -9 -7 -14.5t-18 -5.5h-402q-13 0 -17 6t-2 16z" />
    <glyph glyph-name="Etatonos" unicode="&#x389;" horiz-adv-x="645" 
d="M99 638q19 -11 0 -32l-148 -151q-6 -7 -12.5 -10.5t-14.5 1.5l-47 29q-6 4 -8 9.5t6 14.5l126 173q8 11 16.5 12.5t14.5 -2.5zM502 646q4 19 27 19h117q14 0 16.5 -5.5t0.5 -13.5l-121 -628q-1 -7 -5.5 -12.5t-18.5 -5.5h-118q-13 0 -17 4t-2 14l49 258h-189l-49 -258
q-2 -7 -6.5 -12.5t-17.5 -5.5h-119q-13 0 -17 4t-2 14l121 628q4 19 27 19h119q13 0 15 -5.5t0 -13.5l-44 -233h190z" />
    <glyph glyph-name="Iotatonos" unicode="&#x38a;" horiz-adv-x="304" 
d="M104 638q19 -11 0 -32l-148 -151q-6 -7 -12.5 -10.5t-14.5 1.5l-47 29q-6 4 -8 9.5t6 14.5l126 173q8 11 16.5 12.5t14.5 -2.5zM155 642q2 10 8 16.5t19 6.5h118q14 0 16 -7.5t0 -15.5l-120 -620q-2 -7 -6.5 -14.5t-18.5 -7.5h-118q-13 0 -17 6t-2 16z" />
    <glyph glyph-name="Omicrontonos" unicode="&#x38c;" horiz-adv-x="687" 
d="M133 638q19 -11 0 -32l-148 -151q-6 -7 -12.5 -10.5t-14.5 1.5l-47 29q-6 4 -8 9.5t6 14.5l126 173q8 11 16.5 12.5t14.5 -2.5zM418 673q74 0 122 -20t76 -54t38 -79.5t9 -95.5q0 -21 -2.5 -42t-5.5 -41q-9 -63 -28.5 -125.5t-58 -112.5t-101.5 -81t-159 -31
q-70 0 -116 18.5t-73 50t-37.5 73.5t-10.5 90q0 30 3 59.5t8 58.5q8 50 27 108t57 108t99 83t153 33zM402 533q-34 0 -58.5 -14t-42 -40.5t-29.5 -64t-21 -84.5q-5 -24 -7.5 -46t-3.5 -42q-2 -56 19 -83.5t70 -27.5q37 0 62.5 13.5t43.5 39.5t30.5 62.5t21.5 83.5
q5 27 8 50.5t3 44.5q2 57 -21 82.5t-75 25.5z" />
    <glyph glyph-name="Upsilontonos" unicode="&#x38e;" horiz-adv-x="630" 
d="M58 638q19 -11 0 -32l-148 -151q-6 -7 -12.5 -10.5t-14.5 1.5l-47 29q-6 4 -8 9.5t6 14.5l126 173q8 11 16.5 12.5t14.5 -2.5zM233 241l-137 399q-3 10 1.5 17.5t15.5 7.5h111q17 0 23 -5t11 -19l40 -129l36 -124h6l85 125l85 120q11 15 20 23.5t26 8.5h133q12 0 13 -7
t-5 -15l-303 -402l-42 -219q-1 -7 -6 -14.5t-19 -7.5h-118q-23 0 -18 22z" />
    <glyph glyph-name="Omegatonos" unicode="&#x38f;" horiz-adv-x="691" 
d="M128 638q19 -11 0 -32l-148 -151q-6 -7 -12.5 -10.5t-14.5 1.5l-47 29q-6 4 -8 9.5t6 14.5l126 173q8 11 16.5 12.5t14.5 -2.5zM553 133h62q14 0 16.5 -6t0.5 -14l-18 -91q-5 -22 -30 -22h-221q-15 0 -17.5 7.5t-0.5 14.5l17 90q3 13 10.5 20t13.5 12q42 29 67 72t38 106
q6 26 8.5 50.5t3.5 45.5q1 57 -22.5 85.5t-78.5 28.5q-34 0 -58.5 -15t-42.5 -42t-30 -64.5t-21 -82.5q-8 -47 -9 -81q-1 -35 8.5 -58.5t25.5 -34.5q5 -5 10 -11.5t2 -20.5l-19 -100q-2 -6 -6 -14t-19 -8h-214q-14 0 -16.5 6t-0.5 16l18 91q2 9 6.5 14.5t18.5 5.5h60l1 1
q-12 11 -20 29t-12.5 38t-6 41t-0.5 38q1 34 6.5 71t16.5 75q14 47 39 91t63 78.5t91.5 55.5t124.5 21q73 0 121 -19t77 -51.5t41 -75.5t12 -92q0 -25 -2.5 -52t-8.5 -53q-12 -58 -37 -110.5t-68 -83.5v-2z" />
    <glyph glyph-name="iotadieresistonos" unicode="&#x390;" horiz-adv-x="278" 
d="M71 686q35 0 50 -11t15 -33q0 -18 -4.5 -35.5t-15 -31t-28.5 -22t-45 -8.5q-36 0 -49 13t-13 33t4.5 37.5t15 30t27.5 20t43 7.5zM404 686q35 0 50 -11t15 -33q0 -18 -4.5 -35.5t-15 -31t-28.5 -22t-45 -8.5q-35 0 -48.5 13t-13.5 33q0 40 19.5 67.5t70.5 27.5zM351 741
q19 -10 3 -32l-134 -164q-5 -8 -11.5 -11.5t-14.5 0.5l-50 24q-6 3 -8.5 8.5t4.5 15.5l110 184q8 12 16 14t14 -1zM179 22q-1 -7 -6 -14.5t-19 -7.5h-112q-23 0 -18 22l87 450q2 11 8 16.5t19 5.5h112q14 0 16 -7.5t0 -14.5z" />
    <glyph glyph-name="Alpha" unicode="&#x391;" horiz-adv-x="617" 
d="M140 28q-8 -16 -17 -22t-23 -6h-115q-11 0 -14 4.5t5 21.5l310 610q8 14 16.5 21.5t28.5 7.5h126q21 0 26 -8t7 -22l82 -611q1 -12 -2 -18t-14 -6h-119q-17 0 -21.5 7.5t-6.5 23.5l-10 119h-199zM379 382l-8 122h-5l-57 -121l-51 -111h130z" />
    <glyph glyph-name="Beta" unicode="&#x392;" horiz-adv-x="617" 
d="M425 665q40 0 73.5 -9.5t57.5 -29t37 -50t12 -72.5q0 -18 -6.5 -39.5t-19.5 -42.5t-32 -40t-45 -32l-1 -4q22 -11 36 -27t21.5 -34t9.5 -36.5t1 -34.5q-2 -48 -21 -87.5t-51 -67.5t-74.5 -43.5t-91.5 -15.5h-283q-14 0 -18 6t-2 16l121 620q2 10 7.5 16t19.5 6zM213 136
h98q43 0 66 23.5t25 56.5q2 26 -14.5 44.5t-51.5 18.5h-96zM266 409h91q32 0 53.5 18t23.5 47q2 24 -10.5 39.5t-47.5 15.5h-88z" />
    <glyph glyph-name="Gamma" unicode="&#x393;" horiz-adv-x="524" 
d="M192 22q-1 -7 -6 -14.5t-18 -7.5h-119q-13 0 -17 6t-2 16l120 621q2 9 8 15.5t19 6.5h389q23 0 18 -22l-18 -94q-2 -9 -8 -15t-19 -6h-249z" />
    <glyph glyph-name="Delta" unicode="&#x394;" horiz-adv-x="617" 
d="M488 634q22 -154 42.5 -305.5t41.5 -305.5q1 -3 1 -9q-4 -14 -17 -14h-570q-17 0 -13 14q0 3 4 11q78 153 156 305t156 305q8 14 16.5 21.5t30.5 7.5h118q22 0 27 -7.5t7 -22.5zM401 131q-2 30 -5.5 74t-8 94.5t-9 103t-7.5 97.5h-5q-14 -33 -27.5 -62t-31.5 -66
q-3 -6 -12.5 -25.5t-22 -45t-26.5 -53.5t-26 -52.5t-21 -42.5l-11 -22h213z" />
    <glyph glyph-name="Delta" unicode="&#x2206;" horiz-adv-x="617" 
d="M488 634q22 -154 42.5 -305.5t41.5 -305.5q1 -3 1 -9q-4 -14 -17 -14h-570q-17 0 -13 14q0 3 4 11q78 153 156 305t156 305q8 14 16.5 21.5t30.5 7.5h118q22 0 27 -7.5t7 -22.5zM401 131q-2 30 -5.5 74t-8 94.5t-9 103t-7.5 97.5h-5q-14 -33 -27.5 -62t-31.5 -66
q-3 -6 -12.5 -25.5t-22 -45t-26.5 -53.5t-26 -52.5t-21 -42.5l-11 -22h213z" />
    <glyph glyph-name="Epsilon" unicode="&#x395;" horiz-adv-x="556" 
d="M151 642q2 10 8 16.5t19 6.5h394q21 0 16 -22l-18 -94q-2 -9 -7 -15t-18 -6h-255l-22 -116h222q22 0 17 -22l-18 -94q-2 -9 -7 -14.5t-18 -5.5h-222l-27 -140h262q20 0 17 -22l-18 -94q-2 -9 -7 -14.5t-18 -5.5h-402q-13 0 -17 6t-2 16z" />
    <glyph glyph-name="Zeta" unicode="&#x396;" horiz-adv-x="549" 
d="M208 136h264q14 0 17 -6t1 -15l-18 -93q-2 -10 -7 -16t-19 -6h-422q-23 0 -18 22l17 82q1 9 5 19t15 22l343 383h-240q-14 0 -17 6t-1 15l18 94q2 10 7.5 16t19.5 6h401q9 0 14 -6t3 -16l-15 -74q-3 -17 -8.5 -27.5t-15.5 -21.5z" />
    <glyph glyph-name="Eta" unicode="&#x397;" horiz-adv-x="645" 
d="M502 646q4 19 27 19h117q14 0 16.5 -5.5t0.5 -13.5l-121 -628q-1 -7 -5.5 -12.5t-18.5 -5.5h-118q-13 0 -17 4t-2 14l49 258h-189l-49 -258q-2 -7 -6.5 -12.5t-17.5 -5.5h-119q-13 0 -17 4t-2 14l121 628q4 19 27 19h119q13 0 15 -5.5t0 -13.5l-44 -233h190z" />
    <glyph glyph-name="Theta" unicode="&#x398;" horiz-adv-x="689" 
d="M441 292q-3 -14 -10.5 -17.5t-15.5 -3.5h-121q-9 0 -14 5t-3 16l16 86q2 12 9 16.5t17 4.5h121q24 0 18 -21zM418 673q74 0 122 -20t76 -54t38 -79.5t9 -95.5q0 -21 -2.5 -42t-5.5 -41q-9 -63 -28.5 -125.5t-58 -112.5t-101.5 -81t-159 -31q-70 0 -116 18.5t-73 50
t-37.5 73.5t-10.5 90q0 30 3 59.5t8 58.5q8 50 27 108t57 108t99 83t153 33zM402 533q-34 0 -58.5 -14t-42 -40.5t-29.5 -64t-21 -84.5q-5 -24 -7.5 -46t-3.5 -42q-2 -56 19 -83.5t70 -27.5q37 0 62.5 13.5t43.5 39.5t30.5 62.5t21.5 83.5q5 27 8 50.5t3 44.5q2 57 -21 82.5
t-75 25.5z" />
    <glyph glyph-name="Iota" unicode="&#x399;" horiz-adv-x="304" 
d="M155 642q2 10 8 16.5t19 6.5h118q14 0 16 -7.5t0 -15.5l-120 -620q-2 -7 -6.5 -14.5t-18.5 -7.5h-118q-13 0 -17 6t-2 16z" />
    <glyph glyph-name="Kappa" unicode="&#x39a;" horiz-adv-x="618" 
d="M211 166l-26 -144q-1 -7 -6 -14.5t-18 -7.5h-119q-13 0 -16.5 6t-1.5 16l120 620q2 10 8 16.5t19 6.5h119q13 0 15.5 -7.5t0.5 -15.5l-44 -223h3l81 88l135 138q11 10 20.5 15t25.5 5h148q11 0 15.5 -8t-8.5 -20l-264 -264l154 -342q6 -17 -0.5 -24t-17.5 -7h-123
q-19 0 -26.5 7.5t-12.5 18.5l-95 227z" />
    <glyph glyph-name="Lambda" unicode="&#x39b;" horiz-adv-x="617" 
d="M488 634q22 -154 42.5 -305.5t41.5 -305.5q1 -3 1 -9q-4 -14 -17 -14h-123q-16 0 -20.5 7t-6.5 23q-8 81 -16 166.5t-15 172.5q-3 33 -5.5 67.5t-4.5 63.5h-5q-14 -33 -27 -62.5t-31 -65.5q-5 -10 -18 -37.5t-30.5 -63.5t-36.5 -76t-36.5 -75t-30 -60.5t-15.5 -32.5
q-8 -16 -17 -21.5t-23 -5.5h-109q-17 0 -13 14q0 3 4 11q78 153 156 305t156 305q8 14 16.5 21.5t30.5 7.5h118q22 0 27 -7.5t7 -22.5z" />
    <glyph glyph-name="Mu" unicode="&#x39c;" horiz-adv-x="777" 
d="M403 293q7 12 26.5 40.5t41 60.5t40.5 60.5l27 40.5l101 145q9 12 18.5 18t31.5 6h89q14 0 16 -7.5t0 -13.5l-121 -621q-1 -8 -6 -15t-19 -7h-114q-13 0 -16 6.5t-1 15.5l58 298h-3q-2 -3 -10 -15.5t-18 -27t-18 -27.5t-10 -16q-16 -23 -38 -55.5t-39 -56.5
q-9 -12 -16.5 -19.5t-24.5 -7.5h-64q-17 0 -21 6.5t-9 19.5l-31 108l-26 93l-2 -1l-58 -299q-2 -8 -6.5 -15t-17.5 -7h-114q-14 0 -17.5 6t-1.5 16l121 621q2 9 7.5 15t18.5 6h81q21 0 28 -5t12 -18q3 -8 9 -28t12.5 -42.5t12.5 -43t8 -28.5q4 -12 12 -41t17 -61.5t17.5 -62
t11.5 -41.5h5z" />
    <glyph glyph-name="Nu" unicode="&#x39d;" horiz-adv-x="667" 
d="M260 387h-3l-70 -365q-2 -8 -6.5 -15t-18.5 -7h-114q-19 0 -19 15q0 2 0.5 3.5t0.5 3.5l120 620q2 9 8 15.5t19 6.5h83q23 0 29.5 -7.5t12.5 -20.5l154 -354h4q17 91 34 180t34 179q2 8 6.5 15.5t18.5 7.5h114q19 0 19 -15q0 -5 -1 -8q-31 -155 -61 -309.5t-60 -310.5
q-2 -9 -7.5 -15t-18.5 -6h-83q-17 0 -25.5 6.5t-13.5 17.5l-101 232z" />
    <glyph glyph-name="Xi" unicode="&#x39e;" horiz-adv-x="578" 
d="M595 665q22 0 17 -22l-18 -94q-2 -9 -7.5 -15t-18.5 -6h-138l-23 -116h104q23 0 18 -22l-18 -94q-3 -20 -26 -20h-104l-27 -140h148q22 0 17 -22l-18 -94q-2 -9 -7.5 -14.5t-17.5 -5.5h-455q-12 0 -16 5.5t-2 14.5l18 94q5 22 26 22h149l27 140h-104q-13 0 -16.5 5.5
t-1.5 14.5l18 94q2 10 9 16t17 6h105l22 116h-139q-13 0 -16 6t-1 15l18 94q2 10 9 16t17 6h435v0z" />
    <glyph glyph-name="Omicron" unicode="&#x39f;" horiz-adv-x="687" 
d="M418 673q74 0 122 -20t76 -54t38 -79.5t9 -95.5q0 -21 -2.5 -42t-5.5 -41q-9 -63 -28.5 -125.5t-58 -112.5t-101.5 -81t-159 -31q-70 0 -116 18.5t-73 50t-37.5 73.5t-10.5 90q0 30 3 59.5t8 58.5q8 50 27 108t57 108t99 83t153 33zM402 533q-34 0 -58.5 -14t-42 -40.5
t-29.5 -64t-21 -84.5q-5 -24 -7.5 -46t-3.5 -42q-2 -56 19 -83.5t70 -27.5q37 0 62.5 13.5t43.5 39.5t30.5 62.5t21.5 83.5q5 27 8 50.5t3 44.5q2 57 -21 82.5t-75 25.5z" />
    <glyph glyph-name="Pi" unicode="&#x3a0;" horiz-adv-x="645" 
d="M646 665q14 0 16.5 -7.5t0.5 -15.5l-121 -620q-1 -7 -5.5 -14.5t-18.5 -7.5h-118q-13 0 -17 6t-2 16l98 506h-189l-98 -506q-2 -7 -6.5 -14.5t-17.5 -7.5h-119q-13 0 -17 6t-2 16l121 620q2 10 8 16.5t19 6.5h468z" />
    <glyph glyph-name="Rho" unicode="&#x3a1;" horiz-adv-x="563" 
d="M190 22q-2 -7 -6.5 -14.5t-18.5 -7.5h-118q-14 0 -17.5 6t-1.5 16l121 621q2 9 7.5 15.5t19.5 6.5l221 -1q43 0 79 -11t62 -33.5t41 -56t15 -79.5q0 -45 -15 -88.5t-47.5 -77t-82.5 -54.5t-120 -21h-96zM258 375h72q19 0 36 6t30.5 17.5t21.5 29t8 41.5q0 32 -19 45.5
t-52 13.5h-67z" />
    <glyph glyph-name="Sigma" unicode="&#x3a3;" horiz-adv-x="528" 
d="M468 21q-2 -10 -7 -15.5t-19 -5.5h-418q-22 0 -17 21l13 67q3 17 10 29t23 32l153 192l-91 181q-8 17 -8.5 28.5t2.5 24.5l12 63q2 10 9.5 17.5t18.5 7.5h406q14 0 17 -6t1 -16l-18 -91q-2 -9 -7 -15t-19 -6h-251l79 -151q7 -11 11 -21t2 -18q-2 -6 -5.5 -11.5
t-9.5 -13.5l-151 -182h264q14 0 17 -5.5t1 -14.5l-18 -91v0z" />
    <glyph glyph-name="Tau" unicode="&#x3a4;" horiz-adv-x="519" 
d="M574 549q-2 -9 -8 -15t-19 -6h-145l-99 -506q-1 -7 -5.5 -14.5t-18.5 -7.5h-118q-13 0 -17 6t-2 16l98 506h-144q-14 0 -17 6t-1 15l18 94q2 10 7.5 16t19.5 6h452q22 0 17 -22l-18 -94v0z" />
    <glyph glyph-name="Upsilon" unicode="&#x3a5;" horiz-adv-x="630" 
d="M233 241l-137 399q-3 10 1.5 17.5t15.5 7.5h111q17 0 23 -5t11 -19l40 -129l36 -124h6l85 125l85 120q11 15 20 23.5t26 8.5h133q12 0 13 -7t-5 -15l-303 -402l-42 -219q-1 -7 -6 -14.5t-19 -7.5h-118q-23 0 -18 22z" />
    <glyph glyph-name="Phi" unicode="&#x3a6;" horiz-adv-x="826" 
d="M461 20q-2 -8 -6.5 -14t-18.5 -6h-120q-22 0 -17 18l8 36q-69 6 -114 28t-71.5 53.5t-37.5 68.5t-11 74q0 58 17.5 115t58 105t106.5 82t162 46l5 21q2 10 6.5 13.5t15.5 3.5h122q13 0 15 -6t0 -14l-3 -19q63 -6 106 -26t69.5 -50t37.5 -66t11 -73q0 -62 -18 -121
t-57.5 -107t-103.5 -81.5t-155 -44.5zM391 491q-35 -3 -63 -20.5t-47.5 -44.5t-30 -61t-10.5 -70q0 -91 92 -105zM640 387q0 88 -88 103l-58 -299q34 4 61.5 21.5t46 44.5t28.5 60.5t10 69.5z" />
    <glyph glyph-name="Chi" unicode="&#x3a7;" horiz-adv-x="588" 
d="M407 339l123 -312q3 -9 0.5 -18t-19.5 -9h-120q-13 0 -20 4t-12 18l-28 91l-31 106l-68 -108l-61 -87q-10 -14 -19 -19t-24 -5h-137q-14 0 -14.5 9t8.5 20l242 310l-113 297q-5 13 0.5 21t19.5 8h119q16 0 20.5 -4.5t9.5 -17.5l26 -87l26 -91l63 96l56 80q8 13 16 18
t21 5h138q11 0 15.5 -2.5t5 -6.5t-2 -8.5t-5.5 -8.5z" />
    <glyph glyph-name="Psi" unicode="&#x3a8;" horiz-adv-x="798" 
d="M403 642q2 10 7.5 16.5t18.5 6.5h118q14 0 16.5 -7.5t0.5 -15.5l-70 -358q46 6 81.5 38t46.5 89l45 231q2 10 8 16.5t19 6.5h112q14 0 16.5 -7.5t0.5 -15.5l-44 -231q-11 -56 -32.5 -102.5t-58 -81t-90.5 -55t-130 -24.5l-25 -126q-1 -7 -6 -14.5t-19 -7.5h-118
q-13 0 -16.5 6t-1.5 16l25 126q-66 4 -110.5 27t-70 59.5t-32 84.5t4.5 104l42 219q2 10 7.5 16.5t18.5 6.5h115q14 0 16.5 -7.5t0.5 -15.5l-44 -231q-11 -57 9.5 -90t68.5 -37z" />
    <glyph glyph-name="Omega" unicode="&#x3a9;" horiz-adv-x="691" 
d="M553 133h62q14 0 16.5 -6t0.5 -14l-18 -91q-5 -22 -30 -22h-221q-15 0 -17.5 7.5t-0.5 14.5l17 90q3 13 10.5 20t13.5 12q42 29 67 72t38 106q6 26 8.5 50.5t3.5 45.5q1 57 -22.5 85.5t-78.5 28.5q-34 0 -58.5 -15t-42.5 -42t-30 -64.5t-21 -82.5q-8 -47 -9 -81
q-1 -35 8.5 -58.5t25.5 -34.5q5 -5 10 -11.5t2 -20.5l-19 -100q-2 -6 -6 -14t-19 -8h-214q-14 0 -16.5 6t-0.5 16l18 91q2 9 6.5 14.5t18.5 5.5h60l1 1q-12 11 -20 29t-12.5 38t-6 41t-0.5 38q1 34 6.5 71t16.5 75q14 47 39 91t63 78.5t91.5 55.5t124.5 21q73 0 121 -19
t77 -51.5t41 -75.5t12 -92q0 -25 -2.5 -52t-8.5 -53q-12 -58 -37 -110.5t-68 -83.5v-2z" />
    <glyph glyph-name="Iotadieresis" unicode="&#x3aa;" horiz-adv-x="304" 
d="M155 642q2 10 8 16.5t19 6.5h118q14 0 16 -7.5t0 -15.5l-120 -620q-2 -7 -6.5 -14.5t-18.5 -7.5h-118q-13 0 -17 6t-2 16zM171 837q36 0 50.5 -11.5t14.5 -34.5q0 -18 -4 -35.5t-14.5 -30.5t-28 -21t-44.5 -8q-36 0 -50 12.5t-14 32.5t4.5 37.5t15 30.5t27.5 20.5t43 7.5
zM381 837q35 0 49.5 -11t14.5 -34q0 -18 -4 -35.5t-14.5 -31t-28 -21.5t-44.5 -8q-36 0 -50 12.5t-14 32.5t4.5 37.5t15 30.5t28 20.5t43.5 7.5z" />
    <glyph glyph-name="Upsilondieresis" unicode="&#x3ab;" horiz-adv-x="630" 
d="M233 241l-137 399q-3 10 1.5 17.5t15.5 7.5h111q17 0 23 -5t11 -19l40 -129l36 -124h6l85 125l85 120q11 15 20 23.5t26 8.5h133q12 0 13 -7t-5 -15l-303 -402l-42 -219q-1 -7 -6 -14.5t-19 -7.5h-118q-23 0 -18 22zM327 837q36 0 50.5 -11.5t14.5 -34.5q0 -18 -4 -35.5
t-14.5 -30.5t-28 -21t-44.5 -8q-36 0 -50 12.5t-14 32.5t4.5 37.5t15 30.5t27.5 20.5t43 7.5zM537 837q35 0 49.5 -11t14.5 -34q0 -18 -4 -35.5t-14.5 -31t-28 -21.5t-44.5 -8q-36 0 -50 12.5t-14 32.5t4.5 37.5t15 30.5t28 20.5t43.5 7.5z" />
    <glyph glyph-name="alphatonos" unicode="&#x3ac;" horiz-adv-x="561" 
d="M465 22q-1 -8 -6 -15t-19 -7h-113q-13 0 -15.5 5.5t-0.5 15.5l5 25l-1 1q-43 -28 -79.5 -41.5t-72.5 -13.5q-74 0 -101.5 38.5t-27.5 103.5q0 24 3.5 50.5t8.5 55.5q11 58 27.5 105.5t42.5 81t64.5 52t94.5 18.5q26 0 60 -9t62 -25l4 16q2 10 7 13t15 3h111q14 0 16.5 -6
t0.5 -17zM298 356q-20 0 -35 -6t-26 -19t-18.5 -34t-13.5 -51q-8 -40 -8 -61q0 -32 10.5 -42t33.5 -10q22 0 50 10.5t47 18.5l35 180q-42 14 -75 14zM513 731q19 -11 0 -32l-148 -151q-6 -7 -12.5 -10.5t-14.5 1.5l-47 29q-6 4 -8 9.5t6 14.5l126 173q8 11 16.5 12.5
t14.5 -2.5z" />
    <glyph glyph-name="epsilontonos" unicode="&#x3ad;" horiz-adv-x="480" 
d="M478 731q19 -11 0 -32l-148 -151q-6 -7 -12.5 -10.5t-14.5 1.5l-47 29q-6 4 -8 9.5t6 14.5l126 173q8 11 16.5 12.5t14.5 -2.5zM122 258q-25 12 -36 33t-11 43q0 51 23 84t58 52.5t77 27t80 7.5q18 0 40 -1.5t43.5 -4.5t41.5 -8t35 -12q11 -6 15.5 -14t-1.5 -24l-17 -53
q-3 -8 -5.5 -12.5t-6.5 -6.5t-11 -1.5t-18 1.5q-15 2 -32 3.5t-34.5 3t-33 2t-27.5 0.5q-26 0 -44.5 -9.5t-20.5 -32.5q-2 -17 14.5 -25t42.5 -8h56q14 0 16 -5.5t0 -16.5l-11 -57q-2 -12 -6.5 -16t-18.5 -4h-65q-26 0 -46.5 -9t-22.5 -36q-2 -21 10 -30.5t47 -9.5
q68 0 145 9q15 2 20.5 -1.5t5.5 -17.5l1 -49q0 -18 -5.5 -27.5t-30.5 -18.5q-35 -12 -80 -17.5t-82 -5.5q-34 0 -69.5 5t-65 19.5t-48 40.5t-18.5 69t26 78.5t70 51.5v3z" />
    <glyph glyph-name="etatonos" unicode="&#x3ae;" horiz-adv-x="555" 
d="M249 448h2q19 13 41 23t44 17t43 11t38 4q53 0 79.5 -18t36 -46.5t6.5 -64t-10 -69.5l-84 -417q-1 -7 -6 -14.5t-19 -7.5h-113q-13 0 -16 6t-1 16l80 394q8 47 -3.5 61.5t-41.5 14.5q-11 0 -24.5 -3t-27 -7.5t-26 -9.5t-21.5 -8l-60 -308q-1 -7 -6.5 -14.5t-19.5 -7.5
h-112q-12 0 -15.5 6t-1.5 16l87 450q2 10 8 16t18 6h113q14 0 16.5 -7t0.5 -15zM484 731q19 -11 0 -32l-148 -151q-6 -7 -12.5 -10.5t-14.5 1.5l-47 29q-6 4 -8 9.5t6 14.5l126 173q8 11 16.5 12.5t14.5 -2.5z" />
    <glyph glyph-name="iotatonos" unicode="&#x3af;" horiz-adv-x="278" 
d="M179 22q-1 -7 -6 -14.5t-19 -7.5h-112q-23 0 -18 22l87 450q2 11 8 16.5t19 5.5h112q14 0 16 -7.5t0 -14.5zM373 731q19 -11 0 -32l-148 -151q-6 -7 -12.5 -10.5t-14.5 1.5l-47 29q-6 4 -8 9.5t6 14.5l126 173q8 11 16.5 12.5t14.5 -2.5z" />
    <glyph glyph-name="upsilondieresistonos" unicode="&#x3b0;" horiz-adv-x="553" 
d="M202 202q-3 -15 -2.5 -29.5t6.5 -25t19 -17t35 -6.5q43 0 63.5 23.5t26.5 54.5l52 270q2 7 6.5 14.5t18.5 7.5h112q23 0 18 -22l-54 -279q-8 -42 -26 -78.5t-48.5 -63.5t-74.5 -42.5t-105 -15.5q-121 0 -170.5 57t-31.5 150l52 272q2 7 7 14.5t18 7.5h113q13 0 16 -5.5
t1 -16.5zM208 686q35 0 50 -11t15 -33q0 -18 -4.5 -35.5t-15 -31t-28.5 -22t-45 -8.5q-36 0 -49 13t-13 33t4.5 37.5t15 30t27.5 20t43 7.5zM541 686q35 0 50 -11t15 -33q0 -18 -4.5 -35.5t-15 -31t-28.5 -22t-45 -8.5q-35 0 -48.5 13t-13.5 33q0 40 19.5 67.5t70.5 27.5z
M488 741q19 -10 3 -32l-134 -164q-5 -8 -11.5 -11.5t-14.5 0.5l-50 24q-6 3 -8.5 8.5t4.5 15.5l110 184q8 12 16 14t14 -1z" />
    <glyph glyph-name="alpha" unicode="&#x3b1;" horiz-adv-x="561" 
d="M465 22q-1 -8 -6 -15t-19 -7h-113q-13 0 -15.5 5.5t-0.5 15.5l5 25l-1 1q-43 -28 -79.5 -41.5t-72.5 -13.5q-74 0 -101.5 38.5t-27.5 103.5q0 24 3.5 50.5t8.5 55.5q11 58 27.5 105.5t42.5 81t64.5 52t94.5 18.5q26 0 60 -9t62 -25l4 16q2 10 7 13t15 3h111q14 0 16.5 -6
t0.5 -17zM298 356q-20 0 -35 -6t-26 -19t-18.5 -34t-13.5 -51q-8 -40 -8 -61q0 -32 10.5 -42t33.5 -10q22 0 50 10.5t47 18.5l35 180q-42 14 -75 14z" />
    <glyph glyph-name="beta" unicode="&#x3b2;" horiz-adv-x="554" 
d="M356 712q82 0 132.5 -37t50.5 -109q0 -45 -18.5 -83.5t-67.5 -70.5q22 -9 35.5 -23t21 -30.5t10 -34.5t2.5 -35q0 -18 -2.5 -45t-9.5 -49q-29 -100 -86 -152.5t-157 -52.5q-11 0 -25 1t-28.5 3t-28 5t-23.5 6l-1 -1l-27 -139q-2 -8 -7 -15t-19 -7h-111q-14 0 -16.5 6.5
t-0.5 15.5l116 602q11 57 31.5 102t52 77t75 49t101.5 17zM338 583q-21 0 -36 -10.5t-25.5 -28.5t-17 -40.5t-10.5 -46.5l-64 -324q25 -6 40.5 -8t32.5 -2q38 0 62.5 27t36.5 91q4 17 4 36q0 33 -17.5 48t-61.5 15q-20 0 -17 17l12 63q2 8 5 14t16 8q35 9 60.5 31t25.5 63
q0 19 -12.5 33t-33.5 14z" />
    <glyph glyph-name="gamma" unicode="&#x3b3;" horiz-adv-x="539" 
d="M334 314q21 40 42 79t41 80q5 10 13.5 15.5t25.5 5.5h109q19 0 19 -9q0 -7 -6 -17l-268 -465q-8 -45 -17 -88.5t-18 -88.5q-1 -8 -6 -15t-19 -7h-112q-14 0 -17 6.5t-1 15.5l33 171q-14 88 -28.5 176.5t-30.5 178.5q-2 11 -6.5 17.5t-21.5 7.5q-8 0 -11 1t-4 9l-5 86
q1 11 16 17q17 7 35.5 11t38.5 4q40 0 61 -20.5t28 -68.5l21 -147l13 -96h4l17.5 35t19.5 38t19 37t15 31z" />
    <glyph glyph-name="delta" unicode="&#x3b4;" horiz-adv-x="550" 
d="M369 716q16 0 36.5 -1.5t41.5 -4t41 -7t36 -10.5q21 -8 27 -15t0 -26l-16 -51q-6 -20 -19 -20.5t-30 1.5q-35 5 -68.5 7.5t-54.5 2.5q-26 0 -44 -7.5t-18 -25.5q0 -12 13 -21.5t32.5 -19.5t43.5 -21t47 -27q19 -13 34.5 -28t26 -34t16.5 -43.5t6 -55.5q0 -26 -6 -66
q-8 -54 -26 -99.5t-51 -79.5t-83 -53t-120 -19q-59 0 -96.5 15t-59.5 40t-30 57t-8 66q0 20 2.5 40t6.5 40q6 28 16 56.5t27 54.5t40.5 48t56.5 37q-26 19 -36.5 45t-10.5 52q0 46 18 79t49 53.5t72.5 30.5t87.5 10zM301 367q-32 -8 -53.5 -34.5t-33.5 -64.5
q-6 -17 -9.5 -38.5t-3.5 -38.5q0 -30 9.5 -48.5t46.5 -18.5q22 0 38 8t27.5 22t19 33t12.5 42q2 14 4.5 30t2.5 30q0 29 -12.5 51t-47.5 27z" />
    <glyph glyph-name="epsilon" unicode="&#x3b5;" horiz-adv-x="480" 
d="M122 258q-25 12 -36 33t-11 43q0 51 23 84t58 52.5t77 27t80 7.5q18 0 40 -1.5t43.5 -4.5t41.5 -8t35 -12q11 -6 15.5 -14t-1.5 -24l-17 -53q-3 -8 -5.5 -12.5t-6.5 -6.5t-11 -1.5t-18 1.5q-15 2 -32 3.5t-34.5 3t-33 2t-27.5 0.5q-26 0 -44.5 -9.5t-20.5 -32.5
q-2 -17 14.5 -25t42.5 -8h56q14 0 16 -5.5t0 -16.5l-11 -57q-2 -12 -6.5 -16t-18.5 -4h-65q-26 0 -46.5 -9t-22.5 -36q-2 -21 10 -30.5t47 -9.5q68 0 145 9q15 2 20.5 -1.5t5.5 -17.5l1 -49q0 -18 -5.5 -27.5t-30.5 -18.5q-35 -12 -80 -17.5t-82 -5.5q-34 0 -69.5 5
t-65 19.5t-48 40.5t-18.5 69t26 78.5t70 51.5v3z" />
    <glyph glyph-name="zeta" unicode="&#x3b6;" horiz-adv-x="502" 
d="M108 371q-23 0 -17 23l14 79q3 11 9 16t18 5h391q13 0 16 -5t1 -15l-12 -61q-3 -15 -9.5 -25t-23.5 -18q-23 -10 -53.5 -24.5t-63.5 -31.5t-65 -36.5t-57.5 -39.5t-41 -40.5t-15.5 -40.5q0 -15 12 -24t32 -14t47 -6.5t56 -1.5h52q20 0 26 -3.5t11 -18.5l13 -46
q3 -10 1.5 -19.5t-15.5 -26.5q-23 -28 -48 -68t-47 -78q-11 -21 -19 -28t-25 1l-66 26q-24 10 -10 41q11 21 24 42t37 53q-54 2 -100 10.5t-80 25t-53 42.5t-19 63q0 41 21 77.5t54.5 67t74.5 55.5t81 44h-151z" />
    <glyph glyph-name="eta" unicode="&#x3b7;" horiz-adv-x="555" 
d="M249 448h2q19 13 41 23t44 17t43 11t38 4q53 0 79.5 -18t36 -46.5t6.5 -64t-10 -69.5l-84 -417q-1 -7 -6 -14.5t-19 -7.5h-113q-13 0 -16 6t-1 16l80 394q8 47 -3.5 61.5t-41.5 14.5q-11 0 -24.5 -3t-27 -7.5t-26 -9.5t-21.5 -8l-60 -308q-1 -7 -6.5 -14.5t-19.5 -7.5
h-112q-12 0 -15.5 6t-1.5 16l87 450q2 10 8 16t18 6h113q14 0 16.5 -7t0.5 -15z" />
    <glyph glyph-name="theta" unicode="&#x3b8;" horiz-adv-x="573" 
d="M369 709q58 0 98 -15t64 -41.5t34.5 -63.5t10.5 -80v-3q0 -32 -4.5 -70t-11.5 -76q-7 -40 -16 -82.5t-24 -83.5t-37.5 -77.5t-55 -64.5t-76.5 -44t-102 -16t-96.5 15.5t-61 42.5t-31.5 63t-9 78q0 40 5.5 84t13.5 87q6 32 14.5 70t23 76.5t36 74.5t53 64t74 45t98.5 17z
M220 311q-7 -32 -10 -59t-3 -48q0 -42 14 -62.5t46 -20.5q26 0 45.5 10t34 32.5t25.5 59t21 88.5h-173zM356 580q-40 0 -67.5 -40.5t-44.5 -117.5h168q4 23 6 42.5t2 36.5q0 36 -14 57.5t-50 21.5z" />
    <glyph glyph-name="iota" unicode="&#x3b9;" horiz-adv-x="278" 
d="M179 22q-1 -7 -6 -14.5t-19 -7.5h-112q-23 0 -18 22l87 450q2 11 8 16.5t19 5.5h112q14 0 16 -7.5t0 -14.5z" />
    </font>
</defs>
</svg>
