<svg width="27" height="17" viewBox="0 0 27 17" fill="none" xmlns="http://www.w3.org/2000/svg">
<path d="M14.1667 1.06282C14.3471 0.730687 14.3397 0.318845 14.1814 0H12.7421L4.63598 15.0212C4.4556 15.3533 4.46296 15.7651 4.62126 16.084H6.06062L14.1667 1.06282Z" fill="#3B4851"/>
<path d="M18.2345 1.06282C18.4149 0.730687 18.4075 0.318845 18.2492 0H16.8099L8.70008 15.0212C8.5197 15.3533 8.52706 15.7651 8.68536 16.084H10.1247L18.2345 1.06282Z" fill="#3B4851"/>
<path d="M10.1063 1.06282C10.2867 0.730687 10.2793 0.318845 10.121 0H8.68165L0.57188 15.0212C0.3915 15.3533 0.398862 15.7651 0.557155 16.084H1.99652L10.1063 1.06282Z" fill="#3B4851"/>
<path d="M22.2948 1.06282C22.4752 0.730687 22.4678 0.318845 22.3095 0H20.8702L12.7604 15.0212C12.58 15.3533 12.5874 15.7651 12.7457 16.084H14.185L22.2948 1.06282Z" fill="#3B4851"/>
<path d="M26.3589 1.06282C26.5393 0.730687 26.5319 0.318845 26.3736 0H24.9343L16.8245 15.0212C16.6441 15.3533 16.6515 15.7651 16.8098 16.084H18.2492L26.3589 1.06282Z" fill="#3B4851"/>
</svg>
