<?xml version="1.0" standalone="no"?>
<!DOCTYPE svg PUBLIC "-//W3C//DTD SVG 1.1//EN" "http://www.w3.org/Graphics/SVG/1.1/DTD/svg11.dtd" >
<svg xmlns="http://www.w3.org/2000/svg" xmlns:xlink="http://www.w3.org/1999/xlink" version="1.1">
<metadata>
Created by FontForge 20201107 at Sun Feb  1 19:50:25 2026
 By 
Copyright (c) 2008 Typotheque.com All rights reserved.
</metadata>
<defs>
<font id="GretaDisNarProBolItal" horiz-adv-x="940" >
  <font-face 
    font-family="Greta Dis Nar Pro Bol"
    font-weight="700"
    font-style="italic"
    font-stretch="condensed"
    units-per-em="2048"
    panose-1="2 0 5 6 0 0 0 9 0 4"
    ascent="1454"
    descent="-594"
    x-height="961"
    cap-height="1194"
    bbox="-735 -786 2306 1841"
    underline-thickness="102"
    underline-position="-204"
    slope="-9"
    unicode-range="U+0020-FB04"
  />
<missing-glyph horiz-adv-x="1347" 
d="M569 768v55h56v-55h-56zM723 1075v55h55v-55h-55zM569 1075v55h56v-55h-56zM416 1075v55h55v-55h-55zM109 0v55h55v-55h-55zM262 0v55h55v-55h-55zM416 0v55h55v-55h-55zM569 0v55h56v-55h-56zM723 0v55h55v-55h-55zM109 154v55h55v-55h-55zM109 307v55h55v-55h-55z
M109 461v55h55v-55h-55zM109 614v56h55v-56h-55zM109 768v55h55v-55h-55zM109 922v55h55v-55h-55zM109 1075v55h55v-55h-55zM109 1229v55h55v-55h-55zM109 1382v56h55v-56h-55zM262 1382v56h55v-56h-55zM416 1382v56h55v-56h-55zM569 1382v56h56v-56h-56zM723 1382v56h55
v-56h-55zM877 1382v56h55v-56h-55zM1030 1382v56h55v-56h-55zM1030 0v55h55v-55h-55zM877 0v55h55v-55h-55zM1184 0v55h55v-55h-55zM1184 1382v56h55v-56h-55zM569 614v56h56v-56h-56zM569 307v55h56v-55h-56zM723 768v55h55v-55h-55zM877 768v55h55v-55h-55zM877 922v55h55
v-55h-55zM877 1075v55h55v-55h-55zM1184 1229v55h55v-55h-55zM1184 1075v55h55v-55h-55zM1184 768v55h55v-55h-55zM1184 614v56h55v-56h-55zM1184 307v55h55v-55h-55zM1184 154v55h55v-55h-55zM1184 461v55h55v-55h-55zM1184 922v55h55v-55h-55z" />
    <glyph glyph-name="f_f" unicode="ff" horiz-adv-x="1159" 
d="M94 809l2 100h152l20 123q29 165 149 271t275 106q115 0 232 -66q122 113 297 113q99 0 194 -39l-65 -237h-50l-135 188q-30 -38 -57 -119t-37 -145l-33 -195h176l-2 -100h-192l-119 -698q-16 -93 -64 -178.5t-110.5 -144.5t-134.5 -94.5t-135 -35.5q-120 0 -226 63
q-68 -71 -144.5 -111t-143.5 -40q-109 0 -176 37l45 211q22 -14 61.5 -42t67.5 -43.5t71 -31.5q29 34 88 326l131 782h-137zM528 -211q40 45 86 326l119 694h-215l-131 -786q-12 -70 -43 -134q50 -44 88.5 -65.5t95.5 -34.5zM780 1077q9 56 31 109l-170 102
q-54 -69 -80 -229l-26 -150h217z" />
    <glyph glyph-name="fi" unicode="fi" horiz-adv-x="1091" 
d="M877 -16l-263 36l131 789h-227l-131 -786q-21 -122 -96.5 -229t-169.5 -165.5t-178 -58.5q-109 0 -176 37l45 211q20 -13 53.5 -36t52 -35t48.5 -25.5t61 -20.5q13 16 23.5 58.5t25 131t24.5 136.5l131 782h-137l2 100h152l28 168q30 178 165.5 280.5t316.5 102.5
q112 0 231 -43l-67 -237h-50l-227 188q-45 -60 -78 -264l-32 -195h213l241 52l58 -23l-129 -807l16 -14l131 108l31 -45z" />
    <glyph glyph-name="fl" unicode="fl" horiz-adv-x="1060" 
d="M614 20l193 1176l-180 139q-35 -76 -60 -231l-32 -195h104l-2 -100h-119l-131 -786q-21 -122 -96.5 -229t-169.5 -165.5t-178 -58.5q-109 0 -176 37l45 211q20 -13 53.5 -36t52 -35t48.5 -25.5t61 -20.5q13 16 23.5 58.5t25 131t24.5 136.5l131 782h-137l6 100h148
l28 168q29 164 147 269.5t265 105.5q104 0 203 -57l174 45l55 -37l-211 -1282l17 -15l133 119l28 -45l-219 -196z" />
    <glyph glyph-name="f_f_i" unicode="ffi" horiz-adv-x="1595" 
d="M479 -350q-142 0 -254 65q-66 -68 -141 -106.5t-141 -38.5q-109 0 -176 37l45 211q22 -14 61.5 -42t67.5 -43.5t71 -31.5q29 34 88 326l131 782h-137l2 100h152l20 123q29 165 149 271t275 106q127 0 250 -76q139 127 344 127q114 0 230 -43l-66 -237h-51l-211 188
q-29 -38 -55 -118t-37 -146l-33 -195h188l242 52l59 -23l-131 -807l17 -14l133 108l28 -45l-219 -196l-262 36l131 789h-205l-120 -707q-21 -122 -96 -228.5t-169.5 -165t-179.5 -58.5zM518 809l-131 -786q-12 -69 -43 -136q103 -83 207 -106q27 32 78 288q5 24 8 37
l121 703h-240zM561 1059l-26 -150h241l29 168q10 56 26 94l-204 117q-9 -11 -16.5 -25t-13.5 -32t-10 -32t-8.5 -37t-6.5 -34t-6 -36.5t-5 -32.5z" />
    <glyph glyph-name="f_f_l" unicode="ffl" horiz-adv-x="1572" 
d="M1126 20l189 1160h-15l-163 135q-48 -102 -66 -211l-33 -195h107l-2 -100h-123l-119 -698q-16 -93 -64 -178.5t-110.5 -144.5t-134.5 -94.5t-135 -35.5q-120 0 -226 63q-68 -71 -144.5 -111t-143.5 -40q-109 0 -176 37l45 211q22 -14 61.5 -42t67.5 -43.5t71 -31.5
q29 34 88 326l131 782h-151l2 100h166l20 123q29 165 149 271t275 106q114 0 228 -63q109 106 249 106q102 0 205 -63l203 51l55 -37l-211 -1282l17 -15l133 119l28 -45l-219 -196zM518 809l-131 -786q-12 -70 -43 -134q50 -44 88.5 -65.5t95.5 -34.5q40 45 86 326l119 694
h-215zM780 1077q9 56 31 109l-170 102q-54 -69 -80 -229l-26 -150h217z" />
    <glyph glyph-name="f_h" unicode="fh" horiz-adv-x="1550" 
d="M616 0l205 1186l-188 149q-44 -96 -66 -231l-32 -195h104l-2 -100h-119l-131 -786q-32 -191 -162 -322t-282 -131q-109 0 -176 37l45 211q20 -13 53.5 -36t52 -35t48.5 -25.5t61 -20.5q13 16 23.5 58.5t25 131t24.5 136.5l131 782h-137l2 100h152l28 168
q29 164 147 269.5t265 105.5q106 0 207 -59l186 47l58 -37l-113 -664q99 114 174 168t143 54q56 0 91.5 -76.5t35.5 -200.5q0 -80 -14 -160l-67 -391l16 -14l133 106l29 -45l-219 -196l-263 36l82 498q13 93 13 174q0 47 -6 68l-35 10q-46 -29 -127 -119l-109 -651h-287z
" />
    <glyph glyph-name="f_b" unicode="fb" horiz-adv-x="1452" 
d="M616 68l193 1126l-191 141q-10 -22 -19 -56t-12.5 -52t-11 -68t-8.5 -55l-32 -195h104l-2 -100h-119l-131 -786q-21 -122 -96.5 -229t-169.5 -165.5t-178 -58.5q-109 0 -176 37l45 211q27 -17 62.5 -46t64 -45.5t67.5 -25.5q8 10 16 30.5t17 58t15 65t17 85.5t17 87
l131 782h-125l2 100h140l28 168q29 163 152.5 269t271.5 106q107 0 205 -59l178 47l57 -37l-102 -592q174 150 256 150q60 0 101 -52t59 -130.5t18 -174.5q0 -143 -72.5 -288.5t-185 -238.5t-223.5 -93q-99 0 -195.5 23.5t-167.5 60.5zM1098 782l-88 -69l-105 -602
q51 -31 78 -31q46 0 88.5 79t67 191t24.5 213q0 139 -30 219h-35z" />
    <glyph glyph-name="f_j" unicode="fj" horiz-adv-x="1050" 
d="M506 -434l-27 20q93 156 137 414l136 809h-234l-131 -786q-21 -122 -96.5 -229t-169.5 -165.5t-178 -58.5q-109 0 -176 37l45 211q27 -17 62.5 -46t64 -45.5t67.5 -25.5q36 44 94 326l131 782h-137l2 100h152l28 168q30 178 165.5 280.5t316.5 102.5q112 0 231 -43
l-67 -237h-50l-227 188q-45 -60 -78 -264l-32 -195h219l241 52l58 -23l-154 -934q-11 -63 -51 -129t-97.5 -122.5t-119 -103t-125.5 -83.5z" />
    <glyph glyph-name="f_k" unicode="fk" horiz-adv-x="1480" 
d="M614 0l203 1190l-188 145q-38 -82 -62 -231l-32 -195h104l-2 -100h-119l-131 -786q-21 -122 -96.5 -229t-169.5 -165.5t-178 -58.5q-109 0 -176 37l45 211q27 -17 62.5 -46t64 -45.5t67.5 -25.5q36 44 94 326l131 782h-137l2 100h152l28 168q29 164 147 269.5t265 105.5
q107 0 205 -59l186 47l56 -37l-101 -602q114 120 189 157l237 -49q10 -62 10 -102q0 -209 -198 -297l100 -352l21 -6l106 71l23 -41l-236 -198l-184 34l-76 365l8 29q57 54 113.5 164.5t56.5 195.5q0 15 -4 39l-22 10q-59 -26 -162 -129l-117 -692h-285z" />
    <glyph glyph-name="f_idieresis" unicode="f&#xef;" horiz-adv-x="1091" 
d="M874 -16l-262 36l131 789h-225l-131 -786q-21 -122 -96.5 -229t-169.5 -165.5t-178 -58.5q-109 0 -176 37l45 211q25 -16 63.5 -46t67.5 -46t69 -25q29 34 88 326l131 782h-137l2 100h152l28 168q15 90 60 164t106 121t131.5 72.5t139.5 25.5q77 0 149 -35l-67 -237h-27
l-117 147q-58 -71 -84 -231l-32 -195h200l252 52l57 -23l-129 -817l17 -15l131 119l31 -45zM1182 1155l-123 49q53 95 80 205l143 -23q-45 -150 -100 -231zM956 1155l-120 49q54 102 75 205l146 -23q-48 -150 -101 -231z" />
    <glyph glyph-name="uni0065030A" unicode="e&#x2da;" horiz-adv-x="696" 
d="M643 377l16 -35q-51 -91 -165.5 -196t-237.5 -162l-170 36q-29 107 -29 242q0 324 117 514q125 185 324 185q118 0 250 -66l-5 -229v-4q-118 -110 -395 -240q-4 -70 -4 -107q0 -81 6 -122l27 -11q78 42 266 195zM518 1077q-56 0 -100.5 36.5t-44.5 105.5q0 68 55 119
t125 51q65 0 108.5 -39t43.5 -105q0 -64 -56.5 -116t-130.5 -52zM522 1114q57 0 97 39.5t40 91.5q0 53 -30 80t-80 27q-56 0 -93.5 -39t-37.5 -94t30.5 -80t73.5 -25zM430 850q-53 -98 -76 -358q82 52 176 141v182q-67 33 -100 35z" />
    <glyph glyph-name="uni00660304" unicode="f&#xaf;" horiz-adv-x="655" 
d="M94 809l2 100h152l28 168q30 177 154.5 278t286.5 101q99 0 194 -39l-65 -237h-51l-150 188q-45 -60 -78 -264l-32 -195h176l-2 -100h-191l-131 -786q-21 -122 -96.5 -229t-169.5 -165.5t-178 -58.5q-109 0 -176 37l45 211q20 -13 53.5 -36t52 -35t48.5 -25.5t61 -20.5
q8 10 15.5 31t15 57t13 66t14.5 85t15 87l131 782h-137zM928 1624h-381l14 59h381z" />
    <glyph glyph-name="uni006A0301" unicode="j&#xb4;" horiz-adv-x="536" 
d="M430 1389l162 -43v-27l-285 -244l-12 15zM-33 -438l-24 20q90 163 131 414l137 840h-135v45l377 80l59 -23l-154 -938q-20 -120 -135.5 -238t-255.5 -200z" />
    <glyph glyph-name="uni006E0304" unicode="n&#xaf;" horiz-adv-x="966" 
d="M774 -16l-262 36l82 498q12 86 12 174q0 47 -6 68l-35 10q-42 -25 -110 -100l-109 -670h-283l136 836h-136v45l377 80l60 -23l-31 -180q92 104 163.5 153.5t137.5 49.5q56 0 91.5 -76.5t35.5 -200.5q0 -80 -14 -160l-68 -391l16 -14l134 106l28 -45zM813 1210h-381l14 60
h381z" />
    <glyph glyph-name="uni00720300" unicode="r`" horiz-adv-x="700" 
d="M346 0h-283l138 836h-138v45l377 80l60 -23l-29 -168q133 191 197 191q30 0 62 -15.5t54 -40.5l-120 -258l-97 113q-72 -44 -110 -78zM268 1346l162 43l133 -299l-12 -15l-283 244v27z" />
    <glyph glyph-name="uni00730306" unicode="s&#x2d8;" horiz-adv-x="722" 
d="M694 590h-49l-47 198q-37 17 -93.5 30t-88.5 13q-36 0 -61 -22t-25 -45q0 -21 9 -41t34.5 -46t41 -40.5t58.5 -49t57 -46.5q70 -60 110 -118.5t40 -127.5q0 -70 -63.5 -144t-153 -120.5t-164.5 -46.5q-81 0 -159.5 16t-123.5 41l54 336h47l51 -227q108 -48 217 -48
q61 0 61 68q0 29 -24 63.5t-47.5 57t-77.5 69.5q-77 69 -119.5 130t-42.5 137q0 52 32 111t84.5 108.5t127 82t151.5 32.5q99 0 222 -54zM547 1077q-70 0 -113 55.5t-51 147.5l137 20q3 -102 60 -145q64 7 118.5 52t83.5 102l35 -13q-62 -115 -118.5 -167t-151.5 -52z" />
    <glyph glyph-name="uni00760304" unicode="v&#xaf;" horiz-adv-x="827" 
d="M879 940l-2 -59l-392 -881h-280q-36 120 -65.5 385t-26.5 451h-99v47l363 78l61 -13q-16 -112 -16 -274q0 -270 43 -522h20l154 436l6 352h234zM766 1210h-381l14 60h381z" />
    <glyph glyph-name="uni00780304" unicode="x&#xaf;" horiz-adv-x="878" 
d="M922 940l-2 -55l-334 -342l137 -426l16 -4l135 80l19 -39l-231 -170l-193 22l-98 316l-68 -68l-65 -254h-232v49l342 342l-137 445h-119v43l311 82l58 -21l104 -332l62 62l67 270h228zM809 1210h-381l14 60h381z" />
    <glyph glyph-name="uni0045030A" unicode="E&#x2da;" horiz-adv-x="1001" 
d="M20 0l5 43l122 25l181 1054l-115 27l8 45h866l-55 -332h-57l-94 254h-238l-82 -483l320 24l-19 -118l-313 24l-84 -483h235l250 291l47 -9l-114 -362h-863zM772 1309q57 0 97 39.5t40 91.5q0 53 -30 79.5t-80 26.5q-56 0 -93.5 -39t-37.5 -94t30.5 -79.5t73.5 -24.5z
M768 1272q-57 0 -101 36t-44 105q0 68 55 119t125 51q65 0 108 -38.5t43 -104.5q0 -64 -56 -116t-130 -52z" />
    <glyph glyph-name="uni00460304" unicode="F&#xaf;" horiz-adv-x="921" 
d="M20 0l5 43l122 23l181 1058l-115 25l8 45h848l-55 -332h-56l-77 254h-238l-86 -504l322 25l-23 -119l-313 25l-78 -467l145 -31l-6 -45h-584zM969 1374h-434l14 60h434z" />
    <glyph glyph-name="uni004A0301" unicode="J&#xb4;" horiz-adv-x="763" 
d="M287 -16q-182 0 -295 55l61 375h62l49 -336q40 -12 67 -12q21 0 36.5 5.5t27.5 21t19 27.5t15 42t11.5 45.5t11.5 56.5l146 862l-123 23l10 45h565l-6 -43l-131 -25l-135 -794q-26 -154 -139.5 -251t-251.5 -97zM860 1552l84 -108v-27l-379 -139l-10 20z" />
    <glyph glyph-name="uni004E0304" unicode="N&#xaf;" horiz-adv-x="1249" 
d="M-6 0l6 39l147 53l170 993l-129 68l7 41h385l415 -752h6l117 645l-211 66l6 41h453l-6 -39l-154 -55l-190 -1116h-139l-488 934h-8l-141 -812l231 -65l-6 -41h-471zM1061 1374h-434l14 60h434z" />
    <glyph glyph-name="uni00500304" unicode="P&#xaf;" horiz-adv-x="1024" 
d="M20 0l3 39l124 27l183 1062l-117 21l8 45h547q160 0 259 -79t99 -210q0 -120 -40.5 -208t-113 -138t-162.5 -73t-200 -23h-78l-69 -395l141 -27l-4 -41h-580zM545 539h22q65 0 114.5 53t74 135.5t24.5 177.5q0 91 -28 147.5t-90 59.5h-19zM967 1374h-435l15 60h434z" />
    <glyph glyph-name="uni00520300" unicode="R`" horiz-adv-x="1110" 
d="M20 0l5 39l120 29l181 1052l-113 33l8 41h570q150 0 231.5 -68.5t81.5 -199.5q0 -142 -62.5 -233.5t-173.5 -131.5l166 -485l96 -37l-6 -39h-399l-143 514h-43l-78 -446l108 -27l-6 -41h-543zM553 594q68 7 115.5 52.5t68.5 112t21 148.5q0 91 -26.5 149.5t-82.5 59.5h-6
zM354 1444l82 108l307 -249l-10 -25l-379 139v27z" />
    <glyph glyph-name="uni00530306" unicode="S&#x2d8;" horiz-adv-x="899" 
d="M377 -16q-163 0 -330 82l57 346h66l59 -297q49 -34 86.5 -45t87.5 -11q40 0 77.5 11t71.5 33.5t54.5 64.5t20.5 98q0 44 -24 79t-62.5 60t-85 49t-93.5 51.5t-85.5 61t-62.5 85t-24 116.5q0 105 39 190.5t105 140t152 84t182 29.5q103 0 187 -22t134 -55l-55 -320h-66
l-65 291q-29 19 -57 25t-80 6q-89 0 -153 -57.5t-64 -135.5q0 -47 25 -82.5t65.5 -59t89 -45.5t97 -48t89 -59.5t65.5 -88t25 -125.5q0 -119 -42.5 -208.5t-117 -141.5t-167 -77t-201.5 -25zM694 1284q-72 0 -124.5 57t-59.5 146l137 20q2 -87 80 -145q67 7 132 49.5
t91 95.5l35 -12q-57 -106 -125 -158.5t-166 -52.5z" />
    <glyph glyph-name="uni00560304" unicode="V&#xaf;" horiz-adv-x="1003" 
d="M342 0l-156 1135l-80 18l9 41h506l-7 -39l-106 -20l98 -811h12l367 776l-143 53l6 41h358l-4 -39l-100 -43l-570 -1112h-190zM977 1374h-434l14 60h434z" />
    <glyph glyph-name="uni00580304" unicode="X&#xaf;" horiz-adv-x="1040" 
d="M516 0l6 39l113 29l-154 401l-291 -381l162 -47l-4 -41h-416l9 39l118 31l387 485l-221 580l-84 18l6 41h510l-8 -39l-96 -20l131 -336l242 311l-109 43l6 41h379l-8 -39l-182 -59l-297 -377l258 -662l76 -16l-7 -41h-526zM995 1374h-434l14 60h435z" />
    <glyph glyph-name="f_igrave" unicode="f&#xec;" horiz-adv-x="1091" 
d="M874 -16l-262 36l131 789h-225l-131 -786q-21 -122 -96.5 -229t-169.5 -165.5t-178 -58.5q-109 0 -176 37l45 211q25 -16 63.5 -46t67.5 -46t69 -25q29 34 88 326l131 782h-137l2 100h152l28 168q15 90 60 164t106 121t131.5 72.5t139.5 25.5q77 0 149 -35l-67 -237h-27
l-117 147q-58 -71 -84 -231l-32 -195h200l252 52l57 -23l-129 -817l17 -15l131 119l31 -45zM1081 1087l-28 -6l-168 275l4 26l135 21z" />
    <glyph glyph-name="uni00480331" unicode="H&#x331;" horiz-adv-x="1292" 
d="M20 0l5 43l122 23l181 1060l-115 23l8 45h539l-8 -43l-113 -21l-82 -481h348l78 477l-115 23l9 45h538l-6 -43l-115 -21l-182 -1062l107 -23l-7 -45h-536l4 43l123 20l90 525h-346l-90 -522l106 -21l-6 -45h-537zM778 -272h-381l15 59h381z" />
    <glyph glyph-name="uni004D0310" unicode="M&#x310;" horiz-adv-x="1556" 
d="M977 0l4 39l123 24l86 875h-10l-484 -954h-100l-152 995h-10l-205 -889l138 -49l-5 -41h-364l6 39l137 53l250 1024l-133 37l8 41h449l116 -766h5l387 766h409l-4 -41l-125 -39l-86 -1059l96 -14l-4 -41h-532zM948 1255q-72 0 -123.5 57t-58.5 146l135 21q12 -96 80 -146
q70 8 133.5 45t89.5 88l45 -14q-53 -94 -134 -145.5t-167 -51.5zM1094 1466l-133 50q57 98 79 204l158 -22q-50 -157 -104 -232z" />
    <glyph glyph-name="uni00520325" unicode="R&#x325;" horiz-adv-x="1110" 
d="M20 0l5 39l120 29l181 1052l-113 33l8 41h570q150 0 231.5 -68.5t81.5 -199.5q0 -142 -62.5 -233.5t-173.5 -131.5l166 -485l96 -37l-6 -39h-399l-143 514h-43l-78 -446l108 -27l-6 -41h-543zM553 594q68 7 115.5 52.5t68.5 112t21 148.5q0 91 -26.5 149.5t-82.5 59.5h-6
zM549 -367q57 0 97 39.5t40 91.5q0 53 -30.5 80t-80.5 27q-56 0 -93.5 -39t-37.5 -94t31 -80t74 -25zM545 -403q-57 0 -101.5 36t-44.5 105q0 68 55.5 119t125.5 51q65 0 108 -39t43 -105q0 -64 -56 -115.5t-130 -51.5z" />
    <glyph glyph-name="uni005203250304" unicode="R&#x325;&#xaf;" horiz-adv-x="1110" 
d="M20 0l5 39l120 29l181 1052l-113 33l8 41h570q150 0 231.5 -68.5t81.5 -199.5q0 -142 -62.5 -233.5t-173.5 -131.5l166 -485l96 -37l-6 -39h-399l-143 514h-43l-78 -446l108 -27l-6 -41h-543zM553 594q68 7 115.5 52.5t68.5 112t21 148.5q0 91 -26.5 149.5t-82.5 59.5h-6
zM934 1374h-434l14 60h434zM549 -367q57 0 97 39.5t40 91.5q0 53 -30.5 80t-80.5 27q-56 0 -93.5 -39t-37.5 -94t31 -80t74 -25zM545 -403q-57 0 -101.5 36t-44.5 105q0 68 55.5 119t125.5 51q65 0 108 -39t43 -105q0 -64 -56 -115.5t-130 -51.5z" />
    <glyph glyph-name="uni00530331" unicode="S&#x331;" horiz-adv-x="899" 
d="M377 -16q-163 0 -330 82l57 346h66l59 -297q49 -34 86.5 -45t87.5 -11q40 0 77.5 11t71.5 33.5t54.5 64.5t20.5 98q0 44 -24 79t-62.5 60t-85 49t-93.5 51.5t-85.5 61t-62.5 85t-24 116.5q0 105 39 190.5t105 140t152 84t182 29.5q103 0 187 -22t134 -55l-55 -320h-66
l-65 291q-29 19 -57 25t-80 6q-89 0 -153 -57.5t-64 -135.5q0 -47 25 -82.5t65.5 -59t89 -45.5t97 -48t89 -59.5t65.5 -88t25 -125.5q0 -119 -42.5 -208.5t-117 -141.5t-167 -77t-201.5 -25zM614 -272h-381l15 59h381z" />
    <glyph glyph-name="uni00530300" unicode="S`" horiz-adv-x="899" 
d="M377 -16q-163 0 -330 82l57 346h66l59 -297q49 -34 86.5 -45t87.5 -11q40 0 77.5 11t71.5 33.5t54.5 64.5t20.5 98q0 44 -24 79t-62.5 60t-85 49t-93.5 51.5t-85.5 61t-62.5 85t-24 116.5q0 105 39 190.5t105 140t152 84t182 29.5q103 0 187 -22t134 -55l-55 -320h-66
l-65 291q-29 19 -57 25t-80 6q-89 0 -153 -57.5t-64 -135.5q0 -47 25 -82.5t65.5 -59t89 -45.5t97 -48t89 -59.5t65.5 -88t25 -125.5q0 -119 -42.5 -208.5t-117 -141.5t-167 -77t-201.5 -25zM387 1444l82 108l307 -249l-10 -25l-379 139v27z" />
    <glyph glyph-name="uni00540308" unicode="T&#xa8;" horiz-adv-x="954" 
d="M172 0l8 43l123 23l176 1050h-131l-198 -315h-58l70 393h977l-68 -393h-57l-90 315h-129l-177 -1048l107 -23l-6 -45h-547zM522 1278l-137 49q62 105 82 205l160 -23q-54 -156 -105 -231zM866 1278l-137 49q60 98 82 205l160 -23q-49 -152 -105 -231z" />
    <glyph glyph-name="uni005A0324" unicode="Z&#x324;" horiz-adv-x="944" 
d="M8 0v84l725 1036h-311l-191 -317h-55l68 391h821l4 -70l-745 -1048h374l205 301l62 -10l-99 -367h-858zM326 -334l-136 49q29 50 51.5 108t28.5 97l158 -22q-58 -167 -102 -232zM627 -334l-135 49q59 95 81 205l158 -22q-50 -157 -104 -232z" />
    <glyph glyph-name="uni006D0310" unicode="m&#x310;" horiz-adv-x="1411" 
d="M1223 -16l-262 36l81 498q13 89 13 166q0 55 -8 76l-33 10q-45 -24 -117 -106q-4 -76 -14 -140l-95 -524h-274l80 518q12 82 12 166q0 52 -6 76l-33 10q-45 -26 -112 -102l-109 -668h-283l136 836h-136v45l377 80l60 -23l-31 -180q92 104 163.5 153.5t137.5 49.5
q54 0 88 -62t39 -166q97 117 174 172.5t146 55.5q63 0 97 -69.5t34 -189.5q0 -84 -17 -178l-67 -397l16 -14l133 110l29 -43zM803 1067q-70 0 -113 55.5t-51 147.5l135 20q6 -103 62 -145q66 7 131 53t92 100l35 -12q-59 -108 -126.5 -163.5t-164.5 -55.5zM942 1303l-135 49
q60 98 82 204l158 -22q-49 -152 -105 -231z" />
    <glyph glyph-name="uni007000AF" unicode="p&#xaf;" horiz-adv-x="874" 
d="M-135 -424l6 35l96 35l168 975q-17 -8 -43 -22.5t-35 -18.5l-6 49l94 61l39 219l301 74l-20 -111q182 89 240 89q60 0 101 -52t58 -130t17 -175q0 -93 -34 -196.5t-92.5 -194.5t-149 -155t-191.5 -74q-60 0 -107 6l-59 -334l119 -43l-7 -37h-495zM498 803q-21 -6 -47 -19
l-121 -665q50 -37 100 -37q29 -1 65.5 75t62.5 187t26 201q0 67 -11.5 142t-33.5 116h-41zM754 1210h-381l14 60h381z" />
    <glyph glyph-name="uni00720325" unicode="r&#x325;" horiz-adv-x="700" 
d="M346 0h-283l138 836h-138v45l377 80l60 -23l-29 -168q133 191 197 191q30 0 62 -15.5t54 -40.5l-120 -258l-97 113q-72 -44 -110 -78zM145 -403q-57 0 -101 36t-44 105q0 68 55 119t125 51q65 0 108.5 -39t43.5 -105q0 -64 -56.5 -115.5t-130.5 -51.5zM150 -367
q57 0 97 39.5t40 91.5q0 53 -30.5 80t-80.5 27q-56 0 -93.5 -39t-37.5 -94t31 -80t74 -25z" />
    <glyph glyph-name="uni007203250304" unicode="r&#x325;&#xaf;" horiz-adv-x="700" 
d="M346 0h-283l138 836h-138v45l377 80l60 -23l-29 -168q133 191 197 191q30 0 62 -15.5t54 -40.5l-120 -258l-97 113q-72 -44 -110 -78zM145 -403q-57 0 -101 36t-44 105q0 68 55 119t125 51q65 0 108.5 -39t43.5 -105q0 -64 -56.5 -115.5t-130.5 -51.5zM150 -367
q57 0 97 39.5t40 91.5q0 53 -30.5 80t-80.5 27q-56 0 -93.5 -39t-37.5 -94t31 -80t74 -25zM702 1208h-380l14 60h381z" />
    <glyph glyph-name="uni00730331" unicode="s&#x331;" horiz-adv-x="722" 
d="M694 590h-49l-47 198q-37 17 -93.5 30t-88.5 13q-36 0 -61 -22t-25 -45q0 -21 9 -41t34.5 -46t41 -40.5t58.5 -49t57 -46.5q70 -60 110 -118.5t40 -127.5q0 -70 -63.5 -144t-153 -120.5t-164.5 -46.5q-81 0 -159.5 16t-123.5 41l54 336h47l51 -227q108 -48 217 -48
q61 0 61 68q0 29 -24 63.5t-47.5 57t-77.5 69.5q-77 69 -119.5 130t-42.5 137q0 52 32 111t84.5 108.5t127 82t151.5 32.5q99 0 222 -54zM479 -272h-381l15 59h381z" />
    <glyph glyph-name="uni00730300" unicode="s`" horiz-adv-x="722" 
d="M694 590h-49l-47 198q-37 17 -93.5 30t-88.5 13q-36 0 -61 -22t-25 -45q0 -21 9 -41t34.5 -46t41 -40.5t58.5 -49t57 -46.5q70 -60 110 -118.5t40 -127.5q0 -70 -63.5 -144t-153 -120.5t-164.5 -46.5q-81 0 -159.5 16t-123.5 41l54 336h47l51 -227q108 -48 217 -48
q61 0 61 68q0 29 -24 63.5t-47.5 57t-77.5 69.5q-77 69 -119.5 130t-42.5 137q0 52 32 111t84.5 108.5t127 82t151.5 32.5q99 0 222 -54zM313 1348l162 43l133 -299l-12 -15l-283 244v27z" />
    <glyph glyph-name="uni007A0324" unicode="z&#x324;" horiz-adv-x="720" 
d="M59 -16l-53 16l-10 47l506 647l-8 8q-62 -20 -166 -20q-84 0 -164 18l-60 -114l-47 6l52 344l57 25q203 -21 340 -21q146 0 211 18l51 -73l-477 -613l6 -26h326l59 139l55 -4l-67 -371l-58 -26l-497 65zM207 -334l-135 49q29 50 51.5 108t28.5 97l157 -22
q-58 -167 -102 -232zM508 -334l-135 49q60 98 82 205l157 -22q-50 -157 -104 -232z" />
    <glyph glyph-name="lambda_lambda" unicode="&#x3bb;&#x3bb;" horiz-adv-x="1515" 
d="M1282 0l-74 647l-260 -647l-264 -16l-43 16l-72 647l-260 -647h-272l-12 31l510 921l-15 138q-11 105 -63 161q-149 -11 -273 -80l-34 5l-27 264q45 18 141 18q33 0 66 -6t79.5 -29t83 -60.5t67.5 -108t42 -164.5l107 -889q18 -1 51 6l414 745l-15 138q-11 105 -63 161
q-150 -12 -271 -80l-37 5l-26 264q45 18 141 18q33 0 66.5 -6t80 -29t83 -60.5t67.5 -108t43 -164.5l107 -889q7 -3 24 -0.5t23 2.5t22.5 4t22 6t22 7t23.5 7l6 -14q-22 -77 -170 -229z" />
    <glyph glyph-name="gamma_gamma" unicode="&#x3b3;&#x3b3;" horiz-adv-x="1507" 
d="M1335 956q66 9 131 -5t103 -56q-8 -137 -141.5 -402t-270.5 -456l-47 -438q-99 -35 -172 -33q-70 0 -111 14l113 416q-1 105 -47 341.5t-92 399.5h-6q-59 -212 -132.5 -410t-140.5 -290l-47 -438q-95 -35 -172 -33q-67 0 -110 14l114 416q-12 154 -68.5 433t-88.5 400
l-21 15l-82 -13l-6 52l264 78l98 -19q8 -38 16.5 -108.5t18.5 -174.5t17 -181.5t17.5 -205t14.5 -170.5h19q58 95 135 413.5t88 426.5q83 10 119 10q68 0 158 -10q24 -121 62 -390.5t52 -449.5h21q55 93 117.5 405.5t76.5 448.5z" />
    <glyph glyph-name=".notdef" horiz-adv-x="1347" 
d="M569 768v55h56v-55h-56zM723 1075v55h55v-55h-55zM569 1075v55h56v-55h-56zM416 1075v55h55v-55h-55zM109 0v55h55v-55h-55zM262 0v55h55v-55h-55zM416 0v55h55v-55h-55zM569 0v55h56v-55h-56zM723 0v55h55v-55h-55zM109 154v55h55v-55h-55zM109 307v55h55v-55h-55z
M109 461v55h55v-55h-55zM109 614v56h55v-56h-55zM109 768v55h55v-55h-55zM109 922v55h55v-55h-55zM109 1075v55h55v-55h-55zM109 1229v55h55v-55h-55zM109 1382v56h55v-56h-55zM262 1382v56h55v-56h-55zM416 1382v56h55v-56h-55zM569 1382v56h56v-56h-56zM723 1382v56h55
v-56h-55zM877 1382v56h55v-56h-55zM1030 1382v56h55v-56h-55zM1030 0v55h55v-55h-55zM877 0v55h55v-55h-55zM1184 0v55h55v-55h-55zM1184 1382v56h55v-56h-55zM569 614v56h56v-56h-56zM569 307v55h56v-55h-56zM723 768v55h55v-55h-55zM877 768v55h55v-55h-55zM877 922v55h55
v-55h-55zM877 1075v55h55v-55h-55zM1184 1229v55h55v-55h-55zM1184 1075v55h55v-55h-55zM1184 768v55h55v-55h-55zM1184 614v56h55v-56h-55zM1184 307v55h55v-55h-55zM1184 154v55h55v-55h-55zM1184 461v55h55v-55h-55zM1184 922v55h55v-55h-55z" />
    <glyph glyph-name=".null" horiz-adv-x="0" 
 />
    <glyph glyph-name="nonmarkingreturn" horiz-adv-x="682" 
 />
    <glyph glyph-name="space" unicode=" " horiz-adv-x="389" 
 />
    <glyph glyph-name="exclam" unicode="!" horiz-adv-x="518" 
d="M602 1192v-74l-237 -749h-46l19 823h264zM141 25q24 49 52 121t34 102q53 4 115 -5.5t90 -23.5q-55 -182 -104 -246q-42 0 -98.5 15t-88.5 37z" />
    <glyph glyph-name="quotedbl" unicode="&#x22;" horiz-adv-x="718" 
d="M199 946l82 494h190l12 -56l-217 -438h-67zM553 946l82 494h190l13 -56l-217 -438h-68z" />
    <glyph glyph-name="numbersign" unicode="#" horiz-adv-x="1079" 
d="M199 805l28 90h242l117 299h82l-115 -299h326l114 299h86l-114 -299h229l-29 -90h-233l-131 -346h246l-29 -92h-252l-139 -367h-90l139 367h-324l-139 -367h-88l141 367h-215l29 92h221l133 346h-235zM520 805l-133 -346h324l133 346h-324z" />
    <glyph glyph-name="dollar" unicode="$" horiz-adv-x="841" 
d="M371 -10q-172 0 -324 82l59 342h80l-4 -209q95 -129 219 -129h7l65 395q-11 8 -44.5 31t-47.5 34t-43 34.5t-43.5 39.5t-35 42t-30 50t-17 55t-7.5 64q0 86 32 157t87 118t125.5 75t150.5 35l18 115h64l-18 -111q94 -1 173 -23t124 -54l-56 -318h-82l4 197
q-34 53 -73.5 82.5t-104.5 33.5l-65 -380q15 -11 60.5 -42.5t65.5 -46.5t54.5 -47t50.5 -57.5t29.5 -63.5t13.5 -79q0 -84 -21 -152t-57 -114.5t-88 -79t-110 -49.5t-127 -23l-21 -123h-61l20 119h-22zM444 958q0 -88 84 -165l58 331q-61 -13 -101.5 -56.5t-40.5 -109.5z
M608 287q0 71 -80 141l-57 -342q60 21 98.5 71.5t38.5 129.5z" />
    <glyph glyph-name="percent" unicode="%" horiz-adv-x="1261" 
d="M88 750q0 73 22.5 149.5t63 143t106.5 109t144 42.5q101 0 159 -64t58 -186q0 -193 -99 -316.5t-235 -123.5q-102 0 -160.5 63.5t-58.5 182.5zM330 588q36 0 68 55t50.5 148.5t18.5 201.5q0 121 -61 121q-37 0 -66.5 -41.5t-45 -105t-23 -127.5t-7.5 -121q0 -131 66 -131
zM723 227q0 73 22 149.5t62.5 144t106.5 110.5t145 43q101 0 159 -64t58 -186q0 -192 -98.5 -316t-233.5 -124q-101 0 -161 62.5t-60 180.5zM965 70q52 0 95.5 124t43.5 273q0 66 -18 97.5t-48 31.5q-54 0 -96.5 -131.5t-42.5 -280.5q0 -114 66 -114zM311 0h-82l834 1194h84
z" />
    <glyph glyph-name="ampersand" unicode="&#x26;" horiz-adv-x="1198" 
d="M1139 573h-19q-10 -155 -102 -292t-232 -217t-288 -80q-59 0 -112 6t-113.5 25t-104 50.5t-72 87t-28.5 128.5q0 67 27 127t69.5 102t86 70t85.5 41q-70 25 -123 92.5t-53 134.5q0 165 134 275t324 110q151 0 234.5 -57.5t83.5 -147.5q0 -26 -2 -43.5t-12.5 -44
t-29.5 -47t-55.5 -42.5t-88.5 -40q65 -8 159 -8q218 0 348 65l70 -235q-63 -60 -186 -60zM623 715l-15 55q78 114 78 217q0 109 -86 170h-41q-50 -11 -83.5 -82.5t-33.5 -146.5q0 -86 20 -138t62 -106v-47q-57 -28 -95 -84.5t-38 -138.5q0 -76 44.5 -154.5t110.5 -128
t126 -49.5q100 41 181.5 183.5t104.5 330.5q-129 31 -335 119z" />
    <glyph glyph-name="quotesingle" unicode="'" horiz-adv-x="366" 
d="M205 946l82 494h178l16 -56l-209 -438h-67z" />
    <glyph glyph-name="parenleft" unicode="(" horiz-adv-x="538" 
d="M369 -379q-40 40 -82 105.5t-83.5 157t-68 213.5t-26.5 249q0 199 78 399.5t200.5 362t282.5 297.5l49 -47q-54 -47 -115 -112t-136.5 -167.5t-134 -211.5t-98.5 -245.5t-40 -267.5q0 -119 25 -232.5t66 -202.5t74 -144.5t68 -102.5z" />
    <glyph glyph-name="parenright" unicode=")" horiz-adv-x="532" 
d="M315 1405q39 -40 80.5 -105.5t83 -157t68 -213.5t26.5 -249q0 -151 -43.5 -302.5t-121.5 -286t-177 -252.5t-217 -218l-49 47q54 47 115 112t135.5 167.5t133 211.5t98.5 245.5t40 267.5q0 119 -25 233t-65 202t-74 144.5t-69 102.5z" />
    <glyph glyph-name="asterisk" unicode="*" horiz-adv-x="698" 
d="M733 891l-12 -60l-43 -45l-197 158l31 -254l-55 -18l-54 18l31 256l-194 -160l-39 41l-17 62l226 96l-226 102l13 60l45 41l194 -162l-30 262l51 15l57 -15l-33 -260l199 160l43 -39l10 -62l-235 -100z" />
    <glyph glyph-name="plus" unicode="+" horiz-adv-x="929" 
d="M905 567h-342v-377h-88v377h-340v92h340v377h88v-377h342v-92z" />
    <glyph glyph-name="comma" unicode="," horiz-adv-x="485" 
d="M440 174q-57 -225 -352 -467l-25 17q65 106 110.5 236t51.5 237q35 6 78 6q92 0 137 -29z" />
    <glyph glyph-name="hyphen" unicode="-" horiz-adv-x="608" 
d="M596 426h-451l23 158h450z" />
    <glyph glyph-name="period" unicode="." horiz-adv-x="436" 
d="M84 25q24 49 52 121t34 102q53 4 115 -5.5t90 -23.5q-54 -180 -105 -246q-42 0 -98 15t-88 37z" />
    <glyph glyph-name="slash" unicode="/" horiz-adv-x="616" 
d="M772 1352l-674 -1522h-96l676 1522h94z" />
    <glyph glyph-name="zero" unicode="0" horiz-adv-x="917" 
d="M952 752q-3 -153 -42.5 -291.5t-108 -244.5t-172.5 -169t-228 -63q-148 0 -231.5 113.5t-83.5 301.5q0 156 39.5 302.5t109 260t173.5 182t225 68.5q105 0 178.5 -63t107 -164.5t33.5 -232.5zM465 66q44 0 78.5 47t53.5 116t31 161t15.5 167.5t3.5 151.5q0 413 -74 413
q-47 0 -84 -69t-57.5 -174t-30.5 -211.5t-10 -200.5q0 -401 74 -401z" />
    <glyph glyph-name="one" unicode="1" horiz-adv-x="694" 
d="M510 1200h174l-182 -1120l155 -41l-4 -39h-633l3 37l178 45l151 944h-190l4 33z" />
    <glyph glyph-name="two" unicode="2" horiz-adv-x="821" 
d="M819 272v-32l-86 -240h-657l-33 82q192 185 339.5 411t213.5 388q-52 69 -108 99t-130 30q-72 0 -172 -45l-18 16q60 98 153 164.5t183 66.5q159 0 248.5 -82.5t89.5 -211.5q0 -153 -130.5 -318t-379.5 -328h487z" />
    <glyph glyph-name="three" unicode="3" horiz-adv-x="778" 
d="M82 270h33q39 -46 110 -82t135 -36q77 0 140 42t86 109q-42 84 -116.5 153.5t-160.5 96.5l10 86q160 63 304 207q-29 69 -112.5 133.5t-166.5 64.5q-87 0 -176 -79l-23 32q74 89 176 152t201 63q132 0 218.5 -71t86.5 -191q0 -88 -78.5 -158t-183.5 -108v-8
q103 -34 170.5 -108t67.5 -158q0 -74 -59.5 -154t-144 -138t-177 -96t-158.5 -38q-162 0 -250 53z" />
    <glyph glyph-name="four" unicode="4" horiz-adv-x="860" 
d="M45 252l-12 162l610 780h236l-119 -731h155v-31l-67 -180h-123l-43 -268h-293l43 268h-387zM150 463h315l82 508z" />
    <glyph glyph-name="five" unicode="5" horiz-adv-x="772" 
d="M94 250l35 -2q50 -64 106 -109t101 -45t81 48.5t53.5 112.5t18.5 124q0 69 -15.5 103.5t-82.5 84.5q-38 -7 -71.5 -16.5t-78.5 -24.5t-53 -18l-59 55l123 631h575l-2 -47l-65 -193h-461l-59 -313q186 107 301 127q245 -65 245 -305q0 -77 -47.5 -163.5t-121 -155.5
t-170.5 -114.5t-189 -45.5q-54 0 -99 8t-66.5 15.5t-57.5 23.5z" />
    <glyph glyph-name="six" unicode="6" horiz-adv-x="837" 
d="M862 958l-55 -2q-111 123 -193 123q-102 0 -168.5 -115.5t-89.5 -310.5q84 62 170 102t146 40q85 -43 137.5 -138.5t52.5 -238.5q0 -97 -78.5 -200t-191 -168.5t-209.5 -65.5q-123 0 -210 117t-87 305q0 146 56 294.5t142.5 259.5t197 181.5t214.5 70.5q141 0 201 -24z
M510 655q-79 -28 -162 -80q-4 -43 -4 -129q0 -332 119 -376q35 12 61 45t38.5 77.5t18 85.5t5.5 82q0 180 -76 295z" />
    <glyph glyph-name="seven" unicode="7" horiz-adv-x="702" 
d="M121 956v27l67 211h633l33 -107l-500 -1103h-204l2 39l546 933h-577z" />
    <glyph glyph-name="eight" unicode="8" horiz-adv-x="915" 
d="M967 948q0 -84 -76.5 -158.5t-194.5 -134.5q197 -210 197 -319q0 -68 -48 -134.5t-120 -113t-157.5 -75.5t-159.5 -29q-134 0 -229 74t-95 188q0 50 14.5 93.5t37 74.5t57 59.5t68 47t77.5 38.5q-143 171 -143 297q0 67 46 135t112.5 115.5t139 77.5t125.5 30
q62 0 122.5 -16.5t112 -48.5t83 -84t31.5 -117zM694 182q-15 25 -62 72.5t-118.5 117.5t-120.5 124q-36 -77 -82 -224q95 -182 201 -182q64 0 182 92zM381 985q10 -18 37 -49t55 -58t80 -78t82 -81q24 35 56 96t40 74q-34 88 -87.5 147.5t-115.5 59.5q-43 0 -84 -33.5
t-63 -77.5z" />
    <glyph glyph-name="nine" unicode="9" horiz-adv-x="839" 
d="M113 240l55 2q111 -123 192 -123q102 0 168 115t90 309q-84 -62 -169.5 -101t-145.5 -39q-85 43 -137.5 138.5t-52.5 238.5q0 97 78.5 200t191 168.5t209.5 65.5q123 0 210 -116.5t87 -304.5q0 -146 -56 -294.5t-142.5 -260t-197 -182t-214.5 -70.5q-141 0 -201 24z
M465 543q79 28 162 80q4 82 4 129q0 332 -119 376q-35 -12 -61 -45t-38.5 -77.5t-18 -85.5t-5.5 -82q0 -180 76 -295z" />
    <glyph glyph-name="colon" unicode=":" horiz-adv-x="501" 
d="M104 25q24 49 52 121t34 102q53 4 115 -5.5t90 -23.5q-55 -182 -104 -246q-42 0 -98.5 15t-88.5 37zM221 707q24 49 52 121t34 102q53 4 115 -5.5t90 -23.5q-55 -182 -104 -246q-42 0 -98.5 15t-88.5 37z" />
    <glyph glyph-name="semicolon" unicode=";" horiz-adv-x="624" 
d="M428 174q-57 -225 -352 -467l-25 17q65 106 110.5 236t51.5 237q35 6 78 6q92 0 137 -29zM291 707q24 49 52 121t34 102q53 4 115 -5.5t90 -23.5q-54 -180 -105 -246q-42 0 -98 15t-88 37z" />
    <glyph glyph-name="less" unicode="&#x3c;" horiz-adv-x="897" 
d="M215 614l659 -354l-36 -78l-721 391v76l721 387l36 -75z" />
    <glyph glyph-name="equal" unicode="=" horiz-adv-x="960" 
d="M915 760h-770v92h770v-92zM915 367h-770v92h770v-92z" />
    <glyph glyph-name="greater" unicode="&#x3e;" horiz-adv-x="897" 
d="M156 182l-35 76l657 346l-659 354l37 78l721 -391v-76z" />
    <glyph glyph-name="question" unicode="?" horiz-adv-x="546" 
d="M717 909q0 -49 -38.5 -106t-105.5 -109q-226 -174 -260 -225q3 -26 12 -58.5t11 -45.5l-51 -9q-2 3 -13.5 17.5t-16.5 20.5t-16.5 20.5t-17 23.5t-15 22.5t-14.5 23.5t-10 22t-7.5 22t-2.5 19q0 47 85.5 123t211.5 163t149 107q-92 79 -413 96q0 47 26 97t64 71
q64 -1 139 -27t137.5 -66t104 -94.5t41.5 -107.5zM98 25q24 49 52 121t34 102q53 4 115 -5.5t90 -23.5q-55 -182 -104 -246q-42 0 -98.5 15t-88.5 37z" />
    <glyph glyph-name="at" unicode="@" horiz-adv-x="1527" 
d="M838 10l47 293l-273 -319h-151q-19 90 -19 227q3 159 34.5 313t84.5 232q52 77 130.5 129.5t166.5 52.5q86 0 186 -57l46 59h116l-137 -836l18 -14q165 102 257 255.5t92 289.5q0 286 -136 451t-403 165q-155 0 -292 -75t-229.5 -196.5t-146 -275.5t-53.5 -311
q0 -346 178.5 -539.5t485.5 -193.5q113 0 247.5 61t227.5 148l24 -72q-109 -94 -249 -154.5t-285 -60.5q-155 0 -287.5 56t-228 158.5t-149.5 253t-54 331.5q0 191 68 366.5t182 303t271.5 203t328.5 75.5q269 0 429.5 -182.5t160.5 -478.5q0 -123 -45.5 -233.5t-126.5 -198
t-181 -156t-221 -121.5zM653 193l27 -11l221 219l64 365q-97 74 -160 84q-24 3 -43 -2q-48 -72 -78 -225.5t-33 -315.5q0 -95 2 -114z" />
    <glyph glyph-name="A" unicode="A" horiz-adv-x="1073" 
d="M-74 0l8 39l121 49l705 1106h133l119 -1139l59 -14l-8 -41h-502l4 39l119 22l-22 295h-338l-170 -262l176 -53l-8 -41h-396zM365 422h290l-28 403h-11z" />
    <glyph glyph-name="B" unicode="B" horiz-adv-x="1026" 
d="M20 0l7 43l123 25l182 1060l-119 21l8 45h518q170 0 260.5 -68.5t90.5 -191.5q0 -64 -23.5 -115.5t-67.5 -86t-95.5 -58t-117.5 -39.5v-8q113 0 187 -67.5t74 -197.5q0 -150 -131 -256t-334 -106h-562zM463 80h24q117 0 180.5 77t63.5 238q0 85 -37 135t-116 50h-25z
M563 637h19q78 0 132 88.5t54 241.5q0 70 -27.5 112.5t-85.5 42.5h-12z" />
    <glyph glyph-name="C" unicode="C" horiz-adv-x="1015" 
d="M1085 829h-65l-92 293q-43 19 -107 19q-81 0 -148.5 -41t-113 -108.5t-76.5 -156t-45 -181t-14 -187.5q0 -66 5 -119.5t20.5 -109t40.5 -93t67.5 -61t99.5 -23.5q86 0 161.5 62t111.5 141h57l-35 -194q-56 -35 -162.5 -60.5t-205.5 -25.5q-105 0 -195.5 26t-163 77.5
t-114 138t-41.5 198.5q0 182 59 332.5t161.5 249t240 152.5t294.5 54q87 0 175.5 -21.5t136.5 -45.5z" />
    <glyph glyph-name="D" unicode="D" horiz-adv-x="1187" 
d="M20 0l3 43l124 25l183 1060l-117 21l8 45h547q494 0 494 -412q0 -167 -55.5 -313t-151 -248.5t-226.5 -161.5t-278 -59h-531zM684 1118h-41l-180 -1036h31q184 0 300.5 180.5t116.5 509.5q0 63 -6 112.5t-21 94.5t-40.5 74.5t-65.5 47t-94 17.5z" />
    <glyph glyph-name="E" unicode="E" horiz-adv-x="1001" 
d="M20 0l5 43l122 25l181 1054l-115 27l8 45h866l-55 -332h-57l-94 254h-238l-82 -483l320 24l-19 -118l-313 24l-84 -483h235l250 291l47 -9l-114 -362h-863z" />
    <glyph glyph-name="F" unicode="F" horiz-adv-x="921" 
d="M20 0l5 43l122 23l181 1058l-115 25l8 45h848l-55 -332h-56l-77 254h-238l-86 -504l322 25l-23 -119l-313 25l-78 -467l145 -31l-6 -45h-584z" />
    <glyph glyph-name="G" unicode="G" horiz-adv-x="1067" 
d="M582 -16q-105 0 -196.5 30t-162.5 88t-112 150t-41 207q0 135 40 255t110.5 210t165 155.5t206.5 99t231 33.5q87 0 174.5 -21.5t135.5 -45.5l-54 -316h-63l-80 293q-59 15 -123 15q-96 0 -173 -63.5t-122.5 -164t-69.5 -212.5t-24 -220q0 -416 203 -416q1 0 59 5l68 448
l-119 33l8 43h416l-90 -520q-54 -34 -170.5 -60t-216.5 -26z" />
    <glyph glyph-name="H" unicode="H" horiz-adv-x="1292" 
d="M20 0l5 43l122 23l181 1060l-115 23l8 45h539l-8 -43l-113 -21l-82 -481h348l78 477l-115 23l9 45h538l-6 -43l-115 -21l-182 -1062l107 -23l-7 -45h-536l4 43l123 20l90 525h-346l-90 -522l106 -21l-6 -45h-537z" />
    <glyph glyph-name="I" unicode="I" horiz-adv-x="673" 
d="M35 0l4 43l123 23l180 1062l-115 21l9 45h544l-6 -43l-115 -23l-182 -1060l107 -23l-4 -45h-545z" />
    <glyph glyph-name="J" unicode="J" horiz-adv-x="763" 
d="M287 -16q-182 0 -295 55l61 375h62l49 -336q40 -12 67 -12q21 0 36.5 5.5t27.5 21t19 27.5t15 42t11.5 45.5t11.5 56.5l146 862l-123 23l10 45h565l-6 -43l-131 -25l-135 -794q-26 -154 -139.5 -251t-251.5 -97z" />
    <glyph glyph-name="K" unicode="K" horiz-adv-x="1128" 
d="M20 0l7 43l123 23l180 1062l-115 21l8 45h545l-6 -43l-115 -23l-182 -1060l106 -23l-4 -45h-547zM764 0l-193 520l9 49l426 535l-134 51l7 39h436l-10 -47l-183 -41l-317 -369l285 -649l84 -51l-5 -37h-405z" />
    <glyph glyph-name="L" unicode="L" horiz-adv-x="962" 
d="M20 0l5 43l125 25l178 1060l-115 21l8 45h547l-8 -43l-115 -23l-180 -1048h219l260 315l49 -12l-119 -383h-854z" />
    <glyph glyph-name="M" unicode="M" horiz-adv-x="1556" 
d="M977 0l4 39l123 24l86 875h-10l-484 -954h-100l-152 995h-10l-205 -889l138 -49l-5 -41h-364l6 39l137 53l250 1024l-133 37l8 41h449l116 -766h5l387 766h409l-4 -41l-125 -39l-86 -1059l96 -14l-4 -41h-532z" />
    <glyph glyph-name="N" unicode="N" horiz-adv-x="1249" 
d="M-6 0l6 39l147 53l170 993l-129 68l7 41h385l415 -752h6l117 645l-211 66l6 41h453l-6 -39l-154 -55l-190 -1116h-139l-488 934h-8l-141 -812l231 -65l-6 -41h-471z" />
    <glyph glyph-name="O" unicode="O" horiz-adv-x="1114" 
d="M1186 766q-2 -120 -34.5 -235.5t-93.5 -213.5t-142 -173t-186 -117.5t-220 -42.5q-207 0 -323.5 120.5t-116.5 331.5q0 152 52 294t141 248t216.5 170t270.5 64q214 0 325 -115.5t111 -330.5zM555 66q81 0 147.5 107t103 285t36.5 388q0 131 -26.5 209t-80.5 78
q-84 0 -159 -116.5t-117.5 -295.5t-42.5 -363q0 -133 34 -212.5t105 -79.5z" />
    <glyph glyph-name="P" unicode="P" horiz-adv-x="1024" 
d="M20 0l3 39l124 27l183 1062l-117 21l8 45h547q160 0 259 -79t99 -210q0 -120 -40.5 -208t-113 -138t-162.5 -73t-200 -23h-78l-69 -395l141 -27l-4 -41h-580zM545 539h22q65 0 114.5 53t74 135.5t24.5 177.5q0 91 -28 147.5t-90 59.5h-19z" />
    <glyph glyph-name="Q" unicode="Q" horiz-adv-x="1114" 
d="M1186 766q-3 -176 -70 -336.5t-190 -276.5t-279 -153l400 -209l-7 -31h-417l-35 230q-40 -6 -78 -6q-207 0 -323.5 120.5t-116.5 331.5q0 152 52 294t141 248t216.5 170t270.5 64q214 0 325 -115.5t111 -330.5zM555 66q81 0 147.5 107t103 285t36.5 388q0 131 -26.5 209
t-80.5 78q-84 0 -159 -116.5t-117.5 -295.5t-42.5 -363q0 -133 34 -212.5t105 -79.5z" />
    <glyph glyph-name="R" unicode="R" horiz-adv-x="1110" 
d="M20 0l5 39l120 29l181 1052l-113 33l8 41h570q150 0 231.5 -68.5t81.5 -199.5q0 -142 -62.5 -233.5t-173.5 -131.5l166 -485l96 -37l-6 -39h-399l-143 514h-43l-78 -446l108 -27l-6 -41h-543zM553 594q68 7 115.5 52.5t68.5 112t21 148.5q0 91 -26.5 149.5t-82.5 59.5h-6
z" />
    <glyph glyph-name="S" unicode="S" horiz-adv-x="899" 
d="M377 -16q-163 0 -330 82l57 346h66l59 -297q49 -34 86.5 -45t87.5 -11q40 0 77.5 11t71.5 33.5t54.5 64.5t20.5 98q0 44 -24 79t-62.5 60t-85 49t-93.5 51.5t-85.5 61t-62.5 85t-24 116.5q0 105 39 190.5t105 140t152 84t182 29.5q103 0 187 -22t134 -55l-55 -320h-66
l-65 291q-29 19 -57 25t-80 6q-89 0 -153 -57.5t-64 -135.5q0 -47 25 -82.5t65.5 -59t89 -45.5t97 -48t89 -59.5t65.5 -88t25 -125.5q0 -119 -42.5 -208.5t-117 -141.5t-167 -77t-201.5 -25z" />
    <glyph glyph-name="T" unicode="T" horiz-adv-x="954" 
d="M172 0l8 43l123 23l176 1050h-131l-198 -315h-58l70 393h977l-68 -393h-57l-90 315h-129l-177 -1048l107 -23l-6 -45h-547z" />
    <glyph glyph-name="U" unicode="U" horiz-adv-x="1132" 
d="M522 -16q-210 0 -305.5 80.5t-95.5 232.5q0 44 10 106l123 725l-104 21l8 45h534l-6 -43l-96 -23l-117 -706q-10 -54 -10 -121q0 -108 41.5 -169.5t126.5 -61.5q113 0 204 102t123 293l105 629l-160 55l6 45h402l-6 -43l-142 -47l-108 -645q-79 -475 -533 -475z" />
    <glyph glyph-name="V" unicode="V" horiz-adv-x="1003" 
d="M342 0l-156 1135l-80 18l9 41h506l-7 -39l-106 -20l98 -811h12l367 776l-143 53l6 41h358l-4 -39l-100 -43l-570 -1112h-190z" />
    <glyph glyph-name="W" unicode="W" horiz-adv-x="1480" 
d="M260 0l-86 1135l-84 18l4 41h524l-4 -39l-125 -25l39 -761h13l336 825h202l103 -815h12l295 719l-152 55l4 41h379l-6 -39l-119 -51l-477 -1104h-203l-90 840h-10l-340 -840h-215z" />
    <glyph glyph-name="X" unicode="X" horiz-adv-x="1040" 
d="M516 0l6 39l113 29l-154 401l-291 -381l162 -47l-4 -41h-416l9 39l118 31l387 485l-221 580l-84 18l6 41h510l-8 -39l-96 -20l131 -336l242 311l-109 43l6 41h379l-8 -39l-182 -59l-297 -377l258 -662l76 -16l-7 -41h-526z" />
    <glyph glyph-name="Y" unicode="Y" horiz-adv-x="966" 
d="M170 0l4 39l137 29l68 393l-217 676l-70 16l6 41h518l-4 -39l-120 -22l153 -525h2l285 504l-166 41l6 41h395l-6 -39l-125 -29l-327 -581l-82 -477l121 -27l-5 -41h-573z" />
    <glyph glyph-name="Z" unicode="Z" horiz-adv-x="944" 
d="M8 0v84l725 1036h-311l-191 -317h-55l68 391h821l4 -70l-745 -1048h374l205 301l62 -10l-99 -367h-858z" />
    <glyph glyph-name="bracketleft" unicode="[" horiz-adv-x="550" 
d="M346 -371h-223l293 1764h225l-12 -80h-142l-270 -1604h141z" />
    <glyph glyph-name="backslash" unicode="\" horiz-adv-x="546" 
d="M381 -174l-129 1517h86l133 -1517h-90z" />
    <glyph glyph-name="bracketright" unicode="]" horiz-adv-x="550" 
d="M350 1393h223l-292 -1764h-224l11 80h141l270 1604h-141z" />
    <glyph glyph-name="asciicircum" unicode="^" horiz-adv-x="913" 
d="M776 496h-88l-225 602l-254 -602h-88l303 698h88z" />
    <glyph glyph-name="underscore" unicode="_" horiz-adv-x="962" 
d="M950 -256h-1003l14 92h1006z" />
    <glyph glyph-name="grave" unicode="`" horiz-adv-x="761" 
d="M362 1348l162 43l133 -299l-12 -15l-283 244v27z" />
    <glyph glyph-name="a" unicode="a" horiz-adv-x="870" 
d="M432 20l39 230l-229 -250h-170q-25 92 -25 213q0 354 129 565q125 180 313 180q73 0 126.5 -14t117.5 -45l113 62h26l-137 -832l15 -14l122 108l27 -43l-207 -196zM328 238l26 -11l131 109l74 440q-56 48 -141 74q-92 -221 -92 -514q0 -69 2 -98z" />
    <glyph glyph-name="b" unicode="b" horiz-adv-x="843" 
d="M8 68l211 1232h-121v46l365 94l57 -37l-102 -592q174 150 256 150q60 0 101 -52t59 -130.5t18 -174.5q0 -143 -72.5 -288.5t-185 -238.5t-223.5 -93q-99 0 -195.5 23.5t-167.5 60.5zM489 782l-88 -69l-104 -602q51 -31 78 -31q46 0 88.5 79t67 191t24.5 213
q0 137 -31 219h-35z" />
    <glyph glyph-name="c" unicode="c" horiz-adv-x="675" 
d="M639 379l14 -37q-54 -91 -168 -196.5t-235 -161.5l-172 36q-27 111 -27 242q0 315 117 514q126 185 326 185q110 0 239 -56q0 -130 -71 -231q-79 81 -117 108.5t-119 67.5q-44 -84 -65 -227t-21 -261q0 -111 10 -169l27 -11q58 30 131.5 85.5t130.5 111.5z" />
    <glyph glyph-name="d" unicode="d" horiz-adv-x="870" 
d="M434 20l39 232l-231 -252h-170q-25 92 -25 213q0 354 129 565q125 180 313 180q39 0 101 -8l59 350h-147v46l393 94l55 -37l-213 -1249l17 -15l120 84l27 -43l-235 -196zM328 238l26 -11l133 111l74 438q-55 47 -143 74q-92 -221 -92 -514q0 -69 2 -98z" />
    <glyph glyph-name="e" unicode="e" horiz-adv-x="696" 
d="M643 377l16 -35q-51 -91 -165.5 -196t-237.5 -162l-170 36q-29 107 -29 242q0 324 117 514q125 185 324 185q118 0 250 -66l-5 -229v-4q-118 -110 -395 -240q-4 -70 -4 -107q0 -81 6 -122l27 -11q78 42 266 195zM430 850q-53 -98 -76 -358q82 52 176 141v182
q-67 33 -100 35z" />
    <glyph glyph-name="f" unicode="f" horiz-adv-x="655" 
d="M94 809l2 100h152l28 168q30 177 154.5 278t286.5 101q99 0 194 -39l-65 -237h-51l-150 188q-45 -60 -78 -264l-32 -195h176l-2 -100h-191l-131 -786q-21 -122 -96.5 -229t-169.5 -165.5t-178 -58.5q-109 0 -176 37l45 211q20 -13 53.5 -36t52 -35t48.5 -25.5t61 -20.5
q8 10 15.5 31t15 57t13 66t14.5 85t15 87l131 782h-137z" />
    <glyph glyph-name="g" unicode="g" horiz-adv-x="817" 
d="M266 -436q-222 0 -325 61l47 191q183 -95 311 -95q28 0 72 7q33 36 94 460q1 9 10 66l-233 -254h-170q-25 92 -25 213q0 354 129 565q125 180 313 180q125 0 238 -55l107 58h26l-155 -988q-25 -162 -154 -285.5t-285 -123.5zM487 338l62 446q-51 43 -131 66
q-92 -221 -92 -514q0 -69 2 -98l26 -11z" />
    <glyph glyph-name="h" unicode="h" horiz-adv-x="956" 
d="M23 0l225 1300h-137v46l376 94l58 -37l-113 -664q98 114 173.5 168t144.5 54q56 0 91.5 -76.5t35.5 -200.5q0 -74 -15 -160l-67 -391l16 -14l133 106l29 -45l-219 -196l-262 36l81 498q13 93 13 174q0 47 -6 68l-35 10q-46 -29 -127 -119l-109 -651h-286z" />
    <glyph glyph-name="i" unicode="i" horiz-adv-x="542" 
d="M328 -16l-262 36l135 816h-138v45l377 80l60 -23l-131 -803l16 -14l133 104l29 -45zM471 1079l-188 66q26 53 58 134t36 110l207 -43q-21 -68 -53 -147.5t-60 -119.5z" />
    <glyph glyph-name="j" unicode="j" horiz-adv-x="536" 
d="M-33 -438l-24 20q90 163 131 414l137 840h-135v45l377 80l59 -23l-154 -938q-20 -120 -135.5 -238t-255.5 -200zM483 1079l-188 66q26 50 58 131.5t36 112.5l207 -43q-21 -68 -53 -147.5t-60 -119.5z" />
    <glyph glyph-name="k" unicode="k" horiz-adv-x="897" 
d="M31 0l221 1300h-135v46l379 94l55 -37l-100 -602q115 121 188 157l238 -49q10 -62 10 -102q0 -208 -199 -297l100 -352l21 -6l106 71l23 -41l-236 -198l-184 34l-76 365l9 29q57 54 113.5 164.5t56.5 195.5q0 9 -5 39l-22 10q-59 -26 -162 -129l-117 -692h-284z" />
    <glyph glyph-name="l" unicode="l" horiz-adv-x="479" 
d="M33 20l209 1280h-136v46l377 94l56 -37l-211 -1282l16 -15l133 119l29 -45l-219 -196z" />
    <glyph glyph-name="m" unicode="m" horiz-adv-x="1411" 
d="M1223 -16l-262 36l81 498q13 89 13 166q0 55 -8 76l-33 10q-45 -24 -117 -106q-4 -76 -14 -140l-95 -524h-274l80 518q12 82 12 166q0 52 -6 76l-33 10q-45 -26 -112 -102l-109 -668h-283l136 836h-136v45l377 80l60 -23l-31 -180q92 104 163.5 153.5t137.5 49.5
q54 0 88 -62t39 -166q97 117 174 172.5t146 55.5q63 0 97 -69.5t34 -189.5q0 -84 -17 -178l-67 -397l16 -14l133 110l29 -43z" />
    <glyph glyph-name="n" unicode="n" horiz-adv-x="966" 
d="M774 -16l-262 36l82 498q12 86 12 174q0 47 -6 68l-35 10q-42 -25 -110 -100l-109 -670h-283l136 836h-136v45l377 80l60 -23l-31 -180q92 104 163.5 153.5t137.5 49.5q56 0 91.5 -76.5t35.5 -200.5q0 -80 -14 -160l-68 -391l16 -14l134 106l28 -45z" />
    <glyph glyph-name="o" unicode="o" horiz-adv-x="851" 
d="M416 55q64 76 103 259t42 354q0 11 1 43.5t1 52.5q0 78 -6 115q-29 14 -70 12q-61 -75 -96.5 -253t-38.5 -345q0 -11 -1 -43t-1 -51q0 -71 4 -125q24 -16 62 -19zM342 -16q-127 0 -208 89.5t-81 225.5q0 92 17.5 183t57 178t96.5 153.5t142.5 107t188.5 40.5
q136 0 220.5 -80t84.5 -240q0 -115 -32 -225.5t-93.5 -205t-163.5 -156.5t-229 -70z" />
    <glyph glyph-name="p" unicode="p" horiz-adv-x="874" 
d="M-135 -424l6 35l96 35l168 975q-17 -8 -43 -22.5t-35 -18.5l-6 49l94 61l39 219l301 74l-20 -111q182 89 240 89q60 0 101 -52t58 -130t17 -175q0 -93 -34 -196.5t-92.5 -194.5t-149 -155t-191.5 -74q-60 0 -107 6l-59 -334l119 -43l-7 -37h-495zM498 803q-21 -6 -47 -19
l-121 -665q50 -37 100 -37q29 -1 65.5 75t62.5 187t26 201q0 67 -11.5 142t-33.5 116h-41z" />
    <glyph glyph-name="q" unicode="q" horiz-adv-x="827" 
d="M707 -424h-478l7 35l131 45l102 592l-227 -248h-170q-25 92 -25 213q0 354 129 565q125 180 313 180q73 0 126.5 -14t117.5 -45l113 62h26l-221 -1323l60 -25zM418 850q-92 -221 -92 -514q0 -69 2 -98l26 -11l129 109l76 440q-56 48 -141 74z" />
    <glyph glyph-name="r" unicode="r" horiz-adv-x="700" 
d="M346 0h-283l138 836h-138v45l377 80l60 -23l-29 -168q133 191 197 191q30 0 62 -15.5t54 -40.5l-120 -258l-97 113q-72 -44 -110 -78z" />
    <glyph glyph-name="s" unicode="s" horiz-adv-x="722" 
d="M694 590h-49l-47 198q-37 17 -93.5 30t-88.5 13q-36 0 -61 -22t-25 -45q0 -21 9 -41t34.5 -46t41 -40.5t58.5 -49t57 -46.5q70 -60 110 -118.5t40 -127.5q0 -70 -63.5 -144t-153 -120.5t-164.5 -46.5q-81 0 -159.5 16t-123.5 41l54 336h47l51 -227q108 -48 217 -48
q61 0 61 68q0 29 -24 63.5t-47.5 57t-77.5 69.5q-77 69 -119.5 130t-42.5 137q0 52 32 111t84.5 108.5t127 82t151.5 32.5q99 0 222 -54z" />
    <glyph glyph-name="t" unicode="t" horiz-adv-x="671" 
d="M49 809l12 53l168 39l154 295h160l-47 -287h202l-18 -100h-201l-102 -631l16 -14q155 93 230 147l22 -32q-55 -69 -163 -167.5t-191 -127.5l-213 49l123 776h-152z" />
    <glyph glyph-name="u" unicode="u" horiz-adv-x="974" 
d="M795 -16l-273 36l29 175q-97 -118 -172.5 -164.5t-153.5 -46.5q-54 0 -85 65t-31 180q0 69 16 170l70 437h-150v45l391 80l58 -23l-78 -512q-15 -84 -15 -180q0 -27 5 -62l32 -10q28 16 41 24t35.5 28.5t50.5 54.5l90 555h-94v45l332 80l59 -23l-129 -817l17 -15l133 121
l31 -47z" />
    <glyph glyph-name="v" unicode="v" horiz-adv-x="827" 
d="M879 940l-2 -59l-392 -881h-280q-36 120 -65.5 385t-26.5 451h-99v47l363 78l61 -13q-16 -112 -16 -274q0 -270 43 -522h20l154 436l6 352h234z" />
    <glyph glyph-name="w" unicode="w" horiz-adv-x="1327" 
d="M709 0q-43 145 -64 391l-137 -391h-297q-38 122 -69 389t-25 447h-99v47l361 78l63 -13q-12 -123 -12 -266q0 -290 43 -530h19l141 409q-6 126 -6 242q0 22 1 63.5t1 59.5l329 35q-22 -167 -22 -367q0 -256 35 -442h20l148 436l6 352h233l-2 -59l-389 -881h-278z" />
    <glyph glyph-name="x" unicode="x" horiz-adv-x="878" 
d="M922 940l-2 -55l-334 -342l137 -426l16 -4l135 80l19 -39l-231 -170l-193 22l-98 316l-68 -68l-65 -254h-232v49l342 342l-137 445h-119v43l311 82l58 -21l104 -332l62 62l67 270h228z" />
    <glyph glyph-name="y" unicode="y" horiz-adv-x="831" 
d="M879 940l-2 -59l-336 -785l-183 -520h-241l-2 23l293 401h-189q-38 128 -73.5 392.5t-32.5 443.5h-99v47l363 78l61 -13q-14 -95 -14 -217q0 -245 55 -579h21l139 436l6 352h234z" />
    <glyph glyph-name="z" unicode="z" horiz-adv-x="720" 
d="M59 -16l-53 16l-10 47l506 647l-8 8q-62 -20 -166 -20q-84 0 -164 18l-60 -114l-47 6l52 344l57 25q203 -21 340 -21q146 0 211 18l51 -73l-477 -613l6 -26h326l59 139l55 -4l-67 -371l-58 -26l-497 65z" />
    <glyph glyph-name="braceleft" unicode="{" horiz-adv-x="567" 
d="M428 -344l-43 -4q-119 -8 -194.5 39.5t-75.5 156.5q0 42 12 91l96 380q16 62 -7 115t-87 66l8 61q67 14 109.5 67t48.5 117l33 392q18 134 109.5 201t224.5 65h57l-12 -82h-48q-100 0 -166 -52.5t-77 -138.5l-29 -366q-7 -82 -42 -138t-128 -94q102 -37 102 -155
q0 -36 -10 -74l-96 -371q-20 -83 29 -140.5t153 -57.5h47z" />
    <glyph glyph-name="bar" unicode="|" horiz-adv-x="417" 
d="M207 -186h-88l262 1562h88z" />
    <glyph glyph-name="braceright" unicode="}" horiz-adv-x="565" 
d="M285 1389l43 4q119 8 194.5 -40t75.5 -157q0 -40 -12 -90l-99 -381q-15 -63 8.5 -115t88.5 -65l-11 -62q-66 -14 -107.5 -67t-49.5 -117l-31 -391q-18 -133 -110 -200.5t-224 -65.5h-59l14 82h47q99 0 166 52t76 138l31 367q5 80 40.5 136.5t127.5 94.5q-101 38 -101 154
q0 37 10 75l95 371q21 83 -28 141t-153 58h-47z" />
    <glyph glyph-name="asciitilde" unicode="~" horiz-adv-x="788" 
d="M733 676l47 -60q-85 -106 -200 -106q-55 0 -113 26.5t-114.5 53t-106.5 26.5q-25 0 -49.5 -8.5t-38.5 -16.5t-35 -24t-27 -20l-39 57q92 101 197 101q54 0 102 -16.5t77.5 -37t72.5 -37t88 -16.5q15 0 29 4t30 13.5t25 16t28.5 22.5t26.5 22z" />
    <glyph glyph-name="uni00A0" unicode="&#xa0;" horiz-adv-x="421" 
 />
    <glyph glyph-name="exclamdown" unicode="&#xa1;" horiz-adv-x="479" 
d="M86 -317v73l238 750h45l-21 -823h-262zM268 731q24 49 52 121t34 102q53 4 115 -5t90 -23q-55 -182 -104 -246q-43 0 -99 14.5t-88 36.5z" />
    <glyph glyph-name="cent" unicode="&#xa2;" horiz-adv-x="692" 
d="M639 379l14 -37q-72 -124 -231 -252l-43 -248h-64l33 197q-35 -25 -98 -55l-172 36q-27 111 -27 242q0 315 117 514q126 185 326 185h12l22 135h66l-25 -142q79 -13 164 -49q0 -130 -71 -231q-85 85 -121 110l-97 -563q106 69 195 158zM340 362q0 -111 10 -169l23 -11
l108 639l-55 29q-44 -84 -65 -227t-21 -261z" />
    <glyph glyph-name="sterling" unicode="&#xa3;" horiz-adv-x="995" 
d="M84 506l10 78h99q0 16 1 50.5t1 53.5q2 117 38 215.5t96.5 164.5t141.5 103t174 37q169 0 311 -94l-57 -338h-49l-86 307q-56 23 -96 23q-62 0 -99 -59t-39 -156q-5 -199 -20 -307h182l-8 -78h-186q-40 -192 -125 -311l397 -21l152 203l49 -17l-115 -360l-113 -16
l-428 75l-41 -75h-174l-30 47q99 158 118 475h-104z" />
    <glyph glyph-name="currency" unicode="&#xa4;" horiz-adv-x="884" 
d="M133 205l-57 63l127 129q-53 74 -53 185q0 130 59 204l-121 132l59 59l119 -131q38 27 89.5 45t99.5 18q112 0 182 -59l123 131l61 -66l-127 -129q56 -65 56 -194q0 -56 -19 -111t-47 -86l121 -131l-55 -63l-123 131q-83 -56 -185 -56q-107 0 -182 60zM444 457
q55 0 84 39t29 96q0 59 -25 97t-81 38t-84.5 -39t-28.5 -96q0 -58 25.5 -96.5t80.5 -38.5z" />
    <glyph glyph-name="yen" unicode="&#xa5;" horiz-adv-x="966" 
d="M150 0l4 39l137 29l45 270h-227l14 70h225l10 53l-39 119h-188l12 69h154l-156 488l-69 16l6 41h518l-4 -39l-121 -22l154 -525h2l284 504l-166 41l7 41h395l-6 -39l-125 -29l-271 -477h203l-14 -69h-227l-19 -35l-24 -137h254l-13 -70h-254l-45 -270l121 -27l-4 -41
h-573z" />
    <glyph glyph-name="brokenbar" unicode="&#xa6;" horiz-adv-x="419" 
d="M303 -188h-88v594h88v-594zM303 1382v-579h-88v579h88z" />
    <glyph glyph-name="section" unicode="&#xa7;" horiz-adv-x="718" 
d="M176 -193q-82 0 -149 33l32 154h45q93 -39 177 -39q63 0 137 41l-225 387q-47 85 -62.5 159t-15.5 167q0 98 44 192t114 162t161 109.5t182 41.5q82 0 150 -32l-35 -160h-47q-93 39 -174 39q-69 0 -137 -43l225 -379q49 -89 68.5 -163.5t19.5 -158.5q0 -98 -45.5 -193
t-117.5 -164t-164.5 -111t-182.5 -42zM555 111q18 83 18 157q0 163 -96 357l-180 336q-26 -24 -57 -62q-19 -65 -19 -133q0 -183 96 -367l183 -348q35 32 55 60z" />
    <glyph glyph-name="dieresis" unicode="&#xa8;" horiz-adv-x="571" 
d="M227 1143l-135 49q62 105 82 205l158 -23q-56 -162 -105 -231zM571 1143l-135 49q60 98 82 205l160 -23q-54 -157 -107 -231z" />
    <glyph glyph-name="copyright" unicode="&#xa9;" horiz-adv-x="1413" 
d="M1071 737h-35l-84 166q-58 25 -100 25q-100 0 -157.5 -95t-57.5 -233q0 -148 57 -238t170 -90q137 0 191 152h16v-143q-123 -70 -250 -70q-76 0 -146 22.5t-129 66.5t-94.5 117t-35.5 165q0 102 33 180t92 124.5t134.5 69.5t166.5 23q69 0 134 -16t95 -37v-189zM205 592
q0 168 79 311t215 226t296 83q159 0 294.5 -83t214 -226t78.5 -311t-78.5 -311t-214 -226.5t-294.5 -83.5q-160 0 -296 83.5t-215 226.5t-79 311zM262 592q0 -151 71.5 -283t194.5 -210.5t267 -78.5q143 0 265.5 78.5t193.5 210.5t71 283q0 113 -42.5 218t-113.5 182
t-169 123t-205 46q-108 0 -206.5 -46t-170 -123t-114 -182t-42.5 -218z" />
    <glyph glyph-name="ordfeminine" unicode="&#xaa;" horiz-adv-x="739" 
d="M412 803l26 158l-170 -173h-131q-20 73 -20 170q0 108 25.5 212.5t66.5 162.5q89 127 235 127q69 0 177 -41l75 41h21l-96 -588l14 -10l113 96l20 -28l-176 -154zM311 938l19 -8l119 92l51 305q-60 45 -131 57q-24 -45 -44 -141.5t-20 -183.5q0 -77 6 -121zM80 647v53
h657v-53h-657z" />
    <glyph glyph-name="guillemotleft" unicode="&#xab;" horiz-adv-x="792" 
d="M336 94l-221 369l342 366h53l-219 -366l96 -369h-51zM639 94l-221 369l342 366h53l-219 -366l96 -369h-51z" />
    <glyph glyph-name="logicalnot" unicode="&#xac;" horiz-adv-x="890" 
d="M846 205h-96v364h-625v93h721v-457z" />
    <glyph glyph-name="registered" unicode="&#xae;" horiz-adv-x="843" 
d="M510 549q-155 0 -260 109t-105 272t105 273t260 110t259.5 -110t104.5 -273t-104.5 -272t-259.5 -109zM510 592q144 0 225.5 96t81.5 242q0 141 -88 239.5t-219 98.5q-132 0 -219.5 -98.5t-87.5 -239.5t87.5 -239.5t219.5 -98.5zM311 743v9l54 20v336l-54 18v13h248
q65 0 109.5 -30.5t44.5 -84.5q0 -39 -17 -60.5t-55 -33.5l82 -150l31 -20v-17h-150l-78 166h-22v-137l47 -18v-11h-240zM512 1102h-8v-170q39 0 61.5 24t22.5 68q0 34 -19.5 55.5t-56.5 22.5z" />
    <glyph glyph-name="macron" unicode="&#xaf;" horiz-adv-x="577" 
d="M625 1208h-381l14 60h381z" />
    <glyph glyph-name="degree" unicode="&#xb0;" horiz-adv-x="622" 
d="M666 938q0 -108 -75 -189t-196 -81t-190.5 77.5t-69.5 190.5q0 108 76 189t197 81q119 0 188.5 -78t69.5 -190zM543 938q0 207 -144 207q-74 0 -107.5 -58t-33.5 -153q0 -93 34 -152t111 -59q71 0 105.5 61t34.5 154z" />
    <glyph glyph-name="plusminus" unicode="&#xb1;" horiz-adv-x="899" 
d="M883 96h-748v92h748v-92zM553 721h330v-92h-330v-328h-88v328h-330v92h330v340h88v-340z" />
    <glyph glyph-name="twosuperior" unicode="&#xb2;" horiz-adv-x="548" 
d="M537 987v-39l-64 -131h-422l-20 39q115 96 210 211.5t140 194.5q-71 57 -176 57q-55 0 -99 -12l-10 20q111 133 213 133q111 0 170.5 -46.5t59.5 -123.5q0 -70 -65.5 -135.5t-217.5 -167.5h281z" />
    <glyph glyph-name="threesuperior" unicode="&#xb3;" horiz-adv-x="522" 
d="M57 991h23q123 -45 215 -45q83 0 117 39q-30 47 -95.5 83.5t-115.5 45.5l6 55q120 45 170 86q-20 31 -71.5 46.5t-110.5 15.5q-62 0 -89 -10l-14 20q36 55 103 94t133 39q89 0 145.5 -37.5t56.5 -111.5q0 -77 -157 -131v-4q69 -13 111 -52.5t42 -85.5q0 -50 -65 -105
t-148 -89.5t-139 -34.5q-106 0 -162 29z" />
    <glyph glyph-name="acute" unicode="&#xb4;" horiz-adv-x="774" 
d="M516 1391l162 -43v-27l-285 -244l-12 15z" />
    <glyph glyph-name="mu" unicode="&#xb5;" horiz-adv-x="972" 
d="M-33 -424l242 1364h258l-94 -514q-27 -170 -11 -221l33 -10q36 21 66 47.5t80 83.5l110 614h271l-152 -790l16 -15l115 115l35 -49l-217 -217l-232 36l41 216q-200 -252 -344 -252q-52 0 -80 63l-20 -16q151 -220 123 -400l-8 -55h-232z" />
    <glyph glyph-name="paragraph" unicode="&#xb6;" horiz-adv-x="1144" 
d="M545 309q-176 6 -283.5 103t-107.5 264q0 117 46 216t122 164t174.5 101.5t205.5 36.5h629l-10 -45l-197 -25l-256 -1548h-106l268 1546h-127l-270 -1546h-213z" />
    <glyph glyph-name="periodcentered" unicode="&#xb7;" horiz-adv-x="229" 
d="M172 524l-139 41q58 110 73 185l158 -19q-42 -138 -92 -207z" />
    <glyph glyph-name="cedilla" unicode="&#xb8;" horiz-adv-x="466" 
d="M176 -451q-37 0 -82.5 8t-68.5 21l38 119q85 -47 173 -47q54 0 98 20q-12 24 -36 48.5t-43 38t-58.5 39.5t-51.5 34l5 23l153 190h62l-111 -139q72 -56 113 -103.5t41 -97.5t-71 -102t-161 -52z" />
    <glyph glyph-name="onesuperior" unicode="&#xb9;" horiz-adv-x="456" 
d="M295 1450h135l-98 -586l96 -16l-6 -31h-410l6 27l105 20l82 482h-117l4 24z" />
    <glyph glyph-name="ordmasculine" unicode="&#xba;" horiz-adv-x="839" 
d="M80 647v53h659v-53h-659zM459 838q53 53 87 182t34 242q0 109 -7 145q-26 11 -67 8q-50 -54 -82.5 -180.5t-32.5 -233.5q0 -120 6 -151q20 -12 62 -12zM383 786q-101 0 -157 63.5t-56 162.5q2 126 45.5 226t133.5 162t216 62q110 0 173 -56t63 -171
q-3 -196 -112.5 -320.5t-305.5 -128.5z" />
    <glyph glyph-name="guillemotright" unicode="&#xbb;" horiz-adv-x="794" 
d="M229 836l222 -369l-342 -367h-54l219 367l-96 369h51zM537 836l221 -369l-342 -367h-54l220 367l-97 369h52z" />
    <glyph glyph-name="onequarter" unicode="&#xbc;" horiz-adv-x="1394" 
d="M987 -8l19 121h-238l-8 102l368 420h175l-64 -389h100v-33l-49 -100h-71l-21 -121h-211zM356 1194h136l-99 -586l96 -16l-6 -31h-409l6 27l104 20l82 482h-116l4 24zM346 -20l-61 30l743 1133l68 -33zM856 246h170l37 223z" />
    <glyph glyph-name="onehalf" unicode="&#xbd;" horiz-adv-x="1351" 
d="M1298 170v-39l-63 -131h-422l-20 39q116 96 210.5 211t139.5 194q-72 58 -176 58q-52 0 -99 -13l-10 21q111 133 213 133q111 0 170 -46.5t59 -123.5q0 -70 -65 -136t-217 -167h280zM356 1194h136l-99 -586l96 -16l-6 -31h-409l6 27l104 20l82 482h-116l4 24zM338 -20
l-62 30l744 1133l67 -33z" />
    <glyph glyph-name="threequarters" unicode="&#xbe;" horiz-adv-x="1388" 
d="M362 -20l-61 30l743 1133l68 -33zM119 733h22q123 -45 215 -45q83 0 117 39q-30 47 -95.5 83.5t-115.5 45.5l6 55q120 45 170 86q-20 31 -71.5 46.5t-110.5 15.5q-61 0 -88 -10l-14 20q36 56 102.5 94.5t132.5 38.5q89 0 146 -37.5t57 -111.5q0 -45 -43.5 -75.5
t-114.5 -55.5v-4q69 -13 111.5 -52.5t42.5 -85.5q0 -50 -65 -105t-148 -89.5t-139 -34.5q-106 0 -162 29zM981 -8l18 121h-237l-8 102l368 420h174l-63 -389h100v-33l-49 -100h-72l-20 -121h-211zM850 246h170l37 223z" />
    <glyph glyph-name="questiondown" unicode="&#xbf;" horiz-adv-x="624" 
d="M82 8q0 50 37.5 107t103.5 108q224 172 262 226q-3 26 -12.5 58.5t-11.5 45.5l53 8q0 -1 17.5 -22.5t22.5 -28t20 -26.5t21.5 -31t15.5 -28t12.5 -30t3.5 -24q0 -37 -58 -96t-127.5 -109t-153.5 -108.5t-110 -80.5q92 -79 416 -96q0 -47 -26.5 -97t-65.5 -71
q-86 1 -184 43t-167 112t-69 140zM432 731q24 49 52 121t34 102q53 4 115 -5t90 -23q-54 -180 -105 -246q-42 0 -98 14.5t-88 36.5z" />
    <glyph glyph-name="Agrave" unicode="&#xc0;" horiz-adv-x="1073" 
d="M-74 0l8 39l121 49l705 1106h133l119 -1139l59 -14l-8 -41h-502l4 39l119 22l-22 295h-338l-170 -262l176 -53l-8 -41h-396zM365 422h290l-28 403h-11zM535 1444l81 108l308 -249l-11 -25l-378 139v27z" />
    <glyph glyph-name="Aacute" unicode="&#xc1;" horiz-adv-x="1073" 
d="M-74 0l8 39l121 49l705 1106h133l119 -1139l59 -14l-8 -41h-502l4 39l119 22l-22 295h-338l-170 -262l176 -53l-8 -41h-396zM365 422h290l-28 403h-11zM1059 1552l84 -108v-27l-379 -139l-10 20z" />
    <glyph glyph-name="Acircumflex" unicode="&#xc2;" horiz-adv-x="1073" 
d="M-74 0l8 39l121 49l705 1106h133l119 -1139l59 -14l-8 -41h-502l4 39l119 22l-22 295h-338l-170 -262l176 -53l-8 -41h-396zM365 422h290l-28 403h-11zM874 1530h64l160 -230l-27 -28l-199 127l-256 -137l-18 28z" />
    <glyph glyph-name="Atilde" unicode="&#xc3;" horiz-adv-x="1073" 
d="M-74 0l8 39l121 49l705 1106h133l119 -1139l59 -14l-8 -41h-502l4 39l119 22l-22 295h-338l-170 -262l176 -53l-8 -41h-396zM365 422h290l-28 403h-11zM1118 1489l29 -25l-141 -161l-43 -3l-308 54l-53 -43l-24 22l139 150l49 4l297 -53z" />
    <glyph glyph-name="Adieresis" unicode="&#xc4;" horiz-adv-x="1073" 
d="M-74 0l8 39l121 49l705 1106h133l119 -1139l59 -14l-8 -41h-502l4 39l119 22l-22 295h-338l-170 -262l176 -53l-8 -41h-396zM365 422h290l-28 403h-11zM713 1278l-138 49q62 105 82 205l160 -23q-55 -159 -104 -231zM1057 1278l-137 49q59 95 81 205l160 -23
q-50 -155 -104 -231z" />
    <glyph glyph-name="Aring" unicode="&#xc5;" horiz-adv-x="1073" 
d="M-74 0l8 39l121 49l705 1106h133l119 -1139l59 -14l-8 -41h-502l4 39l119 22l-22 295h-338l-170 -262l176 -53l-8 -41h-396zM365 422h290l-28 403h-11zM842 1307q57 0 97 39.5t40 91.5q0 53 -30.5 79.5t-80.5 26.5q-56 0 -93.5 -39t-37.5 -94t31 -79.5t74 -24.5z
M838 1270q-57 0 -101.5 36t-44.5 105q0 68 55 119t125 51q65 0 108.5 -38.5t43.5 -104.5q0 -64 -56 -116t-130 -52z" />
    <glyph glyph-name="AE" unicode="&#xc6;" horiz-adv-x="1482" 
d="M496 0l4 39l141 29l72 419h-291l-248 -395l156 -51l-8 -41h-398l6 39l138 55l714 1100h787l-58 -332h-61l-88 258h-225l-82 -475l340 31l-23 -119l-328 29l-86 -510h230l229 295l60 -9l-115 -362h-866zM801 1085l-334 -526h258l90 526h-14z" />
    <glyph glyph-name="Ccedilla" unicode="&#xc7;" horiz-adv-x="1015" 
d="M473 -451q-37 0 -82.5 8t-68.5 21l38 119q85 -47 172 -47q55 0 99 20q-12 24 -36 48.5t-43 38t-58.5 39.5t-51.5 34l4 23l107 133q-100 3 -185.5 30.5t-153 79t-106 135.5t-38.5 193q0 182 59 332.5t161.5 249t240 152.5t294.5 54q87 0 175.5 -21.5t136.5 -45.5l-52 -316
h-65l-92 293q-43 19 -107 19q-81 0 -148.5 -41t-113 -108.5t-76.5 -156t-45 -181t-14 -187.5q0 -66 5 -119.5t20.5 -109t40.5 -93t67.5 -61t99.5 -23.5q86 0 161.5 62t111.5 141h57l-35 -194q-52 -33 -148 -57t-190 -27l-63 -82q72 -56 113 -103.5t41 -97.5t-71 -102
t-161 -52z" />
    <glyph glyph-name="Egrave" unicode="&#xc8;" horiz-adv-x="1001" 
d="M20 0l5 43l122 25l181 1054l-115 27l8 45h866l-55 -332h-57l-94 254h-238l-82 -483l320 24l-19 -118l-313 24l-84 -483h235l250 291l47 -9l-114 -362h-863zM485 1444l82 108l307 -249l-10 -25l-379 139v27z" />
    <glyph glyph-name="Eacute" unicode="&#xc9;" horiz-adv-x="1001" 
d="M20 0l5 43l122 25l181 1054l-115 27l8 45h866l-55 -332h-57l-94 254h-238l-82 -483l320 24l-19 -118l-313 24l-84 -483h235l250 291l47 -9l-114 -362h-863zM926 1552l84 -108v-27l-379 -139l-10 20z" />
    <glyph glyph-name="Ecircumflex" unicode="&#xca;" horiz-adv-x="1001" 
d="M20 0l5 43l122 25l181 1054l-115 27l8 45h866l-55 -332h-57l-94 254h-238l-82 -483l320 24l-19 -118l-313 24l-84 -483h235l250 291l47 -9l-114 -362h-863zM778 1528h64l159 -230l-26 -28l-199 127l-256 -137l-18 28z" />
    <glyph glyph-name="Edieresis" unicode="&#xcb;" horiz-adv-x="1001" 
d="M20 0l5 43l122 25l181 1054l-115 27l8 45h866l-55 -332h-57l-94 254h-238l-82 -483l320 24l-19 -118l-313 24l-84 -483h235l250 291l47 -9l-114 -362h-863zM584 1280l-138 49q62 105 82 205l160 -23q-55 -159 -104 -231zM928 1280l-137 49q59 95 81 205l160 -23
q-50 -155 -104 -231z" />
    <glyph glyph-name="Igrave" unicode="&#xcc;" horiz-adv-x="673" 
d="M35 0l4 43l123 23l180 1062l-115 21l9 45h544l-6 -43l-115 -23l-182 -1060l107 -23l-4 -45h-545zM285 1444l82 108l307 -249l-10 -25l-379 139v27z" />
    <glyph glyph-name="Iacute" unicode="&#xcd;" horiz-adv-x="673" 
d="M35 0l4 43l123 23l180 1062l-115 21l9 45h544l-6 -43l-115 -23l-182 -1060l107 -23l-4 -45h-545zM651 1552l84 -108v-27l-379 -139l-10 20z" />
    <glyph glyph-name="Icircumflex" unicode="&#xce;" horiz-adv-x="673" 
d="M35 0l4 43l123 23l180 1062l-115 21l9 45h544l-6 -43l-115 -23l-182 -1060l107 -23l-4 -45h-545zM551 1528h63l160 -230l-26 -28l-199 127l-256 -137l-19 28z" />
    <glyph glyph-name="Idieresis" unicode="&#xcf;" horiz-adv-x="673" 
d="M35 0l4 43l123 23l180 1062l-115 21l9 45h544l-6 -43l-115 -23l-182 -1060l107 -23l-4 -45h-545zM375 1280l-137 49q60 103 81 205l160 -23q-55 -159 -104 -231zM719 1280l-137 49q60 98 82 205l159 -23q-50 -155 -104 -231z" />
    <glyph glyph-name="Eth" unicode="&#xd0;" horiz-adv-x="1187" 
d="M139 561l13 74h92l86 493l-117 21l8 45h547q494 0 494 -412q0 -167 -55.5 -313t-151 -248.5t-226.5 -161.5t-278 -59h-531l3 43l124 25l84 493h-92zM684 1118h-41l-84 -483h117l-12 -74h-119l-82 -479h31q184 0 300.5 180.5t116.5 509.5q0 63 -6 112.5t-21 94.5
t-40.5 74.5t-65.5 47t-94 17.5z" />
    <glyph glyph-name="Ntilde" unicode="&#xd1;" horiz-adv-x="1249" 
d="M-6 0l6 39l147 53l170 993l-129 68l7 41h385l415 -752h6l117 645l-211 66l6 41h453l-6 -39l-154 -55l-190 -1116h-139l-488 934h-8l-141 -812l231 -65l-6 -41h-471zM1100 1489l28 -25l-141 -161l-43 -3l-307 54l-53 -43l-25 22l139 150l50 4l296 -53z" />
    <glyph glyph-name="Ograve" unicode="&#xd2;" horiz-adv-x="1114" 
d="M1186 766q-2 -120 -34.5 -235.5t-93.5 -213.5t-142 -173t-186 -117.5t-220 -42.5q-207 0 -323.5 120.5t-116.5 331.5q0 152 52 294t141 248t216.5 170t270.5 64q214 0 325 -115.5t111 -330.5zM555 66q81 0 147.5 107t103 285t36.5 388q0 131 -26.5 209t-80.5 78
q-84 0 -159 -116.5t-117.5 -295.5t-42.5 -363q0 -133 34 -212.5t105 -79.5zM465 1444l82 108l307 -249l-10 -25l-379 139v27z" />
    <glyph glyph-name="Oacute" unicode="&#xd3;" horiz-adv-x="1114" 
d="M1186 766q-2 -120 -34.5 -235.5t-93.5 -213.5t-142 -173t-186 -117.5t-220 -42.5q-207 0 -323.5 120.5t-116.5 331.5q0 152 52 294t141 248t216.5 170t270.5 64q214 0 325 -115.5t111 -330.5zM555 66q81 0 147.5 107t103 285t36.5 388q0 131 -26.5 209t-80.5 78
q-84 0 -159 -116.5t-117.5 -295.5t-42.5 -363q0 -133 34 -212.5t105 -79.5zM967 1552l84 -108v-27l-379 -139l-10 20z" />
    <glyph glyph-name="Ocircumflex" unicode="&#xd4;" horiz-adv-x="1114" 
d="M1186 766q-2 -120 -34.5 -235.5t-93.5 -213.5t-142 -173t-186 -117.5t-220 -42.5q-207 0 -323.5 120.5t-116.5 331.5q0 152 52 294t141 248t216.5 170t270.5 64q214 0 325 -115.5t111 -330.5zM555 66q81 0 147.5 107t103 285t36.5 388q0 131 -26.5 209t-80.5 78
q-84 0 -159 -116.5t-117.5 -295.5t-42.5 -363q0 -133 34 -212.5t105 -79.5zM817 1530h64l159 -230l-26 -28l-199 127l-256 -137l-18 28z" />
    <glyph glyph-name="Otilde" unicode="&#xd5;" horiz-adv-x="1114" 
d="M1186 766q-2 -120 -34.5 -235.5t-93.5 -213.5t-142 -173t-186 -117.5t-220 -42.5q-207 0 -323.5 120.5t-116.5 331.5q0 152 52 294t141 248t216.5 170t270.5 64q214 0 325 -115.5t111 -330.5zM555 66q81 0 147.5 107t103 285t36.5 388q0 131 -26.5 209t-80.5 78
q-84 0 -159 -116.5t-117.5 -295.5t-42.5 -363q0 -133 34 -212.5t105 -79.5zM1042 1487l29 -25l-141 -162l-43 -2l-307 54l-54 -43l-24 22l139 150l49 4l297 -53z" />
    <glyph glyph-name="Odieresis" unicode="&#xd6;" horiz-adv-x="1114" 
d="M1186 766q-2 -120 -34.5 -235.5t-93.5 -213.5t-142 -173t-186 -117.5t-220 -42.5q-207 0 -323.5 120.5t-116.5 331.5q0 152 52 294t141 248t216.5 170t270.5 64q214 0 325 -115.5t111 -330.5zM555 66q81 0 147.5 107t103 285t36.5 388q0 131 -26.5 209t-80.5 78
q-84 0 -159 -116.5t-117.5 -295.5t-42.5 -363q0 -133 34 -212.5t105 -79.5zM629 1278l-137 49q60 103 81 205l160 -23q-55 -159 -104 -231zM973 1278l-137 49q60 98 82 205l159 -23q-50 -155 -104 -231z" />
    <glyph glyph-name="multiply" unicode="&#xd7;" horiz-adv-x="1009" 
d="M924 911l-283 -299l289 -303l-62 -65l-288 303l-289 -303l-64 63l291 305l-280 295l61 66l281 -295l282 297z" />
    <glyph glyph-name="Oslash" unicode="&#xd8;" horiz-adv-x="1114" 
d="M1186 766q-2 -120 -34.5 -235.5t-93.5 -213.5t-142 -173t-186 -117.5t-220 -42.5q-191 0 -307 104l-101 -104h-92l148 151q-88 117 -88 301q0 152 52 294t141 248t216.5 170t270.5 64q221 0 333 -127l125 127h90l-176 -180q64 -107 64 -266zM735 1133q-81 0 -154 -109.5
t-116.5 -278t-48.5 -346.5l426 437v10q0 131 -26.5 209t-80.5 78zM555 66q74 0 136.5 90.5t101 244t47.5 340.5l-424 -434q14 -241 139 -241z" />
    <glyph glyph-name="Ugrave" unicode="&#xd9;" horiz-adv-x="1132" 
d="M522 -16q-210 0 -305.5 80.5t-95.5 232.5q0 44 10 106l123 725l-104 21l8 45h534l-6 -43l-96 -23l-117 -706q-10 -54 -10 -121q0 -108 41.5 -169.5t126.5 -61.5q113 0 204 102t123 293l105 629l-160 55l6 45h402l-6 -43l-142 -47l-108 -645q-79 -475 -533 -475zM492 1444
l81 108l308 -249l-11 -25l-378 139v27z" />
    <glyph glyph-name="Uacute" unicode="&#xda;" horiz-adv-x="1132" 
d="M522 -16q-210 0 -305.5 80.5t-95.5 232.5q0 44 10 106l123 725l-104 21l8 45h534l-6 -43l-96 -23l-117 -706q-10 -54 -10 -121q0 -108 41.5 -169.5t126.5 -61.5q113 0 204 102t123 293l105 629l-160 55l6 45h402l-6 -43l-142 -47l-108 -645q-79 -475 -533 -475z
M1020 1552l84 -108v-27l-379 -139l-10 20z" />
    <glyph glyph-name="Ucircumflex" unicode="&#xdb;" horiz-adv-x="1132" 
d="M522 -16q-210 0 -305.5 80.5t-95.5 232.5q0 44 10 106l123 725l-104 21l8 45h534l-6 -43l-96 -23l-117 -706q-10 -54 -10 -121q0 -108 41.5 -169.5t126.5 -61.5q113 0 204 102t123 293l105 629l-160 55l6 45h402l-6 -43l-142 -47l-108 -645q-79 -475 -533 -475zM831 1528
h64l160 -230l-27 -28l-199 127l-256 -137l-18 28z" />
    <glyph glyph-name="Udieresis" unicode="&#xdc;" horiz-adv-x="1132" 
d="M522 -16q-210 0 -305.5 80.5t-95.5 232.5q0 44 10 106l123 725l-104 21l8 45h534l-6 -43l-96 -23l-117 -706q-10 -54 -10 -121q0 -108 41.5 -169.5t126.5 -61.5q113 0 204 102t123 293l105 629l-160 55l6 45h402l-6 -43l-142 -47l-108 -645q-79 -475 -533 -475zM653 1278
l-137 49q62 105 82 205l160 -23q-54 -156 -105 -231zM997 1278l-137 49q60 98 82 205l160 -23q-49 -152 -105 -231z" />
    <glyph glyph-name="Yacute" unicode="&#xdd;" horiz-adv-x="966" 
d="M170 0l4 39l137 29l68 393l-217 676l-70 16l6 41h518l-4 -39l-120 -22l153 -525h2l285 504l-166 41l6 41h395l-6 -39l-125 -29l-327 -581l-82 -477l121 -27l-5 -41h-573zM905 1552l84 -108v-27l-379 -139l-10 20z" />
    <glyph glyph-name="Thorn" unicode="&#xde;" horiz-adv-x="1001" 
d="M20 0l5 43l122 23l181 1062l-115 21l8 45h545l-6 -43l-115 -23l-20 -118h120q160 0 259.5 -79.5t99.5 -211.5q0 -111 -39.5 -196t-111 -138t-167.5 -79.5t-213 -26.5h-73l-37 -211l125 -23l-8 -45h-560zM625 928h-15l-96 -574h18q67 0 119.5 50t78.5 124.5t26 155.5
q0 59 -12 112t-43 92.5t-76 39.5z" />
    <glyph glyph-name="germandbls" unicode="&#xdf;" horiz-adv-x="1110" 
d="M-57 -430q-109 0 -176 37l51 207q15 -12 46.5 -39t43 -35t37 -20t57.5 -19q33 40 84 326l129 782h-119v100h137l29 168q20 118 90 205.5t164.5 130.5t200.5 43q297 0 297 -258q0 -49 -28.5 -108t-94 -121.5t-154.5 -102.5q67 -39 128.5 -92.5t116 -121t87.5 -150.5
t33 -166q0 -81 -53.5 -164t-134 -135.5t-156.5 -52.5q-81 0 -160 16t-125 41l55 336h54l57 -242q48 -31 96 -31q144 0 144 109q0 105 -75.5 220t-211.5 220l-12 43q39 55 56 79.5t48.5 75.5t46 84.5t27 78.5t12.5 84q0 88 -31.5 171t-93.5 99q-28 -38 -55 -119t-37 -145
l-180 -1081q-14 -121 -86.5 -228t-166 -166t-177.5 -59z" />
    <glyph glyph-name="agrave" unicode="&#xe0;" horiz-adv-x="870" 
d="M432 20l39 230l-229 -250h-170q-25 92 -25 213q0 354 129 565q125 180 313 180q73 0 126.5 -14t117.5 -45l113 62h26l-137 -832l15 -14l122 108l27 -43l-207 -196zM328 238l26 -11l131 109l74 440q-56 48 -141 74q-92 -221 -92 -514q0 -69 2 -98zM389 1346l162 43
l133 -299l-12 -15l-283 244v27z" />
    <glyph glyph-name="aacute" unicode="&#xe1;" horiz-adv-x="870" 
d="M432 20l39 230l-229 -250h-170q-25 92 -25 213q0 354 129 565q125 180 313 180q73 0 126.5 -14t117.5 -45l113 62h26l-137 -832l15 -14l122 108l27 -43l-207 -196zM328 238l26 -11l131 109l74 440q-56 48 -141 74q-92 -221 -92 -514q0 -69 2 -98zM664 1391l161 -43v-27
l-284 -244l-13 15z" />
    <glyph glyph-name="acircumflex" unicode="&#xe2;" horiz-adv-x="870" 
d="M432 20l39 230l-229 -250h-170q-25 92 -25 213q0 354 129 565q125 180 313 180q73 0 126.5 -14t117.5 -45l113 62h26l-137 -832l15 -14l122 108l27 -43l-207 -196zM328 238l26 -11l131 109l74 440q-56 48 -141 74q-92 -221 -92 -514q0 -69 2 -98zM610 1368h64l200 -270
l-22 -25l-242 152l-280 -160l-21 22z" />
    <glyph glyph-name="atilde" unicode="&#xe3;" horiz-adv-x="870" 
d="M432 20l39 230l-229 -250h-170q-25 92 -25 213q0 354 129 565q125 180 313 180q73 0 126.5 -14t117.5 -45l113 62h26l-137 -832l15 -14l122 108l27 -43l-207 -196zM328 238l26 -11l131 109l74 440q-56 48 -141 74q-92 -221 -92 -514q0 -69 2 -98zM874 1300l31 -26
l-137 -158l-43 -2l-260 86l-86 -76l-35 25l170 164l47 4l248 -84z" />
    <glyph glyph-name="adieresis" unicode="&#xe4;" horiz-adv-x="870" 
d="M432 20l39 230l-229 -250h-170q-25 92 -25 213q0 354 129 565q125 180 313 180q73 0 126.5 -14t117.5 -45l113 62h26l-137 -832l15 -14l122 108l27 -43l-207 -196zM328 238l26 -11l131 109l74 440q-56 48 -141 74q-92 -221 -92 -514q0 -69 2 -98zM815 1143l-135 49
q60 98 82 205l160 -23q-54 -157 -107 -231zM471 1143l-135 49q62 105 82 205l157 -23q-57 -165 -104 -231z" />
    <glyph glyph-name="aring" unicode="&#xe5;" horiz-adv-x="870" 
d="M432 20l39 230l-229 -250h-170q-25 92 -25 213q0 354 129 565q125 180 313 180q73 0 126.5 -14t117.5 -45l113 62h26l-137 -832l15 -14l122 108l27 -43l-207 -196zM328 238l26 -11l131 109l74 440q-56 48 -141 74q-92 -221 -92 -514q0 -69 2 -98zM614 1077
q-56 0 -100.5 36.5t-44.5 105.5q0 68 55 119t125 51q65 0 108.5 -39t43.5 -105q0 -64 -56.5 -116t-130.5 -52zM618 1114q57 0 97.5 39.5t40.5 91.5q0 53 -30.5 80t-80.5 27q-56 0 -93.5 -39t-37.5 -94t30.5 -80t73.5 -25z" />
    <glyph glyph-name="ae" unicode="&#xe6;" horiz-adv-x="1138" 
d="M676 -16l-172 36q-6 23 -9.5 57.5t-5 83t-2.5 62.5l-217 -223h-198q-25 92 -25 213q0 354 129 565q54 79 144.5 129.5t197.5 50.5q99 0 213 -47q40 22 100 36t113 14q114 0 246 -66v-233q-52 -35 -424 -250v-113q0 -86 2 -106l27 -11q80 20 295 195l18 -35
q-51 -85 -178.5 -192t-253.5 -166zM354 203l133 110q5 111 33.5 249t63.5 212q-86 65 -166 76q-34 -65 -62.5 -216.5t-29.5 -297.5q0 -94 2 -123zM772 498q122 84 203 161l2 146q-29 18 -53 28t-36.5 12t-39.5 5q-39 -72 -76 -352z" />
    <glyph glyph-name="ccedilla" unicode="&#xe7;" horiz-adv-x="675" 
d="M184 -430q-37 0 -82.5 8t-68.5 21l39 118q85 -47 172 -47q52 0 98 21q-12 24 -36 48t-43 38t-58 39t-51 34l4 23l90 113l-170 34q-27 111 -27 242q0 315 117 514q126 185 326 185q110 0 239 -56q0 -130 -71 -231q-79 81 -117 108.5t-119 67.5q-44 -84 -65 -227t-21 -261
q0 -111 10 -169l27 -11q58 30 131.5 85.5t130.5 111.5l14 -37q-40 -68 -120.5 -150.5t-174.5 -146.5l-96 -121q72 -56 113 -103t41 -97t-71 -102t-161 -52z" />
    <glyph glyph-name="egrave" unicode="&#xe8;" horiz-adv-x="696" 
d="M643 377l16 -35q-51 -91 -165.5 -196t-237.5 -162l-170 36q-29 107 -29 242q0 324 117 514q125 185 324 185q118 0 250 -66l-5 -229v-4q-118 -110 -395 -240q-4 -70 -4 -107q0 -81 6 -122l27 -11q78 42 266 195zM430 850q-53 -98 -76 -358q82 52 176 141v182
q-67 33 -100 35zM330 1348l162 43l133 -299l-13 -15l-282 244v27z" />
    <glyph glyph-name="eacute" unicode="&#xe9;" horiz-adv-x="696" 
d="M643 377l16 -35q-51 -91 -165.5 -196t-237.5 -162l-170 36q-29 107 -29 242q0 324 117 514q125 185 324 185q118 0 250 -66l-5 -229v-4q-118 -110 -395 -240q-4 -70 -4 -107q0 -81 6 -122l27 -11q78 42 266 195zM430 850q-53 -98 -76 -358q82 52 176 141v182
q-67 33 -100 35zM563 1391l162 -43v-27l-285 -244l-12 15z" />
    <glyph glyph-name="ecircumflex" unicode="&#xea;" horiz-adv-x="696" 
d="M643 377l16 -35q-51 -91 -165.5 -196t-237.5 -162l-170 36q-29 107 -29 242q0 324 117 514q125 185 324 185q118 0 250 -66l-5 -229v-4q-118 -110 -395 -240q-4 -70 -4 -107q0 -81 6 -122l27 -11q78 42 266 195zM543 1368h63l201 -270l-23 -25l-241 152l-281 -160l-20 22
zM430 850q-53 -98 -76 -358q82 52 176 141v182q-67 33 -100 35z" />
    <glyph glyph-name="edieresis" unicode="&#xeb;" horiz-adv-x="696" 
d="M643 377l16 -35q-51 -91 -165.5 -196t-237.5 -162l-170 36q-29 107 -29 242q0 324 117 514q125 185 324 185q118 0 250 -66l-5 -229v-4q-118 -110 -395 -240q-4 -70 -4 -107q0 -81 6 -122l27 -11q78 42 266 195zM430 850q-53 -98 -76 -358q82 52 176 141v182
q-67 33 -100 35zM766 1143l-135 49q60 98 82 205l159 -23q-55 -159 -106 -231zM422 1143l-135 49q62 105 82 205l157 -23q-57 -165 -104 -231z" />
    <glyph glyph-name="igrave" unicode="&#xec;" horiz-adv-x="542" 
d="M328 -16l-262 36l135 816h-138v45l377 80l60 -23l-131 -803l16 -14l133 104l29 -45zM131 1348l162 43l133 -299l-12 -15l-283 244v27z" />
    <glyph glyph-name="iacute" unicode="&#xed;" horiz-adv-x="542" 
d="M328 -16l-262 36l135 816h-138v45l377 80l60 -23l-131 -803l16 -14l133 104l29 -45zM420 1391l162 -43v-27l-285 -244l-12 15z" />
    <glyph glyph-name="icircumflex" unicode="&#xee;" horiz-adv-x="542" 
d="M330 -16l-262 36l135 816h-137v45l376 80l60 -23l-131 -803l16 -14l133 104l29 -45zM371 1368h63l201 -270l-23 -25l-241 152l-281 -160l-20 22z" />
    <glyph glyph-name="idieresis" unicode="&#xef;" horiz-adv-x="542" 
d="M328 -16l-262 36l135 816h-138v45l377 80l60 -23l-131 -803l16 -14l133 104l29 -45zM223 1143l-135 49q62 105 82 205l158 -23q-56 -162 -105 -231zM567 1143l-135 49q60 98 82 205l160 -23q-54 -157 -107 -231z" />
    <glyph glyph-name="eth" unicode="&#xf0;" horiz-adv-x="854" 
d="M365 1051l-29 53l164 96q-47 106 -146 205l39 43q99 -70 205 -188l158 94l26 -58l-145 -86q103 -132 164 -279t61 -288q0 -125 -33.5 -240t-98.5 -210t-172.5 -152t-242.5 -57q-124 0 -193 89.5t-69 229.5q0 89 19 176.5t59.5 169.5t98 147t141.5 108.5t184 53.5
q-9 101 -33 185zM561 668q0 148 -2 209q-32 14 -70 14q-139 -179 -139 -713q0 -81 4 -104q24 -16 64 -19q64 76 102 258.5t41 354.5z" />
    <glyph glyph-name="ntilde" unicode="&#xf1;" horiz-adv-x="966" 
d="M774 -16l-262 36l82 498q12 86 12 174q0 47 -6 68l-35 10q-42 -25 -110 -100l-109 -670h-283l136 836h-136v45l377 80l60 -23l-31 -180q92 104 163.5 153.5t137.5 49.5q56 0 91.5 -76.5t35.5 -200.5q0 -80 -14 -160l-68 -391l16 -14l134 106l28 -45zM860 1300l31 -26
l-137 -158l-43 -2l-260 86l-86 -76l-35 25l170 164l47 4l248 -84z" />
    <glyph glyph-name="ograve" unicode="&#xf2;" horiz-adv-x="851" 
d="M416 55q64 76 103 259t42 354q0 11 1 43.5t1 52.5q0 78 -6 115q-29 14 -70 12q-61 -75 -96.5 -253t-38.5 -345q0 -11 -1 -43t-1 -51q0 -71 4 -125q24 -16 62 -19zM342 -16q-127 0 -208 89.5t-81 225.5q0 92 17.5 183t57 178t96.5 153.5t142.5 107t188.5 40.5
q136 0 220.5 -80t84.5 -240q0 -115 -32 -225.5t-93.5 -205t-163.5 -156.5t-229 -70zM348 1348l162 43l133 -299l-12 -15l-283 244v27z" />
    <glyph glyph-name="oacute" unicode="&#xf3;" horiz-adv-x="851" 
d="M416 55q64 76 103 259t42 354q0 11 1 43.5t1 52.5q0 78 -6 115q-29 14 -70 12q-61 -75 -96.5 -253t-38.5 -345q0 -11 -1 -43t-1 -51q0 -71 4 -125q24 -16 62 -19zM342 -16q-127 0 -208 89.5t-81 225.5q0 92 17.5 183t57 178t96.5 153.5t142.5 107t188.5 40.5
q136 0 220.5 -80t84.5 -240q0 -115 -32 -225.5t-93.5 -205t-163.5 -156.5t-229 -70zM618 1391l162 -43v-27l-284 -244l-13 15z" />
    <glyph glyph-name="ocircumflex" unicode="&#xf4;" horiz-adv-x="851" 
d="M416 55q64 76 103 259t42 354q0 11 1 43.5t1 52.5q0 78 -6 115q-29 14 -70 12q-61 -75 -96.5 -253t-38.5 -345q0 -11 -1 -43t-1 -51q0 -71 4 -125q24 -16 62 -19zM342 -16q-127 0 -208 89.5t-81 225.5q0 92 17.5 183t57 178t96.5 153.5t142.5 107t188.5 40.5
q136 0 220.5 -80t84.5 -240q0 -115 -32 -225.5t-93.5 -205t-163.5 -156.5t-229 -70zM594 1358h63l201 -271l-22 -24l-242 151l-281 -159l-20 22z" />
    <glyph glyph-name="otilde" unicode="&#xf5;" horiz-adv-x="851" 
d="M416 55q64 76 103 259t42 354q0 11 1 43.5t1 52.5q0 78 -6 115q-29 14 -70 12q-61 -75 -96.5 -253t-38.5 -345q0 -11 -1 -43t-1 -51q0 -71 4 -125q24 -16 62 -19zM342 -16q-127 0 -208 89.5t-81 225.5q0 92 17.5 183t57 178t96.5 153.5t142.5 107t188.5 40.5
q136 0 220.5 -80t84.5 -240q0 -115 -32 -225.5t-93.5 -205t-163.5 -156.5t-229 -70zM848 1300l31 -26l-138 -158l-43 -2l-260 86l-86 -76l-35 25l170 164l48 4l247 -84z" />
    <glyph glyph-name="odieresis" unicode="&#xf6;" horiz-adv-x="851" 
d="M416 55q64 76 103 259t42 354q0 11 1 43.5t1 52.5q0 78 -6 115q-29 14 -70 12q-61 -75 -96.5 -253t-38.5 -345q0 -11 -1 -43t-1 -51q0 -71 4 -125q24 -16 62 -19zM342 -16q-127 0 -208 89.5t-81 225.5q0 92 17.5 183t57 178t96.5 153.5t142.5 107t188.5 40.5
q136 0 220.5 -80t84.5 -240q0 -115 -32 -225.5t-93.5 -205t-163.5 -156.5t-229 -70zM449 1143l-136 49q62 105 82 205l158 -23q-57 -165 -104 -231zM793 1143l-136 49q60 98 82 205l160 -23q-55 -159 -106 -231z" />
    <glyph glyph-name="divide" unicode="&#xf7;" horiz-adv-x="876" 
d="M102 567v92h772v-92h-772zM481 774q-59 0 -98 41.5t-39 102.5q0 63 38.5 105t98.5 42q59 0 99.5 -42t40.5 -105q0 -60 -41 -102t-99 -42zM481 160q-59 0 -98 41t-39 102q0 63 38.5 105.5t98.5 42.5q59 0 99.5 -42.5t40.5 -105.5q0 -60 -40.5 -101.5t-99.5 -41.5z" />
    <glyph glyph-name="oslash" unicode="&#xf8;" horiz-adv-x="851" 
d="M346 -16q-127 0 -209 88l-82 -88h-63l117 127q-52 80 -52 188q0 92 17.5 183t57 178t96.5 153.5t142.5 107t188.5 40.5q159 0 240 -103l94 103h68l-136 -146q39 -70 39 -174q0 -115 -32 -225.5t-93.5 -205t-163.5 -156.5t-229 -70zM492 891q-53 -66 -87.5 -210
t-44.5 -298l201 219q4 46 4 66q0 11 1 43.5t1 52.5q0 78 -6 115q-29 14 -69 12zM420 55q50 59 85 189t50 280l-199 -217v-14q0 -11 -1 -43t-1 -51q0 -71 4 -125q24 -16 62 -19z" />
    <glyph glyph-name="ugrave" unicode="&#xf9;" horiz-adv-x="974" 
d="M795 -16l-273 36l29 175q-97 -118 -172.5 -164.5t-153.5 -46.5q-54 0 -85 65t-31 180q0 69 16 170l70 437h-150v45l391 80l58 -23l-78 -512q-15 -84 -15 -180q0 -27 5 -62l32 -10q28 16 41 24t35.5 28.5t50.5 54.5l90 555h-94v45l332 80l59 -23l-129 -817l17 -15l133 121
l31 -47zM387 1348l162 43l133 -299l-12 -15l-283 244v27z" />
    <glyph glyph-name="uacute" unicode="&#xfa;" horiz-adv-x="974" 
d="M795 -16l-273 36l29 175q-97 -118 -172.5 -164.5t-153.5 -46.5q-54 0 -85 65t-31 180q0 69 16 170l70 437h-150v45l391 80l58 -23l-78 -512q-15 -84 -15 -180q0 -27 5 -62l32 -10q28 16 41 24t35.5 28.5t50.5 54.5l90 555h-94v45l332 80l59 -23l-129 -817l17 -15l133 121
l31 -47zM713 1391l161 -43v-27l-284 -244l-12 15z" />
    <glyph glyph-name="ucircumflex" unicode="&#xfb;" horiz-adv-x="974" 
d="M795 -16l-273 36l29 175q-97 -118 -172.5 -164.5t-153.5 -46.5q-54 0 -85 65t-31 180q0 69 16 170l70 437h-150v45l391 80l58 -23l-78 -512q-15 -84 -15 -180q0 -27 5 -62l32 -10q28 16 41 24t35.5 28.5t50.5 54.5l90 555h-94v45l332 80l59 -23l-129 -817l17 -15l133 121
l31 -47zM678 1368h63l201 -270l-22 -25l-242 152l-281 -160l-20 22z" />
    <glyph glyph-name="udieresis" unicode="&#xfc;" horiz-adv-x="974" 
d="M795 -16l-273 36l29 175q-97 -118 -172.5 -164.5t-153.5 -46.5q-54 0 -85 65t-31 180q0 69 16 170l70 437h-150v45l391 80l58 -23l-78 -512q-15 -84 -15 -180q0 -27 5 -62l32 -10q28 16 41 24t35.5 28.5t50.5 54.5l90 555h-94v45l332 80l59 -23l-129 -817l17 -15l133 121
l31 -47zM879 1143l-136 49q60 98 82 205l160 -23q-55 -159 -106 -231zM535 1143l-136 49q62 105 82 205l158 -23q-57 -165 -104 -231z" />
    <glyph glyph-name="yacute" unicode="&#xfd;" horiz-adv-x="831" 
d="M879 940l-2 -59l-336 -785l-183 -520h-241l-2 23l293 401h-189q-38 128 -73.5 392.5t-32.5 443.5h-99v47l363 78l61 -13q-14 -95 -14 -217q0 -245 55 -579h21l139 436l6 352h234zM635 1391l162 -43v-27l-285 -244l-12 15z" />
    <glyph glyph-name="thorn" unicode="&#xfe;" horiz-adv-x="874" 
d="M-135 -424l6 35l96 35l168 975q-17 -8 -43 -22.5t-35 -18.5l-6 49l94 61l117 678l301 74l-100 -572q178 91 242 91q60 0 101 -52t58 -130t17 -175q0 -93 -34 -196.5t-92.5 -194.5t-149 -155t-191.5 -74q-60 0 -107 6l-59 -334l119 -43l-7 -37h-495zM498 803q-6 -3 -24 -9
t-28 -10l-116 -663q53 -39 100 -39q29 -1 65.5 75t62.5 187t26 201q0 67 -11.5 142t-33.5 116h-41z" />
    <glyph glyph-name="ydieresis" unicode="&#xff;" horiz-adv-x="831" 
d="M879 940l-2 -59l-336 -785l-183 -520h-241l-2 23l293 401h-189q-38 128 -73.5 392.5t-32.5 443.5h-99v47l363 78l61 -13q-14 -95 -14 -217q0 -245 55 -579h21l139 436l6 352h234zM766 1147l-135 49q60 98 82 205l159 -23q-55 -159 -106 -231zM422 1147l-135 49
q62 105 82 205l157 -23q-57 -165 -104 -231z" />
    <glyph glyph-name="Amacron" unicode="&#x100;" horiz-adv-x="1073" 
d="M-74 0l8 39l121 49l705 1106h133l119 -1139l59 -14l-8 -41h-502l4 39l119 22l-22 295h-338l-170 -262l176 -53l-8 -41h-396zM365 422h290l-28 403h-11zM1071 1374h-434l14 60h434z" />
    <glyph glyph-name="amacron" unicode="&#x101;" horiz-adv-x="870" 
d="M432 20l39 230l-229 -250h-170q-25 92 -25 213q0 354 129 565q125 180 313 180q73 0 126.5 -14t117.5 -45l113 62h26l-137 -832l15 -14l122 108l27 -43l-207 -196zM328 238l26 -11l131 109l74 440q-56 48 -141 74q-92 -221 -92 -514q0 -69 2 -98zM825 1208h-381l15 60
h381z" />
    <glyph glyph-name="Abreve" unicode="&#x102;" horiz-adv-x="1073" 
d="M-74 0l8 39l121 49l705 1106h133l119 -1139l59 -14l-8 -41h-502l4 39l119 22l-22 295h-338l-170 -262l176 -53l-8 -41h-396zM365 422h290l-28 403h-11zM823 1286q-72 0 -124.5 57t-59.5 146l137 20q2 -87 80 -145q67 7 132 49.5t91 95.5l35 -12q-57 -106 -125 -158.5
t-166 -52.5z" />
    <glyph glyph-name="abreve" unicode="&#x103;" horiz-adv-x="870" 
d="M432 20l39 230l-229 -250h-170q-25 92 -25 213q0 354 129 565q125 180 313 180q73 0 126.5 -14t117.5 -45l113 62h26l-137 -832l15 -14l122 108l27 -43l-207 -196zM328 238l26 -11l131 109l74 440q-56 48 -141 74q-92 -221 -92 -514q0 -69 2 -98zM580 1073
q-70 0 -113 55.5t-51 147.5l137 20q3 -103 59 -145q64 7 119 52t84 102l35 -13q-62 -115 -118.5 -167t-151.5 -52z" />
    <glyph glyph-name="Aogonek" unicode="&#x104;" horiz-adv-x="1073" 
d="M-74 0l8 39l121 49l705 1106h133l119 -1139l59 -14l-8 -41h-223q-130 -163 -148 -262l21 -12q26 -5 83.5 5.5t101.5 24.5l44 13l19 -105q-56 -34 -152.5 -61.5t-192.5 -30.5l-41 39q26 160 203 389h-217l4 39l119 22l-22 295h-338l-170 -262l176 -53l-8 -41h-396z
M365 422h290l-28 403h-11z" />
    <glyph glyph-name="aogonek" unicode="&#x105;" horiz-adv-x="870" 
d="M432 20l39 230l-229 -250h-170q-25 92 -25 213q0 354 129 565q125 180 313 180q73 0 126.5 -14t117.5 -45l113 62h26l-137 -832l15 -14l122 108l27 -43l-127 -121q-179 -203 -199 -321l21 -12q26 -5 83.5 5.5t101.5 24.5l44 13l19 -105q-57 -34 -152.5 -61.5
t-191.5 -30.5l-41 39q26 156 194 379zM328 238l26 -11l131 109l74 440q-56 48 -141 74q-92 -221 -92 -514q0 -69 2 -98z" />
    <glyph glyph-name="Cacute" unicode="&#x106;" horiz-adv-x="1015" 
d="M1085 829h-65l-92 293q-43 19 -107 19q-81 0 -148.5 -41t-113 -108.5t-76.5 -156t-45 -181t-14 -187.5q0 -66 5 -119.5t20.5 -109t40.5 -93t67.5 -61t99.5 -23.5q86 0 161.5 62t111.5 141h57l-35 -194q-56 -35 -162.5 -60.5t-205.5 -25.5q-105 0 -195.5 26t-163 77.5
t-114 138t-41.5 198.5q0 182 59 332.5t161.5 249t240 152.5t294.5 54q87 0 175.5 -21.5t136.5 -45.5zM1051 1552l84 -108v-27l-379 -139l-11 20z" />
    <glyph glyph-name="cacute" unicode="&#x107;" horiz-adv-x="675" 
d="M639 379l14 -37q-54 -91 -168 -196.5t-235 -161.5l-172 36q-27 111 -27 242q0 315 117 514q126 185 326 185q110 0 239 -56q0 -130 -71 -231q-79 81 -117 108.5t-119 67.5q-44 -84 -65 -227t-21 -261q0 -111 10 -169l27 -11q58 30 131.5 85.5t130.5 111.5zM557 1391
l162 -43v-27l-285 -244l-12 15z" />
    <glyph glyph-name="Ccircumflex" unicode="&#x108;" horiz-adv-x="1015" 
d="M1085 829h-65l-92 293q-43 19 -107 19q-81 0 -148.5 -41t-113 -108.5t-76.5 -156t-45 -181t-14 -187.5q0 -66 5 -119.5t20.5 -109t40.5 -93t67.5 -61t99.5 -23.5q86 0 161.5 62t111.5 141h57l-35 -194q-56 -35 -162.5 -60.5t-205.5 -25.5q-105 0 -195.5 26t-163 77.5
t-114 138t-41.5 198.5q0 182 59 332.5t161.5 249t240 152.5t294.5 54q87 0 175.5 -21.5t136.5 -45.5zM881 1528h63l160 -230l-27 -28l-198 127l-256 -137l-19 28z" />
    <glyph glyph-name="ccircumflex" unicode="&#x109;" horiz-adv-x="675" 
d="M639 379l14 -37q-54 -91 -168 -196.5t-235 -161.5l-172 36q-27 111 -27 242q0 315 117 514q126 185 326 185q110 0 239 -56q0 -130 -71 -231q-79 81 -117 108.5t-119 67.5q-44 -84 -65 -227t-21 -261q0 -111 10 -169l27 -11q58 30 131.5 85.5t130.5 111.5zM518 1368h64
l200 -270l-22 -25l-242 152l-280 -160l-21 22z" />
    <glyph glyph-name="Cdotaccent" unicode="&#x10a;" horiz-adv-x="1015" 
d="M1085 829h-65l-92 293q-43 19 -107 19q-81 0 -148.5 -41t-113 -108.5t-76.5 -156t-45 -181t-14 -187.5q0 -66 5 -119.5t20.5 -109t40.5 -93t67.5 -61t99.5 -23.5q86 0 161.5 62t111.5 141h57l-35 -194q-56 -35 -162.5 -60.5t-205.5 -25.5q-105 0 -195.5 26t-163 77.5
t-114 138t-41.5 198.5q0 182 59 332.5t161.5 249t240 152.5t294.5 54q87 0 175.5 -21.5t136.5 -45.5zM862 1274l-160 41q25 45 47 107t29 98l178 -19q-36 -150 -94 -227z" />
    <glyph glyph-name="cdotaccent" unicode="&#x10b;" horiz-adv-x="675" 
d="M639 379l14 -37q-54 -91 -168 -196.5t-235 -161.5l-172 36q-27 111 -27 242q0 315 117 514q126 185 326 185q110 0 239 -56q0 -130 -71 -231q-79 81 -117 108.5t-119 67.5q-44 -84 -65 -227t-21 -261q0 -111 10 -169l27 -11q58 30 131.5 85.5t130.5 111.5zM588 1149
l-139 41q59 111 73 184l158 -18q-42 -138 -92 -207z" />
    <glyph glyph-name="Ccaron" unicode="&#x10c;" horiz-adv-x="1015" 
d="M1085 829h-65l-92 293q-43 19 -107 19q-81 0 -148.5 -41t-113 -108.5t-76.5 -156t-45 -181t-14 -187.5q0 -66 5 -119.5t20.5 -109t40.5 -93t67.5 -61t99.5 -23.5q86 0 161.5 62t111.5 141h57l-35 -194q-56 -35 -162.5 -60.5t-205.5 -25.5q-105 0 -195.5 26t-163 77.5
t-114 138t-41.5 198.5q0 182 59 332.5t161.5 249t240 152.5t294.5 54q87 0 175.5 -21.5t136.5 -45.5zM854 1282h-61l-160 256l20 27l189 -144l291 148l18 -23z" />
    <glyph glyph-name="ccaron" unicode="&#x10d;" horiz-adv-x="675" 
d="M639 379l14 -37q-54 -91 -168 -196.5t-235 -161.5l-172 36q-27 111 -27 242q0 315 117 514q126 185 326 185q110 0 239 -56q0 -130 -71 -231q-79 81 -117 108.5t-119 67.5q-44 -84 -65 -227t-21 -261q0 -111 10 -169l27 -11q58 30 131.5 85.5t130.5 111.5zM528 1075h-63
l-137 287l22 18l178 -166l230 172l18 -22z" />
    <glyph glyph-name="Dcaron" unicode="&#x10e;" horiz-adv-x="1187" 
d="M20 0l3 43l124 25l183 1060l-117 21l8 45h547q494 0 494 -412q0 -167 -55.5 -313t-151 -248.5t-226.5 -161.5t-278 -59h-531zM684 1118h-41l-180 -1036h31q184 0 300.5 180.5t116.5 509.5q0 63 -6 112.5t-21 94.5t-40.5 74.5t-65.5 47t-94 17.5zM805 1278h-62l-159 256
l20 27l189 -144l290 148l19 -23z" />
    <glyph glyph-name="dcaron" unicode="&#x10f;" horiz-adv-x="1034" 
d="M434 20l39 232l-231 -252h-170q-25 92 -25 213q0 354 129 565q125 180 313 180q39 0 101 -8l59 350h-147v46l393 94l55 -37l-213 -1249l17 -15l120 84l27 -43l-235 -196zM328 238l26 -11l133 111l74 438q-55 47 -143 74q-92 -221 -92 -514q0 -69 2 -98zM1022 1083h-45
l63 357h162l-153 -334z" />
    <glyph glyph-name="Dcroat" unicode="&#x110;" horiz-adv-x="1187" 
d="M139 561l13 74h92l86 493l-117 21l8 45h547q494 0 494 -412q0 -167 -55.5 -313t-151 -248.5t-226.5 -161.5t-278 -59h-531l3 43l124 25l84 493h-92zM684 1118h-41l-84 -483h117l-12 -74h-119l-82 -479h31q184 0 300.5 180.5t116.5 509.5q0 63 -6 112.5t-21 94.5
t-40.5 74.5t-65.5 47t-94 17.5z" />
    <glyph glyph-name="dcroat" unicode="&#x111;" horiz-adv-x="870" 
d="M434 20l39 232l-231 -252h-170q-25 92 -25 213q0 354 129 565q125 180 313 180q39 0 101 -8l22 135h-209l15 62h205l26 153h-147v46l393 94l55 -37l-45 -256h88l-14 -62h-84l-158 -931l17 -15l120 84l27 -43l-235 -196zM328 238l26 -11l133 111l74 438q-55 47 -143 74
q-92 -221 -92 -514q0 -69 2 -98z" />
    <glyph glyph-name="Emacron" unicode="&#x112;" horiz-adv-x="1001" 
d="M20 0l5 43l122 25l181 1054l-115 27l8 45h866l-55 -332h-57l-94 254h-238l-82 -483l320 24l-19 -118l-313 24l-84 -483h235l250 291l47 -9l-114 -362h-863zM983 1376h-434l14 60h434z" />
    <glyph glyph-name="emacron" unicode="&#x113;" horiz-adv-x="696" 
d="M643 377l16 -35q-51 -91 -165.5 -196t-237.5 -162l-170 36q-29 107 -29 242q0 324 117 514q125 185 324 185q118 0 250 -66l-5 -229v-4q-118 -110 -395 -240q-4 -70 -4 -107q0 -81 6 -122l27 -11q78 42 266 195zM430 850q-53 -98 -76 -358q82 52 176 141v182
q-67 33 -100 35zM735 1208h-381l15 60h381z" />
    <glyph glyph-name="Ebreve" unicode="&#x114;" horiz-adv-x="1001" 
d="M20 0l5 43l122 25l181 1054l-115 27l8 45h866l-55 -332h-57l-94 254h-238l-82 -483l320 24l-19 -118l-313 24l-84 -483h235l250 291l47 -9l-114 -362h-863zM713 1286q-72 0 -125 57t-60 146l138 20q2 -88 79 -145q67 7 132.5 49.5t91.5 95.5l35 -12q-57 -106 -125 -158.5
t-166 -52.5z" />
    <glyph glyph-name="ebreve" unicode="&#x115;" horiz-adv-x="696" 
d="M643 377l16 -35q-51 -91 -165.5 -196t-237.5 -162l-170 36q-29 107 -29 242q0 324 117 514q125 185 324 185q118 0 250 -66l-5 -229v-4q-118 -110 -395 -240q-4 -70 -4 -107q0 -81 6 -122l27 -11q78 42 266 195zM485 1073q-70 0 -112.5 55.5t-50.5 147.5l137 20
q3 -103 59 -145q64 7 119 52t84 102l35 -13q-31 -56 -54.5 -91t-56 -67t-71.5 -46.5t-89 -14.5zM430 850q-53 -98 -76 -358q82 52 176 141v182q-67 33 -100 35z" />
    <glyph glyph-name="Edotaccent" unicode="&#x116;" horiz-adv-x="1001" 
d="M20 0l5 43l122 25l181 1054l-115 27l8 45h866l-55 -332h-57l-94 254h-238l-82 -483l320 24l-19 -118l-313 24l-84 -483h235l250 291l47 -9l-114 -362h-863zM805 1272l-160 41q25 45 47 107t29 98l178 -19q-36 -150 -94 -227z" />
    <glyph glyph-name="edotaccent" unicode="&#x117;" horiz-adv-x="696" 
d="M643 377l16 -35q-51 -91 -165.5 -196t-237.5 -162l-170 36q-29 107 -29 242q0 324 117 514q125 185 324 185q118 0 250 -66l-5 -229v-4q-118 -110 -395 -240q-4 -70 -4 -107q0 -81 6 -122l27 -11q78 42 266 195zM430 850q-53 -98 -76 -358q82 52 176 141v182
q-67 33 -100 35zM588 1149l-139 41q59 111 73 184l158 -18q-42 -138 -92 -207z" />
    <glyph glyph-name="Eogonek" unicode="&#x118;" horiz-adv-x="1001" 
d="M20 0l5 43l122 25l181 1054l-115 27l8 45h866l-55 -332h-57l-94 254h-238l-82 -483l320 24l-19 -118l-313 24l-84 -483h235l250 291l47 -9l-114 -362h-95q-126 -161 -141 -262l21 -12q24 -5 78.5 5.5t96.5 24.5l42 13l18 -105q-55 -34 -145.5 -61.5t-182.5 -30.5l-38 39
q26 162 194 389h-711z" />
    <glyph glyph-name="eogonek" unicode="&#x119;" horiz-adv-x="696" 
d="M459 -231l18 -105q-55 -34 -145.5 -61.5t-181.5 -30.5l-39 39q27 170 204 403q-11 -7 -31.5 -16.5t-27.5 -13.5l-170 36q-29 107 -29 242q0 324 117 514q125 185 324 185q118 0 250 -66l-5 -229v-4q-118 -110 -395 -240q-4 -70 -4 -107q0 -81 6 -122l27 -11
q78 42 266 195l16 -35q-67 -113 -202 -227q-98 -114 -161 -207.5t-75 -169.5l21 -12q24 -5 78.5 5.5t96.5 24.5zM430 850q-53 -98 -76 -358q82 52 176 141v182q-67 33 -100 35z" />
    <glyph glyph-name="Ecaron" unicode="&#x11a;" horiz-adv-x="1001" 
d="M20 0l5 43l122 25l181 1054l-115 27l8 45h866l-55 -332h-57l-94 254h-238l-82 -483l320 24l-19 -118l-313 24l-84 -483h235l250 291l47 -9l-114 -362h-863zM750 1282h-62l-160 256l21 27l188 -144l291 148l19 -23z" />
    <glyph glyph-name="ecaron" unicode="&#x11b;" horiz-adv-x="696" 
d="M643 377l16 -35q-51 -91 -165.5 -196t-237.5 -162l-170 36q-29 107 -29 242q0 324 117 514q125 185 324 185q118 0 250 -66l-5 -229v-4q-118 -110 -395 -240q-4 -70 -4 -107q0 -81 6 -122l27 -11q78 42 266 195zM537 1075h-64l-137 287l22 18l179 -166l229 172l18 -22z
M430 850q-53 -98 -76 -358q82 52 176 141v182q-67 33 -100 35z" />
    <glyph glyph-name="Gcircumflex" unicode="&#x11c;" horiz-adv-x="1067" 
d="M582 -16q-105 0 -196.5 30t-162.5 88t-112 150t-41 207q0 135 40 255t110.5 210t165 155.5t206.5 99t231 33.5q87 0 174.5 -21.5t135.5 -45.5l-54 -316h-63l-80 293q-59 15 -123 15q-96 0 -173 -63.5t-122.5 -164t-69.5 -212.5t-24 -220q0 -416 203 -416q1 0 59 5l68 448
l-119 33l8 43h416l-90 -520q-54 -34 -170.5 -60t-216.5 -26zM889 1528h63l160 -230l-27 -28l-198 127l-256 -137l-19 28z" />
    <glyph glyph-name="gcircumflex" unicode="&#x11d;" horiz-adv-x="817" 
d="M266 -436q-222 0 -325 61l47 191q183 -95 311 -95q28 0 72 7q33 36 94 460q1 9 10 66l-233 -254h-170q-25 92 -25 213q0 354 129 565q125 180 313 180q125 0 238 -55l107 58h26l-155 -988q-25 -162 -154 -285.5t-285 -123.5zM487 338l62 446q-51 43 -131 66
q-92 -221 -92 -514q0 -69 2 -98l26 -11zM610 1368h64l200 -270l-22 -25l-242 152l-280 -160l-21 22z" />
    <glyph glyph-name="Gbreve" unicode="&#x11e;" horiz-adv-x="1067" 
d="M582 -16q-105 0 -196.5 30t-162.5 88t-112 150t-41 207q0 135 40 255t110.5 210t165 155.5t206.5 99t231 33.5q87 0 174.5 -21.5t135.5 -45.5l-54 -316h-63l-80 293q-59 15 -123 15q-96 0 -173 -63.5t-122.5 -164t-69.5 -212.5t-24 -220q0 -416 203 -416q1 0 59 5l68 448
l-119 33l8 43h416l-90 -520q-54 -34 -170.5 -60t-216.5 -26zM807 1284q-72 0 -124.5 57t-59.5 146l137 20q2 -87 80 -145q67 7 132 49.5t91 95.5l35 -12q-57 -106 -125 -158.5t-166 -52.5z" />
    <glyph glyph-name="gbreve" unicode="&#x11f;" horiz-adv-x="817" 
d="M266 -436q-222 0 -325 61l47 191q183 -95 311 -95q28 0 72 7q33 36 94 460q1 9 10 66l-233 -254h-170q-25 92 -25 213q0 354 129 565q125 180 313 180q125 0 238 -55l107 58h26l-155 -988q-25 -162 -154 -285.5t-285 -123.5zM487 338l62 446q-51 43 -131 66
q-92 -221 -92 -514q0 -69 2 -98l26 -11zM557 1073q-70 0 -113 55.5t-51 147.5l137 20q3 -102 60 -145q64 7 119 52t84 102l34 -13q-62 -115 -118.5 -167t-151.5 -52z" />
    <glyph glyph-name="Gdotaccent" unicode="&#x120;" horiz-adv-x="1067" 
d="M582 -16q-105 0 -196.5 30t-162.5 88t-112 150t-41 207q0 135 40 255t110.5 210t165 155.5t206.5 99t231 33.5q87 0 174.5 -21.5t135.5 -45.5l-54 -316h-63l-80 293q-59 15 -123 15q-96 0 -173 -63.5t-122.5 -164t-69.5 -212.5t-24 -220q0 -416 203 -416q1 0 59 5l68 448
l-119 33l8 43h416l-90 -520q-54 -34 -170.5 -60t-216.5 -26zM905 1274l-160 41q25 45 47 107t29 98l178 -19q-36 -150 -94 -227z" />
    <glyph glyph-name="gdotaccent" unicode="&#x121;" horiz-adv-x="817" 
d="M266 -436q-222 0 -325 61l47 191q183 -95 311 -95q28 0 72 7q33 36 94 460q1 9 10 66l-233 -254h-170q-25 92 -25 213q0 354 129 565q125 180 313 180q125 0 238 -55l107 58h26l-155 -988q-25 -162 -154 -285.5t-285 -123.5zM487 338l62 446q-51 43 -131 66
q-92 -221 -92 -514q0 -69 2 -98l26 -11zM629 1149l-140 41q60 114 74 184l158 -18q-42 -138 -92 -207z" />
    <glyph glyph-name="Gcommaaccent" unicode="&#x122;" horiz-adv-x="1067" 
d="M582 -16q-105 0 -196.5 30t-162.5 88t-112 150t-41 207q0 135 40 255t110.5 210t165 155.5t206.5 99t231 33.5q87 0 174.5 -21.5t135.5 -45.5l-54 -316h-63l-80 293q-59 15 -123 15q-96 0 -173 -63.5t-122.5 -164t-69.5 -212.5t-24 -220q0 -416 203 -416q1 0 59 5l68 448
l-119 33l8 43h416l-90 -520q-54 -34 -170.5 -60t-216.5 -26zM678 -127l16 -18l-164 -361h-38l40 379h146z" />
    <glyph glyph-name="gcommaaccent" unicode="&#x123;" horiz-adv-x="817" 
d="M266 -436q-222 0 -325 61l47 191q183 -95 311 -95q28 0 72 7q33 36 94 460q1 9 10 66l-233 -254h-170q-25 92 -25 213q0 354 129 565q125 180 313 180q125 0 238 -55l107 58h26l-155 -988q-25 -162 -154 -285.5t-285 -123.5zM487 338l62 446q-51 43 -131 66
q-92 -221 -92 -514q0 -69 2 -98l26 -11zM518 1051l-16 18l164 367h39l-41 -385h-146z" />
    <glyph glyph-name="Hcircumflex" unicode="&#x124;" horiz-adv-x="1292" 
d="M20 0l5 43l122 23l181 1060l-115 23l8 45h539l-8 -43l-113 -21l-82 -481h348l78 477l-115 23l9 45h538l-6 -43l-115 -21l-182 -1062l107 -23l-7 -45h-536l4 43l123 20l90 525h-346l-90 -522l106 -21l-6 -45h-537zM895 1528h63l160 -230l-26 -28l-199 127l-256 -137
l-19 28z" />
    <glyph glyph-name="hcircumflex" unicode="&#x125;" horiz-adv-x="956" 
d="M23 0l225 1300h-137v46l376 94l58 -37l-113 -664q98 114 173.5 168t144.5 54q56 0 91.5 -76.5t35.5 -200.5q0 -74 -15 -160l-67 -391l16 -14l133 106l29 -45l-219 -196l-262 36l81 498q13 93 13 174q0 47 -6 68l-35 10q-46 -29 -127 -119l-109 -651h-286zM408 1704h63
l160 -229l-27 -29l-198 127l-256 -137l-19 28z" />
    <glyph glyph-name="Hbar" unicode="&#x126;" horiz-adv-x="1292" 
d="M20 0l5 43l122 23l134 784h-103l12 57h101l37 219l-115 23l8 45h539l-8 -43l-113 -21l-39 -223h346l37 219l-115 23l9 45h538l-6 -43l-115 -21l-39 -223h91l-13 -57h-88l-133 -782l107 -23l-7 -45h-536l4 43l123 20l90 525h-346l-90 -522l106 -21l-6 -45h-537zM557 649
h348l33 201h-348z" />
    <glyph glyph-name="hbar" unicode="&#x127;" horiz-adv-x="956" 
d="M23 0l184 1065h-111l15 61h106l31 174h-137v46l376 94l58 -37l-47 -277h209l-15 -61h-205l-55 -326q98 114 173.5 168t144.5 54q56 0 91.5 -76.5t35.5 -200.5q0 -74 -15 -160l-67 -391l16 -14l133 106l29 -45l-219 -196l-262 36l81 498q13 93 13 174q0 47 -6 68l-35 10
q-46 -29 -127 -119l-109 -651h-286z" />
    <glyph glyph-name="Itilde" unicode="&#x128;" horiz-adv-x="673" 
d="M35 0l4 43l123 23l180 1062l-115 21l9 45h544l-6 -43l-115 -23l-182 -1060l107 -23l-4 -45h-545zM809 1489l29 -25l-142 -161l-43 -3l-307 54l-53 -43l-25 22l140 150l49 4l297 -53z" />
    <glyph glyph-name="itilde" unicode="&#x129;" horiz-adv-x="542" 
d="M328 -16l-262 36l135 816h-138v45l377 80l60 -23l-131 -803l16 -14l133 104l29 -45zM621 1300l30 -26l-137 -158l-43 -2l-260 86l-86 -76l-35 25l170 164l47 4l248 -84z" />
    <glyph glyph-name="Imacron" unicode="&#x12a;" horiz-adv-x="673" 
d="M35 0l4 43l123 23l180 1062l-115 21l9 45h544l-6 -43l-115 -23l-182 -1060l107 -23l-4 -45h-545zM758 1376h-434l14 60h434z" />
    <glyph glyph-name="imacron" unicode="&#x12b;" horiz-adv-x="542" 
d="M328 -16l-262 36l135 816h-138v45l377 80l60 -23l-131 -803l16 -14l133 104l29 -45zM575 1208h-380l14 60h381z" />
    <glyph glyph-name="Ibreve" unicode="&#x12c;" horiz-adv-x="673" 
d="M35 0l4 43l123 23l180 1062l-115 21l9 45h544l-6 -43l-115 -23l-182 -1060l107 -23l-4 -45h-545zM487 1286q-72 0 -124.5 57t-59.5 146l137 20q2 -87 80 -145q67 7 132 49.5t91 95.5l35 -12q-57 -106 -125 -158.5t-166 -52.5z" />
    <glyph glyph-name="ibreve" unicode="&#x12d;" horiz-adv-x="542" 
d="M328 -16l-262 36l135 816h-138v45l377 80l60 -23l-131 -803l16 -14l133 104l29 -45zM319 1073q-70 0 -112.5 55.5t-50.5 147.5l137 20q3 -103 59 -145q64 7 119 52t84 102l35 -13q-31 -56 -54.5 -91t-56 -67t-71.5 -46.5t-89 -14.5z" />
    <glyph glyph-name="Iogonek" unicode="&#x12e;" horiz-adv-x="673" 
d="M35 0l4 43l123 23l180 1062l-115 21l9 45h544l-6 -43l-115 -23l-182 -1060l107 -23l-4 -45h-244q-130 -163 -148 -262l21 -12q26 -5 83.5 5.5t101.5 24.5l44 13l19 -105q-57 -34 -152.5 -61.5t-191.5 -30.5l-41 39q26 162 202 389h-239z" />
    <glyph glyph-name="iogonek" unicode="&#x12f;" horiz-adv-x="542" 
d="M477 -231l19 -105q-57 -34 -152.5 -61.5t-191.5 -30.5l-41 39q27 160 194 377l-237 32l135 816h-137v45l376 80l60 -23l-131 -803l16 -14l133 104l29 -45l-74 -65q-227 -243 -248 -377l21 -12q26 -5 83.5 5.5t101.5 24.5zM508 1079l-217 66q28 50 63 132t41 112l238 -43
q-23 -70 -58 -148.5t-67 -118.5z" />
    <glyph glyph-name="Idotaccent" unicode="&#x130;" horiz-adv-x="673" 
d="M35 0l4 43l123 23l180 1062l-115 21l9 45h544l-6 -43l-115 -23l-182 -1060l107 -23l-4 -45h-545zM584 1274l-160 41q25 45 47 107t29 98l178 -19q-36 -150 -94 -227z" />
    <glyph glyph-name="dotlessi" unicode="&#x131;" horiz-adv-x="542" 
d="M328 -16l-262 36l135 816h-138v45l377 80l60 -23l-131 -803l16 -14l133 104l29 -45z" />
    <glyph glyph-name="IJ" unicode="&#x132;" horiz-adv-x="1466" 
d="M35 0l4 43l123 23l180 1062l-115 21l9 45h544l-6 -43l-115 -23l-182 -1060l107 -23l-4 -45h-545zM989 -16q-182 0 -295 55l62 375h61l49 -336q40 -12 68 -12q21 0 36.5 5.5t27.5 21t19 27.5t15 42t11.5 45.5t11.5 56.5l145 862l-123 23l10 45h566l-6 -43l-131 -25
l-136 -794q-26 -154 -139.5 -251t-251.5 -97z" />
    <glyph glyph-name="ij" unicode="&#x133;" horiz-adv-x="1075" 
d="M506 -438l-25 20q90 163 131 414l138 840h-136v45l377 80l60 -23l-154 -938q-20 -120 -135.5 -238t-255.5 -200zM1022 1079l-188 66q26 50 58 131.5t36 112.5l207 -43q-21 -68 -53 -147.5t-60 -119.5zM328 -16l-262 36l135 816h-138v45l377 80l60 -23l-131 -803l16 -14
l133 104l29 -45zM471 1079l-188 66q26 53 58 134t36 110l207 -43q-21 -68 -53 -147.5t-60 -119.5z" />
    <glyph glyph-name="Jcircumflex" unicode="&#x134;" horiz-adv-x="763" 
d="M287 -16q-182 0 -295 55l61 375h62l49 -336q40 -12 67 -12q21 0 36.5 5.5t27.5 21t19 27.5t15 42t11.5 45.5t11.5 56.5l146 862l-123 23l10 45h565l-6 -43l-131 -25l-135 -794q-26 -154 -139.5 -251t-251.5 -97zM721 1528h63l160 -230l-26 -28l-199 127l-256 -137l-19 28
z" />
    <glyph glyph-name="jcircumflex" unicode="&#x135;" horiz-adv-x="536" 
d="M-33 -438l-24 20q90 163 131 414l137 840h-135v45l377 80l59 -23l-154 -938q-20 -120 -135.5 -238t-255.5 -200zM401 1368h64l201 -270l-23 -25l-242 152l-280 -160l-21 22z" />
    <glyph glyph-name="Kcommaaccent" unicode="&#x136;" horiz-adv-x="1128" 
d="M20 0l7 43l123 23l180 1062l-115 21l8 45h545l-6 -43l-115 -23l-182 -1060l106 -23l-4 -45h-547zM764 0l-193 520l9 49l426 535l-134 51l7 39h436l-10 -47l-183 -41l-317 -369l285 -649l84 -51l-5 -37h-405zM674 -127l16 -18l-164 -361h-39l41 379h146z" />
    <glyph glyph-name="kcommaaccent" unicode="&#x137;" horiz-adv-x="897" 
d="M31 0l221 1300h-135v46l379 94l55 -37l-100 -602q115 121 188 157l238 -49q10 -62 10 -102q0 -208 -199 -297l100 -352l21 -6l106 71l23 -41l-236 -198l-184 34l-76 365l9 29q57 54 113.5 164.5t56.5 195.5q0 9 -5 39l-22 10q-59 -26 -162 -129l-117 -692h-284zM477 -127
l17 -18l-164 -361h-39l41 379h145z" />
    <glyph glyph-name="Lacute" unicode="&#x139;" horiz-adv-x="962" 
d="M20 0l5 43l125 25l178 1060l-115 21l8 45h547l-8 -43l-115 -23l-180 -1048h219l260 315l49 -12l-119 -383h-854zM684 1552l84 -108v-27l-379 -139l-10 20z" />
    <glyph glyph-name="lacute" unicode="&#x13a;" horiz-adv-x="479" 
d="M33 20l209 1280h-136v46l377 94l56 -37l-211 -1282l16 -15l133 119l29 -45l-219 -196zM522 1745l84 -109v-26l-379 -140l-10 21z" />
    <glyph glyph-name="Lcommaaccent" unicode="&#x13b;" horiz-adv-x="962" 
d="M20 0l5 43l125 25l178 1060l-115 21l8 45h547l-8 -43l-115 -23l-180 -1048h219l260 315l49 -12l-119 -383h-854zM610 -127l17 -18l-164 -361h-39l41 379h145z" />
    <glyph glyph-name="lcommaaccent" unicode="&#x13c;" horiz-adv-x="479" 
d="M33 20l209 1280h-136v46l377 94l56 -37l-211 -1282l16 -15l133 119l29 -45l-219 -196zM268 -127l17 -18l-164 -361h-39l41 379h145z" />
    <glyph glyph-name="Lcaron" unicode="&#x13d;" horiz-adv-x="962" 
d="M20 0l5 43l125 25l178 1060l-115 21l8 45h547l-8 -43l-115 -23l-180 -1048h219l260 315l49 -12l-119 -383h-854zM879 909h-45l63 357h162l-154 -334z" />
    <glyph glyph-name="lcaron" unicode="&#x13e;" horiz-adv-x="641" 
d="M33 20l209 1280h-136v46l377 94l56 -37l-211 -1282l16 -15l133 119l29 -45l-219 -196zM621 1083h-46l64 357h162l-154 -334z" />
    <glyph glyph-name="Ldot" unicode="&#x13f;" horiz-adv-x="962" 
d="M20 0l5 43l125 25l178 1060l-115 21l8 45h547l-8 -43l-115 -23l-180 -1048h219l260 315l49 -12l-119 -383h-854zM770 604q24 49 52 121t34 102q53 4 115 -5t90 -23q-54 -180 -105 -246q-42 0 -98 14.5t-88 36.5z" />
    <glyph glyph-name="ldot" unicode="&#x140;" horiz-adv-x="575" 
d="M33 20l209 1280h-136v46l377 94l56 -37l-211 -1282l16 -15l133 119l29 -45l-219 -196zM602 494l-160 41q25 45 47 106.5t29 97.5l178 -18q-36 -150 -94 -227z" />
    <glyph glyph-name="Lslash" unicode="&#x141;" horiz-adv-x="962" 
d="M20 0l5 43l125 25l51 313l-72 -39l-16 41l100 61l115 684l-115 21l8 45h547l-8 -43l-115 -23l-80 -464l119 73l33 -80l-168 -90l-84 -487h219l260 315l49 -12l-119 -383h-854z" />
    <glyph glyph-name="lslash" unicode="&#x142;" horiz-adv-x="479" 
d="M33 20l76 472l-105 -52l-16 41l133 76l121 743h-136v46l377 94l56 -37l-111 -666l109 64l32 -80l-155 -78l-86 -522l16 -15l133 119l29 -45l-219 -196z" />
    <glyph glyph-name="Nacute" unicode="&#x143;" horiz-adv-x="1249" 
d="M-6 0l6 39l147 53l170 993l-129 68l7 41h385l415 -752h6l117 645l-211 66l6 41h453l-6 -39l-154 -55l-190 -1116h-139l-488 934h-8l-141 -812l231 -65l-6 -41h-471zM1016 1552l84 -108v-27l-379 -139l-10 20z" />
    <glyph glyph-name="nacute" unicode="&#x144;" horiz-adv-x="966" 
d="M774 -16l-262 36l82 498q12 86 12 174q0 47 -6 68l-35 10q-42 -25 -110 -100l-109 -670h-283l136 836h-136v45l377 80l60 -23l-31 -180q92 104 163.5 153.5t137.5 49.5q56 0 91.5 -76.5t35.5 -200.5q0 -80 -14 -160l-68 -391l16 -14l134 106l28 -45zM702 1391l162 -43
v-27l-284 -244l-13 15z" />
    <glyph glyph-name="Ncommaaccent" unicode="&#x145;" horiz-adv-x="1249" 
d="M-6 0l6 39l147 53l170 993l-129 68l7 41h385l415 -752h6l117 645l-211 66l6 41h453l-6 -39l-154 -55l-190 -1116h-139l-488 934h-8l-141 -812l231 -65l-6 -41h-471zM692 -127l17 -18l-164 -361h-39l41 379h145z" />
    <glyph glyph-name="ncommaaccent" unicode="&#x146;" horiz-adv-x="966" 
d="M774 -16l-262 36l82 498q12 86 12 174q0 47 -6 68l-35 10q-42 -25 -110 -100l-109 -670h-283l136 836h-136v45l377 80l60 -23l-31 -180q92 104 163.5 153.5t137.5 49.5q56 0 91.5 -76.5t35.5 -200.5q0 -80 -14 -160l-68 -391l16 -14l134 106l28 -45zM506 -127l16 -18
l-164 -361h-39l41 379h146z" />
    <glyph glyph-name="Ncaron" unicode="&#x147;" horiz-adv-x="1249" 
d="M-6 0l6 39l147 53l170 993l-129 68l7 41h385l415 -752h6l117 645l-211 66l6 41h453l-6 -39l-154 -55l-190 -1116h-139l-488 934h-8l-141 -812l231 -65l-6 -41h-471zM829 1282h-61l-160 256l21 27l188 -144l291 148l18 -23z" />
    <glyph glyph-name="ncaron" unicode="&#x148;" horiz-adv-x="966" 
d="M774 -16l-262 36l82 498q12 86 12 174q0 47 -6 68l-35 10q-42 -25 -110 -100l-109 -670h-283l136 836h-136v45l377 80l60 -23l-31 -180q92 104 163.5 153.5t137.5 49.5q56 0 91.5 -76.5t35.5 -200.5q0 -80 -14 -160l-68 -391l16 -14l134 106l28 -45zM637 1075h-64
l-137 287l23 18l178 -166l229 172l19 -22z" />
    <glyph glyph-name="napostrophe" unicode="&#x149;" horiz-adv-x="966" 
d="M774 -16l-262 36l82 498q12 86 12 174q0 47 -6 68l-35 10q-42 -25 -110 -100l-109 -670h-283l136 836h-136v45l377 80l60 -23l-31 -180q92 104 163.5 153.5t137.5 49.5q56 0 91.5 -76.5t35.5 -200.5q0 -80 -14 -160l-68 -391l16 -14l134 106l28 -45zM555 1473
q-47 -185 -289 -381l-20 14q54 85 91.5 191.5t41.5 193.5q27 6 67 6q73 0 109 -24z" />
    <glyph glyph-name="Eng" unicode="&#x14a;" horiz-adv-x="1249" 
d="M-6 0l6 39l147 53l170 993l-129 68l7 41h385l415 -752h6l117 645l-211 66l6 41h453l-6 -39l-154 -55l-182 -1063q-7 -80 -23 -142t-49.5 -127t-93 -121.5t-145.5 -105.5l-62 56q133 84 186.5 161t77.5 226h-38l-488 934h-8l-141 -812l231 -65l-6 -41h-471z" />
    <glyph glyph-name="eng" unicode="&#x14b;" horiz-adv-x="966" 
d="M883 524l-88 -524q-20 -120 -135.5 -238t-256.5 -200l-24 20q90 163 131 414l84 522q12 86 12 174q0 47 -6 68l-35 10q-42 -25 -110 -100l-109 -670h-283l136 836h-136v45l377 80l60 -23l-31 -180q92 104 163.5 153.5t137.5 49.5q56 0 91.5 -77t35.5 -202q0 -81 -14 -158
z" />
    <glyph glyph-name="Omacron" unicode="&#x14c;" horiz-adv-x="1114" 
d="M1186 766q-2 -120 -34.5 -235.5t-93.5 -213.5t-142 -173t-186 -117.5t-220 -42.5q-207 0 -323.5 120.5t-116.5 331.5q0 152 52 294t141 248t216.5 170t270.5 64q214 0 325 -115.5t111 -330.5zM555 66q81 0 147.5 107t103 285t36.5 388q0 131 -26.5 209t-80.5 78
q-84 0 -159 -116.5t-117.5 -295.5t-42.5 -363q0 -133 34 -212.5t105 -79.5zM1010 1376h-435l15 60h434z" />
    <glyph glyph-name="omacron" unicode="&#x14d;" horiz-adv-x="851" 
d="M416 55q64 76 103 259t42 354q0 11 1 43.5t1 52.5q0 78 -6 115q-29 14 -70 12q-61 -75 -96.5 -253t-38.5 -345q0 -11 -1 -43t-1 -51q0 -71 4 -125q24 -16 62 -19zM342 -16q-127 0 -208 89.5t-81 225.5q0 92 17.5 183t57 178t96.5 153.5t142.5 107t188.5 40.5
q136 0 220.5 -80t84.5 -240q0 -115 -32 -225.5t-93.5 -205t-163.5 -156.5t-229 -70zM772 1208h-381l15 60h380z" />
    <glyph glyph-name="Obreve" unicode="&#x14e;" horiz-adv-x="1114" 
d="M1186 766q-2 -120 -34.5 -235.5t-93.5 -213.5t-142 -173t-186 -117.5t-220 -42.5q-207 0 -323.5 120.5t-116.5 331.5q0 152 52 294t141 248t216.5 170t270.5 64q214 0 325 -115.5t111 -330.5zM555 66q81 0 147.5 107t103 285t36.5 388q0 131 -26.5 209t-80.5 78
q-84 0 -159 -116.5t-117.5 -295.5t-42.5 -363q0 -133 34 -212.5t105 -79.5zM752 1284q-72 0 -125 57t-60 146l138 20q2 -88 79 -145q67 7 132.5 49.5t91.5 95.5l34 -12q-57 -106 -124.5 -158.5t-165.5 -52.5z" />
    <glyph glyph-name="obreve" unicode="&#x14f;" horiz-adv-x="851" 
d="M416 55q64 76 103 259t42 354q0 11 1 43.5t1 52.5q0 78 -6 115q-29 14 -70 12q-61 -75 -96.5 -253t-38.5 -345q0 -11 -1 -43t-1 -51q0 -71 4 -125q24 -16 62 -19zM342 -16q-127 0 -208 89.5t-81 225.5q0 92 17.5 183t57 178t96.5 153.5t142.5 107t188.5 40.5
q136 0 220.5 -80t84.5 -240q0 -115 -32 -225.5t-93.5 -205t-163.5 -156.5t-229 -70zM561 1073q-70 0 -113 55.5t-51 147.5l138 20q3 -103 59 -145q64 7 119 52t84 102l34 -13q-62 -115 -118.5 -167t-151.5 -52z" />
    <glyph glyph-name="Ohungarumlaut" unicode="&#x150;" horiz-adv-x="1114" 
d="M1186 766q-2 -120 -34.5 -235.5t-93.5 -213.5t-142 -173t-186 -117.5t-220 -42.5q-207 0 -323.5 120.5t-116.5 331.5q0 152 52 294t141 248t216.5 170t270.5 64q214 0 325 -115.5t111 -330.5zM555 66q81 0 147.5 107t103 285t36.5 388q0 131 -26.5 209t-80.5 78
q-84 0 -159 -116.5t-117.5 -295.5t-42.5 -363q0 -133 34 -212.5t105 -79.5zM788 1630l103 -84l4 -26l-330 -238l-18 21zM1145 1552l84 -108v-27l-379 -139l-14 27z" />
    <glyph glyph-name="ohungarumlaut" unicode="&#x151;" horiz-adv-x="851" 
d="M416 55q64 76 103 259t42 354q0 11 1 43.5t1 52.5q0 78 -6 115q-29 14 -70 12q-61 -75 -96.5 -253t-38.5 -345q0 -11 -1 -43t-1 -51q0 -71 4 -125q24 -16 62 -19zM342 -16q-127 0 -208 89.5t-81 225.5q0 92 17.5 183t57 178t96.5 153.5t142.5 107t188.5 40.5
q136 0 220.5 -80t84.5 -240q0 -115 -32 -225.5t-93.5 -205t-163.5 -156.5t-229 -70zM778 1384l162 -43v-26l-289 -228l-18 15zM487 1425l154 -36v-27l-219 -266l-21 12z" />
    <glyph glyph-name="OE" unicode="&#x152;" horiz-adv-x="1476" 
d="M1368 557l-328 31l-88 -512h230l229 295l59 -9l-114 -362h-686q-72 -16 -144 -16q-214 0 -335 116.5t-121 329.5q0 172 58.5 321t155 248.5t222 156t258.5 56.5q84 0 158 -18h641l-58 -332h-61l-90 258h-221l-84 -477l340 33zM543 61q51 0 94 19l176 1038q-32 19 -76 19
q-77 0 -140 -72t-101 -186t-58 -242t-20 -252q0 -165 30 -244.5t95 -79.5z" />
    <glyph glyph-name="oe" unicode="&#x153;" horiz-adv-x="1185" 
d="M1130 377l17 -35q-54 -91 -168.5 -196.5t-235.5 -161.5l-200 36l-11 56q-84 -92 -206 -92q-135 0 -206 88.5t-71 230.5q0 93 18.5 184t60 177.5t101.5 152t149.5 105t196.5 39.5q50 0 104.5 -21t84.5 -53q94 71 221 71q119 0 248 -63v-233q-66 -60 -184 -126.5
t-240 -115.5q-4 -90 -4 -131q0 -56 4 -96l27 -11q79 20 294 195zM367 78q91 32 153 90q-4 62 -4 125q5 313 133 518q-20 22 -60.5 45.5t-88.5 34.5q-61 -86 -104 -266t-46 -332q-5 -161 17 -215zM889 850q-23 -42 -45 -146.5t-31 -209.5q57 35 101.5 69t101.5 88l2 150
q-43 27 -69 36.5t-60 12.5z" />
    <glyph glyph-name="Racute" unicode="&#x154;" horiz-adv-x="1110" 
d="M20 0l5 39l120 29l181 1052l-113 33l8 41h570q150 0 231.5 -68.5t81.5 -199.5q0 -142 -62.5 -233.5t-173.5 -131.5l166 -485l96 -37l-6 -39h-399l-143 514h-43l-78 -446l108 -27l-6 -41h-543zM553 594q68 7 115.5 52.5t68.5 112t21 148.5q0 91 -26.5 149.5t-82.5 59.5h-6
zM881 1552l84 -108v-27l-379 -139l-11 20z" />
    <glyph glyph-name="racute" unicode="&#x155;" horiz-adv-x="700" 
d="M346 0h-283l138 836h-138v45l377 80l60 -23l-29 -168q133 191 197 191q30 0 62 -15.5t54 -40.5l-120 -258l-97 113q-72 -44 -110 -78zM616 1391l162 -43v-27l-284 -244l-13 15z" />
    <glyph glyph-name="Rcommaaccent" unicode="&#x156;" horiz-adv-x="1110" 
d="M20 0l5 39l120 29l181 1052l-113 33l8 41h570q150 0 231.5 -68.5t81.5 -199.5q0 -142 -62.5 -233.5t-173.5 -131.5l166 -485l96 -37l-6 -39h-399l-143 514h-43l-78 -446l108 -27l-6 -41h-543zM553 594q68 7 115.5 52.5t68.5 112t21 148.5q0 91 -26.5 149.5t-82.5 59.5h-6
zM659 -127l17 -18l-164 -361h-39l41 379h145z" />
    <glyph glyph-name="rcommaaccent" unicode="&#x157;" horiz-adv-x="700" 
d="M346 0h-283l138 836h-138v45l377 80l60 -23l-29 -168q133 191 197 191q30 0 62 -15.5t54 -40.5l-120 -258l-97 113q-72 -44 -110 -78zM252 -127l16 -18l-164 -361h-38l40 379h146z" />
    <glyph glyph-name="Rcaron" unicode="&#x158;" horiz-adv-x="1110" 
d="M20 0l5 39l120 29l181 1052l-113 33l8 41h570q150 0 231.5 -68.5t81.5 -199.5q0 -142 -62.5 -233.5t-173.5 -131.5l166 -485l96 -37l-6 -39h-399l-143 514h-43l-78 -446l108 -27l-6 -41h-543zM553 594q68 7 115.5 52.5t68.5 112t21 148.5q0 91 -26.5 149.5t-82.5 59.5h-6
zM719 1282h-62l-159 256l20 27l189 -144l290 148l19 -23z" />
    <glyph glyph-name="rcaron" unicode="&#x159;" horiz-adv-x="700" 
d="M346 0h-283l138 836h-138v45l377 80l60 -23l-29 -168q133 191 197 191q30 0 62 -15.5t54 -40.5l-120 -258l-97 113q-72 -44 -110 -78zM557 1075h-63l-138 287l23 18l178 -166l229 172l19 -22z" />
    <glyph glyph-name="Sacute" unicode="&#x15a;" horiz-adv-x="899" 
d="M377 -16q-163 0 -330 82l57 346h66l59 -297q49 -34 86.5 -45t87.5 -11q40 0 77.5 11t71.5 33.5t54.5 64.5t20.5 98q0 44 -24 79t-62.5 60t-85 49t-93.5 51.5t-85.5 61t-62.5 85t-24 116.5q0 105 39 190.5t105 140t152 84t182 29.5q103 0 187 -22t134 -55l-55 -320h-66
l-65 291q-29 19 -57 25t-80 6q-89 0 -153 -57.5t-64 -135.5q0 -47 25 -82.5t65.5 -59t89 -45.5t97 -48t89 -59.5t65.5 -88t25 -125.5q0 -119 -42.5 -208.5t-117 -141.5t-167 -77t-201.5 -25zM856 1552l84 -108v-27l-379 -139l-10 20z" />
    <glyph glyph-name="sacute" unicode="&#x15b;" horiz-adv-x="722" 
d="M694 590h-49l-47 198q-37 17 -93.5 30t-88.5 13q-36 0 -61 -22t-25 -45q0 -21 9 -41t34.5 -46t41 -40.5t58.5 -49t57 -46.5q70 -60 110 -118.5t40 -127.5q0 -70 -63.5 -144t-153 -120.5t-164.5 -46.5q-81 0 -159.5 16t-123.5 41l54 336h47l51 -227q108 -48 217 -48
q61 0 61 68q0 29 -24 63.5t-47.5 57t-77.5 69.5q-77 69 -119.5 130t-42.5 137q0 52 32 111t84.5 108.5t127 82t151.5 32.5q99 0 222 -54zM604 1391l162 -43v-27l-285 -244l-12 15z" />
    <glyph glyph-name="Scircumflex" unicode="&#x15c;" horiz-adv-x="899" 
d="M377 -16q-163 0 -330 82l57 346h66l59 -297q49 -34 86.5 -45t87.5 -11q40 0 77.5 11t71.5 33.5t54.5 64.5t20.5 98q0 44 -24 79t-62.5 60t-85 49t-93.5 51.5t-85.5 61t-62.5 85t-24 116.5q0 105 39 190.5t105 140t152 84t182 29.5q103 0 187 -22t134 -55l-55 -320h-66
l-65 291q-29 19 -57 25t-80 6q-89 0 -153 -57.5t-64 -135.5q0 -47 25 -82.5t65.5 -59t89 -45.5t97 -48t89 -59.5t65.5 -88t25 -125.5q0 -119 -42.5 -208.5t-117 -141.5t-167 -77t-201.5 -25zM711 1528h63l160 -230l-27 -28l-198 127l-256 -137l-19 28z" />
    <glyph glyph-name="scircumflex" unicode="&#x15d;" horiz-adv-x="722" 
d="M694 590h-49l-47 198q-37 17 -93.5 30t-88.5 13q-36 0 -61 -22t-25 -45q0 -21 9 -41t34.5 -46t41 -40.5t58.5 -49t57 -46.5q70 -60 110 -118.5t40 -127.5q0 -70 -63.5 -144t-153 -120.5t-164.5 -46.5q-81 0 -159.5 16t-123.5 41l54 336h47l51 -227q108 -48 217 -48
q61 0 61 68q0 29 -24 63.5t-47.5 57t-77.5 69.5q-77 69 -119.5 130t-42.5 137q0 52 32 111t84.5 108.5t127 82t151.5 32.5q99 0 222 -54zM559 1368h64l200 -270l-22 -25l-242 152l-280 -160l-21 22z" />
    <glyph glyph-name="Scedilla" unicode="&#x15e;" horiz-adv-x="899" 
d="M358 -451q-37 0 -82.5 8t-68.5 21l39 119q85 -47 172 -47q54 0 98 20q-12 24 -36 48.5t-42.5 38t-58.5 39.5t-51 34l4 23l106 133q-10 0 -30.5 -1t-30.5 -1q-163 0 -330 82l57 346h66l59 -297q49 -34 86.5 -45t87.5 -11q40 0 77.5 11t71.5 33.5t54.5 64.5t20.5 98
q0 44 -24 79t-62.5 60t-85 49t-93.5 51.5t-85.5 61t-62.5 85t-24 116.5q0 105 39 190.5t105 140t152 84t182 29.5q103 0 187 -22t134 -55l-55 -320h-66l-65 291q-29 19 -57 25t-80 6q-89 0 -153 -57.5t-64 -135.5q0 -47 25 -82.5t65.5 -59t89 -45.5t97 -48t89 -59.5
t65.5 -88t25 -125.5q0 -196 -109.5 -305.5t-289.5 -136.5l-70 -90q72 -56 113 -103.5t41 -97.5t-71 -102t-161 -52z" />
    <glyph glyph-name="scedilla" unicode="&#x15f;" horiz-adv-x="722" 
d="M213 -451q-37 0 -83 8t-69 21l39 119q85 -47 172 -47q55 0 99 20q-12 24 -36 48.5t-43 38t-58.5 39.5t-51.5 34l4 23l105 131q-81 2 -157 17.5t-118 39.5l54 336h47l51 -227q108 -48 217 -48q61 0 61 68q0 29 -24 63.5t-47.5 57t-77.5 69.5q-77 69 -119.5 130t-42.5 137
q0 52 32 111t84.5 108.5t127 82t151.5 32.5q99 0 222 -54l-58 -317h-49l-47 198q-37 17 -93.5 30t-88.5 13q-36 0 -61 -22t-25 -45q0 -21 9 -41t34.5 -46t41 -40.5t58.5 -49t57 -46.5q70 -60 110 -118.5t40 -127.5q0 -62 -50 -127.5t-123.5 -112t-146.5 -63.5l-69 -88
q71 -55 112 -103t41 -98t-70.5 -102t-160.5 -52z" />
    <glyph glyph-name="Scaron" unicode="&#x160;" horiz-adv-x="899" 
d="M377 -16q-163 0 -330 82l57 346h66l59 -297q49 -34 86.5 -45t87.5 -11q40 0 77.5 11t71.5 33.5t54.5 64.5t20.5 98q0 44 -24 79t-62.5 60t-85 49t-93.5 51.5t-85.5 61t-62.5 85t-24 116.5q0 105 39 190.5t105 140t152 84t182 29.5q103 0 187 -22t134 -55l-55 -320h-66
l-65 291q-29 19 -57 25t-80 6q-89 0 -153 -57.5t-64 -135.5q0 -47 25 -82.5t65.5 -59t89 -45.5t97 -48t89 -59.5t65.5 -88t25 -125.5q0 -119 -42.5 -208.5t-117 -141.5t-167 -77t-201.5 -25zM705 1282h-62l-160 256l21 27l188 -144l291 148l18 -23z" />
    <glyph glyph-name="scaron" unicode="&#x161;" horiz-adv-x="722" 
d="M694 590h-49l-47 198q-37 17 -93.5 30t-88.5 13q-36 0 -61 -22t-25 -45q0 -21 9 -41t34.5 -46t41 -40.5t58.5 -49t57 -46.5q70 -60 110 -118.5t40 -127.5q0 -70 -63.5 -144t-153 -120.5t-164.5 -46.5q-81 0 -159.5 16t-123.5 41l54 336h47l51 -227q108 -48 217 -48
q61 0 61 68q0 29 -24 63.5t-47.5 57t-77.5 69.5q-77 69 -119.5 130t-42.5 137q0 52 32 111t84.5 108.5t127 82t151.5 32.5q99 0 222 -54zM561 1075h-63l-138 287l23 18l178 -166l230 172l18 -22z" />
    <glyph glyph-name="Tcommaaccent" unicode="&#x162;" horiz-adv-x="954" 
d="M172 0l8 43l123 23l176 1050h-131l-198 -315h-58l70 393h977l-68 -393h-57l-90 315h-129l-177 -1048l107 -23l-6 -45h-547zM512 -127l16 -18l-163 -361h-39l41 379h145z" />
    <glyph glyph-name="tcommaaccent" unicode="&#x163;" horiz-adv-x="671" 
d="M49 809l12 53l168 39l154 295h160l-47 -287h202l-18 -100h-201l-102 -631l16 -14q155 93 230 147l22 -32q-55 -69 -163 -167.5t-191 -127.5l-213 49l123 776h-152zM322 -127l16 -18l-164 -361h-39l41 379h146z" />
    <glyph glyph-name="Tcaron" unicode="&#x164;" horiz-adv-x="954" 
d="M172 0l8 43l123 23l176 1050h-131l-198 -315h-58l70 393h977l-68 -393h-57l-90 315h-129l-177 -1048l107 -23l-6 -45h-547zM688 1282h-61l-160 256l20 27l189 -144l291 148l18 -23z" />
    <glyph glyph-name="tcaron" unicode="&#x165;" horiz-adv-x="671" 
d="M49 809l12 53l168 39l154 295h160l-47 -287h202l-18 -100h-201l-102 -631l16 -14q155 93 230 147l22 -32q-55 -69 -163 -167.5t-191 -127.5l-213 49l123 776h-152zM694 1083h-45l64 357h161l-153 -334z" />
    <glyph glyph-name="Tbar" unicode="&#x166;" horiz-adv-x="954" 
d="M172 0l8 43l123 23l86 520h-147l12 57h145l80 473h-131l-198 -315h-58l70 393h977l-68 -393h-57l-90 315h-129l-80 -473h137l-12 -57h-135l-87 -518l107 -23l-6 -45h-547z" />
    <glyph glyph-name="tbar" unicode="&#x167;" horiz-adv-x="671" 
d="M49 809l12 53l168 39l154 295h160l-47 -287h202l-18 -100h-201l-37 -229h170l-14 -62h-166l-55 -340l16 -14q155 93 230 147l22 -32q-55 -69 -163 -167.5t-191 -127.5l-213 49l78 485h-113l14 62h109l35 229h-152z" />
    <glyph glyph-name="Utilde" unicode="&#x168;" horiz-adv-x="1132" 
d="M522 -16q-210 0 -305.5 80.5t-95.5 232.5q0 44 10 106l123 725l-104 21l8 45h534l-6 -43l-96 -23l-117 -706q-10 -54 -10 -121q0 -108 41.5 -169.5t126.5 -61.5q113 0 204 102t123 293l105 629l-160 55l6 45h402l-6 -43l-142 -47l-108 -645q-79 -475 -533 -475z
M1063 1489l29 -25l-142 -161l-43 -3l-307 54l-53 -43l-25 22l140 150l49 4l297 -53z" />
    <glyph glyph-name="utilde" unicode="&#x169;" horiz-adv-x="974" 
d="M795 -16l-273 36l29 175q-97 -118 -172.5 -164.5t-153.5 -46.5q-54 0 -85 65t-31 180q0 69 16 170l70 437h-150v45l391 80l58 -23l-78 -512q-15 -84 -15 -180q0 -27 5 -62l32 -10q28 16 41 24t35.5 28.5t50.5 54.5l90 555h-94v45l332 80l59 -23l-129 -817l17 -15l133 121
l31 -47zM903 1300l31 -26l-137 -158l-43 -2l-260 86l-86 -76l-35 25l170 164l47 4l248 -84z" />
    <glyph glyph-name="Umacron" unicode="&#x16a;" horiz-adv-x="1132" 
d="M522 -16q-210 0 -305.5 80.5t-95.5 232.5q0 44 10 106l123 725l-104 21l8 45h534l-6 -43l-96 -23l-117 -706q-10 -54 -10 -121q0 -108 41.5 -169.5t126.5 -61.5q113 0 204 102t123 293l105 629l-160 55l6 45h402l-6 -43l-142 -47l-108 -645q-79 -475 -533 -475z
M1040 1376h-434l15 60h434z" />
    <glyph glyph-name="umacron" unicode="&#x16b;" horiz-adv-x="974" 
d="M795 -16l-273 36l29 175q-97 -118 -172.5 -164.5t-153.5 -46.5q-54 0 -85 65t-31 180q0 69 16 170l70 437h-150v45l391 80l58 -23l-78 -512q-15 -84 -15 -180q0 -27 5 -62l32 -10q28 16 41 24t35.5 28.5t50.5 54.5l90 555h-94v45l332 80l59 -23l-129 -817l17 -15l133 121
l31 -47zM854 1208h-381l14 60h381z" />
    <glyph glyph-name="Ubreve" unicode="&#x16c;" horiz-adv-x="1132" 
d="M522 -16q-210 0 -305.5 80.5t-95.5 232.5q0 44 10 106l123 725l-104 21l8 45h534l-6 -43l-96 -23l-117 -706q-10 -54 -10 -121q0 -108 41.5 -169.5t126.5 -61.5q113 0 204 102t123 293l105 629l-160 55l6 45h402l-6 -43l-142 -47l-108 -645q-79 -475 -533 -475zM782 1286
q-72 0 -124.5 57t-59.5 146l137 20q2 -87 80 -145q67 7 132 49.5t91 95.5l35 -12q-57 -106 -125 -158.5t-166 -52.5z" />
    <glyph glyph-name="ubreve" unicode="&#x16d;" horiz-adv-x="974" 
d="M795 -16l-273 36l29 175q-97 -118 -172.5 -164.5t-153.5 -46.5q-54 0 -85 65t-31 180q0 69 16 170l70 437h-150v45l391 80l58 -23l-78 -512q-15 -84 -15 -180q0 -27 5 -62l32 -10q28 16 41 24t35.5 28.5t50.5 54.5l90 555h-94v45l332 80l59 -23l-129 -817l17 -15l133 121
l31 -47zM616 1073q-70 0 -112.5 55.5t-50.5 147.5l137 20q3 -103 59 -145q64 7 119 52t84 102l35 -13q-31 -56 -54.5 -91t-56 -67t-71.5 -46.5t-89 -14.5z" />
    <glyph glyph-name="Uring" unicode="&#x16e;" horiz-adv-x="1132" 
d="M522 -16q-210 0 -305.5 80.5t-95.5 232.5q0 44 10 106l123 725l-104 21l8 45h534l-6 -43l-96 -23l-117 -706q-10 -54 -10 -121q0 -108 41.5 -169.5t126.5 -61.5q113 0 204 102t123 293l105 629l-160 55l6 45h402l-6 -43l-142 -47l-108 -645q-79 -475 -533 -475zM813 1307
q57 0 97 39.5t40 91.5q0 53 -30 79.5t-80 26.5q-56 0 -93.5 -39t-37.5 -94t30.5 -79.5t73.5 -24.5zM809 1270q-57 0 -101 36t-44 105q0 68 55 119t125 51q65 0 108 -38.5t43 -104.5q0 -64 -56 -116t-130 -52z" />
    <glyph glyph-name="uring" unicode="&#x16f;" horiz-adv-x="974" 
d="M795 -16l-273 36l29 175q-97 -118 -172.5 -164.5t-153.5 -46.5q-54 0 -85 65t-31 180q0 69 16 170l70 437h-150v45l391 80l58 -23l-78 -512q-15 -84 -15 -180q0 -27 5 -62l32 -10q28 16 41 24t35.5 28.5t50.5 54.5l90 555h-94v45l332 80l59 -23l-129 -817l17 -15l133 121
l31 -47zM645 1077q-56 0 -100.5 36.5t-44.5 105.5q0 68 55 119t125 51q65 0 108 -39t43 -105q0 -64 -56 -116t-130 -52zM649 1114q57 0 97 39.5t40 91.5q0 53 -30 80t-80 27q-56 0 -93.5 -39t-37.5 -94t30.5 -80t73.5 -25z" />
    <glyph glyph-name="Uhungarumlaut" unicode="&#x170;" horiz-adv-x="1132" 
d="M522 -16q-210 0 -305.5 80.5t-95.5 232.5q0 44 10 106l123 725l-104 21l8 45h534l-6 -43l-96 -23l-117 -706q-10 -54 -10 -121q0 -108 41.5 -169.5t126.5 -61.5q113 0 204 102t123 293l105 629l-160 55l6 45h402l-6 -43l-142 -47l-108 -645q-79 -475 -533 -475zM795 1630
l102 -84l4 -26l-330 -238l-18 21zM1151 1552l84 -108v-27l-379 -139l-14 27z" />
    <glyph glyph-name="uhungarumlaut" unicode="&#x171;" horiz-adv-x="974" 
d="M795 -16l-273 36l29 175q-97 -118 -172.5 -164.5t-153.5 -46.5q-54 0 -85 65t-31 180q0 69 16 170l70 437h-150v45l391 80l58 -23l-78 -512q-15 -84 -15 -180q0 -27 5 -62l32 -10q28 16 41 24t35.5 28.5t50.5 54.5l90 555h-94v45l332 80l59 -23l-129 -817l17 -15l133 121
l31 -47zM852 1384l162 -43v-26l-289 -228l-18 15zM561 1425l154 -36v-27l-219 -266l-21 12z" />
    <glyph glyph-name="Uogonek" unicode="&#x172;" horiz-adv-x="1132" 
d="M522 -16q-210 0 -305.5 80.5t-95.5 232.5q0 44 10 106l123 725l-104 21l8 45h534l-6 -43l-96 -23l-117 -706q-10 -54 -10 -121q0 -108 41.5 -169.5t126.5 -61.5q113 0 204 102t123 293l105 629l-160 55l6 45h402l-6 -43l-142 -47l-108 -645q-60 -354 -320 -443
q-145 -174 -162 -278l21 -12q26 -5 83.5 5.5t101.5 24.5l44 13l19 -105q-57 -34 -152.5 -61.5t-191.5 -30.5l-41 39q27 161 200 385q-65 -12 -135 -12z" />
    <glyph glyph-name="uogonek" unicode="&#x173;" horiz-adv-x="974" 
d="M225 -16q-54 0 -85 65t-31 180q0 69 16 170l70 437h-150v45l391 80l58 -23l-78 -512q-15 -84 -15 -180q0 -27 5 -62l32 -10q28 16 41 24t35.5 28.5t50.5 54.5l90 555h-94v45l332 80l59 -23l-129 -817l17 -15l133 121l31 -47l-66 -61q-228 -245 -252 -381l21 -12
q26 -5 83.5 5.5t101.5 24.5l44 13l18 -105q-57 -34 -152.5 -61.5t-191.5 -30.5l-41 39q27 158 195 377l-242 32l29 175q-97 -118 -172.5 -164.5t-153.5 -46.5z" />
    <glyph glyph-name="Wcircumflex" unicode="&#x174;" horiz-adv-x="1480" 
d="M260 0l-86 1135l-84 18l4 41h524l-4 -39l-125 -25l39 -761h13l336 825h202l103 -815h12l295 719l-152 55l4 41h379l-6 -39l-119 -51l-477 -1104h-203l-90 840h-10l-340 -840h-215zM1022 1528h63l160 -230l-26 -28l-199 127l-256 -137l-19 28z" />
    <glyph glyph-name="wcircumflex" unicode="&#x175;" horiz-adv-x="1327" 
d="M709 0q-43 145 -64 391l-137 -391h-297q-38 122 -69 389t-25 447h-99v47l361 78l63 -13q-12 -123 -12 -266q0 -290 43 -530h19l141 409q-6 126 -6 242q0 22 1 63.5t1 59.5l329 35q-22 -167 -22 -367q0 -256 35 -442h20l148 436l6 352h233l-2 -59l-389 -881h-278z
M829 1368h64l201 -270l-23 -25l-242 152l-280 -160l-21 22z" />
    <glyph glyph-name="Ycircumflex" unicode="&#x176;" horiz-adv-x="966" 
d="M170 0l4 39l137 29l68 393l-217 676l-70 16l6 41h518l-4 -39l-120 -22l153 -525h2l285 504l-166 41l6 41h395l-6 -39l-125 -29l-327 -581l-82 -477l121 -27l-5 -41h-573zM727 1528h64l159 -230l-26 -28l-199 127l-256 -137l-18 28z" />
    <glyph glyph-name="ycircumflex" unicode="&#x177;" horiz-adv-x="831" 
d="M879 940l-2 -59l-336 -785l-183 -520h-241l-2 23l293 401h-189q-38 128 -73.5 392.5t-32.5 443.5h-99v47l363 78l61 -13q-14 -95 -14 -217q0 -245 55 -579h21l139 436l6 352h234zM563 1368h64l200 -270l-22 -25l-242 152l-280 -160l-21 22z" />
    <glyph glyph-name="Ydieresis" unicode="&#x178;" horiz-adv-x="966" 
d="M170 0l4 39l137 29l68 393l-217 676l-70 16l6 41h518l-4 -39l-120 -22l153 -525h2l285 504l-166 41l6 41h395l-6 -39l-125 -29l-327 -581l-82 -477l121 -27l-5 -41h-573zM547 1280l-137 49q62 105 82 205l159 -23q-55 -159 -104 -231zM891 1280l-137 49q60 98 82 205
l159 -23q-50 -155 -104 -231z" />
    <glyph glyph-name="Zacute" unicode="&#x179;" horiz-adv-x="944" 
d="M8 0v84l725 1036h-311l-191 -317h-55l68 391h821l4 -70l-745 -1048h374l205 301l62 -10l-99 -367h-858zM840 1552l84 -108v-27l-379 -139l-10 20z" />
    <glyph glyph-name="zacute" unicode="&#x17a;" horiz-adv-x="720" 
d="M59 -16l-53 16l-10 47l506 647l-8 8q-62 -20 -166 -20q-84 0 -164 18l-60 -114l-47 6l52 344l57 25q203 -21 340 -21q146 0 211 18l51 -73l-477 -613l6 -26h326l59 139l55 -4l-67 -371l-58 -26l-497 65zM526 1391l162 -43v-27l-285 -244l-12 15z" />
    <glyph glyph-name="Zdotaccent" unicode="&#x17b;" horiz-adv-x="944" 
d="M8 0v84l725 1036h-311l-191 -317h-55l68 391h821l4 -70l-745 -1048h374l205 301l62 -10l-99 -367h-858zM748 1272l-160 41q25 45 47 107t29 98l178 -19q-36 -150 -94 -227z" />
    <glyph glyph-name="zdotaccent" unicode="&#x17c;" horiz-adv-x="720" 
d="M59 -16l-53 16l-10 47l506 647l-8 8q-62 -20 -166 -20q-84 0 -164 18l-60 -114l-47 6l52 344l57 25q203 -21 340 -21q146 0 211 18l51 -73l-477 -613l6 -26h326l59 139l55 -4l-67 -371l-58 -26l-497 65zM506 1149l-139 41q59 111 73 184l158 -18q-42 -138 -92 -207z" />
    <glyph glyph-name="Zcaron" unicode="&#x17d;" horiz-adv-x="944" 
d="M8 0v84l725 1036h-311l-191 -317h-55l68 391h821l4 -70l-745 -1048h374l205 301l62 -10l-99 -367h-858zM709 1282h-62l-160 256l21 27l188 -144l291 148l19 -23z" />
    <glyph glyph-name="zcaron" unicode="&#x17e;" horiz-adv-x="720" 
d="M59 -16l-53 16l-10 47l506 647l-8 8q-62 -20 -166 -20q-84 0 -164 18l-60 -114l-47 6l52 344l57 25q203 -21 340 -21q146 0 211 18l51 -73l-477 -613l6 -26h326l59 139l55 -4l-67 -371l-58 -26l-497 65zM502 1075h-64l-137 287l23 18l178 -166l229 172l19 -22z" />
    <glyph glyph-name="uni018F" unicode="&#x18f;" horiz-adv-x="1077" 
d="M70 391q0 78 14 164l2 16l6 37h705q6 64 6 137q0 185 -48.5 265t-156.5 80q-150 0 -344 -78l-21 51q239 149 463 149q211 0 333 -127t122 -333q0 -218 -86.5 -392.5t-245.5 -275t-362 -100.5q-175 0 -281 107t-106 300zM522 61q98 0 172.5 131.5t98.5 354.5h-355
q-26 -171 -26 -252q0 -118 23 -176t87 -58z" />
    <glyph glyph-name="florin" unicode="&#x192;" horiz-adv-x="671" 
d="M4 553l10 82h160l49 285q25 146 131.5 227.5t245.5 81.5q88 0 170 -33l-55 -197l-158 129q-37 -47 -61 -192l-52 -301h240l-10 -82h-242l-86 -516q-17 -101 -82.5 -190t-147 -138t-151.5 -49q-81 0 -145 31l33 149q8 -5 22.5 -14.5t19.5 -13t16 -10t16.5 -9t15 -7.5
t18 -7.5t19.5 -5.5t24 -6q24 26 67 245q5 23 7 35l84 506h-158z" />
    <glyph glyph-name="Ohorn" unicode="&#x1a0;" horiz-adv-x="1114" 
d="M1186 766q-2 -120 -34.5 -235.5t-93.5 -213.5t-142 -173t-186 -117.5t-220 -42.5q-207 0 -323.5 120.5t-116.5 331.5q0 152 52 294t141 248t216.5 170t270.5 64q201 0 313 -106q49 30 49 90q0 43 -35 133l189 35q6 -30 6 -68q0 -94 -38 -144t-134 -87q86 -116 86 -299z
M555 66q81 0 147.5 107t103 285t36.5 388q0 131 -26.5 209t-80.5 78q-84 0 -159 -116.5t-117.5 -295.5t-42.5 -363q0 -133 34 -212.5t105 -79.5z" />
    <glyph glyph-name="ohorn" unicode="&#x1a1;" horiz-adv-x="851" 
d="M342 -16q-127 0 -208 89.5t-81 225.5q0 92 17.5 183t57 178t96.5 153.5t142.5 107t188.5 40.5q139 0 221 -82q64 33 64 92q0 46 -49 139l174 35q6 -30 6 -68q0 -97 -35.5 -145.5t-132.5 -85.5q57 -75 57 -205q0 -115 -32 -225.5t-93.5 -205t-163.5 -156.5t-229 -70z
M416 55q64 76 103 259t42 354q0 11 1 43.5t1 52.5q0 78 -6 115q-29 14 -70 12q-61 -75 -96.5 -253t-38.5 -345q0 -11 -1 -43t-1 -51q0 -71 4 -125q24 -16 62 -19z" />
    <glyph glyph-name="Uhorn" unicode="&#x1af;" horiz-adv-x="1132" 
d="M1161 1100l-106 -641q-79 -475 -533 -475q-210 0 -305.5 80.5t-95.5 232.5q0 44 10 106l123 725l-104 21l8 45h534l-6 -43l-96 -23l-117 -706q-10 -54 -10 -121q0 -108 41.5 -169.5t126.5 -61.5q113 0 204 102t123 293l105 629l-201 55l8 45h373q19 22 19 49
q0 63 -74 156l166 26q10 -55 10 -88q0 -88 -50 -144.5t-153 -92.5z" />
    <glyph glyph-name="uhorn" unicode="&#x1b0;" horiz-adv-x="974" 
d="M944 883l-121 -762l17 -15l133 121l31 -47l-209 -196l-273 36l29 175q-97 -118 -172.5 -164.5t-153.5 -46.5q-54 0 -85 65t-31 180q0 69 16 170l70 437h-150v45l391 80l58 -23l-78 -512q-15 -84 -15 -180q0 -27 5 -62l32 -10q28 16 41 24t35.5 28.5t50.5 54.5l90 555
h-110v45l358 80q30 6 47.5 14t25 21t9.5 23.5t2 29.5q0 49 -47 102l135 33q6 -43 6 -82q0 -83 -31.5 -129.5t-105.5 -89.5z" />
    <glyph glyph-name="uni01C4" unicode="&#x1c4;" horiz-adv-x="2131" 
d="M1196 0v84l725 1036h-311l-191 -317h-55l68 391h821l4 -70l-746 -1048h375l205 301l61 -10l-98 -367h-858zM1896 1282h-61l-160 256l21 27l188 -144l291 148l18 -23zM20 0l3 43l124 25l183 1060l-117 21l8 45h547q494 0 494 -412q0 -167 -55.5 -313t-151 -248.5
t-226.5 -161.5t-278 -59h-531zM684 1118h-41l-180 -1036h31q184 0 300.5 180.5t116.5 509.5q0 63 -6 112.5t-21 94.5t-40.5 74.5t-65.5 47t-94 17.5z" />
    <glyph glyph-name="uni01C5" unicode="&#x1c5;" horiz-adv-x="1949" 
d="M1288 -16l-53 16l-10 47l506 647l-9 8q-62 -20 -166 -20q-84 0 -163 18l-60 -114l-47 6l51 344l58 25q203 -21 340 -21q147 0 211 18l51 -73l-477 -613l6 -26h325l60 139l55 -4l-68 -371l-57 -26l-498 65zM1690 1075h-64l-137 287l22 18l179 -166l229 172l18 -22zM20 0
l3 43l124 25l183 1060l-117 21l8 45h547q494 0 494 -412q0 -167 -55.5 -313t-151 -248.5t-226.5 -161.5t-278 -59h-531zM684 1118h-41l-180 -1036h31q184 0 300.5 180.5t116.5 509.5q0 63 -6 112.5t-21 94.5t-40.5 74.5t-65.5 47t-94 17.5z" />
    <glyph glyph-name="uni01C6" unicode="&#x1c6;" horiz-adv-x="1591" 
d="M434 20l39 232l-231 -252h-170q-25 92 -25 213q0 354 129 565q125 180 313 180q39 0 101 -8l59 350h-147v46l393 94l55 -37l-213 -1249l17 -15l120 84l27 -43l-235 -196zM930 -16l-53 16l-11 47l506 647l-8 8q-62 -20 -166 -20q-84 0 -164 18l-59 -114l-47 6l51 344
l57 25q202 -21 340 -21q146 0 211 18l51 -73l-477 -613l6 -26h326l59 139l56 -4l-68 -371l-57 -26l-498 65zM328 238l26 -11l133 111l74 438q-55 47 -143 74q-92 -221 -92 -514q0 -69 2 -98zM1372 1075h-63l-138 287l23 18l178 -166l230 172l18 -22z" />
    <glyph glyph-name="uni01C7" unicode="&#x1c7;" horiz-adv-x="1726" 
d="M20 0l5 43l125 25l178 1060l-115 21l8 45h547l-8 -43l-115 -23l-180 -1048h219l260 315l49 -12l-119 -383h-854zM1249 -16q-182 0 -295 55l62 375h61l49 -336q40 -12 68 -12q21 0 36.5 5.5t27.5 21t19 27.5t15 42t11.5 45.5t11.5 56.5l145 862l-123 23l11 45h565l-6 -43
l-131 -25l-136 -794q-26 -154 -139.5 -251t-251.5 -97z" />
    <glyph glyph-name="uni01C8" unicode="&#x1c8;" horiz-adv-x="1499" 
d="M20 0l5 43l125 25l178 1060l-115 21l8 45h547l-8 -43l-115 -23l-180 -1048h219l260 315l49 -12l-119 -383h-854zM930 -438l-25 20q90 163 131 414l138 840h-136v45l377 80l60 -23l-154 -938q-20 -120 -135.5 -238t-255.5 -200zM1446 1079l-189 66q27 50 59 132t36 112
l207 -43q-21 -68 -53 -147.5t-60 -119.5z" />
    <glyph glyph-name="uni01C9" unicode="&#x1c9;" horiz-adv-x="1015" 
d="M33 20l209 1280h-136v46l377 94l56 -37l-211 -1282l16 -15l133 119l29 -45l-219 -196zM446 -438l-24 20q90 163 131 414l137 840h-135v45l377 80l59 -23l-153 -938q-20 -120 -135.5 -238t-256.5 -200zM963 1079l-189 66q26 50 58 131.5t36 112.5l207 -43
q-57 -187 -112 -267z" />
    <glyph glyph-name="uni01CA" unicode="&#x1ca;" horiz-adv-x="1951" 
d="M-6 0l6 39l147 53l170 993l-129 68l7 41h385l415 -752h6l117 645l-211 66l6 41h453l-6 -39l-154 -55l-190 -1116h-139l-488 934h-8l-141 -812l231 -65l-6 -41h-471zM1475 -16q-182 0 -295 55l61 375h62l49 -336q40 -12 67 -12q21 0 36.5 5.5t27.5 21t19 27.5t15 42
t11.5 45.5t11.5 56.5l146 862l-123 23l10 45h565l-6 -43l-131 -25l-135 -794q-26 -154 -139.5 -251t-251.5 -97z" />
    <glyph glyph-name="uni01CB" unicode="&#x1cb;" horiz-adv-x="1785" 
d="M-6 0l6 39l147 53l170 993l-129 68l7 41h385l415 -752h6l117 645l-211 66l6 41h453l-6 -39l-154 -55l-190 -1116h-139l-488 934h-8l-141 -812l231 -65l-6 -41h-471zM1217 -438l-25 20q90 163 131 414l137 840h-135v45l377 80l59 -23l-153 -938q-20 -120 -135.5 -238
t-255.5 -200zM1733 1079l-189 66q26 50 58 131.5t36 112.5l207 -43q-57 -187 -112 -267z" />
    <glyph glyph-name="uni01CC" unicode="&#x1cc;" horiz-adv-x="1503" 
d="M774 -16l-262 36l82 498q12 86 12 174q0 47 -6 68l-35 10q-42 -25 -110 -100l-109 -670h-283l136 836h-136v45l377 80l60 -23l-31 -180q92 104 163.5 153.5t137.5 49.5q56 0 91.5 -76.5t35.5 -200.5q0 -80 -14 -160l-68 -391l16 -14l134 106l28 -45zM934 -438l-25 20
q90 163 131 414l138 840h-136v45l377 80l60 -23l-154 -938q-20 -120 -135.5 -238t-255.5 -200zM1450 1079l-188 66q26 50 58 131.5t36 112.5l207 -43q-21 -68 -53 -147.5t-60 -119.5z" />
    <glyph glyph-name="uni01CD" unicode="&#x1cd;" horiz-adv-x="1073" 
d="M-74 0l8 39l121 49l705 1106h133l119 -1139l59 -14l-8 -41h-502l4 39l119 22l-22 295h-338l-170 -262l176 -53l-8 -41h-396zM365 422h290l-28 403h-11zM870 1282h-61l-160 256l21 27l188 -144l291 148l18 -23z" />
    <glyph glyph-name="uni01CE" unicode="&#x1ce;" horiz-adv-x="870" 
d="M432 20l39 230l-229 -250h-170q-25 92 -25 213q0 354 129 565q125 180 313 180q73 0 126.5 -14t117.5 -45l113 62h26l-137 -832l15 -14l122 108l27 -43l-207 -196zM328 238l26 -11l131 109l74 440q-56 48 -141 74q-92 -221 -92 -514q0 -69 2 -98zM606 1083h-63l-137 287
l22 19l178 -166l230 172l18 -23z" />
    <glyph glyph-name="uni01CF" unicode="&#x1cf;" horiz-adv-x="673" 
d="M35 0l4 43l123 23l180 1062l-115 21l9 45h544l-6 -43l-115 -23l-182 -1060l107 -23l-4 -45h-545zM561 1282h-61l-160 256l20 27l189 -144l291 148l18 -23z" />
    <glyph glyph-name="uni01D0" unicode="&#x1d0;" horiz-adv-x="542" 
d="M328 -16l-262 36l135 816h-138v45l377 80l60 -23l-131 -803l16 -14l133 104l29 -45zM387 1075h-63l-138 287l23 18l178 -166l229 172l19 -22z" />
    <glyph glyph-name="uni01D1" unicode="&#x1d1;" horiz-adv-x="1114" 
d="M1186 766q-2 -120 -34.5 -235.5t-93.5 -213.5t-142 -173t-186 -117.5t-220 -42.5q-207 0 -323.5 120.5t-116.5 331.5q0 152 52 294t141 248t216.5 170t270.5 64q214 0 325 -115.5t111 -330.5zM555 66q81 0 147.5 107t103 285t36.5 388q0 131 -26.5 209t-80.5 78
q-84 0 -159 -116.5t-117.5 -295.5t-42.5 -363q0 -133 34 -212.5t105 -79.5zM801 1282h-62l-159 256l20 27l188 -144l291 148l19 -23z" />
    <glyph glyph-name="uni01D2" unicode="&#x1d2;" horiz-adv-x="851" 
d="M416 55q64 76 103 259t42 354q0 11 1 43.5t1 52.5q0 78 -6 115q-29 14 -70 12q-61 -75 -96.5 -253t-38.5 -345q0 -11 -1 -43t-1 -51q0 -71 4 -125q24 -16 62 -19zM342 -16q-127 0 -208 89.5t-81 225.5q0 92 17.5 183t57 178t96.5 153.5t142.5 107t188.5 40.5
q136 0 220.5 -80t84.5 -240q0 -115 -32 -225.5t-93.5 -205t-163.5 -156.5t-229 -70zM602 1075h-63l-138 287l23 18l178 -166l229 172l19 -22z" />
    <glyph glyph-name="uni01D3" unicode="&#x1d3;" horiz-adv-x="1132" 
d="M522 -16q-210 0 -305.5 80.5t-95.5 232.5q0 44 10 106l123 725l-104 21l8 45h534l-6 -43l-96 -23l-117 -706q-10 -54 -10 -121q0 -108 41.5 -169.5t126.5 -61.5q113 0 204 102t123 293l105 629l-160 55l6 45h402l-6 -43l-142 -47l-108 -645q-79 -475 -533 -475zM834 1284
h-62l-160 256l21 27l188 -144l291 148l18 -23z" />
    <glyph glyph-name="uni01D4" unicode="&#x1d4;" horiz-adv-x="974" 
d="M795 -16l-273 36l29 175q-97 -118 -172.5 -164.5t-153.5 -46.5q-54 0 -85 65t-31 180q0 69 16 170l70 437h-150v45l391 80l58 -23l-78 -512q-15 -84 -15 -180q0 -27 5 -62l32 -10q28 16 41 24t35.5 28.5t50.5 54.5l90 555h-94v45l332 80l59 -23l-129 -817l17 -15l133 121
l31 -47zM627 1075h-64l-137 287l23 18l178 -166l229 172l18 -22z" />
    <glyph glyph-name="AEmacron" unicode="&#x1e2;" horiz-adv-x="1482" 
d="M496 0l4 39l141 29l72 419h-291l-248 -395l156 -51l-8 -41h-398l6 39l138 55l714 1100h787l-58 -332h-61l-88 258h-225l-82 -475l340 31l-23 -119l-328 29l-86 -510h230l229 295l60 -9l-115 -362h-866zM801 1085l-334 -526h258l90 526h-14zM1509 1372h-434l15 60h434z
" />
    <glyph glyph-name="aemacron" unicode="&#x1e3;" horiz-adv-x="1138" 
d="M676 -16l-172 36q-6 23 -9.5 57.5t-5 83t-2.5 62.5l-217 -223h-198q-25 92 -25 213q0 354 129 565q54 79 144.5 129.5t197.5 50.5q99 0 213 -47q40 22 100 36t113 14q114 0 246 -66v-233q-52 -35 -424 -250v-113q0 -86 2 -106l27 -11q80 20 295 195l18 -35
q-51 -85 -178.5 -192t-253.5 -166zM354 203l133 110q5 111 33.5 249t63.5 212q-86 65 -166 76q-34 -65 -62.5 -216.5t-29.5 -297.5q0 -94 2 -123zM772 498q122 84 203 161l2 146q-29 18 -53 28t-36.5 12t-39.5 5q-39 -72 -76 -352zM997 1208h-381l15 60h381z" />
    <glyph glyph-name="uni01E6" unicode="&#x1e6;" horiz-adv-x="1067" 
d="M582 -16q-105 0 -196.5 30t-162.5 88t-112 150t-41 207q0 135 40 255t110.5 210t165 155.5t206.5 99t231 33.5q87 0 174.5 -21.5t135.5 -45.5l-54 -316h-63l-80 293q-59 15 -123 15q-96 0 -173 -63.5t-122.5 -164t-69.5 -212.5t-24 -220q0 -416 203 -416q1 0 59 5l68 448
l-119 33l8 43h416l-90 -520q-54 -34 -170.5 -60t-216.5 -26zM836 1282h-62l-160 256l21 27l188 -144l291 148l19 -23z" />
    <glyph glyph-name="uni01E7" unicode="&#x1e7;" horiz-adv-x="817" 
d="M266 -436q-222 0 -325 61l47 191q183 -95 311 -95q28 0 72 7q33 36 94 460q1 9 10 66l-233 -254h-170q-25 92 -25 213q0 354 129 565q125 180 313 180q125 0 238 -55l107 58h26l-155 -988q-25 -162 -154 -285.5t-285 -123.5zM487 338l62 446q-51 43 -131 66
q-92 -221 -92 -514q0 -69 2 -98l26 -11zM586 1075h-64l-137 287l23 18l178 -166l229 172l19 -22z" />
    <glyph glyph-name="uni01E8" unicode="&#x1e8;" horiz-adv-x="1128" 
d="M20 0l7 43l123 23l180 1062l-115 21l8 45h545l-6 -43l-115 -23l-182 -1060l106 -23l-4 -45h-547zM764 0l-193 520l9 49l426 535l-134 51l7 39h436l-10 -47l-183 -41l-317 -369l285 -649l84 -51l-5 -37h-405zM854 1282h-61l-160 256l20 27l189 -144l291 148l18 -23z" />
    <glyph glyph-name="uni01E9" unicode="&#x1e9;" horiz-adv-x="897" 
d="M31 0l221 1300h-135v46l379 94l55 -37l-100 -602q115 121 188 157l238 -49q10 -62 10 -102q0 -208 -199 -297l100 -352l21 -6l106 71l23 -41l-236 -198l-184 34l-76 365l9 29q57 54 113.5 164.5t56.5 195.5q0 9 -5 39l-22 10q-59 -26 -162 -129l-117 -692h-284zM782 1282
h-61l-160 256l21 27l188 -144l291 148l18 -23z" />
    <glyph glyph-name="uni01EA" unicode="&#x1ea;" horiz-adv-x="1114" 
d="M1186 766q-3 -171 -66 -327.5t-179 -271.5t-263 -159q-110 -70 -167 -129t-71 -141l21 -12q26 -5 83.5 5.5t101.5 24.5l44 13l19 -105q-57 -34 -152.5 -61.5t-191.5 -30.5l-41 39q20 117 94.5 216t173.5 163q-40 -6 -82 -6q-207 0 -323.5 120.5t-116.5 331.5
q0 152 52 294t141 248t216.5 170t270.5 64q214 0 325 -115.5t111 -330.5zM555 66q81 0 147.5 107t103 285t36.5 388q0 131 -26.5 209t-80.5 78q-84 0 -159 -116.5t-117.5 -295.5t-42.5 -363q0 -133 34 -212.5t105 -79.5z" />
    <glyph glyph-name="uni01EB" unicode="&#x1eb;" horiz-adv-x="851" 
d="M573 -231l19 -105q-55 -34 -145.5 -61.5t-182.5 -30.5l-39 39q26 157 189 383q-23 -6 -72 -10q-127 0 -208 89.5t-81 225.5q0 92 17.5 183t57 178t96.5 153.5t142.5 107t188.5 40.5q136 0 220.5 -80t84.5 -240q0 -132 -39 -255t-125.5 -225.5t-208.5 -146.5
q-133 -168 -151 -276l20 -12q24 -5 78.5 5.5t96.5 24.5zM416 55q64 76 103 259t42 354q0 11 1 43.5t1 52.5q0 78 -6 115q-29 14 -70 12q-61 -75 -96.5 -253t-38.5 -345q0 -11 -1 -43t-1 -51q0 -71 4 -125q24 -16 62 -19z" />
    <glyph glyph-name="uni01EC" unicode="&#x1ec;" horiz-adv-x="1114" 
d="M1186 766q-3 -171 -66 -327.5t-179 -271.5t-263 -159q-110 -70 -167 -129t-71 -141l21 -12q26 -5 83.5 5.5t101.5 24.5l44 13l19 -105q-57 -34 -152.5 -61.5t-191.5 -30.5l-41 39q20 117 94.5 216t173.5 163q-40 -6 -82 -6q-207 0 -323.5 120.5t-116.5 331.5
q0 152 52 294t141 248t216.5 170t270.5 64q214 0 325 -115.5t111 -330.5zM555 66q81 0 147.5 107t103 285t36.5 388q0 131 -26.5 209t-80.5 78q-84 0 -159 -116.5t-117.5 -295.5t-42.5 -363q0 -133 34 -212.5t105 -79.5zM1012 1374h-434l14 60h434z" />
    <glyph glyph-name="uni01ED" unicode="&#x1ed;" horiz-adv-x="851" 
d="M573 -231l19 -105q-55 -34 -145.5 -61.5t-182.5 -30.5l-39 39q26 157 189 383q-23 -6 -72 -10q-127 0 -208 89.5t-81 225.5q0 92 17.5 183t57 178t96.5 153.5t142.5 107t188.5 40.5q136 0 220.5 -80t84.5 -240q0 -132 -39 -255t-125.5 -225.5t-208.5 -146.5
q-133 -168 -151 -276l20 -12q24 -5 78.5 5.5t96.5 24.5zM416 55q64 76 103 259t42 354q0 11 1 43.5t1 52.5q0 78 -6 115q-29 14 -70 12q-61 -75 -96.5 -253t-38.5 -345q0 -11 -1 -43t-1 -51q0 -71 4 -125q24 -16 62 -19zM766 1208h-381l14 60h381z" />
    <glyph glyph-name="uni01EE" unicode="&#x1ee;" horiz-adv-x="837" 
d="M291 -168q58 0 103 53t67 132t22 165q0 54 -9 100t-28.5 85.5t-55 64t-83.5 29.5l-8 86l434 461l-2 14h-409l-138 -186h-43l82 358h705l10 -64l-434 -462l4 -13q151 -3 239.5 -106t88.5 -266q0 -124 -42 -225t-116 -167.5t-172.5 -102.5t-212.5 -36q-161 0 -291 72
l37 244h61q6 -55 29 -107t66 -90.5t96 -38.5zM612 1282h-61l-160 256l21 27l188 -144l291 148l18 -23z" />
    <glyph glyph-name="uni01EF" unicode="&#x1ef;" horiz-adv-x="780" 
d="M737 139q0 -19 -4 -47q-13 -112 -85 -210t-175 -161t-219 -99t-221 -36l-4 56q81 13 157 62.5t127.5 115t83 138t31.5 132.5q0 83 -30.5 123.5t-96.5 40.5q-32 0 -70 -10l-10 118l330 371l-2 15q-67 -13 -158 -13q-84 0 -147 13l-68 -119l-61 8l67 276l56 48
q144 -15 282 -15q148 0 295 15l8 -62l-438 -479l4 -12q172 0 260 -68t88 -201zM555 1075h-63l-138 287l23 18l178 -166l229 172l19 -22z" />
    <glyph glyph-name="uni01F1" unicode="&#x1f1;" horiz-adv-x="2131" 
d="M20 0l3 43l124 25l183 1060l-117 21l8 45h547q494 0 494 -412q0 -167 -55.5 -313t-151 -248.5t-226.5 -161.5t-278 -59h-531zM684 1118h-41l-180 -1036h31q184 0 300.5 180.5t116.5 509.5q0 63 -6 112.5t-21 94.5t-40.5 74.5t-65.5 47t-94 17.5zM1196 0v84l725 1036h-311
l-191 -317h-55l68 391h821l4 -70l-746 -1048h375l205 301l61 -10l-98 -367h-858z" />
    <glyph glyph-name="uni01F2" unicode="&#x1f2;" horiz-adv-x="1970" 
d="M20 0l3 43l124 25l183 1060l-117 21l8 45h547q494 0 494 -412q0 -167 -55.5 -313t-151 -248.5t-226.5 -161.5t-278 -59h-531zM684 1118h-41l-180 -1036h31q184 0 300.5 180.5t116.5 509.5q0 63 -6 112.5t-21 94.5t-40.5 74.5t-65.5 47t-94 17.5zM1309 -16l-54 16l-10 47
l506 647l-8 8q-62 -20 -166 -20q-85 0 -164 18l-59 -114l-47 6l51 344l57 25q202 -21 340 -21q147 0 211 18l51 -73l-477 -613l6 -26h326l59 139l56 -4l-68 -371l-57 -26l-498 65z" />
    <glyph glyph-name="uni01F3" unicode="&#x1f3;" horiz-adv-x="1591" 
d="M434 20l39 232l-231 -252h-170q-25 92 -25 213q0 354 129 565q125 180 313 180q39 0 101 -8l59 350h-147v46l393 94l55 -37l-213 -1249l17 -15l120 84l27 -43l-235 -196zM930 -16l-53 16l-11 47l506 647l-8 8q-62 -20 -166 -20q-84 0 -164 18l-59 -114l-47 6l51 344
l57 25q202 -21 340 -21q146 0 211 18l51 -73l-477 -613l6 -26h326l59 139l56 -4l-68 -371l-57 -26l-498 65zM328 238l26 -11l133 111l74 438q-55 47 -143 74q-92 -221 -92 -514q0 -69 2 -98z" />
    <glyph glyph-name="uni01F4" unicode="&#x1f4;" horiz-adv-x="1067" 
d="M582 -16q-105 0 -196.5 30t-162.5 88t-112 150t-41 207q0 135 40 255t110.5 210t165 155.5t206.5 99t231 33.5q87 0 174.5 -21.5t135.5 -45.5l-54 -316h-63l-80 293q-59 15 -123 15q-96 0 -173 -63.5t-122.5 -164t-69.5 -212.5t-24 -220q0 -416 203 -416q1 0 59 5l68 448
l-119 33l8 43h416l-90 -520q-54 -34 -170.5 -60t-216.5 -26zM991 1552l84 -108v-27l-379 -139l-10 20z" />
    <glyph glyph-name="uni01F5" unicode="&#x1f5;" horiz-adv-x="817" 
d="M266 -436q-222 0 -325 61l47 191q183 -95 311 -95q28 0 72 7q33 36 94 460q1 9 10 66l-233 -254h-170q-25 92 -25 213q0 354 129 565q125 180 313 180q125 0 238 -55l107 58h26l-155 -988q-25 -162 -154 -285.5t-285 -123.5zM487 338l62 446q-51 43 -131 66
q-92 -221 -92 -514q0 -69 2 -98l26 -11zM651 1391l162 -43v-27l-285 -244l-12 15z" />
    <glyph glyph-name="uni01F8" unicode="&#x1f8;" horiz-adv-x="1249" 
d="M-6 0l6 39l147 53l170 993l-129 68l7 41h385l415 -752h6l117 645l-211 66l6 41h453l-6 -39l-154 -55l-190 -1116h-139l-488 934h-8l-141 -812l231 -65l-6 -41h-471zM487 1444l82 108l308 -249l-11 -25l-379 139v27z" />
    <glyph glyph-name="uni01F9" unicode="&#x1f9;" horiz-adv-x="966" 
d="M774 -16l-262 36l82 498q12 86 12 174q0 47 -6 68l-35 10q-42 -25 -110 -100l-109 -670h-283l136 836h-136v45l377 80l60 -23l-31 -180q92 104 163.5 153.5t137.5 49.5q56 0 91.5 -76.5t35.5 -200.5q0 -80 -14 -160l-68 -391l16 -14l134 106l28 -45zM369 1348l161 43
l134 -299l-13 -15l-282 244v27z" />
    <glyph glyph-name="uni01FA" unicode="&#x1fa;" horiz-adv-x="1073" 
d="M-74 0l8 39l121 49l705 1106h133l119 -1139l59 -14l-8 -41h-502l4 39l119 22l-22 295h-338l-170 -262l176 -53l-8 -41h-396zM365 422h290l-28 403h-11zM846 1268q57 0 97 39.5t40 91.5q0 53 -30.5 79.5t-80.5 26.5q-56 0 -93.5 -39t-37.5 -94t31 -79.5t74 -24.5z
M842 1231q-57 0 -101.5 36t-44.5 105q0 68 55.5 119t125.5 51q65 0 108 -38.5t43 -104.5q0 -64 -56 -116t-130 -52zM1069 1841l84 -108v-27l-379 -139l-10 20z" />
    <glyph glyph-name="uni01FB" unicode="&#x1fb;" horiz-adv-x="870" 
d="M432 20l39 230l-229 -250h-170q-25 92 -25 213q0 354 129 565q125 180 313 180q73 0 126.5 -14t117.5 -45l113 62h26l-137 -832l15 -14l122 108l27 -43l-207 -196zM328 238l26 -11l131 109l74 440q-56 48 -141 74q-92 -221 -92 -514q0 -69 2 -98zM594 1055q-57 0 -101 36
t-44 105q0 68 55 119t125 51q65 0 108 -38.5t43 -104.5q0 -64 -56 -116t-130 -52zM598 1092q57 0 97 39.5t40 91.5q0 53 -30 79.5t-80 26.5q-56 0 -93.5 -39t-37.5 -94t30.5 -79.5t73.5 -24.5zM825 1718l84 -108v-27l-379 -139l-10 20z" />
    <glyph glyph-name="AEacute" unicode="&#x1fc;" horiz-adv-x="1482" 
d="M496 0l4 39l141 29l72 419h-291l-248 -395l156 -51l-8 -41h-398l6 39l138 55l714 1100h787l-58 -332h-61l-88 258h-225l-82 -475l340 31l-23 -119l-328 29l-86 -510h230l229 295l60 -9l-115 -362h-866zM801 1085l-334 -526h258l90 526h-14zM1464 1554l84 -108v-27
l-379 -139l-10 20z" />
    <glyph glyph-name="aeacute" unicode="&#x1fd;" horiz-adv-x="1138" 
d="M676 -16l-172 36q-6 23 -9.5 57.5t-5 83t-2.5 62.5l-217 -223h-198q-25 92 -25 213q0 354 129 565q54 79 144.5 129.5t197.5 50.5q99 0 213 -47q40 22 100 36t113 14q114 0 246 -66v-233q-52 -35 -424 -250v-113q0 -86 2 -106l27 -11q80 20 295 195l18 -35
q-51 -85 -178.5 -192t-253.5 -166zM354 203l133 110q5 111 33.5 249t63.5 212q-86 65 -166 76q-34 -65 -62.5 -216.5t-29.5 -297.5q0 -94 2 -123zM772 498q122 84 203 161l2 146q-29 18 -53 28t-36.5 12t-39.5 5q-39 -72 -76 -352zM897 1391l162 -43v-27l-285 -244l-12 15z
" />
    <glyph glyph-name="Oslashacute" unicode="&#x1fe;" horiz-adv-x="1114" 
d="M1186 766q-2 -120 -34.5 -235.5t-93.5 -213.5t-142 -173t-186 -117.5t-220 -42.5q-191 0 -307 104l-101 -104h-92l148 151q-88 117 -88 301q0 152 52 294t141 248t216.5 170t270.5 64q221 0 333 -127l125 127h90l-176 -180q64 -107 64 -266zM735 1133q-81 0 -154 -109.5
t-116.5 -278t-48.5 -346.5l426 437v10q0 131 -26.5 209t-80.5 78zM555 66q74 0 136.5 90.5t101 244t47.5 340.5l-424 -434q14 -241 139 -241zM958 1552l84 -108v-27l-378 -139l-11 20z" />
    <glyph glyph-name="oslashacute" unicode="&#x1ff;" horiz-adv-x="851" 
d="M346 -16q-127 0 -209 88l-82 -88h-63l117 127q-52 80 -52 188q0 92 17.5 183t57 178t96.5 153.5t142.5 107t188.5 40.5q159 0 240 -103l94 103h68l-136 -146q39 -70 39 -174q0 -115 -32 -225.5t-93.5 -205t-163.5 -156.5t-229 -70zM492 891q-53 -66 -87.5 -210
t-44.5 -298l201 219q4 46 4 66q0 11 1 43.5t1 52.5q0 78 -6 115q-29 14 -69 12zM420 55q50 59 85 189t50 280l-199 -217v-14q0 -11 -1 -43t-1 -51q0 -71 4 -125q24 -16 62 -19zM631 1391l162 -43v-27l-285 -244l-12 15z" />
    <glyph glyph-name="Scommaaccent" unicode="&#x218;" horiz-adv-x="899" 
d="M377 -16q-163 0 -330 82l57 346h66l59 -297q49 -34 86.5 -45t87.5 -11q40 0 77.5 11t71.5 33.5t54.5 64.5t20.5 98q0 44 -24 79t-62.5 60t-85 49t-93.5 51.5t-85.5 61t-62.5 85t-24 116.5q0 105 39 190.5t105 140t152 84t182 29.5q103 0 187 -22t134 -55l-55 -320h-66
l-65 291q-29 19 -57 25t-80 6q-89 0 -153 -57.5t-64 -135.5q0 -47 25 -82.5t65.5 -59t89 -45.5t97 -48t89 -59.5t65.5 -88t25 -125.5q0 -119 -42.5 -208.5t-117 -141.5t-167 -77t-201.5 -25zM526 -127l17 -18l-164 -361h-39l41 379h145z" />
    <glyph glyph-name="scommaaccent" unicode="&#x219;" horiz-adv-x="722" 
d="M694 590h-49l-47 198q-37 17 -93.5 30t-88.5 13q-36 0 -61 -22t-25 -45q0 -21 9 -41t34.5 -46t41 -40.5t58.5 -49t57 -46.5q70 -60 110 -118.5t40 -127.5q0 -70 -63.5 -144t-153 -120.5t-164.5 -46.5q-81 0 -159.5 16t-123.5 41l54 336h47l51 -227q108 -48 217 -48
q61 0 61 68q0 29 -24 63.5t-47.5 57t-77.5 69.5q-77 69 -119.5 130t-42.5 137q0 52 32 111t84.5 108.5t127 82t151.5 32.5q99 0 222 -54zM385 -127l16 -18l-163 -361h-39l41 379h145z" />
    <glyph glyph-name="uni021A" unicode="&#x21a;" horiz-adv-x="954" 
d="M172 0l8 43l123 23l176 1050h-131l-198 -315h-58l70 393h977l-68 -393h-57l-90 315h-129l-177 -1048l107 -23l-6 -45h-547zM512 -127l16 -18l-163 -361h-39l41 379h145z" />
    <glyph glyph-name="uni021B" unicode="&#x21b;" horiz-adv-x="671" 
d="M49 809l12 53l168 39l154 295h160l-47 -287h202l-18 -100h-201l-102 -631l16 -14q155 93 230 147l22 -32q-55 -69 -163 -167.5t-191 -127.5l-213 49l123 776h-152zM322 -127l16 -18l-164 -361h-39l41 379h146z" />
    <glyph glyph-name="uni021C" unicode="&#x21c;" horiz-adv-x="837" 
d="M291 -168q58 0 103 53t67 132t22 165q0 54 -9 100t-28.5 85.5t-55 64t-83.5 29.5l-8 86l434 461l-2 14h-409l-138 -186h-43l82 358h705l10 -64l-434 -462l4 -13q151 -3 239.5 -106t88.5 -266q0 -124 -42 -225t-116 -167.5t-172.5 -102.5t-212.5 -36q-161 0 -291 72
l37 244h61q6 -55 29 -107t66 -90.5t96 -38.5z" />
    <glyph glyph-name="uni021D" unicode="&#x21d;" horiz-adv-x="780" 
d="M737 139q0 -19 -4 -47q-13 -112 -85 -210t-175 -161t-219 -99t-221 -36l-4 56q81 13 157 62.5t127.5 115t83 138t31.5 132.5q0 83 -30.5 123.5t-96.5 40.5q-32 0 -70 -10l-10 118l330 371l-2 15q-67 -13 -158 -13q-84 0 -147 13l-68 -119l-61 8l67 276l56 48
q144 -15 282 -15q148 0 295 15l8 -62l-438 -479l4 -12q172 0 260 -68t88 -201z" />
    <glyph glyph-name="uni021E" unicode="&#x21e;" horiz-adv-x="1292" 
d="M20 0l5 43l122 23l181 1060l-115 23l8 45h539l-8 -43l-113 -21l-82 -481h348l78 477l-115 23l9 45h538l-6 -43l-115 -21l-182 -1062l107 -23l-7 -45h-536l4 43l123 20l90 525h-346l-90 -522l106 -21l-6 -45h-537zM840 1282h-62l-160 256l21 27l188 -144l291 148l19 -23z
" />
    <glyph glyph-name="uni021F" unicode="&#x21f;" horiz-adv-x="956" 
d="M23 0l225 1300h-137v46l376 94l58 -37l-113 -664q98 114 173.5 168t144.5 54q56 0 91.5 -76.5t35.5 -200.5q0 -74 -15 -160l-67 -391l16 -14l133 106l29 -45l-219 -196l-262 36l81 498q13 93 13 174q0 47 -6 68l-35 10q-46 -29 -127 -119l-109 -651h-286zM778 1282h-61
l-160 256l21 27l188 -144l291 148l18 -23z" />
    <glyph glyph-name="uni0226" unicode="&#x226;" horiz-adv-x="1073" 
d="M-74 0l8 39l121 49l705 1106h133l119 -1139l59 -14l-8 -41h-502l4 39l119 22l-22 295h-338l-170 -262l176 -53l-8 -41h-396zM365 422h290l-28 403h-11zM897 1272l-160 41q25 45 47 107t29 98l178 -19q-36 -150 -94 -227z" />
    <glyph glyph-name="uni0227" unicode="&#x227;" horiz-adv-x="870" 
d="M432 20l39 230l-229 -250h-170q-25 92 -25 213q0 354 129 565q125 180 313 180q73 0 126.5 -14t117.5 -45l113 62h26l-137 -832l15 -14l122 108l27 -43l-207 -196zM328 238l26 -11l131 109l74 440q-56 48 -141 74q-92 -221 -92 -514q0 -69 2 -98zM639 1149l-139 41
q59 111 73 184l158 -18q-42 -138 -92 -207z" />
    <glyph glyph-name="uni0228" unicode="&#x228;" horiz-adv-x="1001" 
d="M20 0l5 43l122 25l181 1054l-115 27l8 45h866l-55 -332h-57l-94 254h-238l-82 -483l320 24l-19 -118l-313 24l-84 -483h235l250 291l47 -9l-114 -362h-308l-75 -96q71 -55 112 -103t41 -98t-70.5 -102t-160.5 -52q-37 0 -83 8t-69 21l39 119q85 -47 172 -47q55 0 99 20
q-12 24 -36 48.5t-43 38t-58.5 39.5t-51.5 34l4 23l119 147h-494z" />
    <glyph glyph-name="uni0229" unicode="&#x229;" horiz-adv-x="696" 
d="M139 -451q-37 0 -82.5 8t-68.5 21l39 119q85 -47 172 -47q54 0 98 20q-12 24 -36 48.5t-42.5 38t-58.5 39.5t-51 34l4 23l110 139l-137 28q-29 107 -29 242q0 324 117 514q125 185 324 185q118 0 250 -66l-5 -229v-4q-118 -110 -395 -240q-4 -70 -4 -107q0 -81 6 -122
l27 -11q78 42 266 195l16 -35q-48 -82 -149 -179.5t-213 -158.5l-80 -100q72 -56 113 -103.5t41 -97.5t-71 -102t-161 -52zM430 850q-53 -98 -76 -358q82 52 176 141v182q-67 33 -100 35z" />
    <glyph glyph-name="uni022E" unicode="&#x22e;" horiz-adv-x="1114" 
d="M1186 766q-2 -120 -34.5 -235.5t-93.5 -213.5t-142 -173t-186 -117.5t-220 -42.5q-207 0 -323.5 120.5t-116.5 331.5q0 152 52 294t141 248t216.5 170t270.5 64q214 0 325 -115.5t111 -330.5zM555 66q81 0 147.5 107t103 285t36.5 388q0 131 -26.5 209t-80.5 78
q-84 0 -159 -116.5t-117.5 -295.5t-42.5 -363q0 -133 34 -212.5t105 -79.5zM836 1272l-160 41q25 45 47 107t29 98l178 -19q-36 -150 -94 -227z" />
    <glyph glyph-name="uni022F" unicode="&#x22f;" horiz-adv-x="851" 
d="M416 55q64 76 103 259t42 354q0 11 1 43.5t1 52.5q0 78 -6 115q-29 14 -70 12q-61 -75 -96.5 -253t-38.5 -345q0 -11 -1 -43t-1 -51q0 -71 4 -125q24 -16 62 -19zM342 -16q-127 0 -208 89.5t-81 225.5q0 92 17.5 183t57 178t96.5 153.5t142.5 107t188.5 40.5
q136 0 220.5 -80t84.5 -240q0 -115 -32 -225.5t-93.5 -205t-163.5 -156.5t-229 -70zM657 1149l-139 41q60 114 74 184l158 -18q-41 -136 -93 -207z" />
    <glyph glyph-name="Ymacron" unicode="&#x232;" horiz-adv-x="966" 
d="M170 0l4 39l137 29l68 393l-217 676l-70 16l6 41h518l-4 -39l-120 -22l153 -525h2l285 504l-166 41l6 41h395l-6 -39l-125 -29l-327 -581l-82 -477l121 -27l-5 -41h-573zM920 1374h-435l15 60h434z" />
    <glyph glyph-name="ymacron" unicode="&#x233;" horiz-adv-x="831" 
d="M879 940l-2 -59l-336 -785l-183 -520h-241l-2 23l293 401h-189q-38 128 -73.5 392.5t-32.5 443.5h-99v47l363 78l61 -13q-14 -95 -14 -217q0 -245 55 -579h21l139 436l6 352h234zM756 1212h-381l14 60h381z" />
    <glyph glyph-name="dotlessj" unicode="&#x237;" horiz-adv-x="536" 
d="M-33 -438l-24 20q90 163 131 414l137 840h-135v45l377 80l59 -23l-154 -938q-20 -120 -135.5 -238t-255.5 -200z" />
    <glyph glyph-name="schwa" unicode="&#x259;" horiz-adv-x="739" 
d="M162 567l-17 35q51 91 166 196.5t238 162.5l170 -37q29 -107 29 -242q0 -324 -117 -514q-124 -184 -324 -184q-120 0 -250 65l4 230v4q111 103 396 239l4 107q0 83 -6 123l-27 10q-78 -42 -266 -195zM375 94q49 94 76 357q-79 -47 -177 -140v-182q60 -32 101 -35z" />
    <glyph glyph-name="circumflex" unicode="&#x2c6;" horiz-adv-x="643" 
d="M330 1368h63l201 -270l-23 -25l-241 152l-281 -160l-20 22z" />
    <glyph glyph-name="caron" unicode="&#x2c7;" horiz-adv-x="757" 
d="M512 1075h-63l-138 287l23 18l178 -166l229 172l19 -22z" />
    <glyph glyph-name="breve" unicode="&#x2d8;" horiz-adv-x="550" 
d="M330 1073q-70 0 -113 55.5t-51 147.5l137 20q3 -103 59 -145q64 7 119 52t84 102l35 -13q-62 -115 -118.5 -167t-151.5 -52z" />
    <glyph glyph-name="dotaccent" unicode="&#x2d9;" horiz-adv-x="444" 
d="M330 1149l-140 41q60 114 74 184l158 -18q-42 -138 -92 -207z" />
    <glyph glyph-name="ring" unicode="&#x2da;" horiz-adv-x="507" 
d="M356 1114q57 0 97.5 39.5t40.5 91.5q0 53 -30.5 80t-80.5 27q-56 0 -93.5 -39t-37.5 -94t30.5 -80t73.5 -25zM352 1077q-56 0 -100.5 36.5t-44.5 105.5q0 68 55 119t125 51q65 0 108.5 -39t43.5 -105q0 -64 -56.5 -116t-130.5 -52z" />
    <glyph glyph-name="ogonek" unicode="&#x2db;" horiz-adv-x="638" 
d="M571 -231l19 -105q-55 -34 -145.5 -61.5t-182.5 -30.5l-39 39q21 124 119 278t199 258l69 13q-250 -276 -276 -422l20 -12q24 -5 78.5 5.5t96.5 24.5z" />
    <glyph glyph-name="tilde" unicode="&#x2dc;" horiz-adv-x="684" 
d="M670 1300l30 -26l-137 -158l-43 -2l-260 86l-86 -76l-35 25l170 164l47 4l248 -84z" />
    <glyph glyph-name="hungarumlaut" unicode="&#x2dd;" horiz-adv-x="813" 
d="M649 1384l162 -43v-26l-289 -228l-18 15zM358 1425l154 -36v-27l-219 -266l-21 12z" />
    <glyph glyph-name="gravecmb" unicode="&#x300;" horiz-adv-x="0" 
d="M-428 1348l160 43l133 -299l-10 -15l-283 244v27z" />
    <glyph glyph-name="acutecmb" unicode="&#x301;" horiz-adv-x="0" 
d="M-195 1391l160 -43v-27l-280 -244l-13 15z" />
    <glyph glyph-name="circumflexcmb" unicode="&#x302;" horiz-adv-x="0" 
d="M-213 1368h61l199 -270l-22 -25l-240 152l-279 -160l-18 22z" />
    <glyph glyph-name="tildecmb" unicode="&#x303;" horiz-adv-x="0" 
d="M2 1300l31 -26l-135 -158l-43 -2l-256 86l-88 -76l-33 25l168 164l47 4l246 -84z" />
    <glyph glyph-name="macroncmb" unicode="&#x304;" horiz-adv-x="0" 
d="M-39 1208h-381l14 60h381z" />
    <glyph glyph-name="brevecmb" unicode="&#x306;" horiz-adv-x="0" 
d="M-279 1077q-70 0 -112.5 55.5t-50.5 147.5l137 20q3 -103 59 -145q64 7 119 52t84 102l35 -13q-31 -56 -54.5 -91t-56 -67t-71.5 -46.5t-89 -14.5z" />
    <glyph glyph-name="dotaccentcmb" unicode="&#x307;" horiz-adv-x="0" 
d="M-172 1133l-158 41q24 46 45.5 107.5t28.5 96.5l176 -18q-31 -147 -92 -227z" />
    <glyph glyph-name="dieresiscmb" unicode="&#x308;" horiz-adv-x="0" 
d="M-416 1143l-135 49q62 105 82 205l158 -23q-56 -162 -105 -231zM-76 1143l-133 49q59 100 80 205l158 -23q-49 -152 -105 -231z" />
    <glyph glyph-name="hookcmb" unicode="&#x309;" horiz-adv-x="0" 
d="M-35 1284q0 -138 -203 -244l-30 35q110 91 110 182q0 64 -57 64q-31 0 -84 -35l-29 57q71 66 162 66q52 0 91.5 -32t39.5 -93z" />
    <glyph glyph-name="ringcmb" unicode="&#x30a;" horiz-adv-x="0" 
d="M-233 1116q57 0 97 39.5t40 91.5q0 53 -30.5 80t-80.5 27q-56 0 -93.5 -39t-37.5 -94t31 -80t74 -25zM-238 1079q-56 0 -100.5 36.5t-44.5 105.5q0 68 55 119t125 51q65 0 108.5 -39t43.5 -105q0 -64 -56.5 -116t-130.5 -52z" />
    <glyph glyph-name="hungarumlautcmb" unicode="&#x30b;" horiz-adv-x="0" 
d="M-92 1384l160 -43v-26l-287 -228l-19 15zM-381 1425l152 -36v-27l-215 -266l-21 12z" />
    <glyph glyph-name="caroncmb" unicode="&#x30c;" horiz-adv-x="0" 
d="M-219 1075h-62l-137 287l23 18l176 -166l227 172l19 -22z" />
    <glyph glyph-name="candrabinducmb" unicode="&#x310;" horiz-adv-x="0" 
d="M-135 1303l-135 49q60 98 82 204l157 -22q-50 -155 -104 -231zM-274 1067q-70 0 -113 55.5t-51 147.5l135 20q6 -104 61 -145q66 7 131.5 53t92.5 100l34 -12q-59 -108 -126 -163.5t-164 -55.5z" />
    <glyph glyph-name="dotbelowcmb" unicode="&#x323;" horiz-adv-x="0" 
d="M-412 -360l-157 41q25 46 45.5 108t25.5 96l179 -18q-35 -147 -93 -227z" />
    <glyph glyph-name="dieresisbelowcmb" unicode="&#x324;" horiz-adv-x="0" 
d="M-600 -334l-135 49q29 50 51.5 108t28.5 97l157 -22q-58 -167 -102 -232zM-299 -334l-135 49q60 98 82 205l157 -22q-50 -157 -104 -232z" />
    <glyph glyph-name="ringbelowcmb" unicode="&#x325;" horiz-adv-x="0" 
d="M-492 -367q57 0 97.5 39.5t40.5 91.5q0 53 -30.5 80t-80.5 27q-56 0 -93.5 -39t-37.5 -94t30.5 -80t73.5 -25zM-496 -403q-57 0 -101 36t-44 105q0 68 55 119t125 51q65 0 108.5 -39t43.5 -105q0 -64 -56.5 -115.5t-130.5 -51.5z" />
    <glyph glyph-name="cedillacmb" unicode="&#x327;" horiz-adv-x="0" 
d="M-545 -451q-38 0 -81.5 8t-67.5 21l37 119q100 -47 180 -47q49 0 88 20q-12 24 -35.5 48.5t-43 38.5t-57 39t-50.5 34l4 23l151 192l60 -2l-107 -139q48 -39 76.5 -65.5t53 -67t20.5 -76.5q-3 -49 -73.5 -97.5t-154.5 -48.5z" />
    <glyph glyph-name="ogonekcmb" unicode="&#x328;" horiz-adv-x="0" 
d="M-315 -231l16 -105q-52 -34 -142.5 -61.5t-181.5 -30.5l-36 39q21 125 117.5 279.5t195.5 256.5l70 13q-253 -279 -275 -422l21 -12q24 -5 78 5.5t96 24.5z" />
    <glyph glyph-name="brevebelowcmb" unicode="&#x32e;" horiz-adv-x="0" 
d="M-520 -346q-70 0 -112.5 55.5t-51.5 147.5l137 20q6 -105 60 -145q64 7 120 51.5t84 101.5l35 -12q-62 -115 -119 -167t-153 -52z" />
    <glyph glyph-name="macronbelowcmb" unicode="&#x331;" horiz-adv-x="0" 
d="M-268 -272h-381l14 59h381z" />
    <glyph glyph-name="uni0374" unicode="&#x374;" horiz-adv-x="485" 
d="M395 1366q-48 -198 -315 -420l-23 17q59 95 99.5 211t46.5 212q35 7 71 7q85 0 121 -27z" />
    <glyph glyph-name="uni0375" unicode="&#x375;" horiz-adv-x="485" 
d="M440 174q-57 -225 -352 -467l-25 17q65 106 110.5 236t51.5 237q35 6 78 6q92 0 137 -29z" />
    <glyph glyph-name="uni037E" unicode="&#x37e;" horiz-adv-x="485" 
d="M440 174q-57 -225 -352 -467l-25 17q65 106 110.5 236t51.5 237q35 6 78 6q92 0 137 -29zM215 664q24 49 52 121t34 102q53 4 115 -5.5t90 -23.5q-54 -180 -105 -246q-42 0 -98 15t-88 37z" />
    <glyph glyph-name="tonos" unicode="&#x384;" horiz-adv-x="765" 
d="M442 1440h199l29 -39l-267 -350l-47 4z" />
    <glyph glyph-name="dieresistonos" unicode="&#x385;" horiz-adv-x="835" 
d="M301 1032l-135 49q29 50 51.5 108t28.5 97l157 -22q-58 -167 -102 -232zM791 1032l-134 49q59 100 80 205l158 -22q-50 -157 -104 -232zM524 1440h199l29 -39l-267 -350l-47 4z" />
    <glyph glyph-name="Alphatonos" unicode="&#x386;" horiz-adv-x="1073" 
d="M-74 0l8 39l121 49l705 1106h133l119 -1139l59 -14l-8 -41h-502l4 39l119 22l-22 295h-338l-170 -262l176 -53l-8 -41h-396zM365 422h290l-28 403h-11zM305 1192h207l12 -35l-235 -373h-45z" />
    <glyph glyph-name="anoteleia" unicode="&#x387;" horiz-adv-x="444" 
d="M330 397l-140 41q60 113 74 185l158 -19q-42 -138 -92 -207z" />
    <glyph glyph-name="Epsilontonos" unicode="&#x388;" horiz-adv-x="1001" 
d="M20 0l5 43l122 25l181 1054l-115 27l8 45h866l-55 -332h-57l-94 254h-238l-82 -483l320 24l-19 -118l-313 24l-84 -483h235l250 291l47 -9l-114 -362h-863zM-51 1192h207l12 -35l-236 -373h-45z" />
    <glyph glyph-name="Etatonos" unicode="&#x389;" horiz-adv-x="1292" 
d="M20 0l5 43l122 23l181 1060l-115 23l8 45h539l-8 -43l-113 -21l-82 -481h348l78 477l-115 23l9 45h538l-6 -43l-115 -21l-182 -1062l107 -23l-7 -45h-536l4 43l123 20l90 525h-346l-90 -522l106 -21l-6 -45h-537zM-49 1192h207l12 -35l-236 -373h-45z" />
    <glyph glyph-name="Iotatonos" unicode="&#x38a;" horiz-adv-x="673" 
d="M35 0l4 43l123 23l180 1062l-115 21l9 45h544l-6 -43l-115 -23l-182 -1060l107 -23l-4 -45h-545zM-35 1192h207l12 -35l-235 -373h-45z" />
    <glyph glyph-name="Omicrontonos" unicode="&#x38c;" horiz-adv-x="1114" 
d="M1186 766q-2 -120 -34.5 -235.5t-93.5 -213.5t-142 -173t-186 -117.5t-220 -42.5q-207 0 -323.5 120.5t-116.5 331.5q0 152 52 294t141 248t216.5 170t270.5 64q214 0 325 -115.5t111 -330.5zM555 66q81 0 147.5 107t103 285t36.5 388q0 131 -26.5 209t-80.5 78
q-84 0 -159 -116.5t-117.5 -295.5t-42.5 -363q0 -133 34 -212.5t105 -79.5zM-4 1192h207l12 -35l-235 -373h-46z" />
    <glyph glyph-name="Upsilontonos" unicode="&#x38e;" horiz-adv-x="1103" 
d="M205 0l6 43l137 23l49 319q15 111 15 178q0 198 -55.5 359t-139.5 194q-47 0 -88 -6l2 53q40 17 158 33t162 16q51 -19 89 -57t67.5 -105.5t45 -174.5t15.5 -252q0 -13 -1 -39t-1 -41h14q31 123 52 198.5t51.5 164.5t59.5 142t69 98t87 66q8 -1 76 -7.5t117.5 -13.5
t62.5 -13l-6 -41q-89 -9 -170.5 -69t-141 -146.5t-108 -196t-77.5 -214t-45 -204.5l-39 -239l120 -23l-6 -45h-577zM-117 1192h207l12 -35l-235 -373h-45z" />
    <glyph glyph-name="Omegatonos" unicode="&#x38f;" horiz-adv-x="1282" 
d="M1020 236l63 108h56l-49 -344h-478v231q250 178 250 555q0 64 -6.5 119.5t-22 110t-46.5 86t-76 31.5q-55 0 -100.5 -32.5t-75 -88t-51 -121.5t-33 -142t-16.5 -140t-5 -124q0 -106 16.5 -150t77.5 -99l-65 -236h-453l49 344h56l26 -108h250l2 10q-132 57 -211.5 158.5
t-79.5 248.5q0 117 54.5 222.5t141 178t195 115.5t216.5 43q123 0 219 -38t155 -105t89 -152t30 -184q0 -75 -25.5 -140.5t-63.5 -113t-100 -93.5t-116 -76.5t-131 -67.5l-2 -6h260zM-8 1192h207l12 -35l-236 -373h-45z" />
    <glyph glyph-name="iotadieresistonos" unicode="&#x390;" horiz-adv-x="526" 
d="M291 -16l-232 36l158 920h285l-131 -782l18 -15l105 80l30 -45zM176 1032l-135 49q29 50 51.5 108t28.5 97l158 -22q-57 -164 -103 -232zM666 1032l-134 49q59 100 80 205l158 -22q-50 -157 -104 -232zM399 1440h199l29 -39l-267 -350l-47 4z" />
    <glyph glyph-name="Alpha" unicode="&#x391;" horiz-adv-x="1073" 
d="M-74 0l8 39l121 49l705 1106h133l119 -1139l59 -14l-8 -41h-502l4 39l119 22l-22 295h-338l-170 -262l176 -53l-8 -41h-396zM365 422h290l-28 403h-11z" />
    <glyph glyph-name="Beta" unicode="&#x392;" horiz-adv-x="1026" 
d="M20 0l7 43l123 25l182 1060l-119 21l8 45h518q170 0 260.5 -68.5t90.5 -191.5q0 -64 -23.5 -115.5t-67.5 -86t-95.5 -58t-117.5 -39.5v-8q113 0 187 -67.5t74 -197.5q0 -150 -131 -256t-334 -106h-562zM463 80h24q117 0 180.5 77t63.5 238q0 85 -37 135t-116 50h-25z
M563 637h19q78 0 132 88.5t54 241.5q0 70 -27.5 112.5t-85.5 42.5h-12z" />
    <glyph glyph-name="Gamma" unicode="&#x393;" horiz-adv-x="903" 
d="M162 66l180 1062l-129 21l6 45h828l-62 -393h-35l-123 315h-170l-180 -1048l121 -23l-6 -45h-572l5 43z" />
    <glyph glyph-name="uni0394" unicode="&#x394;" horiz-adv-x="1052" 
d="M-6 0l-21 154l570 1040h223l201 -1088l-62 -106h-911zM492 940l-375 -704h495l-108 702z" />
    <glyph glyph-name="Epsilon" unicode="&#x395;" horiz-adv-x="1001" 
d="M20 0l5 43l122 25l181 1054l-115 27l8 45h866l-55 -332h-57l-94 254h-238l-82 -483l320 24l-19 -118l-313 24l-84 -483h235l250 291l47 -9l-114 -362h-863z" />
    <glyph glyph-name="Zeta" unicode="&#x396;" horiz-adv-x="944" 
d="M8 0v84l725 1036h-311l-191 -317h-55l68 391h821l4 -70l-745 -1048h374l205 301l62 -10l-99 -367h-858z" />
    <glyph glyph-name="Eta" unicode="&#x397;" horiz-adv-x="1292" 
d="M20 0l5 43l122 23l181 1060l-115 23l8 45h539l-8 -43l-113 -21l-82 -481h348l78 477l-115 23l9 45h538l-6 -43l-115 -21l-182 -1062l107 -23l-7 -45h-536l4 43l123 20l90 525h-346l-90 -522l106 -21l-6 -45h-537z" />
    <glyph glyph-name="Theta" unicode="&#x398;" horiz-adv-x="1114" 
d="M545 528l-39 -102h-43l57 377h45l4 -109h158l35 109h47l-57 -377h-45l-5 102h-157zM1186 766q-2 -120 -34.5 -235.5t-93.5 -213.5t-142 -173t-186 -117.5t-220 -42.5q-207 0 -323.5 120.5t-116.5 331.5q0 152 52 294t141 248t216.5 170t270.5 64q214 0 325 -115.5
t111 -330.5zM555 66q81 0 147.5 107t103 285t36.5 388q0 131 -26.5 209t-80.5 78q-84 0 -159 -116.5t-117.5 -295.5t-42.5 -363q0 -133 34 -212.5t105 -79.5z" />
    <glyph glyph-name="Iota" unicode="&#x399;" horiz-adv-x="673" 
d="M35 0l4 43l123 23l180 1062l-115 21l9 45h544l-6 -43l-115 -23l-182 -1060l107 -23l-4 -45h-545z" />
    <glyph glyph-name="Kappa" unicode="&#x39a;" horiz-adv-x="1128" 
d="M20 0l7 43l123 23l180 1062l-115 21l8 45h545l-6 -43l-115 -23l-182 -1060l106 -23l-4 -45h-547zM764 0l-193 520l9 49l426 535l-134 51l7 39h436l-10 -47l-183 -41l-317 -369l285 -649l84 -51l-5 -37h-405z" />
    <glyph glyph-name="Lambda" unicode="&#x39b;" horiz-adv-x="1060" 
d="M616 825l-462 -731l176 -53l-8 -41h-396l8 39l121 49l705 1106h133l119 -1139l59 -14l-8 -41h-502l4 39l119 22l-57 764h-11z" />
    <glyph glyph-name="Mu" unicode="&#x39c;" horiz-adv-x="1556" 
d="M977 0l4 39l123 24l86 875h-10l-484 -954h-100l-152 995h-10l-205 -889l138 -49l-5 -41h-364l6 39l137 53l250 1024l-133 37l8 41h449l116 -766h5l387 766h409l-4 -41l-125 -39l-86 -1059l96 -14l-4 -41h-532z" />
    <glyph glyph-name="Nu" unicode="&#x39d;" horiz-adv-x="1249" 
d="M-6 0l6 39l147 53l170 993l-129 68l7 41h385l415 -752h6l117 645l-211 66l6 41h453l-6 -39l-154 -55l-190 -1116h-139l-488 934h-8l-141 -812l231 -65l-6 -41h-471z" />
    <glyph glyph-name="Xi" unicode="&#x39e;" horiz-adv-x="1042" 
d="M874 236l82 170l37 -7l-86 -399h-821l37 403l29 3l45 -170h677zM319 961l-86 -173l-32 3l78 403h792l-49 -403l-39 -3l-8 173h-656zM446 532l-43 -102h-32l59 377h33l8 -109h256l43 109h31l-58 -377h-30l-11 102h-256z" />
    <glyph glyph-name="Omicron" unicode="&#x39f;" horiz-adv-x="1114" 
d="M1186 766q-2 -120 -34.5 -235.5t-93.5 -213.5t-142 -173t-186 -117.5t-220 -42.5q-207 0 -323.5 120.5t-116.5 331.5q0 152 52 294t141 248t216.5 170t270.5 64q214 0 325 -115.5t111 -330.5zM555 66q81 0 147.5 107t103 285t36.5 388q0 131 -26.5 209t-80.5 78
q-84 0 -159 -116.5t-117.5 -295.5t-42.5 -363q0 -133 34 -212.5t105 -79.5z" />
    <glyph glyph-name="Pi" unicode="&#x3a0;" horiz-adv-x="1261" 
d="M147 66l181 1062l-115 21l6 45h1163l-4 -43l-114 -23l-183 -1060l107 -23l-4 -45h-531l6 43l115 23l178 1054h-315l-180 -1052l98 -23l-6 -45h-529l5 43z" />
    <glyph glyph-name="Rho" unicode="&#x3a1;" horiz-adv-x="1024" 
d="M20 0l3 39l124 27l183 1062l-117 21l8 45h547q160 0 259 -79t99 -210q0 -120 -40.5 -208t-113 -138t-162.5 -73t-200 -23h-78l-69 -395l141 -27l-4 -41h-580zM545 539h22q65 0 114.5 53t74 135.5t24.5 177.5q0 91 -28 147.5t-90 59.5h-19z" />
    <glyph glyph-name="Sigma" unicode="&#x3a3;" horiz-adv-x="962" 
d="M502 1122l151 -465l-399 -421h537l120 167l33 -4l-100 -399h-824l-12 74l379 411l-215 660l16 49h834l-59 -393h-37l-121 321h-303z" />
    <glyph glyph-name="Tau" unicode="&#x3a4;" horiz-adv-x="954" 
d="M172 0l8 43l123 23l176 1050h-131l-198 -315h-58l70 393h977l-68 -393h-57l-90 315h-129l-177 -1048l107 -23l-6 -45h-547z" />
    <glyph glyph-name="Upsilon" unicode="&#x3a5;" horiz-adv-x="1103" 
d="M205 0l6 43l137 23l49 319q15 111 15 178q0 198 -55.5 359t-139.5 194q-47 0 -88 -6l2 53q40 17 158 33t162 16q51 -19 89 -57t67.5 -105.5t45 -174.5t15.5 -252q0 -13 -1 -39t-1 -41h14q31 123 52 198.5t51.5 164.5t59.5 142t69 98t87 66q8 -1 76 -7.5t117.5 -13.5
t62.5 -13l-6 -41q-89 -9 -170.5 -69t-141 -146.5t-108 -196t-77.5 -214t-45 -204.5l-39 -239l120 -23l-6 -45h-577z" />
    <glyph glyph-name="Phi" unicode="&#x3a6;" horiz-adv-x="1294" 
d="M471 66l21 127q-203 12 -312.5 101.5t-109.5 233.5q0 468 567 516l22 127l-116 21l8 45h522l-8 -43l-115 -23l-20 -124q209 -12 316.5 -101.5t107.5 -240.5q0 -463 -572 -512l-20 -125l106 -23l-8 -45h-520l8 43zM918 979l-125 -723q73 0 130.5 69t86 171.5t28.5 212.5
q0 270 -120 270zM387 506q0 -250 115 -250l125 723q-77 -4 -133 -76t-81 -175t-26 -222z" />
    <glyph glyph-name="Chi" unicode="&#x3a7;" horiz-adv-x="1040" 
d="M516 0l6 39l113 29l-154 401l-291 -381l162 -47l-4 -41h-416l9 39l118 31l387 485l-221 580l-84 18l6 41h510l-8 -39l-96 -20l131 -336l242 311l-109 43l6 41h379l-8 -39l-182 -59l-297 -377l258 -662l76 -16l-7 -41h-526z" />
    <glyph glyph-name="Psi" unicode="&#x3a8;" horiz-adv-x="1521" 
d="M438 0l6 43l123 23l47 276q-63 9 -117 23.5t-108.5 42.5t-92.5 65t-61.5 93.5t-23.5 125.5q0 43 8 84l47 275h-135l8 41l299 102h156l-72 -408q-18 -119 -18 -174q0 -74 27.5 -120t95.5 -68l121 704l-115 21l8 45h547l-8 -43l-115 -23l-123 -712q38 8 67.5 23t51.5 32
t39.5 46.5t29 55t23 71.5t18.5 81.5t17 97.5l65 371h136l280 -86l-8 -41h-133l-47 -274q-14 -86 -53.5 -157t-93 -119.5t-123 -84.5t-138 -56.5t-143.5 -31.5l-47 -276l106 -23l-6 -45h-545z" />
    <glyph glyph-name="uni03A9" unicode="&#x3a9;" horiz-adv-x="1282" 
d="M1020 236l63 108h56l-49 -344h-478v231q250 178 250 555q0 64 -6.5 119.5t-22 110t-46.5 86t-76 31.5q-55 0 -100.5 -32.5t-75 -88t-51 -121.5t-33 -142t-16.5 -140t-5 -124q0 -106 16.5 -150t77.5 -99l-65 -236h-453l49 344h56l26 -108h250l2 10q-132 57 -211.5 158.5
t-79.5 248.5q0 117 54.5 222.5t141 178t195 115.5t216.5 43q123 0 219 -38t155 -105t89 -152t30 -184q0 -75 -25.5 -140.5t-63.5 -113t-100 -93.5t-116 -76.5t-131 -67.5l-2 -6h260z" />
    <glyph glyph-name="Iotadieresis" unicode="&#x3aa;" horiz-adv-x="673" 
d="M35 0l4 43l123 23l180 1062l-115 21l9 45h544l-6 -43l-115 -23l-182 -1060l107 -23l-4 -45h-545zM383 1278l-137 49q62 105 82 205l159 -23q-55 -159 -104 -231zM727 1278l-137 49q60 98 82 205l159 -23q-50 -155 -104 -231z" />
    <glyph glyph-name="Upsilondieresis" unicode="&#x3ab;" horiz-adv-x="1103" 
d="M205 0l6 43l137 23l49 319q15 111 15 178q0 198 -55.5 359t-139.5 194q-47 0 -88 -6l2 53q40 17 158 33t162 16q51 -19 89 -57t67.5 -105.5t45 -174.5t15.5 -252q0 -13 -1 -39t-1 -41h14q31 123 52 198.5t51.5 164.5t59.5 142t69 98t87 66q8 -1 76 -7.5t117.5 -13.5
t62.5 -13l-6 -41q-89 -9 -170.5 -69t-141 -146.5t-108 -196t-77.5 -214t-45 -204.5l-39 -239l120 -23l-6 -45h-577zM590 1278l-137 49q62 105 82 205l159 -23q-55 -159 -104 -231zM934 1278l-137 49q60 98 82 205l159 -23q-50 -155 -104 -231z" />
    <glyph glyph-name="alphatonos" unicode="&#x3ac;" horiz-adv-x="882" 
d="M678 -16l-213 36q0 100 12 205q-45 -64 -94 -120t-75.5 -80.5t-28.5 -24.5h-207q-29 107 -29 244q0 156 33 304t88 230q123 183 252 183q47 0 81.5 -16t56 -47t33.5 -59.5t23 -70.5q16 43 39 86l234 107l28 -35q-83 -174 -133 -401t-47 -392l19 -14l131 123l28 -41z
M344 160q41 40 59 58t45.5 51t45.5 65q27 183 81 340q-33 85 -65 128t-94 97q-97 -132 -97 -514q0 -130 13 -219zM629 1440h198l29 -39l-266 -350l-47 4z" />
    <glyph glyph-name="epsilontonos" unicode="&#x3ad;" horiz-adv-x="753" 
d="M637 236l22 -33l-49 -187q-30 -14 -117 -23t-157 -9q-122 0 -213.5 62t-91.5 163q0 79 71 160t146 112l2 8q-54 55 -79 103.5t-24 107.5q2 88 101.5 174.5t228.5 86.5q200 0 301 -56l-30 -196l-33 -25q-54 23 -151 39t-187 16q-28 0 -48 -3t-28.5 -5.5t-30.5 -12.5
t-37 -16q12 -115 132 -180q63 23 103.5 31t117.5 8h26q7 -48 -3 -116t-23 -87q-66 -5 -123 14.5t-131 76.5q-58 -26 -92.5 -54t-65.5 -73q44 -66 104 -90.5t154 -24.5q104 0 205 29zM588 1440h198l29 -39l-266 -350l-47 4z" />
    <glyph glyph-name="etatonos" unicode="&#x3ae;" horiz-adv-x="923" 
d="M61 0l146 834l-8 22l-123 -22l-4 43l334 84l81 -23l-36 -211q101 127 173 180.5t146 53.5q55 0 89 -75t34 -198q0 -81 -14 -164l-164 -948h-269l168 1004q9 83 9 114q0 34 -7 66l-34 10q-35 -22 -66 -52t-84 -93l-106 -625h-265zM629 1440h198l29 -39l-266 -350l-47 4z
" />
    <glyph glyph-name="iotatonos" unicode="&#x3af;" horiz-adv-x="526" 
d="M399 1440h199l29 -39l-267 -350l-47 4zM291 -16l-232 36l158 920h285l-131 -782l18 -15l105 80l30 -45z" />
    <glyph glyph-name="upsilondieresistonos" unicode="&#x3b0;" horiz-adv-x="880" 
d="M123 279q1 76 16 177t31 175.5t45 195.5l-8 23l-170 -19l-4 46l360 84q37 -24 82 -76q-207 -282 -270 -475q58 -69 151 -112.5t191 -43.5q59 0 110 33q30 72 50 192q21 132 16 205l-141 197l6 30q41 15 119.5 32.5t115.5 17.5q51 -65 51 -267q0 -122 -58.5 -253.5
t-143.5 -230t-183.5 -162.5t-175.5 -64q-86 0 -138.5 75t-51.5 220zM354 1032l-135 49q29 50 51.5 108t28.5 97l158 -22q-57 -164 -103 -232zM844 1032l-133 49q59 100 80 205l157 -22q-50 -157 -104 -232zM578 1440h198l29 -39l-266 -350l-47 4z" />
    <glyph glyph-name="alpha" unicode="&#x3b1;" horiz-adv-x="882" 
d="M678 -16l-213 36q0 100 12 205q-45 -64 -94 -120t-75.5 -80.5t-28.5 -24.5h-207q-29 107 -29 244q0 156 33 304t88 230q123 183 252 183q47 0 81.5 -16t56 -47t33.5 -59.5t23 -70.5q16 43 39 86l234 107l28 -35q-83 -174 -133 -401t-47 -392l19 -14l131 123l28 -41z
M344 160q41 40 59 58t45.5 51t45.5 65q27 183 81 340q-33 85 -65 128t-94 97q-97 -132 -97 -514q0 -130 13 -219z" />
    <glyph glyph-name="beta" unicode="&#x3b2;" horiz-adv-x="909" 
d="M217 -424h-209l213 1440q28 193 124 316.5t245 123.5q67 0 119.5 -24.5t82.5 -63.5t45 -83t15 -89q0 -136 -57.5 -234.5t-169.5 -173.5q64 -57 104.5 -100.5t74 -95.5t48 -109t14.5 -127q0 -82 -66 -170t-163 -145t-182 -57q-105 0 -174 34zM430 1040l-111 -755
q67 -56 128 -81.5t143 -25.5q34 0 86 10q-6 105 -56 226.5t-120 189.5l-6 94q68 86 103.5 222t35.5 274q0 128 -90 199q-47 -52 -68.5 -125t-44.5 -228z" />
    <glyph glyph-name="gamma" unicode="&#x3b3;" horiz-adv-x="862" 
d="M690 956q67 9 132 -5t104 -56q-10 -137 -143.5 -402.5t-270.5 -455.5l-49 -438q-84 -30 -178 -27q-68 0 -111 14l121 441q-29 270 -156 802l-22 15l-82 -13l-4 52l264 78l98 -19q30 -148 82 -840h21q55 93 117.5 405.5t76.5 448.5z" />
    <glyph glyph-name="delta" unicode="&#x3b4;" horiz-adv-x="811" 
d="M47 350q0 176 92.5 340t218.5 250q-46 48 -68 72.5t-50.5 63t-40 72t-11.5 69.5q0 119 101.5 179t257.5 60q88 0 185.5 -21t144.5 -55l-64 -260l-41 -14q-60 58 -155.5 94.5t-196.5 36.5q-72 0 -148 -33q17 -27 71.5 -79.5t110.5 -111.5t113 -134t93 -171.5t36 -197.5
q0 -144 -47.5 -263t-140 -191t-213.5 -72q-86 0 -143.5 52t-81 131.5t-23.5 182.5zM559 203q0 13 -1 37t-1 36q3 156 -16.5 283.5t-75.5 249.5q-127 -13 -196.5 -84.5t-129.5 -232.5q66 -157 139.5 -227t190.5 -70q49 0 90 8z" />
    <glyph glyph-name="epsilon" unicode="&#x3b5;" horiz-adv-x="753" 
d="M637 236l22 -33l-49 -187q-30 -14 -117 -23t-157 -9q-122 0 -213.5 62t-91.5 163q0 79 71 160t146 112l2 8q-54 55 -79 103.5t-24 107.5q2 88 101.5 174.5t228.5 86.5q200 0 301 -56l-30 -196l-33 -25q-54 23 -151 39t-187 16q-28 0 -48 -3t-28.5 -5.5t-30.5 -12.5
t-37 -16q12 -115 132 -180q63 23 103.5 31t117.5 8h26q7 -48 -3 -116t-23 -87q-66 -5 -123 14.5t-131 76.5q-58 -26 -92.5 -54t-65.5 -73q44 -66 104 -90.5t154 -24.5q104 0 205 29z" />
    <glyph glyph-name="zeta" unicode="&#x3b6;" horiz-adv-x="690" 
d="M199 1440h32q78 -35 203 -59.5t232 -24.5q52 0 96 6q9 -33 15 -91.5t5 -99.5q-52 -47 -91.5 -85t-96 -98t-99 -113t-89 -123t-77.5 -136t-53 -144.5t-26 -154.5q17 -25 71 -49.5t112.5 -40.5t126 -39t102.5 -43q-12 -122 -74.5 -281t-128.5 -237l-43 13q71 163 88 266
q-7 9 -49.5 23t-127.5 37t-110 30q-90 27 -129 75t-39 140q0 90 24.5 181t72 175.5t100 159t126.5 153t131.5 134t133.5 123.5l-8 18q-65 -10 -162 -10q-206 0 -315 45z" />
    <glyph glyph-name="eta" unicode="&#x3b7;" horiz-adv-x="923" 
d="M61 0l146 834l-8 22l-123 -22l-4 43l334 84l81 -23l-36 -211q101 127 173 180.5t146 53.5q55 0 89 -75t34 -198q0 -81 -14 -164l-164 -948h-269l168 1004q9 83 9 114q0 34 -7 66l-34 10q-35 -22 -66 -52t-84 -93l-106 -625h-265z" />
    <glyph glyph-name="theta" unicode="&#x3b8;" horiz-adv-x="774" 
d="M268 -16q-57 0 -97.5 26.5t-63.5 77.5t-33.5 116t-10.5 150q0 182 38.5 380t98.5 356.5t141.5 262t160.5 103.5q53 0 100 -18t85 -54.5t60.5 -100t22.5 -146.5q0 -239 -74.5 -509.5t-193.5 -457t-234 -186.5zM461 242q105 237 153 405l-436 66q-19 -108 -16 -199
q0 -112 4 -135q85 -65 138.5 -91.5t156.5 -45.5zM334 1217q-73 -139 -129 -369h452q13 110 13 153q0 7 -1 21.5t-1 21.5q-53 85 -137.5 134.5t-196.5 38.5z" />
    <glyph glyph-name="iota" unicode="&#x3b9;" horiz-adv-x="526" 
d="M291 -16l-232 36l158 920h285l-131 -782l18 -15l105 80l30 -45z" />
    <glyph glyph-name="kappa" unicode="&#x3ba;" 
d="M688 801l-80 -123l162 -524l21 -7l122 97l23 -41l-231 -219l-179 28l-106 373l-41 -63l-53 -322h-265l144 834l-8 22l-123 -22l-4 43l333 84l82 -23l-82 -473l199 354q77 142 209 142q72 0 139 -31l-55 -228h-37z" />
    <glyph glyph-name="lambda" unicode="&#x3bb;" horiz-adv-x="876" 
d="M641 0l-72 645l-260 -645h-272l-12 31l510 919l-15 140q-11 105 -63 161q-149 -11 -273 -80l-34 5l-27 264q45 18 141 18q33 0 66 -6t78.5 -29t82 -60.5t67.5 -108t42 -164.5l107 -889q18 1 21.5 -0.5t20.5 1.5t20 3t19.5 4.5t19 5.5t19 6t19.5 6l8 -14
q-22 -77 -170 -229z" />
    <glyph glyph-name="uni03BC" unicode="&#x3bc;" horiz-adv-x="972" 
d="M-33 -424l242 1364h258l-94 -514q-27 -170 -11 -221l33 -10q36 21 66 47.5t80 83.5l110 614h271l-152 -790l16 -15l115 115l35 -49l-217 -217l-232 36l41 216q-200 -252 -344 -252q-52 0 -80 63l-20 -16q151 -220 123 -400l-8 -55h-232z" />
    <glyph glyph-name="nu" unicode="&#x3bd;" horiz-adv-x="868" 
d="M580 846v57q178 58 249 58q22 -21 38 -72t16 -94q0 -142 -118.5 -377.5t-256.5 -417.5l-285 -16q-12 191 -41 487.5t-45 359.5l-20 15l-90 -15l-7 54l312 76l98 -19q18 -92 32.5 -333.5t14.5 -444.5v-62h21q65 110 120.5 291t61.5 307z" />
    <glyph glyph-name="xi" unicode="&#x3be;" horiz-adv-x="673" 
d="M172 1130q0 95 59 172t147.5 116.5t184.5 39.5q137 0 225 -82l-55 -233l-53 -15q-109 76 -248 76q-63 0 -94 -8t-84 -35q-11 -85 22.5 -233t94.5 -185q185 99 272 99q5 -25 -5 -109.5t-30 -124.5q-12 -2 -33 -2q-23 0 -41.5 3t-38.5 12t-32.5 16t-39.5 24t-44 27
q-85 -43 -150 -152.5t-65 -213.5q0 -39 8 -70q22 -6 143.5 -34t208 -51.5t111.5 -39.5q-8 -124 -78 -269.5t-129 -215.5l-43 22q27 51 42 79.5t31.5 75t18.5 79.5q-16 8 -194 56t-199 56q-47 108 -47 223q0 321 254 465l2 11q-72 85 -96.5 188t-24.5 233z" />
    <glyph glyph-name="omicron" unicode="&#x3bf;" horiz-adv-x="724" 
d="M291 -16q-112 0 -178 102.5t-66 267.5q0 155 46.5 292t139 226t211.5 89q53 0 101.5 -19.5t88.5 -58t63.5 -104t23.5 -148.5q-1 -179 -58.5 -328t-156 -234t-215.5 -85zM537 221q18 24 33.5 99t23.5 147v47q-88 254 -262 254q-52 0 -111 -37q-25 -33 -50 -111.5
t-30 -125.5q-2 -12 -2 -37q59 -125 134.5 -191.5t154.5 -66.5q55 0 109 22z" />
    <glyph glyph-name="pi" unicode="&#x3c0;" horiz-adv-x="845" 
d="M74 692l-23 56l90 192h744l-35 -248h-162l-67 -463l14 -20q71 6 151 29l11 -15q-33 -54 -131 -132.5t-189 -106.5l-22 16l102 692h-240l-77 -479q-38 -229 -168 -229q-89 0 -86 174l10 22h92q34 0 53.5 15.5t28.5 56.5l76 440h-172z" />
    <glyph glyph-name="rho" unicode="&#x3c1;" horiz-adv-x="800" 
d="M303 -16q-59 0 -113 14l-51 -422h-186l102 641q13 116 55.5 243t105.5 240.5t152.5 187t184.5 73.5q115 0 174 -92t59 -255t-71 -310t-182.5 -233.5t-229.5 -86.5zM227 307l-6 -55q184 -115 293 -115q131 164 131 359q0 21 -4 61q-25 40 -55 66t-68.5 41t-77 24t-92.5 18
q-13 2 -20 3q-73 -144 -101 -402z" />
    <glyph glyph-name="sigma1" unicode="&#x3c2;" horiz-adv-x="692" 
d="M270 756q-75 -153 -75 -344q0 -72 12 -136q29 -10 139.5 -36.5t199.5 -55.5t113 -57q-12 -125 -72 -266.5t-136 -218.5l-43 22q75 108 106 264q-12 6 -189.5 42t-242.5 67q-27 99 -27 211q0 138 36.5 276t103.5 246q116 191 284 191q108 0 240 -56q0 -120 -60 -262
l-49 -10q-57 48 -151.5 82.5t-173.5 40.5h-15z" />
    <glyph glyph-name="sigma" unicode="&#x3c3;" horiz-adv-x="827" 
d="M799 662q-48 11 -160 32q45 -109 45 -235q0 -119 -40.5 -226t-122 -178t-185.5 -71q-125 0 -207 104t-82 266q0 115 33 223.5t92 194t148.5 137.5t195.5 52q217 0 336 -29l-10 -240zM596 498q0 107 -33 211q-103 14 -157 14q-124 0 -205 -41q-51 -112 -64 -160
q-6 -19 -10 -61q145 -254 303 -254q47 0 96 14q33 51 51.5 127t18.5 150z" />
    <glyph glyph-name="tau" unicode="&#x3c4;" horiz-adv-x="737" 
d="M741 713h-299q-110 -164 -110 -420q0 -26 4 -72q4 -4 16 -10q36 -8 111 -8q94 0 168 55l10 -20q-58 -87 -154 -170.5t-170 -83.5q-167 0 -167 190q0 112 60 264t148 275h-309l-16 55l88 172h653z" />
    <glyph glyph-name="upsilon" unicode="&#x3c5;" horiz-adv-x="880" 
d="M123 279q1 76 16 177t31 175.5t45 195.5l-8 23l-170 -19l-4 46l360 84q37 -24 82 -76q-207 -282 -270 -475q58 -69 151 -112.5t191 -43.5q59 0 110 33q30 72 50 192q21 132 16 205l-141 197l6 30q41 15 119.5 32.5t115.5 17.5q51 -65 51 -267q0 -122 -58.5 -253.5
t-143.5 -230t-183.5 -162.5t-175.5 -64q-86 0 -138.5 75t-51.5 220z" />
    <glyph glyph-name="phi" unicode="&#x3c6;" horiz-adv-x="1087" 
d="M1081 618q0 -142 -74.5 -274.5t-193 -222t-252.5 -121.5l-43 -424h-223l70 412q-164 11 -241 89.5t-77 246.5q0 106 23 208t60 179.5t76 134.5t79 94h235l8 -27q-55 -32 -114 -81t-115.5 -112t-100.5 -141t-61 -155q-6 -21 -6 -41q111 -100 275 -156q119 734 464 734
q114 0 162.5 -87t48.5 -256zM598 362l-18 -180q106 -16 194 -16q49 56 91 176t53 217q4 32 4 47q-54 76 -115 122.5t-154 62.5q-14 -40 -23.5 -109.5t-19 -182t-12.5 -137.5z" />
    <glyph glyph-name="chi" unicode="&#x3c7;" horiz-adv-x="915" 
d="M516 -434l-18 10l-17 592l-264 -592h-240l-12 29l391 690l-143 510l-178 6l-8 41l327 102l27 -14l27 -551l219 551h282l23 -33l-393 -639l141 -489l184 51l19 -37z" />
    <glyph glyph-name="psi" unicode="&#x3c8;" horiz-adv-x="1187" 
d="M616 1214h234l-170 -946q64 -6 121 -6q77 0 113 5t67 22q45 63 45 196q0 87 -16 162l-107 205l2 59q42 15 116.5 32.5t111.5 17.5q53 -64 53 -267q0 -84 -24 -175t-72 -178.5t-113 -160t-155 -123t-191 -65.5l-72 -408h-88l35 402q-61 2 -110 12t-96.5 34.5t-79 63
t-51 101t-19.5 145.5q0 34 2 66t7.5 69t9.5 62t14 70t15 65.5t19 76t19 76.5l-15 17l-188 -13l-8 46l335 84l103 -82q-75 -112 -123.5 -220t-103.5 -260q105 -64 299 -106z" />
    <glyph glyph-name="omega" unicode="&#x3c9;" horiz-adv-x="1173" 
d="M1069 537q0 -144 -41.5 -269t-122.5 -204.5t-186 -79.5q-73 0 -129 59t-76 166h-8q-53 -100 -123 -162.5t-143 -62.5q-58 0 -97 23.5t-59 70t-27.5 100.5t-7.5 129q0 221 87.5 389.5t254.5 264.5l121 -99l-10 -49q-48 -15 -88 -33t-87 -51t-81.5 -74t-63.5 -105t-43 -142
q-4 -16 -8 -60q64 -58 132 -82t155 -24q31 0 45 2l10 16q-35 120 -35 240q0 87 11 151q61 25 147 25q98 0 139 -25q-20 -93 -72 -208.5t-108 -192.5l2 -10q88 -31 174 -31q61 0 107.5 11t105.5 40q10 52 10 94q2 108 -12.5 196t-66.5 184t-142 167l21 39h198
q51 -64 84 -172.5t33 -230.5z" />
    <glyph glyph-name="iotadieresis" unicode="&#x3ca;" horiz-adv-x="526" 
d="M291 -16l-232 36l158 920h285l-131 -782l18 -15l105 80l30 -45zM244 1143l-135 49q60 103 81 205l158 -23q-57 -165 -104 -231zM588 1143l-135 49q60 98 82 205l159 -23q-55 -159 -106 -231z" />
    <glyph glyph-name="upsilondieresis" unicode="&#x3cb;" horiz-adv-x="880" 
d="M123 279q1 76 16 177t31 175.5t45 195.5l-8 23l-170 -19l-4 46l360 84q37 -24 82 -76q-207 -282 -270 -475q58 -69 151 -112.5t191 -43.5q59 0 110 33q30 72 50 192q21 132 16 205l-141 197l6 30q41 15 119.5 32.5t115.5 17.5q51 -65 51 -267q0 -122 -58.5 -253.5
t-143.5 -230t-183.5 -162.5t-175.5 -64q-86 0 -138.5 75t-51.5 220zM477 1143l-135 49q62 105 82 205l158 -23q-56 -162 -105 -231zM821 1143l-135 49q60 98 82 205l160 -23q-54 -157 -107 -231z" />
    <glyph glyph-name="omicrontonos" unicode="&#x3cc;" horiz-adv-x="724" 
d="M291 -16q-112 0 -178 102.5t-66 267.5q0 155 46.5 292t139 226t211.5 89q53 0 101.5 -19.5t88.5 -58t63.5 -104t23.5 -148.5q-1 -179 -58.5 -328t-156 -234t-215.5 -85zM537 221q18 24 33.5 99t23.5 147v47q-88 254 -262 254q-52 0 -111 -37q-25 -33 -50 -111.5
t-30 -125.5q-2 -12 -2 -37q59 -125 134.5 -191.5t154.5 -66.5q55 0 109 22zM549 1440h199l28 -39l-266 -350l-47 4z" />
    <glyph glyph-name="upsilontonos" unicode="&#x3cd;" horiz-adv-x="880" 
d="M602 1440h199l28 -39l-266 -350l-47 4zM123 279q1 76 16 177t31 175.5t45 195.5l-8 23l-170 -19l-4 46l360 84q37 -24 82 -76q-207 -282 -270 -475q58 -69 151 -112.5t191 -43.5q59 0 110 33q30 72 50 192q21 132 16 205l-141 197l6 30q41 15 119.5 32.5t115.5 17.5
q51 -65 51 -267q0 -122 -58.5 -253.5t-143.5 -230t-183.5 -162.5t-175.5 -64q-86 0 -138.5 75t-51.5 220z" />
    <glyph glyph-name="omegatonos" unicode="&#x3ce;" horiz-adv-x="1173" 
d="M1069 537q0 -144 -41.5 -269t-122.5 -204.5t-186 -79.5q-73 0 -129 59t-76 166h-8q-53 -100 -123 -162.5t-143 -62.5q-58 0 -97 23.5t-59 70t-27.5 100.5t-7.5 129q0 221 87.5 389.5t254.5 264.5l121 -99l-10 -49q-48 -15 -88 -33t-87 -51t-81.5 -74t-63.5 -105t-43 -142
q-4 -16 -8 -60q64 -58 132 -82t155 -24q31 0 45 2l10 16q-35 120 -35 240q0 87 11 151q61 25 147 25q98 0 139 -25q-20 -93 -72 -208.5t-108 -192.5l2 -10q88 -31 174 -31q61 0 107.5 11t105.5 40q10 52 10 94q2 108 -12.5 196t-66.5 184t-142 167l21 39h198
q51 -64 84 -172.5t33 -230.5zM682 1440h199l28 -39l-266 -350l-47 4z" />
    <glyph glyph-name="uni03D8" unicode="&#x3d8;" horiz-adv-x="1114" 
d="M1178 766q-3 -178 -71 -340t-193 -277.5t-283 -150.5l-84 -420h-234l82 416q-159 28 -246.5 143.5t-87.5 298.5q0 152 52 294t141 248t216.5 170t270.5 64q215 0 326 -116t111 -330zM547 66q81 0 147.5 107t103 285t36.5 388q0 131 -26.5 209t-80.5 78q-84 0 -159 -116.5
t-117.5 -295.5t-42.5 -363q0 -133 34 -212.5t105 -79.5z" />
    <glyph glyph-name="uni03D9" unicode="&#x3d9;" horiz-adv-x="724" 
d="M127 -422l66 430q-69 38 -107.5 129.5t-38.5 216.5q0 155 46.5 292t139 226t211.5 89q53 0 101.5 -19.5t88.5 -58t63.5 -104t23.5 -148.5q-1 -216 -82.5 -383.5t-210.5 -231.5l-68 -438h-233zM537 221q18 24 33.5 99t23.5 147v47q-88 254 -262 254q-52 0 -111 -37
q-25 -33 -50 -111.5t-30 -125.5q-2 -12 -2 -37q59 -125 134.5 -191.5t154.5 -66.5q55 0 109 22z" />
    <glyph glyph-name="uni03DA" unicode="&#x3da;" horiz-adv-x="815" 
d="M870 764h-274q-67 0 -116.5 -33.5t-74.5 -88t-36 -110.5t-11 -116q0 -202 207 -223l197 -21q43 -5 43 -82q0 -63 -81.5 -256t-148.5 -268l-69 8q38 70 93.5 221t64.5 205h-152q-184 0 -290.5 86.5t-106.5 271.5q0 119 47 226.5t122.5 180t168 115t184.5 42.5l219 51h47z
" />
    <glyph glyph-name="uni03DB" unicode="&#x3db;" horiz-adv-x="815" 
d="M870 764h-274q-67 0 -116.5 -33.5t-74.5 -88t-36 -110.5t-11 -116q0 -202 207 -223l197 -21q43 -5 43 -82q0 -63 -81.5 -256t-148.5 -268l-69 8q37 69 88 219.5t59 206.5h-141q-184 0 -290.5 86.5t-106.5 271.5q0 119 47 226.5t122.5 180t168 115t184.5 42.5l219 51h47z
" />
    <glyph glyph-name="uni03DC" unicode="&#x3dc;" horiz-adv-x="911" 
d="M496 0h-318l205 1194h692l-10 -78h-377l-88 -500l297 25l-20 -123l-289 25z" />
    <glyph glyph-name="uni03DD" unicode="&#x3dd;" horiz-adv-x="858" 
d="M131 -426l236 1366h614l-10 -76h-303l-86 -504l219 25l-19 -119l-211 25l-125 -717h-315z" />
    <glyph glyph-name="uni03DE" unicode="&#x3de;" horiz-adv-x="759" 
d="M391 -180h-100l284 606h-499l387 768h102l-225 -459h498z" />
    <glyph glyph-name="uni03DF" unicode="&#x3df;" horiz-adv-x="759" 
d="M469 0h-96l217 444h-508l375 750h90l-215 -440h512z" />
    <glyph glyph-name="uni03E0" unicode="&#x3e0;" horiz-adv-x="1204" 
d="M1116 -403h-305q55 303 55 493q0 80 -14 199l-473 -350l-35 59l487 369q-48 151 -90 213l-505 -377l-33 59l504 375q-41 69 -75.5 115t-85 92t-108 72t-139 42.5t-184.5 16.5l8 61h188q208 0 372.5 -73t270 -202t160.5 -302t55 -377q0 -68 -53 -485z" />
    <glyph glyph-name="uni03E1" unicode="&#x3e1;" horiz-adv-x="1007" 
d="M741 -522l-243 86q70 160 112 299.5t54 296.5l-494 -174l-18 69l516 183q-4 172 -25 247l-541 -202l-20 65l536 213q-34 89 -62.5 150t-67 122t-82.5 102.5t-104.5 77t-137.5 60.5l22 68q165 -42 297.5 -111.5t221.5 -154.5t148 -187.5t85.5 -209t26.5 -222.5
q0 -186 -58 -370t-166 -408z" />
    <glyph glyph-name="uni0400" unicode="&#x400;" horiz-adv-x="1001" 
d="M20 0l5 43l122 25l181 1054l-115 27l8 45h866l-55 -332h-57l-94 254h-238l-82 -483l320 24l-19 -118l-313 24l-84 -483h235l250 291l47 -9l-114 -362h-863zM449 1444l81 108l308 -249l-11 -25l-378 139v27z" />
    <glyph glyph-name="afii10023" unicode="&#x401;" horiz-adv-x="1001" 
d="M20 0l5 43l122 25l181 1054l-115 27l8 45h866l-55 -332h-57l-94 254h-238l-82 -483l320 24l-19 -118l-313 24l-84 -483h235l250 291l47 -9l-114 -362h-863zM600 1278l-137 49q62 105 82 205l160 -23q-54 -156 -105 -231zM944 1278l-137 49q60 98 82 205l160 -23
q-49 -152 -105 -231z" />
    <glyph glyph-name="afii10051" unicode="&#x402;" horiz-adv-x="1224" 
d="M942 1116h-192l-78 -452q142 32 239 32q160 0 239 -70t79 -198q0 -105 -34.5 -192t-91.5 -141t-125.5 -83.5t-139.5 -29.5q-53 0 -109.5 12t-89.5 29l39 233h45l68 -186q0 -2 4 -2q44 0 76 99t32 216q0 120 -26.5 177.5t-88.5 57.5q-64 0 -126 -22l-105 -596h-412l7 43
l108 23l178 1050h-92l-199 -315h-57l70 393h997l-63 -363h-56z" />
    <glyph glyph-name="afii10052" unicode="&#x403;" horiz-adv-x="903" 
d="M162 66l174 1062l-129 21l6 45h834l-62 -393h-35l-125 315h-174l-180 -1048l121 -23l-6 -45h-566l5 43zM889 1552l84 -108v-27l-379 -139l-10 20z" />
    <glyph glyph-name="afii10053" unicode="&#x404;" horiz-adv-x="1021" 
d="M1071 829h-45l-96 287q-56 25 -127 25q-67 0 -123.5 -29t-96 -76.5t-71 -115.5t-50.5 -138t-32 -151l447 24l-19 -118l-438 24q0 -17 -1 -48t-1 -46q0 -406 239 -406q86 0 160.5 62t108.5 141h57l-31 -194q-56 -35 -161.5 -60.5t-204.5 -25.5q-86 0 -161 14.5t-142.5 48
t-115.5 84.5t-76 129t-28 176q0 170 57.5 315.5t157 246t236 157.5t291.5 57q87 0 176 -22t137 -45z" />
    <glyph glyph-name="afii10054" unicode="&#x405;" horiz-adv-x="899" 
d="M371 -16q-163 0 -330 82l57 346h66l59 -297q49 -34 86.5 -45t87.5 -11q40 0 77.5 11t71.5 33.5t54.5 64.5t20.5 98q0 44 -24 79t-62.5 60t-85 49t-93.5 51.5t-85.5 61t-62.5 85t-24 116.5q0 105 39 190.5t105 140t152 84t182 29.5q103 0 187 -22t134 -55l-55 -320h-66
l-65 291q-29 18 -57.5 24.5t-80.5 6.5q-89 0 -153 -57.5t-64 -135.5q0 -47 25 -82.5t65.5 -59t89 -45.5t97.5 -48t89.5 -59.5t65.5 -88t25 -125.5q0 -119 -42.5 -208.5t-117 -141.5t-167 -77t-201.5 -25z" />
    <glyph glyph-name="afii10055" unicode="&#x406;" horiz-adv-x="673" 
d="M29 0l4 43l123 23l180 1062l-115 21l8 45h545l-6 -43l-115 -23l-182 -1060l107 -23l-5 -45h-544z" />
    <glyph glyph-name="afii10056" unicode="&#x407;" horiz-adv-x="673" 
d="M29 0l4 43l123 23l180 1062l-115 21l8 45h545l-6 -43l-115 -23l-182 -1060l107 -23l-5 -45h-544zM367 1278l-138 49q62 105 82 205l160 -23q-55 -159 -104 -231zM711 1278l-138 49q60 98 82 205l160 -23q-50 -155 -104 -231z" />
    <glyph glyph-name="afii10057" unicode="&#x408;" horiz-adv-x="763" 
d="M287 -16q-182 0 -295 55l61 375h62l49 -336q40 -12 67 -12q21 0 36.5 5.5t27.5 21t19 27.5t15 42t11.5 45.5t11.5 56.5l146 862l-123 23l10 45h565l-6 -43l-131 -25l-135 -794q-26 -154 -139.5 -251t-251.5 -97z" />
    <glyph glyph-name="afii10058" unicode="&#x409;" horiz-adv-x="1480" 
d="M467 0l8 43l137 23l179 1054h-201q-136 -575 -271 -882q-22 -49 -37.5 -78t-44.5 -67t-61.5 -58.5t-83.5 -35.5t-115 -15l39 241l54 21h180q74 173 148 414t120 458l-168 31l10 45h850l-8 -43l-129 -23l-74 -426h152q164 0 258 -67t94 -199q0 -198 -147 -317t-408 -119
h-481zM1018 629h-31l-96 -555h43q126 0 189 97t63 265q0 98 -40.5 145.5t-127.5 47.5z" />
    <glyph glyph-name="afii10059" unicode="&#x40a;" horiz-adv-x="1677" 
d="M664 0l6 43l123 20l88 519h-349l-86 -516l107 -21l-8 -45h-537l6 43l123 23l180 1060l-114 23l8 45h539l-9 -43l-112 -21l-82 -475h348l78 471l-115 23l8 45h539l-6 -43l-115 -23l-82 -473h146q167 0 259.5 -65t92.5 -195q0 -181 -146 -288t-405 -107h-485zM1225 582h-37
l-84 -508h31q102 0 160.5 88.5t58.5 234.5q0 91 -35 138t-94 47z" />
    <glyph glyph-name="afii10060" unicode="&#x40b;" horiz-adv-x="1310" 
d="M961 1116h-201l-80 -452q144 32 233 32q159 0 234.5 -59t75.5 -186q0 -33 -11 -101l-47 -282l109 -23l-8 -45h-516l4 43l96 23l57 337q6 35 6 70q0 145 -120 145q-39 0 -121 -20l-92 -530l90 -23l-6 -45h-521l7 43l122 23l181 1050h-129l-179 -315h-55l68 393h997
l-63 -363h-58z" />
    <glyph glyph-name="afii10061" unicode="&#x40c;" horiz-adv-x="1185" 
d="M655 1128l-86 -483h101l164 307q78 147 141.5 203.5t152.5 56.5q27 0 50.5 -7t35 -13.5t33.5 -20.5l-73 -249h-33l-160 129l-156 -293l236 -670l88 -51l-4 -37h-391l-174 571h-23l-86 -503l92 -23l-6 -45h-537l5 43l125 23l182 1062l-117 21l6 45h539l-6 -43zM983 1552
l84 -108v-27l-379 -139l-10 20z" />
    <glyph glyph-name="uni040D" unicode="&#x40d;" horiz-adv-x="1339" 
d="M637 1128l-127 -753l491 565l29 188l-117 21l9 45h522l-6 -43l-99 -23l-180 -1060l109 -23l-6 -45h-539l6 43l123 23l129 747l-492 -559l-32 -186l106 -23l-6 -45h-537l5 43l122 23l179 1062l-115 21l6 45h539l-6 -43zM483 1444l82 108l307 -249l-10 -25l-379 139v27z
" />
    <glyph glyph-name="afii10062" unicode="&#x40e;" horiz-adv-x="1058" 
d="M524 1133l205 -562l272 541l-176 41l4 41h398l-6 -39l-119 -29l-432 -819q-74 -133 -136 -201t-133.5 -95t-181.5 -27l31 196l49 21h211l20 32l-327 904l-70 16l6 41h518l-6 -39zM715 1327q-98 0 -175 28.5t-118.5 85t-28.5 130.5l234 88h37l-39 -225q6 -20 37.5 -32.5
t60.5 -12.5t66.5 12.5t48.5 32.5l41 225h39l198 -88q-18 -111 -135 -177.5t-266 -66.5z" />
    <glyph glyph-name="afii10145" unicode="&#x40f;" horiz-adv-x="1265" 
d="M1257 1128l-182 -1060l109 -23l-6 -45h-461v-287h-330l100 287h-475l4 43l123 23l180 1062l-114 21l8 45h520l-6 -43l-98 -23l-183 -1054h324l178 1054l-96 21l8 45h520l-6 -43z" />
    <glyph glyph-name="afii10017" unicode="&#x410;" horiz-adv-x="1075" 
d="M-61 0l8 39l121 49l704 1106h133l119 -1139l59 -14l-8 -41h-502l5 39l118 22l-22 295h-338l-170 -262l176 -53l-8 -41h-395zM377 422h291l-29 403h-10z" />
    <glyph glyph-name="afii10018" unicode="&#x411;" horiz-adv-x="1026" 
d="M864 1118h-211l-69 -411h47q36 0 68.5 -2t77.5 -8.5t82.5 -18t76.5 -32.5t66 -49t44 -71t17 -96q0 -105 -38 -189t-102 -135.5t-144 -78.5t-169 -27h-590l5 43l137 23l180 1062l-129 21l6 45h856l-57 -363h-35zM586 633h-15l-94 -559l60 2q89 3 145.5 89.5t56.5 260.5
q0 104 -33.5 155.5t-119.5 51.5z" />
    <glyph glyph-name="afii10019" unicode="&#x412;" horiz-adv-x="1040" 
d="M20 0l7 43l123 25l182 1060l-119 21l8 45h518q170 0 260.5 -68.5t90.5 -191.5q0 -64 -23.5 -115.5t-67.5 -86t-95.5 -58t-117.5 -39.5v-8q113 0 187 -67.5t74 -197.5q0 -150 -131 -256t-334 -106h-562zM463 80h24q117 0 180.5 77t63.5 238q0 85 -37 135t-116 50h-25z
M563 637h19q78 0 132 88.5t54 241.5q0 70 -27.5 112.5t-85.5 42.5h-12z" />
    <glyph glyph-name="afii10020" unicode="&#x413;" horiz-adv-x="903" 
d="M162 66l174 1062l-129 21l6 45h834l-62 -393h-35l-125 315h-174l-180 -1048l121 -23l-6 -45h-566l5 43z" />
    <glyph glyph-name="afii10021" unicode="&#x414;" horiz-adv-x="1099" 
d="M858 0h-674l-196 -307h-49l57 381h129q118 236 230.5 523t172.5 523l-161 29l6 45h819l-6 -43l-129 -23l-185 -1054h199l-57 -381h-49zM211 74h356l178 1044h-141q-66 -266 -178.5 -564.5t-214.5 -479.5z" />
    <glyph glyph-name="afii10022" unicode="&#x415;" horiz-adv-x="1001" 
d="M20 0l5 43l122 25l181 1054l-115 27l8 45h866l-55 -332h-57l-94 254h-238l-82 -483l320 24l-19 -118l-313 24l-84 -483h235l250 291l47 -9l-114 -362h-863z" />
    <glyph glyph-name="afii10024" unicode="&#x416;" horiz-adv-x="1630" 
d="M637 66l84 505h-39l-328 -571h-372l6 37l104 51l422 672l-49 291l-199 -129h-35l7 249q76 41 135 41q27 0 47.5 -2.5t37.5 -11t29 -16.5t22 -26.5t16.5 -34t13.5 -46t11 -55t11 -68.5l47 -307h127l82 483l-112 21l10 45h512l-6 -43l-111 -23l-84 -483h125l149 307
q71 148 133 204t150 56q27 0 51 -7t35 -13.5t31 -20.5l-76 -249h-35l-155 129l-152 -299l205 -664l88 -51l-6 -37h-369l-147 571h-41l-84 -503l102 -23l-6 -45h-514l6 43z" />
    <glyph glyph-name="afii10025" unicode="&#x417;" horiz-adv-x="897" 
d="M358 61q97 0 157 90t60 230q0 136 -110 182l-197 -16l21 121l196 -31q53 28 93 113t40 194q0 102 -24.5 146.5t-97.5 44.5q-51 0 -97 -25l-180 -283h-72l52 318q65 23 176 45t205 22q148 0 251 -71t103 -189q0 -114 -79 -212t-196 -124v-4q33 -2 69.5 -17t73 -42
t60 -72.5t23.5 -101.5q0 -78 -31.5 -148.5t-90.5 -126t-153 -88t-211 -32.5q-95 0 -181.5 25.5t-128.5 50.5t-54 42l35 217h92q0 -45 9.5 -87t30.5 -82t61 -64.5t95 -24.5z" />
    <glyph glyph-name="afii10026" unicode="&#x418;" horiz-adv-x="1339" 
d="M637 1128l-127 -753l491 565l29 188l-117 21l9 45h522l-6 -43l-99 -23l-180 -1060l109 -23l-6 -45h-539l6 43l123 23l129 747l-492 -559l-32 -186l106 -23l-6 -45h-537l5 43l122 23l179 1062l-115 21l6 45h539l-6 -43z" />
    <glyph glyph-name="afii10027" unicode="&#x419;" horiz-adv-x="1339" 
d="M637 1128l-127 -753l491 565l29 188l-117 21l9 45h522l-6 -43l-99 -23l-180 -1060l109 -23l-6 -45h-539l6 43l123 23l129 747l-492 -559l-32 -186l106 -23l-6 -45h-537l5 43l122 23l179 1062l-115 21l6 45h539l-6 -43zM840 1327q-98 0 -175 28.5t-118.5 85t-28.5 130.5
l234 88h36l-38 -225q6 -20 37.5 -32.5t60.5 -12.5t66.5 12.5t48.5 32.5l41 225h38l199 -88q-18 -111 -135 -177.5t-266 -66.5z" />
    <glyph glyph-name="afii10028" unicode="&#x41a;" horiz-adv-x="1185" 
d="M655 1128l-86 -483h101l164 307q78 147 141.5 203.5t152.5 56.5q27 0 50.5 -7t35 -13.5t33.5 -20.5l-73 -249h-33l-160 129l-156 -293l236 -670l88 -51l-4 -37h-391l-174 571h-23l-86 -503l92 -23l-6 -45h-537l5 43l125 23l182 1062l-117 21l6 45h539l-6 -43z" />
    <glyph glyph-name="afii10029" unicode="&#x41b;" horiz-adv-x="1095" 
d="M602 66l180 1054h-164q-46 -211 -104.5 -404.5t-91.5 -280t-80 -197.5q-19 -45 -36.5 -77.5t-47 -68t-64.5 -57.5t-88 -36.5t-118 -14.5l37 241l51 21h180q81 195 157.5 433.5t116.5 438.5l-163 31l6 45h848l-7 -43l-114 -23l-185 -1060l121 -23l-4 -45h-567l6 43z" />
    <glyph glyph-name="afii10030" unicode="&#x41c;" horiz-adv-x="1556" 
d="M977 0l4 39l123 24l86 875h-10l-484 -954h-100l-152 995h-10l-205 -889l138 -49l-5 -41h-364l6 39l137 53l250 1024l-133 37l8 41h449l116 -766h5l387 766h409l-4 -41l-125 -39l-86 -1059l96 -14l-4 -41h-532z" />
    <glyph glyph-name="afii10031" unicode="&#x41d;" horiz-adv-x="1292" 
d="M20 0l5 43l122 23l181 1060l-115 23l8 45h539l-8 -43l-113 -21l-82 -481h348l78 477l-115 23l9 45h538l-6 -43l-115 -21l-182 -1062l107 -23l-7 -45h-536l4 43l123 20l90 525h-346l-90 -522l106 -21l-6 -45h-537z" />
    <glyph glyph-name="afii10032" unicode="&#x41e;" horiz-adv-x="1114" 
d="M1176 766q-2 -120 -34.5 -235.5t-93.5 -213.5t-142 -173t-186 -117.5t-220 -42.5q-207 0 -324 120.5t-117 331.5q0 152 52 294t141 248t216.5 170t270.5 64q215 0 326 -116t111 -330zM545 66q81 0 147 107t102.5 285t36.5 388q0 131 -26 209t-80 78q-84 0 -159 -116.5
t-117.5 -295.5t-42.5 -363q0 -133 34 -212.5t105 -79.5z" />
    <glyph glyph-name="afii10033" unicode="&#x41f;" horiz-adv-x="1261" 
d="M147 66l181 1062l-129 21l6 45h1177l-4 -43l-114 -23l-183 -1060l107 -23l-4 -45h-531l6 43l117 23l178 1054h-317l-180 -1052l98 -23l-6 -45h-529l5 43z" />
    <glyph glyph-name="afii10034" unicode="&#x420;" horiz-adv-x="1024" 
d="M20 0l3 39l124 27l183 1062l-117 21l8 45h547q160 0 259 -79t99 -210q0 -120 -40.5 -208t-113 -138t-162.5 -73t-200 -23h-78l-69 -395l141 -27l-4 -41h-580zM545 539h22q65 0 114.5 53t74 135.5t24.5 177.5q0 91 -28 147.5t-90 59.5h-19z" />
    <glyph glyph-name="afii10035" unicode="&#x421;" horiz-adv-x="1021" 
d="M1085 829h-65l-92 293q-43 19 -107 19q-81 0 -148.5 -41t-113 -108.5t-76.5 -156t-45 -181t-14 -187.5q0 -66 5 -119.5t20.5 -109t40.5 -93t67.5 -61t99.5 -23.5q86 0 161.5 62t111.5 141h57l-35 -194q-56 -35 -162.5 -60.5t-205.5 -25.5q-105 0 -195.5 26t-163 77.5
t-114 138t-41.5 198.5q0 182 59 332.5t161.5 249t240 152.5t294.5 54q87 0 175.5 -21.5t136.5 -45.5z" />
    <glyph glyph-name="afii10036" unicode="&#x422;" horiz-adv-x="985" 
d="M168 0l8 43l123 23l176 1050h-131l-199 -315h-57l70 393h977l-68 -393h-57l-90 315h-129l-177 -1048l107 -23l-6 -45h-547z" />
    <glyph glyph-name="afii10037" unicode="&#x423;" horiz-adv-x="1058" 
d="M524 1133l205 -562l272 541l-176 41l4 41h398l-6 -39l-119 -29l-432 -819q-74 -133 -136 -201t-133.5 -95t-181.5 -27l31 196l49 21h211l20 32l-327 904l-70 16l6 41h518l-6 -39z" />
    <glyph glyph-name="afii10038" unicode="&#x424;" horiz-adv-x="1294" 
d="M473 66l21 127q-201 12 -312.5 111t-111.5 245q0 216 142 343.5t427 151.5l23 127l-119 21l8 45h522l-8 -43l-117 -23l-20 -124q209 -12 317.5 -102t108.5 -240q0 -463 -574 -512l-20 -125l108 -23l-8 -45h-520l8 43zM915 979l-124 -723q70 0 128 67.5t89.5 170.5
t31.5 211q0 105 -31 180t-94 94zM629 979q-67 9 -125 -63t-89.5 -181.5t-31.5 -218.5q0 -100 30 -171t91 -89z" />
    <glyph glyph-name="afii10039" unicode="&#x425;" horiz-adv-x="1040" 
d="M516 0l6 39l113 29l-154 401l-291 -381l162 -47l-4 -41h-416l9 39l118 31l387 485l-221 580l-84 18l6 41h510l-8 -39l-96 -20l131 -336l242 311l-109 43l6 41h379l-8 -39l-182 -59l-297 -377l258 -662l76 -16l-7 -41h-526z" />
    <glyph glyph-name="afii10040" unicode="&#x426;" horiz-adv-x="1298" 
d="M147 66l181 1062l-115 21l6 45h520l-4 -43l-96 -23l-182 -1054h323l178 1054l-96 21l6 45h521l-7 -43l-112 -23l-183 -1054h187l-57 -381h-50l-102 307h-1045l5 43z" />
    <glyph glyph-name="afii10041" unicode="&#x427;" horiz-adv-x="1153" 
d="M639 66l76 446q-107 -25 -215 -25q-147 0 -232 56t-82 176q0 32 13 108l53 301l-111 21l11 45h510l-9 -43l-86 -23l-59 -337q-8 -36 -8 -84q0 -138 123 -138q51 0 104 15l123 544l-113 21l8 45h521l-6 -43l-130 -23l-182 -1060l121 -23l-6 -45h-586l8 43z" />
    </font>
</defs>
</svg>
