<?xml version="1.0" standalone="no"?>
<!DOCTYPE svg PUBLIC "-//W3C//DTD SVG 1.1//EN" "http://www.w3.org/Graphics/SVG/1.1/DTD/svg11.dtd" >
<svg xmlns="http://www.w3.org/2000/svg" xmlns:xlink="http://www.w3.org/1999/xlink" version="1.1">
<metadata>
Created by FontForge 20201107 at Sun Feb  1 19:50:24 2026
 By 
Copyright (c) 2008 Typotheque.com All rights reserved.
</metadata>
<defs>
<font id="GretaDisNarProLig" horiz-adv-x="1015" >
  <font-face 
    font-family="Greta Dis Nar Pro Lig"
    font-weight="300"
    font-stretch="condensed"
    units-per-em="2048"
    panose-1="2 0 5 6 0 0 0 2 0 4"
    ascent="1454"
    descent="-594"
    x-height="922"
    cap-height="1194"
    bbox="-883 -786 2337 1819"
    underline-thickness="102"
    underline-position="-204"
    unicode-range="U+0020-FB04"
  />
<missing-glyph horiz-adv-x="1458" 
d="M625 768v55h55v-55h-55zM778 1075v55h56v-55h-56zM625 1075v55h55v-55h-55zM471 1075v55h55v-55h-55zM164 0v55h55v-55h-55zM317 0v55h56v-55h-56zM471 0v55h55v-55h-55zM625 0v55h55v-55h-55zM778 0v55h56v-55h-56zM164 154v55h55v-55h-55zM164 307v55h55v-55h-55z
M164 461v55h55v-55h-55zM164 614v56h55v-56h-55zM164 768v55h55v-55h-55zM164 922v55h55v-55h-55zM164 1075v55h55v-55h-55zM164 1229v55h55v-55h-55zM164 1382v56h55v-56h-55zM317 1382v56h56v-56h-56zM471 1382v56h55v-56h-55zM625 1382v56h55v-56h-55zM778 1382v56h56
v-56h-56zM932 1382v56h55v-56h-55zM1085 1382v56h56v-56h-56zM1085 0v55h56v-55h-56zM932 0v55h55v-55h-55zM1239 0v55h55v-55h-55zM1239 1382v56h55v-56h-55zM625 614v56h55v-56h-55zM625 307v55h55v-55h-55zM778 768v55h56v-55h-56zM932 768v55h55v-55h-55zM932 922v55h55
v-55h-55zM932 1075v55h55v-55h-55zM1239 1229v55h55v-55h-55zM1239 1075v55h55v-55h-55zM1239 768v55h55v-55h-55zM1239 614v56h55v-56h-55zM1239 307v55h55v-55h-55zM1239 154v55h55v-55h-55zM1239 461v55h55v-55h-55zM1239 922v55h55v-55h-55z" />
    <glyph glyph-name="f_f" unicode="ff" horiz-adv-x="983" 
d="M510 0v20l133 39v813h-340v-806l158 -43v-23h-434v20l133 41v811h-137v13l137 39v116q0 194 102 296t264 102q122 0 258 -62q59 45 113 56q51 14 90 14q46 0 80 -10l-27 -162h-10l-188 98q-58 -61 -58 -209v-241h177v-50h-177v-809l160 -40v-23h-434zM303 1102v-180h332
l8 2v178q0 88 51 170q-133 74 -303 92q-47 -29 -67.5 -104.5t-20.5 -157.5z" />
    <glyph glyph-name="fi" unicode="fi" horiz-adv-x="942" 
d="M27 0v20l133 41v811h-137v13l137 39v178q0 105 53.5 185.5t136 120.5t176.5 40q105 0 189 -47l-58 -156l-299 129q-32 -32 -42.5 -82.5t-10.5 -128.5v-241h316l100 18h61v-893l142 -24v-23h-418v20l135 27v825h-336v-806l156 -43v-23h-434z" />
    <glyph glyph-name="fl" unicode="fl" horiz-adv-x="927" 
d="M508 0v20l133 39v1233l-283 82q-32 -32 -43.5 -83.5t-11.5 -127.5v-241h211v-50h-211v-806l158 -43v-23h-434v20l131 41v811h-135v13l135 39v178q0 105 54 185.5t137 120.5t177 40q62 0 123 -18l37 10h100v-1379l140 -38v-23h-418z" />
    <glyph glyph-name="f_f_i" unicode="ffi" horiz-adv-x="1425" 
d="M989 0v20l133 27v825h-338v-809l160 -40v-23h-434v20l133 39v813h-340v-806l158 -43v-23h-434v20l133 41v811h-137v13l137 39v116q0 194 102 296t264 102q122 0 258 -62q59 45 113 56q51 14 90 14q35 0 80 -10l-27 -162h-10l-188 98q-58 -61 -58 -209v-241h318l102 18h62
v-893l139 -24v-23h-416zM643 1102q0 88 51 170q-133 74 -303 92q-47 -29 -67.5 -104.5t-20.5 -157.5v-180h332l8 2v178z" />
    <glyph glyph-name="f_f_l" unicode="ffl" horiz-adv-x="1411" 
d="M991 0v20l133 39v1229l-282 86q-58 -58 -58 -211v-241h213v-50h-213v-806l160 -43v-23h-434v20l133 41v811h-340v-806l158 -43v-23h-434v20l133 41v811h-137v13l137 39v116q0 194 102 296t264 102q120 0 258 -60q98 70 224 70q64 0 125 -18l36 10h101v-1379l137 -38v-23
h-416zM643 1102q0 98 45 174q-128 70 -297 88q-47 -29 -67.5 -104.5t-20.5 -157.5v-180h332l8 2v178z" />
    <glyph glyph-name="uni0045030A" unicode="E&#x2da;" horiz-adv-x="892" 
d="M754 573l-392 7v-525h371l84 236l47 -12l-28 -279h-801v27l168 24v1090l-168 24v29h796v-270h-59l-51 217h-359v-506l392 8v-70zM547 1286q-54 0 -102 41.5t-48 110.5q0 66 41.5 106.5t108.5 40.5q68 0 109.5 -42t41.5 -105q0 -69 -43.5 -110.5t-107.5 -41.5zM547 1323
q54 0 84.5 29.5t30.5 85.5q0 51 -31.5 81.5t-83.5 30.5q-54 0 -83.5 -29.5t-29.5 -82.5q0 -55 35.5 -85t77.5 -30z" />
    <glyph glyph-name="uni00460304" unicode="F&#xaf;" horiz-adv-x="831" 
d="M35 1194h796v-270h-59l-51 217h-359v-525l392 11v-72l-392 8v-512l173 -22v-29h-500v27l168 24v1090l-168 24v29zM762 1364h-477v57h477v-57z" />
    <glyph glyph-name="uni00480331" unicode="H&#x331;" horiz-adv-x="1226" 
d="M694 0v27l168 24v531h-500v-531l173 -22v-29h-500v27l168 24v1090l-168 24v29h500v-27l-173 -26v-506h500v506l-168 24v29h502v-27l-172 -26v-1090l172 -22v-29h-502zM856 -260h-479v57h479v-57z" />
    <glyph glyph-name="uni004A0301" unicode="J&#xb4;" horiz-adv-x="714" 
d="M240 -18q-137 0 -238 43v329h53l58 -276q45 -37 123 -37q67 0 106 66.5t39 193.5v840l-168 24v29h502v-27l-172 -26v-834q0 -95 -46.5 -171.5t-115 -115t-141.5 -38.5zM649 1548l56 -131l-379 -139l-13 27z" />
    <glyph glyph-name="uni004D0310" unicode="M&#x310;" horiz-adv-x="1409" 
d="M934 0v27l158 24l-70 910h-8l-326 -979h-67l-340 1038h-7l-65 -942l168 -49v-29h-387v27l149 51l80 1040l-143 47v29h319l314 -987l313 987h295v-27l-166 -30l106 -1088l148 -20v-29h-471zM713 1270q-90 0 -149 54.5t-81 139.5l62 15q25 -57 71.5 -95t102.5 -38
q66 0 127.5 36.5t83.5 87.5l26 -12q-22 -89 -90 -138.5t-153 -49.5zM641 1516q0 35 23 58t57 23t58 -23t24 -58q0 -34 -24 -57t-58 -23t-57 23t-23 57z" />
    <glyph glyph-name="uni004E0304" unicode="N&#xaf;" horiz-adv-x="1118" 
d="M37 0v27l131 45v1040l-133 53v29h254l604 -883v807l-156 47v29h363v-27l-131 -43v-1142h-49l-676 999v-909l155 -43v-29h-362zM827 1364h-477v57h477v-57z" />
    <glyph glyph-name="uni00500304" unicode="P&#xaf;" horiz-adv-x="927" 
d="M35 0v27l160 22v1094l-160 22v29h500q164 0 257 -84.5t93 -265.5q0 -158 -117.5 -254t-308.5 -96h-105v-441l181 -24v-29h-500zM481 1137h-127v-590h99q137 0 203.5 72t66.5 217q0 140 -61 220.5t-181 80.5zM729 1364h-477v57h477v-57z" />
    <glyph glyph-name="uni00520300" unicode="R`" horiz-adv-x="1021" 
d="M788 0l-294 561h-132v-510l173 -22v-29h-500v27l168 24v1090l-168 24v29h485q163 0 256.5 -74.5t93.5 -234.5q0 -105 -55.5 -182t-161.5 -113l21 -37l272 -494l94 -36v-23h-252zM467 1137h-105v-523h76q121 5 195 76t74 187q0 122 -59.5 190.5t-180.5 69.5zM219 1417
l66 127l325 -239l-10 -27z" />
    <glyph glyph-name="uni00520325" unicode="R&#x325;" horiz-adv-x="1021" 
d="M788 0l-294 561h-132v-510l173 -22v-29h-500v27l168 24v1090l-168 24v29h485q163 0 256.5 -74.5t93.5 -234.5q0 -105 -55.5 -182t-161.5 -113l21 -37l272 -494l94 -36v-23h-252zM467 1137h-105v-523h76q121 5 195 76t74 187q0 122 -59.5 190.5t-180.5 69.5zM545 -412
q-54 0 -102 41.5t-48 110.5q0 66 41.5 106.5t108.5 40.5q68 0 109.5 -42t41.5 -105q0 -69 -43.5 -110.5t-107.5 -41.5zM545 -375q53 0 83.5 29.5t30.5 85.5q0 51 -31 82t-83 31q-54 0 -83.5 -30t-29.5 -83q0 -55 35.5 -85t77.5 -30z" />
    <glyph glyph-name="uni005203250304" unicode="R&#x325;&#xaf;" horiz-adv-x="1021" 
d="M788 0l-294 561h-132v-510l173 -22v-29h-500v27l168 24v1090l-168 24v29h485q163 0 256.5 -74.5t93.5 -234.5q0 -105 -55.5 -182t-161.5 -113l21 -37l272 -494l94 -36v-23h-252zM467 1137h-105v-523h76q121 5 195 76t74 187q0 122 -59.5 190.5t-180.5 69.5zM545 -412
q-54 0 -102 41.5t-48 110.5q0 66 41.5 106.5t108.5 40.5q68 0 109.5 -42t41.5 -105q0 -69 -43.5 -110.5t-107.5 -41.5zM545 -375q53 0 83.5 29.5t30.5 85.5q0 51 -31 82t-83 31q-54 0 -83.5 -30t-29.5 -83q0 -55 35.5 -85t77.5 -30zM737 1364h-477v57h477v-57z" />
    <glyph glyph-name="uni00530331" unicode="S&#x331;" horiz-adv-x="778" 
d="M639 854l-59 252q-71 51 -164 51q-103 0 -159 -61t-56 -152q0 -89 53 -145.5t156 -102.5q132 -59 184 -96q138 -101 139 -276q0 -70 -22.5 -128t-60.5 -97t-89.5 -66t-107 -39t-115.5 -12q-152 0 -293 69v293h47l68 -252q92 -57 205 -57q101 0 159 54t58 187
q0 51 -19 92.5t-57.5 73t-76.5 53t-95 46.5q-49 21 -81 38t-72 45.5t-63.5 60t-40 78.5t-16.5 103q0 152 98.5 249t235.5 97q174 0 295 -71v-287h-51zM639 -260h-479v57h479v-57z" />
    <glyph glyph-name="uni00530300" unicode="S`" horiz-adv-x="778" 
d="M639 854l-59 252q-71 51 -164 51q-103 0 -159 -61t-56 -152q0 -89 53 -145.5t156 -102.5q132 -59 184 -96q138 -101 139 -276q0 -70 -22.5 -128t-60.5 -97t-89.5 -66t-107 -39t-115.5 -12q-152 0 -293 69v293h47l68 -252q92 -57 205 -57q101 0 159 54t58 187
q0 51 -19 92.5t-57.5 73t-76.5 53t-95 46.5q-49 21 -81 38t-72 45.5t-63.5 60t-40 78.5t-16.5 103q0 152 98.5 249t235.5 97q174 0 295 -71v-287h-51zM154 1417l65 127l326 -239l-10 -27z" />
    <glyph glyph-name="uni00530306" unicode="S&#x2d8;" horiz-adv-x="778" 
d="M639 854l-59 252q-71 51 -164 51q-103 0 -159 -61t-56 -152q0 -89 53 -145.5t156 -102.5q132 -59 184 -96q138 -101 139 -276q0 -70 -22.5 -128t-60.5 -97t-89.5 -66t-107 -39t-115.5 -12q-152 0 -293 69v293h47l68 -252q92 -57 205 -57q101 0 159 54t58 187
q0 51 -19 92.5t-57.5 73t-76.5 53t-95 46.5q-49 21 -81 38t-72 45.5t-63.5 60t-40 78.5t-16.5 103q0 152 98.5 249t235.5 97q174 0 295 -71v-287h-51zM426 1280q-166 0 -205 184l72 25q15 -64 46.5 -94.5t84.5 -30.5q121 0 162 119l30 -21q-13 -73 -70.5 -127.5
t-119.5 -54.5z" />
    <glyph glyph-name="uni00540308" unicode="T&#xa8;" horiz-adv-x="909" 
d="M203 0v27l168 24v1088h-244l-68 -285h-51v340h891v-340h-49l-80 285h-235v-1088l172 -22v-29h-504zM197 1389q0 38 24 63t62 25q36 0 60 -25t24 -63q0 -37 -24.5 -64t-59.5 -27q-37 0 -61.5 26.5t-24.5 64.5zM543 1389q0 38 24.5 63t61.5 25q36 0 60 -25t24 -63
q0 -37 -24.5 -64t-59.5 -27q-36 0 -61 27t-25 64z" />
    <glyph glyph-name="uni00560304" unicode="V&#xaf;" horiz-adv-x="1009" 
d="M446 0l-364 1153l-88 18v23h397v-20l-137 -29l291 -989h8l297 966l-166 49v23h334v-20l-103 -48l-352 -1126h-117zM791 1364h-478v57h478v-57z" />
    <glyph glyph-name="uni00580304" unicode="X&#xaf;" 
d="M582 0v29l139 28l-248 461l-252 -446l139 -41v-31h-354v29l119 41l324 497l-306 572l-123 24v31h424v-29l-133 -32l228 -418l229 401l-117 47v31h310v-29l-107 -47l-289 -452l332 -613l113 -22v-31h-428zM786 1364h-477v57h477v-57z" />
    <glyph glyph-name="uni005A0324" unicode="Z&#x324;" horiz-adv-x="827" 
d="M31 0l-11 39l578 1100h-442l-62 -285h-53v340h733l14 -25l-595 -1114h479l80 271l49 -9l-25 -317h-745zM193 -213q0 38 24 63t62 25q35 0 59 -25t24 -63q0 -37 -24 -63.5t-59 -26.5q-38 0 -62 26t-24 64zM498 -213q0 38 24.5 63t61.5 25q36 0 60 -25t24 -63
q0 -37 -24.5 -63.5t-59.5 -26.5q-36 0 -61 26.5t-25 63.5z" />
    <glyph glyph-name="uni0065030A" unicode="e&#x2da;" horiz-adv-x="743" 
d="M186 465q0 -182 79.5 -284.5t205.5 -102.5q44 0 103.5 25t103.5 65l18 -39q-35 -54 -115 -99.5t-169 -45.5q-183 0 -278 121t-95 339q0 214 96.5 355t255.5 141q301 0 314 -444h-519v-31zM379 895q-75 0 -128 -90.5t-63 -255.5h351q4 346 -160 346zM403 1079
q-54 0 -101.5 41.5t-47.5 110.5q0 66 41 106.5t108 40.5q68 0 110 -42t42 -105q0 -68 -44 -110t-108 -42zM403 1116q54 0 84.5 29.5t30.5 85.5q0 51 -31.5 81.5t-83.5 30.5q-54 0 -83 -29.5t-29 -82.5q0 -55 35 -85t77 -30z" />
    <glyph glyph-name="uni00660304" unicode="f&#xaf;" horiz-adv-x="499" 
d="M27 0v20l133 39v813h-137v13l137 39v178q0 143 107 243.5t239 100.5q44 0 78 -10l-27 -162h-10l-189 98q-34 -32 -44.5 -82.5t-10.5 -126.5v-241h166v-50h-166v-809l158 -40v-23h-434zM690 1599h-479v58h479v-58z" />
    <glyph glyph-name="uni006A0301" unicode="j&#xb4;" horiz-adv-x="421" 
d="M70 -424l-17 21q67 70 85 141.5t18 269.5v836h-144v22l226 74h61v-944q0 -123 -63.5 -231.5t-165.5 -188.5zM375 1419l88 -110l-330 -244l-18 16z" />
    <glyph glyph-name="uni006D0310" unicode="m&#x310;" horiz-adv-x="1464" 
d="M549 0v20l137 41v521q0 136 -39 195t-129 59q-107 0 -207 -95v-680l140 -38v-23h-416v20l133 39v785h-143v22l198 74h74l12 -174q34 40 57 63.5t60.5 53t79.5 43.5t90 14q158 0 211 -174q32 38 56 63t61 53.5t79.5 43t90.5 14.5q117 0 175 -93t58 -239v-547l135 -38v-23
h-415v20l137 41v521q0 134 -39.5 194t-128.5 60q-98 0 -203 -91q16 -69 16 -137v-547l138 -38v-23h-418zM782 1071q-99 0 -159.5 62.5t-79.5 158.5l71 15q15 -61 62.5 -110.5t109.5 -49.5q73 0 125 49t70 107l37 -9q-15 -103 -78 -163t-158 -60zM702 1358q0 38 25.5 64
t63.5 26q37 0 63.5 -26t26.5 -64q0 -37 -26.5 -62.5t-63.5 -25.5q-38 0 -63.5 25.5t-25.5 62.5z" />
    <glyph glyph-name="uni006E0304" unicode="n&#xaf;" horiz-adv-x="980" 
d="M35 0v20l133 39v785h-143v22l198 74h74l12 -174q32 37 59.5 63t66 54t83 42.5t92.5 14.5q117 0 175.5 -93t58.5 -239v-547l135 -38v-23h-416v20l137 41v519q0 133 -39.5 194.5t-128.5 61.5q-62 0 -121 -28.5t-100 -66.5v-680l140 -38v-23h-416zM748 1223h-480v57h480v-57
z" />
    <glyph glyph-name="uni007000AF" unicode="p&#xaf;" horiz-adv-x="880" 
d="M29 -424v21l135 43v1204h-144v22l197 74h74l12 -123q123 123 234 123q303 0 303 -459q0 -215 -121 -357t-293 -142q-69 0 -121 14v-354l158 -43v-23h-434zM485 842q-96 0 -180 -51v-695q72 -55 166 -55q207 0 207 403q0 175 -48 286.5t-145 111.5zM715 1223h-479v57h479
v-57z" />
    <glyph glyph-name="uni00720325" unicode="r&#x325;" horiz-adv-x="628" 
d="M35 0v20l131 39v785h-141v22l198 74h74l8 -119q61 57 125 88t117 31q46 0 82 -10l-41 -154h-6l-166 49l-109 -16l4 -51v-695l158 -40v-23h-434zM248 -412q-54 0 -102 41.5t-48 110.5q0 66 41.5 106.5t108.5 40.5q68 0 109.5 -42t41.5 -105q0 -69 -43.5 -110.5
t-107.5 -41.5zM248 -375q53 0 83.5 29.5t30.5 85.5q0 51 -31 82t-83 31q-54 0 -83.5 -30t-29.5 -83q0 -55 35.5 -85t77.5 -30z" />
    <glyph glyph-name="uni007203250304" unicode="r&#x325;&#xaf;" horiz-adv-x="628" 
d="M35 0v20l131 39v785h-141v22l198 74h74l8 -119q61 57 125 88t117 31q46 0 82 -10l-41 -154h-6l-166 49l-109 -16l4 -51v-695l158 -40v-23h-434zM246 -412q-54 0 -102 41.5t-48 110.5q0 66 41.5 106.5t108.5 40.5q68 0 109.5 -42t41.5 -105q0 -69 -43.5 -110.5
t-107.5 -41.5zM246 -375q53 0 83.5 29.5t30.5 85.5q0 51 -31 82t-83 31q-54 0 -83.5 -30t-29.5 -83q0 -55 35.5 -85t77.5 -30zM608 1221h-479v57h479v-57z" />
    <glyph glyph-name="uni00720300" unicode="r`" horiz-adv-x="628" 
d="M35 0v20l131 39v785h-141v22l198 74h74l8 -119q61 57 125 88t117 31q46 0 82 -10l-41 -154h-6l-166 49l-109 -16l4 -51v-695l158 -40v-23h-434zM82 1309l88 110l260 -338l-18 -16z" />
    <glyph glyph-name="uni00730331" unicode="s&#x331;" horiz-adv-x="661" 
d="M307 -16q-136 0 -258 61v252h31l59 -203q77 -49 168 -49q81 0 135 42.5t54 127.5q0 47 -19 79.5t-49.5 49.5t-70 31.5t-80 24.5t-80 30t-70 46.5t-49.5 75t-19 114.5q0 128 85.5 201t207.5 73q131 0 230 -57v-230h-37l-43 170q-90 58 -172 58q-74 0 -120 -41.5
t-46 -130.5q0 -54 24.5 -88.5t64 -51t87 -28.5t95 -28t87 -41t64 -75.5t24.5 -124.5q0 -76 -26 -133.5t-70 -90t-96 -48.5t-111 -16zM582 -260h-480v57h480v-57z" />
    <glyph glyph-name="uni00730300" unicode="s`" horiz-adv-x="661" 
d="M307 -16q-136 0 -258 61v252h31l59 -203q77 -49 168 -49q81 0 135 42.5t54 127.5q0 47 -19 79.5t-49.5 49.5t-70 31.5t-80 24.5t-80 30t-70 46.5t-49.5 75t-19 114.5q0 128 85.5 201t207.5 73q131 0 230 -57v-230h-37l-43 170q-90 58 -172 58q-74 0 -120 -41.5
t-46 -130.5q0 -54 24.5 -88.5t64 -51t87 -28.5t95 -28t87 -41t64 -75.5t24.5 -124.5q0 -76 -26 -133.5t-70 -90t-96 -48.5t-111 -16zM98 1311l88 110l260 -338l-18 -16z" />
    <glyph glyph-name="uni00730306" unicode="s&#x2d8;" horiz-adv-x="661" 
d="M307 -16q-136 0 -258 61v252h31l59 -203q77 -49 168 -49q81 0 135 42.5t54 127.5q0 47 -19 79.5t-49.5 49.5t-70 31.5t-80 24.5t-80 30t-70 46.5t-49.5 75t-19 114.5q0 128 85.5 201t207.5 73q131 0 230 -57v-230h-37l-43 170q-90 58 -172 58q-74 0 -120 -41.5
t-46 -130.5q0 -54 24.5 -88.5t64 -51t87 -28.5t95 -28t87 -41t64 -75.5t24.5 -124.5q0 -76 -26 -133.5t-70 -90t-96 -48.5t-111 -16zM358 1108q-165 0 -204 184l71 25q17 -63 47.5 -90t83.5 -27q123 0 164 111l29 -21q-13 -73 -70.5 -127.5t-120.5 -54.5z" />
    <glyph glyph-name="uni00760304" unicode="v&#xaf;" horiz-adv-x="839" 
d="M854 922v-21l-139 -55l-256 -846h-80l-305 870l-88 29v23h374v-21l-127 -43l226 -684h6l192 676l-129 49v23h326zM684 1223h-479v57h479v-57z" />
    <glyph glyph-name="uni00780304" unicode="x&#xaf;" horiz-adv-x="882" 
d="M213 76l133 -53v-23h-344v20l125 56l258 358l-260 432l-105 33v23h373v-21l-98 -35l168 -315l188 291l-121 57v23h344v-21l-157 -61l-230 -334l273 -447l121 -36v-23h-373v20l78 27l-176 340zM702 1223h-479v57h479v-57z" />
    <glyph glyph-name="uni007A0324" unicode="z&#x324;" horiz-adv-x="671" 
d="M653 293l-39 -293h-575l-19 59l441 813h-293l-96 -188l-35 6l24 232h547l19 -37l-459 -836h334l123 248zM102 -213q0 38 24 63t62 25q36 0 60 -25t24 -63q0 -37 -24.5 -63.5t-59.5 -26.5q-38 0 -62 26t-24 64zM408 -213q0 38 24.5 63t61.5 25q36 0 60 -25t24 -63
q0 -37 -24.5 -63.5t-59.5 -26.5q-36 0 -61 26.5t-25 63.5z" />
    <glyph glyph-name="f_h" unicode="fh" horiz-adv-x="1464" 
d="M500 0v20l133 39v1235l-275 80q-32 -32 -43.5 -83.5t-11.5 -127.5v-241h211v-50h-211v-806l158 -43v-23h-434v20l133 41v811h-137v13l137 39v178q0 105 53.5 185.5t136 120.5t176.5 40q60 0 119 -18l33 10h100v-672q66 77 136.5 124.5t160.5 47.5q117 0 175.5 -93
t58.5 -239v-547l137 -38v-23h-418v20l137 41v517q0 132 -40 195t-128 63q-61 0 -119.5 -28.5t-99.5 -66.5v-680l137 -38v-23h-415z" />
    <glyph glyph-name="f_b" unicode="fb" horiz-adv-x="1361" 
d="M643 74v1216l-285 84q-32 -32 -43.5 -83.5t-11.5 -127.5v-241h211v-50h-211v-806l158 -43v-23h-434v20l133 41v811h-137v13l137 39v178q0 105 53.5 185.5t136 120.5t176.5 40q62 0 123 -21l39 13h100v-619q123 119 230 119q303 0 303 -459q0 -215 -120.5 -357
t-293.5 -142q-161 0 -264 92zM940 842q-72 0 -152 -51v-691q69 -59 164 -59q209 0 209 403q0 185 -59 291.5t-162 106.5z" />
    <glyph glyph-name="f_j" unicode="fj" horiz-adv-x="870" 
d="M547 -424l-17 21q47 50 68 90.5t32 114t11 206.5v864h-338v-806l158 -43v-23h-434v20l133 41v811h-137v13l137 39v178q0 105 53.5 185.5t136 120.5t176.5 40q102 0 189 -47l-47 -117l-310 90q-32 -32 -43.5 -83.5t-11.5 -127.5v-241h291l127 18h61v-944q0 -122 -66 -230
t-169 -190z" />
    <glyph glyph-name="f_k" unicode="fk" horiz-adv-x="1335" 
d="M500 0v20l133 39v1235l-275 80q-32 -32 -43.5 -83.5t-11.5 -127.5v-241h211v-50h-211v-806l158 -43v-23h-434v20l133 41v811h-137v13l137 39v178q0 105 53.5 185.5t136 120.5t176.5 40q60 0 119 -18l33 10h100v-1379l137 -38v-23h-415zM821 481v17l287 348l-141 55v21
h323v-23l-121 -55l-229 -281l270 -493l131 -50v-20h-262z" />
    <glyph glyph-name="f_igrave" unicode="f&#xec;" horiz-adv-x="970" 
d="M535 0v20l135 29v823h-367v-806l158 -43v-23h-434v20l133 41v811h-137v13l137 39v178q0 148 98.5 246t228.5 98q46 0 80 -10l-26 -162h-13l-170 98q-34 -32 -44.5 -82.5t-10.5 -126.5v-241h320l127 18h61v-891l141 -26v-23h-417zM586 1325l94 80l129 -287l-18 -16z" />
    <glyph glyph-name="f_idieresis" unicode="f&#xef;" horiz-adv-x="966" 
d="M557 1249q0 38 22.5 63t57.5 25q32 0 58 -25.5t26 -62.5q0 -36 -26 -63t-58 -27q-35 0 -57.5 26.5t-22.5 63.5zM799 1249q0 38 25 63t59 25q33 0 56.5 -25t23.5 -63q0 -37 -24 -63.5t-56 -26.5q-34 0 -59 26.5t-25 63.5zM535 0v20l135 29v823h-367v-806l158 -43v-23h-434
v20l133 41v811h-137v13l137 39v178q0 148 98.5 246t228.5 98q46 0 80 -10l-26 -162h-13l-170 98q-34 -32 -44.5 -82.5t-10.5 -126.5v-241h320l127 18h61v-891l141 -26v-23h-417z" />
    <glyph glyph-name="lambda_lambda" unicode="&#x3bb;&#x3bb;" horiz-adv-x="1366" 
d="M932 928l-68 272q-13 54 -38 101.5t-45 69.5t-27 22q-5 0 -29.5 -26t-64.5 -71.5t-48 -54.5h-16q-36 74 -39 148q46 22 104 39.5t99 17.5q81 0 147 -65t90 -160l236 -1059q8 -38 15.5 -52t21.5 -14q30 0 65 15l11 -64q-76 -63 -125 -63q-73 0 -91 55l-165 758l-45 -207
q-84 -341 -143 -473.5t-142 -132.5q-52 0 -86.5 47.5t-56.5 146.5l-138 619l-178 -797h-133v35l274 893l-61 272q-13 54 -38.5 101.5t-45.5 69.5t-27 22q-5 0 -30 -26.5t-63.5 -71t-47.5 -54.5h-16q-36 74 -39 148q46 22 104 39.5t99 17.5q81 0 147 -65t90 -160l225 -1035
q18 -77 41 -84q11 11 22.5 30.5t25 52.5t24 61.5t27 82t27.5 88.5t32 106t33 110z" />
    <glyph glyph-name="gamma_gamma" unicode="&#x3b3;&#x3b3;" horiz-adv-x="1349" 
d="M424 -416q-33 -20 -80 -20q-38 0 -65 6q7 77 16 202.5t14 172.5q-98 583 -168 782q-21 55 -30 75.5t-26 38t-40 17.5q-19 0 -47 -12l-10 28q27 25 66.5 44.5t78.5 19.5q46 0 72 -21.5t47 -85.5q55 -159 129 -708h10q92 326 133 444q55 160 98 243.5t71 105.5t65 22
q20 0 36.5 -7t31 -24.5t26 -35t23 -49.5t19.5 -56t18 -68t16 -71t16 -78q25 -125 84 -477h8l205 866q94 0 129 -33q-19 -57 -151.5 -442t-169.5 -504q1 -44 7.5 -176t6.5 -199q-30 -20 -80 -20q-35 0 -65 6q6 65 11.5 133t11 139.5t7.5 102.5q-44 253 -114 542
q-56 233 -107 332q-52 -72 -158 -354q-32 -85 -63.5 -174t-61 -177t-38.5 -114q16 -289 18 -416z" />
    <glyph glyph-name=".notdef" horiz-adv-x="1458" 
d="M625 768v55h55v-55h-55zM778 1075v55h56v-55h-56zM625 1075v55h55v-55h-55zM471 1075v55h55v-55h-55zM164 0v55h55v-55h-55zM317 0v55h56v-55h-56zM471 0v55h55v-55h-55zM625 0v55h55v-55h-55zM778 0v55h56v-55h-56zM164 154v55h55v-55h-55zM164 307v55h55v-55h-55z
M164 461v55h55v-55h-55zM164 614v56h55v-56h-55zM164 768v55h55v-55h-55zM164 922v55h55v-55h-55zM164 1075v55h55v-55h-55zM164 1229v55h55v-55h-55zM164 1382v56h55v-56h-55zM317 1382v56h56v-56h-56zM471 1382v56h55v-56h-55zM625 1382v56h55v-56h-55zM778 1382v56h56
v-56h-56zM932 1382v56h55v-56h-55zM1085 1382v56h56v-56h-56zM1085 0v55h56v-55h-56zM932 0v55h55v-55h-55zM1239 0v55h55v-55h-55zM1239 1382v56h55v-56h-55zM625 614v56h55v-56h-55zM625 307v55h55v-55h-55zM778 768v55h56v-55h-56zM932 768v55h55v-55h-55zM932 922v55h55
v-55h-55zM932 1075v55h55v-55h-55zM1239 1229v55h55v-55h-55zM1239 1075v55h55v-55h-55zM1239 768v55h55v-55h-55zM1239 614v56h55v-56h-55zM1239 307v55h55v-55h-55zM1239 154v55h55v-55h-55zM1239 461v55h55v-55h-55zM1239 922v55h55v-55h-55z" />
    <glyph glyph-name=".null" horiz-adv-x="0" 
 />
    <glyph glyph-name="nonmarkingreturn" horiz-adv-x="682" 
 />
    <glyph glyph-name="space" unicode=" " horiz-adv-x="421" 
 />
    <glyph glyph-name="exclam" unicode="!" horiz-adv-x="491" 
d="M340 1225l-82 -869h-25l-81 869h188zM131 94q0 47 33.5 82t77.5 35q45 0 76.5 -34.5t31.5 -82.5q0 -47 -31 -80.5t-77 -33.5q-45 0 -78 33.5t-33 80.5z" />
    <glyph glyph-name="quotedbl" unicode="&#x22;" horiz-adv-x="665" 
d="M111 1044v406h153l-96 -406h-57zM414 1044v406h159l-100 -406h-59z" />
    <glyph glyph-name="numbersign" unicode="#" horiz-adv-x="1208" 
d="M162 825v60h287l67 309h53l-65 -309h311l66 309h55l-66 -309h254v-60h-266l-82 -389h271v-59h-283l-78 -377h-57l80 377h-310l-77 -377h-60l80 377h-258v59h270l82 389h-274zM492 825l-80 -389h309l82 389h-311z" />
    <glyph glyph-name="dollar" unicode="$" horiz-adv-x="843" 
d="M690 834l-59 274q-77 41 -168 41h-19v-438q44 -17 67.5 -27.5t64 -31t63.5 -38.5t51.5 -47t44 -61t26.5 -75.5t11 -94.5q0 -101 -47.5 -176.5t-119.5 -114.5t-161 -49v-154h-61v148h-8q-158 0 -301 73v312h37l59 -256q96 -58 205 -58h8v469q-37 14 -62 25t-58.5 28.5
t-56 35t-47 43t-38.5 54t-23.5 66.5t-9.5 82q0 145 84.5 236.5t210.5 107.5v158h61v-154q163 -3 283 -75v-303h-37zM627 313q0 71 -47 114t-136 79v-440q183 25 183 247zM219 922q0 -68 42 -109.5t122 -77.5v406q-75 -16 -119.5 -69.5t-44.5 -149.5z" />
    <glyph glyph-name="percent" unicode="%" horiz-adv-x="1361" 
d="M78 860q0 150 69.5 242t178.5 92q110 0 177.5 -84.5t67.5 -243.5q0 -147 -68.5 -234t-176.5 -87q-111 0 -179.5 82t-68.5 233zM446 856q0 148 -31.5 215.5t-95.5 67.5q-62 0 -88 -64t-26 -211q0 -130 32.5 -199t94.5 -69q114 0 114 260zM807 301q0 150 70 241t178 91
q110 0 179 -84.5t69 -241.5q0 -147 -70 -235t-178 -88q-110 0 -179 82.5t-69 234.5zM1178 295q0 150 -31.5 216.5t-97.5 66.5q-62 0 -89.5 -64.5t-27.5 -208.5q0 -131 34.5 -200.5t96.5 -69.5q115 0 115 260zM416 0h-72l606 1194h78z" />
    <glyph glyph-name="ampersand" unicode="&#x26;" horiz-adv-x="1191" 
d="M1192 41v-41h-248q-63 40 -168 127q-158 -158 -385 -158q-155 0 -247.5 86.5t-92.5 227.5q0 105 50 194.5t159 149.5q-117 147 -117 282q0 71 36 139t111.5 116t172.5 48q138 0 210 -75t72 -183q0 -91 -81 -178.5t-213 -132.5q42 -51 108 -113q118 -115 266 -231
q90 147 146 338l-137 55v35h340v-41l-127 -47q-78 -237 -170 -381q196 -147 315 -217zM451 428q-105 102 -166 170q-70 -106 -70 -244q0 -60 15 -112t45 -94t81.5 -66.5t118.5 -24.5q127 0 248 115q-138 122 -272 256zM299 940q0 -115 125 -266q91 57 127.5 122t36.5 150
q0 203 -135 203q-79 0 -116.5 -58t-37.5 -151z" />
    <glyph glyph-name="quotesingle" unicode="'" horiz-adv-x="362" 
d="M111 1044v406h155l-119 -406h-36z" />
    <glyph glyph-name="parenleft" unicode="(" horiz-adv-x="559" 
d="M440 -379q-43 38 -91 95t-103.5 146t-99 188.5t-72.5 227.5t-29 257q0 112 30.5 231.5t76 215.5t102 184.5t104 146t86.5 92.5l39 -43q-36 -36 -78.5 -89.5t-95.5 -138.5t-95 -175t-70.5 -203t-28.5 -219q0 -122 29 -245.5t69.5 -216t95.5 -182t95 -140t79 -93.5z" />
    <glyph glyph-name="parenright" unicode=")" horiz-adv-x="559" 
d="M104 -379l-41 41q39 43 79 93.5t94.5 139.5t95 181t69.5 215.5t29 245.5q0 106 -29.5 219t-72 203.5t-96.5 176t-96.5 138.5t-78.5 90l43 41q51 -46 113 -127.5t129.5 -196.5t112.5 -261t45 -285q0 -129 -29 -257t-73 -227.5t-99.5 -188.5t-103.5 -146t-91 -95z" />
    <glyph glyph-name="asterisk" unicode="*" horiz-adv-x="720" 
d="M643 891l-10 -60l-45 -45l-207 175l41 -271l-53 -18l-56 18l41 273l-204 -177l-39 41l-15 62l256 96l-256 102l10 60l46 41l204 -174l-41 274l54 15l55 -15l-43 -272l209 172l45 -39l8 -62l-264 -100z" />
    <glyph glyph-name="plus" unicode="+" horiz-adv-x="962" 
d="M866 586h-346v-381h-76v381h-348v73h348v357h76v-357h346v-73z" />
    <glyph glyph-name="comma" unicode="," horiz-adv-x="477" 
d="M362 59q0 -115 -70 -220t-183 -173l-23 27q52 46 92.5 120t40.5 130q0 42 -22 75t-66 41q0 45 35 83t80 38q49 0 82.5 -35t33.5 -86z" />
    <glyph glyph-name="hyphen" unicode="-" horiz-adv-x="610" 
d="M530 471h-450v72h450v-72z" />
    <glyph glyph-name="period" unicode="." horiz-adv-x="450" 
d="M111 94q0 47 33 82t77 35q45 0 77 -34.5t32 -82.5q0 -47 -31.5 -80.5t-77.5 -33.5q-45 0 -77.5 33.5t-32.5 80.5z" />
    <glyph glyph-name="slash" unicode="/" horiz-adv-x="526" 
d="M524 1386l-452 -1570h-76l453 1570h75z" />
    <glyph glyph-name="zero" unicode="0" horiz-adv-x="835" 
d="M788 612q0 -126 -25.5 -239t-73 -200t-120.5 -138t-163 -51q-94 0 -164.5 45.5t-112 127.5t-62 186.5t-20.5 231.5q0 116 25.5 228t72 204.5t121.5 149.5t166 57q67 0 122 -24.5t93 -68.5t66 -100.5t44 -126t23.5 -138.5t7.5 -144zM621 602q0 112 -10 205t-32.5 175.5
t-66.5 129.5t-106 47q-60 0 -101.5 -48t-62.5 -135t-29 -180t-8 -212q0 -543 223 -543q37 0 66 17t49 44.5t34.5 71.5t23 88.5t13 106t6 113.5t1.5 120z" />
    <glyph glyph-name="one" unicode="1" horiz-adv-x="671" 
d="M66 0v27l210 41v997h-235v25l336 104h51v-1126l209 -39v-29h-571z" />
    <glyph glyph-name="two" unicode="2" horiz-adv-x="731" 
d="M711 266l-15 -266h-667l-17 88q223 216 354.5 417t131.5 359q0 126 -49.5 201.5t-139.5 75.5q-68 0 -130.5 -44t-92.5 -136h-41v149q53 50 126.5 76t150.5 26q67 0 126.5 -21.5t107 -63.5t75.5 -112t28 -159q0 -75 -34 -159t-88 -160t-128.5 -154.5t-149.5 -142.5
t-157 -123h492l82 155z" />
    <glyph glyph-name="three" unicode="3" horiz-adv-x="706" 
d="M47 231h39q22 -86 84.5 -138t151.5 -52q82 0 136 71.5t54 194.5q0 121 -69 188.5t-230 67.5v64q95 8 172.5 92t77.5 207q0 97 -39.5 159t-120.5 62q-89 0 -134 -49.5t-73 -159.5h-41v170q110 104 264 104q118 0 205.5 -79.5t87.5 -198.5q0 -60 -25 -114t-61.5 -89
t-68.5 -56t-54 -28v-8q45 -4 90.5 -25t84 -55.5t62.5 -87t24 -113.5q0 -88 -35.5 -161.5t-92 -118.5t-123.5 -69.5t-134 -24.5q-136 0 -232 51v196z" />
    <glyph glyph-name="four" unicode="4" horiz-adv-x="776" 
d="M737 303h-129v-303h-151v303h-420l-37 86l487 805h121v-762h140zM102 432h355v586z" />
    <glyph glyph-name="five" unicode="5" horiz-adv-x="704" 
d="M41 197h45q32 -90 78.5 -124t138.5 -34q87 0 144 81.5t57 217.5q0 272 -299 272q-50 0 -125 -10l43 594h516l-16 -150h-455l-25 -303q50 4 97 4q191 0 304 -97t113 -277q0 -86 -37.5 -161.5t-95.5 -124t-125 -76t-129 -27.5q-125 0 -229 51v164z" />
    <glyph glyph-name="six" unicode="6" horiz-adv-x="788" 
d="M391 -16q-85 0 -151.5 41t-107.5 112.5t-62 163.5t-21 199q0 199 51.5 359.5t153.5 256.5t238 96q92 0 190 -36v-152l-41 2q-42 68 -85.5 94.5t-98.5 26.5q-52 0 -95 -39t-72.5 -107t-49 -150.5t-29.5 -178.5q105 88 233 88q126 0 213.5 -99t87.5 -249q0 -111 -40 -207
t-122.5 -158.5t-191.5 -62.5zM406 672q-103 0 -199 -47q-4 -90 -4 -133q0 -84 10.5 -159.5t33 -141.5t62.5 -105t94 -39q89 0 136 89.5t47 225.5q0 80 -18 148t-60.5 115t-101.5 47z" />
    <glyph glyph-name="seven" unicode="7" horiz-adv-x="630" 
d="M88 0v33l461 1011h-547l18 150h627l19 -57l-453 -1137h-125z" />
    <glyph glyph-name="eight" unicode="8" horiz-adv-x="835" 
d="M403 -16q-158 0 -243.5 84t-85.5 231q0 97 55.5 177.5t149.5 127.5q-166 130 -166 295q0 126 84 219.5t211 93.5q142 0 234.5 -79.5t92.5 -210.5q0 -91 -46.5 -169t-127.5 -130q95 -64 147 -132.5t52 -166.5q0 -137 -105.5 -238.5t-251.5 -101.5zM604 287
q0 35 -16.5 66.5t-51 61.5t-66.5 53t-84 58t-83 58q-72 -102 -72 -279q0 -76 18 -134.5t61.5 -97t109.5 -38.5q86 0 135 71t49 181zM254 938q0 -22 4 -42.5t15 -40t20 -34.5t29 -33t32 -29t39 -29.5t39 -26.5t43.5 -27.5t42.5 -26.5q60 104 60 269q0 42 -6.5 79t-23 75.5
t-52 61.5t-86.5 23q-82 0 -119 -63t-37 -156z" />
    <glyph glyph-name="nine" unicode="9" horiz-adv-x="788" 
d="M401 1212q85 0 151.5 -41t107.5 -112.5t62 -163.5t21 -199q0 -199 -51.5 -359.5t-153 -256.5t-237.5 -96q-92 0 -190 36v152l41 -2q42 -68 85.5 -94.5t98.5 -26.5q52 0 94.5 39t72 107t48.5 150.5t29 178.5q-101 -88 -232 -88q-126 0 -213.5 99t-87.5 249q0 111 40 207
t122.5 158.5t191.5 62.5zM387 524q101 0 197 47q6 68 6 134q0 84 -10.5 159.5t-33 141t-63 104.5t-94.5 39q-89 0 -135.5 -89.5t-46.5 -225.5q0 -80 18 -148t60.5 -115t101.5 -47z" />
    <glyph glyph-name="colon" unicode=":" horiz-adv-x="479" 
d="M190 94q0 47 33.5 82t77.5 35q45 0 77 -34.5t32 -82.5q0 -47 -31.5 -80.5t-77.5 -33.5q-45 0 -78 33.5t-33 80.5zM190 823q0 47 33.5 82t77.5 35q45 0 77 -34.5t32 -82.5q0 -47 -31.5 -80.5t-77.5 -33.5q-45 0 -78 33.5t-33 80.5z" />
    <glyph glyph-name="semicolon" unicode=";" horiz-adv-x="479" 
d="M408 59q0 -115 -70.5 -219.5t-183.5 -173.5l-23 27q52 46 92.5 120t40.5 130q0 42 -22 75t-66 41q0 45 35 83t80 38q49 0 83 -35t34 -86zM190 823q0 47 33.5 82t77.5 35q45 0 77 -34.5t32 -82.5q0 -47 -31.5 -80.5t-77.5 -33.5q-45 0 -78 33.5t-33 80.5z" />
    <glyph glyph-name="less" unicode="&#x3c;" horiz-adv-x="962" 
d="M176 614l670 -372l-27 -60l-723 391v76l723 387l27 -61z" />
    <glyph glyph-name="equal" unicode="=" horiz-adv-x="1042" 
d="M907 772h-772v80h772v-80zM907 367h-772v79h772v-79z" />
    <glyph glyph-name="greater" unicode="&#x3e;" horiz-adv-x="962" 
d="M104 238l676 372l-678 365l33 61l721 -387v-76l-721 -391z" />
    <glyph glyph-name="question" unicode="?" horiz-adv-x="634" 
d="M643 934q0 -61 -23.5 -113t-58.5 -86.5t-81.5 -61.5t-87 -41t-79.5 -22l-32 -248h-41l-29 269q39 15 79.5 37t89 58t79 88t30.5 110q0 108 -48.5 175.5t-127.5 67.5q-32 0 -58.5 -8t-40 -16t-40.5 -27l-55 -196h-39v237q126 66 250 66q139 0 226 -71t87 -218zM147 94
q0 47 33.5 82t77.5 35q45 0 77 -34.5t32 -82.5q0 -47 -31.5 -80.5t-77.5 -33.5q-45 0 -78 33.5t-33 80.5z" />
    <glyph glyph-name="at" unicode="@" horiz-adv-x="1570" 
d="M848 10l49 316l-319 -342h-70q-23 94 -23 227q0 159 29 313t80 232q28 43 48 69.5t50 55.5t64 43t75 14q81 0 181 -57l43 59h69l-127 -836l19 -14q139 70 234.5 168t136 195t40.5 194q0 123 -37 232t-106.5 193.5t-180 133.5t-247.5 49q-139 0 -267.5 -63t-225 -172.5
t-154 -267t-57.5 -336.5q0 -178 50 -322t140 -238.5t213.5 -145t271.5 -50.5q118 0 250 61.5t223 149.5l25 -55q-246 -219 -510 -219q-158 0 -293 56t-233.5 159t-154.5 256t-56 338q0 189 61 357t166 289t253 192t316 71q180 0 323 -84.5t222.5 -236t79.5 -343.5
q0 -94 -33.5 -183.5t-89 -162t-130 -135.5t-153.5 -108.5t-163 -77.5zM625 180l26 -10l262 279l54 327q-29 12 -43 18t-38 15.5t-39 13t-34 7.5t-35 3.5t-30 -4.5q-51 -82 -89 -248.5t-38 -322.5q0 -28 4 -78z" />
    <glyph glyph-name="A" unicode="A" horiz-adv-x="995" 
d="M604 0v20l141 27l-114 424h-342l-127 -401l164 -47v-23h-332v20l100 48l369 1126h117l333 -1153l91 -18v-23h-400zM469 1036l-164 -510h311l-139 510h-8z" />
    <glyph glyph-name="B" unicode="B" horiz-adv-x="966" 
d="M35 0v27l168 24v1090l-168 24v29h442q182 0 281.5 -71t99.5 -214q0 -93 -71.5 -168.5t-161.5 -97.5v-4q36 -2 74.5 -12t81 -33t75.5 -55.5t54.5 -84t21.5 -114.5q0 -155 -104.5 -247.5t-305.5 -92.5h-487zM440 592h-78v-537h134q127 0 198.5 71.5t71.5 207.5
q0 79 -22.5 131t-68 79t-100.5 37.5t-135 10.5zM440 1147h-78v-500h97q122 0 175.5 61.5t53.5 180.5q0 258 -248 258z" />
    <glyph glyph-name="C" unicode="C" horiz-adv-x="983" 
d="M938 829h-53l-70 273q-85 59 -192 59q-172 0 -282 -144t-110 -409q0 -282 116.5 -427.5t305.5 -145.5q91 0 151 50.5t107 137.5h27v-162l-32 -16t-60 -27t-87.5 -23t-121.5 -11q-130 0 -235.5 37t-183.5 110t-120.5 190.5t-42.5 270.5q0 175 73.5 316.5t206 222.5
t298.5 81q163 0 305 -67v-316z" />
    <glyph glyph-name="D" unicode="D" horiz-adv-x="1165" 
d="M35 0v27l168 24v1090l-168 24v29h459q108 0 194 -13.5t167.5 -51.5t135.5 -99.5t86.5 -163.5t32.5 -239q0 -152 -46 -272t-128 -197t-192 -117.5t-242 -40.5h-467zM487 1139h-125v-1084h156q104 0 179.5 27.5t129.5 90t80.5 167.5t26.5 256q0 133 -22.5 230t-73.5 169
t-138.5 108t-212.5 36z" />
    <glyph glyph-name="E" unicode="E" horiz-adv-x="892" 
d="M754 573l-392 7v-525h371l84 236l47 -12l-28 -279h-801v27l168 24v1090l-168 24v29h796v-270h-59l-51 217h-359v-506l392 8v-70z" />
    <glyph glyph-name="F" unicode="F" horiz-adv-x="831" 
d="M35 1194h796v-270h-59l-51 217h-359v-525l392 11v-72l-392 8v-512l173 -22v-29h-500v27l168 24v1090l-168 24v29z" />
    <glyph glyph-name="G" unicode="G" horiz-adv-x="1036" 
d="M940 123l-2 -2v-60l-32 -16t-60 -27t-87.5 -23t-121.5 -11q-130 0 -235.5 37t-183.5 110t-120.5 190.5t-42.5 270.5q0 175 73.5 316.5t206 222.5t298.5 81q33 0 64 -2t52.5 -4.5t46.5 -8.5l37.5 -9t33.5 -11.5t26 -10.5t25 -12l20 -9v-316h-53l-72 283q-82 49 -190 49
q-170 0 -281 -149t-111 -404q0 -268 117.5 -415.5t304.5 -147.5q59 0 125 29v477l-176 22v29h338v-479z" />
    <glyph glyph-name="H" unicode="H" horiz-adv-x="1226" 
d="M694 0v27l168 24v531h-500v-531l173 -22v-29h-500v27l168 24v1090l-168 24v29h500v-27l-173 -26v-506h500v506l-168 24v29h502v-27l-172 -26v-1090l172 -22v-29h-502z" />
    <glyph glyph-name="I" unicode="I" horiz-adv-x="614" 
d="M57 0v27l168 24v1090l-168 24v29h500v-27l-172 -26v-1090l172 -22v-29h-500z" />
    <glyph glyph-name="J" unicode="J" horiz-adv-x="714" 
d="M240 -18q-137 0 -238 43v329h53l58 -276q45 -37 123 -37q67 0 106 66.5t39 193.5v840l-168 24v29h502v-27l-172 -26v-834q0 -95 -46.5 -171.5t-115 -115t-141.5 -38.5z" />
    <glyph glyph-name="K" unicode="K" horiz-adv-x="1044" 
d="M35 0v27l168 24v1090l-168 24v29h500v-27l-173 -26v-1090l173 -22v-29h-500zM768 0l-367 573v33l387 522l-133 41v25h359v-29l-158 -37l-336 -440l418 -639l121 -18v-31h-291z" />
    <glyph glyph-name="L" unicode="L" horiz-adv-x="858" 
d="M35 0v27l168 24v1090l-168 24v29h500v-27l-173 -26v-1086h355l96 289l55 -12l-49 -332h-784z" />
    <glyph glyph-name="M" unicode="M" horiz-adv-x="1409" 
d="M934 0v27l158 24l-70 910h-8l-326 -979h-67l-340 1038h-7l-65 -942l168 -49v-29h-387v27l149 51l80 1040l-143 47v29h319l314 -987l313 987h295v-27l-166 -30l106 -1088l148 -20v-29h-471z" />
    <glyph glyph-name="N" unicode="N" horiz-adv-x="1118" 
d="M37 0v27l131 45v1040l-133 53v29h254l604 -883v807l-156 47v29h363v-27l-131 -43v-1142h-49l-676 999v-909l155 -43v-29h-362z" />
    <glyph glyph-name="O" unicode="O" horiz-adv-x="1150" 
d="M1096 643q0 -132 -37 -251t-104.5 -210t-169 -144.5t-222.5 -53.5q-230 0 -369 160t-139 419q0 285 149.5 467t387.5 182q230 0 367 -158.5t137 -410.5zM918 604q0 118 -18.5 215.5t-57 176t-105.5 122t-157 43.5q-92 0 -160.5 -42.5t-109 -119t-60 -175t-19.5 -218.5
q0 -160 36.5 -286.5t114 -204.5t187.5 -78q78 0 139.5 32t100 85.5t64 128t35.5 153.5t10 168z" />
    <glyph glyph-name="P" unicode="P" horiz-adv-x="927" 
d="M35 0v27l160 22v1094l-160 22v29h500q164 0 257 -84.5t93 -265.5q0 -158 -117.5 -254t-308.5 -96h-105v-441l181 -24v-29h-500zM481 1137h-127v-590h99q137 0 203.5 72t66.5 217q0 140 -61 220.5t-181 80.5z" />
    <glyph glyph-name="Q" unicode="Q" horiz-adv-x="1150" 
d="M1096 643q0 -211 -91 -381t-249 -239l370 -207v-35h-215l-221 219q-66 -16 -127 -16q-230 0 -369 160t-139 419q0 285 149.5 467t387.5 182q230 0 367 -158.5t137 -410.5zM918 604q0 118 -18.5 215.5t-57 176t-105.5 122t-157 43.5q-92 0 -160.5 -42.5t-109 -119
t-60 -175t-19.5 -218.5q0 -160 36.5 -286.5t114 -204.5t187.5 -78q78 0 139.5 32t100 85.5t64 128t35.5 153.5t10 168z" />
    <glyph glyph-name="R" unicode="R" horiz-adv-x="1021" 
d="M788 0l-294 561h-132v-510l173 -22v-29h-500v27l168 24v1090l-168 24v29h485q163 0 256.5 -74.5t93.5 -234.5q0 -105 -55.5 -182t-161.5 -113l21 -37l272 -494l94 -36v-23h-252zM467 1137h-105v-523h76q121 5 195 76t74 187q0 122 -59.5 190.5t-180.5 69.5z" />
    <glyph glyph-name="S" unicode="S" horiz-adv-x="778" 
d="M639 854l-59 252q-71 51 -164 51q-103 0 -159 -61t-56 -152q0 -89 53 -145.5t156 -102.5q132 -59 184 -96q138 -101 139 -276q0 -70 -22.5 -128t-60.5 -97t-89.5 -66t-107 -39t-115.5 -12q-152 0 -293 69v293h47l68 -252q92 -57 205 -57q101 0 159 54t58 187
q0 51 -19 92.5t-57.5 73t-76.5 53t-95 46.5q-49 21 -81 38t-72 45.5t-63.5 60t-40 78.5t-16.5 103q0 152 98.5 249t235.5 97q174 0 295 -71v-287h-51z" />
    <glyph glyph-name="T" unicode="T" horiz-adv-x="909" 
d="M203 0v27l168 24v1088h-244l-68 -285h-51v340h891v-340h-49l-80 285h-235v-1088l172 -22v-29h-504z" />
    <glyph glyph-name="U" unicode="U" horiz-adv-x="1130" 
d="M592 -18q-64 0 -122.5 12t-116.5 43t-100.5 79t-68.5 126t-26 178v723l-138 22v29h478v-27l-179 -26v-711q0 -107 22.5 -184t62.5 -119.5t88 -62t106 -19.5q293 0 293 426v651l-162 43v29h379v-27l-139 -47v-655q0 -103 -22 -186t-58 -137.5t-85.5 -91t-102 -52.5
t-109.5 -16z" />
    <glyph glyph-name="V" unicode="V" horiz-adv-x="1009" 
d="M446 0l-364 1153l-88 18v23h397v-20l-137 -29l291 -989h8l297 966l-166 49v23h334v-20l-103 -48l-352 -1126h-117z" />
    <glyph glyph-name="W" unicode="W" horiz-adv-x="1568" 
d="M393 0l-313 1153l-86 18v23h397v-20l-139 -29l237 -977h9l256 1026h110l273 -1038h8l264 966l-168 49v23h334v-20l-96 -48l-330 -1126h-115l-262 995h-8l-256 -995h-115z" />
    <glyph glyph-name="X" unicode="X" 
d="M582 0v29l139 28l-248 461l-252 -446l139 -41v-31h-354v29l119 41l324 497l-306 572l-123 24v31h424v-29l-133 -32l228 -418l229 401l-117 47v31h310v-29l-107 -47l-289 -452l332 -613l113 -22v-31h-428z" />
    <glyph glyph-name="Y" unicode="Y" horiz-adv-x="968" 
d="M242 0v27l168 24v441l-326 657l-74 16v29h379v-27l-129 -28l291 -582l229 561l-159 47v29h337v-27l-88 -34l-299 -641v-441l172 -22v-29h-501z" />
    <glyph glyph-name="Z" unicode="Z" horiz-adv-x="827" 
d="M31 0l-11 39l578 1100h-442l-62 -285h-53v340h733l14 -25l-595 -1114h479l80 271l49 -9l-25 -317h-745z" />
    <glyph glyph-name="bracketleft" unicode="[" horiz-adv-x="497" 
d="M414 -371h-224v1764h224v-70h-154v-1624h154v-70z" />
    <glyph glyph-name="backslash" unicode="\" horiz-adv-x="526" 
d="M449 -184l-453 1570h76l452 -1570h-75z" />
    <glyph glyph-name="bracketright" unicode="]" horiz-adv-x="499" 
d="M311 -371h-227v70h156v1624h-156v70h227v-1764z" />
    <glyph glyph-name="asciicircum" unicode="^" horiz-adv-x="870" 
d="M758 496h-76l-238 622l-270 -622h-74l306 698h86z" />
    <glyph glyph-name="underscore" unicode="_" horiz-adv-x="972" 
d="M973 -180h-973v74h973v-74z" />
    <glyph glyph-name="grave" unicode="`" horiz-adv-x="573" 
d="M106 1311l89 110l260 -338l-19 -16z" />
    <glyph glyph-name="a" unicode="a" horiz-adv-x="776" 
d="M143 612h-45v256q133 72 264 72q56 0 104.5 -14t89.5 -44t65 -84.5t24 -127.5v-611l111 -39v-20h-228l-22 117q-114 -133 -252 -133q-93 0 -153 65.5t-60 177.5q0 122 101 204.5t270 82.5h90v182q0 107 -38 151t-106 44q-74 0 -147 -53zM500 143l2 318h-119
q-100 0 -150.5 -54.5t-50.5 -152.5q0 -180 129 -180q83 0 189 69z" />
    <glyph glyph-name="b" unicode="b" horiz-adv-x="835" 
d="M117 74v1286h-142v24l187 56h100v-619q123 119 230 119q303 0 303 -459q0 -215 -120.5 -357t-293.5 -142q-161 0 -264 92zM414 842q-72 0 -152 -51v-691q69 -59 164 -59q209 0 209 403q0 185 -59 291.5t-162 106.5z" />
    <glyph glyph-name="c" unicode="c" horiz-adv-x="724" 
d="M631 586l-62 235q-79 70 -157 70q-98 0 -162 -102t-64 -310t78 -305.5t209 -97.5q44 0 102.5 25t102.5 67l18 -39q-35 -54 -115 -100.5t-169 -46.5q-183 0 -278 122t-95 340q0 140 45 252t132 178t202 66q84 0 140.5 -17t125.5 -63v-274h-53z" />
    <glyph glyph-name="d" unicode="d" horiz-adv-x="856" 
d="M602 0l-24 111q-101 -127 -228 -127q-48 0 -91 13.5t-84 46t-70.5 81.5t-47.5 126t-18 173q0 227 109.5 365.5t269.5 138.5q83 0 155 -21v453h-141v24l178 56h107v-1381l121 -39v-20h-236zM573 131v682q-60 66 -155 66q-113 0 -171.5 -105t-58.5 -295q0 -191 53.5 -296
t153.5 -105q99 0 178 53z" />
    <glyph glyph-name="e" unicode="e" horiz-adv-x="743" 
d="M186 465q0 -182 79.5 -284.5t205.5 -102.5q44 0 103.5 25t103.5 65l18 -39q-35 -54 -115 -99.5t-169 -45.5q-183 0 -278 121t-95 339q0 214 96.5 355t255.5 141q301 0 314 -444h-519v-31zM379 895q-75 0 -128 -90.5t-63 -255.5h351q4 346 -160 346z" />
    <glyph glyph-name="f" unicode="f" horiz-adv-x="499" 
d="M27 0v20l133 39v813h-137v13l137 39v178q0 143 107 243.5t239 100.5q44 0 78 -10l-27 -162h-10l-189 98q-34 -32 -44.5 -82.5t-10.5 -126.5v-241h166v-50h-166v-809l158 -40v-23h-434z" />
    <glyph glyph-name="g" unicode="g" horiz-adv-x="802" 
d="M379 360q-34 0 -74 7l-90 -131l234 -35q305 -49 305 -262q0 -68 -29.5 -134.5t-83 -121t-136.5 -88t-181 -33.5q-147 0 -228.5 75t-81.5 185q0 74 60.5 143.5t154.5 118.5l-133 20v76l174 197q-85 27 -134.5 95t-49.5 163q0 118 80.5 211.5t202.5 93.5q145 0 225 -96
l197 78h12v-99h-193q49 -76 49 -184q0 -111 -85.5 -195t-194.5 -84zM152 -166q0 -86 51.5 -144.5t163.5 -58.5q114 0 193 70.5t79 163.5q0 160 -225 192l-156 23q-106 -97 -106 -246zM375 412q125 0 125 217q0 141 -34.5 201.5t-103.5 60.5q-124 0 -124 -240
q0 -239 137 -239z" />
    <glyph glyph-name="h" unicode="h" horiz-adv-x="976" 
d="M20 0v20l134 39v1301h-144v24l189 56h100v-672q66 77 136.5 124.5t160.5 47.5q117 0 175 -93t58 -239v-547l138 -38v-23h-418v20l137 41v517q0 132 -40 195t-128 63q-61 0 -119.5 -28.5t-99.5 -66.5v-680l137 -38v-23h-416z" />
    <glyph glyph-name="i" unicode="i" horiz-adv-x="471" 
d="M35 0v20l133 27v797h-143v22l225 74h61v-893l140 -24v-23h-416zM143 1268q0 43 30 73.5t69 30.5t68.5 -30.5t29.5 -73.5q0 -44 -29.5 -74.5t-68.5 -30.5t-69 31t-30 74z" />
    <glyph glyph-name="j" unicode="j" horiz-adv-x="421" 
d="M70 -424l-17 21q67 70 85 141.5t18 269.5v836h-144v22l226 74h61v-944q0 -123 -63.5 -231.5t-165.5 -188.5zM231 1163q-39 0 -68.5 30.5t-29.5 74.5q0 43 29.5 73.5t68.5 30.5q38 0 67.5 -30.5t29.5 -73.5t-29.5 -74t-67.5 -31z" />
    <glyph glyph-name="k" unicode="k" horiz-adv-x="847" 
d="M20 0v20l134 39v1301h-144v24l189 56h100v-1379l137 -38v-23h-416zM342 481v17l287 348l-142 55v21h324v-23l-121 -55l-229 -281l270 -493l131 -50v-20h-262z" />
    <glyph glyph-name="l" unicode="l" horiz-adv-x="440" 
d="M20 0v20l134 39v1301h-144v24l189 56h100v-1379l137 -38v-23h-416z" />
    <glyph glyph-name="m" unicode="m" horiz-adv-x="1464" 
d="M549 0v20l137 41v521q0 136 -39 195t-129 59q-107 0 -207 -95v-680l140 -38v-23h-416v20l133 39v785h-143v22l198 74h74l12 -174q34 40 57 63.5t60.5 53t79.5 43.5t90 14q158 0 211 -174q32 38 56 63t61 53.5t79.5 43t90.5 14.5q117 0 175 -93t58 -239v-547l135 -38v-23
h-415v20l137 41v521q0 134 -39.5 194t-128.5 60q-98 0 -203 -91q16 -69 16 -137v-547l138 -38v-23h-418z" />
    <glyph glyph-name="n" unicode="n" horiz-adv-x="980" 
d="M35 0v20l133 39v785h-143v22l198 74h74l12 -174q32 37 59.5 63t66 54t83 42.5t92.5 14.5q117 0 175.5 -93t58.5 -239v-547l135 -38v-23h-416v20l137 41v519q0 133 -39.5 194.5t-128.5 61.5q-62 0 -121 -28.5t-100 -66.5v-680l140 -38v-23h-416z" />
    <glyph glyph-name="o" unicode="o" horiz-adv-x="802" 
d="M762 461q0 -123 -48.5 -232.5t-134.5 -177t-188 -67.5q-352 0 -352 467q0 125 49 237.5t134.5 182t183.5 69.5q179 0 267.5 -118t88.5 -361zM604 436q0 43 -1.5 80t-6.5 85.5t-13.5 87t-25 78.5t-38 66t-54.5 43t-74 17q-44 0 -77 -16.5t-53.5 -48.5t-34 -68t-19.5 -87
t-8 -92.5t-2 -97.5q0 -450 219 -450q43 0 75.5 15t52.5 46t32.5 64.5t18.5 85.5t7.5 92.5t1.5 99.5z" />
    <glyph glyph-name="p" unicode="p" horiz-adv-x="880" 
d="M29 -424v21l135 43v1204h-144v22l197 74h74l12 -123q123 123 234 123q303 0 303 -459q0 -215 -121 -357t-293 -142q-69 0 -121 14v-354l158 -43v-23h-434zM485 842q-96 0 -180 -51v-695q72 -55 166 -55q207 0 207 403q0 175 -48 286.5t-145 111.5z" />
    <glyph glyph-name="q" unicode="q" horiz-adv-x="813" 
d="M412 -403l157 45v448q-106 -106 -219 -106q-59 0 -113 26t-99 77.5t-72 138.5t-27 198q0 228 110 372t269 144q71 0 159 -17t136 -42v-1243l133 -39v-23h-434v21zM395 78q93 0 174 51v688q-60 66 -151 66q-113 0 -171.5 -107t-58.5 -297q0 -191 53.5 -296t153.5 -105z
" />
    <glyph glyph-name="r" unicode="r" horiz-adv-x="628" 
d="M35 0v20l131 39v785h-141v22l198 74h74l8 -119q61 57 125 88t117 31q46 0 82 -10l-41 -154h-6l-166 49l-109 -16l4 -51v-695l158 -40v-23h-434z" />
    <glyph glyph-name="s" unicode="s" horiz-adv-x="661" 
d="M307 -16q-136 0 -258 61v252h31l59 -203q77 -49 168 -49q81 0 135 42.5t54 127.5q0 47 -19 79.5t-49.5 49.5t-70 31.5t-80 24.5t-80 30t-70 46.5t-49.5 75t-19 114.5q0 128 85.5 201t207.5 73q131 0 230 -57v-230h-37l-43 170q-90 58 -172 58q-74 0 -120 -41.5
t-46 -130.5q0 -54 24.5 -88.5t64 -51t87 -28.5t95 -28t87 -41t64 -75.5t24.5 -124.5q0 -76 -26 -133.5t-70 -90t-96 -48.5t-111 -16z" />
    <glyph glyph-name="t" unicode="t" horiz-adv-x="557" 
d="M549 70l6 -29q-103 -57 -203 -57t-166 65.5t-65 202.5v616h-111v17l117 41l121 235h22v-239h258v-54h-258v-637q3 -188 154 -188q54 0 125 27z" />
    <glyph glyph-name="u" unicode="u" horiz-adv-x="925" 
d="M672 0l-27 115q-77 -75 -131 -103t-123 -28q-126 0 -185 84t-59 229v547h-143v22l225 74h62v-563q0 -155 34.5 -230t123.5 -75q58 0 99 12.5t95 48.5v711h-143v22l225 74h61v-881l121 -39v-20h-235z" />
    <glyph glyph-name="v" unicode="v" horiz-adv-x="839" 
d="M854 922v-21l-139 -55l-256 -846h-80l-305 870l-88 29v23h374v-21l-127 -43l226 -684h6l192 676l-129 49v23h326z" />
    <glyph glyph-name="w" unicode="w" horiz-adv-x="1320" 
d="M319 0l-247 872l-86 27v23h374v-21l-133 -45l170 -682h6l211 748h115l221 -748h6l181 676l-129 49v23h327v-21l-139 -53l-246 -848h-86l-227 778h-2l-236 -778h-80z" />
    <glyph glyph-name="x" unicode="x" horiz-adv-x="882" 
d="M213 76l133 -53v-23h-344v20l125 56l258 358l-260 432l-105 33v23h373v-21l-98 -35l168 -315l188 291l-121 57v23h344v-21l-157 -61l-230 -334l273 -447l121 -36v-23h-373v20l78 27l-176 340z" />
    <glyph glyph-name="y" unicode="y" horiz-adv-x="821" 
d="M471 20l-117 -444h-104v16l129 332l-301 946l-92 29v23h374v-21l-129 -45l220 -700l194 692l-117 51v23h308v-21l-129 -55z" />
    <glyph glyph-name="z" unicode="z" horiz-adv-x="671" 
d="M653 293l-39 -293h-575l-19 59l441 813h-293l-96 -188l-35 6l24 232h547l19 -37l-459 -836h334l123 248z" />
    <glyph glyph-name="braceleft" unicode="{" horiz-adv-x="534" 
d="M500 -344l-43 -4q-90 -6 -159.5 19t-111.5 93.5t-34 174.5l32 380q5 63 -27.5 115.5t-99.5 65.5v61q64 14 97 67t30 117l-32 392q-4 134 76.5 201t213.5 65h58v-68h-47q-226 0 -226 -205l33 -366q3 -49 1 -90t-30.5 -78.5t-87.5 -63.5q129 -45 115 -229l-33 -371
q-7 -105 55 -159t173 -54h47v-63z" />
    <glyph glyph-name="bar" unicode="|" horiz-adv-x="434" 
d="M254 -186h-68v1562h68v-1562z" />
    <glyph glyph-name="braceright" unicode="}" horiz-adv-x="534" 
d="M78 -348l-43 4v68h47q117 0 177 47.5t50 160.5l-33 371q-14 184 115 229q-59 26 -87.5 63.5t-30.5 78.5t1 90l33 366q6 107 -56 156t-169 49h-47v68h59q132 2 212.5 -65.5t76.5 -200.5l-33 -392q-3 -64 30 -117t97 -67v-61q-67 -13 -99.5 -65.5t-27.5 -115.5l33 -380
q7 -80 -15 -139.5t-66 -92t-100.5 -46.5t-123.5 -9z" />
    <glyph glyph-name="asciitilde" unicode="~" horiz-adv-x="862" 
d="M754 676l32 -43q-43 -54 -86 -80.5t-100 -26.5q-67 0 -172 45t-164 45q-73 0 -147 -69l-31 43q86 100 188 100q54 0 102 -14.5t77.5 -31.5t71.5 -31.5t87 -14.5q37 0 69.5 20t72.5 58z" />
    <glyph glyph-name="uni00A0" unicode="&#xa0;" horiz-adv-x="421" 
 />
    <glyph glyph-name="exclamdown" unicode="&#xa1;" horiz-adv-x="491" 
d="M152 -285l81 865h25l82 -865h-188zM133 823q0 47 32.5 82t78.5 35q44 0 76 -35t32 -82t-32 -80.5t-76 -33.5q-46 0 -78.5 33.5t-32.5 80.5z" />
    <glyph glyph-name="cent" unicode="&#xa2;" horiz-adv-x="774" 
d="M631 586l-62 235q-60 54 -120 66v-811h24q44 0 102.5 25t102.5 67l18 -39q-31 -48 -99.5 -91.5t-147.5 -53.5v-142h-60v140q-172 7 -261 129t-89 333q0 204 94.5 343t255.5 151v158h60v-156q69 -3 120 -20.5t115 -59.5v-274h-53zM186 479q0 -334 203 -393v803
q-90 -11 -146.5 -112.5t-56.5 -297.5z" />
    <glyph glyph-name="sterling" unicode="&#xa3;" horiz-adv-x="851" 
d="M618 621v-72h-272q14 -79 14 -131q0 -123 -90 -338h383l129 278l47 -6l-49 -352h-762v29l156 49q41 139 41 293q0 50 -31 178h-149v72h129q-29 123 -29 217q0 107 50.5 194.5t125.5 133.5t154 46q153 0 268 -73v-303h-47l-68 256q-69 57 -151 57q-85 0 -134.5 -68
t-49.5 -186q0 -19 2.5 -42.5t5 -41t8.5 -47.5t9.5 -44.5t12 -51t11.5 -47.5h286z" />
    <glyph glyph-name="currency" unicode="&#xa4;" horiz-adv-x="884" 
d="M131 229l-51 50l133 133q-70 80 -70 198q0 108 70 195l-131 135l45 47l127 -135q91 70 192 70q107 0 191 -66l127 133l47 -51l-127 -133q31 -32 50.5 -86.5t19.5 -108.5q0 -53 -21.5 -107t-54.5 -93l131 -134l-43 -49l-129 135q-92 -65 -191 -65q-108 0 -188 65zM446 367
q114 0 169 66.5t55 176.5q0 107 -56 175.5t-168 68.5q-109 0 -165 -69t-56 -175q0 -108 56.5 -175.5t164.5 -67.5z" />
    <glyph glyph-name="yen" unicode="&#xa5;" horiz-adv-x="974" 
d="M242 0v27l168 24v297h-275v60h275v84l-50 98h-225v59h197l-248 500l-74 16v29h379v-27l-129 -28l291 -582l229 561l-159 47v29h337v-27l-90 -34l-225 -484h217v-59h-244l-45 -98v-84h291v-60h-291v-297l172 -22v-29h-501z" />
    <glyph glyph-name="brokenbar" unicode="&#xa6;" horiz-adv-x="419" 
d="M250 -188h-72v594h72v-594zM250 1382v-579h-72v579h72z" />
    <glyph glyph-name="section" unicode="&#xa7;" horiz-adv-x="819" 
d="M666 854l-19 215q-104 72 -219 72q-69 0 -127.5 -31t-97.5 -86l332 -297q111 -110 159.5 -232t48.5 -266q0 -89 -33 -168.5t-87 -133.5t-123 -85.5t-140 -31.5q-95 0 -159.5 22t-128.5 64v272h59l16 -215q104 -72 220 -72q68 0 126 32t97 87l-330 297
q-112 110 -160.5 231t-48.5 265q0 89 33 168.5t87 133.5t123 85.5t140 31.5q95 0 160 -22t129 -64v-272h-57zM135 797q0 -143 48.5 -255.5t158.5 -211.5l285 -260q30 75 30 155q0 150 -49 257.5t-162 209.5l-284 258q-27 -79 -27 -153z" />
    <glyph glyph-name="dieresis" unicode="&#xa8;" horiz-adv-x="733" 
d="M129 1249q0 38 24 63t62 25q36 0 60 -25t24 -63q0 -37 -24.5 -63.5t-59.5 -26.5q-38 0 -62 26t-24 64zM434 1249q0 38 24.5 63t61.5 25q36 0 60 -25t24 -63q0 -37 -24.5 -63.5t-59.5 -26.5q-36 0 -61 26.5t-25 63.5z" />
    <glyph glyph-name="copyright" unicode="&#xa9;" horiz-adv-x="1413" 
d="M965 737h-31l-88 178q-61 25 -103 25q-102 0 -158.5 -99.5t-56.5 -240.5q0 -146 55 -244t152 -98q78 0 133 51t80 115h17v-143q-122 -70 -236 -70q-80 0 -148 22.5t-120.5 66.5t-82.5 116.5t-30 165.5q0 180 109.5 288.5t267.5 108.5q162 0 240 -53v-189zM117 592
q0 168 79 311t215 226t296 83q159 0 295 -83t215 -226t79 -311t-79 -311t-215 -226.5t-295 -83.5q-160 0 -296 83.5t-215 226.5t-79 311zM170 592q0 -153 71.5 -283t195.5 -206t270 -76q144 0 267.5 76t196 206t72.5 283q0 152 -72.5 282.5t-196 206.5t-267.5 76
q-146 0 -270 -76.5t-195.5 -206.5t-71.5 -282z" />
    <glyph glyph-name="ordfeminine" unicode="&#xaa;" horiz-adv-x="684" 
d="M135 1219h-39v180q39 19 100.5 34t118.5 15q91 0 157.5 -50.5t66.5 -148.5v-420l98 -26v-15h-199l-18 82q-84 -94 -187 -94q-91 0 -136.5 43.5t-45.5 124.5q0 99 82.5 152t220.5 53h64v119q0 147 -105 147q-71 0 -131 -49zM416 889l2 223h-86q-160 0 -160 -145
q0 -62 25.5 -95.5t74.5 -33.5q59 0 144 51zM59 668v32h566v-32h-566z" />
    <glyph glyph-name="guillemotleft" unicode="&#xab;" horiz-adv-x="716" 
d="M295 94l-238 369l236 366h39l-99 -366l99 -369h-37zM598 94l-238 369l236 366h39l-98 -366l98 -369h-37z" />
    <glyph glyph-name="logicalnot" unicode="&#xac;" horiz-adv-x="962" 
d="M831 205h-83v379h-639v78h722v-457z" />
    <glyph glyph-name="registered" unicode="&#xae;" horiz-adv-x="843" 
d="M422 549q-155 0 -260 109t-105 272t105 273t260 110t259.5 -110t104.5 -273t-104.5 -272t-259.5 -109zM422 588q133 0 222 99.5t89 242.5t-89 242.5t-222 99.5q-132 0 -221.5 -100t-89.5 -242t89.5 -242t221.5 -100zM236 743v9l53 20v336l-53 18v13h208q62 0 98 -29.5
t36 -85.5q0 -75 -68 -102l80 -150l49 -20v-9h-147l-80 166h-23v-137l47 -18v-11h-200zM397 1116h-8v-184q41 0 62.5 20.5t21.5 71.5q0 89 -76 92z" />
    <glyph glyph-name="macron" unicode="&#xaf;" horiz-adv-x="677" 
d="M578 1221h-480v57h480v-57z" />
    <glyph glyph-name="degree" unicode="&#xb0;" horiz-adv-x="765" 
d="M641 950q0 -107 -72.5 -186.5t-191.5 -79.5q-117 0 -184.5 76.5t-67.5 187.5q0 107 73.5 185.5t192.5 78.5q117 0 183.5 -76t66.5 -186zM535 950q0 92 -42.5 149.5t-111.5 57.5q-70 0 -110 -58t-40 -153q0 -93 42 -150t112 -57q74 0 112 57t38 154z" />
    <glyph glyph-name="plusminus" unicode="&#xb1;" horiz-adv-x="974" 
d="M862 96h-749v74h749v-74zM522 721h340v-74h-340v-346h-73v346h-336v74h336v340h73v-340z" />
    <glyph glyph-name="twosuperior" unicode="&#xb2;" horiz-adv-x="473" 
d="M446 971l-10 -154h-401l-12 45q126 107 201 217t75 199q0 135 -100 135q-41 0 -76 -25t-51 -75h-31v88q68 59 174 59q85 0 144 -49t59 -139q0 -91 -89.5 -191.5t-226.5 -189.5h277l41 84z" />
    <glyph glyph-name="threesuperior" unicode="&#xb3;" horiz-adv-x="456" 
d="M41 950h29q15 -47 49 -73.5t80 -26.5q50 0 79 36t29 93q0 64 -38 99.5t-130 35.5v35q57 5 98.5 50.5t41.5 109.5q0 108 -86 108q-44 0 -70.5 -26t-48.5 -80h-29v92q68 57 166 57q74 0 126 -42.5t52 -104.5q0 -58 -44.5 -98.5t-88.5 -53.5v-4q65 -5 112.5 -45.5
t47.5 -105.5q0 -91 -70.5 -144t-159.5 -53q-65 0 -145 29v112z" />
    <glyph glyph-name="acute" unicode="&#xb4;" horiz-adv-x="573" 
d="M387 1421l88 -110l-330 -244l-18 16z" />
    <glyph glyph-name="mu" unicode="&#xb5;" horiz-adv-x="942" 
d="M760 -10q-54 0 -92.5 35t-49.5 90q-76 -73 -131.5 -102t-107.5 -29q-67 0 -111 30l11 -166v-272h-146v1346h146v-613q1 -71 12 -116t33.5 -67t48 -29.5t65.5 -8.5q48 0 81.5 12.5t94.5 46.5v775h144v-697q0 -92 16.5 -125.5t50.5 -33.5q60 0 99 4l4 -25q-79 -55 -168 -55
z" />
    <glyph glyph-name="paragraph" unicode="&#xb6;" horiz-adv-x="1103" 
d="M545 305q-98 3 -180.5 32.5t-144.5 84t-97 138.5t-35 190q0 200 127 322t338 122h459v-47l-125 -17v-1554h-82v1538h-170v-1538h-90v729z" />
    <glyph glyph-name="periodcentered" unicode="&#xb7;" horiz-adv-x="253" 
d="M20 612q0 47 31.5 79t77.5 32q43 0 73.5 -32t30.5 -79q0 -46 -30.5 -78t-73.5 -32q-46 0 -77.5 32t-31.5 78z" />
    <glyph glyph-name="cedilla" unicode="&#xb8;" horiz-adv-x="550" 
d="M240 -438q-84 0 -142 30l29 52q56 -31 111 -31q42 0 79 31t37 73q0 54 -36.5 93.5t-110.5 56.5l84 149l39 2l-45 -124q80 -12 123 -55.5t43 -104.5q0 -72 -57.5 -122t-153.5 -50z" />
    <glyph glyph-name="onesuperior" unicode="&#xb9;" horiz-adv-x="432" 
d="M49 817v17l113 30v514h-125v15l199 57h38v-582l123 -34v-17h-348z" />
    <glyph glyph-name="ordmasculine" unicode="&#xba;" horiz-adv-x="690" 
d="M59 668v32h566v-32h-566zM618 1116q0 -133 -82 -233.5t-198 -100.5q-128 0 -198 80t-70 246q0 134 82.5 237t195.5 103q270 0 270 -332zM506 1098q0 297 -170 297q-48 0 -80.5 -21.5t-47.5 -62.5t-20.5 -82.5t-5.5 -98.5q0 -55 7.5 -102.5t25.5 -92.5t54 -71t87 -26
q39 0 67 14.5t43.5 37t25 58.5t12 70t2.5 80z" />
    <glyph glyph-name="guillemotright" unicode="&#xbb;" horiz-adv-x="718" 
d="M117 836l237 -369l-235 -367h-39l98 367l-98 369h37zM424 836l238 -369l-236 -367h-39l98 367l-98 369h37z" />
    <glyph glyph-name="onequarter" unicode="&#xbc;" horiz-adv-x="1302" 
d="M1188 160h-72v-160h-108v160h-246l-21 45l293 428h82v-397h82zM117 561v17l112 30v514h-125v15l199 57h39v-582l123 -34v-17h-348zM279 -10l-37 20l743 1133l39 -23zM819 236h189v286z" />
    <glyph glyph-name="onehalf" unicode="&#xbd;" horiz-adv-x="1318" 
d="M1214 154l-10 -154h-401l-12 45q126 107 201 217t75 199q0 135 -100 135q-41 0 -76 -25t-51 -75h-31v88q68 59 174 59q85 0 144 -49t59 -139q0 -91 -89.5 -191.5t-226.5 -189.5h277l41 84zM117 561v17l112 30v514h-125v15l199 57h39v-582l123 -34v-17h-348zM279 -10
l-37 20l743 1133l39 -23z" />
    <glyph glyph-name="threequarters" unicode="&#xbe;" horiz-adv-x="1292" 
d="M1178 160h-72v-160h-109v160h-245l-21 45l293 428h82v-397h82zM104 692h29q15 -47 49 -73.5t80 -26.5q50 0 79.5 36t29.5 93q0 64 -38 99.5t-130 35.5v35q57 5 98 50.5t41 109.5q0 108 -86 108q-44 0 -70.5 -26t-48.5 -80h-28v92q68 57 165 57q74 0 126.5 -42.5
t52.5 -104.5q0 -58 -45 -98.5t-89 -53.5v-4q65 -5 112.5 -45.5t47.5 -105.5q0 -91 -70 -144t-159 -53q-66 0 -146 29v112zM295 -10l-37 20l743 1133l39 -23zM809 236h188v286z" />
    <glyph glyph-name="questiondown" unicode="&#xbf;" horiz-adv-x="643" 
d="M0 -8q0 61 23.5 113t58.5 86.5t81.5 61t87 40.5t79.5 22l35 248h41l28 -268q-40 -15 -81 -37t-90 -58t-80 -88t-31 -110q0 -108 49.5 -176t128.5 -68q33 0 60.5 8t43 17t41.5 27l53 196h35v-237q-126 -66 -250 -66q-139 0 -226 71t-87 218zM281 823q0 47 33 82t77 35
q46 0 78.5 -35t32.5 -82t-32.5 -80.5t-78.5 -33.5q-45 0 -77.5 33.5t-32.5 80.5z" />
    <glyph glyph-name="Agrave" unicode="&#xc0;" horiz-adv-x="995" 
d="M604 0v20l141 27l-114 424h-342l-127 -401l164 -47v-23h-332v20l100 48l369 1126h117l333 -1153l91 -18v-23h-400zM469 1036l-164 -510h311l-139 510h-8zM244 1417l65 127l326 -239l-10 -27z" />
    <glyph glyph-name="Aacute" unicode="&#xc1;" horiz-adv-x="995" 
d="M604 0v20l141 27l-114 424h-342l-127 -401l164 -47v-23h-332v20l100 48l369 1126h117l333 -1153l91 -18v-23h-400zM469 1036l-164 -510h311l-139 510h-8zM758 1548l55 -131l-379 -139l-12 27z" />
    <glyph glyph-name="Acircumflex" unicode="&#xc2;" horiz-adv-x="995" 
d="M604 0v20l141 27l-114 424h-342l-127 -401l164 -47v-23h-332v20l100 48l369 1126h117l333 -1153l91 -18v-23h-400zM469 1036l-164 -510h311l-139 510h-8zM772 1290l-248 101l-233 -97l-21 21l260 211l258 -209z" />
    <glyph glyph-name="Atilde" unicode="&#xc3;" horiz-adv-x="995" 
d="M604 0v20l141 27l-114 424h-342l-127 -401l164 -47v-23h-332v20l100 48l369 1126h117l333 -1153l91 -18v-23h-400zM469 1036l-164 -510h311l-139 510h-8zM614 1307q-44 0 -107.5 24.5t-107.5 24.5q-56 0 -106 -45l-17 14q56 131 168 131q52 0 116 -23.5t110 -23.5
q31 0 92 35l12 -14q-16 -43 -56 -83t-104 -40z" />
    <glyph glyph-name="Adieresis" unicode="&#xc4;" horiz-adv-x="995" 
d="M604 0v20l141 27l-114 424h-342l-127 -401l164 -47v-23h-332v20l100 48l369 1126h117l333 -1153l91 -18v-23h-400zM469 1036l-164 -510h311l-139 510h-8zM264 1389q0 38 24 63t62 25q36 0 60 -25t24 -63q0 -37 -24.5 -64t-59.5 -27q-37 0 -61.5 26.5t-24.5 64.5z
M610 1389q0 38 24.5 63t61.5 25q36 0 60 -25t24 -63q0 -37 -24.5 -64t-59.5 -27q-36 0 -61 27t-25 64z" />
    <glyph glyph-name="Aring" unicode="&#xc5;" horiz-adv-x="995" 
d="M604 0v20l141 27l-114 424h-342l-127 -401l164 -47v-23h-332v20l100 48l369 1126h117l333 -1153l91 -18v-23h-400zM469 1036l-164 -510h311l-139 510h-8zM512 1268q-54 0 -102 41t-48 110q0 66 41.5 107t108.5 41q68 0 110 -42.5t42 -105.5q0 -68 -44 -109.5t-108 -41.5z
M512 1305q54 0 84.5 29t30.5 85q0 51 -31.5 82t-83.5 31q-54 0 -83.5 -30t-29.5 -83q0 -55 35 -84.5t78 -29.5z" />
    <glyph glyph-name="AE" unicode="&#xc6;" horiz-adv-x="1384" 
d="M528 0v27l177 26v418h-328l-195 -408l144 -40v-23h-332v20l117 56l544 1118h668v-270h-57l-54 217h-348v-506l381 8v-70l-381 7v-525h361l84 236l47 -12l-29 -279h-799zM690 1126l-287 -600h302v600h-15z" />
    <glyph glyph-name="Ccedilla" unicode="&#xc7;" horiz-adv-x="983" 
d="M938 829h-53l-70 273q-85 59 -192 59q-172 0 -282 -144t-110 -409q0 -282 116.5 -427.5t305.5 -145.5q91 0 151 50.5t107 137.5h27v-162l-32 -16t-60 -27t-87.5 -23t-121.5 -11h-4l-33 -90q80 -12 123 -55.5t43 -104.5q0 -72 -57.5 -122t-153.5 -50q-83 0 -141 30l28 52
q56 -31 111 -31q42 0 79.5 31t37.5 73q0 53 -37 93t-111 57l66 119q-246 12 -389.5 165t-143.5 441q0 175 73.5 316.5t206 222.5t298.5 81q163 0 305 -67v-316z" />
    <glyph glyph-name="Egrave" unicode="&#xc8;" horiz-adv-x="892" 
d="M754 573l-392 7v-525h371l84 236l47 -12l-28 -279h-801v27l168 24v1090l-168 24v29h796v-270h-59l-51 217h-359v-506l392 8v-70zM250 1417l65 127l326 -239l-10 -27z" />
    <glyph glyph-name="Eacute" unicode="&#xc9;" horiz-adv-x="892" 
d="M754 573l-392 7v-525h371l84 236l47 -12l-28 -279h-801v27l168 24v1090l-168 24v29h796v-270h-59l-51 217h-359v-506l392 8v-70zM739 1548l56 -131l-379 -139l-13 27z" />
    <glyph glyph-name="Ecircumflex" unicode="&#xca;" horiz-adv-x="892" 
d="M754 573l-392 7v-525h371l84 236l47 -12l-28 -279h-801v27l168 24v1090l-168 24v29h796v-270h-59l-51 217h-359v-506l392 8v-70zM788 1288l-247 101l-234 -97l-20 21l260 211l258 -209z" />
    <glyph glyph-name="Edieresis" unicode="&#xcb;" horiz-adv-x="892" 
d="M754 573l-392 7v-525h371l84 236l47 -12l-28 -279h-801v27l168 24v1090l-168 24v29h796v-270h-59l-51 217h-359v-506l392 8v-70zM274 1391q0 38 24 63t62 25q36 0 60 -25t24 -63q0 -37 -24.5 -64t-59.5 -27q-37 0 -61.5 26.5t-24.5 64.5zM621 1391q0 38 24.5 63t61.5 25
q36 0 60 -25t24 -63q0 -37 -24.5 -64t-59.5 -27q-36 0 -61 27t-25 64z" />
    <glyph glyph-name="Igrave" unicode="&#xcc;" horiz-adv-x="614" 
d="M57 0v27l168 24v1090l-168 24v29h500v-27l-172 -26v-1090l172 -22v-29h-500zM106 1417l66 127l326 -239l-11 -27z" />
    <glyph glyph-name="Iacute" unicode="&#xcd;" horiz-adv-x="614" 
d="M57 0v27l168 24v1090l-168 24v29h500v-27l-172 -26v-1090l172 -22v-29h-500zM510 1548l55 -131l-379 -139l-12 27z" />
    <glyph glyph-name="Icircumflex" unicode="&#xce;" horiz-adv-x="614" 
d="M57 0v27l168 24v1090l-168 24v29h500v-27l-172 -26v-1090l172 -22v-29h-500zM565 1288l-248 101l-233 -97l-21 21l261 211l258 -209z" />
    <glyph glyph-name="Idieresis" unicode="&#xcf;" horiz-adv-x="614" 
d="M57 0v27l168 24v1090l-168 24v29h500v-27l-172 -26v-1090l172 -22v-29h-500zM57 1391q0 38 24 63t62 25q36 0 60 -25t24 -63q0 -37 -24.5 -64t-59.5 -27q-37 0 -61.5 26.5t-24.5 64.5zM403 1391q0 38 24.5 63t61.5 25q36 0 60 -25t24 -63q0 -37 -24.5 -64t-59.5 -27
q-36 0 -61 27t-25 64z" />
    <glyph glyph-name="Eth" unicode="&#xd0;" horiz-adv-x="1165" 
d="M61 604v62h142v475l-168 24v29h459q108 0 194 -13.5t167.5 -51.5t135.5 -99.5t86.5 -163.5t32.5 -239q0 -152 -46 -272t-128 -197t-192 -117.5t-242 -40.5h-467v27l168 24v553h-142zM565 604h-203v-549h156q104 0 179.5 27.5t129.5 90t80.5 167.5t26.5 256
q0 133 -22.5 230t-73.5 169t-138.5 108t-212.5 36h-125v-473h203v-62z" />
    <glyph glyph-name="Ntilde" unicode="&#xd1;" horiz-adv-x="1118" 
d="M37 0v27l131 45v1040l-133 53v29h254l604 -883v807l-156 47v29h363v-27l-131 -43v-1142h-49l-676 999v-909l155 -43v-29h-362zM674 1307q-44 0 -107.5 24.5t-107.5 24.5q-57 0 -107 -45l-16 14q56 131 168 131q52 0 115.5 -23.5t109.5 -23.5q31 0 92 35l13 -14
q-16 -43 -56 -83t-104 -40z" />
    <glyph glyph-name="Ograve" unicode="&#xd2;" horiz-adv-x="1150" 
d="M1096 643q0 -132 -37 -251t-104.5 -210t-169 -144.5t-222.5 -53.5q-230 0 -369 160t-139 419q0 285 149.5 467t387.5 182q230 0 367 -158.5t137 -410.5zM918 604q0 118 -18.5 215.5t-57 176t-105.5 122t-157 43.5q-92 0 -160.5 -42.5t-109 -119t-60 -175t-19.5 -218.5
q0 -160 36.5 -286.5t114 -204.5t187.5 -78q78 0 139.5 32t100 85.5t64 128t35.5 153.5t10 168zM301 1417l66 127l325 -239l-10 -27z" />
    <glyph glyph-name="Oacute" unicode="&#xd3;" horiz-adv-x="1150" 
d="M1096 643q0 -132 -37 -251t-104.5 -210t-169 -144.5t-222.5 -53.5q-230 0 -369 160t-139 419q0 285 149.5 467t387.5 182q230 0 367 -158.5t137 -410.5zM918 604q0 118 -18.5 215.5t-57 176t-105.5 122t-157 43.5q-92 0 -160.5 -42.5t-109 -119t-60 -175t-19.5 -218.5
q0 -160 36.5 -286.5t114 -204.5t187.5 -78q78 0 139.5 32t100 85.5t64 128t35.5 153.5t10 168zM791 1548l55 -131l-379 -139l-12 27z" />
    <glyph glyph-name="Ocircumflex" unicode="&#xd4;" horiz-adv-x="1150" 
d="M1096 643q0 -132 -37 -251t-104.5 -210t-169 -144.5t-222.5 -53.5q-230 0 -369 160t-139 419q0 285 149.5 467t387.5 182q230 0 367 -158.5t137 -410.5zM918 604q0 118 -18.5 215.5t-57 176t-105.5 122t-157 43.5q-92 0 -160.5 -42.5t-109 -119t-60 -175t-19.5 -218.5
q0 -160 36.5 -286.5t114 -204.5t187.5 -78q78 0 139.5 32t100 85.5t64 128t35.5 153.5t10 168zM836 1290l-248 101l-234 -97l-20 21l260 211l258 -209z" />
    <glyph glyph-name="Otilde" unicode="&#xd5;" horiz-adv-x="1150" 
d="M1096 643q0 -132 -37 -251t-104.5 -210t-169 -144.5t-222.5 -53.5q-230 0 -369 160t-139 419q0 285 149.5 467t387.5 182q230 0 367 -158.5t137 -410.5zM918 604q0 118 -18.5 215.5t-57 176t-105.5 122t-157 43.5q-92 0 -160.5 -42.5t-109 -119t-60 -175t-19.5 -218.5
q0 -160 36.5 -286.5t114 -204.5t187.5 -78q78 0 139.5 32t100 85.5t64 128t35.5 153.5t10 168zM684 1305q-44 0 -107.5 24.5t-107.5 24.5q-57 0 -107 -45l-16 14q56 131 168 131q52 0 115.5 -23.5t109.5 -23.5q31 0 92 35l13 -15q-15 -43 -55.5 -82.5t-104.5 -39.5z" />
    <glyph glyph-name="Odieresis" unicode="&#xd6;" horiz-adv-x="1150" 
d="M1096 643q0 -132 -37 -251t-104.5 -210t-169 -144.5t-222.5 -53.5q-230 0 -369 160t-139 419q0 285 149.5 467t387.5 182q230 0 367 -158.5t137 -410.5zM918 604q0 118 -18.5 215.5t-57 176t-105.5 122t-157 43.5q-92 0 -160.5 -42.5t-109 -119t-60 -175t-19.5 -218.5
q0 -160 36.5 -286.5t114 -204.5t187.5 -78q78 0 139.5 32t100 85.5t64 128t35.5 153.5t10 168zM330 1389q0 38 24 63t62 25q36 0 60 -25t24 -63q0 -37 -24.5 -64t-59.5 -27q-37 0 -61.5 26.5t-24.5 64.5zM676 1389q0 38 24.5 63t61.5 25q36 0 60 -25t24 -63q0 -37 -24.5 -64
t-59.5 -27q-36 0 -61 27t-25 64z" />
    <glyph glyph-name="multiply" unicode="&#xd7;" horiz-adv-x="1009" 
d="M850 911l-297 -303l295 -307l-53 -57l-295 307l-285 -307l-55 51l289 305l-285 307l53 58l287 -308l291 306z" />
    <glyph glyph-name="Oslash" unicode="&#xd8;" horiz-adv-x="1150" 
d="M1096 643q0 -132 -37 -251t-104.5 -210t-169 -144.5t-222.5 -53.5q-206 0 -334 122l-96 -122h-72l129 163q-135 160 -135 416q0 285 149.5 467t387.5 182q203 0 334 -125l98 125h74l-131 -168q129 -157 129 -401zM231 606q0 -201 54 -338l561 717q-86 176 -266 176
q-92 0 -160.5 -42.5t-109 -119t-60 -175t-19.5 -218.5zM918 604q0 185 -46 322l-561 -715q88 -174 258 -174q78 0 139.5 32t100 85.5t64 128t35.5 153.5t10 168z" />
    <glyph glyph-name="Ugrave" unicode="&#xd9;" horiz-adv-x="1130" 
d="M592 -18q-64 0 -122.5 12t-116.5 43t-100.5 79t-68.5 126t-26 178v723l-138 22v29h478v-27l-179 -26v-711q0 -107 22.5 -184t62.5 -119.5t88 -62t106 -19.5q293 0 293 426v651l-162 43v29h379v-27l-139 -47v-655q0 -103 -22 -186t-58 -137.5t-85.5 -91t-102 -52.5
t-109.5 -16zM352 1417l66 127l325 -239l-10 -27z" />
    <glyph glyph-name="Uacute" unicode="&#xda;" horiz-adv-x="1130" 
d="M592 -18q-64 0 -122.5 12t-116.5 43t-100.5 79t-68.5 126t-26 178v723l-138 22v29h478v-27l-179 -26v-711q0 -107 22.5 -184t62.5 -119.5t88 -62t106 -19.5q293 0 293 426v651l-162 43v29h379v-27l-139 -47v-655q0 -103 -22 -186t-58 -137.5t-85.5 -91t-102 -52.5
t-109.5 -16zM838 1548l55 -131l-379 -139l-12 27z" />
    <glyph glyph-name="Ucircumflex" unicode="&#xdb;" horiz-adv-x="1130" 
d="M592 -18q-64 0 -122.5 12t-116.5 43t-100.5 79t-68.5 126t-26 178v723l-138 22v29h478v-27l-179 -26v-711q0 -107 22.5 -184t62.5 -119.5t88 -62t106 -19.5q293 0 293 426v651l-162 43v29h379v-27l-139 -47v-655q0 -103 -22 -186t-58 -137.5t-85.5 -91t-102 -52.5
t-109.5 -16zM852 1288l-248 101l-233 -97l-21 21l260 211l258 -209z" />
    <glyph glyph-name="Udieresis" unicode="&#xdc;" horiz-adv-x="1130" 
d="M592 -18q-64 0 -122.5 12t-116.5 43t-100.5 79t-68.5 126t-26 178v723l-138 22v29h478v-27l-179 -26v-711q0 -107 22.5 -184t62.5 -119.5t88 -62t106 -19.5q293 0 293 426v651l-162 43v29h379v-27l-139 -47v-655q0 -103 -22 -186t-58 -137.5t-85.5 -91t-102 -52.5
t-109.5 -16zM342 1389q0 38 24 63t62 25q36 0 60 -25t24 -63q0 -37 -24.5 -64t-59.5 -27q-37 0 -61.5 26.5t-24.5 64.5zM688 1389q0 38 24.5 63t61.5 25q36 0 60 -25t24 -63q0 -37 -24.5 -64t-59.5 -27q-36 0 -61 27t-25 64z" />
    <glyph glyph-name="Yacute" unicode="&#xdd;" horiz-adv-x="968" 
d="M242 0v27l168 24v441l-326 657l-74 16v29h379v-27l-129 -28l291 -582l229 561l-159 47v29h337v-27l-88 -34l-299 -641v-441l172 -22v-29h-501zM748 1548l55 -131l-379 -139l-12 27z" />
    <glyph glyph-name="Thorn" unicode="&#xde;" horiz-adv-x="905" 
d="M35 0v27l168 24v1090l-168 24v29h500v-27l-173 -26v-150h150q164 0 257 -84.5t93 -265.5q0 -158 -117.5 -254t-308.5 -96h-74v-240l173 -22v-29h-500zM459 934h-97v-590h68q137 0 203.5 72t66.5 217q0 139 -60.5 219.5t-180.5 81.5z" />
    <glyph glyph-name="germandbls" unicode="&#xdf;" horiz-adv-x="940" 
d="M27 0v23l135 38v803h-139v21l139 39v178q0 138 102 241t228 103t204 -81t78 -204q0 -63 -26.5 -127t-55.5 -103t-75 -93t-60 -74q41 -19 83 -46t90.5 -70.5t86 -92t62 -114t24.5 -134.5q0 -150 -87.5 -236.5t-207.5 -86.5q-94 0 -184 47v252h39l63 -203q50 -43 107 -43
q62 0 98.5 68t36.5 145q0 233 -299 397v51q6 11 31.5 55t36.5 64.5t31 63t29.5 72.5t17.5 70.5t8 78.5q0 112 -54.5 195t-122.5 85q-27 0 -63 -8q-78 -73 -78 -237v-1086l64 -26v-25h-342z" />
    <glyph glyph-name="agrave" unicode="&#xe0;" horiz-adv-x="776" 
d="M143 612h-45v256q133 72 264 72q56 0 104.5 -14t89.5 -44t65 -84.5t24 -127.5v-611l111 -39v-20h-228l-22 117q-114 -133 -252 -133q-93 0 -153 65.5t-60 177.5q0 122 101 204.5t270 82.5h90v182q0 107 -38 151t-106 44q-74 0 -147 -53zM500 143l2 318h-119
q-100 0 -150.5 -54.5t-50.5 -152.5q0 -180 129 -180q83 0 189 69zM150 1309l88 110l260 -338l-19 -16z" />
    <glyph glyph-name="aacute" unicode="&#xe1;" horiz-adv-x="776" 
d="M143 612h-45v256q133 72 264 72q56 0 104.5 -14t89.5 -44t65 -84.5t24 -127.5v-611l111 -39v-20h-228l-22 117q-114 -133 -252 -133q-93 0 -153 65.5t-60 177.5q0 122 101 204.5t270 82.5h90v182q0 107 -38 151t-106 44q-74 0 -147 -53zM500 143l2 318h-119
q-100 0 -150.5 -54.5t-50.5 -152.5q0 -180 129 -180q83 0 189 69zM516 1421l88 -110l-330 -244l-18 16z" />
    <glyph glyph-name="acircumflex" unicode="&#xe2;" horiz-adv-x="776" 
d="M143 612h-45v256q133 72 264 72q56 0 104.5 -14t89.5 -44t65 -84.5t24 -127.5v-611l111 -39v-20h-228l-22 117q-114 -133 -252 -133q-93 0 -153 65.5t-60 177.5q0 122 101 204.5t270 82.5h90v182q0 107 -38 151t-106 44q-74 0 -147 -53zM500 143l2 318h-119
q-100 0 -150.5 -54.5t-50.5 -152.5q0 -180 129 -180q83 0 189 69zM342 1368h61l226 -258l-13 -20l-258 153l-254 -151l-12 18z" />
    <glyph glyph-name="atilde" unicode="&#xe3;" horiz-adv-x="776" 
d="M143 612h-45v256q133 72 264 72q56 0 104.5 -14t89.5 -44t65 -84.5t24 -127.5v-611l111 -39v-20h-228l-22 117q-114 -133 -252 -133q-93 0 -153 65.5t-60 177.5q0 122 101 204.5t270 82.5h90v182q0 107 -38 151t-106 44q-74 0 -147 -53zM500 143l2 318h-119
q-100 0 -150.5 -54.5t-50.5 -152.5q0 -180 129 -180q83 0 189 69zM467 1130q-44 0 -107.5 25t-107.5 25q-57 0 -107 -45l-16 14q12 25 22.5 41.5t31 40.5t49.5 36.5t65 12.5q52 0 115.5 -23.5t109.5 -23.5q33 0 94 35l11 -15q-16 -43 -56 -83t-104 -40z" />
    <glyph glyph-name="adieresis" unicode="&#xe4;" horiz-adv-x="776" 
d="M143 612h-45v256q133 72 264 72q56 0 104.5 -14t89.5 -44t65 -84.5t24 -127.5v-611l111 -39v-20h-228l-22 117q-114 -133 -252 -133q-93 0 -153 65.5t-60 177.5q0 122 101 204.5t270 82.5h90v182q0 107 -38 151t-106 44q-74 0 -147 -53zM500 143l2 318h-119
q-100 0 -150.5 -54.5t-50.5 -152.5q0 -180 129 -180q83 0 189 69zM131 1249q0 38 24 63t62 25q36 0 60 -25t24 -63q0 -37 -24.5 -63.5t-59.5 -26.5q-38 0 -62 26t-24 64zM436 1249q0 38 24.5 63t61.5 25q36 0 60 -25t24 -63q0 -37 -24.5 -63.5t-59.5 -26.5q-36 0 -61 26.5
t-25 63.5z" />
    <glyph glyph-name="aring" unicode="&#xe5;" horiz-adv-x="776" 
d="M143 612h-45v256q133 72 264 72q56 0 104.5 -14t89.5 -44t65 -84.5t24 -127.5v-611l111 -39v-20h-228l-22 117q-114 -133 -252 -133q-93 0 -153 65.5t-60 177.5q0 122 101 204.5t270 82.5h90v182q0 107 -38 151t-106 44q-74 0 -147 -53zM500 143l2 318h-119
q-100 0 -150.5 -54.5t-50.5 -152.5q0 -180 129 -180q83 0 189 69zM385 1079q-54 0 -101.5 41.5t-47.5 110.5q0 66 41 106.5t108 40.5q68 0 110 -42t42 -105q0 -68 -44 -110t-108 -42zM385 1116q54 0 84.5 29.5t30.5 85.5q0 51 -31.5 81.5t-83.5 30.5q-54 0 -83.5 -29.5
t-29.5 -82.5q0 -55 35.5 -85t77.5 -30z" />
    <glyph glyph-name="ae" unicode="&#xe6;" horiz-adv-x="1206" 
d="M98 612v256q133 72 264 72q79 0 141 -35.5t93 -107.5q99 143 260 143q298 0 311 -444h-520q-3 -211 77.5 -314.5t209.5 -103.5q44 0 103.5 25t103.5 65l18 -39q-35 -54 -115.5 -99.5t-169.5 -45.5q-202 0 -294 147q-32 -32 -53 -50t-61 -44.5t-89 -39.5t-107 -13
q-97 0 -163 63.5t-66 173.5q0 123 101.5 208t269.5 85h90v168q0 108 -39 158.5t-105 50.5q-74 0 -147 -53l-68 -226h-45zM342 72q55 0 103.5 31.5t101.5 84.5q-45 102 -45 273h-119q-205 0 -205 -207q0 -84 48 -133t116 -49zM651 549h350q2 101 -11 175t-50 122.5t-96 48.5
q-74 0 -127 -90t-66 -256z" />
    <glyph glyph-name="ccedilla" unicode="&#xe7;" horiz-adv-x="724" 
d="M631 586l-62 235q-79 70 -157 70q-98 0 -162 -102t-64 -310t78 -305.5t209 -97.5q44 0 102.5 25t102.5 67l18 -39q-31 -47 -98 -90.5t-145 -54.5l-33 -90q80 -12 123 -55.5t43 -104.5q0 -72 -57.5 -122t-153.5 -50q-84 0 -142 30l29 52q56 -31 111 -31q42 0 79 31t37 73
q0 54 -36.5 93.5t-110.5 56.5l64 115q-180 1 -273.5 123.5t-93.5 338.5q0 140 45 252t132 178t202 66q84 0 140.5 -17t125.5 -63v-274h-53z" />
    <glyph glyph-name="egrave" unicode="&#xe8;" horiz-adv-x="743" 
d="M186 465q0 -182 79.5 -284.5t205.5 -102.5q44 0 103.5 25t103.5 65l18 -39q-35 -54 -115 -99.5t-169 -45.5q-183 0 -278 121t-95 339q0 214 96.5 355t255.5 141q301 0 314 -444h-519v-31zM379 895q-75 0 -128 -90.5t-63 -255.5h351q4 346 -160 346zM203 1311l88 110
l260 -338l-19 -16z" />
    <glyph glyph-name="eacute" unicode="&#xe9;" horiz-adv-x="743" 
d="M186 465q0 -182 79.5 -284.5t205.5 -102.5q44 0 103.5 25t103.5 65l18 -39q-35 -54 -115 -99.5t-169 -45.5q-183 0 -278 121t-95 339q0 214 96.5 355t255.5 141q301 0 314 -444h-519v-31zM379 895q-75 0 -128 -90.5t-63 -255.5h351q4 346 -160 346zM578 1421l88 -110
l-330 -244l-19 16z" />
    <glyph glyph-name="ecircumflex" unicode="&#xea;" horiz-adv-x="743" 
d="M186 465q0 -182 79.5 -284.5t205.5 -102.5q44 0 103.5 25t103.5 65l18 -39q-35 -54 -115 -99.5t-169 -45.5q-183 0 -278 121t-95 339q0 214 96.5 355t255.5 141q301 0 314 -444h-519v-31zM379 895q-75 0 -128 -90.5t-63 -255.5h351q4 346 -160 346zM397 1368h62l225 -258
l-12 -20l-258 153l-254 -151l-13 18z" />
    <glyph glyph-name="edieresis" unicode="&#xeb;" horiz-adv-x="743" 
d="M186 465q0 -182 79.5 -284.5t205.5 -102.5q44 0 103.5 25t103.5 65l18 -39q-35 -54 -115 -99.5t-169 -45.5q-183 0 -278 121t-95 339q0 214 96.5 355t255.5 141q301 0 314 -444h-519v-31zM379 895q-75 0 -128 -90.5t-63 -255.5h351q4 346 -160 346zM172 1249q0 38 24 63
t62 25q36 0 60 -25t24 -63q0 -37 -24.5 -63.5t-59.5 -26.5q-38 0 -62 26t-24 64zM477 1249q0 38 24.5 63t61.5 25q36 0 60 -25t24 -63q0 -37 -24.5 -63.5t-59.5 -26.5q-36 0 -61 26.5t-25 63.5z" />
    <glyph glyph-name="igrave" unicode="&#xec;" horiz-adv-x="471" 
d="M35 0v20l133 27v797h-143v22l225 74h61v-893l140 -24v-23h-416zM-35 1311l88 110l260 -338l-18 -16z" />
    <glyph glyph-name="iacute" unicode="&#xed;" horiz-adv-x="471" 
d="M311 47l140 -24v-23h-416v20l133 27v797h-143v22l225 74h61v-893zM395 1421l88 -110l-329 -244l-19 16z" />
    <glyph glyph-name="icircumflex" unicode="&#xee;" horiz-adv-x="471" 
d="M311 47l140 -24v-23h-416v20l133 27v797h-143v22l225 74h61v-893zM223 1368h62l225 -258l-12 -20l-258 153l-254 -151l-13 18z" />
    <glyph glyph-name="idieresis" unicode="&#xef;" horiz-adv-x="471" 
d="M35 0v20l133 27v797h-143v22l225 74h61v-893l140 -24v-23h-416zM-2 1249q0 38 24 63t62 25q36 0 60 -25t24 -63q0 -37 -24.5 -63.5t-59.5 -26.5q-38 0 -62 26t-24 64zM303 1249q0 38 24.5 63t61.5 25q36 0 60 -25t24 -63q0 -37 -24.5 -63.5t-59.5 -26.5q-36 0 -61 26.5
t-25 63.5z" />
    <glyph glyph-name="eth" unicode="&#xf0;" horiz-adv-x="815" 
d="M246 1077l-27 53l211 107q-76 91 -201 170l21 33q143 -67 246 -170l163 84l33 -47l-155 -80q116 -135 171.5 -317t55.5 -388q0 -238 -106.5 -388t-264.5 -150q-170 0 -262 114t-92 353q0 125 49.5 237.5t135 182t184.5 69.5t172 -37q-33 169 -115 287zM604 498
q0 171 -10 286q-35 46 -90 74.5t-113 28.5q-43 0 -76.5 -17t-54 -50t-34 -69t-19.5 -86.5t-8 -90.5t-2 -91q0 -436 219 -436q37 0 66.5 13t49 34t33.5 56.5t21.5 69.5t11.5 85.5t5 92t1 100.5z" />
    <glyph glyph-name="ntilde" unicode="&#xf1;" horiz-adv-x="980" 
d="M35 0v20l133 39v785h-143v22l198 74h74l12 -174q32 37 59.5 63t66 54t83 42.5t92.5 14.5q117 0 175.5 -93t58.5 -239v-547l135 -38v-23h-416v20l137 41v519q0 133 -39.5 194.5t-128.5 61.5q-62 0 -121 -28.5t-100 -66.5v-680l140 -38v-23h-416zM616 1130q-44 0 -107.5 25
t-107.5 25q-56 0 -106 -45l-16 14q12 25 22.5 41.5t30.5 40.5t49 36.5t65 12.5q52 0 116 -23.5t110 -23.5q33 0 94 35l10 -15q-16 -43 -56 -83t-104 -40z" />
    <glyph glyph-name="ograve" unicode="&#xf2;" horiz-adv-x="802" 
d="M762 461q0 -123 -48.5 -232.5t-134.5 -177t-188 -67.5q-352 0 -352 467q0 125 49 237.5t134.5 182t183.5 69.5q179 0 267.5 -118t88.5 -361zM604 436q0 43 -1.5 80t-6.5 85.5t-13.5 87t-25 78.5t-38 66t-54.5 43t-74 17q-44 0 -77 -16.5t-53.5 -48.5t-34 -68t-19.5 -87
t-8 -92.5t-2 -97.5q0 -450 219 -450q43 0 75.5 15t52.5 46t32.5 64.5t18.5 85.5t7.5 92.5t1.5 99.5zM145 1311l88 110l261 -338l-19 -16z" />
    <glyph glyph-name="oacute" unicode="&#xf3;" horiz-adv-x="802" 
d="M762 461q0 -123 -48.5 -232.5t-134.5 -177t-188 -67.5q-352 0 -352 467q0 125 49 237.5t134.5 182t183.5 69.5q179 0 267.5 -118t88.5 -361zM604 436q0 43 -1.5 80t-6.5 85.5t-13.5 87t-25 78.5t-38 66t-54.5 43t-74 17q-44 0 -77 -16.5t-53.5 -48.5t-34 -68t-19.5 -87
t-8 -92.5t-2 -97.5q0 -450 219 -450q43 0 75.5 15t52.5 46t32.5 64.5t18.5 85.5t7.5 92.5t1.5 99.5zM604 1421l88 -110l-330 -244l-18 16z" />
    <glyph glyph-name="ocircumflex" unicode="&#xf4;" horiz-adv-x="802" 
d="M762 461q0 -123 -48.5 -232.5t-134.5 -177t-188 -67.5q-352 0 -352 467q0 125 49 237.5t134.5 182t183.5 69.5q179 0 267.5 -118t88.5 -361zM604 436q0 43 -1.5 80t-6.5 85.5t-13.5 87t-25 78.5t-38 66t-54.5 43t-74 17q-44 0 -77 -16.5t-53.5 -48.5t-34 -68t-19.5 -87
t-8 -92.5t-2 -97.5q0 -450 219 -450q43 0 75.5 15t52.5 46t32.5 64.5t18.5 85.5t7.5 92.5t1.5 99.5zM379 1358h61l226 -258l-13 -21l-258 154l-254 -152l-12 19z" />
    <glyph glyph-name="otilde" unicode="&#xf5;" horiz-adv-x="802" 
d="M762 461q0 -123 -48.5 -232.5t-134.5 -177t-188 -67.5q-352 0 -352 467q0 125 49 237.5t134.5 182t183.5 69.5q179 0 267.5 -118t88.5 -361zM604 436q0 43 -1.5 80t-6.5 85.5t-13.5 87t-25 78.5t-38 66t-54.5 43t-74 17q-44 0 -77 -16.5t-53.5 -48.5t-34 -68t-19.5 -87
t-8 -92.5t-2 -97.5q0 -450 219 -450q43 0 75.5 15t52.5 46t32.5 64.5t18.5 85.5t7.5 92.5t1.5 99.5zM496 1130q-44 0 -107.5 25t-107.5 25q-57 0 -107 -45l-16 14q12 25 22.5 41.5t31 40.5t49.5 36.5t65 12.5q52 0 115.5 -23.5t109.5 -23.5q33 0 94 35l10 -15
q-16 -44 -55.5 -83.5t-103.5 -39.5z" />
    <glyph glyph-name="odieresis" unicode="&#xf6;" horiz-adv-x="802" 
d="M762 461q0 -123 -48.5 -232.5t-134.5 -177t-188 -67.5q-352 0 -352 467q0 125 49 237.5t134.5 182t183.5 69.5q179 0 267.5 -118t88.5 -361zM604 436q0 43 -1.5 80t-6.5 85.5t-13.5 87t-25 78.5t-38 66t-54.5 43t-74 17q-44 0 -77 -16.5t-53.5 -48.5t-34 -68t-19.5 -87
t-8 -92.5t-2 -97.5q0 -450 219 -450q43 0 75.5 15t52.5 46t32.5 64.5t18.5 85.5t7.5 92.5t1.5 99.5zM166 1249q0 38 24 63t62 25q36 0 60 -25t24 -63q0 -37 -24.5 -63.5t-59.5 -26.5q-38 0 -62 26t-24 64zM471 1249q0 38 24.5 63t61.5 25q36 0 60 -25t24 -63
q0 -37 -24.5 -63.5t-59.5 -26.5q-36 0 -61 26.5t-25 63.5z" />
    <glyph glyph-name="divide" unicode="&#xf7;" horiz-adv-x="890" 
d="M831 580h-772v79h772v-79zM311 918q0 63 38.5 105t96.5 42q59 0 100.5 -42.5t41.5 -104.5q0 -60 -41.5 -102t-100.5 -42q-58 0 -96.5 41.5t-38.5 102.5zM311 303q0 63 38.5 105.5t96.5 42.5q59 0 100.5 -42.5t41.5 -105.5q0 -60 -41.5 -101.5t-100.5 -41.5
q-58 0 -96.5 41.5t-38.5 101.5z" />
    <glyph glyph-name="oslash" unicode="&#xf8;" horiz-adv-x="802" 
d="M762 461q0 -123 -48.5 -232.5t-134.5 -177t-188 -67.5q-148 0 -233 82l-56 -82h-57l80 118q-86 119 -86 349q0 125 49 237.5t134.5 182t183.5 69.5q150 0 235 -82l55 82h66l-86 -125q86 -118 86 -354zM197 483q0 -148 22 -243l346 508q-55 145 -174 145q-44 0 -77 -16.5
t-53.5 -48.5t-34 -68t-19.5 -87t-8 -92.5t-2 -97.5zM604 436q0 142 -20 244l-346 -502q54 -145 178 -145q43 0 75.5 15t52.5 46t32.5 64.5t18.5 85.5t7.5 92.5t1.5 99.5z" />
    <glyph glyph-name="ugrave" unicode="&#xf9;" horiz-adv-x="925" 
d="M291 377q0 -155 34.5 -230t123.5 -75q58 0 99 12.5t95 48.5v711h-143v22l225 74h61v-881l121 -39v-20h-235l-27 115q-77 -75 -131 -103t-123 -28q-126 0 -185 84t-59 229v547h-143v22l225 74h62v-563zM217 1311l88 110l260 -338l-18 -16z" />
    <glyph glyph-name="uacute" unicode="&#xfa;" horiz-adv-x="925" 
d="M291 377q0 -155 34.5 -230t123.5 -75q58 0 99 12.5t95 48.5v711h-143v22l225 74h61v-881l121 -39v-20h-235l-27 115q-77 -75 -131 -103t-123 -28q-126 0 -185 84t-59 229v547h-143v22l225 74h62v-563zM643 1421l88 -110l-330 -244l-18 16z" />
    <glyph glyph-name="ucircumflex" unicode="&#xfb;" horiz-adv-x="925" 
d="M291 377q0 -155 34.5 -230t123.5 -75q58 0 99 12.5t95 48.5v711h-143v22l225 74h61v-881l121 -39v-20h-235l-27 115q-77 -75 -131 -103t-123 -28q-126 0 -185 84t-59 229v547h-143v22l225 74h62v-563zM461 1368h61l226 -258l-13 -20l-258 153l-254 -151l-12 18z" />
    <glyph glyph-name="udieresis" unicode="&#xfc;" horiz-adv-x="925" 
d="M672 0l-27 115q-77 -75 -131 -103t-123 -28q-126 0 -185 84t-59 229v547h-143v22l225 74h62v-563q0 -155 34.5 -230t123.5 -75q58 0 99 12.5t95 48.5v711h-143v22l225 74h61v-881l121 -39v-20h-235zM231 1249q0 38 24 63t62 25q36 0 60 -25t24 -63q0 -37 -24.5 -63.5
t-59.5 -26.5q-38 0 -62 26t-24 64zM537 1249q0 38 24.5 63t61.5 25q36 0 60 -25t24 -63q0 -37 -24.5 -63.5t-59.5 -26.5q-36 0 -61 26.5t-25 63.5z" />
    <glyph glyph-name="yacute" unicode="&#xfd;" horiz-adv-x="821" 
d="M471 20l-117 -444h-104v16l129 332l-301 946l-92 29v23h374v-21l-129 -45l220 -700l194 692l-117 51v23h308v-21l-129 -55zM596 1421l88 -110l-330 -244l-18 16z" />
    <glyph glyph-name="thorn" unicode="&#xfe;" horiz-adv-x="880" 
d="M29 -424v21l135 43v1703h-144v23l197 74h88v-621q117 121 232 121q303 0 303 -459q0 -215 -121 -357t-293 -142q-69 0 -121 14v-354l158 -43v-23h-434zM485 842q-96 0 -180 -51v-689q68 -61 166 -61q207 0 207 403q0 175 -48 286.5t-145 111.5z" />
    <glyph glyph-name="ydieresis" unicode="&#xff;" horiz-adv-x="821" 
d="M471 20l-117 -444h-104v16l129 332l-301 946l-92 29v23h374v-21l-129 -45l220 -700l194 692l-117 51v23h308v-21l-129 -55zM193 1251q0 38 24 63t62 25q35 0 59 -25t24 -63q0 -37 -24 -63.5t-59 -26.5q-38 0 -62 26t-24 64zM498 1251q0 38 24.5 63t61.5 25q36 0 60 -25
t24 -63q0 -37 -24.5 -63.5t-59.5 -26.5q-36 0 -61 26.5t-25 63.5z" />
    <glyph glyph-name="Amacron" unicode="&#x100;" horiz-adv-x="995" 
d="M604 0v20l141 27l-114 424h-342l-127 -401l164 -47v-23h-332v20l100 48l369 1126h117l333 -1153l91 -18v-23h-400zM469 1036l-164 -510h311l-139 510h-8zM754 1364h-478v57h478v-57z" />
    <glyph glyph-name="amacron" unicode="&#x101;" horiz-adv-x="776" 
d="M143 612h-45v256q133 72 264 72q56 0 104.5 -14t89.5 -44t65 -84.5t24 -127.5v-611l111 -39v-20h-228l-22 117q-114 -133 -252 -133q-93 0 -153 65.5t-60 177.5q0 122 101 204.5t270 82.5h90v182q0 107 -38 151t-106 44q-74 0 -147 -53zM500 143l2 318h-119
q-100 0 -150.5 -54.5t-50.5 -152.5q0 -180 129 -180q83 0 189 69zM627 1221h-480v57h480v-57z" />
    <glyph glyph-name="Abreve" unicode="&#x102;" horiz-adv-x="995" 
d="M604 0v20l141 27l-114 424h-342l-127 -401l164 -47v-23h-332v20l100 48l369 1126h117l333 -1153l91 -18v-23h-400zM469 1036l-164 -510h311l-139 510h-8zM530 1282q-165 0 -204 184l71 25q15 -64 46.5 -94.5t84.5 -30.5q121 0 162 119l31 -21q-13 -73 -71 -127.5
t-120 -54.5z" />
    <glyph glyph-name="abreve" unicode="&#x103;" horiz-adv-x="776" 
d="M143 612h-45v256q133 72 264 72q56 0 104.5 -14t89.5 -44t65 -84.5t24 -127.5v-611l111 -39v-20h-228l-22 117q-114 -133 -252 -133q-93 0 -153 65.5t-60 177.5q0 122 101 204.5t270 82.5h90v182q0 107 -38 151t-106 44q-74 0 -147 -53zM500 143l2 318h-119
q-100 0 -150.5 -54.5t-50.5 -152.5q0 -180 129 -180q83 0 189 69zM387 1104q-166 0 -205 184l72 25q17 -63 47.5 -90t83.5 -27q123 0 164 111l29 -21q-13 -73 -70.5 -127.5t-120.5 -54.5z" />
    <glyph glyph-name="Aogonek" unicode="&#x104;" horiz-adv-x="995" 
d="M-6 0v20l100 48l369 1126h117l333 -1153l91 -18v-23h-123q-79 -40 -122.5 -107.5t-43.5 -136.5t28.5 -102t98.5 -33q54 0 98 27l14 -35q-64 -37 -166 -37q-91 0 -137.5 43.5t-46.5 114.5q0 75 50 144.5t132 121.5h-182v20l141 27l-114 424h-342l-127 -401l164 -47v-23
h-332zM469 1036l-164 -510h311l-139 510h-8z" />
    <glyph glyph-name="aogonek" unicode="&#x105;" horiz-adv-x="776" 
d="M756 20v-20h-82q-79 -45 -120.5 -111.5t-41.5 -132.5q0 -69 28.5 -102t98.5 -33q54 0 98 27l15 -35q-64 -37 -166 -37q-91 0 -138 43.5t-47 114.5q0 75 50.5 144.5t132.5 121.5h-56l-22 117q-114 -133 -252 -133q-93 0 -153 65.5t-60 177.5q0 122 101 204.5t270 82.5h90
v182q0 107 -38 151t-106 44q-74 0 -147 -53l-68 -226h-45v256q133 72 264 72q56 0 104.5 -14t89.5 -44t65 -84.5t24 -127.5v-611zM500 143l2 318h-119q-100 0 -150.5 -54.5t-50.5 -152.5q0 -180 129 -180q83 0 189 69z" />
    <glyph glyph-name="Cacute" unicode="&#x106;" horiz-adv-x="983" 
d="M938 829h-53l-70 273q-85 59 -192 59q-172 0 -282 -144t-110 -409q0 -282 116.5 -427.5t305.5 -145.5q91 0 151 50.5t107 137.5h27v-162l-32 -16t-60 -27t-87.5 -23t-121.5 -11q-130 0 -235.5 37t-183.5 110t-120.5 190.5t-42.5 270.5q0 175 73.5 316.5t206 222.5
t298.5 81q163 0 305 -67v-316zM856 1548l55 -131l-379 -139l-12 27z" />
    <glyph glyph-name="cacute" unicode="&#x107;" horiz-adv-x="724" 
d="M631 586l-62 235q-79 70 -157 70q-98 0 -162 -102t-64 -310t78 -305.5t209 -97.5q44 0 102.5 25t102.5 67l18 -39q-35 -54 -115 -100.5t-169 -46.5q-183 0 -278 122t-95 340q0 140 45 252t132 178t202 66q84 0 140.5 -17t125.5 -63v-274h-53zM559 1421l88 -110l-330 -244
l-18 16z" />
    <glyph glyph-name="Ccircumflex" unicode="&#x108;" horiz-adv-x="983" 
d="M938 829h-53l-70 273q-85 59 -192 59q-172 0 -282 -144t-110 -409q0 -282 116.5 -427.5t305.5 -145.5q91 0 151 50.5t107 137.5h27v-162l-32 -16t-60 -27t-87.5 -23t-121.5 -11q-130 0 -235.5 37t-183.5 110t-120.5 190.5t-42.5 270.5q0 175 73.5 316.5t206 222.5
t298.5 81q163 0 305 -67v-316zM889 1288l-248 101l-233 -97l-21 21l260 211l258 -209z" />
    <glyph glyph-name="ccircumflex" unicode="&#x109;" horiz-adv-x="724" 
d="M631 586l-62 235q-79 70 -157 70q-98 0 -162 -102t-64 -310t78 -305.5t209 -97.5q44 0 102.5 25t102.5 67l18 -39q-35 -54 -115 -100.5t-169 -46.5q-183 0 -278 122t-95 340q0 140 45 252t132 178t202 66q84 0 140.5 -17t125.5 -63v-274h-53zM424 1368h61l226 -258
l-13 -20l-258 153l-254 -151l-12 18z" />
    <glyph glyph-name="Cdotaccent" unicode="&#x10a;" horiz-adv-x="983" 
d="M938 829h-53l-70 273q-85 59 -192 59q-172 0 -282 -144t-110 -409q0 -282 116.5 -427.5t305.5 -145.5q91 0 151 50.5t107 137.5h27v-162l-32 -16t-60 -27t-87.5 -23t-121.5 -11q-130 0 -235.5 37t-183.5 110t-120.5 190.5t-42.5 270.5q0 175 73.5 316.5t206 222.5
t298.5 81q163 0 305 -67v-316zM535 1403q0 47 31 78.5t77 31.5q43 0 74 -31.5t31 -78.5q0 -46 -31 -78.5t-74 -32.5q-45 0 -76.5 32.5t-31.5 78.5z" />
    <glyph glyph-name="cdotaccent" unicode="&#x10b;" horiz-adv-x="724" 
d="M631 586l-62 235q-79 70 -157 70q-98 0 -162 -102t-64 -310t78 -305.5t209 -97.5q44 0 102.5 25t102.5 67l18 -39q-35 -54 -115 -100.5t-169 -46.5q-183 0 -278 122t-95 340q0 140 45 252t132 178t202 66q84 0 140.5 -17t125.5 -63v-274h-53zM338 1268q0 47 31 78.5
t77 31.5q43 0 74 -31.5t31 -78.5q0 -46 -31 -78.5t-74 -32.5q-45 0 -76.5 32.5t-31.5 78.5z" />
    <glyph glyph-name="Ccaron" unicode="&#x10c;" horiz-adv-x="983" 
d="M938 829h-53l-70 273q-85 59 -192 59q-172 0 -282 -144t-110 -409q0 -282 116.5 -427.5t305.5 -145.5q91 0 151 50.5t107 137.5h27v-162l-32 -16t-60 -27t-87.5 -23t-121.5 -11q-130 0 -235.5 37t-183.5 110t-120.5 190.5t-42.5 270.5q0 175 73.5 316.5t206 222.5
t298.5 81q163 0 305 -67v-316zM643 1282h-39l-231 209l18 27l242 -117l239 112l19 -20z" />
    <glyph glyph-name="ccaron" unicode="&#x10d;" horiz-adv-x="724" 
d="M631 586l-62 235q-79 70 -157 70q-98 0 -162 -102t-64 -310t78 -305.5t209 -97.5q44 0 102.5 25t102.5 67l18 -39q-35 -54 -115 -100.5t-169 -46.5q-183 0 -278 122t-95 340q0 140 45 252t132 178t202 66q84 0 140.5 -17t125.5 -63v-274h-53zM457 1063h-62l-225 258
l12 20l258 -153l254 151l13 -18z" />
    <glyph glyph-name="Dcaron" unicode="&#x10e;" horiz-adv-x="1165" 
d="M35 0v27l168 24v1090l-168 24v29h459q108 0 194 -13.5t167.5 -51.5t135.5 -99.5t86.5 -163.5t32.5 -239q0 -152 -46 -272t-128 -197t-192 -117.5t-242 -40.5h-467zM487 1139h-125v-1084h156q104 0 179.5 27.5t129.5 90t80.5 167.5t26.5 256q0 133 -22.5 230t-73.5 169
t-138.5 108t-212.5 36zM588 1278h-39l-232 209l19 26l242 -116l239 112l19 -20z" />
    <glyph glyph-name="dcaron" unicode="&#x10f;" horiz-adv-x="909" 
d="M602 0l-24 111q-101 -127 -228 -127q-48 0 -91 13.5t-84 46t-70.5 81.5t-47.5 126t-18 173q0 227 109.5 365.5t269.5 138.5q83 0 155 -21v453h-141v24l178 56h107v-1381l121 -39v-20h-236zM573 131v682q-60 66 -155 66q-113 0 -171.5 -105t-58.5 -295q0 -191 53.5 -296
t153.5 -105q99 0 178 53zM864 1083h-39v357h138z" />
    <glyph glyph-name="Dcroat" unicode="&#x110;" horiz-adv-x="1165" 
d="M61 604v62h142v475l-168 24v29h459q108 0 194 -13.5t167.5 -51.5t135.5 -99.5t86.5 -163.5t32.5 -239q0 -152 -46 -272t-128 -197t-192 -117.5t-242 -40.5h-467v27l168 24v553h-142zM565 604h-203v-549h156q104 0 179.5 27.5t129.5 90t80.5 167.5t26.5 256
q0 133 -22.5 230t-73.5 169t-138.5 108t-212.5 36h-125v-473h203v-62z" />
    <glyph glyph-name="dcroat" unicode="&#x111;" horiz-adv-x="856" 
d="M350 -16q-48 0 -91 13.5t-84 46t-70.5 81.5t-47.5 126t-18 173q0 227 109.5 365.5t269.5 138.5q83 0 155 -21v185h-292v57h292v211h-141v24l178 56h107v-291h108v-57h-108v-1033l121 -39v-20h-236l-24 111q-101 -127 -228 -127zM395 78q99 0 178 53v682q-60 66 -155 66
q-113 0 -171.5 -105t-58.5 -295q0 -191 53.5 -296t153.5 -105z" />
    <glyph glyph-name="Emacron" unicode="&#x112;" horiz-adv-x="892" 
d="M754 573l-392 7v-525h371l84 236l47 -12l-28 -279h-801v27l168 24v1090l-168 24v29h796v-270h-59l-51 217h-359v-506l392 8v-70zM778 1366h-477v57h477v-57z" />
    <glyph glyph-name="emacron" unicode="&#x113;" horiz-adv-x="743" 
d="M186 465q0 -182 79.5 -284.5t205.5 -102.5q44 0 103.5 25t103.5 65l18 -39q-35 -54 -115 -99.5t-169 -45.5q-183 0 -278 121t-95 339q0 214 96.5 355t255.5 141q301 0 314 -444h-519v-31zM379 895q-75 0 -128 -90.5t-63 -255.5h351q4 346 -160 346zM657 1221h-479v57h479
v-57z" />
    <glyph glyph-name="Ebreve" unicode="&#x114;" horiz-adv-x="892" 
d="M754 573l-392 7v-525h371l84 236l47 -12l-28 -279h-801v27l168 24v1090l-168 24v29h796v-270h-59l-51 217h-359v-506l392 8v-70zM530 1282q-165 0 -204 184l71 25q15 -64 46.5 -94.5t84.5 -30.5q121 0 162 119l31 -21q-13 -73 -71 -127.5t-120 -54.5z" />
    <glyph glyph-name="ebreve" unicode="&#x115;" horiz-adv-x="743" 
d="M186 465q0 -182 79.5 -284.5t205.5 -102.5q44 0 103.5 25t103.5 65l18 -39q-35 -54 -115 -99.5t-169 -45.5q-183 0 -278 121t-95 339q0 214 96.5 355t255.5 141q301 0 314 -444h-519v-31zM379 895q-75 0 -128 -90.5t-63 -255.5h351q4 346 -160 346zM422 1104
q-166 0 -205 184l72 25q17 -63 47.5 -90t83.5 -27q123 0 164 111l28 -21q-13 -73 -70 -127.5t-120 -54.5z" />
    <glyph glyph-name="Edotaccent" unicode="&#x116;" horiz-adv-x="892" 
d="M754 573l-392 7v-525h371l84 236l47 -12l-28 -279h-801v27l168 24v1090l-168 24v29h796v-270h-59l-51 217h-359v-506l392 8v-70zM420 1401q0 47 31 78.5t77 31.5q43 0 74 -31.5t31 -78.5q0 -46 -31 -78.5t-74 -32.5q-45 0 -76.5 32.5t-31.5 78.5z" />
    <glyph glyph-name="edotaccent" unicode="&#x117;" horiz-adv-x="743" 
d="M186 465q0 -182 79.5 -284.5t205.5 -102.5q44 0 103.5 25t103.5 65l18 -39q-35 -54 -115 -99.5t-169 -45.5q-183 0 -278 121t-95 339q0 214 96.5 355t255.5 141q301 0 314 -444h-519v-31zM379 895q-75 0 -128 -90.5t-63 -255.5h351q4 346 -160 346zM301 1268
q0 47 31.5 78.5t77.5 31.5q43 0 73.5 -31.5t30.5 -78.5q0 -46 -30.5 -78.5t-73.5 -32.5q-46 0 -77.5 32.5t-31.5 78.5z" />
    <glyph glyph-name="Eogonek" unicode="&#x118;" horiz-adv-x="892" 
d="M754 573l-392 7v-525h371l84 236l47 -12l-28 -279h-31q-82 -44 -126 -113.5t-44 -138.5q0 -68 28 -101.5t93 -33.5q50 0 94 27l14 -35q-64 -37 -157 -37q-87 0 -132 43.5t-45 114.5q0 79 51 150t134 124h-680v27l168 24v1090l-168 24v29h796v-270h-59l-51 217h-359v-506
l392 8v-70z" />
    <glyph glyph-name="eogonek" unicode="&#x119;" horiz-adv-x="743" 
d="M571 -352l15 -35q-64 -37 -158 -37q-87 0 -131.5 43.5t-44.5 114.5q0 69 41 135t108 115q-179 4 -270.5 124.5t-91.5 335.5q0 214 96.5 355t255.5 141q301 0 314 -444h-519v-31q0 -182 79.5 -284.5t205.5 -102.5q44 0 103.5 25t103.5 65l18 -39q-25 -38 -75 -74.5
t-111 -54.5q-75 -45 -114.5 -112t-39.5 -132q0 -68 28 -101.5t93 -33.5q50 0 94 27zM379 895q-75 0 -128 -90.5t-63 -255.5h351q4 346 -160 346z" />
    <glyph glyph-name="Ecaron" unicode="&#x11a;" horiz-adv-x="892" 
d="M754 573l-392 7v-525h371l84 236l47 -12l-28 -279h-801v27l168 24v1090l-168 24v29h796v-270h-59l-51 217h-359v-506l392 8v-70zM539 1282h-39l-232 209l19 27l241 -117l240 112l18 -20z" />
    <glyph glyph-name="ecaron" unicode="&#x11b;" horiz-adv-x="743" 
d="M186 465q0 -182 79.5 -284.5t205.5 -102.5q44 0 103.5 25t103.5 65l18 -39q-35 -54 -115 -99.5t-169 -45.5q-183 0 -278 121t-95 339q0 214 96.5 355t255.5 141q301 0 314 -444h-519v-31zM379 895q-75 0 -128 -90.5t-63 -255.5h351q4 346 -160 346zM434 1063h-61
l-226 258l13 20l258 -153l254 151l12 -18z" />
    <glyph glyph-name="Gcircumflex" unicode="&#x11c;" horiz-adv-x="1036" 
d="M885 829l-72 283q-82 49 -190 49q-170 0 -281 -149t-111 -404q0 -268 117.5 -415.5t304.5 -147.5q59 0 125 29v477l-176 22v29h338v-479l-2 -2v-60l-32 -16t-60 -27t-87.5 -23t-121.5 -11q-130 0 -235.5 37t-183.5 110t-120.5 190.5t-42.5 270.5q0 175 73.5 316.5
t206 222.5t298.5 81q33 0 64 -2t52.5 -4.5t46.5 -8.5l37.5 -9t33.5 -11.5t26 -10.5t25 -12l20 -9v-316h-53zM881 1288l-248 101l-234 -97l-20 21l260 211l258 -209z" />
    <glyph glyph-name="gcircumflex" unicode="&#x11d;" horiz-adv-x="802" 
d="M379 360q-34 0 -74 7l-90 -131l234 -35q305 -49 305 -262q0 -68 -29.5 -134.5t-83 -121t-136.5 -88t-181 -33.5q-147 0 -228.5 75t-81.5 185q0 74 60.5 143.5t154.5 118.5l-133 20v76l174 197q-85 27 -134.5 95t-49.5 163q0 118 80.5 211.5t202.5 93.5q145 0 225 -96
l197 78h12v-99h-193q49 -76 49 -184q0 -111 -85.5 -195t-194.5 -84zM152 -166q0 -86 51.5 -144.5t163.5 -58.5q114 0 193 70.5t79 163.5q0 160 -225 192l-156 23q-106 -97 -106 -246zM375 412q125 0 125 217q0 141 -34.5 201.5t-103.5 60.5q-124 0 -124 -240
q0 -239 137 -239zM383 1368h61l226 -258l-13 -20l-258 153l-254 -151l-12 18z" />
    <glyph glyph-name="Gbreve" unicode="&#x11e;" horiz-adv-x="1036" 
d="M940 123l-2 -2v-60l-32 -16t-60 -27t-87.5 -23t-121.5 -11q-130 0 -235.5 37t-183.5 110t-120.5 190.5t-42.5 270.5q0 175 73.5 316.5t206 222.5t298.5 81q33 0 64 -2t52.5 -4.5t46.5 -8.5l37.5 -9t33.5 -11.5t26 -10.5t25 -12l20 -9v-316h-53l-72 283q-82 49 -190 49
q-170 0 -281 -149t-111 -404q0 -268 117.5 -415.5t304.5 -147.5q59 0 125 29v477l-176 22v29h338v-479zM647 1280q-166 0 -205 184l72 25q15 -64 46.5 -94.5t84.5 -30.5q121 0 162 119l31 -21q-13 -73 -71 -127.5t-120 -54.5z" />
    <glyph glyph-name="gbreve" unicode="&#x11f;" horiz-adv-x="802" 
d="M379 360q-34 0 -74 7l-90 -131l234 -35q305 -49 305 -262q0 -68 -29.5 -134.5t-83 -121t-136.5 -88t-181 -33.5q-147 0 -228.5 75t-81.5 185q0 74 60.5 143.5t154.5 118.5l-133 20v76l174 197q-85 27 -134.5 95t-49.5 163q0 118 80.5 211.5t202.5 93.5q145 0 225 -96
l197 78h12v-99h-193q49 -76 49 -184q0 -111 -85.5 -195t-194.5 -84zM152 -166q0 -86 51.5 -144.5t163.5 -58.5q114 0 193 70.5t79 163.5q0 160 -225 192l-156 23q-106 -97 -106 -246zM375 412q125 0 125 217q0 141 -34.5 201.5t-103.5 60.5q-124 0 -124 -240
q0 -239 137 -239zM408 1104q-166 0 -205 184l71 25q17 -63 48 -90t84 -27q122 0 163 111l29 -21q-13 -73 -70 -127.5t-120 -54.5z" />
    <glyph glyph-name="Gdotaccent" unicode="&#x120;" horiz-adv-x="1036" 
d="M885 829l-72 283q-82 49 -190 49q-170 0 -281 -149t-111 -404q0 -268 117.5 -415.5t304.5 -147.5q59 0 125 29v477l-176 22v29h338v-479l-2 -2v-60l-32 -16t-60 -27t-87.5 -23t-121.5 -11q-130 0 -235.5 37t-183.5 110t-120.5 190.5t-42.5 270.5q0 175 73.5 316.5
t206 222.5t298.5 81q33 0 64 -2t52.5 -4.5t46.5 -8.5l37.5 -9t33.5 -11.5t26 -10.5t25 -12l20 -9v-316h-53zM541 1403q0 47 31 78.5t77 31.5q43 0 74 -31.5t31 -78.5q0 -46 -31 -78.5t-74 -32.5q-45 0 -76.5 32.5t-31.5 78.5z" />
    <glyph glyph-name="gdotaccent" unicode="&#x121;" horiz-adv-x="802" 
d="M379 360q-34 0 -74 7l-90 -131l234 -35q305 -49 305 -262q0 -68 -29.5 -134.5t-83 -121t-136.5 -88t-181 -33.5q-147 0 -228.5 75t-81.5 185q0 74 60.5 143.5t154.5 118.5l-133 20v76l174 197q-85 27 -134.5 95t-49.5 163q0 118 80.5 211.5t202.5 93.5q145 0 225 -96
l197 78h12v-99h-193q49 -76 49 -184q0 -111 -85.5 -195t-194.5 -84zM152 -166q0 -86 51.5 -144.5t163.5 -58.5q114 0 193 70.5t79 163.5q0 160 -225 192l-156 23q-106 -97 -106 -246zM375 412q125 0 125 217q0 141 -34.5 201.5t-103.5 60.5q-124 0 -124 -240
q0 -239 137 -239zM272 1268q0 47 31.5 78.5t77.5 31.5q43 0 73.5 -31.5t30.5 -78.5q0 -46 -30.5 -78.5t-73.5 -32.5q-46 0 -77.5 32.5t-31.5 78.5z" />
    <glyph glyph-name="Gcommaaccent" unicode="&#x122;" horiz-adv-x="1036" 
d="M940 123l-2 -2v-60l-32 -16t-60 -27t-87.5 -23t-121.5 -11q-130 0 -235.5 37t-183.5 110t-120.5 190.5t-42.5 270.5q0 175 73.5 316.5t206 222.5t298.5 81q33 0 64 -2t52.5 -4.5t46.5 -8.5l37.5 -9t33.5 -11.5t26 -10.5t25 -12l20 -9v-316h-53l-72 283q-82 49 -190 49
q-170 0 -281 -149t-111 -404q0 -268 117.5 -415.5t304.5 -147.5q59 0 125 29v477l-176 22v29h338v-479zM580 -127h120l-108 -311h-41z" />
    <glyph glyph-name="gcommaaccent" unicode="&#x123;" horiz-adv-x="802" 
d="M379 360q-34 0 -74 7l-90 -131l234 -35q305 -49 305 -262q0 -68 -29.5 -134.5t-83 -121t-136.5 -88t-181 -33.5q-147 0 -228.5 75t-81.5 185q0 74 60.5 143.5t154.5 118.5l-133 20v76l174 197q-85 27 -134.5 95t-49.5 163q0 118 80.5 211.5t202.5 93.5q145 0 225 -96
l197 78h12v-99h-193q49 -76 49 -184q0 -111 -85.5 -195t-194.5 -84zM152 -166q0 -86 51.5 -144.5t163.5 -58.5q114 0 193 70.5t79 163.5q0 160 -225 192l-156 23q-106 -97 -106 -246zM375 412q125 0 125 217q0 141 -34.5 201.5t-103.5 60.5q-124 0 -124 -240
q0 -239 137 -239zM436 1051h-121l109 315h41z" />
    <glyph glyph-name="Hcircumflex" unicode="&#x124;" horiz-adv-x="1226" 
d="M694 0v27l168 24v531h-500v-531l173 -22v-29h-500v27l168 24v1090l-168 24v29h500v-27l-173 -26v-506h500v506l-168 24v29h502v-27l-172 -26v-1090l172 -22v-29h-502zM874 1288l-247 101l-234 -97l-20 21l260 211l258 -209z" />
    <glyph glyph-name="hcircumflex" unicode="&#x125;" horiz-adv-x="976" 
d="M20 0v20l134 39v1301h-144v24l189 56h100v-672q66 77 136.5 124.5t160.5 47.5q117 0 175 -93t58 -239v-547l138 -38v-23h-418v20l137 41v517q0 132 -40 195t-128 63q-61 0 -119.5 -28.5t-99.5 -66.5v-680l137 -38v-23h-416zM449 1444l-248 100l-234 -96l-20 20l260 211
l258 -209z" />
    <glyph glyph-name="Hbar" unicode="&#x126;" horiz-adv-x="1226" 
d="M35 0v27l168 24v828h-119v49h119v213l-168 24v29h500v-27l-173 -26v-213h500v213l-168 24v29h502v-27l-172 -26v-213h133v-49h-133v-828l172 -22v-29h-502v27l168 24v531h-500v-531l173 -22v-29h-500zM362 879v-244h500v244h-500z" />
    <glyph glyph-name="hbar" unicode="&#x127;" horiz-adv-x="976" 
d="M20 0v20l134 39v1026h-121v62h121v213h-144v24l189 56h100v-293h299v-62h-299v-317q66 77 136.5 124.5t160.5 47.5q117 0 175 -93t58 -239v-547l138 -38v-23h-418v20l137 41v517q0 132 -40 195t-128 63q-61 0 -119.5 -28.5t-99.5 -66.5v-680l137 -38v-23h-416z" />
    <glyph glyph-name="Itilde" unicode="&#x128;" horiz-adv-x="614" 
d="M57 0v27l168 24v1090l-168 24v29h500v-27l-172 -26v-1090l172 -22v-29h-500zM401 1307q-44 0 -107.5 24.5t-107.5 24.5q-56 0 -106 -45l-17 14q56 131 168 131q52 0 116 -23.5t110 -23.5q31 0 92 35l12 -14q-16 -43 -56 -83t-104 -40z" />
    <glyph glyph-name="itilde" unicode="&#x129;" horiz-adv-x="471" 
d="M35 0v20l133 27v797h-143v22l225 74h61v-893l140 -24v-23h-416zM328 1130q-44 0 -107.5 25t-107.5 25q-57 0 -107 -45l-16 14q12 25 22.5 41.5t31 40.5t49.5 36.5t65 12.5q52 0 115.5 -23.5t109.5 -23.5q33 0 94 35l10 -15q-16 -44 -55.5 -83.5t-103.5 -39.5z" />
    <glyph glyph-name="Imacron" unicode="&#x12a;" horiz-adv-x="614" 
d="M57 0v27l168 24v1090l-168 24v29h500v-27l-172 -26v-1090l172 -22v-29h-500zM553 1366h-477v57h477v-57z" />
    <glyph glyph-name="imacron" unicode="&#x12b;" horiz-adv-x="471" 
d="M311 47l140 -24v-23h-416v20l133 27v797h-143v22l225 74h61v-893zM465 1221h-479v57h479v-57z" />
    <glyph glyph-name="Ibreve" unicode="&#x12c;" horiz-adv-x="614" 
d="M57 0v27l168 24v1090l-168 24v29h500v-27l-172 -26v-1090l172 -22v-29h-500zM324 1282q-166 0 -205 184l71 25q15 -64 47 -94.5t85 -30.5q120 0 161 119l31 -21q-13 -73 -70.5 -127.5t-119.5 -54.5z" />
    <glyph glyph-name="ibreve" unicode="&#x12d;" horiz-adv-x="471" 
d="M35 0v20l133 27v797h-143v22l225 74h61v-893l140 -24v-23h-416zM238 1104q-166 0 -205 184l71 25q17 -63 48 -90t84 -27q122 0 163 111l29 -21q-13 -73 -70 -127.5t-120 -54.5z" />
    <glyph glyph-name="Iogonek" unicode="&#x12e;" horiz-adv-x="614" 
d="M57 0v27l168 24v1090l-168 24v29h500v-27l-172 -26v-1090l172 -22v-29h-188q-74 -45 -120 -106.5t-46 -126.5q0 -74 30.5 -113t108.5 -39q63 0 111 31l18 -41q-72 -41 -186 -41q-101 0 -153 48t-52 126q0 144 184 262h-207z" />
    <glyph glyph-name="iogonek" unicode="&#x12f;" horiz-adv-x="471" 
d="M35 0v20l133 27v797h-143v22l225 74h61v-893l17 -2l123 -22v-23h-119q-75 -46 -115.5 -112t-40.5 -132q0 -68 28 -101.5t93 -33.5q50 0 94 27l15 -35q-64 -37 -158 -37q-87 0 -131.5 43.5t-44.5 114.5q0 75 47 144.5t125 121.5h-209zM143 1268q0 43 30 73.5t69 30.5
t68.5 -30.5t29.5 -73.5q0 -44 -29.5 -74.5t-68.5 -30.5t-69 31t-30 74z" />
    <glyph glyph-name="Idotaccent" unicode="&#x130;" horiz-adv-x="614" 
d="M57 0v27l168 24v1090l-168 24v29h500v-27l-172 -26v-1090l172 -22v-29h-500zM205 1403q0 47 31 78.5t77 31.5q43 0 74 -31.5t31 -78.5q0 -46 -31 -78.5t-74 -32.5q-45 0 -76.5 32.5t-31.5 78.5z" />
    <glyph glyph-name="dotlessi" unicode="&#x131;" horiz-adv-x="471" 
d="M35 0v20l133 27v797h-143v22l225 74h61v-893l140 -24v-23h-416z" />
    <glyph glyph-name="IJ" unicode="&#x132;" horiz-adv-x="1333" 
d="M858 -18q-136 0 -237 43v329h53l57 -276q45 -37 123 -37q67 0 106 66.5t39 193.5v840l-168 24v29h502v-27l-172 -26v-834q0 -95 -46.5 -171.5t-115 -115t-141.5 -38.5zM57 0v27l168 24v1090l-168 24v29h500v-27l-172 -26v-1090l172 -22v-29h-500z" />
    <glyph glyph-name="ij" unicode="&#x133;" horiz-adv-x="919" 
d="M567 -424l-16 21q66 69 84 140.5t18 270.5v836h-143v22l225 74h62v-944q0 -123 -64 -231.5t-166 -188.5zM35 0v20l133 27v797h-143v22l225 74h61v-893l140 -24v-23h-416zM143 1268q0 43 30 73.5t69 30.5t68.5 -30.5t29.5 -73.5q0 -44 -29.5 -74.5t-68.5 -30.5t-69 31
t-30 74zM729 1163q-39 0 -68.5 30.5t-29.5 74.5q0 43 29.5 73.5t68.5 30.5q38 0 67 -30.5t29 -73.5t-29 -74t-67 -31z" />
    <glyph glyph-name="Jcircumflex" unicode="&#x134;" horiz-adv-x="714" 
d="M240 -18q-137 0 -238 43v329h53l58 -276q45 -37 123 -37q67 0 106 66.5t39 193.5v840l-168 24v29h502v-27l-172 -26v-834q0 -95 -46.5 -171.5t-115 -115t-141.5 -38.5zM717 1288l-248 101l-233 -97l-21 21l260 211l258 -209z" />
    <glyph glyph-name="jcircumflex" unicode="&#x135;" horiz-adv-x="421" 
d="M70 -424l-17 21q67 70 85 141.5t18 269.5v836h-144v22l226 74h61v-944q0 -123 -63.5 -231.5t-165.5 -188.5zM193 1368h61l225 -258l-12 -20l-258 153l-254 -151l-12 18z" />
    <glyph glyph-name="Kcommaaccent" unicode="&#x136;" horiz-adv-x="1044" 
d="M35 0v27l168 24v1090l-168 24v29h500v-27l-173 -26v-1090l173 -22v-29h-500zM768 0l-367 573v33l387 522l-133 41v25h359v-29l-158 -37l-336 -440l418 -639l121 -18v-31h-291zM530 -127h121l-108 -311h-41z" />
    <glyph glyph-name="kcommaaccent" unicode="&#x137;" horiz-adv-x="847" 
d="M20 0v20l134 39v1301h-144v24l189 56h100v-1379l137 -38v-23h-416zM342 481v17l287 348l-142 55v21h324v-23l-121 -55l-229 -281l270 -493l131 -50v-20h-262zM401 -127h121l-108 -311h-41z" />
    <glyph glyph-name="Lacute" unicode="&#x139;" horiz-adv-x="858" 
d="M35 0v27l168 24v1090l-168 24v29h500v-27l-173 -26v-1086h355l96 289l55 -12l-49 -332h-784zM506 1548l55 -131l-379 -139l-12 27z" />
    <glyph glyph-name="lacute" unicode="&#x13a;" horiz-adv-x="440" 
d="M20 0v20l134 39v1301h-144v24l189 56h100v-1379l137 -38v-23h-416zM424 1741l55 -131l-379 -140l-12 27z" />
    <glyph glyph-name="Lcommaaccent" unicode="&#x13b;" horiz-adv-x="858" 
d="M35 0v27l168 24v1090l-168 24v29h500v-27l-173 -26v-1086h355l96 289l55 -12l-49 -332h-784zM481 -127h121l-108 -311h-41z" />
    <glyph glyph-name="lcommaaccent" unicode="&#x13c;" horiz-adv-x="440" 
d="M20 0v20l134 39v1301h-144v24l189 56h100v-1379l137 -38v-23h-416zM178 -127h121l-109 -311h-40z" />
    <glyph glyph-name="Lcaron" unicode="&#x13d;" horiz-adv-x="858" 
d="M35 0v27l168 24v1090l-168 24v29h500v-27l-173 -26v-1086h355l96 289l55 -12l-49 -332h-784zM690 903h-39v357h137z" />
    <glyph glyph-name="lcaron" unicode="&#x13e;" horiz-adv-x="489" 
d="M20 0v20l134 39v1301h-144v24l189 56h100v-1379l137 -38v-23h-416zM428 1083h-39v357h137z" />
    <glyph glyph-name="Ldot" unicode="&#x13f;" horiz-adv-x="858" 
d="M35 0v27l168 24v1090l-168 24v29h500v-27l-173 -26v-1086h355l96 289l55 -12l-49 -332h-784zM662 666q0 47 31 78.5t77 31.5q43 0 73.5 -31.5t30.5 -78.5q0 -46 -30.5 -78.5t-73.5 -32.5q-45 0 -76.5 32.5t-31.5 78.5z" />
    <glyph glyph-name="ldot" unicode="&#x140;" horiz-adv-x="518" 
d="M20 0v20l134 39v1301h-144v24l189 56h100v-1379l137 -38v-23h-416zM362 623q0 47 31.5 78.5t77.5 31.5q43 0 73.5 -31.5t30.5 -78.5q0 -46 -30.5 -78.5t-73.5 -32.5q-46 0 -77.5 32.5t-31.5 78.5z" />
    <glyph glyph-name="Lslash" unicode="&#x141;" horiz-adv-x="858" 
d="M35 0v27l168 24v418l-142 -78v55l142 89v606l-168 24v29h500v-27l-173 -26v-506l183 115v-88l-183 -103v-504h355l96 289l55 -12l-49 -332h-784z" />
    <glyph glyph-name="lslash" unicode="&#x142;" horiz-adv-x="440" 
d="M20 0v20l134 39v498l-121 -84v70l121 92v725h-144v24l189 56h100v-692l123 94v-94l-123 -89v-598l137 -38v-23h-416z" />
    <glyph glyph-name="Nacute" unicode="&#x143;" horiz-adv-x="1118" 
d="M37 0v27l131 45v1040l-133 53v29h254l604 -883v807l-156 47v29h363v-27l-131 -43v-1142h-49l-676 999v-909l155 -43v-29h-362zM782 1548l56 -131l-379 -139l-13 27z" />
    <glyph glyph-name="nacute" unicode="&#x144;" horiz-adv-x="980" 
d="M35 0v20l133 39v785h-143v22l198 74h74l12 -174q32 37 59.5 63t66 54t83 42.5t92.5 14.5q117 0 175.5 -93t58.5 -239v-547l135 -38v-23h-416v20l137 41v519q0 133 -39.5 194.5t-128.5 61.5q-62 0 -121 -28.5t-100 -66.5v-680l140 -38v-23h-416zM725 1421l88 -110
l-330 -244l-18 16z" />
    <glyph glyph-name="Ncommaaccent" unicode="&#x145;" horiz-adv-x="1118" 
d="M37 0v27l131 45v1040l-133 53v29h254l604 -883v807l-156 47v29h363v-27l-131 -43v-1142h-49l-676 999v-909l155 -43v-29h-362zM551 -127h121l-109 -311h-41z" />
    <glyph glyph-name="ncommaaccent" unicode="&#x146;" horiz-adv-x="980" 
d="M35 0v20l133 39v785h-143v22l198 74h74l12 -174q32 37 59.5 63t66 54t83 42.5t92.5 14.5q117 0 175.5 -93t58.5 -239v-547l135 -38v-23h-416v20l137 41v519q0 133 -39.5 194.5t-128.5 61.5q-62 0 -121 -28.5t-100 -66.5v-680l140 -38v-23h-416zM457 -127h121l-109 -311
h-41z" />
    <glyph glyph-name="Ncaron" unicode="&#x147;" horiz-adv-x="1118" 
d="M37 0v27l131 45v1040l-133 53v29h254l604 -883v807l-156 47v29h363v-27l-131 -43v-1142h-49l-676 999v-909l155 -43v-29h-362zM614 1282h-39l-231 209l18 27l242 -117l240 112l18 -20z" />
    <glyph glyph-name="ncaron" unicode="&#x148;" horiz-adv-x="980" 
d="M35 0v20l133 39v785h-143v22l198 74h74l12 -174q32 37 59.5 63t66 54t83 42.5t92.5 14.5q117 0 175.5 -93t58.5 -239v-547l135 -38v-23h-416v20l137 41v519q0 133 -39.5 194.5t-128.5 61.5q-62 0 -121 -28.5t-100 -66.5v-680l140 -38v-23h-416zM541 1063h-62l-225 258
l12 20l258 -153l254 151l13 -18z" />
    <glyph glyph-name="napostrophe" unicode="&#x149;" horiz-adv-x="980" 
d="M35 0v20l133 39v785h-143v22l198 74h74l12 -174q32 37 59.5 63t66 54t83 42.5t92.5 14.5q117 0 175.5 -93t58.5 -239v-547l135 -38v-23h-416v20l137 41v519q0 133 -39.5 194.5t-128.5 61.5q-62 0 -121 -28.5t-100 -66.5v-680l140 -38v-23h-416zM340 1356
q0 -91 -55.5 -174.5t-145.5 -137.5l-18 21q40 37 72 96t32 103q0 78 -69 92q0 36 28 66t64 30q38 0 65 -28t27 -68z" />
    <glyph glyph-name="Eng" unicode="&#x14a;" horiz-adv-x="1118" 
d="M37 0v27l131 45v1040l-133 53v29h254l604 -883v807l-156 47v29h363v-27l-131 -43v-1142h-2q-1 -79 -11 -139.5t-36.5 -124.5t-79.5 -120t-133 -104l-35 47q88 74 131.5 133.5t65 140.5t22.5 208l-647 958v-909l155 -43v-29h-362z" />
    <glyph glyph-name="eng" unicode="&#x14b;" horiz-adv-x="980" 
d="M35 0v20l133 39v785h-143v22l198 74h74l12 -174q32 37 59.5 63t66 54t83 42.5t92.5 14.5q117 0 175.5 -93t58.5 -239v-612q0 -123 -64 -231.5t-166 -188.5l-16 21q66 69 84 140.5t18 270.5v572q0 133 -39.5 194.5t-128.5 61.5q-62 0 -121 -28.5t-100 -66.5v-680l140 -38
v-23h-416z" />
    <glyph glyph-name="Omacron" unicode="&#x14c;" horiz-adv-x="1150" 
d="M1096 643q0 -132 -37 -251t-104.5 -210t-169 -144.5t-222.5 -53.5q-230 0 -369 160t-139 419q0 285 149.5 467t387.5 182q230 0 367 -158.5t137 -410.5zM918 604q0 118 -18.5 215.5t-57 176t-105.5 122t-157 43.5q-92 0 -160.5 -42.5t-109 -119t-60 -175t-19.5 -218.5
q0 -160 36.5 -286.5t114 -204.5t187.5 -78q78 0 139.5 32t100 85.5t64 128t35.5 153.5t10 168zM834 1366h-478v57h478v-57z" />
    <glyph glyph-name="omacron" unicode="&#x14d;" horiz-adv-x="802" 
d="M762 461q0 -123 -48.5 -232.5t-134.5 -177t-188 -67.5q-352 0 -352 467q0 125 49 237.5t134.5 182t183.5 69.5q179 0 267.5 -118t88.5 -361zM604 436q0 43 -1.5 80t-6.5 85.5t-13.5 87t-25 78.5t-38 66t-54.5 43t-74 17q-44 0 -77 -16.5t-53.5 -48.5t-34 -68t-19.5 -87
t-8 -92.5t-2 -97.5q0 -450 219 -450q43 0 75.5 15t52.5 46t32.5 64.5t18.5 85.5t7.5 92.5t1.5 99.5zM643 1221h-479v57h479v-57z" />
    <glyph glyph-name="Obreve" unicode="&#x14e;" horiz-adv-x="1150" 
d="M1096 643q0 -132 -37 -251t-104.5 -210t-169 -144.5t-222.5 -53.5q-230 0 -369 160t-139 419q0 285 149.5 467t387.5 182q230 0 367 -158.5t137 -410.5zM918 604q0 118 -18.5 215.5t-57 176t-105.5 122t-157 43.5q-92 0 -160.5 -42.5t-109 -119t-60 -175t-19.5 -218.5
q0 -160 36.5 -286.5t114 -204.5t187.5 -78q78 0 139.5 32t100 85.5t64 128t35.5 153.5t10 168zM592 1280q-166 0 -205 184l72 25q15 -64 46.5 -94.5t84.5 -30.5q121 0 162 119l30 -21q-13 -73 -70.5 -127.5t-119.5 -54.5z" />
    <glyph glyph-name="obreve" unicode="&#x14f;" horiz-adv-x="802" 
d="M762 461q0 -123 -48.5 -232.5t-134.5 -177t-188 -67.5q-352 0 -352 467q0 125 49 237.5t134.5 182t183.5 69.5q179 0 267.5 -118t88.5 -361zM604 436q0 43 -1.5 80t-6.5 85.5t-13.5 87t-25 78.5t-38 66t-54.5 43t-74 17q-44 0 -77 -16.5t-53.5 -48.5t-34 -68t-19.5 -87
t-8 -92.5t-2 -97.5q0 -450 219 -450q43 0 75.5 15t52.5 46t32.5 64.5t18.5 85.5t7.5 92.5t1.5 99.5zM403 1104q-165 0 -204 184l71 25q17 -63 47.5 -90t83.5 -27q123 0 164 111l29 -21q-13 -73 -70.5 -127.5t-120.5 -54.5z" />
    <glyph glyph-name="Ohungarumlaut" unicode="&#x150;" horiz-adv-x="1150" 
d="M1096 643q0 -132 -37 -251t-104.5 -210t-169 -144.5t-222.5 -53.5q-230 0 -369 160t-139 419q0 285 149.5 467t387.5 182q230 0 367 -158.5t137 -410.5zM918 604q0 118 -18.5 215.5t-57 176t-105.5 122t-157 43.5q-92 0 -160.5 -42.5t-109 -119t-60 -175t-19.5 -218.5
q0 -160 36.5 -286.5t114 -204.5t187.5 -78q78 0 139.5 32t100 85.5t64 128t35.5 153.5t10 168zM360 1278l-20 27l270 264l74 -96zM633 1278l-12 27l323 235l49 -119z" />
    <glyph glyph-name="ohungarumlaut" unicode="&#x151;" horiz-adv-x="802" 
d="M762 461q0 -123 -48.5 -232.5t-134.5 -177t-188 -67.5q-352 0 -352 467q0 125 49 237.5t134.5 182t183.5 69.5q179 0 267.5 -118t88.5 -361zM604 436q0 43 -1.5 80t-6.5 85.5t-13.5 87t-25 78.5t-38 66t-54.5 43t-74 17q-44 0 -77 -16.5t-53.5 -48.5t-34 -68t-19.5 -87
t-8 -92.5t-2 -97.5q0 -450 219 -450q43 0 75.5 15t52.5 46t32.5 64.5t18.5 85.5t7.5 92.5t1.5 99.5zM233 1067l-24 16l147 342l127 -49zM463 1067l-19 16l238 326l94 -86z" />
    <glyph glyph-name="OE" unicode="&#x152;" horiz-adv-x="1323" 
d="M1184 573l-381 7v-525h360l84 236l47 -12l-28 -279h-566q-59 -16 -137 -16q-230 0 -369 160t-139 419q0 285 149.5 467t387.5 182q103 0 158 -18h512v-270h-60l-51 217h-348v-506l381 8v-70zM569 37q35 0 72 12v1100q-30 12 -61 12q-167 0 -258 -149t-91 -406
q0 -255 87 -412t251 -157z" />
    <glyph glyph-name="oe" unicode="&#x153;" horiz-adv-x="1323" 
d="M766 465q0 -182 79.5 -284.5t205.5 -102.5q45 0 104 25t102 65l21 -39q-35 -54 -116 -99.5t-169 -45.5q-226 0 -311 188q-51 -87 -126.5 -137.5t-164.5 -50.5q-352 0 -352 467q0 125 49 237.5t134.5 182t183.5 69.5q214 0 296 -174q44 82 113.5 128t157.5 46
q301 0 311 -444h-518v-31zM604 436q0 43 -1.5 80t-6.5 85.5t-13.5 87t-25 78.5t-38 66t-54.5 43t-74 17q-44 0 -77 -16.5t-53.5 -48.5t-34 -68t-19.5 -87t-8 -92.5t-2 -97.5q0 -442 219 -442q43 0 75.5 14.5t52.5 44.5t32.5 63t18.5 83.5t7.5 90.5t1.5 99zM961 895
q-75 0 -128 -90.5t-65 -255.5h350q7 346 -157 346z" />
    <glyph glyph-name="Racute" unicode="&#x154;" horiz-adv-x="1021" 
d="M788 0l-294 561h-132v-510l173 -22v-29h-500v27l168 24v1090l-168 24v29h485q163 0 256.5 -74.5t93.5 -234.5q0 -105 -55.5 -182t-161.5 -113l21 -37l272 -494l94 -36v-23h-252zM467 1137h-105v-523h76q121 5 195 76t74 187q0 122 -59.5 190.5t-180.5 69.5zM737 1548
l56 -131l-379 -139l-13 27z" />
    <glyph glyph-name="racute" unicode="&#x155;" horiz-adv-x="628" 
d="M35 0v20l131 39v785h-141v22l198 74h74l8 -119q61 57 125 88t117 31q46 0 82 -10l-41 -154h-6l-166 49l-109 -16l4 -51v-695l158 -40v-23h-434zM537 1421l88 -110l-330 -244l-19 16z" />
    <glyph glyph-name="Rcommaaccent" unicode="&#x156;" horiz-adv-x="1021" 
d="M788 0l-294 561h-132v-510l173 -22v-29h-500v27l168 24v1090l-168 24v29h485q163 0 256.5 -74.5t93.5 -234.5q0 -105 -55.5 -182t-161.5 -113l21 -37l272 -494l94 -36v-23h-252zM467 1137h-105v-523h76q121 5 195 76t74 187q0 122 -59.5 190.5t-180.5 69.5zM524 -127h121
l-108 -311h-41z" />
    <glyph glyph-name="rcommaaccent" unicode="&#x157;" horiz-adv-x="628" 
d="M35 0v20l131 39v785h-141v22l198 74h74l8 -119q61 57 125 88t117 31q46 0 82 -10l-41 -154h-6l-166 49l-109 -16l4 -51v-695l158 -40v-23h-434zM180 -127h121l-108 -311h-41z" />
    <glyph glyph-name="Rcaron" unicode="&#x158;" horiz-adv-x="1021" 
d="M788 0l-294 561h-132v-510l173 -22v-29h-500v27l168 24v1090l-168 24v29h485q163 0 256.5 -74.5t93.5 -234.5q0 -105 -55.5 -182t-161.5 -113l21 -37l272 -494l94 -36v-23h-252zM467 1137h-105v-523h76q121 5 195 76t74 187q0 122 -59.5 190.5t-180.5 69.5zM522 1282h-39
l-231 209l18 27l242 -117l240 112l18 -20z" />
    <glyph glyph-name="rcaron" unicode="&#x159;" horiz-adv-x="628" 
d="M35 0v20l131 39v785h-141v22l198 74h74l8 -119q61 57 125 88t117 31q46 0 82 -10l-41 -154h-6l-166 49l-109 -16l4 -51v-695l158 -40v-23h-434zM406 1063h-62l-225 258l12 20l258 -153l254 151l12 -18z" />
    <glyph glyph-name="Sacute" unicode="&#x15a;" horiz-adv-x="778" 
d="M639 854l-59 252q-71 51 -164 51q-103 0 -159 -61t-56 -152q0 -89 53 -145.5t156 -102.5q132 -59 184 -96q138 -101 139 -276q0 -70 -22.5 -128t-60.5 -97t-89.5 -66t-107 -39t-115.5 -12q-152 0 -293 69v293h47l68 -252q92 -57 205 -57q101 0 159 54t58 187
q0 51 -19 92.5t-57.5 73t-76.5 53t-95 46.5q-49 21 -81 38t-72 45.5t-63.5 60t-40 78.5t-16.5 103q0 152 98.5 249t235.5 97q174 0 295 -71v-287h-51zM612 1548l56 -131l-379 -139l-13 27z" />
    <glyph glyph-name="sacute" unicode="&#x15b;" horiz-adv-x="661" 
d="M307 -16q-136 0 -258 61v252h31l59 -203q77 -49 168 -49q81 0 135 42.5t54 127.5q0 47 -19 79.5t-49.5 49.5t-70 31.5t-80 24.5t-80 30t-70 46.5t-49.5 75t-19 114.5q0 128 85.5 201t207.5 73q131 0 230 -57v-230h-37l-43 170q-90 58 -172 58q-74 0 -120 -41.5
t-46 -130.5q0 -54 24.5 -88.5t64 -51t87 -28.5t95 -28t87 -41t64 -75.5t24.5 -124.5q0 -76 -26 -133.5t-70 -90t-96 -48.5t-111 -16zM510 1421l88 -110l-330 -244l-18 16z" />
    <glyph glyph-name="Scircumflex" unicode="&#x15c;" horiz-adv-x="778" 
d="M639 854l-59 252q-71 51 -164 51q-103 0 -159 -61t-56 -152q0 -89 53 -145.5t156 -102.5q132 -59 184 -96q138 -101 139 -276q0 -70 -22.5 -128t-60.5 -97t-89.5 -66t-107 -39t-115.5 -12q-152 0 -293 69v293h47l68 -252q92 -57 205 -57q101 0 159 54t58 187
q0 51 -19 92.5t-57.5 73t-76.5 53t-95 46.5q-49 21 -81 38t-72 45.5t-63.5 60t-40 78.5t-16.5 103q0 152 98.5 249t235.5 97q174 0 295 -71v-287h-51zM653 1288l-247 101l-234 -97l-20 21l260 211l258 -209z" />
    <glyph glyph-name="scircumflex" unicode="&#x15d;" horiz-adv-x="661" 
d="M307 -16q-136 0 -258 61v252h31l59 -203q77 -49 168 -49q81 0 135 42.5t54 127.5q0 47 -19 79.5t-49.5 49.5t-70 31.5t-80 24.5t-80 30t-70 46.5t-49.5 75t-19 114.5q0 128 85.5 201t207.5 73q131 0 230 -57v-230h-37l-43 170q-90 58 -172 58q-74 0 -120 -41.5
t-46 -130.5q0 -54 24.5 -88.5t64 -51t87 -28.5t95 -28t87 -41t64 -75.5t24.5 -124.5q0 -76 -26 -133.5t-70 -90t-96 -48.5t-111 -16zM340 1368h61l226 -258l-13 -20l-258 153l-254 -151l-12 18z" />
    <glyph glyph-name="Scedilla" unicode="&#x15e;" horiz-adv-x="778" 
d="M330 -438q-84 0 -142 30l29 52q56 -31 111 -31q42 0 79 31t37 73q0 54 -36.5 93.5t-110.5 56.5l63 117q-4 0 -11 -1t-11 -1q-152 0 -293 69v293h47l68 -252q92 -57 205 -57q101 0 159 54t58 187q0 51 -19 92.5t-57.5 73t-76.5 53t-95 46.5q-49 21 -81 38t-72 45.5
t-63.5 60t-40 78.5t-16.5 103q0 152 98.5 249t235.5 97q174 0 295 -71v-287h-51l-59 252q-71 51 -164 51q-103 0 -159 -61t-56 -152q0 -89 53 -145.5t156 -102.5q132 -59 184 -96q138 -101 139 -276q0 -77 -26.5 -139t-72.5 -102t-103 -63.5t-123 -31.5l-33 -94
q80 -12 123 -55.5t43 -104.5q0 -72 -57.5 -122t-153.5 -50z" />
    <glyph glyph-name="scedilla" unicode="&#x15f;" horiz-adv-x="661" 
d="M260 -438q-83 0 -141 30l28 52q56 -31 111 -31q42 0 79.5 31t37.5 73q0 53 -37 93t-111 57l66 117q-136 3 -244 61v252h31l59 -203q77 -49 168 -49q81 0 135 42.5t54 127.5q0 47 -19 79.5t-49.5 49.5t-70 31.5t-80 24.5t-80 30t-70 46.5t-49.5 75t-19 114.5
q0 128 85.5 201t207.5 73q131 0 230 -57v-230h-37l-43 170q-90 58 -172 58q-74 0 -120 -41.5t-46 -130.5q0 -54 24.5 -88.5t64 -51t87 -28.5t95 -28t87 -41t64 -75.5t24.5 -124.5q0 -71 -22.5 -126t-62 -88t-86 -50.5t-101.5 -21.5l-33 -92q80 -12 123 -55.5t43 -104.5
q0 -72 -57.5 -122t-153.5 -50z" />
    <glyph glyph-name="Scaron" unicode="&#x160;" horiz-adv-x="778" 
d="M639 854l-59 252q-71 51 -164 51q-103 0 -159 -61t-56 -152q0 -89 53 -145.5t156 -102.5q132 -59 184 -96q138 -101 139 -276q0 -70 -22.5 -128t-60.5 -97t-89.5 -66t-107 -39t-115.5 -12q-152 0 -293 69v293h47l68 -252q92 -57 205 -57q101 0 159 54t58 187
q0 51 -19 92.5t-57.5 73t-76.5 53t-95 46.5q-49 21 -81 38t-72 45.5t-63.5 60t-40 78.5t-16.5 103q0 152 98.5 249t235.5 97q174 0 295 -71v-287h-51zM428 1282h-39l-231 209l18 27l242 -117l239 112l19 -20z" />
    <glyph glyph-name="scaron" unicode="&#x161;" horiz-adv-x="661" 
d="M307 -16q-136 0 -258 61v252h31l59 -203q77 -49 168 -49q81 0 135 42.5t54 127.5q0 47 -19 79.5t-49.5 49.5t-70 31.5t-80 24.5t-80 30t-70 46.5t-49.5 75t-19 114.5q0 128 85.5 201t207.5 73q131 0 230 -57v-230h-37l-43 170q-90 58 -172 58q-74 0 -120 -41.5
t-46 -130.5q0 -54 24.5 -88.5t64 -51t87 -28.5t95 -28t87 -41t64 -75.5t24.5 -124.5q0 -76 -26 -133.5t-70 -90t-96 -48.5t-111 -16zM383 1063h-61l-226 258l13 20l258 -153l254 151l12 -18z" />
    <glyph glyph-name="Tcommaaccent" unicode="&#x162;" horiz-adv-x="909" 
d="M203 0v27l168 24v1088h-244l-68 -285h-51v340h891v-340h-49l-80 285h-235v-1088l172 -22v-29h-504zM399 -127h121l-108 -311h-41z" />
    <glyph glyph-name="tcommaaccent" unicode="&#x163;" horiz-adv-x="557" 
d="M549 70l6 -29q-103 -57 -203 -57t-166 65.5t-65 202.5v616h-111v17l117 41l121 235h22v-239h258v-54h-258v-637q3 -188 154 -188q54 0 125 27zM305 -127h121l-109 -311h-41z" />
    <glyph glyph-name="Tcaron" unicode="&#x164;" horiz-adv-x="909" 
d="M203 0v27l168 24v1088h-244l-68 -285h-51v340h891v-340h-49l-80 285h-235v-1088l172 -22v-29h-504zM475 1282h-39l-231 209l18 27l242 -117l240 112l18 -20z" />
    <glyph glyph-name="tcaron" unicode="&#x165;" horiz-adv-x="557" 
d="M549 70l6 -29q-103 -57 -203 -57t-166 65.5t-65 202.5v616h-111v17l117 41l121 235h22v-239h258v-54h-258v-637q3 -188 154 -188q54 0 125 27zM444 1083h-38v357h137z" />
    <glyph glyph-name="Tbar" unicode="&#x166;" horiz-adv-x="909" 
d="M8 854v340h891v-340h-49l-80 285h-235v-500h194v-61h-194v-527l172 -22v-29h-504v27l168 24v527h-189v61h189v500h-244l-68 -285h-51z" />
    <glyph glyph-name="tbar" unicode="&#x167;" horiz-adv-x="557" 
d="M549 70l6 -29q-103 -57 -203 -57t-166 65.5t-65 202.5v283h-86v51h86v282h-111v17l117 41l121 235h22v-239h258v-54h-258v-282h232v-51h-232v-304q3 -188 154 -188q54 0 125 27z" />
    <glyph glyph-name="Utilde" unicode="&#x168;" horiz-adv-x="1130" 
d="M592 -18q-64 0 -122.5 12t-116.5 43t-100.5 79t-68.5 126t-26 178v723l-138 22v29h478v-27l-179 -26v-711q0 -107 22.5 -184t62.5 -119.5t88 -62t106 -19.5q293 0 293 426v651l-162 43v29h379v-27l-139 -47v-655q0 -103 -22 -186t-58 -137.5t-85.5 -91t-102 -52.5
t-109.5 -16zM694 1307q-44 0 -107.5 24.5t-107.5 24.5q-56 0 -106 -45l-17 14q56 131 168 131q52 0 116 -23.5t110 -23.5q31 0 92 35l12 -14q-16 -43 -56 -83t-104 -40z" />
    <glyph glyph-name="utilde" unicode="&#x169;" horiz-adv-x="925" 
d="M291 377q0 -155 34.5 -230t123.5 -75q58 0 99 12.5t95 48.5v711h-143v22l225 74h61v-881l121 -39v-20h-235l-27 115q-77 -75 -131 -103t-123 -28q-126 0 -185 84t-59 229v547h-143v22l225 74h62v-563zM573 1130q-44 0 -107.5 25t-107.5 25q-56 0 -106 -45l-16 14
q12 25 22.5 41.5t30.5 40.5t49 36.5t65 12.5q52 0 116 -23.5t110 -23.5q33 0 94 35l10 -15q-16 -43 -56 -83t-104 -40z" />
    <glyph glyph-name="Umacron" unicode="&#x16a;" horiz-adv-x="1130" 
d="M592 -18q-64 0 -122.5 12t-116.5 43t-100.5 79t-68.5 126t-26 178v723l-138 22v29h478v-27l-179 -26v-711q0 -107 22.5 -184t62.5 -119.5t88 -62t106 -19.5q293 0 293 426v651l-162 43v29h379v-27l-139 -47v-655q0 -103 -22 -186t-58 -137.5t-85.5 -91t-102 -52.5
t-109.5 -16zM844 1366h-477v57h477v-57z" />
    <glyph glyph-name="umacron" unicode="&#x16b;" horiz-adv-x="925" 
d="M291 377q0 -155 34.5 -230t123.5 -75q58 0 99 12.5t95 48.5v711h-143v22l225 74h61v-881l121 -39v-20h-235l-27 115q-77 -75 -131 -103t-123 -28q-126 0 -185 84t-59 229v547h-143v22l225 74h62v-563zM729 1221h-479v57h479v-57z" />
    <glyph glyph-name="Ubreve" unicode="&#x16c;" horiz-adv-x="1130" 
d="M592 -18q-64 0 -122.5 12t-116.5 43t-100.5 79t-68.5 126t-26 178v723l-138 22v29h478v-27l-179 -26v-711q0 -107 22.5 -184t62.5 -119.5t88 -62t106 -19.5q293 0 293 426v651l-162 43v29h379v-27l-139 -47v-655q0 -103 -22 -186t-58 -137.5t-85.5 -91t-102 -52.5
t-109.5 -16zM614 1282q-165 0 -204 184l71 25q15 -64 46.5 -94.5t84.5 -30.5q121 0 162 119l31 -21q-13 -73 -71 -127.5t-120 -54.5z" />
    <glyph glyph-name="ubreve" unicode="&#x16d;" horiz-adv-x="925" 
d="M291 377q0 -155 34.5 -230t123.5 -75q58 0 99 12.5t95 48.5v711h-143v22l225 74h61v-881l121 -39v-20h-235l-27 115q-77 -75 -131 -103t-123 -28q-126 0 -185 84t-59 229v547h-143v22l225 74h62v-563zM475 1104q-166 0 -205 184l72 25q17 -63 47.5 -90t83.5 -27
q123 0 164 111l29 -21q-13 -73 -70.5 -127.5t-120.5 -54.5z" />
    <glyph glyph-name="Uring" unicode="&#x16e;" horiz-adv-x="1130" 
d="M592 -18q-64 0 -122.5 12t-116.5 43t-100.5 79t-68.5 126t-26 178v723l-138 22v29h478v-27l-179 -26v-711q0 -107 22.5 -184t62.5 -119.5t88 -62t106 -19.5q293 0 293 426v651l-162 43v29h379v-27l-139 -47v-655q0 -103 -22 -186t-58 -137.5t-85.5 -91t-102 -52.5
t-109.5 -16zM614 1284q-54 0 -101.5 41.5t-47.5 110.5q0 66 41 106.5t108 40.5q68 0 110 -42t42 -105q0 -68 -44 -110t-108 -42zM614 1321q54 0 84.5 29.5t30.5 85.5q0 51 -31.5 81.5t-83.5 30.5q-54 0 -83 -29.5t-29 -82.5q0 -55 35 -85t77 -30z" />
    <glyph glyph-name="uring" unicode="&#x16f;" horiz-adv-x="925" 
d="M672 0l-27 115q-77 -75 -131 -103t-123 -28q-126 0 -185 84t-59 229v547h-143v22l225 74h62v-563q0 -155 34.5 -230t123.5 -75q58 0 99 12.5t95 48.5v711h-143v22l225 74h61v-881l121 -39v-20h-235zM479 1079q-54 0 -101.5 41.5t-47.5 110.5q0 66 41 106.5t108 40.5
q68 0 110 -42t42 -105q0 -68 -44 -110t-108 -42zM479 1116q54 0 84.5 29.5t30.5 85.5q0 51 -31.5 81.5t-83.5 30.5q-54 0 -83 -29.5t-29 -82.5q0 -55 35 -85t77 -30z" />
    <glyph glyph-name="Uhungarumlaut" unicode="&#x170;" horiz-adv-x="1130" 
d="M592 -18q-64 0 -122.5 12t-116.5 43t-100.5 79t-68.5 126t-26 178v723l-138 22v29h478v-27l-179 -26v-711q0 -107 22.5 -184t62.5 -119.5t88 -62t106 -19.5q293 0 293 426v651l-162 43v29h379v-27l-139 -47v-655q0 -103 -22 -186t-58 -137.5t-85.5 -91t-102 -52.5
t-109.5 -16zM645 1278l-12 27l323 235l50 -119zM373 1278l-21 27l271 264l73 -96z" />
    <glyph glyph-name="uhungarumlaut" unicode="&#x171;" horiz-adv-x="925" 
d="M672 0l-27 115q-77 -75 -131 -103t-123 -28q-126 0 -185 84t-59 229v547h-143v22l225 74h62v-563q0 -155 34.5 -230t123.5 -75q58 0 99 12.5t95 48.5v711h-143v22l225 74h61v-881l121 -39v-20h-235zM317 1067l-24 16l147 342l127 -49zM547 1067l-19 16l238 326l94 -86z
" />
    <glyph glyph-name="Uogonek" unicode="&#x172;" horiz-adv-x="1130" 
d="M760 -352l14 -35q-64 -37 -158 -37q-87 0 -131.5 43.5t-44.5 114.5q0 69 40 133.5t106 114.5q-64 1 -121.5 13t-115 43.5t-98.5 79t-67 125.5t-26 177v723l-138 22v29h478v-27l-179 -26v-711q0 -107 22.5 -184t62.5 -119.5t88 -62t106 -19.5q293 0 293 426v651l-162 43
v29h379v-27l-139 -47v-655q0 -203 -77.5 -319t-199.5 -150q-71 -46 -109 -111t-38 -129q0 -68 28 -101.5t93 -33.5q50 0 94 27z" />
    <glyph glyph-name="uogonek" unicode="&#x173;" horiz-adv-x="925" 
d="M672 0l-27 115q-77 -75 -131 -103t-123 -28q-126 0 -185 84t-59 229v547h-143v22l225 74h62v-563q0 -155 34.5 -230t123.5 -75q58 0 99 12.5t95 48.5v711h-143v22l225 74h61v-881l121 -39v-20h-76q-75 -45 -115 -111.5t-40 -132.5q0 -68 28 -101.5t93 -33.5q50 0 94 27
l14 -35q-64 -37 -157 -37q-87 0 -132 43.5t-45 114.5q0 75 47 144.5t125 121.5h-71z" />
    <glyph glyph-name="Wcircumflex" unicode="&#x174;" horiz-adv-x="1568" 
d="M393 0l-313 1153l-86 18v23h397v-20l-139 -29l237 -977h9l256 1026h110l273 -1038h8l264 966l-168 49v23h334v-20l-96 -48l-330 -1126h-115l-262 995h-8l-256 -995h-115zM1065 1288l-248 101l-233 -97l-21 21l260 211l258 -209z" />
    <glyph glyph-name="wcircumflex" unicode="&#x175;" horiz-adv-x="1320" 
d="M319 0l-247 872l-86 27v23h374v-21l-133 -45l170 -682h6l211 748h115l221 -748h6l181 676l-129 49v23h327v-21l-139 -53l-246 -848h-86l-227 778h-2l-236 -778h-80zM659 1368h62l225 -258l-12 -20l-258 153l-254 -151l-12 18z" />
    <glyph glyph-name="Ycircumflex" unicode="&#x176;" horiz-adv-x="968" 
d="M242 0v27l168 24v441l-326 657l-74 16v29h379v-27l-129 -28l291 -582l229 561l-159 47v29h337v-27l-88 -34l-299 -641v-441l172 -22v-29h-501zM764 1288l-248 101l-233 -97l-21 21l260 211l258 -209z" />
    <glyph glyph-name="ycircumflex" unicode="&#x177;" horiz-adv-x="821" 
d="M471 20l-117 -444h-104v16l129 332l-301 946l-92 29v23h374v-21l-129 -45l220 -700l194 692l-117 51v23h308v-21l-129 -55zM406 1368h61l225 -258l-12 -20l-258 153l-254 -151l-12 18z" />
    <glyph glyph-name="Ydieresis" unicode="&#x178;" horiz-adv-x="968" 
d="M242 0v27l168 24v441l-326 657l-74 16v29h379v-27l-129 -28l291 -582l229 561l-159 47v29h337v-27l-88 -34l-299 -641v-441l172 -22v-29h-501zM270 1391q0 38 24 63t62 25q36 0 60 -25t24 -63q0 -37 -24.5 -64t-59.5 -27q-37 0 -61.5 26.5t-24.5 64.5zM616 1391
q0 38 24.5 63t61.5 25q36 0 60 -25t24 -63q0 -37 -24.5 -64t-59.5 -27q-36 0 -61 27t-25 64z" />
    <glyph glyph-name="Zacute" unicode="&#x179;" horiz-adv-x="827" 
d="M31 0l-11 39l578 1100h-442l-62 -285h-53v340h733l14 -25l-595 -1114h479l80 271l49 -9l-25 -317h-745zM639 1548l55 -131l-379 -139l-12 27z" />
    <glyph glyph-name="zacute" unicode="&#x17a;" horiz-adv-x="671" 
d="M653 293l-39 -293h-575l-19 59l441 813h-293l-96 -188l-35 6l24 232h547l19 -37l-459 -836h334l123 248zM500 1421l88 -110l-330 -244l-18 16z" />
    <glyph glyph-name="Zdotaccent" unicode="&#x17b;" horiz-adv-x="827" 
d="M31 0l-11 39l578 1100h-442l-62 -285h-53v340h733l14 -25l-595 -1114h479l80 271l49 -9l-25 -317h-745zM340 1401q0 47 31.5 78.5t77.5 31.5q43 0 73.5 -31.5t30.5 -78.5q0 -46 -30.5 -78.5t-73.5 -32.5q-46 0 -77.5 32.5t-31.5 78.5z" />
    <glyph glyph-name="zdotaccent" unicode="&#x17c;" horiz-adv-x="671" 
d="M653 293l-39 -293h-575l-19 59l441 813h-293l-96 -188l-35 6l24 232h547l19 -37l-459 -836h334l123 248zM258 1268q0 47 31.5 78.5t77.5 31.5q43 0 73.5 -31.5t30.5 -78.5q0 -46 -30.5 -78.5t-73.5 -32.5q-46 0 -77.5 32.5t-31.5 78.5z" />
    <glyph glyph-name="Zcaron" unicode="&#x17d;" horiz-adv-x="827" 
d="M31 0l-11 39l578 1100h-442l-62 -285h-53v340h733l14 -25l-595 -1114h479l80 271l49 -9l-25 -317h-745zM440 1282h-39l-231 209l18 27l242 -117l240 112l18 -20z" />
    <glyph glyph-name="zcaron" unicode="&#x17e;" horiz-adv-x="671" 
d="M653 293l-39 -293h-575l-19 59l441 813h-293l-96 -188l-35 6l24 232h547l19 -37l-459 -836h334l123 248zM406 1063h-62l-225 258l12 20l258 -153l254 151l12 -18z" />
    <glyph glyph-name="uni018F" unicode="&#x18f;" horiz-adv-x="1064" 
d="M510 -16q-126 0 -215.5 43.5t-140 125.5t-73 186t-22.5 239v57h772q-6 222 -91.5 354.5t-239.5 132.5q-81 0 -173 -24t-169 -64l-27 49q186 129 375 129q230 0 367 -158.5t137 -410.5q0 -133 -32 -251t-93 -209.5t-157.5 -145t-217.5 -53.5zM514 37q86 0 148.5 44.5
t97.5 123t52 169.5t19 201h-595q0 -117 12.5 -208t42.5 -168.5t86 -119.5t137 -42z" />
    <glyph glyph-name="florin" unicode="&#x192;" horiz-adv-x="702" 
d="M70 588v57h184l12 148q8 107 42 192t85.5 137.5t113.5 79.5t130 27q27 0 65 -6l-24 -176l-156 98q-93 -93 -114 -359l-13 -141h215v-57h-219l-33 -430q-9 -110 -45.5 -210.5t-102.5 -171.5t-147 -71q-38 0 -59 1t-52 9.5t-56 24.5l41 147q48 -30 68 -41.5t54.5 -25.5
t77.5 -25q51 57 74 328l37 465h-178z" />
    <glyph glyph-name="Ohorn" unicode="&#x1a0;" horiz-adv-x="1150" 
d="M1096 643q0 -132 -37 -251t-104.5 -210t-169 -144.5t-222.5 -53.5q-230 0 -369 160t-139 419q0 285 149.5 467t387.5 182q204 0 336 -129q45 34 45 101q0 40 -31 153l135 27q25 -61 25 -131q0 -118 -141 -182q135 -157 135 -408zM918 604q0 118 -18.5 215.5t-57 176
t-105.5 122t-157 43.5q-92 0 -160.5 -42.5t-109 -119t-60 -175t-19.5 -218.5q0 -160 36.5 -286.5t114 -204.5t187.5 -78q78 0 139.5 32t100 85.5t64 128t35.5 153.5t10 168z" />
    <glyph glyph-name="ohorn" unicode="&#x1a1;" horiz-adv-x="802" 
d="M762 461q0 -123 -48.5 -232.5t-134.5 -177t-188 -67.5q-352 0 -352 467q0 125 49 237.5t134.5 182t183.5 69.5q160 0 247 -96q49 25 49 90q0 58 -51 176l123 25q23 -53 23 -129q0 -72 -24.5 -118t-94.5 -75q84 -119 84 -352zM604 436q0 43 -1.5 80t-6.5 85.5t-13.5 87
t-25 78.5t-38 66t-54.5 43t-74 17q-44 0 -77 -16.5t-53.5 -48.5t-34 -68t-19.5 -87t-8 -92.5t-2 -97.5q0 -450 219 -450q43 0 75.5 15t52.5 46t32.5 64.5t18.5 85.5t7.5 92.5t1.5 99.5z" />
    <glyph glyph-name="Uhorn" unicode="&#x1af;" horiz-adv-x="1130" 
d="M592 -18q-64 0 -122.5 12t-116.5 43t-100.5 79t-68.5 126t-26 178v723l-138 22v29h478v-27l-179 -26v-711q0 -107 22.5 -184t62.5 -119.5t88 -62t106 -19.5q293 0 293 426v651l-162 43v29h324q43 71 -43 203l123 26q22 -54 22 -129q0 -62 -39 -99t-147 -75v-655
q0 -103 -22 -186t-58 -137.5t-85.5 -91t-102 -52.5t-109.5 -16z" />
    <glyph glyph-name="uhorn" unicode="&#x1b0;" horiz-adv-x="925" 
d="M672 0l-27 115q-77 -75 -131 -103t-123 -28q-126 0 -185 84t-59 229v547h-143v22l225 74h62v-563q0 -155 34.5 -230t123.5 -75q58 0 99 12.5t95 48.5v711h-143v22l266 88q43 14 57.5 31.5t14.5 44.5q0 46 -60 117l121 29q23 -64 23 -129q0 -60 -29.5 -104.5t-106.5 -80.5
v-803l121 -39v-20h-235z" />
    <glyph glyph-name="uni01C4" unicode="&#x1c4;" horiz-adv-x="1992" 
d="M35 0v27l168 24v1090l-168 24v29h459q108 0 194 -13.5t167.5 -51.5t135.5 -99.5t86.5 -163.5t32.5 -239q0 -152 -46 -272t-128 -197t-192 -117.5t-242 -40.5h-467zM487 1139h-125v-1084h156q104 0 179.5 27.5t129.5 90t80.5 167.5t26.5 256q0 133 -22.5 230t-73.5 169
t-138.5 108t-212.5 36zM1196 0l-10 39l577 1100h-442l-61 -285h-54v340h733l15 -25l-596 -1114h479l80 271l49 -9l-24 -317h-746zM1606 1282h-39l-232 209l19 27l241 -117l240 112l18 -20z" />
    <glyph glyph-name="uni01C5" unicode="&#x1c5;" horiz-adv-x="1837" 
d="M35 0v27l168 24v1090l-168 24v29h459q108 0 194 -13.5t167.5 -51.5t135.5 -99.5t86.5 -163.5t32.5 -239q0 -152 -46 -272t-128 -197t-192 -117.5t-242 -40.5h-467zM487 1139h-125v-1084h156q104 0 179.5 27.5t129.5 90t80.5 167.5t26.5 256q0 133 -22.5 230t-73.5 169
t-138.5 108t-212.5 36zM1819 293l-39 -293h-576l-18 59l440 813h-293l-96 -188l-35 6l25 232h547l18 -37l-459 -836h334l123 248zM1536 1063h-61l-226 258l13 20l258 -153l254 151l12 -18z" />
    <glyph glyph-name="uni01C6" unicode="&#x1c6;" horiz-adv-x="1527" 
d="M602 0l-24 111q-101 -127 -228 -127q-48 0 -91 13.5t-84 46t-70.5 81.5t-47.5 126t-18 173q0 227 109.5 365.5t269.5 138.5q83 0 155 -21v453h-141v24l178 56h107v-1381l121 -39v-20h-236zM395 78q99 0 178 53v682q-60 66 -155 66q-113 0 -171.5 -105t-58.5 -295
q0 -191 53.5 -296t153.5 -105zM1509 293l-39 -293h-575l-18 59l440 813h-293l-96 -188l-35 6l25 232h546l19 -37l-459 -836h334l123 248zM1262 1063h-62l-225 258l12 20l258 -153l254 151l12 -18z" />
    <glyph glyph-name="uni01C7" unicode="&#x1c7;" horiz-adv-x="1624" 
d="M35 0v27l168 24v1090l-168 24v29h500v-27l-173 -26v-1086h355l96 289l55 -12l-49 -332h-784zM1149 -18q-137 0 -238 43v329h54l57 -276q45 -37 123 -37q67 0 106 66.5t39 193.5v840l-168 24v29h502v-27l-172 -26v-834q0 -95 -46.5 -171.5t-115 -115t-141.5 -38.5z" />
    <glyph glyph-name="uni01C8" unicode="&#x1c8;" horiz-adv-x="1280" 
d="M35 0v27l168 24v1090l-168 24v29h500v-27l-173 -26v-1086h355l96 289l55 -12l-49 -332h-784zM928 -424l-17 21q67 70 85 141.5t18 269.5v836h-144v22l226 74h61v-944q0 -123 -63.5 -231.5t-165.5 -188.5zM1090 1163q-39 0 -69 31t-30 74t30 73.5t69 30.5q38 0 67 -30.5
t29 -73.5t-29 -74t-67 -31z" />
    <glyph glyph-name="uni01C9" unicode="&#x1c9;" horiz-adv-x="862" 
d="M20 0v20l134 39v1301h-144v24l189 56h100v-1379l137 -38v-23h-416zM510 -424l-16 21q66 69 84 140.5t18 270.5v836h-143v22l225 74h61v-944q0 -123 -63.5 -231.5t-165.5 -188.5zM672 1163q-39 0 -69 31t-30 74t30 73.5t69 30.5q38 0 67 -30.5t29 -73.5t-29 -74t-67 -31z
" />
    <glyph glyph-name="uni01CA" unicode="&#x1ca;" horiz-adv-x="1832" 
d="M37 0v27l131 45v1040l-133 53v29h254l604 -883v807l-156 47v29h363v-27l-131 -43v-1142h-49l-676 999v-909l155 -43v-29h-362zM1358 -18q-137 0 -238 43v329h54l57 -276q45 -37 123 -37q67 0 106 66.5t39 193.5v840l-168 24v29h502v-27l-172 -26v-834q0 -95 -46.5 -171.5
t-115 -115t-141.5 -38.5z" />
    <glyph glyph-name="uni01CB" unicode="&#x1cb;" horiz-adv-x="1540" 
d="M37 0v27l131 45v1040l-133 53v29h254l604 -883v807l-156 47v29h363v-27l-131 -43v-1142h-49l-676 999v-909l155 -43v-29h-362zM1188 -424l-17 21q67 70 85 141.5t18 269.5v836h-144v22l226 74h61v-944q0 -123 -63.5 -231.5t-165.5 -188.5zM1350 1163q-39 0 -69 31t-30 74
t30 73.5t69 30.5q38 0 67 -30.5t29 -73.5t-29 -74t-67 -31z" />
    <glyph glyph-name="uni01CC" unicode="&#x1cc;" horiz-adv-x="1402" 
d="M35 0v20l133 39v785h-143v22l198 74h74l12 -174q32 37 59.5 63t66 54t83 42.5t92.5 14.5q117 0 175.5 -93t58.5 -239v-547l135 -38v-23h-416v20l137 41v519q0 133 -39.5 194.5t-128.5 61.5q-62 0 -121 -28.5t-100 -66.5v-680l140 -38v-23h-416zM1051 -424l-17 21
q67 70 85 141.5t18 269.5v836h-144v22l226 74h61v-944q0 -123 -63.5 -231.5t-165.5 -188.5zM1212 1163q-39 0 -68.5 30.5t-29.5 74.5q0 43 29.5 73.5t68.5 30.5q38 0 67.5 -30.5t29.5 -73.5t-29.5 -74t-67.5 -31z" />
    <glyph glyph-name="uni01CD" unicode="&#x1cd;" horiz-adv-x="995" 
d="M604 0v20l141 27l-114 424h-342l-127 -401l164 -47v-23h-332v20l100 48l369 1126h117l333 -1153l91 -18v-23h-400zM469 1036l-164 -510h311l-139 510h-8zM537 1282h-39l-232 209l19 27l241 -117l240 112l18 -20z" />
    <glyph glyph-name="uni01CE" unicode="&#x1ce;" horiz-adv-x="776" 
d="M143 612h-45v256q133 72 264 72q56 0 104.5 -14t89.5 -44t65 -84.5t24 -127.5v-611l111 -39v-20h-228l-22 117q-114 -133 -252 -133q-93 0 -153 65.5t-60 177.5q0 122 101 204.5t270 82.5h90v182q0 107 -38 151t-106 44q-74 0 -147 -53zM500 143l2 318h-119
q-100 0 -150.5 -54.5t-50.5 -152.5q0 -180 129 -180q83 0 189 69zM403 1071h-61l-225 258l12 21l258 -154l254 152l12 -19z" />
    <glyph glyph-name="uni01CF" unicode="&#x1cf;" horiz-adv-x="614" 
d="M57 0v27l168 24v1090l-168 24v29h500v-27l-172 -26v-1090l172 -22v-29h-500zM326 1282h-39l-232 209l19 27l241 -117l240 112l18 -20z" />
    <glyph glyph-name="uni01D0" unicode="&#x1d0;" horiz-adv-x="471" 
d="M35 0v20l133 27v797h-143v22l225 74h61v-893l140 -24v-23h-416zM272 1063h-61l-225 258l12 20l258 -153l254 151l12 -18z" />
    <glyph glyph-name="uni01D1" unicode="&#x1d1;" horiz-adv-x="1150" 
d="M1096 643q0 -132 -37 -251t-104.5 -210t-169 -144.5t-222.5 -53.5q-230 0 -369 160t-139 419q0 285 149.5 467t387.5 182q230 0 367 -158.5t137 -410.5zM918 604q0 118 -18.5 215.5t-57 176t-105.5 122t-157 43.5q-92 0 -160.5 -42.5t-109 -119t-60 -175t-19.5 -218.5
q0 -160 36.5 -286.5t114 -204.5t187.5 -78q78 0 139.5 32t100 85.5t64 128t35.5 153.5t10 168zM606 1282h-39l-231 209l18 27l242 -117l240 112l18 -20z" />
    <glyph glyph-name="uni01D2" unicode="&#x1d2;" horiz-adv-x="802" 
d="M762 461q0 -123 -48.5 -232.5t-134.5 -177t-188 -67.5q-352 0 -352 467q0 125 49 237.5t134.5 182t183.5 69.5q179 0 267.5 -118t88.5 -361zM604 436q0 43 -1.5 80t-6.5 85.5t-13.5 87t-25 78.5t-38 66t-54.5 43t-74 17q-44 0 -77 -16.5t-53.5 -48.5t-34 -68t-19.5 -87
t-8 -92.5t-2 -97.5q0 -450 219 -450q43 0 75.5 15t52.5 46t32.5 64.5t18.5 85.5t7.5 92.5t1.5 99.5zM434 1063h-61l-226 258l13 20l258 -153l254 151l12 -18z" />
    <glyph glyph-name="uni01D3" unicode="&#x1d3;" horiz-adv-x="1130" 
d="M592 -18q-64 0 -122.5 12t-116.5 43t-100.5 79t-68.5 126t-26 178v723l-138 22v29h478v-27l-179 -26v-711q0 -107 22.5 -184t62.5 -119.5t88 -62t106 -19.5q293 0 293 426v651l-162 43v29h379v-27l-139 -47v-655q0 -103 -22 -186t-58 -137.5t-85.5 -91t-102 -52.5
t-109.5 -16zM635 1284h-39l-231 209l18 27l242 -117l239 113l19 -21z" />
    <glyph glyph-name="uni01D4" unicode="&#x1d4;" horiz-adv-x="925" 
d="M291 377q0 -155 34.5 -230t123.5 -75q58 0 99 12.5t95 48.5v711h-143v22l225 74h61v-881l121 -39v-20h-235l-27 115q-77 -75 -131 -103t-123 -28q-126 0 -185 84t-59 229v547h-143v22l225 74h62v-563zM496 1063h-62l-225 258l12 20l258 -153l254 151l12 -18z" />
    <glyph glyph-name="AEmacron" unicode="&#x1e2;" horiz-adv-x="1384" 
d="M528 0v27l177 26v418h-328l-195 -408l144 -40v-23h-332v20l117 56l544 1118h668v-270h-57l-54 217h-348v-506l381 8v-70l-381 7v-525h361l84 236l47 -12l-29 -279h-799zM690 1126l-287 -600h302v600h-15zM1266 1362h-478v57h478v-57z" />
    <glyph glyph-name="aemacron" unicode="&#x1e3;" horiz-adv-x="1206" 
d="M98 612v256q133 72 264 72q79 0 141 -35.5t93 -107.5q99 143 260 143q298 0 311 -444h-520q-3 -211 77.5 -314.5t209.5 -103.5q44 0 103.5 25t103.5 65l18 -39q-35 -54 -115.5 -99.5t-169.5 -45.5q-202 0 -294 147q-32 -32 -53 -50t-61 -44.5t-89 -39.5t-107 -13
q-97 0 -163 63.5t-66 173.5q0 123 101.5 208t269.5 85h90v168q0 108 -39 158.5t-105 50.5q-74 0 -147 -53l-68 -226h-45zM342 72q55 0 103.5 31.5t101.5 84.5q-45 102 -45 273h-119q-205 0 -205 -207q0 -84 48 -133t116 -49zM651 549h350q2 101 -11 175t-50 122.5t-96 48.5
q-74 0 -127 -90t-66 -256zM840 1221h-480v57h480v-57z" />
    <glyph glyph-name="uni01E6" unicode="&#x1e6;" horiz-adv-x="1036" 
d="M885 829l-72 283q-82 49 -190 49q-170 0 -281 -149t-111 -404q0 -268 117.5 -415.5t304.5 -147.5q59 0 125 29v477l-176 22v29h338v-479l-2 -2v-60l-32 -16t-60 -27t-87.5 -23t-121.5 -11q-130 0 -235.5 37t-183.5 110t-120.5 190.5t-42.5 270.5q0 175 73.5 316.5
t206 222.5t298.5 81q33 0 64 -2t52.5 -4.5t46.5 -8.5l37.5 -9t33.5 -11.5t26 -10.5t25 -12l20 -9v-316h-53zM639 1282h-39l-231 209l18 27l242 -117l239 112l19 -20z" />
    <glyph glyph-name="uni01E7" unicode="&#x1e7;" horiz-adv-x="802" 
d="M379 360q-34 0 -74 7l-90 -131l234 -35q305 -49 305 -262q0 -68 -29.5 -134.5t-83 -121t-136.5 -88t-181 -33.5q-147 0 -228.5 75t-81.5 185q0 74 60.5 143.5t154.5 118.5l-133 20v76l174 197q-85 27 -134.5 95t-49.5 163q0 118 80.5 211.5t202.5 93.5q145 0 225 -96
l197 78h12v-99h-193q49 -76 49 -184q0 -111 -85.5 -195t-194.5 -84zM152 -166q0 -86 51.5 -144.5t163.5 -58.5q114 0 193 70.5t79 163.5q0 160 -225 192l-156 23q-106 -97 -106 -246zM375 412q125 0 125 217q0 141 -34.5 201.5t-103.5 60.5q-124 0 -124 -240
q0 -239 137 -239zM408 1063h-62l-225 258l12 20l258 -153l254 151l12 -18z" />
    <glyph glyph-name="uni01E8" unicode="&#x1e8;" horiz-adv-x="1044" 
d="M35 0v27l168 24v1090l-168 24v29h500v-27l-173 -26v-1090l173 -22v-29h-500zM768 0l-367 573v33l387 522l-133 41v25h359v-29l-158 -37l-336 -440l418 -639l121 -18v-31h-291zM606 1282h-39l-231 209l18 27l242 -117l240 112l18 -20z" />
    <glyph glyph-name="uni01E9" unicode="&#x1e9;" horiz-adv-x="847" 
d="M20 0v20l134 39v1301h-144v24l189 56h100v-1379l137 -38v-23h-416zM342 481v17l287 348l-142 55v21h324v-23l-121 -55l-229 -281l270 -493l131 -50v-20h-262zM631 1282h-39l-232 209l19 27l242 -117l239 112l19 -20z" />
    <glyph glyph-name="uni01EA" unicode="&#x1ea;" horiz-adv-x="1150" 
d="M754 -352l14 -35q-64 -37 -158 -37q-87 0 -131.5 43.5t-44.5 114.5q0 137 150 252q-3 0 -10.5 -1t-10.5 -1q-230 0 -369 160t-139 419q0 285 149.5 467t387.5 182q230 0 367 -158.5t137 -410.5q0 -230 -107.5 -409t-290.5 -232q-76 -44 -117.5 -111.5t-41.5 -134.5
q0 -69 27.5 -102t92.5 -33q51 0 95 27zM918 604q0 118 -18.5 215.5t-57 176t-105.5 122t-157 43.5q-92 0 -160.5 -42.5t-109 -119t-60 -175t-19.5 -218.5q0 -160 36.5 -286.5t114 -204.5t187.5 -78q78 0 139.5 32t100 85.5t64 128t35.5 153.5t10 168z" />
    <glyph glyph-name="uni01EB" unicode="&#x1eb;" horiz-adv-x="802" 
d="M551 -352l14 -35q-64 -37 -157 -37q-87 0 -132 43.5t-45 114.5q0 69 41 134.5t109 115.5q-342 6 -342 467q0 125 49 237.5t134.5 182t183.5 69.5q179 0 267.5 -118t88.5 -361q0 -153 -73.5 -281.5t-188.5 -175.5q-80 -44 -122 -112t-42 -136t28 -101.5t93 -33.5
q50 0 94 27zM604 436q0 43 -1.5 80t-6.5 85.5t-13.5 87t-25 78.5t-38 66t-54.5 43t-74 17q-44 0 -77 -16.5t-53.5 -48.5t-34 -68t-19.5 -87t-8 -92.5t-2 -97.5q0 -450 219 -450q43 0 75.5 15t52.5 46t32.5 64.5t18.5 85.5t7.5 92.5t1.5 99.5z" />
    <glyph glyph-name="uni01EC" unicode="&#x1ec;" horiz-adv-x="1150" 
d="M754 -352l14 -35q-64 -37 -158 -37q-87 0 -131.5 43.5t-44.5 114.5q0 137 150 252q-3 0 -10.5 -1t-10.5 -1q-230 0 -369 160t-139 419q0 285 149.5 467t387.5 182q230 0 367 -158.5t137 -410.5q0 -230 -107.5 -409t-290.5 -232q-76 -44 -117.5 -111.5t-41.5 -134.5
q0 -69 27.5 -102t92.5 -33q51 0 95 27zM918 604q0 118 -18.5 215.5t-57 176t-105.5 122t-157 43.5q-92 0 -160.5 -42.5t-109 -119t-60 -175t-19.5 -218.5q0 -160 36.5 -286.5t114 -204.5t187.5 -78q78 0 139.5 32t100 85.5t64 128t35.5 153.5t10 168zM831 1364h-477v57h477
v-57z" />
    <glyph glyph-name="uni01ED" unicode="&#x1ed;" horiz-adv-x="802" 
d="M551 -352l14 -35q-64 -37 -157 -37q-87 0 -132 43.5t-45 114.5q0 69 41 134.5t109 115.5q-342 6 -342 467q0 125 49 237.5t134.5 182t183.5 69.5q179 0 267.5 -118t88.5 -361q0 -153 -73.5 -281.5t-188.5 -175.5q-80 -44 -122 -112t-42 -136t28 -101.5t93 -33.5
q50 0 94 27zM604 436q0 43 -1.5 80t-6.5 85.5t-13.5 87t-25 78.5t-38 66t-54.5 43t-74 17q-44 0 -77 -16.5t-53.5 -48.5t-34 -68t-19.5 -87t-8 -92.5t-2 -97.5q0 -450 219 -450q43 0 75.5 15t52.5 46t32.5 64.5t18.5 85.5t7.5 92.5t1.5 99.5zM664 1221h-480v57h480v-57z" />
    <glyph glyph-name="uni01EE" unicode="&#x1ee;" horiz-adv-x="800" 
d="M590 152q0 137 -99.5 221.5t-242.5 87.5l-23 86l344 487l-4 15h-426l-88 -158l-22 8l30 295h635l19 -45l-381 -531l4 -12q184 -28 306 -138.5t122 -258.5q0 -143 -60.5 -246.5t-162.5 -155t-234 -51.5q-111 0 -246 51v224h29q33 -98 93.5 -156.5t168.5 -58.5
q111 0 174.5 87.5t63.5 248.5zM406 1282h-39l-232 209l19 27l241 -117l240 112l18 -20z" />
    <glyph glyph-name="uni01EF" unicode="&#x1ef;" horiz-adv-x="718" 
d="M684 53q0 -85 -33 -161.5t-89 -133t-128.5 -98t-154 -62.5t-162.5 -22l-8 37q167 0 288 122.5t121 280.5q0 116 -55 177t-156 61q-51 0 -90 -10l-22 86l321 452l-4 15h-365l-75 -179l-43 9l30 295h564l18 -45l-332 -461l4 -13q166 -15 268.5 -108.5t102.5 -241.5z
M385 1063h-61l-226 258l13 20l258 -153l254 151l12 -18z" />
    <glyph glyph-name="uni01F1" unicode="&#x1f1;" horiz-adv-x="1992" 
d="M35 0v27l168 24v1090l-168 24v29h459q108 0 194 -13.5t167.5 -51.5t135.5 -99.5t86.5 -163.5t32.5 -239q0 -152 -46 -272t-128 -197t-192 -117.5t-242 -40.5h-467zM487 1139h-125v-1084h156q104 0 179.5 27.5t129.5 90t80.5 167.5t26.5 256q0 133 -22.5 230t-73.5 169
t-138.5 108t-212.5 36zM1196 0l-10 39l577 1100h-442l-61 -285h-54v340h733l15 -25l-596 -1114h479l80 271l49 -9l-24 -317h-746z" />
    <glyph glyph-name="uni01F2" unicode="&#x1f2;" horiz-adv-x="1837" 
d="M35 0v27l168 24v1090l-168 24v29h459q108 0 194 -13.5t167.5 -51.5t135.5 -99.5t86.5 -163.5t32.5 -239q0 -152 -46 -272t-128 -197t-192 -117.5t-242 -40.5h-467zM487 1139h-125v-1084h156q104 0 179.5 27.5t129.5 90t80.5 167.5t26.5 256q0 133 -22.5 230t-73.5 169
t-138.5 108t-212.5 36zM1819 293l-39 -293h-576l-18 59l440 813h-293l-96 -188l-35 6l25 232h547l18 -37l-459 -836h334l123 248z" />
    <glyph glyph-name="uni01F3" unicode="&#x1f3;" horiz-adv-x="1527" 
d="M602 0l-24 111q-101 -127 -228 -127q-48 0 -91 13.5t-84 46t-70.5 81.5t-47.5 126t-18 173q0 227 109.5 365.5t269.5 138.5q83 0 155 -21v453h-141v24l178 56h107v-1381l121 -39v-20h-236zM573 131v682q-60 66 -155 66q-113 0 -171.5 -105t-58.5 -295q0 -191 53.5 -296
t153.5 -105q99 0 178 53zM1509 293l-39 -293h-575l-18 59l440 813h-293l-96 -188l-35 6l25 232h546l19 -37l-459 -836h334l123 248z" />
    <glyph glyph-name="uni01F4" unicode="&#x1f4;" horiz-adv-x="1036" 
d="M885 829l-72 283q-82 49 -190 49q-170 0 -281 -149t-111 -404q0 -268 117.5 -415.5t304.5 -147.5q59 0 125 29v477l-176 22v29h338v-479l-2 -2v-60l-32 -16t-60 -27t-87.5 -23t-121.5 -11q-130 0 -235.5 37t-183.5 110t-120.5 190.5t-42.5 270.5q0 175 73.5 316.5
t206 222.5t298.5 81q33 0 64 -2t52.5 -4.5t46.5 -8.5l37.5 -9t33.5 -11.5t26 -10.5t25 -12l20 -9v-316h-53zM887 1548l55 -131l-379 -139l-12 27z" />
    <glyph glyph-name="uni01F5" unicode="&#x1f5;" horiz-adv-x="802" 
d="M379 360q-34 0 -74 7l-90 -131l234 -35q305 -49 305 -262q0 -68 -29.5 -134.5t-83 -121t-136.5 -88t-181 -33.5q-147 0 -228.5 75t-81.5 185q0 74 60.5 143.5t154.5 118.5l-133 20v76l174 197q-85 27 -134.5 95t-49.5 163q0 118 80.5 211.5t202.5 93.5q145 0 225 -96
l197 78h12v-99h-193q49 -76 49 -184q0 -111 -85.5 -195t-194.5 -84zM152 -166q0 -86 51.5 -144.5t163.5 -58.5q114 0 193 70.5t79 163.5q0 160 -225 192l-156 23q-106 -97 -106 -246zM375 412q125 0 125 217q0 141 -34.5 201.5t-103.5 60.5q-124 0 -124 -240
q0 -239 137 -239zM592 1421l88 -110l-330 -244l-18 16z" />
    <glyph glyph-name="uni01F8" unicode="&#x1f8;" horiz-adv-x="1118" 
d="M37 0v27l131 45v1040l-133 53v29h254l604 -883v807l-156 47v29h363v-27l-131 -43v-1142h-49l-676 999v-909l155 -43v-29h-362zM322 1417l65 127l326 -239l-11 -27z" />
    <glyph glyph-name="uni01F9" unicode="&#x1f9;" horiz-adv-x="980" 
d="M35 0v20l133 39v785h-143v22l198 74h74l12 -174q32 37 59.5 63t66 54t83 42.5t92.5 14.5q117 0 175.5 -93t58.5 -239v-547l135 -38v-23h-416v20l137 41v519q0 133 -39.5 194.5t-128.5 61.5q-62 0 -121 -28.5t-100 -66.5v-680l140 -38v-23h-416zM242 1311l88 110l260 -338
l-19 -16z" />
    <glyph glyph-name="uni01FA" unicode="&#x1fa;" horiz-adv-x="995" 
d="M604 0v20l141 27l-114 424h-342l-127 -401l164 -47v-23h-332v20l100 48l369 1126h117l333 -1153l91 -18v-23h-400zM469 1036l-164 -510h311l-139 510h-8zM510 1214q-54 0 -102 41.5t-48 110.5q0 66 41.5 106.5t108.5 40.5q68 0 110 -42t42 -105q0 -68 -44 -110t-108 -42z
M510 1251q54 0 84.5 29.5t30.5 85.5q0 51 -31.5 82t-83.5 31q-54 0 -83.5 -30t-29.5 -83q0 -55 35.5 -85t77.5 -30zM711 1794l55 -131l-379 -139l-12 26z" />
    <glyph glyph-name="uni01FB" unicode="&#x1fb;" horiz-adv-x="776" 
d="M143 612h-45v256q133 72 264 72q56 0 104.5 -14t89.5 -44t65 -84.5t24 -127.5v-611l111 -39v-20h-228l-22 117q-114 -133 -252 -133q-93 0 -153 65.5t-60 177.5q0 122 101 204.5t270 82.5h90v182q0 107 -38 151t-106 44q-74 0 -147 -53zM500 143l2 318h-119
q-100 0 -150.5 -54.5t-50.5 -152.5q0 -180 129 -180q83 0 189 69zM373 1040q-54 0 -102 41.5t-48 110.5q0 66 41.5 106.5t108.5 40.5q68 0 109.5 -42t41.5 -105q0 -69 -43.5 -110.5t-107.5 -41.5zM373 1077q53 0 83.5 29.5t30.5 85.5q0 51 -31 82t-83 31q-54 0 -83.5 -30
t-29.5 -83q0 -55 35.5 -85t77.5 -30zM590 1661l55 -131l-379 -139l-12 26z" />
    <glyph glyph-name="AEacute" unicode="&#x1fc;" horiz-adv-x="1384" 
d="M528 0v27l177 26v418h-328l-195 -408l144 -40v-23h-332v20l117 56l544 1118h668v-270h-57l-54 217h-348v-506l381 8v-70l-381 7v-525h361l84 236l47 -12l-29 -279h-799zM690 1126l-287 -600h302v600h-15zM1233 1550l55 -131l-379 -139l-12 27z" />
    <glyph glyph-name="aeacute" unicode="&#x1fd;" horiz-adv-x="1206" 
d="M98 612v256q133 72 264 72q79 0 141 -35.5t93 -107.5q99 143 260 143q298 0 311 -444h-520q-3 -211 77.5 -314.5t209.5 -103.5q44 0 103.5 25t103.5 65l18 -39q-35 -54 -115.5 -99.5t-169.5 -45.5q-202 0 -294 147q-32 -32 -53 -50t-61 -44.5t-89 -39.5t-107 -13
q-97 0 -163 63.5t-66 173.5q0 123 101.5 208t269.5 85h90v168q0 108 -39 158.5t-105 50.5q-74 0 -147 -53l-68 -226h-45zM342 72q55 0 103.5 31.5t101.5 84.5q-45 102 -45 273h-119q-205 0 -205 -207q0 -84 48 -133t116 -49zM651 549h350q2 101 -11 175t-50 122.5t-96 48.5
q-74 0 -127 -90t-66 -256zM877 1421l88 -110l-330 -244l-19 16z" />
    <glyph glyph-name="Oslashacute" unicode="&#x1fe;" horiz-adv-x="1150" 
d="M1096 643q0 -132 -37 -251t-104.5 -210t-169 -144.5t-222.5 -53.5q-206 0 -334 122l-96 -122h-72l129 163q-135 160 -135 416q0 285 149.5 467t387.5 182q203 0 334 -125l98 125h74l-131 -168q129 -157 129 -401zM231 606q0 -201 54 -338l561 717q-86 176 -266 176
q-92 0 -160.5 -42.5t-109 -119t-60 -175t-19.5 -218.5zM918 604q0 185 -46 322l-561 -715q88 -174 258 -174q78 0 139.5 32t100 85.5t64 128t35.5 153.5t10 168zM842 1548l55 -131l-379 -139l-12 27z" />
    <glyph glyph-name="oslashacute" unicode="&#x1ff;" horiz-adv-x="802" 
d="M762 461q0 -123 -48.5 -232.5t-134.5 -177t-188 -67.5q-148 0 -233 82l-56 -82h-57l80 118q-86 119 -86 349q0 125 49 237.5t134.5 182t183.5 69.5q150 0 235 -82l55 82h66l-86 -125q86 -118 86 -354zM197 483q0 -148 22 -243l346 508q-55 145 -174 145q-44 0 -77 -16.5
t-53.5 -48.5t-34 -68t-19.5 -87t-8 -92.5t-2 -97.5zM604 436q0 142 -20 244l-346 -502q54 -145 178 -145q43 0 75.5 15t52.5 46t32.5 64.5t18.5 85.5t7.5 92.5t1.5 99.5zM635 1421l88 -110l-330 -244l-18 16z" />
    <glyph glyph-name="Scommaaccent" unicode="&#x218;" horiz-adv-x="778" 
d="M639 854l-59 252q-71 51 -164 51q-103 0 -159 -61t-56 -152q0 -89 53 -145.5t156 -102.5q132 -59 184 -96q138 -101 139 -276q0 -70 -22.5 -128t-60.5 -97t-89.5 -66t-107 -39t-115.5 -12q-152 0 -293 69v293h47l68 -252q92 -57 205 -57q101 0 159 54t58 187
q0 51 -19 92.5t-57.5 73t-76.5 53t-95 46.5q-49 21 -81 38t-72 45.5t-63.5 60t-40 78.5t-16.5 103q0 152 98.5 249t235.5 97q174 0 295 -71v-287h-51zM350 -127h121l-109 -311h-40z" />
    <glyph glyph-name="scommaaccent" unicode="&#x219;" horiz-adv-x="661" 
d="M307 -16q-136 0 -258 61v252h31l59 -203q77 -49 168 -49q81 0 135 42.5t54 127.5q0 47 -19 79.5t-49.5 49.5t-70 31.5t-80 24.5t-80 30t-70 46.5t-49.5 75t-19 114.5q0 128 85.5 201t207.5 73q131 0 230 -57v-230h-37l-43 170q-90 58 -172 58q-74 0 -120 -41.5
t-46 -130.5q0 -54 24.5 -88.5t64 -51t87 -28.5t95 -28t87 -41t64 -75.5t24.5 -124.5q0 -76 -26 -133.5t-70 -90t-96 -48.5t-111 -16zM272 -127h121l-108 -311h-41z" />
    <glyph glyph-name="uni021A" unicode="&#x21a;" horiz-adv-x="909" 
d="M203 0v27l168 24v1088h-244l-68 -285h-51v340h891v-340h-49l-80 285h-235v-1088l172 -22v-29h-504zM399 -127h121l-108 -311h-41z" />
    <glyph glyph-name="uni021B" unicode="&#x21b;" horiz-adv-x="557" 
d="M549 70l6 -29q-103 -57 -203 -57t-166 65.5t-65 202.5v616h-111v17l117 41l121 235h22v-239h258v-54h-258v-637q3 -188 154 -188q54 0 125 27zM305 -127h121l-109 -311h-41z" />
    <glyph glyph-name="uni021C" unicode="&#x21c;" horiz-adv-x="800" 
d="M590 152q0 137 -99.5 221.5t-242.5 87.5l-23 86l344 487l-4 15h-426l-88 -158l-22 8l30 295h635l19 -45l-381 -531l4 -12q184 -28 306 -138.5t122 -258.5q0 -143 -60.5 -246.5t-162.5 -155t-234 -51.5q-111 0 -246 51v224h29q33 -98 93.5 -156.5t168.5 -58.5
q111 0 174.5 87.5t63.5 248.5z" />
    <glyph glyph-name="uni021D" unicode="&#x21d;" horiz-adv-x="718" 
d="M684 53q0 -85 -33 -161.5t-89 -133t-128.5 -98t-154 -62.5t-162.5 -22l-8 37q167 0 288 122.5t121 280.5q0 116 -55 177t-156 61q-51 0 -90 -10l-22 86l321 452l-4 15h-365l-75 -179l-43 9l30 295h564l18 -45l-332 -461l4 -13q166 -15 268.5 -108.5t102.5 -241.5z" />
    <glyph glyph-name="uni021E" unicode="&#x21e;" horiz-adv-x="1226" 
d="M694 0v27l168 24v531h-500v-531l173 -22v-29h-500v27l168 24v1090l-168 24v29h500v-27l-173 -26v-506h500v506l-168 24v29h502v-27l-172 -26v-1090l172 -22v-29h-502zM633 1282h-39l-232 209l19 27l242 -117l239 112l19 -20z" />
    <glyph glyph-name="uni021F" unicode="&#x21f;" horiz-adv-x="976" 
d="M20 0v20l134 39v1301h-144v24l189 56h100v-672q66 77 136.5 124.5t160.5 47.5q117 0 175 -93t58 -239v-547l138 -38v-23h-418v20l137 41v517q0 132 -40 195t-128 63q-61 0 -119.5 -28.5t-99.5 -66.5v-680l137 -38v-23h-416zM639 1282h-39l-231 209l18 27l242 -117
l239 112l19 -20z" />
    <glyph glyph-name="uni0226" unicode="&#x226;" horiz-adv-x="995" 
d="M604 0v20l141 27l-114 424h-342l-127 -401l164 -47v-23h-332v20l100 48l369 1126h117l333 -1153l91 -18v-23h-400zM469 1036l-164 -510h311l-139 510h-8zM414 1401q0 47 31 78.5t77 31.5q43 0 74 -31.5t31 -78.5q0 -46 -31 -78.5t-74 -32.5q-45 0 -76.5 32.5t-31.5 78.5z
" />
    <glyph glyph-name="uni0227" unicode="&#x227;" horiz-adv-x="776" 
d="M143 612h-45v256q133 72 264 72q56 0 104.5 -14t89.5 -44t65 -84.5t24 -127.5v-611l111 -39v-20h-228l-22 117q-114 -133 -252 -133q-93 0 -153 65.5t-60 177.5q0 122 101 204.5t270 82.5h90v182q0 107 -38 151t-106 44q-74 0 -147 -53zM500 143l2 318h-119
q-100 0 -150.5 -54.5t-50.5 -152.5q0 -180 129 -180q83 0 189 69zM285 1268q0 47 31 78.5t77 31.5q43 0 74 -31.5t31 -78.5q0 -46 -31 -78.5t-74 -32.5q-45 0 -76.5 32.5t-31.5 78.5z" />
    <glyph glyph-name="uni0228" unicode="&#x228;" horiz-adv-x="892" 
d="M754 573l-392 7v-525h371l84 236l47 -12l-28 -279h-283l-39 -106q80 -12 123 -55.5t43 -104.5q0 -72 -57.5 -122t-153.5 -50q-83 0 -141 30l28 52q56 -31 111 -31q42 0 79.5 31t37.5 73q0 53 -37 93t-111 57l74 133h-475v27l168 24v1090l-168 24v29h796v-270h-59l-51 217
h-359v-506l392 8v-70z" />
    <glyph glyph-name="uni0229" unicode="&#x229;" horiz-adv-x="743" 
d="M350 -438q-83 0 -141 30l29 52q56 -31 110 -31q42 0 79.5 31t37.5 73q0 53 -37 93t-111 57l66 119q-169 9 -256.5 129t-87.5 329q0 214 96.5 355t255.5 141q301 0 314 -444h-519v-31q0 -182 79.5 -284.5t205.5 -102.5q44 0 103.5 25t103.5 65l18 -39q-33 -51 -108.5 -96
t-159.5 -49l-33 -90q80 -12 123 -55.5t43 -104.5q0 -72 -57.5 -122t-153.5 -50zM379 895q-75 0 -128 -90.5t-63 -255.5h351q4 346 -160 346z" />
    <glyph glyph-name="uni022E" unicode="&#x22e;" horiz-adv-x="1150" 
d="M1096 643q0 -132 -37 -251t-104.5 -210t-169 -144.5t-222.5 -53.5q-230 0 -369 160t-139 419q0 285 149.5 467t387.5 182q230 0 367 -158.5t137 -410.5zM918 604q0 118 -18.5 215.5t-57 176t-105.5 122t-157 43.5q-92 0 -160.5 -42.5t-109 -119t-60 -175t-19.5 -218.5
q0 -160 36.5 -286.5t114 -204.5t187.5 -78q78 0 139.5 32t100 85.5t64 128t35.5 153.5t10 168zM481 1401q0 47 31.5 78.5t77.5 31.5q43 0 73.5 -31.5t30.5 -78.5q0 -46 -30.5 -78.5t-73.5 -32.5q-46 0 -77.5 32.5t-31.5 78.5z" />
    <glyph glyph-name="uni022F" unicode="&#x22f;" horiz-adv-x="802" 
d="M762 461q0 -123 -48.5 -232.5t-134.5 -177t-188 -67.5q-352 0 -352 467q0 125 49 237.5t134.5 182t183.5 69.5q179 0 267.5 -118t88.5 -361zM604 436q0 43 -1.5 80t-6.5 85.5t-13.5 87t-25 78.5t-38 66t-54.5 43t-74 17q-44 0 -77 -16.5t-53.5 -48.5t-34 -68t-19.5 -87
t-8 -92.5t-2 -97.5q0 -450 219 -450q43 0 75.5 15t52.5 46t32.5 64.5t18.5 85.5t7.5 92.5t1.5 99.5zM303 1268q0 47 31.5 78.5t77.5 31.5q43 0 73.5 -31.5t30.5 -78.5q0 -46 -30.5 -78.5t-73.5 -32.5q-46 0 -77.5 32.5t-31.5 78.5z" />
    <glyph glyph-name="Ymacron" unicode="&#x232;" horiz-adv-x="968" 
d="M242 0v27l168 24v441l-326 657l-74 16v29h379v-27l-129 -28l291 -582l229 561l-159 47v29h337v-27l-88 -34l-299 -641v-441l172 -22v-29h-501zM752 1364h-478v57h478v-57z" />
    <glyph glyph-name="ymacron" unicode="&#x233;" horiz-adv-x="821" 
d="M471 20l-117 -444h-104v16l129 332l-301 946l-92 29v23h374v-21l-129 -45l220 -700l194 692l-117 51v23h308v-21l-129 -55zM674 1225h-479v57h479v-57z" />
    <glyph glyph-name="dotlessj" unicode="&#x237;" horiz-adv-x="421" 
d="M70 -424l-17 21q67 70 85 141.5t18 269.5v836h-144v22l226 74h61v-944q0 -123 -63.5 -231.5t-165.5 -188.5z" />
    <glyph glyph-name="schwa" unicode="&#x259;" horiz-adv-x="743" 
d="M557 459q0 182 -79.5 284.5t-205.5 102.5q-44 0 -103 -25t-103 -65l-19 39q35 54 115.5 99.5t169.5 45.5q183 0 278 -121.5t95 -339.5q0 -140 -42.5 -252t-123.5 -177.5t-187 -65.5q-300 0 -313 444h518v31zM365 29q73 0 125.5 90t64.5 256h-350q-4 -346 160 -346z" />
    <glyph glyph-name="circumflex" unicode="&#x2c6;" horiz-adv-x="733" 
d="M348 1368h62l225 -258l-12 -20l-258 153l-254 -151l-13 18z" />
    <glyph glyph-name="caron" unicode="&#x2c7;" horiz-adv-x="866" 
d="M465 1063h-62l-225 258l12 20l259 -153l253 151l13 -18z" />
    <glyph glyph-name="breve" unicode="&#x2d8;" horiz-adv-x="641" 
d="M319 1104q-165 0 -204 184l71 25q17 -63 47.5 -90t83.5 -27q123 0 164 111l29 -21q-13 -73 -70.5 -127.5t-120.5 -54.5z" />
    <glyph glyph-name="dotaccent" unicode="&#x2d9;" horiz-adv-x="409" 
d="M98 1268q0 47 31.5 78.5t77.5 31.5q43 0 73.5 -31.5t30.5 -78.5q0 -46 -30.5 -78.5t-73.5 -32.5q-46 0 -77.5 32.5t-31.5 78.5z" />
    <glyph glyph-name="ring" unicode="&#x2da;" horiz-adv-x="604" 
d="M301 1079q-54 0 -101.5 41.5t-47.5 110.5q0 66 41 106.5t108 40.5q68 0 110 -42t42 -105q0 -68 -44 -110t-108 -42zM301 1116q54 0 84.5 29.5t30.5 85.5q0 51 -31.5 81.5t-83.5 30.5q-54 0 -83.5 -29.5t-29.5 -82.5q0 -55 35.5 -85t77.5 -30z" />
    <glyph glyph-name="ogonek" unicode="&#x2db;" horiz-adv-x="571" 
d="M432 -352l14 -35q-64 -37 -157 -37q-87 0 -131.5 43.5t-44.5 114.5q0 95 74 179.5t182 131.5l34 -29q-89 -44 -137.5 -116t-48.5 -144q0 -68 28 -101.5t93 -33.5q50 0 94 27z" />
    <glyph glyph-name="tilde" unicode="&#x2dc;" horiz-adv-x="788" 
d="M485 1130q-44 0 -107.5 25t-107.5 25q-56 0 -106 -45l-17 14q12 25 22.5 41.5t31 40.5t49.5 36.5t65 12.5q52 0 116 -23.5t110 -23.5q33 0 94 35l10 -15q-16 -43 -56 -83t-104 -40z" />
    <glyph glyph-name="hungarumlaut" unicode="&#x2dd;" horiz-adv-x="876" 
d="M231 1067l-24 16l147 342l127 -49zM461 1067l-19 16l238 326l94 -86z" />
    <glyph glyph-name="gravecmb" unicode="&#x300;" horiz-adv-x="0" 
d="M-694 1311l88 110l260 -338l-19 -16z" />
    <glyph glyph-name="acutecmb" unicode="&#x301;" horiz-adv-x="0" 
d="M-344 1421l88 -110l-330 -244l-18 16z" />
    <glyph glyph-name="circumflexcmb" unicode="&#x302;" horiz-adv-x="0" 
d="M-494 1368h62l225 -258l-12 -20l-258 153l-254 -151l-12 18z" />
    <glyph glyph-name="tildecmb" unicode="&#x303;" horiz-adv-x="0" 
d="M-379 1130q-44 0 -107.5 25t-107.5 25q-56 0 -106 -45l-17 14q12 25 22.5 41.5t31 40.5t49.5 36.5t65 12.5q52 0 115.5 -23.5t109.5 -23.5q34 0 95 35l10 -15q-16 -43 -56 -83t-104 -40z" />
    <glyph glyph-name="macroncmb" unicode="&#x304;" horiz-adv-x="0" 
d="M-240 1221h-479v57h479v-57z" />
    <glyph glyph-name="brevecmb" unicode="&#x306;" horiz-adv-x="0" 
d="M-473 1104q-166 0 -205 184l72 25q17 -63 47.5 -90t83.5 -27q123 0 164 111l28 -21q-13 -73 -70 -127.5t-120 -54.5z" />
    <glyph glyph-name="dotaccentcmb" unicode="&#x307;" horiz-adv-x="0" 
d="M-588 1264q0 47 31.5 78.5t77.5 31.5q43 0 73.5 -31.5t30.5 -78.5q0 -46 -30.5 -78.5t-73.5 -32.5q-46 0 -77.5 32.5t-31.5 78.5z" />
    <glyph glyph-name="dieresiscmb" unicode="&#x308;" horiz-adv-x="0" 
d="M-721 1241q0 38 24 63t62 25q36 0 60 -25t24 -63q0 -37 -24.5 -63.5t-59.5 -26.5q-38 0 -62 26t-24 64zM-416 1241q0 38 24.5 63t61.5 25q36 0 60 -25t24 -63q0 -37 -24.5 -63.5t-59.5 -26.5q-36 0 -61 26.5t-25 63.5z" />
    <glyph glyph-name="hookcmb" unicode="&#x309;" horiz-adv-x="0" 
d="M-283 1270q0 -66 -45.5 -122.5t-130.5 -92.5l-37 26q38 12 77.5 63.5t39.5 104.5q0 41 -27.5 61.5t-64.5 20.5q-49 0 -98 -37l-35 68q76 55 151 55q82 0 126 -41.5t44 -105.5z" />
    <glyph glyph-name="ringcmb" unicode="&#x30a;" horiz-adv-x="0" 
d="M-481 1075q-54 0 -102 41.5t-48 110.5q0 66 41.5 106.5t108.5 40.5q68 0 109.5 -42t41.5 -105q0 -69 -43.5 -110.5t-107.5 -41.5zM-481 1112q53 0 83.5 29.5t30.5 85.5q0 51 -31 81.5t-83 30.5q-54 0 -83.5 -29.5t-29.5 -82.5q0 -55 35.5 -85t77.5 -30z" />
    <glyph glyph-name="hungarumlautcmb" unicode="&#x30b;" horiz-adv-x="0" 
d="M-608 1067l-25 16l148 342l127 -49zM-379 1067l-18 16l237 326l94 -86z" />
    <glyph glyph-name="caroncmb" unicode="&#x30c;" horiz-adv-x="0" 
d="M-436 1063h-62l-225 258l12 20l258 -153l254 151l13 -18z" />
    <glyph glyph-name="candrabinducmb" unicode="&#x310;" horiz-adv-x="0" 
d="M-467 1071q-99 0 -160 62.5t-80 158.5l72 15q15 -61 62.5 -110.5t109.5 -49.5q73 0 125 49t70 107l37 -9q-15 -103 -78 -163t-158 -60zM-547 1358q0 38 25 64t63 26q37 0 63.5 -26t26.5 -64q0 -37 -26.5 -62.5t-63.5 -25.5q-38 0 -63 25.5t-25 62.5z" />
    <glyph glyph-name="dotbelowcmb" unicode="&#x323;" horiz-adv-x="0" 
d="M-567 -268q0 47 31 78.5t77 31.5q43 0 74 -31.5t31 -78.5q0 -46 -31 -78.5t-74 -32.5q-45 0 -76.5 32.5t-31.5 78.5z" />
    <glyph glyph-name="dieresisbelowcmb" unicode="&#x324;" horiz-adv-x="0" 
d="M-727 -213q0 38 24 63t62 25q36 0 60 -25t24 -63q0 -37 -24.5 -63.5t-59.5 -26.5q-38 0 -62 26t-24 64zM-422 -213q0 38 24.5 63t61.5 25q36 0 60 -25t24 -63q0 -37 -24.5 -63.5t-59.5 -26.5q-36 0 -61 26.5t-25 63.5z" />
    <glyph glyph-name="ringbelowcmb" unicode="&#x325;" horiz-adv-x="0" 
d="M-489 -412q-54 0 -102 41.5t-48 110.5q0 66 41.5 106.5t108.5 40.5q68 0 109.5 -42t41.5 -105q0 -69 -43.5 -110.5t-107.5 -41.5zM-489 -375q53 0 83.5 29.5t30.5 85.5q0 51 -31 82t-83 31q-54 0 -83.5 -30t-29.5 -83q0 -55 35.5 -85t77.5 -30z" />
    <glyph glyph-name="cedillacmb" unicode="&#x327;" horiz-adv-x="0" 
d="M-539 -442q-83 0 -141 30l29 52q56 -31 110 -31q42 0 79.5 31t37.5 73q0 54 -37 96t-110 58l84 149l38 2l-45 -124q80 -12 123 -57.5t43 -106.5q0 -72 -57.5 -122t-153.5 -50z" />
    <glyph glyph-name="ogonekcmb" unicode="&#x328;" horiz-adv-x="0" 
d="M-340 -352l14 -35q-64 -37 -157 -37q-87 0 -131.5 43.5t-44.5 114.5q0 95 74 179.5t182 131.5l34 -29q-89 -44 -137.5 -116t-48.5 -144q0 -68 28 -101.5t93 -33.5q50 0 94 27z" />
    <glyph glyph-name="brevebelowcmb" unicode="&#x32e;" horiz-adv-x="0" 
d="M-494 -340q-165 0 -204 184l71 25q17 -63 47.5 -90t83.5 -27q123 0 164 111l29 -21q-13 -73 -70.5 -127.5t-120.5 -54.5z" />
    <glyph glyph-name="macronbelowcmb" unicode="&#x331;" horiz-adv-x="0" 
d="M-233 -260h-480v57h480v-57z" />
    <glyph glyph-name="uni0374" unicode="&#x374;" horiz-adv-x="364" 
d="M303 1270q0 -101 -57 -194.5t-148 -155.5l-20 24q44 44 80.5 108.5t36.5 112.5q0 37 -21.5 67.5t-56.5 37.5q0 41 27.5 74.5t64.5 33.5q39 0 66.5 -31.5t27.5 -76.5z" />
    <glyph glyph-name="uni0375" unicode="&#x375;" horiz-adv-x="391" 
d="M285 59q0 -101 -56.5 -194.5t-148.5 -155.5l-19 25q44 44 79.5 108.5t35.5 112.5q0 37 -21.5 67t-56.5 37q0 41 28 75t64 34q39 0 67 -32t28 -77z" />
    <glyph glyph-name="uni037E" unicode="&#x37e;" horiz-adv-x="477" 
d="M362 59q0 -115 -70 -220t-183 -173l-23 27q52 46 92.5 120t40.5 130q0 42 -22 75t-66 41q0 45 35 83t80 38q49 0 82.5 -35t33.5 -86zM143 823q0 47 33.5 82t77.5 35q45 0 76.5 -34.5t31.5 -82.5q0 -47 -31 -80.5t-77 -33.5q-45 0 -78 33.5t-33 80.5z" />
    <glyph glyph-name="tonos" unicode="&#x384;" horiz-adv-x="573" 
d="M258 1462l137 -26l-145 -369l-25 4z" />
    <glyph glyph-name="dieresistonos" unicode="&#x385;" horiz-adv-x="770" 
d="M76 1182q0 43 26.5 71.5t67.5 28.5q39 0 66.5 -29t27.5 -71q0 -41 -28 -70t-66 -29q-41 0 -67.5 28.5t-26.5 70.5zM485 1182q0 43 27 71.5t68 28.5q40 0 67 -28.5t27 -71.5q0 -41 -27 -70t-67 -29q-41 0 -68 28.5t-27 70.5zM365 1460l135 -26l-146 -369l-24 4z" />
    <glyph glyph-name="Alphatonos" unicode="&#x386;" horiz-adv-x="995" 
d="M604 0v20l141 27l-114 424h-342l-127 -401l164 -47v-23h-332v20l100 48l369 1126h117l333 -1153l91 -18v-23h-400zM469 1036l-164 -510h311l-139 510h-8zM172 1217l137 -27l-145 -369l-25 4z" />
    <glyph glyph-name="anoteleia" unicode="&#x387;" horiz-adv-x="524" 
d="M123 592q0 57 42 99t99 42t97 -42t40 -99t-40 -97t-97 -40t-99 40t-42 97z" />
    <glyph glyph-name="Epsilontonos" unicode="&#x388;" horiz-adv-x="892" 
d="M754 573l-392 7v-525h371l84 236l47 -12l-28 -279h-801v27l168 24v1090l-168 24v29h796v-270h-59l-51 217h-359v-506l392 8v-70zM-139 1217l137 -27l-145 -369l-25 4z" />
    <glyph glyph-name="Etatonos" unicode="&#x389;" horiz-adv-x="1226" 
d="M694 0v27l168 24v531h-500v-531l173 -22v-29h-500v27l168 24v1090l-168 24v29h500v-27l-173 -26v-506h500v506l-168 24v29h502v-27l-172 -26v-1090l172 -22v-29h-502zM-125 1217l137 -27l-145 -369l-25 4z" />
    <glyph glyph-name="Iotatonos" unicode="&#x38a;" horiz-adv-x="614" 
d="M57 0v27l168 24v1090l-168 24v29h500v-27l-172 -26v-1090l172 -22v-29h-500zM-131 1217l137 -27l-145 -369l-25 4z" />
    <glyph glyph-name="Omicrontonos" unicode="&#x38c;" horiz-adv-x="1150" 
d="M1096 643q0 -132 -37 -251t-104.5 -210t-169 -144.5t-222.5 -53.5q-230 0 -369 160t-139 419q0 285 149.5 467t387.5 182q230 0 367 -158.5t137 -410.5zM918 604q0 118 -18.5 215.5t-57 176t-105.5 122t-157 43.5q-92 0 -160.5 -42.5t-109 -119t-60 -175t-19.5 -218.5
q0 -160 36.5 -286.5t114 -204.5t187.5 -78q78 0 139.5 32t100 85.5t64 128t35.5 153.5t10 168zM-53 1217l137 -27l-145 -369l-25 4z" />
    <glyph glyph-name="Upsilontonos" unicode="&#x38e;" horiz-adv-x="954" 
d="M203 0v27l168 24v357q0 153 -44.5 314.5t-114.5 275.5t-140 141q-49 0 -90 -6l-2 30q40 18 109 33.5t104 15.5q39 -20 69 -43.5t66 -70.5t62.5 -110.5t52 -166t42.5 -235.5h15q33 245 135 418t219 208q65 -8 123 -34l-6 -27q-88 -9 -162.5 -70t-124.5 -150.5t-85 -200
t-51 -218t-16 -205.5v-256l173 -22v-29h-502zM-207 1217l137 -27l-145 -369l-25 4z" />
    <glyph glyph-name="Omegatonos" unicode="&#x38f;" horiz-adv-x="1169" 
d="M-72 1217l138 -27l-146 -369l-24 4zM1047 156l22 131h35v-287h-381l-25 180q121 97 174.5 206.5t53.5 287.5q0 100 -19 184.5t-58 153.5t-106 108t-155 39q-92 0 -160.5 -40t-108 -111.5t-58.5 -161.5t-19 -199q0 -101 12.5 -173t42 -127t64.5 -92.5t94 -84.5l-23 -170
h-369v287h39l21 -131h280v4q-157 66 -248.5 189.5t-91.5 295.5q0 163 69.5 292t192 201t275.5 72q163 0 278.5 -70t170.5 -189t55 -275q0 -170 -104.5 -312t-254.5 -204v-4h302z" />
    <glyph glyph-name="iotadieresistonos" unicode="&#x390;" horiz-adv-x="462" 
d="M-84 1182q0 43 26.5 71.5t67.5 28.5q39 0 66.5 -29t27.5 -71q0 -41 -28 -70t-66 -29q-41 0 -67.5 28.5t-26.5 70.5zM326 1182q0 43 26.5 71.5t67.5 28.5q40 0 67 -28.5t27 -71.5q0 -41 -27 -70t-67 -29q-41 0 -67.5 28.5t-26.5 70.5zM205 1460l135 -26l-145 -369l-25 4z
M133 131v791h143v-813q0 -42 17.5 -58t52.5 -16q12 0 60 6l4 -27q-82 -28 -150 -28q-127 0 -127 145z" />
    <glyph glyph-name="Alpha" unicode="&#x391;" horiz-adv-x="995" 
d="M604 0v20l141 27l-114 424h-342l-127 -401l164 -47v-23h-332v20l100 48l369 1126h117l333 -1153l91 -18v-23h-400zM469 1036l-164 -510h311l-139 510h-8z" />
    <glyph glyph-name="Beta" unicode="&#x392;" horiz-adv-x="966" 
d="M35 0v27l168 24v1090l-168 24v29h442q182 0 281.5 -71t99.5 -214q0 -93 -71.5 -168.5t-161.5 -97.5v-4q36 -2 74.5 -12t81 -33t75.5 -55.5t54.5 -84t21.5 -114.5q0 -155 -104.5 -247.5t-305.5 -92.5h-487zM440 592h-78v-537h134q127 0 198.5 71.5t71.5 207.5
q0 79 -22.5 131t-68 79t-100.5 37.5t-135 10.5zM440 1147h-78v-500h97q122 0 175.5 61.5t53.5 180.5q0 258 -248 258z" />
    <glyph glyph-name="Gamma" unicode="&#x393;" horiz-adv-x="856" 
d="M57 0v27l168 24v1090l-168 24v29h799v-270h-59l-56 217h-356v-1090l172 -22v-29h-500z" />
    <glyph glyph-name="uni0394" unicode="&#x394;" horiz-adv-x="880" 
d="M33 0l-15 70l398 1124h135l311 -1122l-12 -72h-817zM434 1038h-10l-297 -882h549z" />
    <glyph glyph-name="Epsilon" unicode="&#x395;" horiz-adv-x="892" 
d="M754 573l-392 7v-525h371l84 236l47 -12l-28 -279h-801v27l168 24v1090l-168 24v29h796v-270h-59l-51 217h-359v-506l392 8v-70z" />
    <glyph glyph-name="Zeta" unicode="&#x396;" horiz-adv-x="827" 
d="M31 0l-11 39l578 1100h-442l-62 -285h-53v340h733l14 -25l-595 -1114h479l80 271l49 -9l-25 -317h-745z" />
    <glyph glyph-name="Eta" unicode="&#x397;" horiz-adv-x="1226" 
d="M694 0v27l168 24v531h-500v-531l173 -22v-29h-500v27l168 24v1090l-168 24v29h500v-27l-173 -26v-506h500v506l-168 24v29h502v-27l-172 -26v-1090l172 -22v-29h-502z" />
    <glyph glyph-name="Theta" unicode="&#x398;" horiz-adv-x="1150" 
d="M453 549l-17 -123h-43v377h43l17 -129h254l16 129h41v-377h-39l-18 123h-254zM1096 643q0 -132 -37 -251t-104.5 -210t-169 -144.5t-222.5 -53.5q-230 0 -369 160t-139 419q0 285 149.5 467t387.5 182q230 0 367 -158.5t137 -410.5zM918 604q0 118 -18.5 215.5t-57 176
t-105.5 122t-157 43.5q-92 0 -160.5 -42.5t-109 -119t-60 -175t-19.5 -218.5q0 -160 36.5 -286.5t114 -204.5t187.5 -78q78 0 139.5 32t100 85.5t64 128t35.5 153.5t10 168z" />
    <glyph glyph-name="Iota" unicode="&#x399;" horiz-adv-x="614" 
d="M57 0v27l168 24v1090l-168 24v29h500v-27l-172 -26v-1090l172 -22v-29h-500z" />
    <glyph glyph-name="Kappa" unicode="&#x39a;" horiz-adv-x="1044" 
d="M35 0v27l168 24v1090l-168 24v29h500v-27l-173 -26v-1090l173 -22v-29h-500zM768 0l-367 573v33l387 522l-133 41v25h359v-29l-158 -37l-336 -440l418 -639l121 -18v-31h-291z" />
    <glyph glyph-name="Lambda" unicode="&#x39b;" horiz-adv-x="995" 
d="M604 0v20l141 27l-268 989h-8l-307 -966l164 -47v-23h-332v20l100 48l369 1126h117l333 -1153l91 -18v-23h-400z" />
    <glyph glyph-name="Mu" unicode="&#x39c;" horiz-adv-x="1409" 
d="M934 0v27l158 24l-70 910h-8l-326 -979h-67l-340 1038h-7l-65 -942l168 -49v-29h-387v27l149 51l80 1040l-143 47v29h319l314 -987l313 987h295v-27l-166 -30l106 -1088l148 -20v-29h-471z" />
    <glyph glyph-name="Nu" unicode="&#x39d;" horiz-adv-x="1118" 
d="M37 0v27l131 45v1040l-133 53v29h254l604 -883v807l-156 47v29h363v-27l-131 -43v-1142h-49l-676 999v-909l155 -43v-29h-362z" />
    <glyph glyph-name="Xi" unicode="&#x39e;" horiz-adv-x="940" 
d="M801 156l47 127l22 -4l-28 -279h-742l-28 279l20 4l53 -127h656zM158 1036l-35 -112h-21v270h736v-270h-23l-39 112h-618zM334 549l-19 -123h-39v377h41l17 -129h291l16 129h41v-377h-39l-18 123h-291z" />
    <glyph glyph-name="Omicron" unicode="&#x39f;" horiz-adv-x="1150" 
d="M1096 643q0 -132 -37 -251t-104.5 -210t-169 -144.5t-222.5 -53.5q-230 0 -369 160t-139 419q0 285 149.5 467t387.5 182q230 0 367 -158.5t137 -410.5zM918 604q0 118 -18.5 215.5t-57 176t-105.5 122t-157 43.5q-92 0 -160.5 -42.5t-109 -119t-60 -175t-19.5 -218.5
q0 -160 36.5 -286.5t114 -204.5t187.5 -78q78 0 139.5 32t100 85.5t64 128t35.5 153.5t10 168z" />
    <glyph glyph-name="Pi" unicode="&#x3a0;" horiz-adv-x="1280" 
d="M698 0v27l181 24v1088h-484v-1086l185 -24v-29h-521v27l177 26v1088l-177 24v29h1162v-27l-181 -26v-1088l181 -24v-29h-523z" />
    <glyph glyph-name="Rho" unicode="&#x3a1;" horiz-adv-x="927" 
d="M35 0v27l160 22v1094l-160 22v29h500q164 0 257 -84.5t93 -265.5q0 -158 -117.5 -254t-308.5 -96h-105v-441l181 -24v-29h-500zM481 1137h-127v-590h99q137 0 203.5 72t66.5 217q0 140 -61 220.5t-181 80.5z" />
    <glyph glyph-name="Sigma" unicode="&#x3a3;" horiz-adv-x="868" 
d="M244 1139l284 -492l-342 -493h529l69 172l31 -9l-24 -317h-748l-10 43l370 520l-350 596l8 35h727v-340h-34l-92 285h-418z" />
    <glyph glyph-name="Tau" unicode="&#x3a4;" horiz-adv-x="909" 
d="M203 0v27l168 24v1088h-244l-68 -285h-51v340h891v-340h-49l-80 285h-235v-1088l172 -22v-29h-504z" />
    <glyph glyph-name="Upsilon" unicode="&#x3a5;" horiz-adv-x="954" 
d="M203 0v27l168 24v357q0 153 -44.5 314.5t-114.5 275.5t-140 141q-49 0 -90 -6l-2 30q40 18 109 33.5t104 15.5q39 -20 69 -43.5t66 -70.5t62.5 -110.5t52 -166t42.5 -235.5h15q33 245 135 418t219 208q65 -8 123 -34l-6 -27q-88 -9 -162.5 -70t-124.5 -150.5t-85 -200
t-51 -218t-16 -205.5v-256l173 -22v-29h-502z" />
    <glyph glyph-name="Phi" unicode="&#x3a6;" horiz-adv-x="1218" 
d="M360 0v27l168 24v139q-221 2 -345 103.5t-124 292.5q0 199 128 326t341 137v135l-168 24v29h500v-27l-172 -26v-133q223 -1 347 -109t124 -293q0 -193 -124 -321t-347 -138v-139l172 -22v-29h-500zM991 627q0 168 -80 272.5t-223 110.5v-779q150 9 226.5 119t76.5 277z
M225 614q0 -167 78.5 -273.5t224.5 -109.5v779q-96 -5 -166 -60.5t-103.5 -142t-33.5 -193.5z" />
    <glyph glyph-name="Chi" unicode="&#x3a7;" 
d="M582 0v29l139 28l-248 461l-252 -446l139 -41v-31h-354v29l119 41l324 497l-306 572l-123 24v31h424v-29l-133 -32l228 -418l229 401l-117 47v31h310v-29l-107 -47l-289 -452l332 -613l113 -22v-31h-428z" />
    <glyph glyph-name="Psi" unicode="&#x3a8;" horiz-adv-x="1071" 
d="M281 0v27l174 26v344q-154 19 -257.5 106.5t-103.5 231.5v381h-110v29l174 49h86v-473q0 -114 59.5 -186.5t151.5 -94.5v697l-105 28v29h371v-27l-109 -30v-691q97 30 160.5 116.5t63.5 219.5v412h90l170 -49v-29h-111v-364q0 -76 -30.5 -140t-83 -107t-118.5 -70.5
t-141 -37.5v-344l176 -24v-29h-507z" />
    <glyph glyph-name="uni03A9" unicode="&#x3a9;" horiz-adv-x="1169" 
d="M1047 156l22 131h35v-287h-381l-25 180q121 97 174.5 206.5t53.5 287.5q0 100 -19 184.5t-58 153.5t-106 108t-155 39q-92 0 -160.5 -40t-108 -111.5t-58.5 -161.5t-19 -199q0 -101 12.5 -173t42 -127t64.5 -92.5t94 -84.5l-23 -170h-369v287h39l21 -131h280v4
q-157 66 -248.5 189.5t-91.5 295.5q0 163 69.5 292t192 201t275.5 72q163 0 278.5 -70t170.5 -189t55 -275q0 -170 -104.5 -312t-254.5 -204v-4h302z" />
    <glyph glyph-name="Iotadieresis" unicode="&#x3aa;" horiz-adv-x="614" 
d="M57 0v27l168 24v1090l-168 24v29h500v-27l-172 -26v-1090l172 -22v-29h-500zM49 1389q0 38 24 63t62 25q36 0 60 -25t24 -63q0 -37 -24.5 -64t-59.5 -27q-37 0 -61.5 26.5t-24.5 64.5zM395 1389q0 38 24.5 63t61.5 25q36 0 60 -25t24 -63q0 -37 -24.5 -64t-59.5 -27
q-36 0 -61 27t-25 64z" />
    <glyph glyph-name="Upsilondieresis" unicode="&#x3ab;" horiz-adv-x="954" 
d="M203 0v27l168 24v357q0 153 -44.5 314.5t-114.5 275.5t-140 141q-49 0 -90 -6l-2 30q40 18 109 33.5t104 15.5q39 -20 69 -43.5t66 -70.5t62.5 -110.5t52 -166t42.5 -235.5h15q33 245 135 418t219 208q65 -8 123 -34l-6 -27q-88 -9 -162.5 -70t-124.5 -150.5t-85 -200
t-51 -218t-16 -205.5v-256l173 -22v-29h-502zM252 1389q0 38 24 63t62 25q36 0 60 -25t24 -63q0 -37 -24.5 -64t-59.5 -27q-37 0 -61.5 26.5t-24.5 64.5zM598 1389q0 38 24.5 63t61.5 25q36 0 60 -25t24 -63q0 -37 -24.5 -64t-59.5 -27q-36 0 -61 27t-25 64z" />
    <glyph glyph-name="alphatonos" unicode="&#x3ac;" horiz-adv-x="917" 
d="M750 408l4 -242q0 -76 14.5 -103.5t60.5 -27.5q9 0 41 4l2 -23q-65 -32 -139 -32q-125 0 -125 143v51q-111 -194 -262 -194q-60 0 -109 23t-89 72t-62.5 137t-22.5 208q0 112 33 211t85.5 164.5t118.5 103t132 37.5q61 0 113.5 -36.5t87.5 -102.5q9 71 24 114l140 25
l8 -16q-25 -68 -40 -214t-15 -302zM414 63q101 0 194 183v170q0 97 6 196q-26 125 -90.5 196t-130.5 71q-92 0 -139 -97t-47 -284q0 -195 54 -315t153 -120zM485 1473l138 -27l-146 -369l-24 4z" />
    <glyph glyph-name="epsilontonos" unicode="&#x3ad;" horiz-adv-x="747" 
d="M393 940q65 0 117.5 -13t78.5 -27t58 -38v-174h-63q-44 205 -199 205q-66 0 -106.5 -62.5t-40.5 -142.5q0 -63 27.5 -114.5t72.5 -57.5q73 12 203 21q2 -45 -13 -97q-17 0 -101 11t-101 16q-51 -13 -77 -62t-26 -122q0 -103 47.5 -175.5t132.5 -72.5q91 0 143 53.5
t68 144.5h60v-141q-115 -108 -301 -108q-133 0 -221.5 73t-88.5 201q0 88 64.5 145.5t144.5 75.5v10q-81 23 -134.5 76t-53.5 125t49.5 131t119.5 89t140 30zM432 1470l137 -26l-145 -369l-25 4z" />
    <glyph glyph-name="etatonos" unicode="&#x3ae;" horiz-adv-x="960" 
d="M836 -424h-146v1026q0 114 -36.5 174t-123.5 60q-112 0 -211 -76v-760h-143v821q0 58 -67 58q-27 0 -80 -11l-9 23q96 49 193 49q57 0 81.5 -44t24.5 -110v-2q1 1 23 22t26.5 25t25.5 22t30 23.5t28.5 19.5t33.5 19t33.5 12.5t39 10t39.5 2.5q118 0 178 -88.5t60 -243.5
v-1032zM543 1470l137 -26l-145 -369l-25 4z" />
    <glyph glyph-name="iotatonos" unicode="&#x3af;" horiz-adv-x="462" 
d="M205 1470l137 -26l-145 -369l-25 4zM133 131v791h143v-813q0 -42 17.5 -58t52.5 -16q12 0 60 6l4 -27q-82 -28 -150 -28q-127 0 -127 145z" />
    <glyph glyph-name="upsilondieresistonos" unicode="&#x3b0;" horiz-adv-x="882" 
d="M133 1182q0 43 26.5 71.5t67.5 28.5q39 0 67 -29t28 -71q0 -41 -28 -70t-67 -29q-41 0 -67.5 28.5t-26.5 70.5zM543 1182q0 43 26.5 71.5t67.5 28.5q40 0 67 -28.5t27 -71.5q0 -41 -27 -70t-67 -29q-41 0 -67.5 28.5t-26.5 70.5zM422 1460l135 -26l-145 -369l-25 4z
M297 807v-467q0 -60 8 -110.5t27 -97t56 -73t89 -26.5q58 0 103.5 45.5t71 117.5t38 150t12.5 154q0 141 -34 256l-142 104v45q111 35 166 35q49 -43 82 -142.5t33 -224.5q0 -105 -19 -203t-59 -187.5t-113.5 -144t-171.5 -54.5q-133 0 -210.5 83.5t-77.5 256.5v491
q0 32 -17.5 44.5t-50.5 12.5q-7 0 -41 -4.5t-41 -5.5l-6 29q92 49 184 49q51 0 82 -38t31 -95z" />
    <glyph glyph-name="alpha" unicode="&#x3b1;" horiz-adv-x="917" 
d="M750 408l4 -242q0 -76 14.5 -103.5t60.5 -27.5q9 0 41 4l2 -23q-65 -32 -139 -32q-125 0 -125 143v51q-111 -194 -262 -194q-60 0 -109 23t-89 72t-62.5 137t-22.5 208q0 112 33 211t85.5 164.5t118.5 103t132 37.5q61 0 113.5 -36.5t87.5 -102.5q10 72 24 114l140 25
l8 -16q-25 -68 -40 -214t-15 -302zM414 63q101 0 194 183v170q0 97 6 196q-26 125 -90.5 196t-130.5 71q-92 0 -139 -97t-47 -284q0 -195 54 -315t153 -120z" />
    <glyph glyph-name="beta" unicode="&#x3b2;" horiz-adv-x="872" 
d="M432 -14q-91 0 -164 39v-449h-143v1450q0 189 88 308.5t217 119.5q144 0 227.5 -82.5t83.5 -222.5q0 -130 -82 -225t-184 -127v-11q142 -13 240 -113.5t98 -258.5q0 -84 -25 -156t-65.5 -121t-91 -84t-101.5 -51t-98 -16zM268 1081v-987q2 -2 12.5 -9.5t13 -9t12 -8
t13.5 -8.5t13.5 -7t15 -6.5t15.5 -5t18.5 -4.5t19 -2t21.5 -1q102 0 165.5 98t63.5 281q0 136 -85 234.5t-224 98.5v43q66 0 123 58t86 134t29 140q0 125 -39.5 203t-122.5 78q-150 0 -150 -320z" />
    <glyph glyph-name="gamma" unicode="&#x3b3;" horiz-adv-x="815" 
d="M444 -418q-34 -18 -82 -18q-56 0 -83 8q39 335 45 387q-36 217 -54 317.5t-47.5 229t-58.5 199.5q-44 108 -68 137q-24 30 -51 30q-8 0 -28.5 -3.5t-26.5 -6.5l-8 21q15 17 70 37t98 20q53 0 80 -20.5t49 -85.5q33 -93 78 -313t75 -443h12l228 846q100 3 151 -37
q-12 -30 -175 -412.5t-210 -503.5q6 -167 6 -389z" />
    <glyph glyph-name="delta" unicode="&#x3b4;" horiz-adv-x="847" 
d="M61 369q0 71 23 136.5t67 124t89 103.5t108 98q-96 112 -145 189t-49 147q0 101 84 177.5t180 76.5q200 0 350 -104l-53 -131l-37 -6q-69 77 -150.5 133.5t-142.5 56.5q-94 0 -94 -137q0 -54 52 -134t126 -164.5t148 -172t126 -180t52 -164.5q0 -180 -118 -307t-271 -127
q-165 0 -255 105.5t-90 279.5zM637 344q0 56 -21.5 114.5t-62.5 118.5t-80 108t-95 112q-12 13 -18 20q-135 -182 -135 -446q0 -60 10 -115t31.5 -107.5t64.5 -84t101 -31.5q88 0 146.5 91.5t58.5 219.5z" />
    <glyph glyph-name="epsilon" unicode="&#x3b5;" horiz-adv-x="747" 
d="M393 940q65 0 117.5 -13t78.5 -27t58 -38v-174h-63q-44 205 -199 205q-66 0 -106.5 -62.5t-40.5 -142.5q0 -63 27.5 -114.5t72.5 -57.5q73 12 203 21q2 -45 -13 -97q-17 0 -101 11t-101 16q-51 -13 -77 -62t-26 -122q0 -103 47.5 -175.5t132.5 -72.5q91 0 143 53.5
t68 144.5h60v-141q-115 -108 -301 -108q-133 0 -221.5 73t-88.5 201q0 88 64.5 145.5t144.5 75.5v10q-81 23 -134.5 76t-53.5 125t49.5 131t119.5 89t140 30z" />
    <glyph glyph-name="zeta" unicode="&#x3b6;" horiz-adv-x="657" 
d="M84 1440h47q109 -41 236 -56q95 -10 172 -10q52 0 79 2q1 -6 7.5 -36.5t7.5 -51.5q-147 -211 -279.5 -528.5t-132.5 -480.5q0 -46 32 -76.5t124 -59.5q118 -36 189.5 -76.5t80.5 -64.5q0 -99 -46.5 -210.5t-84.5 -149.5l-35 10q4 10 17 40.5t17.5 41.5t14.5 36.5t14 39
t9.5 32.5t7.5 34.5t2 29.5q-18 16 -91 45t-155 51q-34 9 -53 15.5t-46 16.5t-42 20.5t-33.5 26.5t-28 35.5t-19 46t-13.5 60t-4 74.5q0 83 51.5 216t130.5 273t152 255.5t137 203.5l-4 10q-196 -7 -234 -6q-163 7 -248 41z" />
    <glyph glyph-name="eta" unicode="&#x3b7;" horiz-adv-x="960" 
d="M836 -424h-146v1026q0 114 -36.5 174t-123.5 60q-112 0 -211 -76v-760h-143v821q0 58 -67 58q-27 0 -80 -11l-9 23q96 49 193 49q57 0 81.5 -44t24.5 -110v-2q1 1 23 22t26.5 25t25.5 22t30 23.5t28.5 19.5t33.5 19t33.5 12.5t39 10t39.5 2.5q118 0 178 -88.5t60 -243.5
v-1032z" />
    <glyph glyph-name="theta" unicode="&#x3b8;" horiz-adv-x="868" 
d="M803 739q0 -210 -43.5 -379.5t-131.5 -272.5t-206 -103q-94 0 -164.5 56t-112 156.5t-62 227t-20.5 278.5q0 207 42.5 374t131 270.5t209.5 103.5q81 0 144 -41t102.5 -108t65 -161t35.5 -192t10 -209zM444 35q48 0 83.5 39t55.5 98t32 151t16.5 174.5t5.5 192.5h-416
q2 -120 15 -228.5t37.5 -208t68.5 -159t102 -59.5zM422 1401q-58 0 -98.5 -53t-61.5 -152t-30 -207t-11 -250h416q-1 134 -11.5 245t-34 209t-66.5 153t-103 55z" />
    <glyph glyph-name="iota" unicode="&#x3b9;" horiz-adv-x="462" 
d="M133 131v791h143v-813q0 -42 17.5 -58t52.5 -16q12 0 60 6l4 -27q-82 -28 -150 -28q-127 0 -127 145z" />
    <glyph glyph-name="kappa" unicode="&#x3ba;" horiz-adv-x="890" 
d="M315 801v-361l281 361q7 9 22.5 28t21 25.5t17.5 20.5t17 18.5t15 14t16 12.5t15.5 8.5t17.5 7t18.5 3t21.5 1.5q51 0 86 -12l-24 -131h-39l-103 49l-233 -289l248 -448q38 -60 98 -60q30 0 59 10l2 -24q-87 -51 -153 -51q-62 0 -97 18t-53 55l-207 383l-47 -67v-373
h-143v827q0 39 -21 51.5t-59 12.5q-12 0 -36 -3.5t-29 -4.5l-7 28q89 29 179 29q61 0 88.5 -34t27.5 -105z" />
    <glyph glyph-name="lambda" unicode="&#x3bb;" horiz-adv-x="864" 
d="M63 1241h-16q-36 74 -39 148q46 22 104 39.5t99 17.5q81 0 147.5 -65t90.5 -160l274 -1088q10 -39 17.5 -52t23.5 -13q40 0 78 14l4 -35q-32 -23 -82 -43t-86 -20q-68 0 -86 55l-195 786l-194 -825h-154v35l334 839l-80 326q-13 54 -35 101.5t-39 69.5t-24 22
q-5 0 -29.5 -26t-64.5 -71.5t-48 -54.5z" />
    <glyph glyph-name="uni03BC" unicode="&#x3bc;" horiz-adv-x="942" 
d="M760 -10q-54 0 -92.5 35t-49.5 90q-76 -73 -131.5 -102t-107.5 -29q-67 0 -111 30l11 -166v-272h-146v1346h146v-613q1 -71 12 -116t33.5 -67t48 -29.5t65.5 -8.5q48 0 81.5 12.5t94.5 46.5v775h144v-697q0 -92 16.5 -125.5t50.5 -33.5q60 0 99 4l4 -25q-79 -55 -168 -55
z" />
    <glyph glyph-name="nu" unicode="&#x3bd;" horiz-adv-x="804" 
d="M350 -25l-213 789q-32 94 -84 94q-31 0 -63 -16l-10 28q24 24 72.5 48t90.5 24q43 0 82 -36.5t56 -94.5l174 -700h10q77 162 116.5 325.5t39.5 274.5q-49 94 -84 135v49q86 43 133 43q37 -23 59.5 -75t22.5 -109q0 -110 -79 -291.5t-229 -462.5z" />
    <glyph glyph-name="xi" unicode="&#x3be;" horiz-adv-x="716" 
d="M451 1452q159 0 280 -86l-41 -123l-43 -8q-34 78 -88 122t-119 44q-86 0 -128 -80.5t-42 -212.5q0 -122 44.5 -199.5t123.5 -89.5q43 2 107.5 10t72.5 9q7 -54 -12 -103q-26 1 -94 11t-86 10q-81 -14 -138 -102t-57 -214q0 -64 8 -110t30 -88t63.5 -70t105.5 -43
q181 -44 269 -111q-1 -62 -17.5 -125t-40 -108.5t-45 -76t-35.5 -42.5l-28 12q28 62 40.5 93t23.5 73.5t9 75.5q-37 29 -292 92q-128 33 -193.5 134t-65.5 249q0 125 80.5 230.5t206.5 148.5v8q-71 15 -126.5 63t-84 111.5t-28.5 130.5q0 144 97.5 254.5t242.5 110.5z" />
    <glyph glyph-name="omicron" unicode="&#x3bf;" horiz-adv-x="802" 
d="M762 461q0 -109 -48 -218.5t-135.5 -184t-187.5 -74.5q-352 0 -352 467q0 114 49 226.5t135 187.5t183 75q179 0 267.5 -118t88.5 -361zM606 436q0 51 -2.5 92.5t-9.5 94.5t-22 93t-37.5 76t-59.5 55t-84 19q-44 0 -77 -14.5t-53.5 -43.5t-34 -61.5t-19.5 -80.5t-8 -88
t-2 -95q0 -65 4.5 -119t18.5 -113.5t37 -100t63.5 -67t95.5 -26.5q43 0 75.5 13.5t53 41.5t33.5 59t18.5 79t7.5 88t2 98z" />
    <glyph glyph-name="pi" unicode="&#x3c0;" horiz-adv-x="974" 
d="M901 922v-129h-160v-306q0 -65 0.5 -101t2 -85t5.5 -75t10.5 -58t16 -48t24 -31.5t33.5 -21.5t44 -6q31 0 71 7l6 -21q-71 -65 -155 -65q-99 0 -143 58.5t-44 195.5v557h-307v-580q0 -104 -41.5 -167.5t-113.5 -63.5t-121 71l2 23q78 -9 120 19.5t61 109.5t19 237v351
h-206v28l61 101h815z" />
    <glyph glyph-name="rho" unicode="&#x3c1;" horiz-adv-x="860" 
d="M268 -424h-143v889q0 224 96 349.5t256 125.5q148 0 233 -123.5t85 -335.5q0 -215 -119.5 -356t-292.5 -141q-61 0 -115 28v-436zM268 506v-408q42 -38 76 -51.5t82 -13.5q62 0 106 40.5t65 108t29.5 131t8.5 131.5q0 126 -21.5 225.5t-68.5 162.5t-113 63
q-80 0 -122 -107t-42 -282z" />
    <glyph glyph-name="sigma1" unicode="&#x3c2;" horiz-adv-x="757" 
d="M389 8q-76 14 -133 45t-93.5 72t-59 97t-31.5 115.5t-9 131.5q0 99 33 187.5t87.5 150t126.5 97.5t147 36q167 0 260 -53l-27 -164h-43q-51 88 -102.5 129t-112.5 41q-59 0 -104 -43t-69 -110.5t-36 -137.5t-12 -137t11 -116.5t39.5 -94.5t83.5 -76t138 -49
q218 -47 236 -109q0 -98 -47 -213t-84 -153l-33 8q5 12 16.5 40.5t16 40.5t13.5 35.5t13 37t8.5 32t6.5 33.5t2 29q-16 16 -88.5 45.5t-153.5 52.5z" />
    <glyph glyph-name="sigma" unicode="&#x3c3;" horiz-adv-x="884" 
d="M860 915l8 -143l-39 -24l-190 55q137 -204 137 -352q0 -122 -49 -230t-131.5 -172.5t-177.5 -64.5q-170 0 -262.5 114t-92.5 353q0 107 36 199.5t96.5 155.5t139.5 98.5t165 35.5q206 0 360 -25zM639 446q0 203 -45 361q-98 20 -170 20q-53 0 -90.5 -17.5t-59 -45
t-34 -74.5t-16 -93.5t-3.5 -113.5q0 -450 219 -450q56 0 96.5 38t62 101.5t31 131.5t9.5 142z" />
    <glyph glyph-name="tau" unicode="&#x3c4;" horiz-adv-x="677" 
d="M651 922v-129h-295q-6 -166 -6 -482q0 -123 36.5 -183t113.5 -60q44 0 102 18l8 -31q-118 -71 -213 -71q-90 0 -140 64.5t-50 197.5q0 173 108 547h-307v34l37 95h606z" />
    <glyph glyph-name="upsilon" unicode="&#x3c5;" horiz-adv-x="882" 
d="M297 807v-467q0 -60 8 -110.5t27 -97t56 -73t89 -26.5q58 0 103.5 45.5t71 117.5t38 150t12.5 154q0 141 -34 256l-142 104v45q111 35 166 35q49 -43 82 -142.5t33 -224.5q0 -105 -19 -203t-59 -187.5t-113.5 -144t-171.5 -54.5q-133 0 -210.5 83.5t-77.5 256.5v491
q0 32 -17.5 44.5t-50.5 12.5q-7 0 -41 -4.5t-41 -5.5l-6 29q92 49 184 49q51 0 82 -38t31 -95z" />
    <glyph glyph-name="phi" unicode="&#x3c6;" horiz-adv-x="1112" 
d="M471 1194h152l-2 -258q202 -9 315 -124.5t113 -338.5q0 -108 -36.5 -197t-98.5 -147t-137.5 -93.5t-158.5 -45.5l-2 -412h-129l-6 408q-189 13 -303.5 129.5t-114.5 339.5q0 91 23 166.5t61.5 128t92 91t111 60t122.5 31.5zM891 475q0 178 -66 286.5t-204 129.5l-3 -854
q128 25 200.5 148t72.5 290zM221 453q0 -168 68 -284.5t192 -133.5l-6 854q-127 -24 -190.5 -129t-63.5 -307z" />
    <glyph glyph-name="chi" unicode="&#x3c7;" horiz-adv-x="808" 
d="M20 -424v35l330 610l-186 494q-28 74 -52 103.5t-65 29.5q-16 0 -39 -10l-8 24q28 28 70 53t84 25q80 0 127 -119l172 -442l182 543h145v-35l-309 -549l234 -598q4 -9 10.5 -25t9.5 -22.5t8 -17t8.5 -15t9 -10t11 -7t12.5 -1.5q21 0 31 2l4 -31q-69 -51 -137 -51t-88 55
l-213 561l-201 -602h-150z" />
    <glyph glyph-name="psi" unicode="&#x3c8;" horiz-adv-x="1062" 
d="M481 1194h152l-4 -1159q252 50 252 547q0 116 -11 170l-127 108v37q142 43 195 43q45 -127 45 -297q0 -91 -11 -175.5t-37.5 -167t-66 -146t-101 -108t-138.5 -56.5l-2 -412h-129l-6 410q-150 16 -242 126.5t-92 311.5l-2 387q0 32 -17.5 44.5t-50.5 12.5q-7 0 -41 -4.5
t-41 -5.5l-2 31q92 49 184 49q51 0 82 -38t31 -95v-365q0 -203 45 -294.5t146 -110.5z" />
    <glyph glyph-name="omega" unicode="&#x3c9;" horiz-adv-x="1130" 
d="M1065 418q0 -187 -93.5 -310.5t-211.5 -123.5q-39 0 -73.5 20.5t-58.5 53t-40.5 65t-24.5 63.5q-65 -202 -215 -202q-132 0 -207 115t-75 319q0 164 66 299.5t177 222.5l49 -45q-49 -71 -77.5 -128t-40.5 -119t-14.5 -103t-2.5 -125q0 -53 10 -117.5t28.5 -125.5
t49 -101.5t66.5 -40.5q35 0 64 28t47 71.5t26 67.5t12 42q-21 58 -30 161t-9 185q27 18 76 18q56 0 80 -18q0 -77 -11 -185.5t-28 -160.5q4 -16 12.5 -41.5t26.5 -68t47.5 -71t63.5 -28.5q48 0 85 65.5t53.5 147.5t16.5 155q0 82 -4 142t-17 130.5t-41.5 125.5t-72.5 92
l45 47q103 -55 174.5 -204.5t71.5 -317.5z" />
    <glyph glyph-name="iotadieresis" unicode="&#x3ca;" horiz-adv-x="462" 
d="M-31 1249q0 38 24 63t62 25q36 0 60 -25t24 -63q0 -37 -24.5 -63.5t-59.5 -26.5q-38 0 -62 26t-24 64zM274 1249q0 38 24.5 63t61.5 25q36 0 60 -25t24 -63q0 -37 -24.5 -63.5t-59.5 -26.5q-36 0 -61 26.5t-25 63.5zM133 131v791h143v-813q0 -42 17.5 -58t52.5 -16
q12 0 60 6l4 -27q-82 -28 -150 -28q-127 0 -127 145z" />
    <glyph glyph-name="upsilondieresis" unicode="&#x3cb;" horiz-adv-x="882" 
d="M211 1249q0 38 24 63t62 25q36 0 60 -25t24 -63q0 -37 -24.5 -63.5t-59.5 -26.5q-38 0 -62 26t-24 64zM516 1249q0 38 24.5 63t61.5 25q36 0 60 -25t24 -63q0 -37 -24.5 -63.5t-59.5 -26.5q-36 0 -61 26.5t-25 63.5zM297 807v-467q0 -60 8 -110.5t27 -97t56 -73t89 -26.5
q58 0 103.5 45.5t71 117.5t38 150t12.5 154q0 141 -34 256l-142 104v45q111 35 166 35q49 -43 82 -142.5t33 -224.5q0 -105 -19 -203t-59 -187.5t-113.5 -144t-171.5 -54.5q-133 0 -210.5 83.5t-77.5 256.5v491q0 32 -17.5 44.5t-50.5 12.5q-7 0 -41 -4.5t-41 -5.5l-6 29
q92 49 184 49q51 0 82 -38t31 -95z" />
    <glyph glyph-name="omicrontonos" unicode="&#x3cc;" horiz-adv-x="802" 
d="M762 461q0 -109 -48 -218.5t-135.5 -184t-187.5 -74.5q-352 0 -352 467q0 114 49 226.5t135 187.5t183 75q179 0 267.5 -118t88.5 -361zM606 436q0 51 -2.5 92.5t-9.5 94.5t-22 93t-37.5 76t-59.5 55t-84 19q-44 0 -77 -14.5t-53.5 -43.5t-34 -61.5t-19.5 -80.5t-8 -88
t-2 -95q0 -65 4.5 -119t18.5 -113.5t37 -100t63.5 -67t95.5 -26.5q43 0 75.5 13.5t53 41.5t33.5 59t18.5 79t7.5 88t2 98zM412 1470l137 -26l-146 -369l-24 4z" />
    <glyph glyph-name="upsilontonos" unicode="&#x3cd;" horiz-adv-x="882" 
d="M440 1470l138 -26l-146 -369l-24 4zM297 807v-467q0 -60 8 -110.5t27 -97t56 -73t89 -26.5q58 0 103.5 45.5t71 117.5t38 150t12.5 154q0 141 -34 256l-142 104v45q111 35 166 35q49 -43 82 -142.5t33 -224.5q0 -105 -19 -203t-59 -187.5t-113.5 -144t-171.5 -54.5
q-133 0 -210.5 83.5t-77.5 256.5v491q0 32 -17.5 44.5t-50.5 12.5q-7 0 -41 -4.5t-41 -5.5l-6 29q92 49 184 49q51 0 82 -38t31 -95z" />
    <glyph glyph-name="omegatonos" unicode="&#x3ce;" horiz-adv-x="1130" 
d="M1065 418q0 -187 -93.5 -310.5t-211.5 -123.5q-39 0 -73.5 20.5t-58.5 53t-40.5 65t-24.5 63.5q-65 -202 -215 -202q-132 0 -207 115t-75 319q0 164 66 299.5t177 222.5l49 -45q-49 -71 -77.5 -128t-40.5 -119t-14.5 -103t-2.5 -125q0 -53 10 -117.5t28.5 -125.5
t49 -101.5t66.5 -40.5q35 0 64 28t47 71.5t26 67.5t12 42q-21 58 -30 161t-9 185q27 18 76 18q56 0 80 -18q0 -77 -11 -185.5t-28 -160.5q4 -16 12.5 -41.5t26.5 -68t47.5 -71t63.5 -28.5q48 0 85 65.5t53.5 147.5t16.5 155q0 82 -4 142t-17 130.5t-41.5 125.5t-72.5 92
l45 47q103 -55 174.5 -204.5t71.5 -317.5zM598 1470l137 -26l-145 -369l-25 4z" />
    <glyph glyph-name="uni03D8" unicode="&#x3d8;" horiz-adv-x="1157" 
d="M1096 643q0 -162 -53.5 -302t-158 -235t-243.5 -116v-412h-143v410q-204 23 -323.5 179t-119.5 396q0 285 149.5 467t387.5 182q230 0 367 -158.5t137 -410.5zM918 604q0 118 -18.5 215.5t-57 176t-105.5 122t-157 43.5q-92 0 -160.5 -42.5t-109 -119t-60 -175
t-19.5 -218.5q0 -160 36.5 -286.5t114 -204.5t187.5 -78q78 0 139.5 32t100 85.5t64 128t35.5 153.5t10 168z" />
    <glyph glyph-name="uni03D9" unicode="&#x3d9;" horiz-adv-x="802" 
d="M762 461q0 -161 -80.5 -293t-202.5 -170v-420h-131v408q-309 25 -309 465q0 125 49 237.5t134.5 182t183.5 69.5q179 0 267.5 -118t88.5 -361zM604 436q0 43 -1.5 80t-6.5 85.5t-13.5 87t-25 78.5t-38 66t-54.5 43t-74 17q-44 0 -77 -16.5t-53.5 -48.5t-34 -68t-19.5 -87
t-8 -92.5t-2 -97.5q0 -450 219 -450q43 0 75.5 15t52.5 46t32.5 64.5t18.5 85.5t7.5 92.5t1.5 99.5z" />
    <glyph glyph-name="uni03DA" unicode="&#x3da;" horiz-adv-x="757" 
d="M690 795h-241q-74 0 -129 -28t-86 -76t-45.5 -104.5t-14.5 -121.5q0 -322 246 -322h272q19 -8 24 -42t-1 -52q-14 -104 -80.5 -280t-93.5 -205l-45 10q41 103 87 242t46 184h-142q-205 0 -314.5 111.5t-109.5 357.5q0 98 35.5 184t93.5 144t131.5 91.5t149.5 33.5l170 51
h47v-178z" />
    <glyph glyph-name="uni03DB" unicode="&#x3db;" horiz-adv-x="757" 
d="M690 795h-241q-74 0 -129 -28t-86 -76t-45.5 -104.5t-14.5 -121.5q0 -322 246 -322h272q19 -8 24 -42t-1 -52q-14 -104 -80.5 -280t-93.5 -205l-45 10q41 103 87 242t46 184h-142q-205 0 -314.5 111.5t-109.5 357.5q0 98 35.5 184t93.5 144t131.5 91.5t149.5 33.5l170 51
h47v-178z" />
    <glyph glyph-name="uni03DC" unicode="&#x3dc;" horiz-adv-x="831" 
d="M143 0v1194h623v-53h-461v-504l383 10v-72l-383 11v-586h-162z" />
    <glyph glyph-name="uni03DD" unicode="&#x3dd;" horiz-adv-x="677" 
d="M143 -422v1344h496v-54h-352v-503l274 10v-72l-274 10v-735h-144z" />
    <glyph glyph-name="uni03DE" unicode="&#x3de;" horiz-adv-x="759" 
d="M444 -121h-63l211 643h-531l232 672h63l-180 -530h537z" />
    <glyph glyph-name="uni03DF" unicode="&#x3df;" horiz-adv-x="759" 
d="M479 0h-67l190 569h-526l217 625h67l-165 -483h532z" />
    <glyph glyph-name="uni03E0" unicode="&#x3e0;" horiz-adv-x="1204" 
d="M1114 -197v-225h-164v160q0 202 -20.5 343t-71.5 281l-450 -378l-35 43l463 391q-45 100 -125 200l-471 -391l-29 45l457 394q-120 117 -266.5 186t-299.5 70h-82v57h125q186 -1 342 -58.5t269.5 -161.5t193 -250.5t120 -324t44.5 -381.5z" />
    <glyph glyph-name="uni03E1" unicode="&#x3e1;" horiz-adv-x="940" 
d="M774 -516l-127 45q38 130 58 228t23.5 140.5t4.5 108.5q0 108 -14 223l-492 -229l-14 43l494 238q-17 106 -72 231l-504 -236l-18 48l499 233q-189 340 -575 459l12 45q180 -45 323 -121t238 -171t157.5 -213t90 -243t27.5 -264q0 -93 -23.5 -218.5t-87.5 -346.5z" />
    <glyph glyph-name="uni0400" unicode="&#x400;" horiz-adv-x="892" 
d="M754 573l-392 7v-525h371l84 236l47 -12l-28 -279h-801v27l168 24v1090l-168 24v29h796v-270h-59l-51 217h-359v-506l392 8v-70zM260 1417l66 127l325 -239l-10 -27z" />
    <glyph glyph-name="afii10023" unicode="&#x401;" horiz-adv-x="892" 
d="M754 573l-392 7v-525h371l84 236l47 -12l-28 -279h-801v27l168 24v1090l-168 24v29h796v-270h-59l-51 217h-359v-506l392 8v-70zM244 1389q0 38 24 63t62 25q36 0 60 -25t24 -63q0 -37 -24.5 -64t-59.5 -27q-37 0 -61.5 26.5t-24.5 64.5zM590 1389q0 38 24.5 63t61.5 25
q36 0 60 -25t24 -63q0 -37 -24.5 -64t-59.5 -27q-36 0 -61 27t-25 64z" />
    <glyph glyph-name="afii10051" unicode="&#x402;" horiz-adv-x="1144" 
d="M522 1139v-508q162 51 258 51q165 0 246.5 -91t81.5 -255q0 -90 -24 -160t-65.5 -111.5t-91.5 -62t-106 -20.5q-81 0 -168 41v237h39l49 -211q17 -14 56 -14q76 0 112.5 68.5t36.5 222.5q0 64 -8.5 113t-29 94t-62.5 69.5t-103 24.5q-97 0 -221 -47v-580h-329v27l169 26
v1086h-217l-67 -285h-43v340h891v-309h-41l-76 254h-287z" />
    <glyph glyph-name="afii10052" unicode="&#x403;" horiz-adv-x="847" 
d="M365 1139v-1086l170 -24v-29h-500v27l170 26v1088l-170 24v29h778v-340h-53l-80 285h-315zM684 1548l55 -131l-379 -139l-12 27z" />
    <glyph glyph-name="afii10053" unicode="&#x404;" horiz-adv-x="1001" 
d="M938 829h-53l-68 261q-96 71 -194 71q-167 0 -276 -138.5t-116 -391.5l523 10v-74l-523 11q4 -135 37.5 -240t90.5 -170.5t131 -99t163 -33.5q90 0 146 49.5t104 138.5h35v-162l-32 -16t-60 -27t-87.5 -23t-121.5 -11q-130 0 -235.5 37t-183.5 110t-120.5 190.5
t-42.5 270.5q0 175 73.5 316.5t206 222.5t298.5 81q163 0 305 -67v-316z" />
    <glyph glyph-name="afii10054" unicode="&#x405;" horiz-adv-x="778" 
d="M639 860l-59 252q-71 51 -164 51q-103 0 -159 -61t-56 -152q0 -89 54 -149t155 -105q132 -59 184 -96q138 -101 139 -276q0 -70 -22.5 -128t-60.5 -97t-89.5 -66t-107 -39t-115.5 -12q-152 0 -293 69v293h47l68 -252q92 -57 205 -57q101 0 159 54t58 187q0 51 -19 92.5
t-57.5 73t-76.5 53t-95 46.5q-47 21 -81 38.5t-73 47t-63 62t-40 80t-16 103.5q0 152 98.5 249.5t235.5 97.5q172 0 295 -72v-287h-51z" />
    <glyph glyph-name="afii10055" unicode="&#x406;" horiz-adv-x="614" 
d="M57 0v27l168 24v1090l-168 24v29h500v-27l-172 -26v-1090l172 -22v-29h-500z" />
    <glyph glyph-name="afii10056" unicode="&#x407;" horiz-adv-x="614" 
d="M57 0v27l168 24v1090l-168 24v29h500v-27l-172 -26v-1090l172 -22v-29h-500zM47 1389q0 38 24 63t62 25q36 0 60 -25t24 -63q0 -37 -24.5 -64t-59.5 -27q-37 0 -61.5 26.5t-24.5 64.5zM393 1389q0 38 24.5 63t61.5 25q36 0 60 -25t24 -63q0 -37 -24.5 -64t-59.5 -27
q-36 0 -61 27t-25 64z" />
    <glyph glyph-name="afii10057" unicode="&#x408;" horiz-adv-x="714" 
d="M240 -18q-137 0 -238 43v329h53l58 -276q45 -37 123 -37q67 0 106 66.5t39 193.5v840l-168 24v29h502v-27l-172 -26v-834q0 -95 -46.5 -171.5t-115 -115t-141.5 -38.5z" />
    <glyph glyph-name="afii10058" unicode="&#x409;" horiz-adv-x="1363" 
d="M995 1194v-27l-172 -26v-443h172q162 0 256.5 -87.5t94.5 -264.5q0 -159 -108.5 -252.5t-315.5 -93.5h-428v27l168 26v1088h-218q-37 -602 -118 -903q-15 -52 -28 -86.5t-35.5 -69t-51.5 -54t-73.5 -32t-102.5 -12.5v170l12 12h186q111 372 140 956l-178 43v29h800z
M823 645v-592h90q132 5 201.5 69t69.5 218q0 136 -61.5 219t-180.5 84z" />
    <glyph glyph-name="afii10059" unicode="&#x40a;" horiz-adv-x="1562" 
d="M694 0v27l168 24v531h-500v-529l173 -24v-29h-500v27l168 24v1090l-168 24v29h500v-27l-173 -26v-506h500v506l-168 24v29h502v-27l-172 -26v-506h172q162 0 255 -80t93 -240q0 -144 -108 -229.5t-316 -85.5h-426zM1143 580l-119 2v-529h90q132 5 201 61.5t69 194.5
q0 122 -61 196t-180 75z" />
    <glyph glyph-name="afii10060" unicode="&#x40b;" horiz-adv-x="1269" 
d="M793 0v27l145 24v350q0 37 -2 62.5t-13 59.5t-31 54t-58.5 35t-92.5 15q-94 0 -219 -41v-533l170 -24v-29h-499v27l169 26v1086h-208l-68 -285h-51v340h891v-309h-49l-76 254h-279v-504q152 47 256 47q197 0 258 -82q62 -82 62 -254v-295l141 -22v-29h-446z" />
    <glyph glyph-name="afii10061" unicode="&#x40c;" horiz-adv-x="1067" 
d="M35 0v27l170 26v1088l-170 24v29h500v-27l-170 -26v-506h170l131 317l31.5 75t26.5 59t27 49t27 33.5t32 26t36.5 12.5t46.5 5q31 0 76 -18l-31 -176h-12l-152 67l-164 -401l316 -635l116 -18v-31h-274l-285 582h-118v-529l170 -24v-29h-500zM748 1548l55 -131l-379 -139
l-12 27z" />
    <glyph glyph-name="uni040D" unicode="&#x40d;" horiz-adv-x="1243" 
d="M362 211v-158l173 -24v-29h-500v27l168 24v1090l-168 24v29h500v-27l-173 -26v-848l515 696v152l-166 24v29h501v-27l-172 -26v-1088l172 -24v-29h-501v27l166 24v856zM365 1417l65 127l326 -239l-11 -27z" />
    <glyph glyph-name="afii10062" unicode="&#x40e;" horiz-adv-x="993" 
d="M260 1137l309 -688l226 667l-166 49v29h354v-27l-88 -34l-326 -826q-19 -48 -29.5 -73t-26.5 -60.5t-25 -52.5t-24 -41t-26 -34t-28 -24.5t-32.5 -19.5t-37.5 -11t-45 -7.5t-53 -1.5v168l12 12h184l47 119l-403 868l-74 16v29h395v-27zM522 1346q-124 0 -205 61t-81 164
l114 45h41v-174q49 -49 131 -49t131 49v174h41l115 -45q0 -103 -81.5 -164t-205.5 -61z" />
    <glyph glyph-name="afii10145" unicode="&#x40f;" horiz-adv-x="1204" 
d="M35 0v27l170 26v1088l-170 24v29h491v-27l-161 -26v-1088h477v1088l-162 24v29h491v-27l-170 -26v-1088l170 -24v-29h-516l23 -287h-146l23 287h-520z" />
    <glyph glyph-name="afii10017" unicode="&#x410;" horiz-adv-x="995" 
d="M604 0v20l141 27l-114 424h-342l-127 -401l164 -47v-23h-332v20l100 48l369 1126h117l333 -1153l91 -18v-23h-400zM469 1036l-164 -510h311l-139 510h-8z" />
    <glyph glyph-name="afii10018" unicode="&#x411;" horiz-adv-x="937" 
d="M35 0v27l170 26v1088l-170 24v29h786v-311h-49l-82 256h-325v-441h188q162 0 255 -87.5t93 -264.5q0 -159 -108.5 -252.5t-315.5 -93.5h-442zM500 643l-135 2v-592h106q132 5 201 69t69 218q0 136 -61 219t-180 84z" />
    <glyph glyph-name="afii10019" unicode="&#x412;" horiz-adv-x="966" 
d="M35 0v27l168 24v1090l-168 24v29h442q182 0 281.5 -71t99.5 -214q0 -93 -71.5 -168.5t-161.5 -97.5v-4q36 -2 74.5 -12t81 -33t75.5 -55.5t54.5 -84t21.5 -114.5q0 -155 -104.5 -247.5t-305.5 -92.5h-487zM440 592h-78v-537h134q127 0 198.5 71.5t71.5 207.5
q0 79 -22.5 131t-68 79t-100.5 37.5t-135 10.5zM440 1147h-78v-500h97q122 0 175.5 61.5t53.5 180.5q0 258 -248 258z" />
    <glyph glyph-name="afii10020" unicode="&#x413;" horiz-adv-x="847" 
d="M365 1139v-1086l170 -24v-29h-500v27l170 26v1088l-170 24v29h778v-340h-53l-80 285h-315z" />
    <glyph glyph-name="afii10021" unicode="&#x414;" horiz-adv-x="1044" 
d="M35 -287v340h137q72 215 127.5 504t83.5 563l-199 45v29h807v-27l-180 -26v-1088h197v-340h-50l-79 287h-725l-68 -287h-51zM244 53h405v1088h-198q-31 -314 -88.5 -618.5t-118.5 -469.5z" />
    <glyph glyph-name="afii10022" unicode="&#x415;" horiz-adv-x="892" 
d="M754 573l-392 7v-525h371l84 236l47 -12l-28 -279h-801v27l168 24v1090l-168 24v29h796v-270h-59l-51 217h-359v-506l392 8v-70z" />
    <glyph glyph-name="afii10024" unicode="&#x416;" horiz-adv-x="1495" 
d="M514 0v27l154 24v531h-129l-248 -582h-266v31l118 18l283 629l-152 407l-149 -67h-14l-31 176q48 18 78 18q83 0 124 -52t97 -208l119 -317h170v506l-154 24v29h465v-27l-152 -26v-506h170l119 317q56 156 97 208t124 52q30 0 78 -18l-31 -176h-14l-149 67l-148 -407
l279 -629l118 -18v-31h-266l-248 582h-129v-531l152 -22v-29h-465z" />
    <glyph glyph-name="afii10025" unicode="&#x417;" horiz-adv-x="815" 
d="M389 37q108 0 166.5 72.5t58.5 205.5q0 110 -45.5 173.5t-117.5 86.5l-213 -6v70l211 -8q120 71 120 258q0 133 -53.5 201.5t-153.5 68.5q-80 0 -145 -53l-70 -256h-53v295q52 24 138 45.5t165 21.5q144 0 244 -86t100 -227q0 -98 -43.5 -174.5t-117.5 -108.5v-4
q27 -8 56.5 -25.5t64 -50t57 -90t22.5 -129.5q0 -67 -25.5 -126.5t-73.5 -106t-123.5 -73.5t-168.5 -27q-175 0 -328 98v182h41q15 -35 36.5 -68t56.5 -72t85.5 -63t108.5 -24z" />
    <glyph glyph-name="afii10026" unicode="&#x418;" horiz-adv-x="1243" 
d="M362 211v-158l173 -24v-29h-500v27l168 24v1090l-168 24v29h500v-27l-173 -26v-848l515 696v152l-166 24v29h501v-27l-172 -26v-1088l172 -24v-29h-501v27l166 24v856z" />
    <glyph glyph-name="afii10027" unicode="&#x419;" horiz-adv-x="1243" 
d="M362 211v-158l173 -24v-29h-500v27l168 24v1090l-168 24v29h500v-27l-173 -26v-848l515 696v152l-166 24v29h501v-27l-172 -26v-1088l172 -24v-29h-501v27l166 24v856zM637 1346q-124 0 -205.5 61t-81.5 164l115 45h41v-174q49 -49 131 -49t131 49v174h41l115 -45
q0 -103 -81.5 -164t-205.5 -61z" />
    <glyph glyph-name="afii10028" unicode="&#x41a;" horiz-adv-x="1067" 
d="M35 0v27l170 26v1088l-170 24v29h500v-27l-170 -26v-506h170l131 317l31.5 75t26.5 59t27 49t27 33.5t32 26t36.5 12.5t46.5 5q31 0 76 -18l-31 -176h-12l-152 67l-164 -401l316 -635l116 -18v-31h-274l-285 582h-118v-529l170 -24v-29h-500z" />
    <glyph glyph-name="afii10029" unicode="&#x41b;" horiz-adv-x="1026" 
d="M494 0v27l168 26v1088h-218q-37 -602 -118 -903q-15 -52 -28 -86.5t-35.5 -69t-51.5 -54t-73.5 -32t-102.5 -12.5v170l12 12h186q113 380 142 958l-180 41v29h798v-27l-170 -26v-1088l170 -24v-29h-499z" />
    <glyph glyph-name="afii10030" unicode="&#x41c;" horiz-adv-x="1409" 
d="M934 0v27l158 24l-70 910h-8l-326 -979h-67l-340 1038h-7l-65 -942l168 -49v-29h-387v27l149 51l80 1040l-143 47v29h319l314 -987l313 987h295v-27l-166 -30l106 -1088l148 -20v-29h-471z" />
    <glyph glyph-name="afii10031" unicode="&#x41d;" horiz-adv-x="1226" 
d="M694 0v27l168 24v531h-500v-531l173 -22v-29h-500v27l168 24v1090l-168 24v29h500v-27l-173 -26v-506h500v506l-168 24v29h502v-27l-172 -26v-1090l172 -22v-29h-502z" />
    <glyph glyph-name="afii10032" unicode="&#x41e;" horiz-adv-x="1150" 
d="M1096 643q0 -132 -37 -251t-104.5 -210t-169 -144.5t-222.5 -53.5q-230 0 -369 160t-139 419q0 285 149.5 467t387.5 182q230 0 367 -158.5t137 -410.5zM918 604q0 118 -18.5 215.5t-57 176t-105.5 122t-157 43.5q-92 0 -160.5 -42.5t-109 -119t-60 -175t-19.5 -218.5
q0 -160 36.5 -286.5t114 -204.5t187.5 -78q78 0 139.5 32t100 85.5t64 128t35.5 153.5t10 168z" />
    <glyph glyph-name="afii10033" unicode="&#x41f;" horiz-adv-x="1200" 
d="M35 0v27l170 26v1088l-170 24v29h1134v-27l-170 -26v-1088l170 -24v-29h-501v27l170 26v1088h-473v-1088l170 -24v-29h-500z" />
    <glyph glyph-name="afii10034" unicode="&#x420;" horiz-adv-x="927" 
d="M35 0v27l160 22v1094l-160 22v29h500q164 0 257 -84.5t93 -265.5q0 -158 -117.5 -254t-308.5 -96h-105v-441l181 -24v-29h-500zM481 1137h-127v-590h99q137 0 203.5 72t66.5 217q0 140 -61 220.5t-181 80.5z" />
    <glyph glyph-name="afii10035" unicode="&#x421;" horiz-adv-x="983" 
d="M938 829h-53l-70 273q-85 59 -192 59q-172 0 -282 -144t-110 -409q0 -282 116.5 -427.5t305.5 -145.5q91 0 151 50.5t107 137.5h27v-162l-32 -16t-60 -27t-87.5 -23t-121.5 -11q-130 0 -235.5 37t-183.5 110t-120.5 190.5t-42.5 270.5q0 175 73.5 316.5t206 222.5
t298.5 81q163 0 305 -67v-316z" />
    <glyph glyph-name="afii10036" unicode="&#x422;" horiz-adv-x="962" 
d="M229 0v27l168 24v1088h-243l-68 -285h-51v340h891v-340h-49l-80 285h-236v-1088l172 -22v-29h-504z" />
    <glyph glyph-name="afii10037" unicode="&#x423;" horiz-adv-x="993" 
d="M260 1137l309 -688l226 667l-166 49v29h354v-27l-88 -34l-326 -826q-19 -48 -29.5 -73t-26.5 -60.5t-25 -52.5t-24 -41t-26 -34t-28 -24.5t-32.5 -19.5t-37.5 -11t-45 -7.5t-53 -1.5v168l12 12h184l47 119l-403 868l-74 16v29h395v-27z" />
    <glyph glyph-name="afii10038" unicode="&#x424;" horiz-adv-x="1212" 
d="M354 0v27l170 26v148q-222 2 -345.5 100.5t-123.5 284.5q0 193 128 316.5t341 133.5v148l-170 24v29h502v-27l-170 -26v-146q224 -1 347.5 -106t123.5 -285q0 -186 -124.5 -311t-346.5 -135v-148l170 -24v-29h-502zM989 627q0 171 -78 261.5t-225 96.5v-731
q152 9 227.5 106.5t75.5 266.5zM221 612q0 -170 77 -262.5t226 -95.5v731q-146 -7 -224.5 -106.5t-78.5 -266.5z" />
    <glyph glyph-name="afii10039" unicode="&#x425;" horiz-adv-x="1021" 
d="M582 0v29l139 28l-248 461l-252 -446l139 -41v-31h-354v29l119 41l324 497l-306 572l-123 24v31h424v-29l-133 -32l228 -418l229 401l-117 47v31h310v-29l-107 -47l-289 -452l332 -613l113 -22v-31h-428z" />
    <glyph glyph-name="afii10040" unicode="&#x426;" horiz-adv-x="1226" 
d="M35 0v27l170 26v1088l-170 24v29h491v-27l-161 -26v-1088h477v1088l-162 24v29h491v-27l-170 -26v-1088h191v-340h-51l-80 287h-1026z" />
    <glyph glyph-name="afii10041" unicode="&#x427;" horiz-adv-x="1095" 
d="M545 0v27l188 26v500q-149 -47 -256 -47q-182 0 -258 102q-25 33 -37.5 77.5t-14 74t-1.5 82.5v299l-148 24v29h447v-27l-139 -24v-352q0 -29 0.5 -44.5t4 -43.5t10 -43.5t20.5 -36t33.5 -31.5t50 -19t69.5 -8q94 0 219 41v535l-149 24v29h479v-27l-170 -26v-1088
l170 -24v-29h-518z" />
    <glyph glyph-name="afii10042" unicode="&#x428;" horiz-adv-x="1691" 
d="M35 0v27l170 26v1088l-170 24v29h477v-27l-147 -26v-1088h401v1088l-145 24v29h454v-27l-147 -26v-1088h401v1088l-145 24v29h477v-27l-170 -26v-1088l170 -24v-29h-1626z" />
    <glyph glyph-name="afii10043" unicode="&#x429;" horiz-adv-x="1716" 
d="M35 0v27l170 26v1088l-170 24v29h477v-27l-147 -26v-1088h401v1088l-145 24v29h454v-27l-147 -26v-1088h401v1088l-145 24v29h477v-27l-170 -26v-1088h188v-340h-49l-80 287h-1515z" />
    <glyph glyph-name="afii10044" unicode="&#x42a;" horiz-adv-x="1028" 
d="M35 854v340h627v-27l-173 -26v-443h173q162 0 255 -87.5t93 -264.5q0 -159 -108 -252.5t-316 -93.5h-428v27l170 26v1086h-174l-68 -285h-51zM608 643l-119 2v-592h91q132 5 201 69t69 218q0 136 -61.5 219t-180.5 84z" />
    <glyph glyph-name="afii10045" unicode="&#x42b;" horiz-adv-x="1443" 
d="M35 0v27l170 26v1088l-170 24v29h502v-27l-172 -26v-443h172q162 0 255 -87.5t93 -264.5q0 -159 -108 -252.5t-316 -93.5h-426zM913 0v27l168 24v1090l-168 24v29h500v-27l-172 -26v-1090l172 -22v-29h-500zM365 645v-592h90q132 5 201 69t69 218q0 136 -61.5 219
t-180.5 84z" />
    <glyph glyph-name="afii10046" unicode="&#x42c;" horiz-adv-x="903" 
d="M35 0v27l170 26v1088l-170 24v29h502v-27l-172 -26v-443h172q162 0 255 -87.5t93 -264.5q0 -159 -108 -252.5t-316 -93.5h-426zM365 645v-592h90q132 5 201 69t69 218q0 136 -61.5 219t-180.5 84z" />
    </font>
</defs>
</svg>
