<?xml version="1.0" standalone="no"?>
<!DOCTYPE svg PUBLIC "-//W3C//DTD SVG 1.1//EN" "http://www.w3.org/Graphics/SVG/1.1/DTD/svg11.dtd" >
<svg xmlns="http://www.w3.org/2000/svg" xmlns:xlink="http://www.w3.org/1999/xlink" version="1.1">
<metadata>
Created by FontForge 20201107 at Sun Feb  1 19:50:20 2026
 By 
Copyright (c) 2008 Typotheque.com All rights reserved.
</metadata>
<defs>
<font id="GretaDisNarProBol" horiz-adv-x="1067" >
  <font-face 
    font-family="Greta Dis Nar Pro Bol"
    font-weight="700"
    font-stretch="condensed"
    units-per-em="2048"
    panose-1="2 0 5 6 0 0 0 2 0 4"
    ascent="1454"
    descent="-594"
    x-height="940"
    cap-height="1194"
    bbox="-905 -786 2415 1810"
    underline-thickness="102"
    underline-position="-204"
    unicode-range="U+0020-FB04"
  />
<missing-glyph horiz-adv-x="1202" 
d="M514 633v47h47v-47h-47zM641 887v45h47v-45h-47zM514 887v45h47v-45h-47zM387 887v45h45v-45h-45zM135 0v45h45v-45h-45zM262 0v45h45v-45h-45zM387 0v45h45v-45h-45zM514 0v45h47v-45h-47zM641 0v45h47v-45h-47zM135 127v45h45v-45h-45zM135 252v45h45v-45h-45zM135 379
v47h45v-47h-45zM135 506v47h45v-47h-45zM135 633v47h45v-47h-45zM135 760v45h45v-45h-45zM135 887v45h45v-45h-45zM135 1014v45h45v-45h-45zM135 1141v45h45v-45h-45zM262 1141v45h45v-45h-45zM387 1141v45h45v-45h-45zM514 1141v45h47v-45h-47zM641 1141v45h47v-45h-47z
M768 1141v45h47v-45h-47zM893 1141v45h47v-45h-47zM893 0v45h47v-45h-47zM768 0v45h47v-45h-47zM1022 0v45h45v-45h-45zM1022 1141v45h45v-45h-45zM514 506v47h47v-47h-47zM514 252v45h47v-45h-47zM641 633v47h47v-47h-47zM768 633v47h47v-47h-47zM768 760v45h47v-45h-47z
M768 887v45h47v-45h-47zM1022 1014v45h45v-45h-45zM1022 887v45h45v-45h-45zM1022 633v47h45v-47h-45zM1022 506v47h45v-47h-45zM1022 252v45h45v-45h-45zM1022 127v45h45v-45h-45zM1022 379v47h45v-47h-45zM1022 760v45h45v-45h-45z" />
    <glyph glyph-name="f_f" unicode="ff" horiz-adv-x="1208" 
d="M621 0v39l106 24v746h-274v-737l127 -31v-41h-529v39l109 27v743h-135v63l135 39v45q0 113 38.5 201.5t105.5 143t152.5 82.5t184.5 28q112 0 250 -51l10 6q102 86 279 86q67 0 129 -16l-19 -254h-26l-209 166q-35 -40 -35 -111v-328h164v-100h-164v-739l127 -29v-41
h-526zM453 1196v-287h266l8 2v86q0 101 31 183q-115 98 -258 133q-47 -47 -47 -117z" />
    <glyph glyph-name="fi" unicode="fi" horiz-adv-x="1142" 
d="M51 0v39l107 27v743h-133v63l133 39v86q0 98 25.5 176t70 129.5t106.5 85.5t131.5 49t149.5 15q124 0 279 -57l-101 -232l-319 191q-47 -47 -47 -117v-328h282l158 52h127v-893l110 -27v-41h-509v39l104 24v746h-272v-737l127 -31v-41h-529z" />
    <glyph glyph-name="fl" unicode="fl" horiz-adv-x="1142" 
d="M621 0v39l102 22v1160l-223 133q-47 -47 -47 -117v-328h178v-100h-178v-737l127 -31v-41h-529v39l105 27v743h-131v63l131 39v86q0 118 39 207.5t107.5 142.5t153.5 79t185 26q78 0 195 -31l57 19h127v-1372l110 -27v-41h-509z" />
    <glyph glyph-name="f_f_i" unicode="ffi" horiz-adv-x="1708" 
d="M1186 0v39l104 22v748h-268v-739l125 -29v-41h-526v39l102 22v748h-268v-737l125 -31v-41h-529v39l105 27v743h-131v63l131 39v45q0 113 39 201.5t107 143t154 82.5t185 28q120 0 250 -51l18 12q102 80 271 80q67 0 129 -16l-19 -254h-26l-209 166q-33 -44 -33 -111v-328
h281l157 52h129v-893l107 -27v-41h-510zM723 997q0 98 33 185q-112 96 -254 131q-47 -47 -47 -117v-287h260l8 2v86z" />
    <glyph glyph-name="f_f_l" unicode="ffl" horiz-adv-x="1710" 
d="M1188 0v39l104 22v1160l-223 133q-47 -47 -47 -117v-328h178v-100h-178v-737l125 -31v-41h-526v39l102 27v743h-268v-737l125 -31v-41h-529v39l105 27v743h-131v63l131 39v45q0 113 39 201.5t107 143t154 82.5t185 28q121 0 248 -51q129 92 321 92q79 0 193 -31l57 19
h131v-1372l107 -27v-41h-510zM723 997q0 105 31 187q-111 94 -252 129q-47 -47 -47 -117v-287h260l8 2v86z" />
    <glyph glyph-name="uni0045030A" unicode="E&#x2da;" horiz-adv-x="991" 
d="M844 561l-355 6v-491h248l178 295l56 -9l-53 -362h-881v39l121 24v1063l-121 27v41h885v-332h-56l-133 258h-244v-467l355 9v-101zM582 1280q-66 0 -115 41.5t-49 116.5q0 74 49 114.5t115 40.5q68 0 119 -40.5t51 -114.5q0 -72 -51.5 -115t-118.5 -43zM582 1337
q50 0 73 32.5t23 68.5q0 40 -26 68t-70 28q-49 0 -71 -29t-22 -67q0 -47 27.5 -74t65.5 -27z" />
    <glyph glyph-name="uni00460304" unicode="F&#xaf;" horiz-adv-x="911" 
d="M37 1194h866v-332h-59l-135 258h-220v-502l336 9v-103l-336 13v-467l150 -29v-41h-602v39l121 24v1063l-121 27v41zM788 1339h-477v105h477v-105z" />
    <glyph glyph-name="uni00480331" unicode="H&#x331;" horiz-adv-x="1300" 
d="M700 0v39l119 16v533h-330v-531l111 -16v-41h-563v39l121 16v1080l-121 18v41h563v-39l-111 -16v-490h330v486l-119 18v41h564v-39l-111 -16v-1082l111 -16v-41h-564zM893 -287h-479v99h479v-99z" />
    <glyph glyph-name="uni004A0301" unicode="J&#xb4;" horiz-adv-x="788" 
d="M313 -18q-150 0 -307 67v375h60l127 -328q25 -20 37.5 -26.5t31.5 -6.5q54 0 68 52t14 209v802l-119 27v41h563v-39l-110 -25v-800q0 -151 -112 -249.5t-253 -98.5zM711 1528l73 -172l-405 -86l-14 33z" />
    <glyph glyph-name="uni004D0310" unicode="M&#x310;" horiz-adv-x="1523" 
d="M997 0v39l107 22l-62 867h-10l-301 -946h-121l-309 946h-10l-55 -840l147 -47v-41h-365v39l129 53l91 1024l-154 37v41h444l256 -760l254 760h418v-41l-131 -35l98 -1065l82 -12v-41h-508zM803 1262q-60 0 -114.5 17.5t-88.5 41.5t-54 43.5t-24 28.5l80 92
q8 -12 20.5 -25.5t37.5 -35t63.5 -35t81.5 -13.5q74 0 130.5 35t74.5 62l34 -33q-5 -11 -12.5 -26.5t-29 -44t-47 -51t-66 -39.5t-86.5 -17zM696 1579q0 46 26.5 70t72.5 24q98 0 98 -94t-98 -94q-46 0 -72.5 24t-26.5 70z" />
    <glyph glyph-name="uni004E0304" unicode="N&#xaf;" horiz-adv-x="1220" 
d="M25 0v39l155 55v991l-155 68v41h387l544 -678v574l-211 63v41h453v-39l-156 -55v-1116h-69l-705 893v-775l230 -61v-41h-473zM866 1339h-477v105h477v-105z" />
    <glyph glyph-name="uni00500304" unicode="P&#xaf;" horiz-adv-x="1048" 
d="M37 0v39l121 24v1063l-121 27v41h586q192 0 301.5 -96t109.5 -289q0 -171 -121.5 -267t-357.5 -96h-66v-380l111 -25v-41h-563zM494 1116h-5v-588h11q94 0 133 74.5t39 220.5q0 293 -178 293zM797 1339h-478v105h478v-105z" />
    <glyph glyph-name="uni00520300" unicode="R`" horiz-adv-x="1155" 
d="M37 0v39l121 24v1063l-121 27v41h586q177 0 288 -90t111 -254q0 -220 -197 -297l250 -477l86 -37v-39h-401l-244 514h-27v-448l111 -25v-41h-563zM659 850q0 129 -38 193.5t-132 70.5v-518q97 7 133.5 64.5t36.5 189.5zM254 1358l74 172l342 -232l-15 -30z" />
    <glyph glyph-name="uni00520325" unicode="R&#x325;" horiz-adv-x="1155" 
d="M37 0v39l121 24v1063l-121 27v41h586q177 0 288 -90t111 -254q0 -220 -197 -297l250 -477l86 -37v-39h-401l-244 514h-27v-448l111 -25v-41h-563zM606 -403q-66 0 -115 41t-49 116t49 115.5t115 40.5q68 0 119 -41t51 -115q0 -72 -51.5 -114.5t-118.5 -42.5zM659 850
q0 129 -38 193.5t-132 70.5v-518q97 7 133.5 64.5t36.5 189.5zM606 -346q50 0 73 32t23 68q0 40 -26 68t-70 28q-49 0 -70.5 -29t-21.5 -67q0 -47 27 -73.5t65 -26.5z" />
    <glyph glyph-name="uni005203250304" unicode="R&#x325;&#xaf;" horiz-adv-x="1155" 
d="M37 0v39l121 24v1063l-121 27v41h586q177 0 288 -90t111 -254q0 -220 -197 -297l250 -477l86 -37v-39h-401l-244 514h-27v-448l111 -25v-41h-563zM606 -403q-66 0 -115 41t-49 116t49 115.5t115 40.5q68 0 119 -41t51 -115q0 -72 -51.5 -114.5t-118.5 -42.5zM659 850
q0 129 -38 193.5t-132 70.5v-518q97 7 133.5 64.5t36.5 189.5zM807 1339h-477v105h477v-105zM606 -346q50 0 73 32t23 68q0 40 -26 68t-70 28q-49 0 -70.5 -29t-21.5 -67q0 -47 27 -73.5t65 -26.5z" />
    <glyph glyph-name="uni00530331" unicode="S&#x331;" horiz-adv-x="888" 
d="M743 815l-114 289q-61 33 -144 33q-87 0 -139.5 -52t-52.5 -127q0 -132 235 -217q46 -17 77.5 -30.5t73 -36.5t69 -51t53.5 -66t38.5 -89t12.5 -112q0 -130 -60.5 -215t-160.5 -121t-238 -36q-161 0 -346 82v346h68l106 -291q84 -62 185 -62q78 0 131 50t53 127
q0 39 -21.5 72t-65.5 62t-82 48t-101 47q-15 7 -23 10q-52 23 -91.5 49.5t-75.5 67.5t-55.5 100.5t-19.5 134.5q0 184 117 284.5t301 100.5q205 0 336 -77v-320h-66zM707 -287h-480v99h480v-99z" />
    <glyph glyph-name="uni00530300" unicode="S`" horiz-adv-x="888" 
d="M743 815l-114 289q-61 33 -144 33q-87 0 -139.5 -52t-52.5 -127q0 -132 235 -217q46 -17 77.5 -30.5t73 -36.5t69 -51t53.5 -66t38.5 -89t12.5 -112q0 -130 -60.5 -215t-160.5 -121t-238 -36q-161 0 -346 82v346h68l106 -291q84 -62 185 -62q78 0 131 50t53 127
q0 39 -21.5 72t-65.5 62t-82 48t-101 47q-15 7 -23 10q-52 23 -91.5 49.5t-75.5 67.5t-55.5 100.5t-19.5 134.5q0 184 117 284.5t301 100.5q205 0 336 -77v-320h-66zM197 1358l73 172l342 -232l-14 -30z" />
    <glyph glyph-name="uni00530306" unicode="S&#x2d8;" horiz-adv-x="888" 
d="M743 815l-114 289q-61 33 -144 33q-87 0 -139.5 -52t-52.5 -127q0 -132 235 -217q46 -17 77.5 -30.5t73 -36.5t69 -51t53.5 -66t38.5 -89t12.5 -112q0 -130 -60.5 -215t-160.5 -121t-238 -36q-161 0 -346 82v346h68l106 -291q84 -62 185 -62q78 0 131 50t53 127
q0 39 -21.5 72t-65.5 62t-82 48t-101 47q-15 7 -23 10q-52 23 -91.5 49.5t-75.5 67.5t-55.5 100.5t-19.5 134.5q0 184 117 284.5t301 100.5q205 0 336 -77v-320h-66zM494 1290q-59 0 -111 18t-83 43t-48.5 44.5t-20.5 29.5l78 64q11 -16 30 -33t64 -37t97 -20q49 0 94 19
t65 36t31 31l25 -35q-8 -18 -24.5 -41.5t-43.5 -52t-68 -47.5t-85 -19z" />
    <glyph glyph-name="uni00540308" unicode="T&#xa8;" horiz-adv-x="999" 
d="M215 0v39l121 24v1057h-117l-160 -360h-57v434h995v-434h-55l-160 360h-114v-1054l110 -25v-41h-563zM586 1386q0 47 29 78t75 31q42 0 70 -31t28 -78q0 -44 -28.5 -74t-69.5 -30q-45 0 -74.5 29.5t-29.5 74.5zM242 1386q0 47 28 78t72 31q43 0 72.5 -31t29.5 -78
q0 -44 -29.5 -74t-72.5 -30q-44 0 -72 29.5t-28 74.5z" />
    <glyph glyph-name="uni00560304" unicode="V&#xaf;" horiz-adv-x="1048" 
d="M414 0l-348 1135l-78 18v41h506v-39l-86 -16l210 -785h13l227 748l-158 51v41h361v-39l-103 -43l-358 -1112h-186zM813 1339h-477v105h477v-105z" />
    <glyph glyph-name="uni00580304" unicode="X&#xaf;" horiz-adv-x="1089" 
d="M584 0v39l106 24l-219 406l-223 -381l182 -47v-41h-416v39l103 27l313 481l-317 588l-78 18v41h487v-39l-78 -16l177 -322l167 291l-129 45v41h377v-39l-143 -49l-236 -361l377 -692l56 -12v-41h-506zM840 1339h-478v105h478v-105z" />
    <glyph glyph-name="uni005A0324" unicode="Z&#x324;" horiz-adv-x="952" 
d="M39 0l-21 74l537 1046h-311l-135 -317h-48v391h822l16 -70l-555 -1048h375l151 301l54 -10l-39 -367h-846zM203 -203q0 53 31.5 87t80.5 34q48 0 81.5 -34.5t33.5 -86.5q0 -49 -33.5 -82.5t-81.5 -33.5q-49 0 -80.5 33t-31.5 83zM549 -203q0 53 32 87t83 34
q46 0 78 -34.5t32 -86.5q0 -49 -32 -82.5t-78 -33.5q-51 0 -83 33t-32 83z" />
    <glyph glyph-name="uni0065030A" unicode="e&#x2da;" horiz-adv-x="911" 
d="M899 477h-537q3 -167 71.5 -246t170.5 -79q115 0 238 57l16 -25q-56 -82 -165 -141t-226 -59q-194 0 -309 117.5t-115 342.5q0 121 39.5 221t106 163.5t150 98t173.5 34.5q183 0 285 -128t102 -356zM487 1087q-66 0 -114.5 41.5t-48.5 116.5t48.5 115.5t114.5 40.5
q68 0 119 -41t51 -115q0 -72 -51.5 -115t-118.5 -43zM479 883q-34 0 -57.5 -22.5t-36 -69t-17.5 -104t-6 -140.5l218 20q-1 53 -2.5 90.5t-8 83.5t-16.5 74.5t-29 48t-45 19.5zM487 1145q50 0 73.5 32t23.5 68q0 40 -26.5 68t-70.5 28q-49 0 -70.5 -29t-21.5 -67
q0 -47 27 -73.5t65 -26.5z" />
    <glyph glyph-name="uni00660304" unicode="f&#xaf;" horiz-adv-x="638" 
d="M51 0v39l105 22v748h-131v63l131 39v86q0 142 62.5 246.5t164.5 155.5t229 51q77 0 129 -14l-20 -254h-27l-198 168q-47 -41 -43 -113v-328h161v-100h-161v-739l127 -29v-41h-529zM799 1561h-480v98h480v-98z" />
    <glyph glyph-name="uni006A0301" unicode="j&#xb4;" horiz-adv-x="522" 
d="M61 -406l-20 29q66 71 82 150t16 235v813h-121v45l289 95h125v-906q0 -138 -95 -264.5t-276 -196.5zM397 1395l121 -148l-371 -196l-18 22z" />
    <glyph glyph-name="uni006D0310" unicode="m&#x310;" horiz-adv-x="1605" 
d="M580 0v39l88 20v492q0 127 -40 182t-120 55q-30 0 -72 -10v-715l88 -22v-41h-491v39l104 24v758h-119v45l289 95h70l47 -127q70 66 137.5 96.5t145.5 30.5q72 0 131.5 -38t93.5 -114q77 78 150 115t159 37q113 0 186.5 -87t73.5 -266v-545l96 -22v-41h-493v39l96 22v490
q0 128 -39.5 182.5t-120.5 54.5q-41 0 -94 -16q23 -74 23 -164v-545l84 -22v-41h-473zM848 1067q-60 0 -113 19.5t-86 47.5t-50 47t-24 31l76 88q41 -52 78 -78q61 -40 131 -40q39 0 76.5 16.5t65 42t41.5 41.5t22 29l33 -27q-3 -10 -12.5 -30.5t-31.5 -54t-49 -62
t-69 -49.5t-88 -21zM729 1405q0 57 32 87t89 30q121 0 121 -117q0 -115 -121 -115q-57 0 -89 29.5t-32 85.5z" />
    <glyph glyph-name="uni006E0304" unicode="n&#xaf;" horiz-adv-x="1087" 
d="M33 0v39l104 24v758h-119v45l289 95h70l51 -140q73 72 144 106t153 34q113 0 187.5 -87t74.5 -266v-545l90 -22v-41h-491v39l100 24v488q0 127 -40 182t-120 55q-36 0 -90 -14v-711l88 -22v-41h-491zM831 1143h-479v98h479v-98z" />
    <glyph glyph-name="uni007000AF" unicode="p&#xaf;" horiz-adv-x="1034" 
d="M6 -426v39l113 27v1181h-119v45l289 95h71l43 -97q118 97 240 97q161 0 254.5 -114t93.5 -341q0 -123 -43 -224.5t-113.5 -165t-158 -98t-180.5 -34.5q-53 0 -80 2v-340l139 -31v-41h-549zM475 827q-29 0 -59 -6v-749q29 -11 49 -11q58 0 99 30.5t63 88.5t31.5 128.5
t9.5 162.5q0 154 -51.5 255t-141.5 101zM780 1143h-479v98h479v-98z" />
    <glyph glyph-name="uni00720325" unicode="r&#x325;" horiz-adv-x="745" 
d="M47 0v39l92 20v762h-121v45l289 95h70l47 -109q142 109 221 109q42 0 82 -11l-29 -307h-39l-223 168v-741l121 -29v-41h-510zM305 -403q-66 0 -115 41t-49 116t49 115.5t115 40.5q68 0 119 -41t51 -115q0 -72 -51.5 -114.5t-118.5 -42.5zM305 -346q50 0 73 32t23 68
q0 40 -26 68t-70 28q-49 0 -70.5 -29t-21.5 -67q0 -47 27 -73.5t65 -26.5z" />
    <glyph glyph-name="uni007203250304" unicode="r&#x325;&#xaf;" horiz-adv-x="745" 
d="M47 0v39l92 20v762h-121v45l289 95h70l47 -109q142 109 221 109q42 0 82 -11l-29 -307h-39l-223 168v-741l121 -29v-41h-510zM305 -403q-66 0 -115 41t-49 116t49 115.5t115 40.5q68 0 119 -41t51 -115q0 -72 -51.5 -114.5t-118.5 -42.5zM668 1141h-480v98h480v-98z
M305 -346q50 0 73 32t23 68q0 40 -26 68t-70 28q-49 0 -70.5 -29t-21.5 -67q0 -47 27 -73.5t65 -26.5z" />
    <glyph glyph-name="uni00720300" unicode="r`" horiz-adv-x="745" 
d="M47 0v39l92 20v762h-121v45l289 95h70l47 -109q142 109 221 109q42 0 82 -11l-29 -307h-39l-223 168v-741l121 -29v-41h-510zM131 1247l121 148l268 -322l-18 -26z" />
    <glyph glyph-name="uni00730331" unicode="s&#x331;" horiz-adv-x="802" 
d="M375 -18q-139 0 -330 43v280h86l119 -219q59 -27 110 -27q29 0 53.5 6t48.5 20t38 43t14 71q0 35 -26 62t-67 46t-91 38.5t-100.5 46.5t-91.5 62.5t-67 94t-26 133.5q0 57 23 104.5t61 79t89 53.5t104.5 32t109.5 10q191 0 320 -66v-231h-88l-107 196q-51 19 -98 19
q-63 0 -108.5 -32.5t-45.5 -82.5q0 -40 26 -69t67.5 -48t91.5 -37t100.5 -43.5t92 -59.5t67.5 -92.5t26 -135.5q0 -129 -113 -213t-288 -84zM651 -287h-479v99h479v-99z" />
    <glyph glyph-name="uni00730300" unicode="s`" horiz-adv-x="802" 
d="M375 -18q-139 0 -330 43v280h86l119 -219q59 -27 110 -27q29 0 53.5 6t48.5 20t38 43t14 71q0 35 -26 62t-67 46t-91 38.5t-100.5 46.5t-91.5 62.5t-67 94t-26 133.5q0 57 23 104.5t61 79t89 53.5t104.5 32t109.5 10q191 0 320 -66v-231h-88l-107 196q-51 19 -98 19
q-63 0 -108.5 -32.5t-45.5 -82.5q0 -40 26 -69t67.5 -48t91.5 -37t100.5 -43.5t92 -59.5t67.5 -92.5t26 -135.5q0 -129 -113 -213t-288 -84zM188 1249l121 148l269 -322l-19 -26z" />
    <glyph glyph-name="uni00730306" unicode="s&#x2d8;" horiz-adv-x="802" 
d="M375 -18q-139 0 -330 43v280h86l119 -219q59 -27 110 -27q29 0 53.5 6t48.5 20t38 43t14 71q0 35 -26 62t-67 46t-91 38.5t-100.5 46.5t-91.5 62.5t-67 94t-26 133.5q0 57 23 104.5t61 79t89 53.5t104.5 32t109.5 10q191 0 320 -66v-231h-88l-107 196q-51 19 -98 19
q-63 0 -108.5 -32.5t-45.5 -82.5q0 -40 26 -69t67.5 -48t91.5 -37t100.5 -43.5t92 -59.5t67.5 -92.5t26 -135.5q0 -129 -113 -213t-288 -84zM457 1104q-60 0 -114.5 19.5t-88.5 46.5t-54 48t-24 31l94 74q78 -100 189 -100q74 0 134.5 34.5t76.5 59.5l37 -17
q-15 -63 -86.5 -129.5t-163.5 -66.5z" />
    <glyph glyph-name="uni00760304" unicode="v&#xaf;" horiz-adv-x="950" 
d="M967 940v-39l-111 -37l-307 -864h-178l-314 881l-75 18v41h510v-39l-127 -29l188 -583h18l183 561l-148 49v41h361zM770 1143h-479v98h479v-98z" />
    <glyph glyph-name="uni00780304" unicode="x&#xaf;" horiz-adv-x="993" 
d="M586 528l336 -471l65 -16v-41h-510v39l92 20l-159 281l-185 -258l137 -41v-41h-378v39l116 39l267 340l-295 463l-70 18v41h510v-39l-111 -27l140 -266l168 252l-113 39v41h360v-39l-127 -43zM776 1143h-479v98h479v-98z" />
    <glyph glyph-name="uni007A0324" unicode="z&#x324;" horiz-adv-x="860" 
d="M831 379l-32 -379h-750l-22 92l450 766h-235l-162 -254l-35 6l23 330h700l33 -111l-436 -747h260l176 303zM141 -203q0 53 32 87t81 34q48 0 81.5 -34.5t33.5 -86.5q0 -49 -33.5 -82.5t-81.5 -33.5q-49 0 -81 33t-32 83zM487 -203q0 53 32 87t83 34q46 0 78.5 -34.5
t32.5 -86.5q0 -49 -32.5 -82.5t-78.5 -33.5q-51 0 -83 33t-32 83z" />
    <glyph glyph-name="f_h" unicode="fh" horiz-adv-x="1681" 
d="M618 0v39l105 24v1158l-223 133q-47 -47 -47 -117v-328h213v-100h-213v-737l127 -31v-41h-529v39l107 27v743h-133v63l133 39v86q0 113 39 201.5t106 143t153 82.5t185 28q79 0 193 -31l57 19h129v-611q144 132 301 132q113 0 186.5 -87t73.5 -266v-545l92 -22v-41h-491
v39l100 24v488q0 128 -40.5 182.5t-121.5 54.5q-44 0 -100 -16v-709l90 -22v-41h-492z" />
    <glyph glyph-name="f_b" unicode="fb" horiz-adv-x="1638" 
d="M739 49v1161l-239 144q-47 -47 -47 -117v-328h200v-100h-200v-737l127 -31v-41h-529v39l109 27v743h-135v63l135 39v86q0 113 38.5 201.5t105.5 143t152.5 82.5t184.5 28q80 0 197 -31l57 19h143v-547q104 68 211 68q161 0 253.5 -114t92.5 -341q0 -123 -42.5 -224.5
t-113 -165t-158 -98t-181.5 -34.5q-228 0 -361 65zM1096 840q-18 0 -58 -4v-766q16 -2 45 -2q70 0 113 55.5t60.5 150t17.5 236.5q0 154 -45.5 242t-132.5 88z" />
    <glyph glyph-name="f_j" unicode="fj" horiz-adv-x="1071" 
d="M649 -406l-22 29q66 71 82 150t16 235v801h-272v-737l127 -31v-41h-529v39l107 27v743h-133v63l133 39v86q0 114 36 202t101 142.5t152.5 82.5t193.5 28q124 0 279 -57l-101 -232l-319 191q-47 -47 -47 -117v-328h282l158 52h127v-906q0 -89 -39.5 -174.5t-125 -162.5
t-206.5 -124z" />
    <glyph glyph-name="f_k" unicode="fk" horiz-adv-x="1585" 
d="M618 0v39l107 27v1153l-223 135q-47 -47 -47 -117v-328h211v-100h-211v-737l125 -31v-41h-529v39l105 27v743h-131v63l131 39v86q0 114 36.5 202t102 142.5t153 82.5t193.5 28q79 0 193 -31l57 19h129v-1377l90 -22v-41h-492zM1038 401v45l262 402l-165 57v35h411v-37
l-164 -57l-157 -246l276 -489l84 -70v-41h-340z" />
    <glyph glyph-name="f_igrave" unicode="f&#xec;" horiz-adv-x="1169" 
d="M621 0v39l102 27v743h-268v-737l125 -31v-41h-529v39l105 27v743h-131v63l131 39v86q0 137 62 242.5t163 159t223 53.5q47 0 109 -16l-21 -254h-26l-166 170q-45 -48 -45 -115v-328h266l172 52h129v-891l108 -29v-41h-509zM729 1311l111 147l245 -321l-16 -27z" />
    <glyph glyph-name="f_idieresis" unicode="f&#xef;" horiz-adv-x="1181" 
d="M727 1223q0 52 28.5 83t73.5 31q44 0 74.5 -31.5t30.5 -82.5q0 -48 -30.5 -76.5t-74.5 -28.5q-45 0 -73.5 28t-28.5 77zM1001 1223q0 51 30 82.5t75 31.5q44 0 73 -31.5t29 -82.5q0 -48 -29 -76.5t-73 -28.5q-46 0 -75.5 28.5t-29.5 76.5zM621 0v39l102 27v743h-268v-737
l125 -31v-41h-529v39l105 27v743h-131v63l131 39v86q0 137 62 242.5t163 159t223 53.5q47 0 109 -16l-21 -254h-26l-166 170q-45 -48 -45 -115v-328h266l172 52h129v-891l108 -29v-41h-509z" />
    <glyph glyph-name="lambda_lambda" unicode="&#x3bb;&#x3bb;" horiz-adv-x="1775" 
d="M1184 862l-51 238q-61 258 -101 284q-21 -12 -75.5 -82.5t-88.5 -123.5h-16q-49 68 -72 141q35 60 123 97.5t195 37.5q56 0 104 -13t92.5 -43t77 -85t47.5 -133l189 -934q15 -59 32.5 -85t57.5 -30q39 -6 80 6l10 -55q-90 -98 -234 -98q-182 0 -219 168l-129 622
l-51 -280q-44 -242 -135 -376t-225 -134q-107 0 -179 74t-106 214l-102 502l-127 -774h-246v106l350 756l-51 238q-23 96 -53 182t-54 102q-21 -12 -75.5 -82.5t-88.5 -123.5h-16q-49 68 -72 141q35 60 123 97.5t195 37.5q268 0 328 -274l129 -650q5 -20 17 -80t21 -97.5
t21.5 -84t25 -72.5t25.5 -32l219 473z" />
    <glyph glyph-name="gamma_gamma" unicode="&#x3b3;&#x3b3;" horiz-adv-x="1757" 
d="M571 -410q-35 -18 -149 -14q-100 0 -154 12q13 62 36 194t38 198q-51 254 -90.5 400t-87.5 253q-2 4 -10 23.5t-12 29t-12 27.5t-14 28.5t-13 21.5t-13 17q-44 33 -102 25l-17 69q44 30 123.5 57t151.5 27q75 0 106.5 -24.5t53.5 -93.5q19 -57 36.5 -153t42.5 -258
t45 -271h13q58 194 180 510q57 146 136 218t151 72q114 0 179 -75.5t97 -225.5q14 -64 47.5 -262.5t42.5 -247.5h10l148 811q51 2 134 -13.5t110 -35.5q-25 -70 -184.5 -433t-198.5 -476q11 -212 18 -410q-30 -18 -147 -14q-100 0 -154 12q11 55 34.5 189.5t39.5 202.5
q-55 233 -133 485q-88 277 -146 328q-16 -12 -31.5 -33t-33.5 -58.5t-28.5 -59.5t-32 -75t-27.5 -67q-21 -49 -88.5 -220t-114.5 -280q17 -307 20 -410z" />
    <glyph glyph-name=".notdef" horiz-adv-x="1202" 
d="M514 633v47h47v-47h-47zM641 887v45h47v-45h-47zM514 887v45h47v-45h-47zM387 887v45h45v-45h-45zM135 0v45h45v-45h-45zM262 0v45h45v-45h-45zM387 0v45h45v-45h-45zM514 0v45h47v-45h-47zM641 0v45h47v-45h-47zM135 127v45h45v-45h-45zM135 252v45h45v-45h-45zM135 379
v47h45v-47h-45zM135 506v47h45v-47h-45zM135 633v47h45v-47h-45zM135 760v45h45v-45h-45zM135 887v45h45v-45h-45zM135 1014v45h45v-45h-45zM135 1141v45h45v-45h-45zM262 1141v45h45v-45h-45zM387 1141v45h45v-45h-45zM514 1141v45h47v-45h-47zM641 1141v45h47v-45h-47z
M768 1141v45h47v-45h-47zM893 1141v45h47v-45h-47zM893 0v45h47v-45h-47zM768 0v45h47v-45h-47zM1022 0v45h45v-45h-45zM1022 1141v45h45v-45h-45zM514 506v47h47v-47h-47zM514 252v45h47v-45h-47zM641 633v47h47v-47h-47zM768 633v47h47v-47h-47zM768 760v45h47v-45h-47z
M768 887v45h47v-45h-47zM1022 1014v45h45v-45h-45zM1022 887v45h45v-45h-45zM1022 633v47h45v-47h-45zM1022 506v47h45v-47h-45zM1022 252v45h45v-45h-45zM1022 127v45h45v-45h-45zM1022 379v47h45v-47h-45zM1022 760v45h45v-45h-45z" />
    <glyph glyph-name=".null" horiz-adv-x="0" 
 />
    <glyph glyph-name="nonmarkingreturn" horiz-adv-x="682" 
 />
    <glyph glyph-name="space" unicode=" " horiz-adv-x="421" 
 />
    <glyph glyph-name="exclam" unicode="!" horiz-adv-x="602" 
d="M442 1194l-106 -754h-68l-106 754h280zM104 154q0 75 52.5 131.5t132.5 56.5q84 0 131 -54.5t47 -133.5q0 -68 -48.5 -121t-129.5 -53q-80 0 -132.5 52.5t-52.5 121.5z" />
    <glyph glyph-name="quotedbl" unicode="&#x22;" horiz-adv-x="759" 
d="M88 936v504h236l-160 -504h-76zM440 936v504h240l-162 -504h-78z" />
    <glyph glyph-name="numbersign" unicode="#" horiz-adv-x="1208" 
d="M141 819v76h258l66 299h82l-64 -299h326l65 299h84l-63 -299h213v-76h-229l-80 -375h235v-77h-252l-77 -367h-91l80 367h-325l-78 -367h-88l80 367h-215v77h233l82 375h-242zM467 819l-82 -375h326l82 375h-326z" />
    <glyph glyph-name="dollar" unicode="$" horiz-adv-x="878" 
d="M713 815l-39 221q-78 82 -189 90v-374q126 -60 148 -72q132 -75 174 -185q22 -60 22 -135q0 -169 -91.5 -257.5t-252.5 -106.5v-109h-73v103h-19q-174 0 -338 82v342h78l37 -234q107 -104 238 -104h4v387q-15 7 -45.5 20.5t-48 21.5t-46 22.5t-45.5 26t-40.5 29t-38 34.5
t-31 40.5t-25 48t-14.5 55.5t-6 66q0 168 93 265.5t247 113.5v131h73v-127q183 -3 303 -77v-318h-75zM299 963q0 -59 29 -100t84 -75v334q-50 -15 -81.5 -58t-31.5 -101zM580 279q0 85 -95 145v-332q44 21 69.5 69t25.5 118z" />
    <glyph glyph-name="percent" unicode="%" horiz-adv-x="1345" 
d="M47 842q0 158 75 255t193 97q120 0 193.5 -90t73.5 -258q0 -156 -75 -249t-192 -93q-121 0 -194.5 87.5t-73.5 250.5zM403 838q0 276 -94 276q-43 0 -63.5 -62.5t-20.5 -207.5q0 -126 26.5 -191t72.5 -65q20 0 37 25t29.5 84t12.5 141zM770 322q0 158 74.5 255t191.5 97
q121 0 195 -90t74 -258q0 -155 -75 -248.5t-194 -93.5q-120 0 -193 88t-73 250zM1126 317q0 279 -96 279q-80 0 -80 -272q0 -140 24 -197t70 -57q20 0 38 24t31 82t13 141zM403 0h-81l630 1194h84z" />
    <glyph glyph-name="ampersand" unicode="&#x26;" horiz-adv-x="1314" 
d="M1309 41v-41h-404q-87 46 -149 92q-160 -110 -334 -110q-186 0 -290.5 74t-104.5 225q0 90 70 163.5t192 118.5q-115 164 -115 314q0 148 105.5 241.5t263.5 93.5q157 0 260.5 -69.5t103.5 -204.5q0 -100 -91 -168.5t-238 -97.5q51 -55 98 -99q77 -77 223 -208
q94 151 113 303l-115 34v37h377v-37l-123 -36q-61 -208 -180 -363q230 -197 338 -262zM479 344q-93 93 -149 164q-21 -79 -21 -166q0 -125 65.5 -189.5t147.5 -64.5q78 0 166 57q-94 81 -209 199zM446 940q0 -66 27 -123.5t88 -124.5q38 34 57 94t19 129q0 88 -29.5 154
t-75.5 66q-28 0 -46 -16.5t-26.5 -48t-11 -61t-2.5 -69.5z" />
    <glyph glyph-name="quotesingle" unicode="'" horiz-adv-x="403" 
d="M88 936v504h236l-160 -504h-76z" />
    <glyph glyph-name="parenleft" unicode="(" horiz-adv-x="559" 
d="M440 -379q-43 38 -91 95t-103.5 146t-99 188.5t-72.5 227.5t-29 257q0 112 30.5 231.5t76 215.5t102 184.5t104 146t86.5 92.5l56 -47q-36 -37 -78 -89.5t-96 -137t-96 -174t-71.5 -202t-29.5 -218.5q0 -122 29 -244.5t68.5 -212.5t94.5 -178.5t93 -137t78 -92.5z" />
    <glyph glyph-name="parenright" unicode=")" horiz-adv-x="559" 
d="M104 -379l-51 51q40 44 78 92.5t93 137t94.5 178.5t68.5 212.5t29 244.5q0 106 -29.5 218.5t-71.5 202t-96 174t-96 137t-78 89.5l55 47q51 -46 113 -127.5t129.5 -196.5t112.5 -261t45 -285q0 -129 -29 -257t-73 -227.5t-99.5 -188.5t-103.5 -146t-91 -95z" />
    <glyph glyph-name="asterisk" unicode="*" horiz-adv-x="720" 
d="M643 891l-10 -60l-45 -45l-197 158l31 -254l-53 -18l-56 18l31 256l-194 -160l-39 41l-15 62l226 96l-226 102l10 60l46 41l194 -162l-31 262l54 15l55 -15l-33 -260l199 160l45 -39l8 -62l-235 -100z" />
    <glyph glyph-name="plus" unicode="+" horiz-adv-x="962" 
d="M866 567h-342v-377h-88v377h-340v92h340v377h88v-377h342v-92z" />
    <glyph glyph-name="comma" unicode="," horiz-adv-x="573" 
d="M467 96q0 -119 -104.5 -270.5t-256.5 -249.5l-24 29q151 199 151 317q0 161 -153 182q0 71 61.5 130t139.5 59q84 0 135 -56.5t51 -140.5z" />
    <glyph glyph-name="hyphen" unicode="-" horiz-adv-x="587" 
d="M508 426h-428v158h428v-158z" />
    <glyph glyph-name="period" unicode="." horiz-adv-x="567" 
d="M98 154q0 75 52.5 131.5t132.5 56.5q84 0 131 -54.5t47 -133.5q0 -68 -48.5 -121t-129.5 -53q-80 0 -132.5 52.5t-52.5 121.5z" />
    <glyph glyph-name="slash" unicode="/" horiz-adv-x="526" 
d="M524 1386l-430 -1570h-98l432 1570h96z" />
    <glyph glyph-name="zero" unicode="0" horiz-adv-x="1034" 
d="M977 600q0 -173 -59 -313t-166.5 -220.5t-243.5 -80.5q-209 0 -330 158.5t-121 418.5q0 293 129.5 471t341.5 178q116 0 204 -46.5t140.5 -131t78.5 -193.5t26 -241zM631 588q0 84 -1.5 148.5t-6 130.5t-13 112t-21 83.5t-31.5 56t-44 18.5q-78 0 -97.5 -131.5
t-19.5 -434.5q0 -73 1 -127t4.5 -110.5t9.5 -95.5t15.5 -74.5t23.5 -56.5t33 -33.5t44 -12.5q60 0 81.5 119.5t21.5 407.5z" />
    <glyph glyph-name="one" unicode="1" horiz-adv-x="753" 
d="M49 0v45l172 35v944h-172v45l338 125h164v-1114l160 -33v-47h-662z" />
    <glyph glyph-name="two" unicode="2" horiz-adv-x="864" 
d="M842 387l-27 -387h-752l-12 61q180 189 302 413.5t122 408.5q0 122 -31.5 180.5t-109.5 58.5q-40 0 -75 -26t-59.5 -71t-41.5 -93.5t-29 -104.5h-57v246q68 66 167 102.5t193 36.5q153 0 258 -94t105 -235q0 -156 -115.5 -303t-378.5 -342h432l49 155z" />
    <glyph glyph-name="three" unicode="3" horiz-adv-x="831" 
d="M53 319h66q11 -57 23 -95.5t34 -77t56.5 -57.5t82.5 -19q44 0 76 22.5t48 60t23 74t7 74.5q0 57 -9.5 98t-35 78t-76.5 57t-127 21v76q54 4 94.5 31t63.5 68.5t34 89t11 100.5q0 108 -32 161.5t-85 53.5q-38 0 -66.5 -17.5t-50.5 -54.5t-36.5 -74.5t-32.5 -97.5h-60v199
q89 72 169.5 97t175.5 25q149 0 238 -81t89 -193q0 -105 -75 -176t-201 -107v-12q156 -12 238.5 -84t82.5 -201q0 -115 -56.5 -201t-148 -128.5t-202.5 -42.5q-168 0 -318 75v258z" />
    <glyph glyph-name="four" unicode="4" horiz-adv-x="866" 
d="M801 293h-82v-293h-316v293h-413l-23 90l520 811h232v-702h131zM145 492h258v421z" />
    <glyph glyph-name="five" unicode="5" horiz-adv-x="847" 
d="M49 291h72q25 -121 59.5 -170t110.5 -49q72 0 116 62t44 183q0 112 -59 175t-163 63q-63 0 -131 -12l45 651h631l-37 -233l-534 -3l-6 -213q75 17 192 17q177 0 286 -99t109 -288q0 -89 -30.5 -159.5t-78 -113t-110.5 -70t-122 -38t-119 -10.5q-132 0 -275 67v240z" />
    <glyph glyph-name="six" unicode="6" horiz-adv-x="915" 
d="M463 -16q-203 0 -312.5 143.5t-109.5 404.5q0 305 141 492.5t371 187.5q86 0 146 -13.5t128 -47.5v-227h-75q-13 47 -25 77t-33 63t-52 49.5t-73 16.5q-50 0 -84.5 -31.5t-54.5 -96.5t-30 -143.5t-15 -192.5q67 88 178 88q142 0 231 -88t89 -224q0 -209 -112.5 -333.5
t-307.5 -124.5zM467 633q-47 0 -86 -31v-53q0 -264 16 -372.5t76 -108.5q80 0 80 301q0 133 -19 198.5t-67 65.5z" />
    <glyph glyph-name="seven" unicode="7" horiz-adv-x="727" 
d="M70 0v51l524 881h-584l37 262h680l25 -84l-443 -1110h-239z" />
    <glyph glyph-name="eight" unicode="8" horiz-adv-x="970" 
d="M471 -14q-195 0 -301.5 69.5t-106.5 210.5q0 99 62.5 171t161.5 110q-58 42 -96 82t-65.5 102.5t-27.5 136.5q0 140 115 242t274 102q169 0 275 -75.5t106 -210.5q0 -72 -69.5 -147t-171.5 -99q62 -39 97.5 -65.5t78.5 -68.5t63.5 -91t20.5 -107q0 -154 -122 -258
t-294 -104zM588 238q0 23 -6.5 44.5t-14.5 38.5t-25.5 36.5t-30.5 32t-39 31.5t-40.5 29t-46 30.5t-45.5 29.5q-43 -75 -43 -209q0 -118 40.5 -175.5t106.5 -57.5q62 0 103 48.5t41 121.5zM375 981q0 -44 15 -82.5t45.5 -71.5t61 -57t76.5 -55q62 76 62 209q0 99 -35 155
t-88 56q-55 0 -96 -44t-41 -110z" />
    <glyph glyph-name="nine" unicode="9" horiz-adv-x="915" 
d="M467 1212q203 0 312.5 -143.5t109.5 -404.5q0 -305 -141 -492.5t-371 -187.5q-86 0 -146.5 13.5t-128.5 47.5v227h76q13 -47 25 -76.5t32.5 -63t51.5 -50t73 -16.5q50 0 84.5 31.5t55 96t30.5 143t15 191.5q-66 -86 -178 -86q-142 0 -231 88t-89 224q0 209 112.5 333.5
t307.5 124.5zM463 563q44 0 84 29q2 18 2 55q0 264 -16 372.5t-76 108.5q-80 0 -80 -301q0 -133 19 -198.5t67 -65.5z" />
    <glyph glyph-name="colon" unicode=":" horiz-adv-x="598" 
d="M139 154q0 75 52.5 131.5t132.5 56.5q84 0 131 -54.5t47 -133.5q0 -68 -48.5 -121t-129.5 -53q-80 0 -132.5 52.5t-52.5 121.5zM139 766q0 75 52.5 131.5t132.5 56.5q84 0 131 -54.5t47 -133.5q0 -68 -48.5 -121t-129.5 -53q-80 0 -132.5 52.5t-52.5 121.5z" />
    <glyph glyph-name="semicolon" unicode=";" horiz-adv-x="618" 
d="M508 96q0 -119 -104.5 -270.5t-256.5 -249.5l-24 29q151 199 151 317q0 161 -153 182q0 71 61.5 130t139.5 59q84 0 135 -56.5t51 -140.5zM139 766q0 75 52.5 131.5t132.5 56.5q84 0 131 -54.5t47 -133.5q0 -68 -48.5 -121t-129.5 -53q-80 0 -132.5 52.5t-52.5 121.5z
" />
    <glyph glyph-name="less" unicode="&#x3c;" horiz-adv-x="962" 
d="M197 614l659 -354l-37 -78l-723 391v76l723 387l35 -75z" />
    <glyph glyph-name="equal" unicode="=" horiz-adv-x="1042" 
d="M907 760h-772v92h772v-92zM907 367h-772v92h772v-92z" />
    <glyph glyph-name="greater" unicode="&#x3e;" horiz-adv-x="962" 
d="M96 260l662 354l-660 347l37 75l721 -387v-76l-721 -391z" />
    <glyph glyph-name="question" unicode="?" horiz-adv-x="733" 
d="M694 897q0 -61 -29 -119.5t-75 -102.5t-97.5 -76.5t-101.5 -49.5l-6 -133h-115l-67 209q64 26 113 101t49 196q0 42 -1 66.5t-6 57t-14 49.5t-26.5 29.5t-43.5 12.5q-22 0 -49 -9l-92 -297h-78v281q141 94 285 94q159 0 256.5 -76t97.5 -233zM160 154q0 75 52 131.5
t132 56.5q84 0 131 -54.5t47 -133.5q0 -68 -48.5 -121t-129.5 -53q-80 0 -132 52.5t-52 121.5z" />
    <glyph glyph-name="at" unicode="@" horiz-adv-x="1572" 
d="M823 10l43 293l-286 -319h-125q-23 94 -23 227q0 159 29 313t80 232t126.5 130t161.5 52q87 0 187 -57l43 59h108l-120 -836l18 -14q152 86 246 234.5t94 291.5q0 144 -33 259.5t-98.5 200t-170 130t-241.5 45.5q-190 0 -351 -113t-254 -305.5t-93 -418.5
q0 -356 178 -555t489 -199q113 0 248 61.5t226 147.5l24 -72q-105 -94 -245 -154.5t-285 -60.5q-157 0 -292 57.5t-232.5 162.5t-153 259t-55.5 340q0 189 66.5 361t179 296t266 197.5t321.5 73.5q181 0 318 -86t210.5 -240t73.5 -352q0 -102 -33 -197t-87.5 -169
t-128.5 -138.5t-151 -109.5t-161 -78zM637 193l27 -11l217 219l57 365q-135 101 -205 82q-46 -73 -73 -226.5t-27 -314.5q0 -77 4 -114z" />
    <glyph glyph-name="A" unicode="A" horiz-adv-x="1114" 
d="M633 0v39l94 18l-96 291h-342l-90 -256l194 -51v-41h-399v39l110 49l404 1106h178l371 -1139l63 -14v-41h-487zM459 838l-146 -416h293l-137 416h-10z" />
    <glyph glyph-name="B" unicode="B" horiz-adv-x="1081" 
d="M37 0v39l106 14v1084l-106 16v41h534q183 0 295.5 -76.5t112.5 -218.5q0 -94 -55 -171.5t-133 -111.5v-4q253 -36 253 -272q0 -153 -113 -246.5t-315 -93.5h-579zM500 567h-25v-491h25q60 0 101.5 20t63.5 57.5t31 81t9 99.5q0 129 -55.5 181t-149.5 52zM500 1126h-25
v-487h21q73 0 115 56.5t42 174.5q0 60 -6 102.5t-22 79.5t-47 55.5t-78 18.5z" />
    <glyph glyph-name="C" unicode="C" horiz-adv-x="1075" 
d="M1028 829h-65l-146 291q-49 17 -96 17q-76 0 -134 -40.5t-93.5 -114t-53.5 -169.5t-18 -213q0 -537 303 -537q76 0 154.5 62.5t109.5 138.5h39v-194q-53 -35 -154.5 -60.5t-199.5 -25.5q-97 0 -184 18t-168 61t-139 108t-93 165t-35 225q0 161 49.5 286.5t137.5 204.5
t205.5 119.5t257.5 40.5q86 0 179 -22t144 -45v-316z" />
    <glyph glyph-name="D" unicode="D" horiz-adv-x="1251" 
d="M37 0v39l119 24v1063l-119 27v41h524q109 0 196 -13.5t171.5 -51.5t141.5 -99.5t91.5 -164t34.5 -238.5q0 -151 -49 -272t-134.5 -197.5t-198.5 -117t-245 -40.5h-532zM530 1122h-41v-1044h31q114 0 179 45.5t96.5 158t31.5 314.5q0 283 -67.5 404.5t-229.5 121.5z" />
    <glyph glyph-name="E" unicode="E" horiz-adv-x="991" 
d="M844 561l-355 6v-491h248l178 295l56 -9l-53 -362h-881v39l121 24v1063l-121 27v41h885v-332h-56l-133 258h-244v-467l355 9v-101z" />
    <glyph glyph-name="F" unicode="F" horiz-adv-x="911" 
d="M37 1194h866v-332h-59l-135 258h-220v-502l336 9v-103l-336 13v-467l150 -29v-41h-602v39l121 24v1063l-121 27v41z" />
    <glyph glyph-name="G" unicode="G" horiz-adv-x="1144" 
d="M1063 70q-51 -34 -169.5 -60t-219.5 -26q-121 0 -229 34t-196.5 101.5t-141 181t-52.5 260.5q0 204 86 353t232 223.5t332 74.5q87 0 187.5 -22.5t149.5 -44.5v-316h-65l-148 293q-49 15 -94 15q-144 0 -228.5 -151t-84.5 -386q0 -539 303 -539h14l6 467l-106 23v39h424
v-520z" />
    <glyph glyph-name="H" unicode="H" horiz-adv-x="1300" 
d="M700 0v39l119 16v533h-330v-531l111 -16v-41h-563v39l121 16v1080l-121 18v41h563v-39l-111 -16v-490h330v486l-119 18v41h564v-39l-111 -16v-1082l111 -16v-41h-564z" />
    <glyph glyph-name="I" unicode="I" horiz-adv-x="663" 
d="M49 0v39l121 24v1063l-121 27v41h563v-39l-110 -25v-1064l110 -25v-41h-563z" />
    <glyph glyph-name="J" unicode="J" horiz-adv-x="788" 
d="M313 -18q-150 0 -307 67v375h60l127 -328q25 -20 37.5 -26.5t31.5 -6.5q54 0 68 52t14 209v802l-119 27v41h563v-39l-110 -25v-800q0 -151 -112 -249.5t-253 -98.5z" />
    <glyph glyph-name="K" unicode="K" horiz-adv-x="1198" 
d="M37 0v39l121 24v1063l-121 27v41h563v-39l-111 -25v-1064l111 -25v-41h-563zM799 0l-279 520v49l344 535l-153 51v39h434v-47l-184 -41l-232 -348l406 -682l69 -39v-37h-405z" />
    <glyph glyph-name="L" unicode="L" horiz-adv-x="966" 
d="M37 0v39l121 24v1063l-121 27v41h563v-39l-111 -25v-1054h218l202 311l56 -25l-54 -362h-874z" />
    <glyph glyph-name="M" unicode="M" horiz-adv-x="1523" 
d="M997 0v39l107 22l-62 867h-10l-301 -946h-121l-309 946h-10l-55 -840l147 -47v-41h-365v39l129 53l91 1024l-154 37v41h444l256 -760l254 760h418v-41l-131 -35l98 -1065l82 -12v-41h-508z" />
    <glyph glyph-name="N" unicode="N" horiz-adv-x="1220" 
d="M25 0v39l155 55v991l-155 68v41h387l544 -678v574l-211 63v41h453v-39l-156 -55v-1116h-69l-705 893v-775l230 -61v-41h-473z" />
    <glyph glyph-name="O" unicode="O" horiz-adv-x="1222" 
d="M1167 643q0 -187 -67.5 -336t-198 -236t-303.5 -87q-244 0 -393.5 153.5t-149.5 425.5q0 295 159.5 472t412.5 177q252 0 396 -147.5t144 -421.5zM799 604q0 284 -41.5 408.5t-143.5 124.5q-110 0 -151 -121t-41 -410q0 -140 8.5 -237.5t29.5 -168.5t56.5 -105t87.5 -34
q43 0 74.5 15t52.5 48.5t35 76t21 108t9.5 133t2.5 162.5z" />
    <glyph glyph-name="P" unicode="P" horiz-adv-x="1048" 
d="M37 0v39l121 24v1063l-121 27v41h586q192 0 301.5 -96t109.5 -289q0 -171 -121.5 -267t-357.5 -96h-66v-380l111 -25v-41h-563zM494 1116h-5v-588h11q94 0 133 74.5t39 220.5q0 293 -178 293z" />
    <glyph glyph-name="Q" unicode="Q" horiz-adv-x="1222" 
d="M1167 643q0 -252 -121 -429t-331 -218l452 -201v-35h-417l-88 228q-40 -4 -64 -4q-244 0 -393.5 153.5t-149.5 425.5q0 295 159.5 472t412.5 177q252 0 396 -147.5t144 -421.5zM799 604q0 124 -7.5 212.5t-26.5 165.5t-56.5 116t-94.5 39q-41 0 -72.5 -17t-52 -52
t-34.5 -79t-21 -108t-9.5 -127t-2.5 -148q0 -135 8 -230t28 -169t56.5 -110t89.5 -36q42 0 74 18t53 54.5t35 81.5t21 110.5t9.5 129.5t2.5 149z" />
    <glyph glyph-name="R" unicode="R" horiz-adv-x="1155" 
d="M37 0v39l121 24v1063l-121 27v41h586q177 0 288 -90t111 -254q0 -220 -197 -297l250 -477l86 -37v-39h-401l-244 514h-27v-448l111 -25v-41h-563zM659 850q0 129 -38 193.5t-132 70.5v-518q97 7 133.5 64.5t36.5 189.5z" />
    <glyph glyph-name="S" unicode="S" horiz-adv-x="888" 
d="M743 815l-114 289q-61 33 -144 33q-87 0 -139.5 -52t-52.5 -127q0 -132 235 -217q46 -17 77.5 -30.5t73 -36.5t69 -51t53.5 -66t38.5 -89t12.5 -112q0 -130 -60.5 -215t-160.5 -121t-238 -36q-161 0 -346 82v346h68l106 -291q84 -62 185 -62q78 0 131 50t53 127
q0 39 -21.5 72t-65.5 62t-82 48t-101 47q-15 7 -23 10q-52 23 -91.5 49.5t-75.5 67.5t-55.5 100.5t-19.5 134.5q0 184 117 284.5t301 100.5q205 0 336 -77v-320h-66z" />
    <glyph glyph-name="T" unicode="T" horiz-adv-x="999" 
d="M215 0v39l121 24v1057h-117l-160 -360h-57v434h995v-434h-55l-160 360h-114v-1054l110 -25v-41h-563z" />
    <glyph glyph-name="U" unicode="U" horiz-adv-x="1171" 
d="M596 -18q-467 0 -467 419v723l-123 29v41h574v-39l-95 -18v-717q0 -179 47.5 -264.5t157.5 -85.5q117 0 176.5 102.5t59.5 290.5v629l-207 61v41h436v-39l-139 -59v-639q0 -129 -32.5 -223t-91.5 -148t-132.5 -79t-163.5 -25z" />
    <glyph glyph-name="V" unicode="V" horiz-adv-x="1048" 
d="M414 0l-348 1135l-78 18v41h506v-39l-86 -16l210 -785h13l227 748l-158 51v41h361v-39l-103 -43l-358 -1112h-186z" />
    <glyph glyph-name="W" unicode="W" horiz-adv-x="1593" 
d="M319 0l-247 1135l-84 18v41h524v-39l-119 -20l131 -766h13l241 825h191l200 -815h13l194 715l-184 59v41h377v-39l-109 -51l-303 -1104h-188l-201 840h-10l-254 -840h-185z" />
    <glyph glyph-name="X" unicode="X" horiz-adv-x="1089" 
d="M584 0v39l106 24l-219 406l-223 -381l182 -47v-41h-416v39l103 27l313 481l-317 588l-78 18v41h487v-39l-78 -16l177 -322l167 291l-129 45v41h377v-39l-143 -49l-236 -361l377 -692l56 -12v-41h-506z" />
    <glyph glyph-name="Y" unicode="Y" horiz-adv-x="1011" 
d="M225 0v39l119 24v443l-287 631l-69 16v41h506v-39l-103 -18l223 -510l193 487l-178 39v41h395v-39l-117 -29l-231 -577v-483l112 -25v-41h-563z" />
    <glyph glyph-name="Z" unicode="Z" horiz-adv-x="952" 
d="M39 0l-21 74l537 1046h-311l-135 -317h-48v391h822l16 -70l-555 -1048h375l151 301l54 -10l-39 -367h-846z" />
    <glyph glyph-name="bracketleft" unicode="[" horiz-adv-x="497" 
d="M414 -371h-224v1764h224v-80h-140v-1604h140v-80z" />
    <glyph glyph-name="backslash" unicode="\" horiz-adv-x="526" 
d="M426 -184l-430 1570h96l432 -1570h-98z" />
    <glyph glyph-name="bracketright" unicode="]" horiz-adv-x="499" 
d="M311 -371h-227v80h141v1604h-141v80h227v-1764z" />
    <glyph glyph-name="asciicircum" unicode="^" horiz-adv-x="870" 
d="M758 496h-88l-226 602l-256 -602h-88l306 698h86z" />
    <glyph glyph-name="underscore" unicode="_" horiz-adv-x="972" 
d="M973 -180h-973v74h973v-74z" />
    <glyph glyph-name="grave" unicode="`" horiz-adv-x="913" 
d="M270 1249l121 148l268 -322l-18 -26z" />
    <glyph glyph-name="a" unicode="a" horiz-adv-x="888" 
d="M193 633h-119v248q61 32 180.5 56t196.5 24q157 0 247 -82.5t90 -233.5v-541l93 -59v-45h-349l-40 137q-26 -30 -44 -48.5t-52 -47t-72.5 -43t-79.5 -14.5q-94 0 -160 66t-66 181q0 137 107 204t289 67h73v184q0 199 -127 199q-10 0 -38 -8zM487 176v260h-49
q-54 0 -81 -38t-27 -103q0 -53 23.5 -92t64.5 -39q39 0 69 12z" />
    <glyph glyph-name="b" unicode="b" horiz-adv-x="997" 
d="M98 49v1251h-133v46l289 94h143v-547q104 68 211 68q161 0 253.5 -114t92.5 -341q0 -123 -42.5 -224.5t-113 -165t-158 -98t-181.5 -34.5q-228 0 -361 65zM455 840q-18 0 -58 -4v-766q16 -2 45 -2q70 0 113 55.5t60.5 150t17.5 236.5q0 154 -45.5 242t-132.5 88z" />
    <glyph glyph-name="c" unicode="c" horiz-adv-x="862" 
d="M727 582l-137 286q-10 2 -27 2q-70 0 -117.5 -52.5t-66.5 -128.5t-19 -171q0 -158 62.5 -268.5t161.5 -110.5q71 0 120 14.5t113 55.5l19 -27q-45 -76 -151 -137t-222 -61q-185 0 -302.5 125t-117.5 335q0 114 36.5 212t98.5 164t143.5 103.5t170.5 37.5q186 0 337 -95
v-284h-102z" />
    <glyph glyph-name="d" unicode="d" horiz-adv-x="1015" 
d="M666 0l-31 106q-95 -122 -254 -122q-155 0 -246.5 125t-91.5 335q0 114 37 212t99 164t144 103.5t171 37.5q58 0 127 -27v366h-125v46l288 94h123v-1336l97 -59v-45h-338zM621 162v708q-38 9 -76 9q-79 0 -131 -100t-52 -273q0 -153 50.5 -257t136.5 -104q29 0 72 17z
" />
    <glyph glyph-name="e" unicode="e" horiz-adv-x="911" 
d="M899 477h-537q3 -167 71.5 -246t170.5 -79q115 0 238 57l16 -25q-56 -82 -165 -141t-226 -59q-194 0 -309 117.5t-115 342.5q0 121 39.5 221t106 163.5t150 98t173.5 34.5q183 0 285 -128t102 -356zM479 883q-34 0 -57.5 -22.5t-36 -69t-17.5 -104t-6 -140.5l218 20
q-1 53 -2.5 90.5t-8 83.5t-16.5 74.5t-29 48t-45 19.5z" />
    <glyph glyph-name="f" unicode="f" horiz-adv-x="638" 
d="M51 0v39l105 22v748h-131v63l131 39v86q0 142 62.5 246.5t164.5 155.5t229 51q77 0 129 -14l-20 -254h-27l-198 168q-47 -41 -43 -113v-328h161v-100h-161v-739l127 -29v-41h-529z" />
    <glyph glyph-name="g" unicode="g" horiz-adv-x="952" 
d="M451 360q-52 0 -113 7l-29 -93l228 -16q186 -16 281 -90.5t95 -222.5q0 -73 -40.5 -145t-108.5 -128t-165 -90.5t-204 -34.5q-195 0 -295 74t-100 197q0 81 64.5 141.5t160.5 93.5l-129 27v98l203 197q-246 50 -246 270q0 99 55.5 172t142 108.5t189.5 35.5
q113 0 201.5 -33.5t140.5 -96.5l144 130h20v-177h-131q31 -60 31 -135q0 -86 -57 -153t-146 -101.5t-192 -34.5zM240 -111q0 -120 54 -177.5t142 -57.5q112 0 163.5 57.5t51.5 141.5q0 65 -40 97.5t-148 55.5l-180 37q-43 -59 -43 -154zM444 436q27 0 45 17t26 49t10.5 63
t2.5 74q0 123 -20.5 182.5t-71.5 59.5q-52 0 -69 -54.5t-17 -164.5q0 -47 3.5 -82.5t12.5 -70.5t29 -54t49 -19z" />
    <glyph glyph-name="h" unicode="h" horiz-adv-x="1087" 
d="M23 0v39l106 24v1237h-123v46l289 94h129v-611q144 132 301 132q113 0 186.5 -87t73.5 -266v-545l92 -22v-41h-491v39l102 24v488q0 127 -41 182t-121 55q-46 0 -102 -16v-709l90 -22v-41h-491z" />
    <glyph glyph-name="i" unicode="i" horiz-adv-x="555" 
d="M35 0v39l106 24v758h-123v45l289 95h127v-893l109 -27v-41h-508zM137 1249q0 78 43 119t117 41q160 0 160 -160q0 -79 -41.5 -120.5t-118.5 -41.5q-74 0 -117 42t-43 120z" />
    <glyph glyph-name="j" unicode="j" horiz-adv-x="522" 
d="M61 -406l-20 29q66 71 82 150t16 235v813h-121v45l289 95h125v-906q0 -138 -95 -264.5t-276 -196.5zM295 1087q-74 0 -118 42t-44 120t44 119t118 41q77 0 117.5 -40.5t40.5 -119.5t-41 -120.5t-117 -41.5z" />
    <glyph glyph-name="k" unicode="k" horiz-adv-x="991" 
d="M25 0v39l106 27v1234h-123v46l289 94h129v-1377l90 -22v-41h-491zM444 401v45l263 402l-166 57v35h411v-37l-164 -57l-157 -246l276 -489l84 -70v-41h-340z" />
    <glyph glyph-name="l" unicode="l" horiz-adv-x="546" 
d="M25 0v39l104 22v1239h-121v46l289 94h131v-1372l107 -27v-41h-510z" />
    <glyph glyph-name="m" unicode="m" horiz-adv-x="1605" 
d="M580 0v39l88 20v492q0 127 -40 182t-120 55q-30 0 -72 -10v-715l88 -22v-41h-491v39l104 24v758h-119v45l289 95h70l47 -127q70 66 137.5 96.5t145.5 30.5q72 0 131.5 -38t93.5 -114q77 78 150 115t159 37q113 0 186.5 -87t73.5 -266v-545l96 -22v-41h-493v39l96 22v490
q0 128 -39.5 182.5t-120.5 54.5q-41 0 -94 -16q23 -74 23 -164v-545l84 -22v-41h-473z" />
    <glyph glyph-name="n" unicode="n" horiz-adv-x="1087" 
d="M33 0v39l104 24v758h-119v45l289 95h70l51 -140q73 72 144 106t153 34q113 0 187.5 -87t74.5 -266v-545l90 -22v-41h-491v39l100 24v488q0 127 -40 182t-120 55q-36 0 -90 -14v-711l88 -22v-41h-491z" />
    <glyph glyph-name="o" unicode="o" horiz-adv-x="970" 
d="M928 461q0 -123 -37 -217t-101.5 -149.5t-143.5 -83t-169 -27.5q-77 0 -138.5 12t-118.5 43.5t-94.5 83t-60 134.5t-22.5 194q0 126 38 226.5t102.5 160.5t143 91.5t165.5 31.5q101 0 178.5 -26t136.5 -83.5t90 -155.5t31 -235zM606 436q0 443 -133 443q-108 0 -108 -385
q0 -95 5 -165.5t18 -133.5t38 -96t63 -33q27 0 47 14.5t32.5 43.5t20.5 60t11.5 78.5t4.5 84t1 89.5z" />
    <glyph glyph-name="p" unicode="p" horiz-adv-x="1034" 
d="M6 -426v39l113 27v1181h-119v45l289 95h71l43 -97q118 97 240 97q161 0 254.5 -114t93.5 -341q0 -123 -43 -224.5t-113.5 -165t-158 -98t-180.5 -34.5q-53 0 -80 2v-340l139 -31v-41h-549zM475 827q-29 0 -59 -6v-749q29 -11 49 -11q58 0 99 30.5t63 88.5t31.5 128.5
t9.5 162.5q0 154 -51.5 255t-141.5 101z" />
    <glyph glyph-name="q" unicode="q" horiz-adv-x="1003" 
d="M494 -387l122 29v452q-86 -110 -235 -110q-156 0 -247 121.5t-91 338.5q0 104 27 191t73.5 146t108.5 100.5t130.5 60.5t141.5 19q183 0 389 -52v-1271l91 -23v-41h-510v39zM549 135q46 0 67 8v723q-46 17 -86 17q-79 0 -123.5 -103t-44.5 -315q0 -330 187 -330z" />
    <glyph glyph-name="r" unicode="r" horiz-adv-x="745" 
d="M47 0v39l92 20v762h-121v45l289 95h70l47 -109q142 109 221 109q42 0 82 -11l-29 -307h-39l-223 168v-741l121 -29v-41h-510z" />
    <glyph glyph-name="s" unicode="s" horiz-adv-x="802" 
d="M375 -18q-139 0 -330 43v280h86l119 -219q59 -27 110 -27q29 0 53.5 6t48.5 20t38 43t14 71q0 35 -26 62t-67 46t-91 38.5t-100.5 46.5t-91.5 62.5t-67 94t-26 133.5q0 57 23 104.5t61 79t89 53.5t104.5 32t109.5 10q191 0 320 -66v-231h-88l-107 196q-51 19 -98 19
q-63 0 -108.5 -32.5t-45.5 -82.5q0 -40 26 -69t67.5 -48t91.5 -37t100.5 -43.5t92 -59.5t67.5 -92.5t26 -135.5q0 -129 -113 -213t-288 -84z" />
    <glyph glyph-name="t" unicode="t" horiz-adv-x="714" 
d="M680 125l12 -66q-63 -37 -126 -56t-148 -19q-64 0 -112.5 14t-91 48t-65 101t-22.5 164v498h-119v51l125 49l86 252h209v-252h238v-100h-238v-467q0 -30 0.5 -42.5t2 -39t4 -38t7 -31.5t11.5 -29.5t17 -22.5t23.5 -18.5t31.5 -10t40 -4.5q45 0 115 19z" />
    <glyph glyph-name="u" unicode="u" horiz-adv-x="1062" 
d="M702 0l-38 127q-73 -74 -137.5 -107.5t-145.5 -33.5q-113 0 -187.5 86.5t-74.5 265.5v483h-119v45l289 95h129v-566q0 -127 41 -182t123 -55q37 0 75 14v649h-118v45l288 95h127v-857l93 -59v-45h-345z" />
    <glyph glyph-name="v" unicode="v" horiz-adv-x="950" 
d="M967 940v-39l-111 -37l-307 -864h-178l-314 881l-75 18v41h510v-39l-127 -29l188 -583h18l183 561l-148 49v41h361z" />
    <glyph glyph-name="w" unicode="w" horiz-adv-x="1421" 
d="M313 0l-258 881l-73 18v41h510v-39l-136 -31l144 -604h10l195 674h143l213 -682h8l162 588l-123 53v41h332v-39l-129 -59l-248 -842h-195l-172 612h-8l-180 -612h-195z" />
    <glyph glyph-name="x" unicode="x" horiz-adv-x="993" 
d="M586 528l336 -471l65 -16v-41h-510v39l92 20l-159 281l-185 -258l137 -41v-41h-378v39l116 39l267 340l-295 463l-70 18v41h510v-39l-111 -27l140 -266l168 252l-113 39v41h360v-39l-127 -43z" />
    <glyph glyph-name="y" unicode="y" horiz-adv-x="950" 
d="M524 0l-149 -424h-193v35l230 342l-355 928l-75 18v41h510v-39l-127 -31l186 -581l207 542l-152 68v41h361v-39l-105 -47z" />
    <glyph glyph-name="z" unicode="z" horiz-adv-x="860" 
d="M831 379l-32 -379h-750l-22 92l450 766h-235l-162 -254l-35 6l23 330h700l33 -111l-436 -747h260l176 303z" />
    <glyph glyph-name="braceleft" unicode="{" horiz-adv-x="534" 
d="M500 -344l-43 -4q-90 -6 -159.5 19t-111.5 93.5t-34 174.5l32 380q5 63 -27.5 115.5t-99.5 65.5v61q64 14 97 67t30 117l-32 392q-4 134 76.5 201t213.5 65h58v-82h-47q-99 0 -157 -52.5t-54 -138.5l32 -366q7 -82 -19 -138t-112 -94q42 -15 70 -42t40.5 -60t17 -64
t1.5 -63l-32 -371q-6 -83 51.5 -140.5t161.5 -57.5h47v-78z" />
    <glyph glyph-name="bar" unicode="|" horiz-adv-x="434" 
d="M264 -186h-88v1562h88v-1562z" />
    <glyph glyph-name="braceright" unicode="}" horiz-adv-x="534" 
d="M100 -348l-43 4v78h47q105 0 163 57.5t52 140.5l-32 371q-3 32 1 62.5t16 64t40 60.5t70 42q-85 38 -110.5 94.5t-18.5 137.5l32 366q4 86 -54.5 138.5t-158.5 52.5h-47v82h60q133 2 213.5 -65t77.5 -201l-35 -392q-3 -64 30 -117t97 -67v-61q-66 -13 -98 -65.5
t-29 -115.5l35 -380q11 -156 -77.5 -226.5t-230.5 -60.5z" />
    <glyph glyph-name="asciitilde" unicode="~" horiz-adv-x="862" 
d="M754 676l45 -60q-82 -106 -199 -106q-55 0 -113.5 26.5t-115.5 53t-107 26.5q-24 0 -49 -8.5t-37.5 -16t-35 -25t-25.5 -19.5l-39 57q87 101 196 101q54 0 102 -16.5t77.5 -37t71.5 -37t87 -16.5q16 0 30.5 3.5t31 14t25 16t29.5 23t26 21.5z" />
    <glyph glyph-name="uni00A0" unicode="&#xa0;" horiz-adv-x="421" 
 />
    <glyph glyph-name="exclamdown" unicode="&#xa1;" horiz-adv-x="602" 
d="M162 -250l106 754h68l106 -754h-280zM111 772q0 75 54 132t138 57q88 0 138.5 -55t50.5 -134q0 -68 -51.5 -121t-137.5 -53q-84 0 -138 52.5t-54 121.5z" />
    <glyph glyph-name="cent" unicode="&#xa2;" horiz-adv-x="837" 
d="M702 582l-137 286q-10 2 -26 2h-7v-729q8 -2 27 -2q71 0 120.5 14.5t113.5 55.5l18 -27q-36 -59 -112.5 -112t-166.5 -74v-154h-73v144q-4 0 -11 -1t-10 -1q-185 0 -302.5 125t-117.5 335q0 225 129 368.5t312 148.5v135h73v-140q148 -12 273 -90v-284h-103zM336 518
q0 -114 32.5 -205.5t90.5 -136.5v674q-62 -36 -92.5 -126.5t-30.5 -205.5z" />
    <glyph glyph-name="sterling" unicode="&#xa3;" horiz-adv-x="964" 
d="M707 598v-72h-191q6 -46 6 -90q0 -71 -17 -167.5t-44 -178.5h248l186 328l55 -29l-53 -389h-879v39l121 35q70 189 70 317q0 49 -19 135h-149v72h131q-35 136 -35 217q0 84 34.5 159t90 125.5t124.5 79.5t138 29q168 0 332 -102v-365h-57l-135 357q-31 8 -80 8
q-117 0 -117 -240q0 -32 4 -69.5t9 -63.5t13.5 -69.5t12.5 -65.5h201z" />
    <glyph glyph-name="currency" unicode="&#xa4;" horiz-adv-x="884" 
d="M131 203l-59 59l125 125q-58 79 -58 186q0 118 58 189l-125 125l59 57l121 -125q94 62 182 62q111 0 180 -58l121 125l62 -61l-123 -125q57 -66 57 -189q0 -54 -16 -105t-45 -83l123 -125l-56 -61l-123 125q-88 -54 -180 -54q-102 0 -182 58zM434 451q52 0 76.5 35
t24.5 87q2 52 -24 89.5t-77 37.5q-52 0 -78 -37t-26 -90q0 -51 27 -86.5t77 -35.5z" />
    <glyph glyph-name="yen" unicode="&#xa5;" horiz-adv-x="1036" 
d="M238 0v39l118 24v275h-229v70h229v96l-34 76h-195v69h164l-221 488l-70 16v41h506v-39l-103 -18l224 -510l192 487l-178 39v41h395v-39l-116 -29l-193 -477h170v-69h-197l-12 -31v-141h211v-70h-211v-272l113 -25v-41h-563z" />
    <glyph glyph-name="brokenbar" unicode="&#xa6;" horiz-adv-x="419" 
d="M264 -188h-88v594h88v-594zM264 1382v-579h-88v579h88z" />
    <glyph glyph-name="section" unicode="&#xa7;" horiz-adv-x="712" 
d="M559 854l-18 227q-70 43 -168 43q-51 0 -98.5 -31t-81.5 -87l272 -279q182 -208 182 -498q0 -178 -102 -298.5t-232 -120.5q-83 0 -139.5 22t-112.5 64v272h74l15 -227q70 -43 169 -43q50 0 97.5 31.5t81.5 86.5l-273 281q-96 110 -138 231t-42 265q0 178 102 298.5
t230 120.5q84 0 141 -22t111 -64v-272h-70zM139 797q0 -274 168 -447l230 -239q14 61 14 114q0 273 -166 447l-231 239q-15 -66 -15 -114z" />
    <glyph glyph-name="dieresis" unicode="&#xa8;" horiz-adv-x="811" 
d="M137 1202q0 53 32 87t81 34q48 0 81.5 -34.5t33.5 -86.5q0 -49 -33.5 -83t-81.5 -34q-49 0 -81 33.5t-32 83.5zM483 1202q0 53 32 87t83 34q46 0 78.5 -34.5t32.5 -86.5q0 -49 -32.5 -83t-78.5 -34q-50 0 -82.5 33.5t-32.5 83.5z" />
    <glyph glyph-name="copyright" unicode="&#xa9;" horiz-adv-x="1413" 
d="M985 737h-35l-84 166q-58 25 -102 25q-100 0 -157.5 -95t-57.5 -233q0 -148 57 -238t170 -90q137 0 191 152h18v-143q-123 -70 -252 -70q-75 0 -145.5 22.5t-129 66.5t-93.5 117t-35 165q0 102 33 180t92 124.5t134.5 69.5t166.5 23q68 0 133.5 -16.5t95.5 -36.5v-189z
M117 592q0 168 79 311t215 226t296 83q159 0 295 -83t215 -226t79 -311t-79 -311t-215 -226.5t-295 -83.5q-160 0 -296 83.5t-215 226.5t-79 311zM174 592q0 -151 71.5 -283t194.5 -210.5t267 -78.5q143 0 265.5 78.5t193.5 210.5t71 283q0 113 -42.5 218t-113.5 182
t-169 123t-205 46q-108 0 -206.5 -46t-170 -123t-114 -182t-42.5 -218z" />
    <glyph glyph-name="ordfeminine" unicode="&#xaa;" horiz-adv-x="702" 
d="M139 1243h-73v172h2q48 22 137 37.5t149 15.5q119 0 183.5 -55.5t64.5 -159.5v-381l78 -41v-30h-250l-31 94q-101 -107 -202 -107q-73 0 -123.5 43t-50.5 121q0 94 89.5 143.5t227.5 49.5h55v135q0 65 -29.5 101t-80.5 36q-19 0 -49 -10zM39 647v53h625v-53h-625z
M395 922v178h-37q-116 0 -116 -101q0 -43 30 -64.5t72 -21.5q30 0 51 9z" />
    <glyph glyph-name="guillemotleft" unicode="&#xab;" horiz-adv-x="745" 
d="M360 94l-321 369l319 366h50l-140 -358l140 -377h-48zM664 94l-322 369l320 366h49l-140 -358l140 -377h-47z" />
    <glyph glyph-name="logicalnot" unicode="&#xac;" horiz-adv-x="962" 
d="M831 205h-98v364h-624v93h722v-457z" />
    <glyph glyph-name="registered" unicode="&#xae;" horiz-adv-x="843" 
d="M422 549q-155 0 -260 109t-105 272t105 273t260 110t259.5 -110t104.5 -273t-104.5 -272t-259.5 -109zM422 592q144 0 225.5 96t81.5 242q0 141 -87.5 239.5t-219.5 98.5q-131 0 -219 -98.5t-88 -239.5t88 -239.5t219 -98.5zM223 743v9l53 20v336l-53 18v13h248
q65 0 109.5 -30.5t44.5 -84.5q0 -39 -17 -60.5t-53 -33.5l82 -150l29 -20v-17h-148l-78 166h-24v-137l47 -18v-11h-240zM424 1102h-8v-170q39 0 61.5 24t22.5 68q0 34 -19 55.5t-57 22.5z" />
    <glyph glyph-name="macron" unicode="&#xaf;" horiz-adv-x="866" 
d="M668 1141h-480v98h480v-98z" />
    <glyph glyph-name="degree" unicode="&#xb0;" horiz-adv-x="765" 
d="M647 950q0 -108 -74.5 -189t-195.5 -81q-120 0 -189 77.5t-69 190.5q0 108 74.5 189.5t195.5 81.5q120 0 189 -78.5t69 -190.5zM524 950q0 96 -31.5 151.5t-111.5 55.5q-73 0 -106 -58t-33 -153q0 -93 33.5 -152t109.5 -59q70 0 104.5 61t34.5 154z" />
    <glyph glyph-name="plusminus" unicode="&#xb1;" horiz-adv-x="974" 
d="M862 96h-749v92h749v-92zM530 721h332v-92h-332v-328h-86v328h-331v92h331v340h86v-340z" />
    <glyph glyph-name="twosuperior" unicode="&#xb2;" horiz-adv-x="589" 
d="M563 1055l-16 -238h-488l-6 27q104 103 180 228.5t76 227.5q0 58 -20 82.5t-66 24.5q-94 0 -125 -168h-39v156q48 39 116.5 61.5t129.5 22.5q97 0 164.5 -52.5t67.5 -123.5q0 -81 -60.5 -150.5t-232.5 -181.5h248l34 88z" />
    <glyph glyph-name="threesuperior" unicode="&#xb3;" horiz-adv-x="567" 
d="M43 1010h45q4 -33 10 -54.5t18 -43.5t34.5 -33t54.5 -11q38 0 61 22t29 44t6 45q0 63 -32.5 99.5t-121.5 37.5v45q47 4 77 30t40 57t10 67q0 58 -22 83t-51 25q-45 0 -69 -32.5t-46 -102.5h-37v117q64 44 118 59t118 15q99 0 157 -46.5t58 -105.5q0 -56 -48 -92.5
t-147 -58.5v-7q114 -9 166.5 -47t52.5 -110q0 -94 -74 -148.5t-186 -54.5q-101 0 -221 47v154z" />
    <glyph glyph-name="acute" unicode="&#xb4;" horiz-adv-x="913" 
d="M559 1397l121 -148l-371 -196l-18 22z" />
    <glyph glyph-name="mu" unicode="&#xb5;" horiz-adv-x="1120" 
d="M831 -20q-65 0 -110.5 38t-56.5 97q-58 -72 -111 -100.5t-133 -28.5h-8l30 -138v-272h-299v1364h303v-545q0 -131 33.5 -184t112.5 -53q28 0 63 12v770h297v-735q0 -56 12 -76t35 -20q64 0 101 8l12 -60q-36 -28 -131.5 -52.5t-149.5 -24.5z" />
    <glyph glyph-name="paragraph" unicode="&#xb6;" horiz-adv-x="1103" 
d="M516 305q-199 6 -313.5 119.5t-114.5 325.5q0 200 127 322t338 122h487v-47l-141 -19v-1552h-106v1538h-113v-1538h-164v729z" />
    <glyph glyph-name="periodcentered" unicode="&#xb7;" horiz-adv-x="290" 
d="M20 655q0 63 34 98t89 35t91 -35.5t36 -97.5q0 -57 -32.5 -93t-94.5 -36q-59 0 -91 36t-32 93z" />
    <glyph glyph-name="cedilla" unicode="&#xb8;" horiz-adv-x="724" 
d="M274 -487q-91 0 -151 45l31 71q65 -45 137 -45q44 0 71 33t27 82q0 53 -42.5 87.5t-115.5 45.5l84 182h82l-43 -102q81 -21 123.5 -72.5t42.5 -122.5q0 -83 -68 -143.5t-178 -60.5z" />
    <glyph glyph-name="onesuperior" unicode="&#xb9;" horiz-adv-x="505" 
d="M35 817v29l104 26v492h-98v29l209 71h129v-594l92 -22v-31h-436z" />
    <glyph glyph-name="ordmasculine" unicode="&#xba;" horiz-adv-x="851" 
d="M39 647v53h774v-53h-774zM780 1114q0 -84 -32 -149.5t-84 -103.5t-113 -57.5t-125 -19.5q-340 0 -340 324q0 86 32 155t84 110.5t113 63t123 21.5q72 0 131.5 -18.5t108 -57t75.5 -107t27 -161.5zM549 1098q0 156 -27 229.5t-98 73.5q-67 0 -89 -58.5t-22 -205.5
q0 -155 29.5 -225t93.5 -70q63 0 88 64.5t25 191.5z" />
    <glyph glyph-name="guillemotright" unicode="&#xbb;" horiz-adv-x="747" 
d="M82 836l321 -369l-319 -367h-49l139 359l-139 377h47zM387 836l322 -369l-320 -367h-49l139 359l-139 377h47z" />
    <glyph glyph-name="onequarter" unicode="&#xbc;" horiz-adv-x="1384" 
d="M1282 158h-51v-158h-227v158h-259l-8 49l332 440h162v-368h90zM63 547v28l105 27v492h-98v28l209 72h129v-594l92 -22v-31h-437zM313 -18l-49 28l750 1137l53 -27zM860 279h144v202z" />
    <glyph glyph-name="onehalf" unicode="&#xbd;" horiz-adv-x="1417" 
d="M1354 238l-17 -238h-487l-6 27q104 103 180 228.5t76 227.5q0 58 -20 82.5t-66 24.5q-94 0 -125 -168h-39v156q48 39 116.5 61.5t129.5 22.5q97 0 164 -52.5t67 -124.5q0 -81 -60 -149.5t-233 -181.5h248l35 88zM63 549v29l105 26v492h-98v28l209 72h129v-594l92 -22v-31
h-437zM313 -18l-49 28l750 1137l53 -27z" />
    <glyph glyph-name="threequarters" unicode="&#xbe;" horiz-adv-x="1370" 
d="M1268 158h-51v-158h-228v158h-258l-8 49l332 440h162v-368h90zM63 748h46q4 -33 10 -54t18 -43.5t34 -33.5t54 -11q29 0 49.5 12t30 31t13.5 35.5t4 32.5q0 63 -32.5 99.5t-121.5 37.5v45q47 4 77 30t40 57t10 67q0 58 -22.5 83t-51.5 25q-45 0 -69 -32.5t-46 -102.5h-36
v117q64 44 117.5 59t117.5 15q99 0 157 -46.5t58 -105.5q0 -56 -48 -93t-146 -59v-6q114 -9 166.5 -47t52.5 -110q0 -94 -74 -148.5t-186 -54.5q-102 0 -222 47v154zM326 -18l-50 28l750 1137l53 -27zM846 279h143v202z" />
    <glyph glyph-name="questiondown" unicode="&#xbf;" horiz-adv-x="733" 
d="M55 45q0 61 29 119.5t75 102.5t97.5 76.5t101.5 49.5l7 133h114l68 -209q-30 -12 -60 -34.5t-61 -57.5t-50.5 -88.5t-19.5 -116.5q0 -94 28.5 -154.5t90.5 -60.5q21 0 51 9l123 297h45v-281q-141 -94 -284 -94q-159 0 -257 76t-98 233zM242 774q0 75 52 132t132 57
q84 0 131 -54.5t47 -134.5q0 -68 -48.5 -121t-129.5 -53q-80 0 -132 52.5t-52 121.5z" />
    <glyph glyph-name="Agrave" unicode="&#xc0;" horiz-adv-x="1114" 
d="M633 0v39l94 18l-96 291h-342l-90 -256l194 -51v-41h-399v39l110 49l404 1106h178l371 -1139l63 -14v-41h-487zM459 838l-146 -416h293l-137 416h-10zM293 1358l74 172l342 -232l-15 -30z" />
    <glyph glyph-name="Aacute" unicode="&#xc1;" horiz-adv-x="1114" 
d="M633 0v39l94 18l-96 291h-342l-90 -256l194 -51v-41h-399v39l110 49l404 1106h178l371 -1139l63 -14v-41h-487zM459 838l-146 -416h293l-137 416h-10zM846 1528l74 -172l-406 -86l-14 33z" />
    <glyph glyph-name="Acircumflex" unicode="&#xc2;" horiz-adv-x="1114" 
d="M633 0v39l94 18l-96 291h-342l-90 -256l194 -51v-41h-399v39l110 49l404 1106h178l371 -1139l63 -14v-41h-487zM459 838l-146 -416h293l-137 416h-10zM850 1247l-246 123l-246 -119l-22 33l280 258l261 -258z" />
    <glyph glyph-name="Atilde" unicode="&#xc3;" horiz-adv-x="1114" 
d="M633 0v39l94 18l-96 291h-342l-90 -256l194 -51v-41h-399v39l110 49l404 1106h178l371 -1139l63 -14v-41h-487zM459 838l-146 -416h293l-137 416h-10zM692 1305q-57 0 -120 20.5t-103 20.5q-41 0 -100 -66l-39 37q77 145 172 145q44 0 122 -22.5t93 -22.5q29 0 56.5 14.5
t40.5 28.5l13 15l37 -37q-21 -46 -70 -89.5t-102 -43.5z" />
    <glyph glyph-name="Adieresis" unicode="&#xc4;" horiz-adv-x="1114" 
d="M633 0v39l94 18l-96 291h-342l-90 -256l194 -51v-41h-399v39l110 49l404 1106h178l371 -1139l63 -14v-41h-487zM459 838l-146 -416h293l-137 416h-10zM664 1386q0 47 29 78t75 31q42 0 70 -31t28 -78q0 -44 -28.5 -74t-69.5 -30q-45 0 -74.5 29.5t-29.5 74.5zM319 1386
q0 47 28.5 78t72.5 31q43 0 72.5 -31t29.5 -78q0 -44 -29.5 -74t-72.5 -30q-44 0 -72.5 29.5t-28.5 74.5z" />
    <glyph glyph-name="Aring" unicode="&#xc5;" horiz-adv-x="1114" 
d="M633 0v39l94 18l-96 291h-342l-90 -256l194 -51v-41h-399v39l110 49l404 1106h178l371 -1139l63 -14v-41h-487zM598 1260q-66 0 -115 41t-49 116t49 115.5t115 40.5q68 0 119 -41t51 -115q0 -72 -51.5 -114.5t-118.5 -42.5zM459 838l-146 -416h293l-137 416h-10z
M598 1317q50 0 73 32t23 68q0 40 -26 68t-70 28q-49 0 -70.5 -29t-21.5 -67q0 -47 27 -73.5t65 -26.5z" />
    <glyph glyph-name="AE" unicode="&#xc6;" horiz-adv-x="1505" 
d="M553 0v39l133 27v421h-280l-183 -411l170 -35v-41h-399v39l115 27l524 1128h803v-332h-62l-133 258h-221v-456l338 6v-101l-338 6v-499h227l178 295l62 -9l-55 -362h-879zM668 1085l-230 -520h248v520h-18z" />
    <glyph glyph-name="Ccedilla" unicode="&#xc7;" horiz-adv-x="1075" 
d="M1028 829h-65l-146 291q-49 17 -96 17q-76 0 -134 -40.5t-93.5 -114t-53.5 -169.5t-18 -213q0 -537 303 -537q76 0 154.5 62.5t109.5 138.5h39v-194q-48 -33 -140 -57.5t-188 -28.5l-12 -31q81 -21 123.5 -72.5t42.5 -122.5q0 -83 -68 -143.5t-178 -60.5q-91 0 -151 45
l30 71q65 -45 138 -45q44 0 71 33t27 82q0 53 -42.5 87.5t-115.5 45.5l51 113q-91 5 -170.5 26.5t-152.5 66t-125 109t-82.5 160t-30.5 213.5q0 161 49.5 286.5t137.5 204.5t205.5 119.5t257.5 40.5q86 0 179 -22t144 -45v-316z" />
    <glyph glyph-name="Egrave" unicode="&#xc8;" horiz-adv-x="991" 
d="M844 561l-355 6v-491h248l178 295l56 -9l-53 -362h-881v39l121 24v1063l-121 27v41h885v-332h-56l-133 258h-244v-467l355 9v-101zM319 1358l74 172l342 -232l-14 -30z" />
    <glyph glyph-name="Eacute" unicode="&#xc9;" horiz-adv-x="991" 
d="M844 561l-355 6v-491h248l178 295l56 -9l-53 -362h-881v39l121 24v1063l-121 27v41h885v-332h-56l-133 258h-244v-467l355 9v-101zM791 1528l73 -172l-405 -86l-15 33z" />
    <glyph glyph-name="Ecircumflex" unicode="&#xca;" horiz-adv-x="991" 
d="M844 561l-355 6v-491h248l178 295l56 -9l-53 -362h-881v39l121 24v1063l-121 27v41h885v-332h-56l-133 258h-244v-467l355 9v-101zM819 1247l-246 123l-245 -119l-23 33l281 258l260 -258z" />
    <glyph glyph-name="Edieresis" unicode="&#xcb;" horiz-adv-x="991" 
d="M844 561l-355 6v-491h248l178 295l56 -9l-53 -362h-881v39l121 24v1063l-121 27v41h885v-332h-56l-133 258h-244v-467l355 9v-101zM631 1389q0 47 29 77.5t75 30.5q42 0 70.5 -30.5t28.5 -77.5q0 -44 -29 -74.5t-70 -30.5q-45 0 -74.5 30t-29.5 75zM287 1389
q0 47 28 77.5t72 30.5q43 0 72.5 -30.5t29.5 -77.5q0 -44 -29.5 -74.5t-72.5 -30.5q-44 0 -72 30t-28 75z" />
    <glyph glyph-name="Igrave" unicode="&#xcc;" horiz-adv-x="663" 
d="M49 0v39l121 24v1063l-121 27v41h563v-39l-110 -25v-1064l110 -25v-41h-563zM113 1358l73 172l342 -232l-14 -30z" />
    <glyph glyph-name="Iacute" unicode="&#xcd;" horiz-adv-x="663" 
d="M49 0v39l121 24v1063l-121 27v41h563v-39l-110 -25v-1064l110 -25v-41h-563zM543 1528l73 -172l-405 -86l-14 33z" />
    <glyph glyph-name="Icircumflex" unicode="&#xce;" horiz-adv-x="663" 
d="M49 0v39l121 24v1063l-121 27v41h563v-39l-110 -25v-1064l110 -25v-41h-563zM584 1245l-246 123l-246 -119l-22 33l280 258l260 -258z" />
    <glyph glyph-name="Idieresis" unicode="&#xcf;" horiz-adv-x="663" 
d="M49 0v39l121 24v1063l-121 27v41h563v-39l-110 -25v-1064l110 -25v-41h-563zM414 1389q0 47 29 77.5t75 30.5q42 0 70 -30.5t28 -77.5q0 -44 -28.5 -74.5t-69.5 -30.5q-45 0 -74.5 30t-29.5 75zM70 1389q0 47 28 77.5t72 30.5q43 0 72.5 -30.5t29.5 -77.5
q0 -44 -29.5 -74.5t-72.5 -30.5q-44 0 -72 30t-28 75z" />
    <glyph glyph-name="Eth" unicode="&#xd0;" horiz-adv-x="1251" 
d="M33 596v66h123v464l-119 27v41h524q109 0 196 -13.5t171.5 -51.5t141.5 -99.5t91.5 -164t34.5 -238.5q0 -151 -49 -272t-134.5 -197.5t-198.5 -117t-245 -40.5h-532v39l119 24v533h-123zM618 596h-129v-518h31q114 0 179 45.5t96.5 158t31.5 314.5q0 283 -67.5 404.5
t-229.5 121.5h-41v-460h129v-66z" />
    <glyph glyph-name="Ntilde" unicode="&#xd1;" horiz-adv-x="1220" 
d="M25 0v39l155 55v991l-155 68v41h387l544 -678v574l-211 63v41h453v-39l-156 -55v-1116h-69l-705 893v-775l230 -61v-41h-473zM745 1307q-57 0 -120 20.5t-103 20.5q-41 0 -100 -66l-39 37q77 145 172 145q44 0 122 -22.5t93 -22.5q29 0 57 14.5t41 28.5l13 15l37 -37
q-21 -45 -70.5 -89t-102.5 -44z" />
    <glyph glyph-name="Ograve" unicode="&#xd2;" horiz-adv-x="1222" 
d="M1167 643q0 -187 -67.5 -336t-198 -236t-303.5 -87q-244 0 -393.5 153.5t-149.5 425.5q0 295 159.5 472t412.5 177q252 0 396 -147.5t144 -421.5zM799 604q0 284 -41.5 408.5t-143.5 124.5q-110 0 -151 -121t-41 -410q0 -140 8.5 -237.5t29.5 -168.5t56.5 -105t87.5 -34
q43 0 74.5 15t52.5 48.5t35 76t21 108t9.5 133t2.5 162.5zM332 1358l74 172l342 -232l-15 -30z" />
    <glyph glyph-name="Oacute" unicode="&#xd3;" horiz-adv-x="1222" 
d="M1167 643q0 -187 -67.5 -336t-198 -236t-303.5 -87q-244 0 -393.5 153.5t-149.5 425.5q0 295 159.5 472t412.5 177q252 0 396 -147.5t144 -421.5zM799 604q0 284 -41.5 408.5t-143.5 124.5q-110 0 -151 -121t-41 -410q0 -140 8.5 -237.5t29.5 -168.5t56.5 -105t87.5 -34
q43 0 74.5 15t52.5 48.5t35 76t21 108t9.5 133t2.5 162.5zM852 1528l74 -172l-406 -86l-14 33z" />
    <glyph glyph-name="Ocircumflex" unicode="&#xd4;" horiz-adv-x="1222" 
d="M1167 643q0 -187 -67.5 -336t-198 -236t-303.5 -87q-244 0 -393.5 153.5t-149.5 425.5q0 295 159.5 472t412.5 177q252 0 396 -147.5t144 -421.5zM799 604q0 284 -41.5 408.5t-143.5 124.5q-110 0 -151 -121t-41 -410q0 -140 8.5 -237.5t29.5 -168.5t56.5 -105t87.5 -34
q43 0 74.5 15t52.5 48.5t35 76t21 108t9.5 133t2.5 162.5zM872 1247l-245 123l-246 -119l-23 33l281 258l260 -258z" />
    <glyph glyph-name="Otilde" unicode="&#xd5;" horiz-adv-x="1222" 
d="M1167 643q0 -187 -67.5 -336t-198 -236t-303.5 -87q-244 0 -393.5 153.5t-149.5 425.5q0 295 159.5 472t412.5 177q252 0 396 -147.5t144 -421.5zM799 604q0 284 -41.5 408.5t-143.5 124.5q-110 0 -151 -121t-41 -410q0 -140 8.5 -237.5t29.5 -168.5t56.5 -105t87.5 -34
q43 0 74.5 15t52.5 48.5t35 76t21 108t9.5 133t2.5 162.5zM719 1305q-57 0 -120 20.5t-103 20.5q-42 0 -101 -66l-39 37q77 145 172 145q44 0 122 -22.5t93 -22.5q29 0 57 14.5t41 28.5l13 15l37 -37q-21 -46 -70 -89.5t-102 -43.5z" />
    <glyph glyph-name="Odieresis" unicode="&#xd6;" horiz-adv-x="1222" 
d="M1167 643q0 -187 -67.5 -336t-198 -236t-303.5 -87q-244 0 -393.5 153.5t-149.5 425.5q0 295 159.5 472t412.5 177q252 0 396 -147.5t144 -421.5zM799 604q0 284 -41.5 408.5t-143.5 124.5q-110 0 -151 -121t-41 -410q0 -140 8.5 -237.5t29.5 -168.5t56.5 -105t87.5 -34
q43 0 74.5 15t52.5 48.5t35 76t21 108t9.5 133t2.5 162.5zM352 1386q0 47 28.5 78t72.5 31q43 0 72.5 -31t29.5 -78q0 -44 -29.5 -74t-72.5 -30q-44 0 -72.5 29.5t-28.5 74.5zM696 1386q0 47 29.5 78t75.5 31q42 0 70 -31t28 -78q0 -44 -28.5 -74t-69.5 -30q-45 0 -75 30
t-30 74z" />
    <glyph glyph-name="multiply" unicode="&#xd7;" horiz-adv-x="1009" 
d="M850 911l-285 -299l291 -303l-61 -65l-289 303l-291 -303l-61 63l290 305l-280 295l61 66l281 -295l282 297z" />
    <glyph glyph-name="Oslash" unicode="&#xd8;" horiz-adv-x="1222" 
d="M1167 643q0 -187 -67.5 -336t-198 -236t-303.5 -87q-214 0 -354 116l-99 -116h-82l134 161q-142 155 -142 418q0 295 159.5 472t412.5 177q222 0 360 -114l94 114h86l-133 -161q133 -149 133 -408zM422 606q0 -74 4 -184l362 436q-15 144 -56.5 211.5t-117.5 67.5
q-110 0 -151 -121t-41 -410zM799 604q0 66 -4 160l-361 -434q15 -136 55.5 -202.5t114.5 -66.5q43 0 74.5 15t52.5 48.5t35 76t21 108t9.5 133t2.5 162.5z" />
    <glyph glyph-name="Ugrave" unicode="&#xd9;" horiz-adv-x="1171" 
d="M596 -18q-467 0 -467 419v723l-123 29v41h574v-39l-95 -18v-717q0 -179 47.5 -264.5t157.5 -85.5q117 0 176.5 102.5t59.5 290.5v629l-207 61v41h436v-39l-139 -59v-639q0 -129 -32.5 -223t-91.5 -148t-132.5 -79t-163.5 -25zM395 1358l74 172l342 -232l-14 -30z" />
    <glyph glyph-name="Uacute" unicode="&#xda;" horiz-adv-x="1171" 
d="M596 -18q-467 0 -467 419v723l-123 29v41h574v-39l-95 -18v-717q0 -179 47.5 -264.5t157.5 -85.5q117 0 176.5 102.5t59.5 290.5v629l-207 61v41h436v-39l-139 -59v-639q0 -129 -32.5 -223t-91.5 -148t-132.5 -79t-163.5 -25zM895 1528l74 -172l-406 -86l-14 33z" />
    <glyph glyph-name="Ucircumflex" unicode="&#xdb;" horiz-adv-x="1171" 
d="M596 -18q-467 0 -467 419v723l-123 29v41h574v-39l-95 -18v-717q0 -179 47.5 -264.5t157.5 -85.5q117 0 176.5 102.5t59.5 290.5v629l-207 61v41h436v-39l-139 -59v-639q0 -129 -32.5 -223t-91.5 -148t-132.5 -79t-163.5 -25zM901 1245l-246 123l-245 -119l-23 33
l281 258l260 -258z" />
    <glyph glyph-name="Udieresis" unicode="&#xdc;" horiz-adv-x="1171" 
d="M596 -18q-467 0 -467 419v723l-123 29v41h574v-39l-95 -18v-717q0 -179 47.5 -264.5t157.5 -85.5q117 0 176.5 102.5t59.5 290.5v629l-207 61v41h436v-39l-139 -59v-639q0 -129 -32.5 -223t-91.5 -148t-132.5 -79t-163.5 -25zM715 1386q0 47 29 78t75 31q42 0 70.5 -31
t28.5 -78q0 -44 -29 -74t-70 -30q-45 0 -74.5 29.5t-29.5 74.5zM371 1386q0 47 28 78t72 31q43 0 72.5 -31t29.5 -78q0 -44 -29.5 -74t-72.5 -30q-44 0 -72 29.5t-28 74.5z" />
    <glyph glyph-name="Yacute" unicode="&#xdd;" horiz-adv-x="1011" 
d="M225 0v39l119 24v443l-287 631l-69 16v41h506v-39l-103 -18l223 -510l193 487l-178 39v41h395v-39l-117 -29l-231 -577v-483l112 -25v-41h-563zM791 1528l73 -172l-405 -86l-15 33z" />
    <glyph glyph-name="Thorn" unicode="&#xde;" horiz-adv-x="1036" 
d="M37 0v39l121 24v1063l-121 27v41h563v-39l-111 -25v-145h121q192 0 302 -96t110 -289q0 -171 -121 -266.5t-358 -95.5h-54v-172l111 -25v-41h-563zM496 907h-7v-588h13q157 0 157 295q0 287 -163 293z" />
    <glyph glyph-name="germandbls" unicode="&#xdf;" horiz-adv-x="1181" 
d="M51 0v39l105 22v748h-131v61l131 39v88q0 207 123 327t315 120q85 0 156 -17t127 -52.5t87 -94.5t31 -137q0 -192 -247 -297q66 -30 129 -74.5t125.5 -108.5t100.5 -151t38 -182q0 -68 -16.5 -127.5t-51.5 -110.5t-97.5 -80.5t-146.5 -29.5q-145 0 -274 43v280h66
l57 -223q48 -31 80 -31q47 0 65 46t23 143q0 82 -19 144.5t-77 129t-160 127.5v59q75 83 115 177t40 178q0 64 -21.5 128t-70 116t-114.5 63q-26 -13 -50 -37q-22 -26 -28 -63t-6 -105v-1100l45 -16v-41h-449z" />
    <glyph glyph-name="agrave" unicode="&#xe0;" horiz-adv-x="888" 
d="M193 633h-119v248q61 32 180.5 56t196.5 24q157 0 247 -82.5t90 -233.5v-541l93 -59v-45h-349l-40 137q-26 -30 -44 -48.5t-52 -47t-72.5 -43t-79.5 -14.5q-94 0 -160 66t-66 181q0 137 107 204t289 67h73v184q0 199 -127 199q-10 0 -38 -8zM182 1247l121 148l268 -322
l-18 -26zM487 176v260h-49q-54 0 -81 -38t-27 -103q0 -53 23.5 -92t64.5 -39q39 0 69 12z" />
    <glyph glyph-name="aacute" unicode="&#xe1;" horiz-adv-x="888" 
d="M193 633h-119v248q61 32 180.5 56t196.5 24q157 0 247 -82.5t90 -233.5v-541l93 -59v-45h-349l-40 137q-26 -30 -44 -48.5t-52 -47t-72.5 -43t-79.5 -14.5q-94 0 -160 66t-66 181q0 137 107 204t289 67h73v184q0 199 -127 199q-10 0 -38 -8zM602 1397l121 -148l-371 -196
l-18 22zM487 176v260h-49q-54 0 -81 -38t-27 -103q0 -53 23.5 -92t64.5 -39q39 0 69 12z" />
    <glyph glyph-name="acircumflex" unicode="&#xe2;" horiz-adv-x="888" 
d="M193 633h-119v248q61 32 180.5 56t196.5 24q157 0 247 -82.5t90 -233.5v-541l93 -59v-45h-349l-40 137q-26 -30 -44 -48.5t-52 -47t-72.5 -43t-79.5 -14.5q-94 0 -160 66t-66 181q0 137 107 204t289 67h73v184q0 199 -127 199q-10 0 -38 -8zM418 1374h61l213 -303
l-24 -31l-234 150l-225 -152l-27 25zM487 176v260h-49q-54 0 -81 -38t-27 -103q0 -53 23.5 -92t64.5 -39q39 0 69 12z" />
    <glyph glyph-name="atilde" unicode="&#xe3;" horiz-adv-x="888" 
d="M193 633h-119v248q61 32 180.5 56t196.5 24q157 0 247 -82.5t90 -233.5v-541l93 -59v-45h-349l-40 137q-26 -30 -44 -48.5t-52 -47t-72.5 -43t-79.5 -14.5q-94 0 -160 66t-66 181q0 137 107 204t289 67h73v184q0 199 -127 199q-10 0 -38 -8zM549 1128q-57 0 -120 20.5
t-103 20.5q-41 0 -103 -65l-37 37q77 145 172 145q44 0 122 -22.5t93 -22.5q29 0 57 14.5t41 28.5l13 14l37 -36q-22 -46 -70.5 -90t-101.5 -44zM487 176v260h-49q-54 0 -81 -38t-27 -103q0 -53 23.5 -92t64.5 -39q39 0 69 12z" />
    <glyph glyph-name="adieresis" unicode="&#xe4;" horiz-adv-x="888" 
d="M193 633h-119v248q61 32 180.5 56t196.5 24q157 0 247 -82.5t90 -233.5v-541l93 -59v-45h-349l-40 137q-26 -30 -44 -48.5t-52 -47t-72.5 -43t-79.5 -14.5q-94 0 -160 66t-66 181q0 137 107 204t289 67h73v184q0 199 -127 199q-10 0 -38 -8zM135 1202q0 53 32 87t81 34
q48 0 81 -34.5t33 -86.5q0 -49 -33.5 -83t-80.5 -34q-49 0 -81 33.5t-32 83.5zM481 1202q0 53 32 87t83 34q46 0 78.5 -34.5t32.5 -86.5q0 -49 -32.5 -83t-78.5 -34q-50 0 -82.5 33.5t-32.5 83.5zM487 176v260h-49q-54 0 -81 -38t-27 -103q0 -53 23.5 -92t64.5 -39
q39 0 69 12z" />
    <glyph glyph-name="aring" unicode="&#xe5;" horiz-adv-x="888" 
d="M193 633h-119v248q61 32 180.5 56t196.5 24q157 0 247 -82.5t90 -233.5v-541l93 -59v-45h-349l-40 137q-26 -30 -44 -48.5t-52 -47t-72.5 -43t-79.5 -14.5q-94 0 -160 66t-66 181q0 137 107 204t289 67h73v184q0 199 -127 199q-10 0 -38 -8zM446 1065q-66 0 -114.5 41.5
t-48.5 116.5t48.5 115t114.5 40q68 0 119 -40.5t51 -114.5q0 -72 -51.5 -115t-118.5 -43zM487 176v260h-49q-54 0 -81 -38t-27 -103q0 -53 23.5 -92t64.5 -39q39 0 69 12zM446 1122q50 0 73.5 32.5t23.5 68.5q0 40 -26.5 68t-70.5 28q-49 0 -70.5 -29t-21.5 -67
q0 -47 27 -74t65 -27z" />
    <glyph glyph-name="ae" unicode="&#xe6;" horiz-adv-x="1372" 
d="M74 633v248h2q61 32 179.5 56t195.5 24q159 0 247 -91q123 91 275 91q183 0 286 -128.5t103 -355.5h-547q4 -166 75.5 -245.5t174.5 -79.5q118 0 238 57l18 -25q-58 -82 -167 -141t-226 -59q-238 0 -346 166q-157 -166 -338 -166q-96 0 -161 61.5t-65 175.5
q0 137 116 209t298 72h74v184q0 94 -39.5 146.5t-106.5 52.5q-10 0 -38 -8l-129 -244h-119zM815 547l225 20q-1 44 -2 75t-4.5 71.5t-10.5 67.5t-17.5 52t-27 37.5t-38.5 12.5q-66 0 -93 -83.5t-32 -252.5zM436 164q70 0 113 43q-16 46 -23 70t-13.5 66.5t-6.5 92.5h-49
q-58 0 -90.5 -31.5t-32.5 -115.5q0 -66 25.5 -95.5t76.5 -29.5z" />
    <glyph glyph-name="ccedilla" unicode="&#xe7;" horiz-adv-x="862" 
d="M727 582l-137 286q-10 2 -27 2q-70 0 -117.5 -52.5t-66.5 -128.5t-19 -171q0 -158 62.5 -268.5t161.5 -110.5q71 0 120 14.5t113 55.5l19 -27q-42 -68 -135 -127t-197 -69l-8 -23q82 -21 124 -72t42 -122q0 -83 -68 -144t-178 -61q-92 0 -152 45l31 72q66 -46 137 -46
q44 0 71 33t27 82q0 53 -42 87.5t-115 45.5l47 103q-167 14 -272 137.5t-105 320.5q0 114 36.5 212t98.5 164t143.5 103.5t170.5 37.5q186 0 337 -95v-284h-102z" />
    <glyph glyph-name="egrave" unicode="&#xe8;" horiz-adv-x="911" 
d="M899 477h-537q3 -167 71.5 -246t170.5 -79q115 0 238 57l16 -25q-56 -82 -165 -141t-226 -59q-194 0 -309 117.5t-115 342.5q0 121 39.5 221t106 163.5t150 98t173.5 34.5q183 0 285 -128t102 -356zM479 883q-34 0 -57.5 -22.5t-36 -69t-17.5 -104t-6 -140.5l218 20
q-1 53 -2.5 90.5t-8 83.5t-16.5 74.5t-29 48t-45 19.5zM240 1249l120 148l269 -322l-19 -26z" />
    <glyph glyph-name="eacute" unicode="&#xe9;" horiz-adv-x="911" 
d="M899 477h-537q3 -167 71.5 -246t170.5 -79q115 0 238 57l16 -25q-56 -82 -165 -141t-226 -59q-194 0 -309 117.5t-115 342.5q0 121 39.5 221t106 163.5t150 98t173.5 34.5q183 0 285 -128t102 -356zM479 883q-34 0 -57.5 -22.5t-36 -69t-17.5 -104t-6 -140.5l218 20
q-1 53 -2.5 90.5t-8 83.5t-16.5 74.5t-29 48t-45 19.5zM694 1397l121 -148l-371 -196l-18 22z" />
    <glyph glyph-name="ecircumflex" unicode="&#xea;" horiz-adv-x="911" 
d="M899 477h-537q3 -167 71.5 -246t170.5 -79q115 0 238 57l16 -25q-56 -82 -165 -141t-226 -59q-194 0 -309 117.5t-115 342.5q0 121 39.5 221t106 163.5t150 98t173.5 34.5q183 0 285 -128t102 -356zM475 1374h62l213 -303l-25 -31l-233 150l-226 -152l-26 25zM479 883
q-34 0 -57.5 -22.5t-36 -69t-17.5 -104t-6 -140.5l218 20q-1 53 -2.5 90.5t-8 83.5t-16.5 74.5t-29 48t-45 19.5z" />
    <glyph glyph-name="edieresis" unicode="&#xeb;" horiz-adv-x="911" 
d="M899 477h-537q3 -167 71.5 -246t170.5 -79q115 0 238 57l16 -25q-56 -82 -165 -141t-226 -59q-194 0 -309 117.5t-115 342.5q0 121 39.5 221t106 163.5t150 98t173.5 34.5q183 0 285 -128t102 -356zM479 883q-34 0 -57.5 -22.5t-36 -69t-17.5 -104t-6 -140.5l218 20
q-1 53 -2.5 90.5t-8 83.5t-16.5 74.5t-29 48t-45 19.5zM227 1202q0 53 32 87t81 34q48 0 81.5 -34.5t33.5 -86.5q0 -49 -33.5 -83t-81.5 -34q-49 0 -81 33.5t-32 83.5zM573 1202q0 53 32 87t83 34q46 0 78.5 -34.5t32.5 -86.5q0 -49 -32.5 -83t-78.5 -34q-50 0 -82.5 33.5
t-32.5 83.5z" />
    <glyph glyph-name="igrave" unicode="&#xec;" horiz-adv-x="555" 
d="M35 0v39l106 24v758h-123v45l289 95h127v-893l109 -27v-41h-508zM41 1249l121 148l268 -322l-18 -26z" />
    <glyph glyph-name="iacute" unicode="&#xed;" horiz-adv-x="555" 
d="M35 0v39l106 24v758h-123v45l289 95h127v-893l109 -27v-41h-508zM451 1397l120 -148l-370 -196l-19 22z" />
    <glyph glyph-name="icircumflex" unicode="&#xee;" horiz-adv-x="555" 
d="M35 0v39l106 24v758h-123v45l289 95h127v-893l109 -27v-41h-508zM262 1374h62l213 -303l-25 -31l-233 150l-226 -152l-26 25z" />
    <glyph glyph-name="idieresis" unicode="&#xef;" horiz-adv-x="555" 
d="M35 0v39l106 24v758h-123v45l289 95h127v-893l109 -27v-41h-508zM0 1202q0 53 32 87t81 34q48 0 81 -34.5t33 -86.5q0 -49 -33.5 -83t-80.5 -34q-49 0 -81 33.5t-32 83.5zM346 1202q0 53 32 87t83 34q46 0 78 -34.5t32 -86.5q0 -49 -32 -83t-78 -34q-50 0 -82.5 33.5
t-32.5 83.5z" />
    <glyph glyph-name="eth" unicode="&#xf0;" horiz-adv-x="974" 
d="M307 1036l-57 49l127 150q-65 56 -162 104l37 68q125 -43 201 -82l114 135l58 -53l-103 -119q96 -56 168.5 -126t127 -161t82.5 -207t28 -255q0 -257 -120 -406t-331 -149q-434 0 -434 467q0 125 41.5 226t108 161t144 91.5t155.5 31.5q15 0 67 -9q-40 130 -127 230z
M606 524q0 211 -20 328q-56 29 -113 29q-24 0 -42.5 -15t-30 -44.5t-19 -62.5t-11 -81.5t-4.5 -88.5t-1 -95q0 -426 124 -426q67 0 92 118t25 338z" />
    <glyph glyph-name="ntilde" unicode="&#xf1;" horiz-adv-x="1087" 
d="M33 0v39l104 24v758h-119v45l289 95h70l51 -140q73 72 144 106t153 34q113 0 187.5 -87t74.5 -266v-545l90 -22v-41h-491v39l100 24v488q0 127 -40 182t-120 55q-36 0 -90 -14v-711l88 -22v-41h-491zM670 1128q-57 0 -120.5 20.5t-103.5 20.5t-102 -65l-37 37
q77 145 172 145q44 0 122 -22.5t93 -22.5q29 0 57 14.5t41 28.5l13 14l37 -36q-22 -46 -70.5 -90t-101.5 -44z" />
    <glyph glyph-name="ograve" unicode="&#xf2;" horiz-adv-x="970" 
d="M928 461q0 -123 -37 -217t-101.5 -149.5t-143.5 -83t-169 -27.5q-77 0 -138.5 12t-118.5 43.5t-94.5 83t-60 134.5t-22.5 194q0 126 38 226.5t102.5 160.5t143 91.5t165.5 31.5q101 0 178.5 -26t136.5 -83.5t90 -155.5t31 -235zM606 436q0 443 -133 443q-108 0 -108 -385
q0 -95 5 -165.5t18 -133.5t38 -96t63 -33q27 0 47 14.5t32.5 43.5t20.5 60t11.5 78.5t4.5 84t1 89.5zM209 1249l121 148l268 -322l-18 -26z" />
    <glyph glyph-name="oacute" unicode="&#xf3;" horiz-adv-x="970" 
d="M928 461q0 -123 -37 -217t-101.5 -149.5t-143.5 -83t-169 -27.5q-77 0 -138.5 12t-118.5 43.5t-94.5 83t-60 134.5t-22.5 194q0 126 38 226.5t102.5 160.5t143 91.5t165.5 31.5q101 0 178.5 -26t136.5 -83.5t90 -155.5t31 -235zM606 436q0 443 -133 443q-108 0 -108 -385
q0 -95 5 -165.5t18 -133.5t38 -96t63 -33q27 0 47 14.5t32.5 43.5t20.5 60t11.5 78.5t4.5 84t1 89.5zM694 1397l121 -148l-371 -196l-18 22z" />
    <glyph glyph-name="ocircumflex" unicode="&#xf4;" horiz-adv-x="970" 
d="M928 461q0 -123 -37 -217t-101.5 -149.5t-143.5 -83t-169 -27.5q-77 0 -138.5 12t-118.5 43.5t-94.5 83t-60 134.5t-22.5 194q0 126 38 226.5t102.5 160.5t143 91.5t165.5 31.5q101 0 178.5 -26t136.5 -83.5t90 -155.5t31 -235zM606 436q0 443 -133 443q-108 0 -108 -385
q0 -95 5 -165.5t18 -133.5t38 -96t63 -33q27 0 47 14.5t32.5 43.5t20.5 60t11.5 78.5t4.5 84t1 89.5zM487 1364h62l213 -303l-25 -31l-233 150l-225 -152l-27 25z" />
    <glyph glyph-name="otilde" unicode="&#xf5;" horiz-adv-x="970" 
d="M928 461q0 -123 -37 -217t-101.5 -149.5t-143.5 -83t-169 -27.5q-77 0 -138.5 12t-118.5 43.5t-94.5 83t-60 134.5t-22.5 194q0 126 38 226.5t102.5 160.5t143 91.5t165.5 31.5q101 0 178.5 -26t136.5 -83.5t90 -155.5t31 -235zM606 436q0 443 -133 443q-108 0 -108 -385
q0 -95 5 -165.5t18 -133.5t38 -96t63 -33q27 0 47 14.5t32.5 43.5t20.5 60t11.5 78.5t4.5 84t1 89.5zM604 1128q-57 0 -120 20.5t-103 20.5t-102 -65l-37 37q77 145 172 145q44 0 122 -22.5t93 -22.5q29 0 56.5 14.5t40.5 28.5l13 14l37 -36q-22 -46 -70.5 -90t-101.5 -44z
" />
    <glyph glyph-name="odieresis" unicode="&#xf6;" horiz-adv-x="970" 
d="M928 461q0 -123 -37 -217t-101.5 -149.5t-143.5 -83t-169 -27.5q-77 0 -138.5 12t-118.5 43.5t-94.5 83t-60 134.5t-22.5 194q0 126 38 226.5t102.5 160.5t143 91.5t165.5 31.5q101 0 178.5 -26t136.5 -83.5t90 -155.5t31 -235zM606 436q0 443 -133 443q-108 0 -108 -385
q0 -95 5 -165.5t18 -133.5t38 -96t63 -33q27 0 47 14.5t32.5 43.5t20.5 60t11.5 78.5t4.5 84t1 89.5zM213 1202q0 53 32 87t81 34q48 0 81 -34.5t33 -86.5q0 -49 -33.5 -83t-80.5 -34q-49 0 -81 33.5t-32 83.5zM559 1202q0 53 32 87t83 34q46 0 78 -34.5t32 -86.5
q0 -49 -32 -83t-78 -34q-50 0 -82.5 33.5t-32.5 83.5z" />
    <glyph glyph-name="divide" unicode="&#xf7;" horiz-adv-x="890" 
d="M831 567h-772v92h772v-92zM301 918q0 63 38.5 105t98.5 42q59 0 99.5 -42t40.5 -105q0 -60 -41 -102t-99 -42q-59 0 -98 41.5t-39 102.5zM301 303q0 63 38.5 105.5t98.5 42.5q59 0 99.5 -42.5t40.5 -105.5q0 -60 -40.5 -101.5t-99.5 -41.5t-98 41t-39 102z" />
    <glyph glyph-name="oslash" unicode="&#xf8;" horiz-adv-x="970" 
d="M928 461q0 -123 -37 -217t-101.5 -149.5t-143.5 -83t-169 -27.5q-178 0 -278 67l-54 -67h-96l94 116q-100 114 -100 351q0 126 38 226.5t102.5 160.5t143 91.5t165.5 31.5q173 0 276 -76l61 76h99l-105 -130q105 -127 105 -370zM606 436q0 78 -2 119l-229 -285
q23 -204 114 -204q27 0 47 14.5t32.5 43.5t20.5 60t11.5 78.5t4.5 84t1 89.5zM365 494q0 -78 2 -113l227 285q-29 213 -121 213q-108 0 -108 -385z" />
    <glyph glyph-name="ugrave" unicode="&#xf9;" horiz-adv-x="1062" 
d="M702 0l-38 127q-73 -74 -137.5 -107.5t-145.5 -33.5q-113 0 -187.5 86.5t-74.5 265.5v483h-119v45l289 95h129v-566q0 -127 41 -182t123 -55q37 0 75 14v649h-118v45l288 95h127v-857l93 -59v-45h-345zM305 1249l121 148l268 -322l-18 -26z" />
    <glyph glyph-name="uacute" unicode="&#xfa;" horiz-adv-x="1062" 
d="M702 0l-38 127q-73 -74 -137.5 -107.5t-145.5 -33.5q-113 0 -187.5 86.5t-74.5 265.5v483h-119v45l289 95h129v-566q0 -127 41 -182t123 -55q37 0 75 14v649h-118v45l288 95h127v-857l93 -59v-45h-345zM764 1397l121 -148l-371 -196l-18 22z" />
    <glyph glyph-name="ucircumflex" unicode="&#xfb;" horiz-adv-x="1062" 
d="M702 0l-38 127q-73 -74 -137.5 -107.5t-145.5 -33.5q-113 0 -187.5 86.5t-74.5 265.5v483h-119v45l289 95h129v-566q0 -127 41 -182t123 -55q37 0 75 14v649h-118v45l288 95h127v-857l93 -59v-45h-345zM555 1374h61l213 -303l-24 -31l-234 150l-225 -152l-27 25z" />
    <glyph glyph-name="udieresis" unicode="&#xfc;" horiz-adv-x="1062" 
d="M702 0l-38 127q-73 -74 -137.5 -107.5t-145.5 -33.5q-113 0 -187.5 86.5t-74.5 265.5v483h-119v45l289 95h129v-566q0 -127 41 -182t123 -55q37 0 75 14v649h-118v45l288 95h127v-857l93 -59v-45h-345zM295 1202q0 53 32 87t81 34q48 0 81 -34.5t33 -86.5
q0 -49 -33.5 -83t-80.5 -34q-49 0 -81 33.5t-32 83.5zM641 1202q0 53 32 87t83 34q46 0 78 -34.5t32 -86.5q0 -49 -32 -83t-78 -34q-50 0 -82.5 33.5t-32.5 83.5z" />
    <glyph glyph-name="yacute" unicode="&#xfd;" horiz-adv-x="950" 
d="M524 0l-149 -424h-193v35l230 342l-355 928l-75 18v41h510v-39l-127 -31l186 -581l207 542l-152 68v41h361v-39l-105 -47zM700 1397l121 -148l-370 -196l-19 22z" />
    <glyph glyph-name="thorn" unicode="&#xfe;" horiz-adv-x="1034" 
d="M6 -426v39l119 29v1658h-125v46l289 94h133v-559q107 80 221 80q161 0 254.5 -114t93.5 -341q0 -123 -43 -224.5t-113.5 -165t-158 -98t-180.5 -34.5q-12 0 -36.5 1t-37.5 1v-342l133 -29v-41h-549zM463 827q-17 0 -41 -4v-753q31 -9 43 -9q58 0 99 30.5t63 88.5
t31.5 128.5t9.5 162.5q0 152 -57 254t-148 102z" />
    <glyph glyph-name="ydieresis" unicode="&#xff;" horiz-adv-x="950" 
d="M524 0l-149 -424h-193v35l230 342l-355 928l-75 18v41h510v-39l-127 -31l186 -581l207 542l-152 68v41h361v-39l-105 -47zM256 1204q0 53 32 87t81 34q48 0 81 -34.5t33 -86.5q0 -49 -33.5 -83t-80.5 -34q-49 0 -81 33.5t-32 83.5zM602 1204q0 53 32 87t83 34
q46 0 78 -34.5t32 -86.5q0 -49 -32 -83t-78 -34q-50 0 -82.5 33.5t-32.5 83.5z" />
    <glyph glyph-name="Amacron" unicode="&#x100;" horiz-adv-x="1114" 
d="M633 0v39l94 18l-96 291h-342l-90 -256l194 -51v-41h-399v39l110 49l404 1106h178l371 -1139l63 -14v-41h-487zM459 838l-146 -416h293l-137 416h-10zM840 1341h-478v105h478v-105z" />
    <glyph glyph-name="amacron" unicode="&#x101;" horiz-adv-x="888" 
d="M193 633h-119v248q61 32 180.5 56t196.5 24q157 0 247 -82.5t90 -233.5v-541l93 -59v-45h-349l-40 137q-26 -30 -44 -48.5t-52 -47t-72.5 -43t-79.5 -14.5q-94 0 -160 66t-66 181q0 137 107 204t289 67h73v184q0 199 -127 199q-10 0 -38 -8zM688 1141h-479v98h479v-98z
M487 176v260h-49q-54 0 -81 -38t-27 -103q0 -53 23.5 -92t64.5 -39q39 0 69 12z" />
    <glyph glyph-name="Abreve" unicode="&#x102;" horiz-adv-x="1114" 
d="M633 0v39l94 18l-96 291h-342l-90 -256l194 -51v-41h-399v39l110 49l404 1106h178l371 -1139l63 -14v-41h-487zM459 838l-146 -416h293l-137 416h-10zM606 1292q-59 0 -111 18t-82.5 43t-48 44.5t-20.5 29.5l78 64q11 -16 29.5 -33t63.5 -37t97 -20q49 0 94.5 19t65.5 36
t31 31l24 -35q-8 -18 -24.5 -41.5t-43.5 -52t-68 -47.5t-85 -19z" />
    <glyph glyph-name="abreve" unicode="&#x103;" horiz-adv-x="888" 
d="M193 633h-119v248q61 32 180.5 56t196.5 24q157 0 247 -82.5t90 -233.5v-541l93 -59v-45h-349l-40 137q-26 -30 -44 -48.5t-52 -47t-72.5 -43t-79.5 -14.5q-94 0 -160 66t-66 181q0 137 107 204t289 67h73v184q0 199 -127 199q-10 0 -38 -8zM459 1100q-60 0 -114.5 19.5
t-88.5 46.5t-54 48t-24 31l94 74q78 -100 189 -100q74 0 134.5 34.5t76.5 59.5l37 -17q-15 -63 -86.5 -129.5t-163.5 -66.5zM487 176v260h-49q-54 0 -81 -38t-27 -103q0 -53 23.5 -92t64.5 -39q39 0 69 12z" />
    <glyph glyph-name="Aogonek" unicode="&#x104;" horiz-adv-x="1114" 
d="M-6 0v39l110 49l404 1106h178l371 -1139l63 -14v-41h-172q-106 -72 -106 -199q0 -72 38 -109.5t107 -37.5q64 0 115 29l26 -64q-75 -43 -188 -43q-105 0 -164 51t-59 158q0 131 117 215h-201v39l94 18l-96 291h-342l-90 -256l194 -51v-41h-399zM459 838l-146 -416h293
l-137 416h-10z" />
    <glyph glyph-name="aogonek" unicode="&#x105;" horiz-adv-x="888" 
d="M881 45v-45h-123q-82 -38 -131 -101t-49 -130q0 -66 36 -102t103 -36q50 0 94 21l23 -60q-59 -34 -168 -34q-85 0 -149 51.5t-64 142.5q0 152 184 248h-105l-40 137q-26 -30 -44 -48.5t-52 -47t-72.5 -43t-79.5 -14.5q-94 0 -160 66t-66 181q0 137 107 204t289 67h73v184
q0 199 -127 199q-10 0 -38 -8l-129 -244h-119v248q61 32 180.5 56t196.5 24q157 0 247 -82.5t90 -233.5v-541zM487 176v260h-49q-54 0 -81 -38t-27 -103q0 -53 23.5 -92t64.5 -39q39 0 69 12z" />
    <glyph glyph-name="Cacute" unicode="&#x106;" horiz-adv-x="1075" 
d="M1028 829h-65l-146 291q-49 17 -96 17q-76 0 -134 -40.5t-93.5 -114t-53.5 -169.5t-18 -213q0 -537 303 -537q76 0 154.5 62.5t109.5 138.5h39v-194q-53 -35 -154.5 -60.5t-199.5 -25.5q-97 0 -184 18t-168 61t-139 108t-93 165t-35 225q0 161 49.5 286.5t137.5 204.5
t205.5 119.5t257.5 40.5q86 0 179 -22t144 -45v-316zM897 1528l74 -172l-406 -86l-14 33z" />
    <glyph glyph-name="cacute" unicode="&#x107;" horiz-adv-x="862" 
d="M727 582l-137 286q-10 2 -27 2q-70 0 -117.5 -52.5t-66.5 -128.5t-19 -171q0 -158 62.5 -268.5t161.5 -110.5q71 0 120 14.5t113 55.5l19 -27q-45 -76 -151 -137t-222 -61q-185 0 -302.5 125t-117.5 335q0 114 36.5 212t98.5 164t143.5 103.5t170.5 37.5q186 0 337 -95
v-284h-102zM649 1397l121 -148l-371 -196l-18 22z" />
    <glyph glyph-name="Ccircumflex" unicode="&#x108;" horiz-adv-x="1075" 
d="M1028 829h-65l-146 291q-49 17 -96 17q-76 0 -134 -40.5t-93.5 -114t-53.5 -169.5t-18 -213q0 -537 303 -537q76 0 154.5 62.5t109.5 138.5h39v-194q-53 -35 -154.5 -60.5t-199.5 -25.5q-97 0 -184 18t-168 61t-139 108t-93 165t-35 225q0 161 49.5 286.5t137.5 204.5
t205.5 119.5t257.5 40.5q86 0 179 -22t144 -45v-316zM952 1247l-245 123l-246 -119l-23 33l281 258l260 -258z" />
    <glyph glyph-name="ccircumflex" unicode="&#x109;" horiz-adv-x="862" 
d="M727 582l-137 286q-10 2 -27 2q-70 0 -117.5 -52.5t-66.5 -128.5t-19 -171q0 -158 62.5 -268.5t161.5 -110.5q71 0 120 14.5t113 55.5l19 -27q-45 -76 -151 -137t-222 -61q-185 0 -302.5 125t-117.5 335q0 114 36.5 212t98.5 164t143.5 103.5t170.5 37.5q186 0 337 -95
v-284h-102zM512 1374h61l213 -303l-24 -31l-234 150l-225 -152l-27 25z" />
    <glyph glyph-name="Cdotaccent" unicode="&#x10a;" horiz-adv-x="1075" 
d="M1028 829h-65l-146 291q-49 17 -96 17q-76 0 -134 -40.5t-93.5 -114t-53.5 -169.5t-18 -213q0 -537 303 -537q76 0 154.5 62.5t109.5 138.5h39v-194q-53 -35 -154.5 -60.5t-199.5 -25.5q-97 0 -184 18t-168 61t-139 108t-93 165t-35 225q0 161 49.5 286.5t137.5 204.5
t205.5 119.5t257.5 40.5q86 0 179 -22t144 -45v-316zM586 1415q0 63 34 98t89 35t91 -35.5t36 -97.5q0 -57 -32.5 -93t-94.5 -36q-59 0 -91 36t-32 93z" />
    <glyph glyph-name="cdotaccent" unicode="&#x10b;" horiz-adv-x="862" 
d="M727 582l-137 286q-10 2 -27 2q-70 0 -117.5 -52.5t-66.5 -128.5t-19 -171q0 -158 62.5 -268.5t161.5 -110.5q71 0 120 14.5t113 55.5l19 -27q-45 -76 -151 -137t-222 -61q-185 0 -302.5 125t-117.5 335q0 114 36.5 212t98.5 164t143.5 103.5t170.5 37.5q186 0 337 -95
v-284h-102zM393 1237q0 63 34 98t89 35t91 -35.5t36 -97.5q0 -57 -32.5 -93t-94.5 -36q-59 0 -91 36t-32 93z" />
    <glyph glyph-name="Ccaron" unicode="&#x10c;" horiz-adv-x="1075" 
d="M1028 829h-65l-146 291q-49 17 -96 17q-76 0 -134 -40.5t-93.5 -114t-53.5 -169.5t-18 -213q0 -537 303 -537q76 0 154.5 62.5t109.5 138.5h39v-194q-53 -35 -154.5 -60.5t-199.5 -25.5q-97 0 -184 18t-168 61t-139 108t-93 165t-35 225q0 161 49.5 286.5t137.5 204.5
t205.5 119.5t257.5 40.5q86 0 179 -22t144 -45v-316zM715 1255h-62l-219 209l21 35l243 -98l238 92l20 -31z" />
    <glyph glyph-name="ccaron" unicode="&#x10d;" horiz-adv-x="862" 
d="M727 582l-137 286q-10 2 -27 2q-70 0 -117.5 -52.5t-66.5 -128.5t-19 -171q0 -158 62.5 -268.5t161.5 -110.5q71 0 120 14.5t113 55.5l19 -27q-45 -76 -151 -137t-222 -61q-185 0 -302.5 125t-117.5 335q0 114 36.5 212t98.5 164t143.5 103.5t170.5 37.5q186 0 337 -95
v-284h-102zM528 1063h-61l-244 305l25 31l264 -168l248 176l24 -27z" />
    <glyph glyph-name="Dcaron" unicode="&#x10e;" horiz-adv-x="1251" 
d="M37 0v39l119 24v1063l-119 27v41h524q109 0 196 -13.5t171.5 -51.5t141.5 -99.5t91.5 -164t34.5 -238.5q0 -151 -49 -272t-134.5 -197.5t-198.5 -117t-245 -40.5h-532zM530 1122h-41v-1044h31q114 0 179 45.5t96.5 158t31.5 314.5q0 283 -67.5 404.5t-229.5 121.5z
M662 1255h-62l-219 209l20 35l244 -98l238 92l20 -31z" />
    <glyph glyph-name="dcaron" unicode="&#x10f;" horiz-adv-x="1105" 
d="M666 0l-31 106q-95 -122 -254 -122q-155 0 -246.5 125t-91.5 335q0 114 37 212t99 164t144 103.5t171 37.5q58 0 127 -27v366h-125v46l288 94h123v-1336l97 -59v-45h-338zM549 145q29 0 72 17v708q-38 9 -76 9q-79 0 -131 -100t-52 -273q0 -153 50.5 -257t136.5 -104z
M1051 1063h-52v377h181z" />
    <glyph glyph-name="Dcroat" unicode="&#x110;" horiz-adv-x="1251" 
d="M33 596v66h123v464l-119 27v41h524q109 0 196 -13.5t171.5 -51.5t141.5 -99.5t91.5 -164t34.5 -238.5q0 -151 -49 -272t-134.5 -197.5t-198.5 -117t-245 -40.5h-532v39l119 24v533h-123zM618 596h-129v-518h31q114 0 179 45.5t96.5 158t31.5 314.5q0 283 -67.5 404.5
t-229.5 121.5h-41v-460h129v-66z" />
    <glyph glyph-name="dcroat" unicode="&#x111;" horiz-adv-x="1015" 
d="M381 -16q-155 0 -246.5 125t-91.5 335q0 114 37 212t99 164t144 103.5t171 37.5q58 0 127 -27v151h-252v66h252v149h-125v46l288 94h123v-289h90v-66h-90v-981l97 -59v-45h-338l-31 106q-95 -122 -254 -122zM549 145q29 0 72 17v708q-38 9 -76 9q-79 0 -131 -100
t-52 -273q0 -153 50.5 -257t136.5 -104z" />
    <glyph glyph-name="Emacron" unicode="&#x112;" horiz-adv-x="991" 
d="M844 561l-355 6v-491h248l178 295l56 -9l-53 -362h-881v39l121 24v1063l-121 27v41h885v-332h-56l-133 258h-244v-467l355 9v-101zM819 1341h-477v105h477v-105z" />
    <glyph glyph-name="emacron" unicode="&#x113;" horiz-adv-x="911" 
d="M899 477h-537q3 -167 71.5 -246t170.5 -79q115 0 238 57l16 -25q-56 -82 -165 -141t-226 -59q-194 0 -309 117.5t-115 342.5q0 121 39.5 221t106 163.5t150 98t173.5 34.5q183 0 285 -128t102 -356zM479 883q-34 0 -57.5 -22.5t-36 -69t-17.5 -104t-6 -140.5l218 20
q-1 53 -2.5 90.5t-8 83.5t-16.5 74.5t-29 48t-45 19.5zM748 1141h-480v98h480v-98z" />
    <glyph glyph-name="Ebreve" unicode="&#x114;" horiz-adv-x="991" 
d="M844 561l-355 6v-491h248l178 295l56 -9l-53 -362h-881v39l121 24v1063l-121 27v41h885v-332h-56l-133 258h-244v-467l355 9v-101zM588 1292q-59 0 -111 18t-82.5 43t-48 44.5t-20.5 29.5l77 64q11 -16 30 -33t64 -37t97 -20q49 0 94 19t65 36t31 31l25 -35
q-8 -18 -24.5 -41.5t-43.5 -52t-68 -47.5t-85 -19z" />
    <glyph glyph-name="ebreve" unicode="&#x115;" horiz-adv-x="911" 
d="M899 477h-537q3 -167 71.5 -246t170.5 -79q115 0 238 57l16 -25q-56 -82 -165 -141t-226 -59q-194 0 -309 117.5t-115 342.5q0 121 39.5 221t106 163.5t150 98t173.5 34.5q183 0 285 -128t102 -356zM479 883q-34 0 -57.5 -22.5t-36 -69t-17.5 -104t-6 -140.5l218 20
q-1 53 -2.5 90.5t-8 83.5t-16.5 74.5t-29 48t-45 19.5zM528 1100q-60 0 -114.5 19.5t-88 46.5t-53.5 48t-24 31l94 74q78 -100 188 -100q74 0 134.5 34.5t76.5 59.5l37 -17q-15 -63 -86.5 -129.5t-163.5 -66.5z" />
    <glyph glyph-name="Edotaccent" unicode="&#x116;" horiz-adv-x="991" 
d="M844 561l-355 6v-491h248l178 295l56 -9l-53 -362h-881v39l121 24v1063l-121 27v41h885v-332h-56l-133 258h-244v-467l355 9v-101zM444 1413q0 63 34 98t89 35t91 -35.5t36 -97.5q0 -57 -32.5 -93t-94.5 -36q-59 0 -91 36t-32 93z" />
    <glyph glyph-name="edotaccent" unicode="&#x117;" horiz-adv-x="911" 
d="M899 477h-537q3 -167 71.5 -246t170.5 -79q115 0 238 57l16 -25q-56 -82 -165 -141t-226 -59q-194 0 -309 117.5t-115 342.5q0 121 39.5 221t106 163.5t150 98t173.5 34.5q183 0 285 -128t102 -356zM479 883q-34 0 -57.5 -22.5t-36 -69t-17.5 -104t-6 -140.5l218 20
q-1 53 -2.5 90.5t-8 83.5t-16.5 74.5t-29 48t-45 19.5zM381 1237q0 63 34 98t89 35t91 -35.5t36 -97.5q0 -57 -32.5 -93t-94.5 -36q-59 0 -91 36t-32 93z" />
    <glyph glyph-name="Eogonek" unicode="&#x118;" horiz-adv-x="991" 
d="M844 561l-355 6v-491h248l178 295l56 -9l-53 -362h-64q-77 -39 -123.5 -101.5t-46.5 -129.5q0 -66 34.5 -102t98.5 -36q48 0 88 21l23 -60q-57 -34 -160 -34q-82 0 -142.5 51.5t-60.5 142.5q0 152 174 248h-702v39l121 24v1063l-121 27v41h885v-332h-56l-133 258h-244
v-467l355 9v-101z" />
    <glyph glyph-name="eogonek" unicode="&#x119;" horiz-adv-x="911" 
d="M633 -348l22 -60q-57 -34 -159 -34q-82 0 -142.5 51.5t-60.5 142.5q0 138 147 232q-183 8 -290 125t-107 335q0 121 39.5 221t106 163.5t150 98t173.5 34.5q183 0 285 -128t102 -356h-537q3 -167 71.5 -246t170.5 -79q115 0 238 57l16 -25q-41 -62 -116 -112.5
t-162 -71.5q-77 -40 -122.5 -102t-45.5 -129q0 -66 34.5 -102t98.5 -36q48 0 88 21zM479 883q-34 0 -57.5 -22.5t-36 -69t-17.5 -104t-6 -140.5l218 20q-1 53 -2.5 90.5t-8 83.5t-16.5 74.5t-29 48t-45 19.5z" />
    <glyph glyph-name="Ecaron" unicode="&#x11a;" horiz-adv-x="991" 
d="M844 561l-355 6v-491h248l178 295l56 -9l-53 -362h-881v39l121 24v1063l-121 27v41h885v-332h-56l-133 258h-244v-467l355 9v-101zM598 1255h-61l-220 209l21 35l244 -98l237 92l21 -31z" />
    <glyph glyph-name="ecaron" unicode="&#x11b;" horiz-adv-x="911" 
d="M899 477h-537q3 -167 71.5 -246t170.5 -79q115 0 238 57l16 -25q-56 -82 -165 -141t-226 -59q-194 0 -309 117.5t-115 342.5q0 121 39.5 221t106 163.5t150 98t173.5 34.5q183 0 285 -128t102 -356zM520 1063h-61l-244 305l25 31l264 -168l248 176l24 -27zM479 883
q-34 0 -57.5 -22.5t-36 -69t-17.5 -104t-6 -140.5l218 20q-1 53 -2.5 90.5t-8 83.5t-16.5 74.5t-29 48t-45 19.5z" />
    <glyph glyph-name="Gcircumflex" unicode="&#x11c;" horiz-adv-x="1144" 
d="M977 829l-148 293q-49 15 -94 15q-144 0 -228.5 -151t-84.5 -386q0 -539 303 -539h14l6 467l-106 23v39h424v-520q-51 -34 -169.5 -60t-219.5 -26q-121 0 -229 34t-196.5 101.5t-141 181t-52.5 260.5q0 204 86 353t232 223.5t332 74.5q87 0 187.5 -22.5t149.5 -44.5v-316
h-65zM961 1245l-246 123l-246 -119l-23 33l281 258l260 -258z" />
    <glyph glyph-name="gcircumflex" unicode="&#x11d;" horiz-adv-x="952" 
d="M451 360q-52 0 -113 7l-29 -93l228 -16q186 -16 281 -90.5t95 -222.5q0 -73 -40.5 -145t-108.5 -128t-165 -90.5t-204 -34.5q-195 0 -295 74t-100 197q0 81 64.5 141.5t160.5 93.5l-129 27v98l203 197q-246 50 -246 270q0 99 55.5 172t142 108.5t189.5 35.5
q113 0 201.5 -33.5t140.5 -96.5l144 130h20v-177h-131q31 -60 31 -135q0 -86 -57 -153t-146 -101.5t-192 -34.5zM240 -111q0 -120 54 -177.5t142 -57.5q112 0 163.5 57.5t51.5 141.5q0 65 -40 97.5t-148 55.5l-180 37q-43 -59 -43 -154zM444 436q27 0 45 17t26 49t10.5 63
t2.5 74q0 123 -20.5 182.5t-71.5 59.5q-52 0 -69 -54.5t-17 -164.5q0 -47 3.5 -82.5t12.5 -70.5t29 -54t49 -19zM449 1374h61l213 -303l-25 -31l-233 150l-225 -152l-27 25z" />
    <glyph glyph-name="Gbreve" unicode="&#x11e;" horiz-adv-x="1144" 
d="M977 829l-148 293q-49 15 -94 15q-144 0 -228.5 -151t-84.5 -386q0 -539 303 -539h14l6 467l-106 23v39h424v-520q-51 -34 -169.5 -60t-219.5 -26q-121 0 -229 34t-196.5 101.5t-141 181t-52.5 260.5q0 204 86 353t232 223.5t332 74.5q87 0 187.5 -22.5t149.5 -44.5v-316
h-65zM707 1290q-59 0 -111 18t-83 43t-48.5 44.5t-20.5 29.5l78 64q11 -16 30 -33t64 -37t97 -20q49 0 94 19t65 36t31 31l25 -35q-8 -18 -24.5 -41.5t-43.5 -52t-68 -47.5t-85 -19z" />
    <glyph glyph-name="gbreve" unicode="&#x11f;" horiz-adv-x="952" 
d="M451 360q-52 0 -113 7l-29 -93l228 -16q186 -16 281 -90.5t95 -222.5q0 -73 -40.5 -145t-108.5 -128t-165 -90.5t-204 -34.5q-195 0 -295 74t-100 197q0 81 64.5 141.5t160.5 93.5l-129 27v98l203 197q-246 50 -246 270q0 99 55.5 172t142 108.5t189.5 35.5
q113 0 201.5 -33.5t140.5 -96.5l144 130h20v-177h-131q31 -60 31 -135q0 -86 -57 -153t-146 -101.5t-192 -34.5zM240 -111q0 -120 54 -177.5t142 -57.5q112 0 163.5 57.5t51.5 141.5q0 65 -40 97.5t-148 55.5l-180 37q-43 -59 -43 -154zM444 436q27 0 45 17t26 49t10.5 63
t2.5 74q0 123 -20.5 182.5t-71.5 59.5q-52 0 -69 -54.5t-17 -164.5q0 -47 3.5 -82.5t12.5 -70.5t29 -54t49 -19zM481 1100q-60 0 -114.5 19.5t-88 46.5t-53.5 48t-24 31l94 74q78 -100 188 -100q74 0 134.5 34.5t76.5 59.5l37 -17q-15 -63 -86.5 -129.5t-163.5 -66.5z" />
    <glyph glyph-name="Gdotaccent" unicode="&#x120;" horiz-adv-x="1144" 
d="M977 829l-148 293q-49 15 -94 15q-144 0 -228.5 -151t-84.5 -386q0 -539 303 -539h14l6 467l-106 23v39h424v-520q-51 -34 -169.5 -60t-219.5 -26q-121 0 -229 34t-196.5 101.5t-141 181t-52.5 260.5q0 204 86 353t232 223.5t332 74.5q87 0 187.5 -22.5t149.5 -44.5v-316
h-65zM578 1415q0 63 33.5 98t88.5 35t91 -35.5t36 -97.5q0 -57 -32.5 -93t-94.5 -36q-59 0 -90.5 36t-31.5 93z" />
    <glyph glyph-name="gdotaccent" unicode="&#x121;" horiz-adv-x="952" 
d="M451 360q-52 0 -113 7l-29 -93l228 -16q186 -16 281 -90.5t95 -222.5q0 -73 -40.5 -145t-108.5 -128t-165 -90.5t-204 -34.5q-195 0 -295 74t-100 197q0 81 64.5 141.5t160.5 93.5l-129 27v98l203 197q-246 50 -246 270q0 99 55.5 172t142 108.5t189.5 35.5
q113 0 201.5 -33.5t140.5 -96.5l144 130h20v-177h-131q31 -60 31 -135q0 -86 -57 -153t-146 -101.5t-192 -34.5zM240 -111q0 -120 54 -177.5t142 -57.5q112 0 163.5 57.5t51.5 141.5q0 65 -40 97.5t-148 55.5l-180 37q-43 -59 -43 -154zM444 436q27 0 45 17t26 49t10.5 63
t2.5 74q0 123 -20.5 182.5t-71.5 59.5q-52 0 -69 -54.5t-17 -164.5q0 -47 3.5 -82.5t12.5 -70.5t29 -54t49 -19zM348 1237q0 63 34 98t89 35t91 -35.5t36 -97.5q0 -57 -32.5 -93t-94.5 -36q-59 0 -91 36t-32 93z" />
    <glyph glyph-name="Gcommaaccent" unicode="&#x122;" horiz-adv-x="1144" 
d="M1063 70q-51 -34 -169.5 -60t-219.5 -26q-121 0 -229 34t-196.5 101.5t-141 181t-52.5 260.5q0 204 86 353t232 223.5t332 74.5q87 0 187.5 -22.5t149.5 -44.5v-316h-65l-148 293q-49 15 -94 15q-144 0 -228.5 -151t-84.5 -386q0 -539 303 -539h14l6 467l-106 23v39h424
v-520zM604 -104h193l-158 -320h-57z" />
    <glyph glyph-name="gcommaaccent" unicode="&#x123;" horiz-adv-x="952" 
d="M451 360q-52 0 -113 7l-29 -93l228 -16q186 -16 281 -90.5t95 -222.5q0 -73 -40.5 -145t-108.5 -128t-165 -90.5t-204 -34.5q-195 0 -295 74t-100 197q0 81 64.5 141.5t160.5 93.5l-129 27v98l203 197q-246 50 -246 270q0 99 55.5 172t142 108.5t189.5 35.5
q113 0 201.5 -33.5t140.5 -96.5l144 130h20v-177h-131q31 -60 31 -135q0 -86 -57 -153t-146 -101.5t-192 -34.5zM240 -111q0 -120 54 -177.5t142 -57.5q112 0 163.5 57.5t51.5 141.5q0 65 -40 97.5t-148 55.5l-180 37q-43 -59 -43 -154zM444 436q27 0 45 17t26 49t10.5 63
t2.5 74q0 123 -20.5 182.5t-71.5 59.5q-52 0 -69 -54.5t-17 -164.5q0 -47 3.5 -82.5t12.5 -70.5t29 -54t49 -19zM555 1028h-193l158 324h58z" />
    <glyph glyph-name="Hcircumflex" unicode="&#x124;" horiz-adv-x="1300" 
d="M700 0v39l119 16v533h-330v-531l111 -16v-41h-563v39l121 16v1080l-121 18v41h563v-39l-111 -16v-490h330v486l-119 18v41h564v-39l-111 -16v-1082l111 -16v-41h-564zM918 1245l-246 123l-246 -119l-23 33l281 258l260 -258z" />
    <glyph glyph-name="hcircumflex" unicode="&#x125;" horiz-adv-x="1087" 
d="M23 0v39l106 24v1237h-123v46l289 94h129v-611q144 132 301 132q113 0 186.5 -87t73.5 -266v-545l92 -22v-41h-491v39l102 24v488q0 127 -41 182t-121 55q-46 0 -102 -16v-709l90 -22v-41h-491zM512 1487l-246 123l-246 -119l-22 33l281 258l260 -258z" />
    <glyph glyph-name="Hbar" unicode="&#x126;" horiz-adv-x="1300" 
d="M37 0v39l121 16v793h-74v59h74v228l-121 18v41h563v-39l-111 -16v-232h330v228l-119 18v41h564v-39l-111 -16v-232h80v-59h-80v-791l111 -16v-41h-564v39l119 16v533h-330v-531l111 -16v-41h-563zM489 848v-199h330v199h-330z" />
    <glyph glyph-name="hbar" unicode="&#x127;" horiz-adv-x="1087" 
d="M23 0v39l106 24v1006h-100v64h100v167h-123v46l289 94h129v-307h190v-64h-190v-240q144 132 301 132q113 0 186.5 -87t73.5 -266v-545l92 -22v-41h-491v39l102 24v488q0 127 -41 182t-121 55q-46 0 -102 -16v-709l90 -22v-41h-491z" />
    <glyph glyph-name="Itilde" unicode="&#x128;" horiz-adv-x="663" 
d="M49 0v39l121 24v1063l-121 27v41h563v-39l-110 -25v-1064l110 -25v-41h-563zM440 1307q-57 0 -120 20.5t-103 20.5q-41 0 -100 -66l-39 37q77 145 172 145q44 0 122 -22.5t93 -22.5q29 0 56.5 14.5t40.5 28.5l13 15l37 -37q-21 -46 -70 -89.5t-102 -43.5z" />
    <glyph glyph-name="itilde" unicode="&#x129;" horiz-adv-x="555" 
d="M35 0v39l106 24v758h-123v45l289 95h127v-893l109 -27v-41h-508zM397 1128q-57 0 -120 20.5t-103 20.5t-102 -65l-37 37q77 145 172 145q44 0 122 -22.5t93 -22.5q29 0 56.5 14.5t40.5 28.5l13 14l37 -36q-22 -46 -70.5 -90t-101.5 -44z" />
    <glyph glyph-name="Imacron" unicode="&#x12a;" horiz-adv-x="663" 
d="M49 0v39l121 24v1063l-121 27v41h563v-39l-110 -25v-1064l110 -25v-41h-563zM569 1341h-477v105h477v-105z" />
    <glyph glyph-name="imacron" unicode="&#x12b;" horiz-adv-x="555" 
d="M35 0v39l106 24v758h-123v45l289 95h127v-893l109 -27v-41h-508zM512 1141h-479v98h479v-98z" />
    <glyph glyph-name="Ibreve" unicode="&#x12c;" horiz-adv-x="663" 
d="M49 0v39l121 24v1063l-121 27v41h563v-39l-110 -25v-1064l110 -25v-41h-563zM350 1292q-59 0 -111 18t-82.5 43t-48 44.5t-20.5 29.5l78 64q11 -16 29.5 -33t63.5 -37t97 -20q49 0 94.5 19t65.5 36t31 31l24 -35q-8 -18 -24.5 -41.5t-43.5 -52t-68 -47.5t-85 -19z" />
    <glyph glyph-name="ibreve" unicode="&#x12d;" horiz-adv-x="555" 
d="M35 0v39l106 24v758h-123v45l289 95h127v-893l109 -27v-41h-508zM303 1100q-60 0 -114.5 19.5t-88 46.5t-53.5 48t-24 31l94 74q78 -100 188 -100q74 0 134.5 34.5t76.5 59.5l37 -17q-15 -63 -86.5 -129.5t-163.5 -66.5z" />
    <glyph glyph-name="Iogonek" unicode="&#x12e;" horiz-adv-x="663" 
d="M49 0v39l121 24v1063l-121 27v41h563v-39l-110 -25v-1064l110 -25v-41h-217q-82 -38 -131 -101t-49 -130q0 -66 36 -102t103 -36q51 0 95 21l22 -60q-59 -34 -168 -34q-85 0 -149 51.5t-64 142.5q0 152 184 248h-225z" />
    <glyph glyph-name="iogonek" unicode="&#x12f;" horiz-adv-x="555" 
d="M35 0v39l106 24v758h-123v45l289 95h127v-893l109 -27v-41h-148q-77 -39 -123.5 -101.5t-46.5 -129.5q0 -66 34.5 -102t98.5 -36q48 0 88 21l23 -60q-57 -34 -160 -34q-82 0 -142.5 51.5t-60.5 142.5q0 151 175 248h-246zM137 1249q0 78 43 119t117 41q160 0 160 -160
q0 -79 -41.5 -120.5t-118.5 -41.5q-74 0 -117 42t-43 120z" />
    <glyph glyph-name="Idotaccent" unicode="&#x130;" horiz-adv-x="663" 
d="M49 0v39l121 24v1063l-121 27v41h563v-39l-110 -25v-1064l110 -25v-41h-563zM219 1415q0 63 34 98t89 35t91 -35.5t36 -97.5q0 -57 -32.5 -93t-94.5 -36q-59 0 -91 36t-32 93z" />
    <glyph glyph-name="dotlessi" unicode="&#x131;" horiz-adv-x="555" 
d="M35 0v39l106 24v758h-123v45l289 95h127v-893l109 -27v-41h-508z" />
    <glyph glyph-name="IJ" unicode="&#x132;" horiz-adv-x="1447" 
d="M973 -18q-150 0 -307 67v375h59l127 -328q24 -19 37.5 -26t32.5 -7q54 0 68 52t14 209v802l-119 27v41h563v-39l-111 -25v-800q0 -151 -111.5 -249.5t-252.5 -98.5zM49 0v39l121 24v1063l-121 27v41h563v-39l-110 -25v-1064l110 -25v-41h-563z" />
    <glyph glyph-name="ij" unicode="&#x133;" horiz-adv-x="1099" 
d="M639 -406l-21 29q66 71 82.5 150.5t16.5 234.5v813h-121v45l289 95h125v-906q0 -138 -95 -264.5t-276 -196.5zM35 0v39l106 24v758h-123v45l289 95h127v-893l109 -27v-41h-508zM137 1249q0 78 43 119t117 41q160 0 160 -160q0 -79 -41.5 -120.5t-118.5 -41.5
q-74 0 -117 42t-43 120zM872 1087q-74 0 -117.5 42t-43.5 120t43.5 119t117.5 41q77 0 117.5 -40.5t40.5 -119.5t-41 -120.5t-117 -41.5z" />
    <glyph glyph-name="Jcircumflex" unicode="&#x134;" horiz-adv-x="788" 
d="M313 -18q-150 0 -307 67v375h60l127 -328q25 -20 37.5 -26.5t31.5 -6.5q54 0 68 52t14 209v802l-119 27v41h563v-39l-110 -25v-800q0 -151 -112 -249.5t-253 -98.5zM758 1245l-246 123l-246 -119l-22 33l280 258l260 -258z" />
    <glyph glyph-name="jcircumflex" unicode="&#x135;" horiz-adv-x="522" 
d="M61 -406l-20 29q66 71 82 150t16 235v813h-121v45l289 95h125v-906q0 -138 -95 -264.5t-276 -196.5zM256 1374h61l213 -303l-24 -31l-234 150l-225 -152l-27 25z" />
    <glyph glyph-name="Kcommaaccent" unicode="&#x136;" horiz-adv-x="1198" 
d="M37 0v39l121 24v1063l-121 27v41h563v-39l-111 -25v-1064l111 -25v-41h-563zM799 0l-279 520v49l344 535l-153 51v39h434v-47l-184 -41l-232 -348l406 -682l69 -39v-37h-405zM553 -104h192l-157 -320h-58z" />
    <glyph glyph-name="kcommaaccent" unicode="&#x137;" horiz-adv-x="991" 
d="M25 0v39l106 27v1234h-123v46l289 94h129v-1377l90 -22v-41h-491zM444 401v45l263 402l-166 57v35h411v-37l-164 -57l-157 -246l276 -489l84 -70v-41h-340zM453 -104h192l-158 -320h-57z" />
    <glyph glyph-name="Lacute" unicode="&#x139;" horiz-adv-x="966" 
d="M37 0v39l121 24v1063l-121 27v41h563v-39l-111 -25v-1054h218l202 311l56 -25l-54 -362h-874zM528 1528l74 -172l-405 -86l-15 33z" />
    <glyph glyph-name="lacute" unicode="&#x13a;" horiz-adv-x="546" 
d="M25 0v39l104 22v1239h-121v46l289 94h131v-1372l107 -27v-41h-510zM430 1720l74 -172l-406 -86l-14 33z" />
    <glyph glyph-name="Lcommaaccent" unicode="&#x13b;" horiz-adv-x="966" 
d="M37 0v39l121 24v1063l-121 27v41h563v-39l-111 -25v-1054h218l202 311l56 -25l-54 -362h-874zM475 -104h193l-158 -320h-57z" />
    <glyph glyph-name="lcommaaccent" unicode="&#x13c;" horiz-adv-x="546" 
d="M25 0v39l104 22v1239h-121v46l289 94h131v-1372l107 -27v-41h-510zM195 -104h192l-158 -320h-57z" />
    <glyph glyph-name="Lcaron" unicode="&#x13d;" horiz-adv-x="966" 
d="M37 0v39l121 24v1063l-121 27v41h563v-39l-111 -25v-1054h218l202 311l56 -25l-54 -362h-874zM782 918h-51v376h180z" />
    <glyph glyph-name="lcaron" unicode="&#x13e;" horiz-adv-x="641" 
d="M25 0v39l104 22v1239h-121v46l289 94h131v-1372l107 -27v-41h-510zM561 1063h-51v377h180z" />
    <glyph glyph-name="Ldot" unicode="&#x13f;" horiz-adv-x="966" 
d="M37 0v39l121 24v1063l-121 27v41h563v-39l-111 -25v-1054h218l202 311l56 -25l-54 -362h-874zM717 684q0 63 34 98t89 35t91 -35.5t36 -97.5q0 -57 -32.5 -93t-94.5 -36q-59 0 -91 36t-32 93z" />
    <glyph glyph-name="ldot" unicode="&#x140;" horiz-adv-x="684" 
d="M25 0v39l104 22v1239h-121v46l289 94h131v-1372l107 -27v-41h-510zM502 635q0 63 34 98t89 35t91 -35.5t36 -97.5q0 -57 -32.5 -93t-94.5 -36q-59 0 -91 36t-32 93z" />
    <glyph glyph-name="Lslash" unicode="&#x141;" horiz-adv-x="966" 
d="M37 0v39l121 24v359l-111 -51v71l111 56v628l-121 27v41h563v-39l-111 -25v-462l218 110v-104l-218 -101v-497h218l202 311l56 -25l-54 -362h-874z" />
    <glyph glyph-name="lslash" unicode="&#x142;" horiz-adv-x="546" 
d="M25 0v39l104 22v482l-109 -70v88l109 74v665h-121v46l289 94h131v-600l102 71v-110l-102 -66v-667l107 -27v-41h-510z" />
    <glyph glyph-name="Nacute" unicode="&#x143;" horiz-adv-x="1220" 
d="M25 0v39l155 55v991l-155 68v41h387l544 -678v574l-211 63v41h453v-39l-156 -55v-1116h-69l-705 893v-775l230 -61v-41h-473zM817 1528l74 -172l-406 -86l-14 33z" />
    <glyph glyph-name="nacute" unicode="&#x144;" horiz-adv-x="1087" 
d="M33 0v39l104 24v758h-119v45l289 95h70l51 -140q73 72 144 106t153 34q113 0 187.5 -87t74.5 -266v-545l90 -22v-41h-491v39l100 24v488q0 127 -40 182t-120 55q-36 0 -90 -14v-711l88 -22v-41h-491zM754 1397l120 -148l-370 -196l-19 22z" />
    <glyph glyph-name="Ncommaaccent" unicode="&#x145;" horiz-adv-x="1220" 
d="M25 0v39l155 55v991l-155 68v41h387l544 -678v574l-211 63v41h453v-39l-156 -55v-1116h-69l-705 893v-775l230 -61v-41h-473zM528 -104h193l-158 -320h-57z" />
    <glyph glyph-name="ncommaaccent" unicode="&#x146;" horiz-adv-x="1087" 
d="M33 0v39l104 24v758h-119v45l289 95h70l51 -140q73 72 144 106t153 34q113 0 187.5 -87t74.5 -266v-545l90 -22v-41h-491v39l100 24v488q0 127 -40 182t-120 55q-36 0 -90 -14v-711l88 -22v-41h-491zM459 -104h192l-157 -320h-58z" />
    <glyph glyph-name="Ncaron" unicode="&#x147;" horiz-adv-x="1220" 
d="M25 0v39l155 55v991l-155 68v41h387l544 -678v574l-211 63v41h453v-39l-156 -55v-1116h-69l-705 893v-775l230 -61v-41h-473zM655 1255h-61l-219 209l20 35l244 -98l238 92l20 -31z" />
    <glyph glyph-name="ncaron" unicode="&#x148;" horiz-adv-x="1087" 
d="M33 0v39l104 24v758h-119v45l289 95h70l51 -140q73 72 144 106t153 34q113 0 187.5 -87t74.5 -266v-545l90 -22v-41h-491v39l100 24v488q0 127 -40 182t-120 55q-36 0 -90 -14v-711l88 -22v-41h-491zM608 1063h-61l-244 305l25 31l264 -168l248 176l24 -27z" />
    <glyph glyph-name="napostrophe" unicode="&#x149;" horiz-adv-x="1087" 
d="M33 0v39l104 24v758h-119v45l289 95h70l51 -140q73 72 144 106t153 34q113 0 187.5 -87t74.5 -266v-545l90 -22v-41h-491v39l100 24v488q0 127 -40 182t-120 55q-36 0 -90 -14v-711l88 -22v-41h-491zM410 1370q0 -83 -74.5 -191t-181.5 -178l-19 21q109 142 109 225
q0 114 -109 129q0 52 42.5 92.5t98.5 40.5q60 0 97 -39.5t37 -99.5z" />
    <glyph glyph-name="Eng" unicode="&#x14a;" horiz-adv-x="1220" 
d="M25 0v39l155 55v991l-155 68v41h387l544 -678v574l-211 63v41h453v-39l-156 -55v-1116q-2 -152 -65 -267.5t-219 -210.5l-51 50q141 104 191.5 200t55.5 250l-686 871v-775l230 -61v-41h-473z" />
    <glyph glyph-name="eng" unicode="&#x14b;" horiz-adv-x="1087" 
d="M33 0v39l104 24v758h-119v45l289 95h70l51 -140q73 72 144 106t153 34q113 0 187.5 -87t74.5 -266v-553q0 -138 -95 -264.5t-276 -196.5l-20 29q32 35 52 79t27.5 100.5t9 92t1.5 98.5v21v537q0 127 -40 182t-120 55q-36 0 -90 -14v-711l88 -22v-41h-491z" />
    <glyph glyph-name="Omacron" unicode="&#x14c;" horiz-adv-x="1222" 
d="M1167 643q0 -187 -67.5 -336t-198 -236t-303.5 -87q-244 0 -393.5 153.5t-149.5 425.5q0 295 159.5 472t412.5 177q252 0 396 -147.5t144 -421.5zM799 604q0 284 -41.5 408.5t-143.5 124.5q-110 0 -151 -121t-41 -410q0 -140 8.5 -237.5t29.5 -168.5t56.5 -105t87.5 -34
q43 0 74.5 15t52.5 48.5t35 76t21 108t9.5 133t2.5 162.5zM877 1341h-478v105h478v-105z" />
    <glyph glyph-name="omacron" unicode="&#x14d;" horiz-adv-x="970" 
d="M928 461q0 -123 -37 -217t-101.5 -149.5t-143.5 -83t-169 -27.5q-77 0 -138.5 12t-118.5 43.5t-94.5 83t-60 134.5t-22.5 194q0 126 38 226.5t102.5 160.5t143 91.5t165.5 31.5q101 0 178.5 -26t136.5 -83.5t90 -155.5t31 -235zM606 436q0 443 -133 443q-108 0 -108 -385
q0 -95 5 -165.5t18 -133.5t38 -96t63 -33q27 0 47 14.5t32.5 43.5t20.5 60t11.5 78.5t4.5 84t1 89.5zM737 1141h-479v98h479v-98z" />
    <glyph glyph-name="Obreve" unicode="&#x14e;" horiz-adv-x="1222" 
d="M1167 643q0 -187 -67.5 -336t-198 -236t-303.5 -87q-244 0 -393.5 153.5t-149.5 425.5q0 295 159.5 472t412.5 177q252 0 396 -147.5t144 -421.5zM799 604q0 284 -41.5 408.5t-143.5 124.5q-110 0 -151 -121t-41 -410q0 -140 8.5 -237.5t29.5 -168.5t56.5 -105t87.5 -34
q43 0 74.5 15t52.5 48.5t35 76t21 108t9.5 133t2.5 162.5zM635 1290q-59 0 -111 18t-82.5 43t-48 44.5t-20.5 29.5l78 64q11 -16 29.5 -33t63.5 -37t97 -20q49 0 94 19t65 36t31 31l25 -35q-8 -18 -24.5 -41.5t-43.5 -52t-68 -47.5t-85 -19z" />
    <glyph glyph-name="obreve" unicode="&#x14f;" horiz-adv-x="970" 
d="M928 461q0 -123 -37 -217t-101.5 -149.5t-143.5 -83t-169 -27.5q-77 0 -138.5 12t-118.5 43.5t-94.5 83t-60 134.5t-22.5 194q0 126 38 226.5t102.5 160.5t143 91.5t165.5 31.5q101 0 178.5 -26t136.5 -83.5t90 -155.5t31 -235zM606 436q0 443 -133 443q-108 0 -108 -385
q0 -95 5 -165.5t18 -133.5t38 -96t63 -33q27 0 47 14.5t32.5 43.5t20.5 60t11.5 78.5t4.5 84t1 89.5zM504 1100q-60 0 -114.5 19.5t-88.5 46.5t-54 48t-24 31l94 74q78 -100 189 -100q74 0 134.5 34.5t76.5 59.5l37 -17q-15 -63 -86.5 -129.5t-163.5 -66.5z" />
    <glyph glyph-name="Ohungarumlaut" unicode="&#x150;" horiz-adv-x="1222" 
d="M1167 643q0 -187 -67.5 -336t-198 -236t-303.5 -87q-244 0 -393.5 153.5t-149.5 425.5q0 295 159.5 472t412.5 177q252 0 396 -147.5t144 -421.5zM799 604q0 284 -41.5 408.5t-143.5 124.5q-110 0 -151 -121t-41 -410q0 -140 8.5 -237.5t29.5 -168.5t56.5 -105t87.5 -34
q43 0 74.5 15t52.5 48.5t35 76t21 108t9.5 133t2.5 162.5zM381 1276l-23 35l301 278l99 -135zM690 1278l-12 35l344 219l65 -178z" />
    <glyph glyph-name="ohungarumlaut" unicode="&#x151;" horiz-adv-x="970" 
d="M928 461q0 -123 -37 -217t-101.5 -149.5t-143.5 -83t-169 -27.5q-77 0 -138.5 12t-118.5 43.5t-94.5 83t-60 134.5t-22.5 194q0 126 38 226.5t102.5 160.5t143 91.5t165.5 31.5q101 0 178.5 -26t136.5 -83.5t90 -155.5t31 -235zM606 436q0 443 -133 443q-108 0 -108 -385
q0 -95 5 -165.5t18 -133.5t38 -96t63 -33q27 0 47 14.5t32.5 43.5t20.5 60t11.5 78.5t4.5 84t1 89.5zM293 1055l-31 20l207 363l139 -119zM580 1051l-27 30l240 305l131 -137z" />
    <glyph glyph-name="OE" unicode="&#x152;" horiz-adv-x="1499" 
d="M1350 569l-338 6v-499h227l178 295l62 -9l-54 -362h-675q-78 -16 -152 -16q-244 0 -393.5 153.5t-149.5 425.5q0 295 159.5 472t412.5 177q85 0 159 -18h644v-332h-62l-135 258h-221v-456l338 6v-101zM678 76v1048q-32 13 -64 13q-192 0 -192 -531q0 -116 9.5 -210.5
t30 -171.5t56.5 -120t86 -43q44 0 78 15h-4z" />
    <glyph glyph-name="oe" unicode="&#x153;" horiz-adv-x="1513" 
d="M492 961q204 0 315 -111q132 111 307 111q183 0 285 -128t102 -356h-565q2 -85 27 -150.5t64.5 -102t84.5 -54.5t94 -18q115 0 238 57l16 -25q-56 -82 -165 -141t-226 -59q-184 0 -297 96q-116 -96 -295 -96q-77 0 -138.5 12t-118.5 43.5t-94.5 83t-60 134.5t-22.5 194
q0 126 38 226.5t102.5 160.5t143 91.5t165.5 31.5zM614 436q0 70 -2 121.5t-10 116.5t-22.5 106t-41.5 70t-65 29q-108 0 -108 -385q0 -95 5 -165.5t18 -133.5t38 -96t63 -33q40 0 66 31.5t38 89.5t16.5 115t4.5 134zM1081 883q-135 0 -145 -336l246 20q-1 53 -2.5 90.5
t-8 83.5t-16.5 74.5t-29 48t-45 19.5z" />
    <glyph glyph-name="Racute" unicode="&#x154;" horiz-adv-x="1155" 
d="M37 0v39l121 24v1063l-121 27v41h586q177 0 288 -90t111 -254q0 -220 -197 -297l250 -477l86 -37v-39h-401l-244 514h-27v-448l111 -25v-41h-563zM659 850q0 129 -38 193.5t-132 70.5v-518q97 7 133.5 64.5t36.5 189.5zM770 1528l74 -172l-406 -86l-14 33z" />
    <glyph glyph-name="racute" unicode="&#x155;" horiz-adv-x="745" 
d="M47 0v39l92 20v762h-121v45l289 95h70l47 -109q142 109 221 109q42 0 82 -11l-29 -307h-39l-223 168v-741l121 -29v-41h-510zM616 1397l121 -148l-370 -196l-19 22z" />
    <glyph glyph-name="Rcommaaccent" unicode="&#x156;" horiz-adv-x="1155" 
d="M37 0v39l121 24v1063l-121 27v41h586q177 0 288 -90t111 -254q0 -220 -197 -297l250 -477l86 -37v-39h-401l-244 514h-27v-448l111 -25v-41h-563zM659 850q0 129 -38 193.5t-132 70.5v-518q97 7 133.5 64.5t36.5 189.5zM508 -104h192l-157 -320h-58z" />
    <glyph glyph-name="rcommaaccent" unicode="&#x157;" horiz-adv-x="745" 
d="M47 0v39l92 20v762h-121v45l289 95h70l47 -109q142 109 221 109q42 0 82 -11l-29 -307h-39l-223 168v-741l121 -29v-41h-510zM203 -104h192l-157 -320h-58z" />
    <glyph glyph-name="Rcaron" unicode="&#x158;" horiz-adv-x="1155" 
d="M37 0v39l121 24v1063l-121 27v41h586q177 0 288 -90t111 -254q0 -220 -197 -297l250 -477l86 -37v-39h-401l-244 514h-27v-448l111 -25v-41h-563zM659 850q0 129 -38 193.5t-132 70.5v-518q97 7 133.5 64.5t36.5 189.5zM584 1255h-62l-219 209l21 35l243 -98l238 92
l20 -31z" />
    <glyph glyph-name="rcaron" unicode="&#x159;" horiz-adv-x="745" 
d="M47 0v39l92 20v762h-121v45l289 95h70l47 -109q142 109 221 109q42 0 82 -11l-29 -307h-39l-223 168v-741l121 -29v-41h-510zM479 1063h-61l-244 305l25 31l264 -168l248 176l24 -27z" />
    <glyph glyph-name="Sacute" unicode="&#x15a;" horiz-adv-x="888" 
d="M743 815l-114 289q-61 33 -144 33q-87 0 -139.5 -52t-52.5 -127q0 -132 235 -217q46 -17 77.5 -30.5t73 -36.5t69 -51t53.5 -66t38.5 -89t12.5 -112q0 -130 -60.5 -215t-160.5 -121t-238 -36q-161 0 -346 82v346h68l106 -291q84 -62 185 -62q78 0 131 50t53 127
q0 39 -21.5 72t-65.5 62t-82 48t-101 47q-15 7 -23 10q-52 23 -91.5 49.5t-75.5 67.5t-55.5 100.5t-19.5 134.5q0 184 117 284.5t301 100.5q205 0 336 -77v-320h-66zM672 1528l73 -172l-405 -86l-14 33z" />
    <glyph glyph-name="sacute" unicode="&#x15b;" horiz-adv-x="802" 
d="M375 -18q-139 0 -330 43v280h86l119 -219q59 -27 110 -27q29 0 53.5 6t48.5 20t38 43t14 71q0 35 -26 62t-67 46t-91 38.5t-100.5 46.5t-91.5 62.5t-67 94t-26 133.5q0 57 23 104.5t61 79t89 53.5t104.5 32t109.5 10q191 0 320 -66v-231h-88l-107 196q-51 19 -98 19
q-63 0 -108.5 -32.5t-45.5 -82.5q0 -40 26 -69t67.5 -48t91.5 -37t100.5 -43.5t92 -59.5t67.5 -92.5t26 -135.5q0 -129 -113 -213t-288 -84zM592 1397l121 -148l-371 -196l-18 22z" />
    <glyph glyph-name="Scircumflex" unicode="&#x15c;" horiz-adv-x="888" 
d="M743 815l-114 289q-61 33 -144 33q-87 0 -139.5 -52t-52.5 -127q0 -132 235 -217q46 -17 77.5 -30.5t73 -36.5t69 -51t53.5 -66t38.5 -89t12.5 -112q0 -130 -60.5 -215t-160.5 -121t-238 -36q-161 0 -346 82v346h68l106 -291q84 -62 185 -62q78 0 131 50t53 127
q0 39 -21.5 72t-65.5 62t-82 48t-101 47q-15 7 -23 10q-52 23 -91.5 49.5t-75.5 67.5t-55.5 100.5t-19.5 134.5q0 184 117 284.5t301 100.5q205 0 336 -77v-320h-66zM748 1245l-246 123l-246 -119l-23 33l281 258l260 -258z" />
    <glyph glyph-name="scircumflex" unicode="&#x15d;" horiz-adv-x="802" 
d="M375 -18q-139 0 -330 43v280h86l119 -219q59 -27 110 -27q29 0 53.5 6t48.5 20t38 43t14 71q0 35 -26 62t-67 46t-91 38.5t-100.5 46.5t-91.5 62.5t-67 94t-26 133.5q0 57 23 104.5t61 79t89 53.5t104.5 32t109.5 10q191 0 320 -66v-231h-88l-107 196q-51 19 -98 19
q-63 0 -108.5 -32.5t-45.5 -82.5q0 -40 26 -69t67.5 -48t91.5 -37t100.5 -43.5t92 -59.5t67.5 -92.5t26 -135.5q0 -129 -113 -213t-288 -84zM428 1374h61l213 -303l-24 -31l-234 150l-225 -152l-26 25z" />
    <glyph glyph-name="Scedilla" unicode="&#x15e;" horiz-adv-x="888" 
d="M743 815l-114 289q-61 33 -144 33q-87 0 -139.5 -52t-52.5 -127q0 -132 235 -217q46 -17 77.5 -30.5t73 -36.5t69 -51t53.5 -66t38.5 -89t12.5 -112q0 -178 -106 -268.5t-293 -101.5l-13 -31q81 -21 123.5 -72.5t42.5 -122.5q0 -83 -68 -143.5t-178 -60.5q-91 0 -151 45
l31 71q65 -45 137 -45q44 0 71 33t27 82q0 53 -42.5 87.5t-115.5 45.5l50 109q-148 6 -320 82v346h68l106 -291q84 -62 185 -62q78 0 131 50t53 127q0 39 -21.5 72t-65.5 62t-82 48t-101 47q-15 7 -23 10q-52 23 -91.5 49.5t-75.5 67.5t-55.5 100.5t-19.5 134.5
q0 184 117 284.5t301 100.5q205 0 336 -77v-320h-66z" />
    <glyph glyph-name="scedilla" unicode="&#x15f;" horiz-adv-x="802" 
d="M315 -440q-91 0 -151 45l31 71q65 -45 137 -45q44 0 71 33t27 82q0 53 -42.5 87.5t-115.5 45.5l47 105q-150 13 -274 41v280h86l119 -219q56 -27 104 -27l2 2h41q50 7 83.5 39.5t33.5 98.5q0 35 -26 62t-67 46t-91 38.5t-100.5 46.5t-91.5 62.5t-67 94t-26 133.5
q0 57 23 104.5t61 79t89 53.5t104.5 32t109.5 10q191 0 320 -66v-231h-88l-107 196q-51 19 -98 19q-63 0 -108.5 -32.5t-45.5 -82.5q0 -40 26 -69t67.5 -48t91.5 -37t100.5 -43.5t92 -59.5t67.5 -92.5t26 -135.5q0 -124 -103.5 -205.5t-266.5 -89.5l-11 -25
q81 -21 123.5 -72.5t42.5 -122.5q0 -83 -68 -143.5t-178 -60.5z" />
    <glyph glyph-name="Scaron" unicode="&#x160;" horiz-adv-x="888" 
d="M743 815l-114 289q-61 33 -144 33q-87 0 -139.5 -52t-52.5 -127q0 -132 235 -217q46 -17 77.5 -30.5t73 -36.5t69 -51t53.5 -66t38.5 -89t12.5 -112q0 -130 -60.5 -215t-160.5 -121t-238 -36q-161 0 -346 82v346h68l106 -291q84 -62 185 -62q78 0 131 50t53 127
q0 39 -21.5 72t-65.5 62t-82 48t-101 47q-15 7 -23 10q-52 23 -91.5 49.5t-75.5 67.5t-55.5 100.5t-19.5 134.5q0 184 117 284.5t301 100.5q205 0 336 -77v-320h-66zM518 1255h-61l-219 209l20 35l244 -98l237 92l21 -31z" />
    <glyph glyph-name="scaron" unicode="&#x161;" horiz-adv-x="802" 
d="M375 -18q-139 0 -330 43v280h86l119 -219q59 -27 110 -27q29 0 53.5 6t48.5 20t38 43t14 71q0 35 -26 62t-67 46t-91 38.5t-100.5 46.5t-91.5 62.5t-67 94t-26 133.5q0 57 23 104.5t61 79t89 53.5t104.5 32t109.5 10q191 0 320 -66v-231h-88l-107 196q-51 19 -98 19
q-63 0 -108.5 -32.5t-45.5 -82.5q0 -40 26 -69t67.5 -48t91.5 -37t100.5 -43.5t92 -59.5t67.5 -92.5t26 -135.5q0 -129 -113 -213t-288 -84zM469 1063h-61l-244 305l24 31l265 -168l247 176l25 -27z" />
    <glyph glyph-name="Tcommaaccent" unicode="&#x162;" horiz-adv-x="999" 
d="M215 0v39l121 24v1057h-117l-160 -360h-57v434h995v-434h-55l-160 360h-114v-1054l110 -25v-41h-563zM420 -104h192l-157 -320h-58z" />
    <glyph glyph-name="tcommaaccent" unicode="&#x163;" horiz-adv-x="714" 
d="M680 125l12 -66q-63 -37 -126 -56t-148 -19q-64 0 -112.5 14t-91 48t-65 101t-22.5 164v498h-119v51l125 49l86 252h209v-252h238v-100h-238v-467q0 -30 0.5 -42.5t2 -39t4 -38t7 -31.5t11.5 -29.5t17 -22.5t23.5 -18.5t31.5 -10t40 -4.5q45 0 115 19zM326 -104h192
l-158 -320h-57z" />
    <glyph glyph-name="Tcaron" unicode="&#x164;" horiz-adv-x="999" 
d="M215 0v39l121 24v1057h-117l-160 -360h-57v434h995v-434h-55l-160 360h-114v-1054l110 -25v-41h-563zM535 1255h-62l-219 209l20 35l244 -98l238 92l20 -31z" />
    <glyph glyph-name="tcaron" unicode="&#x165;" horiz-adv-x="714" 
d="M680 125l12 -66q-63 -37 -126 -56t-148 -19q-64 0 -112.5 14t-91 48t-65 101t-22.5 164v498h-119v51l125 49l86 252h209v-252h238v-100h-238v-467q0 -30 0.5 -42.5t2 -39t4 -38t7 -31.5t11.5 -29.5t17 -22.5t23.5 -18.5t31.5 -10t40 -4.5q45 0 115 19zM629 1063h-51v377
h180z" />
    <glyph glyph-name="Tbar" unicode="&#x166;" horiz-adv-x="999" 
d="M2 760v434h995v-434h-55l-160 360h-114v-481h149v-76h-149v-497l110 -25v-41h-563v39l121 24v500h-158v76h158v481h-117l-160 -360h-57z" />
    <glyph glyph-name="tbar" unicode="&#x167;" horiz-adv-x="714" 
d="M680 125l12 -66q-63 -37 -126 -56t-148 -19q-64 0 -112.5 14t-91 48t-65 101t-22.5 164v215h-82v80h82v203h-119v51l125 49l86 252h209v-252h238v-100h-238v-203h207v-80h-207v-184q0 -30 0.5 -42.5t2 -39t4 -38t7 -31.5t11.5 -29.5t17 -22.5t23.5 -18.5t31.5 -10
t40 -4.5q45 0 115 19z" />
    <glyph glyph-name="Utilde" unicode="&#x168;" horiz-adv-x="1171" 
d="M596 -18q-467 0 -467 419v723l-123 29v41h574v-39l-95 -18v-717q0 -179 47.5 -264.5t157.5 -85.5q117 0 176.5 102.5t59.5 290.5v629l-207 61v41h436v-39l-139 -59v-639q0 -129 -32.5 -223t-91.5 -148t-132.5 -79t-163.5 -25zM760 1307q-57 0 -120 20.5t-103 20.5
q-42 0 -101 -66l-39 37q77 145 172 145q44 0 122 -22.5t93 -22.5q29 0 57 14.5t41 28.5l13 15l37 -37q-21 -46 -70 -89.5t-102 -43.5z" />
    <glyph glyph-name="utilde" unicode="&#x169;" horiz-adv-x="1062" 
d="M702 0l-38 127q-73 -74 -137.5 -107.5t-145.5 -33.5q-113 0 -187.5 86.5t-74.5 265.5v483h-119v45l289 95h129v-566q0 -127 41 -182t123 -55q37 0 75 14v649h-118v45l288 95h127v-857l93 -59v-45h-345zM662 1128q-57 0 -120.5 20.5t-103.5 20.5t-102 -65l-37 37
q77 145 172 145q44 0 122 -22.5t93 -22.5q29 0 57 14.5t41 28.5l13 14l37 -36q-22 -46 -70.5 -90t-101.5 -44z" />
    <glyph glyph-name="Umacron" unicode="&#x16a;" horiz-adv-x="1171" 
d="M596 -18q-467 0 -467 419v723l-123 29v41h574v-39l-95 -18v-717q0 -179 47.5 -264.5t157.5 -85.5q117 0 176.5 102.5t59.5 290.5v629l-207 61v41h436v-39l-139 -59v-639q0 -129 -32.5 -223t-91.5 -148t-132.5 -79t-163.5 -25zM893 1341h-477v105h477v-105z" />
    <glyph glyph-name="umacron" unicode="&#x16b;" horiz-adv-x="1062" 
d="M702 0l-38 127q-73 -74 -137.5 -107.5t-145.5 -33.5q-113 0 -187.5 86.5t-74.5 265.5v483h-119v45l289 95h129v-566q0 -127 41 -182t123 -55q37 0 75 14v649h-118v45l288 95h127v-857l93 -59v-45h-345zM809 1141h-479v98h479v-98z" />
    <glyph glyph-name="Ubreve" unicode="&#x16c;" horiz-adv-x="1171" 
d="M596 -18q-467 0 -467 419v723l-123 29v41h574v-39l-95 -18v-717q0 -179 47.5 -264.5t157.5 -85.5q117 0 176.5 102.5t59.5 290.5v629l-207 61v41h436v-39l-139 -59v-639q0 -129 -32.5 -223t-91.5 -148t-132.5 -79t-163.5 -25zM647 1292q-59 0 -111 18t-82.5 43t-48 44.5
t-20.5 29.5l78 64q11 -16 29.5 -33t63.5 -37t97 -20q49 0 94.5 19t65.5 36t31 31l24 -35q-8 -18 -24.5 -41.5t-43.5 -52t-68 -47.5t-85 -19z" />
    <glyph glyph-name="ubreve" unicode="&#x16d;" horiz-adv-x="1062" 
d="M702 0l-38 127q-73 -74 -137.5 -107.5t-145.5 -33.5q-113 0 -187.5 86.5t-74.5 265.5v483h-119v45l289 95h129v-566q0 -127 41 -182t123 -55q37 0 75 14v649h-118v45l288 95h127v-857l93 -59v-45h-345zM586 1100q-60 0 -114.5 19.5t-88.5 46.5t-54 48t-24 31l94 74
q78 -100 189 -100q74 0 134.5 34.5t76.5 59.5l37 -17q-15 -63 -86.5 -129.5t-163.5 -66.5z" />
    <glyph glyph-name="Uring" unicode="&#x16e;" horiz-adv-x="1171" 
d="M596 -18q-467 0 -467 419v723l-123 29v41h574v-39l-95 -18v-717q0 -179 47.5 -264.5t157.5 -85.5q117 0 176.5 102.5t59.5 290.5v629l-207 61v41h436v-39l-139 -59v-639q0 -129 -32.5 -223t-91.5 -148t-132.5 -79t-163.5 -25zM641 1278q-66 0 -115 41.5t-49 116.5
q0 74 49 114.5t115 40.5q68 0 119 -40.5t51 -114.5q0 -72 -51.5 -115t-118.5 -43zM641 1335q50 0 73 32.5t23 68.5q0 40 -26 68t-70 28q-49 0 -70.5 -29t-21.5 -67q0 -47 27 -74t65 -27z" />
    <glyph glyph-name="uring" unicode="&#x16f;" horiz-adv-x="1062" 
d="M702 0l-38 127q-73 -74 -137.5 -107.5t-145.5 -33.5q-113 0 -187.5 86.5t-74.5 265.5v483h-119v45l289 95h129v-566q0 -127 41 -182t123 -55q37 0 75 14v649h-118v45l288 95h127v-857l93 -59v-45h-345zM571 1065q-66 0 -114.5 41.5t-48.5 116.5t48.5 115t114.5 40
q68 0 119 -40.5t51 -114.5q0 -72 -51.5 -115t-118.5 -43zM571 1122q50 0 73.5 32.5t23.5 68.5q0 40 -26.5 68t-70.5 28q-49 0 -70.5 -29t-21.5 -67q0 -47 27 -74t65 -27z" />
    <glyph glyph-name="Uhungarumlaut" unicode="&#x170;" horiz-adv-x="1171" 
d="M596 -18q-467 0 -467 419v723l-123 29v41h574v-39l-95 -18v-717q0 -179 47.5 -264.5t157.5 -85.5q117 0 176.5 102.5t59.5 290.5v629l-207 61v41h436v-39l-139 -59v-639q0 -129 -32.5 -223t-91.5 -148t-132.5 -79t-163.5 -25zM676 1278l-12 35l344 219l65 -178zM367 1276
l-23 35l301 278l98 -135z" />
    <glyph glyph-name="uhungarumlaut" unicode="&#x171;" horiz-adv-x="1062" 
d="M702 0l-38 127q-73 -74 -137.5 -107.5t-145.5 -33.5q-113 0 -187.5 86.5t-74.5 265.5v483h-119v45l289 95h129v-566q0 -127 41 -182t123 -55q37 0 75 14v649h-118v45l288 95h127v-857l93 -59v-45h-345zM334 1055l-31 20l207 363l139 -119zM621 1051l-27 30l240 305
l131 -137z" />
    <glyph glyph-name="Uogonek" unicode="&#x172;" horiz-adv-x="1171" 
d="M786 -348l23 -60q-57 -34 -160 -34q-82 0 -142.5 51.5t-60.5 142.5q0 136 144 230q-241 1 -351 109.5t-110 309.5v723l-123 29v41h574v-39l-95 -18v-717q0 -179 47.5 -264.5t157.5 -85.5q117 0 176.5 102.5t59.5 290.5v629l-207 61v41h436v-39l-139 -59v-639
q0 -203 -77 -314.5t-210 -144.5q-75 -40 -119.5 -101.5t-44.5 -127.5t34.5 -102t98.5 -36q48 0 88 21z" />
    <glyph glyph-name="uogonek" unicode="&#x173;" horiz-adv-x="1062" 
d="M702 0l-38 127q-73 -74 -137.5 -107.5t-145.5 -33.5q-113 0 -187.5 86.5t-74.5 265.5v483h-119v45l289 95h129v-566q0 -127 41 -182t123 -55q37 0 75 14v649h-118v45l288 95h127v-857l93 -59v-45h-146q-77 -39 -123.5 -101.5t-46.5 -129.5q0 -66 34.5 -102t98.5 -36
q48 0 88 21l23 -60q-57 -34 -160 -34q-82 0 -142.5 51.5t-60.5 142.5q0 152 174 248h-84z" />
    <glyph glyph-name="Wcircumflex" unicode="&#x174;" horiz-adv-x="1593" 
d="M319 0l-247 1135l-84 18v41h524v-39l-119 -20l131 -766h13l241 825h191l200 -815h13l194 715l-184 59v41h377v-39l-109 -51l-303 -1104h-188l-201 840h-10l-254 -840h-185zM1120 1245l-246 123l-245 -119l-23 33l281 258l260 -258z" />
    <glyph glyph-name="wcircumflex" unicode="&#x175;" horiz-adv-x="1421" 
d="M313 0l-258 881l-73 18v41h510v-39l-136 -31l144 -604h10l195 674h143l213 -682h8l162 588l-123 53v41h332v-39l-129 -59l-248 -842h-195l-172 612h-8l-180 -612h-195zM772 1374h62l213 -303l-25 -31l-234 150l-225 -152l-26 25z" />
    <glyph glyph-name="Ycircumflex" unicode="&#x176;" horiz-adv-x="1011" 
d="M225 0v39l119 24v443l-287 631l-69 16v41h506v-39l-103 -18l223 -510l193 487l-178 39v41h395v-39l-117 -29l-231 -577v-483l112 -25v-41h-563zM795 1245l-246 123l-246 -119l-22 33l280 258l260 -258z" />
    <glyph glyph-name="ycircumflex" unicode="&#x177;" horiz-adv-x="950" 
d="M524 0l-149 -424h-193v35l230 342l-355 928l-75 18v41h510v-39l-127 -31l186 -581l207 542l-152 68v41h361v-39l-105 -47zM516 1374h62l213 -303l-25 -31l-234 150l-225 -152l-26 25z" />
    <glyph glyph-name="Ydieresis" unicode="&#x178;" horiz-adv-x="1011" 
d="M225 0v39l119 24v443l-287 631l-69 16v41h506v-39l-103 -18l223 -510l193 487l-178 39v41h395v-39l-117 -29l-231 -577v-483l112 -25v-41h-563zM629 1389q0 47 29 77.5t75 30.5q42 0 70 -30.5t28 -77.5q0 -44 -28.5 -74.5t-69.5 -30.5q-45 0 -74.5 30t-29.5 75zM285 1389
q0 47 28 77.5t72 30.5q43 0 72.5 -30.5t29.5 -77.5q0 -44 -29.5 -74.5t-72.5 -30.5q-44 0 -72 30t-28 75z" />
    <glyph glyph-name="Zacute" unicode="&#x179;" horiz-adv-x="952" 
d="M39 0l-21 74l537 1046h-311l-135 -317h-48v391h822l16 -70l-555 -1048h375l151 301l54 -10l-39 -367h-846zM725 1528l74 -172l-406 -86l-14 33z" />
    <glyph glyph-name="zacute" unicode="&#x17a;" horiz-adv-x="860" 
d="M831 379l-32 -379h-750l-22 92l450 766h-235l-162 -254l-35 6l23 330h700l33 -111l-436 -747h260l176 303zM625 1397l120 -148l-370 -196l-19 22z" />
    <glyph glyph-name="Zdotaccent" unicode="&#x17b;" horiz-adv-x="952" 
d="M39 0l-21 74l537 1046h-311l-135 -317h-48v391h822l16 -70l-555 -1048h375l151 301l54 -10l-39 -367h-846zM399 1413q0 63 34 98t89 35t91 -35.5t36 -97.5q0 -57 -32.5 -93t-94.5 -36q-59 0 -91 36t-32 93z" />
    <glyph glyph-name="zdotaccent" unicode="&#x17c;" horiz-adv-x="860" 
d="M831 379l-32 -379h-750l-22 92l450 766h-235l-162 -254l-35 6l23 330h700l33 -111l-436 -747h260l176 303zM360 1237q0 63 34 98t89 35t91 -35.5t36 -97.5q0 -57 -32.5 -93t-94.5 -36q-59 0 -91 36t-32 93z" />
    <glyph glyph-name="Zcaron" unicode="&#x17d;" horiz-adv-x="952" 
d="M39 0l-21 74l537 1046h-311l-135 -317h-48v391h822l16 -70l-555 -1048h375l151 301l54 -10l-39 -367h-846zM530 1255h-61l-219 209l20 35l244 -98l238 92l20 -31z" />
    <glyph glyph-name="zcaron" unicode="&#x17e;" horiz-adv-x="860" 
d="M831 379l-32 -379h-750l-22 92l450 766h-235l-162 -254l-35 6l23 330h700l33 -111l-436 -747h260l176 303zM494 1063h-62l-244 305l25 31l264 -168l248 176l25 -27z" />
    <glyph glyph-name="uni018F" unicode="&#x18f;" horiz-adv-x="1116" 
d="M510 -16q-238 0 -355.5 148.5t-117.5 430.5v45h672q-1 267 -65 378.5t-200 111.5q-119 0 -313 -86l-31 51q216 149 439 149q251 0 394.5 -147.5t143.5 -421.5q0 -187 -67.5 -336t-197.5 -236t-302 -87zM549 61q36 0 62 13t43.5 43.5t28 66t16.5 96.5t7.5 119t2.5 148
h-303q0 -58 0.5 -98.5t2.5 -90t6.5 -83.5t11.5 -71t17.5 -60.5t25 -43.5t34.5 -29.5t45 -9.5z" />
    <glyph glyph-name="florin" unicode="&#x192;" horiz-adv-x="794" 
d="M51 559v82h162l12 147q20 215 137 329t291 114q72 0 162 -23l-37 -247l-168 161q-36 -50 -59 -348l-12 -133h182v-82h-189l-30 -373q-6 -80 -34 -159t-73 -145t-112 -107t-144 -41q-49 0 -74.5 2t-73 18t-97.5 49l34 119q107 -84 189 -84q47 205 59 361l29 360h-154z" />
    <glyph glyph-name="Ohorn" unicode="&#x1a0;" horiz-adv-x="1222" 
d="M1167 643q0 -187 -67.5 -336t-198 -236t-303.5 -87q-244 0 -393.5 153.5t-149.5 425.5q0 295 159.5 472t412.5 177q186 0 317 -84q9 15 10.5 35.5t-2.5 39.5t-14.5 44t-19 41.5t-21.5 40.5l209 35q24 -58 24 -131q0 -95 -124 -152q161 -152 161 -438zM799 604
q0 284 -41.5 408.5t-143.5 124.5q-110 0 -151 -121t-41 -410q0 -140 8.5 -237.5t29.5 -168.5t56.5 -105t87.5 -34q43 0 74.5 15t52.5 48.5t35 76t21 108t9.5 133t2.5 162.5z" />
    <glyph glyph-name="ohorn" unicode="&#x1a1;" horiz-adv-x="970" 
d="M928 461q0 -123 -37 -217t-101.5 -149.5t-143.5 -83t-169 -27.5q-77 0 -138.5 12t-118.5 43.5t-94.5 83t-60 134.5t-22.5 194q0 126 38 226.5t102.5 160.5t143 91.5t165.5 31.5q163 0 264 -68q28 22 28 59q0 59 -75 158l209 35q24 -58 24 -131q0 -52 -37 -89t-106 -67
q129 -123 129 -397zM606 436q0 443 -133 443q-108 0 -108 -385q0 -95 5 -165.5t18 -133.5t38 -96t63 -33q27 0 47 14.5t32.5 43.5t20.5 60t11.5 78.5t4.5 84t1 89.5z" />
    <glyph glyph-name="Uhorn" unicode="&#x1af;" horiz-adv-x="1171" 
d="M596 -18q-467 0 -467 419v723l-123 29v41h574v-39l-95 -18v-717q0 -179 47.5 -264.5t157.5 -85.5q117 0 176.5 102.5t59.5 290.5v629l-207 61v41h340q40 62 -86 203l172 26q22 -61 22 -129q0 -35 -4.5 -58t-18.5 -50t-46 -49.5t-82 -42.5v-637q0 -129 -32.5 -223
t-91.5 -148t-132.5 -79t-163.5 -25z" />
    <glyph glyph-name="uhorn" unicode="&#x1b0;" horiz-adv-x="1062" 
d="M702 0l-38 127q-73 -74 -137.5 -107.5t-145.5 -33.5q-113 0 -187.5 86.5t-74.5 265.5v483h-119v45l289 95h129v-566q0 -127 41 -182t123 -55q37 0 75 14v649h-118v45l272 95q135 44 135 83q0 52 -65 111l151 37q27 -83 27 -143q0 -51 -24.5 -86t-80.5 -68v-791l93 -59
v-45h-345z" />
    <glyph glyph-name="uni01C4" unicode="&#x1c4;" horiz-adv-x="2203" 
d="M37 0v39l119 24v1063l-119 27v41h524q109 0 196 -13.5t171.5 -51.5t141.5 -99.5t91.5 -164t34.5 -238.5q0 -151 -49 -272t-134.5 -197.5t-198.5 -117t-245 -40.5h-532zM1290 0l-20 74l536 1046h-311l-135 -317h-47v391h821l16 -70l-555 -1048h375l152 301l53 -10
l-39 -367h-846zM530 1122h-41v-1044h31q114 0 179 45.5t96.5 158t31.5 314.5q0 283 -67.5 404.5t-229.5 121.5zM1782 1255h-62l-219 209l21 35l243 -98l238 92l20 -31z" />
    <glyph glyph-name="uni01C5" unicode="&#x1c5;" horiz-adv-x="2111" 
d="M37 0v39l119 24v1063l-119 27v41h524q109 0 196 -13.5t171.5 -51.5t141.5 -99.5t91.5 -164t34.5 -238.5q0 -151 -49 -272t-134.5 -197.5t-198.5 -117t-245 -40.5h-532zM2083 379l-33 -379h-750l-22 92l451 766h-236l-162 -254l-35 6l23 330h700l33 -111l-436 -747h260
l176 303zM530 1122h-41v-1044h31q114 0 179 45.5t96.5 158t31.5 314.5q0 283 -67.5 404.5t-229.5 121.5zM1745 1063h-62l-243 305l24 31l265 -168l247 176l25 -27z" />
    <glyph glyph-name="uni01C6" unicode="&#x1c6;" horiz-adv-x="1875" 
d="M666 0l-31 106q-95 -122 -254 -122q-155 0 -246.5 125t-91.5 335q0 114 37 212t99 164t144 103.5t171 37.5q58 0 127 -27v366h-125v46l288 94h123v-1336l97 -59v-45h-338zM1847 379l-32 -379h-750l-23 92l451 766h-236l-161 -254l-35 6l22 330h701l33 -111l-437 -747h260
l177 303zM621 162v708q-38 9 -76 9q-79 0 -131 -100t-52 -273q0 -153 50.5 -257t136.5 -104q29 0 72 17zM1509 1063h-61l-244 305l25 31l264 -168l248 176l24 -27z" />
    <glyph glyph-name="uni01C7" unicode="&#x1c7;" horiz-adv-x="1755" 
d="M37 0v39l121 24v1063l-121 27v41h563v-39l-111 -25v-1054h218l202 311l56 -25l-54 -362h-874zM1280 -18q-150 0 -307 67v375h59l127 -328q24 -19 37.5 -26t32.5 -7q54 0 68 52t14 209v802l-119 27v41h563v-39l-110 -25v-800q0 -151 -112 -249.5t-253 -98.5z" />
    <glyph glyph-name="uni01C8" unicode="&#x1c8;" horiz-adv-x="1488" 
d="M37 0v39l121 24v1063l-121 27v41h563v-39l-111 -25v-1054h218l202 311l56 -25l-54 -362h-874zM1028 -406l-20 29q66 71 82 150t16 235v813h-121v45l289 95h125v-906q0 -138 -95 -264.5t-276 -196.5zM1262 1087q-74 0 -118 42t-44 120t44 119t118 41q157 0 157 -160
q0 -79 -40.5 -120.5t-116.5 -41.5z" />
    <glyph glyph-name="uni01C9" unicode="&#x1c9;" horiz-adv-x="1069" 
d="M25 0v39l104 22v1239h-121v46l289 94h131v-1372l107 -27v-41h-510zM608 -406l-20 29q66 71 82 150t16 235v813h-121v45l289 95h125v-906q0 -138 -95 -264.5t-276 -196.5zM842 1087q-74 0 -118 42t-44 120t44 119t118 41q157 0 157 -160q0 -79 -40.5 -120.5t-116.5 -41.5z
" />
    <glyph glyph-name="uni01CA" unicode="&#x1ca;" horiz-adv-x="2009" 
d="M25 0v39l155 55v991l-155 68v41h387l544 -678v574l-211 63v41h453v-39l-156 -55v-1116h-69l-705 893v-775l230 -61v-41h-473zM1534 -18q-150 0 -307 67v375h59l127 -328q24 -19 37.5 -26t32.5 -7q54 0 68 52t14 209v802l-119 27v41h563v-39l-111 -25v-800
q0 -151 -111.5 -249.5t-252.5 -98.5z" />
    <glyph glyph-name="uni01CB" unicode="&#x1cb;" horiz-adv-x="1742" 
d="M25 0v39l155 55v991l-155 68v41h387l544 -678v574l-211 63v41h453v-39l-156 -55v-1116h-69l-705 893v-775l230 -61v-41h-473zM1282 -406l-20 29q66 71 82 150t16 235v813h-121v45l289 95h125v-906q0 -138 -95 -264.5t-276 -196.5zM1516 1087q-74 0 -118 42t-44 120
t44 119t118 41q157 0 157 -160q0 -79 -40.5 -120.5t-116.5 -41.5z" />
    <glyph glyph-name="uni01CC" unicode="&#x1cc;" horiz-adv-x="1609" 
d="M33 0v39l104 24v758h-119v45l289 95h70l51 -140q73 72 144 106t153 34q113 0 187.5 -87t74.5 -266v-545l90 -22v-41h-491v39l100 24v488q0 127 -40 182t-120 55q-36 0 -90 -14v-711l88 -22v-41h-491zM1149 -406l-21 29q66 71 82.5 150.5t16.5 234.5v813h-121v45l289 95
h125v-906q0 -138 -95 -264.5t-276 -196.5zM1382 1087q-74 0 -117.5 42t-43.5 120t43.5 119t117.5 41q77 0 117.5 -40.5t40.5 -119.5t-41 -120.5t-117 -41.5z" />
    <glyph glyph-name="uni01CD" unicode="&#x1cd;" horiz-adv-x="1114" 
d="M633 0v39l94 18l-96 291h-342l-90 -256l194 -51v-41h-399v39l110 49l404 1106h178l371 -1139l63 -14v-41h-487zM459 838l-146 -416h293l-137 416h-10zM623 1255h-62l-219 209l20 35l244 -98l238 92l20 -31z" />
    <glyph glyph-name="uni01CE" unicode="&#x1ce;" horiz-adv-x="888" 
d="M193 633h-119v248q61 32 180.5 56t196.5 24q157 0 247 -82.5t90 -233.5v-541l93 -59v-45h-349l-40 137q-26 -30 -44 -48.5t-52 -47t-72.5 -43t-79.5 -14.5q-94 0 -160 66t-66 181q0 137 107 204t289 67h73v184q0 199 -127 199q-10 0 -38 -8zM475 1071h-61l-244 305l25 31
l264 -168l248 176l24 -26zM487 176v260h-49q-54 0 -81 -38t-27 -103q0 -53 23.5 -92t64.5 -39q39 0 69 12z" />
    <glyph glyph-name="uni01CF" unicode="&#x1cf;" horiz-adv-x="663" 
d="M49 0v39l121 24v1063l-121 27v41h563v-39l-110 -25v-1064l110 -25v-41h-563zM365 1255h-62l-219 209l20 35l244 -98l238 92l20 -31z" />
    <glyph glyph-name="uni01D0" unicode="&#x1d0;" horiz-adv-x="555" 
d="M35 0v39l106 24v758h-123v45l289 95h127v-893l109 -27v-41h-508zM326 1063h-62l-244 305l25 31l264 -168l248 176l25 -27z" />
    <glyph glyph-name="uni01D1" unicode="&#x1d1;" horiz-adv-x="1222" 
d="M1167 643q0 -187 -67.5 -336t-198 -236t-303.5 -87q-244 0 -393.5 153.5t-149.5 425.5q0 295 159.5 472t412.5 177q252 0 396 -147.5t144 -421.5zM799 604q0 284 -41.5 408.5t-143.5 124.5q-110 0 -151 -121t-41 -410q0 -140 8.5 -237.5t29.5 -168.5t56.5 -105t87.5 -34
q43 0 74.5 15t52.5 48.5t35 76t21 108t9.5 133t2.5 162.5zM643 1255h-61l-220 209l21 35l244 -98l237 92l21 -31z" />
    <glyph glyph-name="uni01D2" unicode="&#x1d2;" horiz-adv-x="970" 
d="M928 461q0 -123 -37 -217t-101.5 -149.5t-143.5 -83t-169 -27.5q-77 0 -138.5 12t-118.5 43.5t-94.5 83t-60 134.5t-22.5 194q0 126 38 226.5t102.5 160.5t143 91.5t165.5 31.5q101 0 178.5 -26t136.5 -83.5t90 -155.5t31 -235zM606 436q0 443 -133 443q-108 0 -108 -385
q0 -95 5 -165.5t18 -133.5t38 -96t63 -33q27 0 47 14.5t32.5 43.5t20.5 60t11.5 78.5t4.5 84t1 89.5zM512 1063h-61l-244 305l24 31l265 -168l247 176l25 -27z" />
    <glyph glyph-name="uni01D3" unicode="&#x1d3;" horiz-adv-x="1171" 
d="M596 -18q-467 0 -467 419v723l-123 29v41h574v-39l-95 -18v-717q0 -179 47.5 -264.5t157.5 -85.5q117 0 176.5 102.5t59.5 290.5v629l-207 61v41h436v-39l-139 -59v-639q0 -129 -32.5 -223t-91.5 -148t-132.5 -79t-163.5 -25zM680 1257h-62l-219 209l21 35l244 -98
l237 92l21 -31z" />
    <glyph glyph-name="uni01D4" unicode="&#x1d4;" horiz-adv-x="1062" 
d="M702 0l-38 127q-73 -74 -137.5 -107.5t-145.5 -33.5q-113 0 -187.5 86.5t-74.5 265.5v483h-119v45l289 95h129v-566q0 -127 41 -182t123 -55q37 0 75 14v649h-118v45l288 95h127v-857l93 -59v-45h-345zM592 1063h-62l-243 305l24 31l264 -168l248 176l25 -27z" />
    <glyph glyph-name="AEmacron" unicode="&#x1e2;" horiz-adv-x="1505" 
d="M553 0v39l133 27v421h-280l-183 -411l170 -35v-41h-399v39l115 27l524 1128h803v-332h-62l-133 258h-221v-456l338 6v-101l-338 6v-499h227l178 295l62 -9l-55 -362h-879zM668 1085l-230 -520h248v520h-18zM1335 1337h-477v105h477v-105z" />
    <glyph glyph-name="aemacron" unicode="&#x1e3;" horiz-adv-x="1372" 
d="M74 633v248h2q61 32 179.5 56t195.5 24q159 0 247 -91q123 91 275 91q183 0 286 -128.5t103 -355.5h-547q4 -166 75.5 -245.5t174.5 -79.5q118 0 238 57l18 -25q-58 -82 -167 -141t-226 -59q-238 0 -346 166q-157 -166 -338 -166q-96 0 -161 61.5t-65 175.5
q0 137 116 209t298 72h74v184q0 94 -39.5 146.5t-106.5 52.5q-10 0 -38 -8l-129 -244h-119zM815 547l225 20q-1 44 -2 75t-4.5 71.5t-10.5 67.5t-17.5 52t-27 37.5t-38.5 12.5q-66 0 -93 -83.5t-32 -252.5zM987 1141h-479v98h479v-98zM436 164q70 0 113 43q-16 46 -23 70
t-13.5 66.5t-6.5 92.5h-49q-58 0 -90.5 -31.5t-32.5 -115.5q0 -66 25.5 -95.5t76.5 -29.5z" />
    <glyph glyph-name="uni01E6" unicode="&#x1e6;" horiz-adv-x="1144" 
d="M1063 70q-51 -34 -169.5 -60t-219.5 -26q-121 0 -229 34t-196.5 101.5t-141 181t-52.5 260.5q0 204 86 353t232 223.5t332 74.5q87 0 187.5 -22.5t149.5 -44.5v-316h-65l-148 293q-49 15 -94 15q-144 0 -228.5 -151t-84.5 -386q0 -539 303 -539h14l6 467l-106 23v39h424
v-520zM715 1255h-62l-219 209l21 35l243 -98l238 92l20 -31z" />
    <glyph glyph-name="uni01E7" unicode="&#x1e7;" horiz-adv-x="952" 
d="M451 360q-52 0 -113 7l-29 -93l228 -16q186 -16 281 -90.5t95 -222.5q0 -73 -40.5 -145t-108.5 -128t-165 -90.5t-204 -34.5q-195 0 -295 74t-100 197q0 81 64.5 141.5t160.5 93.5l-129 27v98l203 197q-246 50 -246 270q0 99 55.5 172t142 108.5t189.5 35.5
q113 0 201.5 -33.5t140.5 -96.5l144 130h20v-177h-131q31 -60 31 -135q0 -86 -57 -153t-146 -101.5t-192 -34.5zM240 -111q0 -120 54 -177.5t142 -57.5q112 0 163.5 57.5t51.5 141.5q0 65 -40 97.5t-148 55.5l-180 37q-43 -59 -43 -154zM485 1063h-61l-244 305l25 31
l264 -168l248 176l24 -27zM444 436q27 0 45 17t26 49t10.5 63t2.5 74q0 123 -20.5 182.5t-71.5 59.5q-52 0 -69 -54.5t-17 -164.5q0 -47 3.5 -82.5t12.5 -70.5t29 -54t49 -19z" />
    <glyph glyph-name="uni01E8" unicode="&#x1e8;" horiz-adv-x="1198" 
d="M37 0v39l121 24v1063l-121 27v41h563v-39l-111 -25v-1064l111 -25v-41h-563zM799 0l-279 520v49l344 535l-153 51v39h434v-47l-184 -41l-232 -348l406 -682l69 -39v-37h-405zM674 1255h-62l-219 209l21 35l243 -98l238 92l20 -31z" />
    <glyph glyph-name="uni01E9" unicode="&#x1e9;" horiz-adv-x="991" 
d="M25 0v39l106 27v1234h-123v46l289 94h129v-1377l90 -22v-41h-491zM444 401v45l263 402l-166 57v35h411v-37l-164 -57l-157 -246l276 -489l84 -70v-41h-340zM766 1255h-61l-220 209l21 35l244 -98l237 92l21 -31z" />
    <glyph glyph-name="uni01EA" unicode="&#x1ea;" horiz-adv-x="1222" 
d="M784 -348l23 -60q-57 -34 -160 -34q-82 0 -142.5 51.5t-60.5 142.5q0 138 148 232q-243 3 -390 156t-147 423q0 295 159.5 472t412.5 177q252 0 396 -147.5t144 -421.5q0 -246 -117.5 -423t-320.5 -222q-76 -39 -121 -100.5t-45 -128.5q0 -66 34.5 -102t98.5 -36
q48 0 88 21zM799 604q0 284 -41.5 408.5t-143.5 124.5q-110 0 -151 -121t-41 -410q0 -140 8.5 -237.5t29.5 -168.5t56.5 -105t87.5 -34q43 0 74.5 15t52.5 48.5t35 76t21 108t9.5 133t2.5 162.5z" />
    <glyph glyph-name="uni01EB" unicode="&#x1eb;" horiz-adv-x="970" 
d="M659 -348l23 -60q-57 -34 -160 -34q-82 0 -142.5 51.5t-60.5 142.5q0 138 148 232q-63 1 -114.5 9.5t-101 28.5t-86 55.5t-65 86t-43 123t-14.5 164.5q0 126 38 226.5t102.5 160.5t143 91.5t165.5 31.5q101 0 178.5 -26t136.5 -83.5t90 -155.5t31 -235q0 -194 -88.5 -309
t-231.5 -152q-77 -39 -123.5 -101.5t-46.5 -129.5q0 -66 34.5 -102t98.5 -36q48 0 88 21zM606 436q0 443 -133 443q-108 0 -108 -385q0 -95 5 -165.5t18 -133.5t38 -96t63 -33q27 0 47 14.5t32.5 43.5t20.5 60t11.5 78.5t4.5 84t1 89.5z" />
    <glyph glyph-name="uni01EC" unicode="&#x1ec;" horiz-adv-x="1222" 
d="M784 -348l23 -60q-57 -34 -160 -34q-82 0 -142.5 51.5t-60.5 142.5q0 138 148 232q-243 3 -390 156t-147 423q0 295 159.5 472t412.5 177q252 0 396 -147.5t144 -421.5q0 -246 -117.5 -423t-320.5 -222q-76 -39 -121 -100.5t-45 -128.5q0 -66 34.5 -102t98.5 -36
q48 0 88 21zM799 604q0 284 -41.5 408.5t-143.5 124.5q-110 0 -151 -121t-41 -410q0 -140 8.5 -237.5t29.5 -168.5t56.5 -105t87.5 -34q43 0 74.5 15t52.5 48.5t35 76t21 108t9.5 133t2.5 162.5zM868 1339h-477v105h477v-105z" />
    <glyph glyph-name="uni01ED" unicode="&#x1ed;" horiz-adv-x="970" 
d="M659 -348l23 -60q-57 -34 -160 -34q-82 0 -142.5 51.5t-60.5 142.5q0 138 148 232q-63 1 -114.5 9.5t-101 28.5t-86 55.5t-65 86t-43 123t-14.5 164.5q0 126 38 226.5t102.5 160.5t143 91.5t165.5 31.5q101 0 178.5 -26t136.5 -83.5t90 -155.5t31 -235q0 -194 -88.5 -309
t-231.5 -152q-77 -39 -123.5 -101.5t-46.5 -129.5q0 -66 34.5 -102t98.5 -36q48 0 88 21zM606 436q0 443 -133 443q-108 0 -108 -385q0 -95 5 -165.5t18 -133.5t38 -96t63 -33q27 0 47 14.5t32.5 43.5t20.5 60t11.5 78.5t4.5 84t1 89.5zM727 1141h-479v98h479v-98z" />
    <glyph glyph-name="uni01EE" unicode="&#x1ee;" horiz-adv-x="862" 
d="M471 133q0 328 -221 328l-25 86l389 461l-4 14h-432l-90 -186h-74l29 358h758l20 -64l-393 -456l4 -12q189 -20 298.5 -139t109.5 -300q0 -218 -132 -344.5t-358 -126.5q-169 0 -317 72v244h94q17 -100 67 -168t130 -68q147 0 147 301zM453 1255h-62l-219 209l21 35
l243 -98l238 92l20 -31z" />
    <glyph glyph-name="uni01EF" unicode="&#x1ef;" horiz-adv-x="782" 
d="M760 78q0 -90 -43 -171.5t-113 -140t-156.5 -101t-176 -62.5t-169.5 -17l-12 78q96 15 179 78t128 144t45 157q0 104 -41.5 157.5t-121.5 53.5q-34 0 -72 -10l-33 118l338 400l-6 14h-330l-86 -168l-72 6l29 324h655l17 -61l-397 -451l6 -12q90 2 166.5 -16.5t136.5 -58
t94.5 -106.5t34.5 -155zM403 1063h-61l-244 305l25 31l264 -168l248 176l24 -27z" />
    <glyph glyph-name="uni01F1" unicode="&#x1f1;" horiz-adv-x="2203" 
d="M37 0v39l119 24v1063l-119 27v41h524q109 0 196 -13.5t171.5 -51.5t141.5 -99.5t91.5 -164t34.5 -238.5q0 -151 -49 -272t-134.5 -197.5t-198.5 -117t-245 -40.5h-532zM1290 0l-20 74l536 1046h-311l-135 -317h-47v391h821l16 -70l-555 -1048h375l152 301l53 -10
l-39 -367h-846zM530 1122h-41v-1044h31q114 0 179 45.5t96.5 158t31.5 314.5q0 283 -67.5 404.5t-229.5 121.5z" />
    <glyph glyph-name="uni01F2" unicode="&#x1f2;" horiz-adv-x="2111" 
d="M37 0v39l119 24v1063l-119 27v41h524q109 0 196 -13.5t171.5 -51.5t141.5 -99.5t91.5 -164t34.5 -238.5q0 -151 -49 -272t-134.5 -197.5t-198.5 -117t-245 -40.5h-532zM2083 379l-33 -379h-750l-22 92l451 766h-236l-162 -254l-35 6l23 330h700l33 -111l-436 -747h260
l176 303zM530 1122h-41v-1044h31q114 0 179 45.5t96.5 158t31.5 314.5q0 283 -67.5 404.5t-229.5 121.5z" />
    <glyph glyph-name="uni01F3" unicode="&#x1f3;" horiz-adv-x="1875" 
d="M666 0l-31 106q-95 -122 -254 -122q-155 0 -246.5 125t-91.5 335q0 114 37 212t99 164t144 103.5t171 37.5q58 0 127 -27v366h-125v46l288 94h123v-1336l97 -59v-45h-338zM1847 379l-32 -379h-750l-23 92l451 766h-236l-161 -254l-35 6l22 330h701l33 -111l-437 -747h260
l177 303zM621 162v708q-38 9 -76 9q-79 0 -131 -100t-52 -273q0 -153 50.5 -257t136.5 -104q29 0 72 17z" />
    <glyph glyph-name="uni01F4" unicode="&#x1f4;" horiz-adv-x="1144" 
d="M977 829l-148 293q-49 15 -94 15q-144 0 -228.5 -151t-84.5 -386q0 -539 303 -539h14l6 467l-106 23v39h424v-520q-51 -34 -169.5 -60t-219.5 -26q-121 0 -229 34t-196.5 101.5t-141 181t-52.5 260.5q0 204 86 353t232 223.5t332 74.5q87 0 187.5 -22.5t149.5 -44.5v-316
h-65zM907 1528l74 -172l-406 -86l-14 33z" />
    <glyph glyph-name="uni01F5" unicode="&#x1f5;" horiz-adv-x="952" 
d="M451 360q-52 0 -113 7l-29 -93l228 -16q186 -16 281 -90.5t95 -222.5q0 -73 -40.5 -145t-108.5 -128t-165 -90.5t-204 -34.5q-195 0 -295 74t-100 197q0 81 64.5 141.5t160.5 93.5l-129 27v98l203 197q-246 50 -246 270q0 99 55.5 172t142 108.5t189.5 35.5
q113 0 201.5 -33.5t140.5 -96.5l144 130h20v-177h-131q31 -60 31 -135q0 -86 -57 -153t-146 -101.5t-192 -34.5zM240 -111q0 -120 54 -177.5t142 -57.5q112 0 163.5 57.5t51.5 141.5q0 65 -40 97.5t-148 55.5l-180 37q-43 -59 -43 -154zM444 436q27 0 45 17t26 49t10.5 63
t2.5 74q0 123 -20.5 182.5t-71.5 59.5q-52 0 -69 -54.5t-17 -164.5q0 -47 3.5 -82.5t12.5 -70.5t29 -54t49 -19zM670 1397l121 -148l-371 -196l-19 22z" />
    <glyph glyph-name="uni01F8" unicode="&#x1f8;" horiz-adv-x="1220" 
d="M25 0v39l155 55v991l-155 68v41h387l544 -678v574l-211 63v41h453v-39l-156 -55v-1116h-69l-705 893v-775l230 -61v-41h-473zM358 1358l74 172l342 -232l-14 -30z" />
    <glyph glyph-name="uni01F9" unicode="&#x1f9;" horiz-adv-x="1087" 
d="M33 0v39l104 24v758h-119v45l289 95h70l51 -140q73 72 144 106t153 34q113 0 187.5 -87t74.5 -266v-545l90 -22v-41h-491v39l100 24v488q0 127 -40 182t-120 55q-36 0 -90 -14v-711l88 -22v-41h-491zM317 1249l121 148l269 -322l-19 -26z" />
    <glyph glyph-name="uni01FA" unicode="&#x1fa;" horiz-adv-x="1114" 
d="M633 0v39l94 18l-96 291h-342l-90 -256l194 -51v-41h-399v39l110 49l404 1106h178l371 -1139l63 -14v-41h-487zM596 1225q-66 0 -115 41t-49 116t49 115.5t115 40.5q68 0 119 -41t51 -115q0 -72 -51.5 -114.5t-118.5 -42.5zM459 838l-146 -416h293l-137 416h-10z
M784 1804l74 -172l-405 -86l-15 33zM596 1282q50 0 73 32t23 68q0 40 -26 68.5t-70 28.5q-49 0 -70.5 -29.5t-21.5 -67.5q0 -47 27 -73.5t65 -26.5z" />
    <glyph glyph-name="uni01FB" unicode="&#x1fb;" horiz-adv-x="888" 
d="M193 633h-119v248q61 32 180.5 56t196.5 24q157 0 247 -82.5t90 -233.5v-541l93 -59v-45h-349l-40 137q-26 -30 -44 -48.5t-52 -47t-72.5 -43t-79.5 -14.5q-94 0 -160 66t-66 181q0 137 107 204t289 67h73v184q0 199 -127 199q-10 0 -38 -8zM446 1042q-66 0 -114.5 41.5
t-48.5 116.5t48.5 115.5t114.5 40.5q68 0 119 -41t51 -115q0 -72 -51.5 -115t-118.5 -43zM674 1659l74 -172l-406 -86l-14 33zM487 176v260h-49q-54 0 -81 -38t-27 -103q0 -53 23.5 -92t64.5 -39q39 0 69 12zM446 1100q50 0 73.5 32t23.5 68q0 40 -26.5 68t-70.5 28
q-49 0 -70.5 -29t-21.5 -67q0 -47 27 -73.5t65 -26.5z" />
    <glyph glyph-name="AEacute" unicode="&#x1fc;" horiz-adv-x="1505" 
d="M553 0v39l133 27v421h-280l-183 -411l170 -35v-41h-399v39l115 27l524 1128h803v-332h-62l-133 258h-221v-456l338 6v-101l-338 6v-499h227l178 295l62 -9l-55 -362h-879zM668 1085l-230 -520h248v520h-18zM1298 1530l74 -172l-405 -86l-15 33z" />
    <glyph glyph-name="aeacute" unicode="&#x1fd;" horiz-adv-x="1372" 
d="M74 633v248h2q61 32 179.5 56t195.5 24q159 0 247 -91q123 91 275 91q183 0 286 -128.5t103 -355.5h-547q4 -166 75.5 -245.5t174.5 -79.5q118 0 238 57l18 -25q-58 -82 -167 -141t-226 -59q-238 0 -346 166q-157 -166 -338 -166q-96 0 -161 61.5t-65 175.5
q0 137 116 209t298 72h74v184q0 94 -39.5 146.5t-106.5 52.5q-10 0 -38 -8l-129 -244h-119zM815 547l225 20q-1 44 -2 75t-4.5 71.5t-10.5 67.5t-17.5 52t-27 37.5t-38.5 12.5q-66 0 -93 -83.5t-32 -252.5zM436 164q70 0 113 43q-16 46 -23 70t-13.5 66.5t-6.5 92.5h-49
q-58 0 -90.5 -31.5t-32.5 -115.5q0 -66 25.5 -95.5t76.5 -29.5zM954 1397l121 -148l-370 -196l-19 22z" />
    <glyph glyph-name="Oslashacute" unicode="&#x1fe;" horiz-adv-x="1222" 
d="M1167 643q0 -187 -67.5 -336t-198 -236t-303.5 -87q-214 0 -354 116l-99 -116h-82l134 161q-142 155 -142 418q0 295 159.5 472t412.5 177q222 0 360 -114l94 114h86l-133 -161q133 -149 133 -408zM422 606q0 -74 4 -184l362 436q-15 144 -56.5 211.5t-117.5 67.5
q-110 0 -151 -121t-41 -410zM799 604q0 66 -4 160l-361 -434q15 -136 55.5 -202.5t114.5 -66.5q43 0 74.5 15t52.5 48.5t35 76t21 108t9.5 133t2.5 162.5zM877 1528l73 -172l-405 -86l-15 33z" />
    <glyph glyph-name="oslashacute" unicode="&#x1ff;" horiz-adv-x="970" 
d="M928 461q0 -123 -37 -217t-101.5 -149.5t-143.5 -83t-169 -27.5q-178 0 -278 67l-54 -67h-96l94 116q-100 114 -100 351q0 126 38 226.5t102.5 160.5t143 91.5t165.5 31.5q173 0 276 -76l61 76h99l-105 -130q105 -127 105 -370zM606 436q0 78 -2 119l-229 -285
q23 -204 114 -204q27 0 47 14.5t32.5 43.5t20.5 60t11.5 78.5t4.5 84t1 89.5zM365 494q0 -78 2 -113l227 285q-29 213 -121 213q-108 0 -108 -385zM754 1397l120 -148l-370 -196l-19 22z" />
    <glyph glyph-name="Scommaaccent" unicode="&#x218;" horiz-adv-x="888" 
d="M743 815l-114 289q-61 33 -144 33q-87 0 -139.5 -52t-52.5 -127q0 -132 235 -217q46 -17 77.5 -30.5t73 -36.5t69 -51t53.5 -66t38.5 -89t12.5 -112q0 -130 -60.5 -215t-160.5 -121t-238 -36q-161 0 -346 82v346h68l106 -291q84 -62 185 -62q78 0 131 50t53 127
q0 39 -21.5 72t-65.5 62t-82 48t-101 47q-15 7 -23 10q-52 23 -91.5 49.5t-75.5 67.5t-55.5 100.5t-19.5 134.5q0 184 117 284.5t301 100.5q205 0 336 -77v-320h-66zM360 -104h193l-158 -320h-57z" />
    <glyph glyph-name="scommaaccent" unicode="&#x219;" horiz-adv-x="802" 
d="M375 -18q-139 0 -330 43v280h86l119 -219q59 -27 110 -27q29 0 53.5 6t48.5 20t38 43t14 71q0 35 -26 62t-67 46t-91 38.5t-100.5 46.5t-91.5 62.5t-67 94t-26 133.5q0 57 23 104.5t61 79t89 53.5t104.5 32t109.5 10q191 0 320 -66v-231h-88l-107 196q-51 19 -98 19
q-63 0 -108.5 -32.5t-45.5 -82.5q0 -40 26 -69t67.5 -48t91.5 -37t100.5 -43.5t92 -59.5t67.5 -92.5t26 -135.5q0 -129 -113 -213t-288 -84zM332 -104h192l-157 -320h-58z" />
    <glyph glyph-name="uni021A" unicode="&#x21a;" horiz-adv-x="999" 
d="M215 0v39l121 24v1057h-117l-160 -360h-57v434h995v-434h-55l-160 360h-114v-1054l110 -25v-41h-563zM422 -104h192l-157 -320h-58z" />
    <glyph glyph-name="uni021B" unicode="&#x21b;" horiz-adv-x="714" 
d="M680 125l12 -66q-63 -37 -126 -56t-148 -19q-64 0 -112.5 14t-91 48t-65 101t-22.5 164v498h-119v51l125 49l86 252h209v-252h238v-100h-238v-467q0 -30 0.5 -42.5t2 -39t4 -38t7 -31.5t11.5 -29.5t17 -22.5t23.5 -18.5t31.5 -10t40 -4.5q45 0 115 19zM332 -104h192
l-157 -320h-58z" />
    <glyph glyph-name="uni021C" unicode="&#x21c;" horiz-adv-x="862" 
d="M471 133q0 328 -221 328l-25 86l389 461l-4 14h-432l-90 -186h-74l29 358h758l20 -64l-393 -456l4 -12q189 -20 298.5 -139t109.5 -300q0 -218 -132 -344.5t-358 -126.5q-169 0 -317 72v244h94q17 -100 67 -168t130 -68q147 0 147 301z" />
    <glyph glyph-name="uni021D" unicode="&#x21d;" horiz-adv-x="782" 
d="M760 78q0 -90 -43 -171.5t-113 -140t-156.5 -101t-176 -62.5t-169.5 -17l-12 78q96 15 179 78t128 144t45 157q0 104 -41.5 157.5t-121.5 53.5q-34 0 -72 -10l-33 118l338 400l-6 14h-330l-86 -168l-72 6l29 324h655l17 -61l-397 -451l6 -12q90 2 166.5 -16.5t136.5 -58
t94.5 -106.5t34.5 -155z" />
    <glyph glyph-name="uni021E" unicode="&#x21e;" horiz-adv-x="1300" 
d="M700 0v39l119 16v533h-330v-531l111 -16v-41h-563v39l121 16v1080l-121 18v41h563v-39l-111 -16v-490h330v486l-119 18v41h564v-39l-111 -16v-1082l111 -16v-41h-564zM672 1255h-62l-219 209l21 35l243 -98l238 92l20 -31z" />
    <glyph glyph-name="uni021F" unicode="&#x21f;" horiz-adv-x="1087" 
d="M23 0v39l106 24v1237h-123v46l289 94h129v-611q144 132 301 132q113 0 186.5 -87t73.5 -266v-545l92 -22v-41h-491v39l102 24v488q0 127 -41 182t-121 55q-46 0 -102 -16v-709l90 -22v-41h-491zM752 1255h-62l-219 209l21 35l243 -98l238 92l20 -31z" />
    <glyph glyph-name="uni0226" unicode="&#x226;" horiz-adv-x="1114" 
d="M633 0v39l94 18l-96 291h-342l-90 -256l194 -51v-41h-399v39l110 49l404 1106h178l371 -1139l63 -14v-41h-487zM459 838l-146 -416h293l-137 416h-10zM473 1413q0 63 34 98t89 35t91 -35.5t36 -97.5q0 -57 -32.5 -93t-94.5 -36q-59 0 -91 36t-32 93z" />
    <glyph glyph-name="uni0227" unicode="&#x227;" horiz-adv-x="888" 
d="M193 633h-119v248q61 32 180.5 56t196.5 24q157 0 247 -82.5t90 -233.5v-541l93 -59v-45h-349l-40 137q-26 -30 -44 -48.5t-52 -47t-72.5 -43t-79.5 -14.5q-94 0 -160 66t-66 181q0 137 107 204t289 67h73v184q0 199 -127 199q-10 0 -38 -8zM336 1237q0 63 34 98t89 35
t91 -35.5t36 -97.5q0 -57 -32.5 -93t-94.5 -36q-59 0 -91 36t-32 93zM487 176v260h-49q-54 0 -81 -38t-27 -103q0 -53 23.5 -92t64.5 -39q39 0 69 12z" />
    <glyph glyph-name="uni0228" unicode="&#x228;" horiz-adv-x="991" 
d="M844 561l-355 6v-491h248l178 295l56 -9l-53 -362h-324l-23 -55q81 -21 123.5 -72.5t42.5 -122.5q0 -83 -67.5 -144t-177.5 -61q-92 0 -152 45l31 72q65 -45 137 -45q44 0 71 33t27 82q0 53 -42 87.5t-115 45.5l61 135h-473v39l121 24v1063l-121 27v41h885v-332h-56
l-133 258h-244v-467l355 9v-101z" />
    <glyph glyph-name="uni0229" unicode="&#x229;" horiz-adv-x="911" 
d="M428 -467q-92 0 -152 45l31 72q65 -45 137 -45q45 0 72 32.5t27 81.5q0 53 -42.5 88t-115.5 46l59 131q-185 6 -293 123.5t-108 336.5q0 121 39.5 221t106 163.5t150 98t173.5 34.5q183 0 285 -128t102 -356h-537q3 -167 71.5 -246t170.5 -79q115 0 238 57l16 -25
q-47 -70 -137 -124.5t-191 -69.5l-22 -58q82 -21 124 -72t42 -122q0 -83 -68 -144t-178 -61zM479 883q-34 0 -57.5 -22.5t-36 -69t-17.5 -104t-6 -140.5l218 20q-1 53 -2.5 90.5t-8 83.5t-16.5 74.5t-29 48t-45 19.5z" />
    <glyph glyph-name="uni022E" unicode="&#x22e;" horiz-adv-x="1222" 
d="M1167 643q0 -187 -67.5 -336t-198 -236t-303.5 -87q-244 0 -393.5 153.5t-149.5 425.5q0 295 159.5 472t412.5 177q252 0 396 -147.5t144 -421.5zM799 604q0 284 -41.5 408.5t-143.5 124.5q-110 0 -151 -121t-41 -410q0 -140 8.5 -237.5t29.5 -168.5t56.5 -105t87.5 -34
q43 0 74.5 15t52.5 48.5t35 76t21 108t9.5 133t2.5 162.5zM489 1413q0 63 34 98t89 35t91 -35.5t36 -97.5q0 -57 -32.5 -93t-94.5 -36q-59 0 -91 36t-32 93z" />
    <glyph glyph-name="uni022F" unicode="&#x22f;" horiz-adv-x="970" 
d="M928 461q0 -123 -37 -217t-101.5 -149.5t-143.5 -83t-169 -27.5q-77 0 -138.5 12t-118.5 43.5t-94.5 83t-60 134.5t-22.5 194q0 126 38 226.5t102.5 160.5t143 91.5t165.5 31.5q101 0 178.5 -26t136.5 -83.5t90 -155.5t31 -235zM606 436q0 443 -133 443q-108 0 -108 -385
q0 -95 5 -165.5t18 -133.5t38 -96t63 -33q27 0 47 14.5t32.5 43.5t20.5 60t11.5 78.5t4.5 84t1 89.5zM362 1237q0 63 34 98t89 35t91 -35.5t36 -97.5q0 -57 -32.5 -93t-94.5 -36q-59 0 -91 36t-32 93z" />
    <glyph glyph-name="Ymacron" unicode="&#x232;" horiz-adv-x="1011" 
d="M225 0v39l119 24v443l-287 631l-69 16v41h506v-39l-103 -18l223 -510l193 487l-178 39v41h395v-39l-117 -29l-231 -577v-483l112 -25v-41h-563zM807 1339h-477v105h477v-105z" />
    <glyph glyph-name="ymacron" unicode="&#x233;" horiz-adv-x="950" 
d="M524 0l-149 -424h-193v35l230 342l-355 928l-75 18v41h510v-39l-127 -31l186 -581l207 542l-152 68v41h361v-39l-105 -47zM770 1145h-479v98h479v-98z" />
    <glyph glyph-name="dotlessj" unicode="&#x237;" horiz-adv-x="522" 
d="M61 -406l-20 29q66 71 82 150t16 235v813h-121v45l289 95h125v-906q0 -138 -95 -264.5t-276 -196.5z" />
    <glyph glyph-name="schwa" unicode="&#x259;" horiz-adv-x="911" 
d="M399 -16q-183 0 -286 128t-103 355h539q-4 166 -73 246t-169 80q-115 0 -237 -58l-19 25q58 82 167 141.5t226 59.5q193 0 308.5 -118t115.5 -343q0 -121 -39.5 -221t-106 -163t-150 -97.5t-173.5 -34.5zM432 61q34 0 56.5 22t35 68.5t18 103t7.5 140.5l-217 -18
q1 -44 2 -75t4.5 -71.5t10.5 -67.5t17.5 -52t27 -37.5t38.5 -12.5z" />
    <glyph glyph-name="circumflex" unicode="&#x2c6;" horiz-adv-x="866" 
d="M424 1374h61l213 -303l-24 -31l-234 150l-225 -152l-27 25z" />
    <glyph glyph-name="caron" unicode="&#x2c7;" horiz-adv-x="866" 
d="M461 1063h-62l-243 305l24 31l264 -168l248 176l25 -27z" />
    <glyph glyph-name="breve" unicode="&#x2d8;" horiz-adv-x="800" 
d="M408 1100q-60 0 -114.5 19.5t-88.5 46.5t-54 48t-24 31l94 74q78 -100 189 -100q74 0 134.5 34.5t76.5 59.5l36 -17q-15 -64 -86 -130t-163 -66z" />
    <glyph glyph-name="dotaccent" unicode="&#x2d9;" horiz-adv-x="559" 
d="M176 1237q0 63 34 98t89 35t91 -35.5t36 -97.5q0 -57 -32.5 -93t-94.5 -36q-59 0 -91 36t-32 93z" />
    <glyph glyph-name="ring" unicode="&#x2da;" horiz-adv-x="686" 
d="M338 1065q-66 0 -115 41.5t-49 116.5q0 74 49 114.5t115 40.5q68 0 119 -40.5t51 -114.5q0 -72 -51.5 -115t-118.5 -43zM338 1122q50 0 73 32.5t23 68.5q0 40 -26 68t-70 28q-49 0 -70.5 -29t-21.5 -67q0 -47 27 -74t65 -27z" />
    <glyph glyph-name="ogonek" unicode="&#x2db;" horiz-adv-x="907" 
d="M805 -348l22 -60q-57 -34 -159 -34q-82 0 -142.5 51.5t-60.5 142.5q0 51 21.5 96.5t54 78t77 60t84 44t80.5 28.5l33 -34q-101 -32 -166 -104t-65 -152q0 -66 34.5 -102t98.5 -36q48 0 88 21z" />
    <glyph glyph-name="tilde" unicode="&#x2dc;" horiz-adv-x="866" 
d="M539 1128q-57 0 -120.5 20.5t-103.5 20.5t-102 -65l-37 37q77 145 172 145q44 0 122 -22.5t93 -22.5q29 0 57 14.5t41 28.5l13 14l37 -36q-22 -46 -70.5 -90t-101.5 -44z" />
    <glyph glyph-name="hungarumlaut" unicode="&#x2dd;" horiz-adv-x="913" 
d="M147 1055l-30 20l207 363l139 -119zM434 1051l-26 30l239 305l131 -137z" />
    <glyph glyph-name="gravecmb" unicode="&#x300;" horiz-adv-x="0" 
d="M-735 1249l121 148l268 -322l-19 -26z" />
    <glyph glyph-name="acutecmb" unicode="&#x301;" horiz-adv-x="0" 
d="M-360 1397l120 -148l-370 -196l-19 22z" />
    <glyph glyph-name="circumflexcmb" unicode="&#x302;" horiz-adv-x="0" 
d="M-494 1393h62l213 -303l-25 -31l-233 149l-225 -151l-27 24z" />
    <glyph glyph-name="tildecmb" unicode="&#x303;" horiz-adv-x="0" 
d="M-365 1157q-57 0 -120 20.5t-103 20.5t-102 -65l-37 36q77 146 172 146q44 0 122 -22.5t93 -22.5q29 0 57 14t41 28l13 15l36 -37q-21 -46 -70 -89.5t-102 -43.5z" />
    <glyph glyph-name="macroncmb" unicode="&#x304;" horiz-adv-x="0" 
d="M-242 1141h-479v98h479v-98z" />
    <glyph glyph-name="brevecmb" unicode="&#x306;" horiz-adv-x="0" 
d="M-455 1100q-60 0 -114.5 19.5t-88 46.5t-53.5 48t-24 31l94 74q78 -100 188 -100q74 0 134.5 34.5t76.5 59.5l37 -17q-15 -63 -86.5 -129.5t-163.5 -66.5z" />
    <glyph glyph-name="dotaccentcmb" unicode="&#x307;" horiz-adv-x="0" 
d="M-578 1243q0 63 34 98t89 35t91 -35.5t36 -97.5q0 -57 -32.5 -93t-94.5 -36q-59 0 -91 36t-32 93z" />
    <glyph glyph-name="dieresiscmb" unicode="&#x308;" horiz-adv-x="0" 
d="M-778 1202q0 53 31.5 87t80.5 34q48 0 81.5 -34.5t33.5 -86.5q0 -49 -33.5 -83t-81.5 -34q-49 0 -80.5 33.5t-31.5 83.5zM-432 1202q0 53 32 87t83 34q46 0 78 -34.5t32 -86.5q0 -49 -32 -83t-78 -34q-50 0 -82.5 33.5t-32.5 83.5z" />
    <glyph glyph-name="hookcmb" unicode="&#x309;" horiz-adv-x="0" 
d="M-283 1268q0 -62 -54.5 -127.5t-108.5 -93.5l-35 34q78 73 78 174q0 70 -68 70q-33 0 -78 -35l-39 56q61 65 154 65q64 0 107.5 -32t43.5 -111z" />
    <glyph glyph-name="ringcmb" unicode="&#x30a;" horiz-adv-x="0" 
d="M-481 1065q-66 0 -115 41.5t-49 116.5q0 74 49 114.5t115 40.5q68 0 119 -40.5t51 -114.5q0 -72 -51.5 -115t-118.5 -43zM-481 1122q50 0 73 32.5t23 68.5q0 40 -26 68t-70 28q-49 0 -70.5 -29t-21.5 -67q0 -47 27 -74t65 -27z" />
    <glyph glyph-name="hungarumlautcmb" unicode="&#x30b;" horiz-adv-x="0" 
d="M-694 1055l-31 20l207 363l139 -119zM-408 1051l-26 30l239 305l132 -137z" />
    <glyph glyph-name="caroncmb" unicode="&#x30c;" horiz-adv-x="0" 
d="M-436 1063h-62l-243 305l24 31l264 -168l248 176l25 -27z" />
    <glyph glyph-name="candrabinducmb" unicode="&#x310;" horiz-adv-x="0" 
d="M-457 1067q-60 0 -112.5 19.5t-85.5 47.5t-50 47t-24 31l76 88q41 -52 78 -78q61 -40 131 -40q39 0 76.5 16.5t64.5 42t40.5 41.5t22.5 29l33 -27q-3 -10 -12.5 -30.5t-31.5 -54t-49 -62t-69 -49.5t-88 -21zM-575 1405q0 57 31.5 87t88.5 30q121 0 121 -117
q0 -115 -121 -115q-56 0 -88 29.5t-32 85.5z" />
    <glyph glyph-name="dotbelowcmb" unicode="&#x323;" horiz-adv-x="0" 
d="M-573 -236q0 63 33.5 98.5t88.5 35.5t91 -36t36 -98q0 -57 -32.5 -93t-94.5 -36q-59 0 -90.5 36t-31.5 93z" />
    <glyph glyph-name="dieresisbelowcmb" unicode="&#x324;" horiz-adv-x="0" 
d="M-776 -203q0 53 31.5 87t80.5 34q48 0 81.5 -34.5t33.5 -86.5q0 -49 -33.5 -82.5t-81.5 -33.5q-49 0 -80.5 33t-31.5 83zM-430 -203q0 53 32 87t83 34q46 0 78 -34.5t32 -86.5q0 -49 -32 -82.5t-78 -33.5q-51 0 -83 33t-32 83z" />
    <glyph glyph-name="ringbelowcmb" unicode="&#x325;" horiz-adv-x="0" 
d="M-494 -403q-66 0 -114.5 41t-48.5 116t48.5 115.5t114.5 40.5q68 0 119 -41t51 -115q0 -72 -51.5 -114.5t-118.5 -42.5zM-494 -346q50 0 73.5 32t23.5 68q0 40 -26.5 68t-70.5 28q-49 0 -70.5 -29t-21.5 -67q0 -47 27 -73.5t65 -26.5z" />
    <glyph glyph-name="cedillacmb" unicode="&#x327;" horiz-adv-x="0" 
d="M-547 -487q-91 0 -151 45l30 71q65 -45 138 -45q44 0 71 33t27 82q0 53 -42.5 87.5t-115.5 45.5l84 184h82l-43 -104q81 -21 123.5 -72.5t42.5 -122.5q0 -83 -68 -143.5t-178 -60.5z" />
    <glyph glyph-name="ogonekcmb" unicode="&#x328;" horiz-adv-x="0" 
d="M-346 -348l22 -60q-57 -34 -159 -34q-82 0 -142.5 51.5t-60.5 142.5q0 51 21.5 96.5t54 78t77 60t84 44t80.5 28.5l33 -34q-101 -32 -166 -104t-65 -152q0 -66 34.5 -102t98.5 -36q48 0 88 21z" />
    <glyph glyph-name="brevebelowcmb" unicode="&#x32e;" horiz-adv-x="0" 
d="M-467 -330q-60 0 -114.5 19.5t-88.5 47t-54 48.5t-24 31l95 73q78 -100 188 -100q74 0 134.5 34.5t76.5 59.5l37 -16q-15 -64 -86.5 -130.5t-163.5 -66.5z" />
    <glyph glyph-name="macronbelowcmb" unicode="&#x331;" horiz-adv-x="0" 
d="M-233 -287h-480v99h480v-99z" />
    <glyph glyph-name="uni0374" unicode="&#x374;" horiz-adv-x="430" 
d="M375 1296q0 -107 -87 -243.5t-212 -223.5l-19 25q125 184 125 287q0 144 -127 164q0 64 50.5 117t115.5 53q69 0 111.5 -51.5t42.5 -127.5z" />
    <glyph glyph-name="uni0375" unicode="&#x375;" horiz-adv-x="464" 
d="M410 96q0 -119 -95.5 -270.5t-234.5 -249.5l-23 29q140 202 140 317q0 160 -142 182q0 71 57 130t128 59q76 0 123 -56.5t47 -140.5z" />
    <glyph glyph-name="uni037E" unicode="&#x37e;" horiz-adv-x="573" 
d="M467 96q0 -119 -104.5 -270.5t-256.5 -249.5l-24 29q151 199 151 317q0 161 -153 182q0 71 61.5 130t139.5 59q84 0 135 -56.5t51 -140.5zM131 793q0 75 52 131.5t132 56.5q84 0 131.5 -54.5t47.5 -133.5q0 -68 -49 -121.5t-130 -53.5q-80 0 -132 53t-52 122z" />
    <glyph glyph-name="tonos" unicode="&#x384;" horiz-adv-x="313" 
d="M84 1446l192 -37l-176 -371l-51 11z" />
    <glyph glyph-name="dieresistonos" unicode="&#x385;" horiz-adv-x="835" 
d="M74 1149q0 57 34 87t91 30q59 0 91 -29.5t32 -87.5q0 -56 -32.5 -85.5t-90.5 -29.5q-57 0 -91 29.5t-34 85.5zM563 1149q0 57 34 87t91 30q125 0 125 -117q0 -56 -33 -85.5t-92 -29.5q-57 0 -91 29.5t-34 85.5zM416 1446l194 -37l-178 -369l-51 9z" />
    <glyph glyph-name="Alphatonos" unicode="&#x386;" horiz-adv-x="1114" 
d="M-6 0v39l110 49l404 1106h178l371 -1139l63 -14v-41h-487v39l94 18l-96 291h-342l-90 -256l194 -51v-41h-399zM459 838l-146 -416h293l-137 416h-10zM160 1200l192 -37l-176 -370l-51 10z" />
    <glyph glyph-name="anoteleia" unicode="&#x387;" horiz-adv-x="456" 
d="M82 592q0 66 43.5 107.5t103.5 41.5q61 0 103.5 -41.5t42.5 -107.5q0 -68 -42.5 -111t-103.5 -43q-60 0 -103.5 43.5t-43.5 110.5z" />
    <glyph glyph-name="Epsilontonos" unicode="&#x388;" horiz-adv-x="991" 
d="M844 561l-355 6v-491h248l178 295l56 -9l-53 -362h-881v39l121 24v1063l-121 27v41h885v-332h-56l-133 258h-244v-467l355 9v-101zM-170 1200l193 -37l-177 -370l-51 10z" />
    <glyph glyph-name="Etatonos" unicode="&#x389;" horiz-adv-x="1300" 
d="M700 0v39l119 16v533h-330v-531l111 -16v-41h-563v39l121 16v1080l-121 18v41h563v-39l-111 -16v-490h330v486l-119 18v41h564v-39l-111 -16v-1082l111 -16v-41h-564zM-211 1200l193 -37l-177 -370l-51 10z" />
    <glyph glyph-name="Iotatonos" unicode="&#x38a;" horiz-adv-x="663" 
d="M49 0v39l121 24v1063l-121 27v41h563v-39l-110 -25v-1064l110 -25v-41h-563zM-180 1200l192 -37l-176 -370l-51 10z" />
    <glyph glyph-name="Omicrontonos" unicode="&#x38c;" horiz-adv-x="1222" 
d="M1167 643q0 -187 -67.5 -336t-198 -236t-303.5 -87q-244 0 -393.5 153.5t-149.5 425.5q0 295 159.5 472t412.5 177q252 0 396 -147.5t144 -421.5zM799 604q0 284 -41.5 408.5t-143.5 124.5q-110 0 -151 -121t-41 -410q0 -140 8.5 -237.5t29.5 -168.5t56.5 -105t87.5 -34
q43 0 74.5 15t52.5 48.5t35 76t21 108t9.5 133t2.5 162.5zM-72 1200l193 -37l-176 -370l-51 10z" />
    <glyph glyph-name="Upsilontonos" unicode="&#x38e;" horiz-adv-x="1175" 
d="M264 0v37l133 26v240q0 154 -44.5 335t-115 316t-139.5 162q-50 0 -90 -6l-8 53q37 17 162.5 33t171.5 16q38 -20 68.5 -46t64.5 -77t60.5 -120.5t50 -179t38.5 -248.5h15q34 286 102.5 452t179.5 219q7 -1 77.5 -7.5t121 -13.5t64.5 -13l-5 -66q-109 -12 -196.5 -94.5
t-138.5 -203.5t-78 -252t-27 -255v-239l125 -27v-41h-592zM-215 1200l192 -37l-176 -370l-51 10z" />
    <glyph glyph-name="Omegatonos" unicode="&#x38f;" horiz-adv-x="1282" 
d="M-74 1200l193 -37l-176 -370l-52 10zM1126 201l27 112h47v-313h-514l-10 201q168 134 168 504q0 430 -199 430q-59 0 -102 -40.5t-65 -106.5t-32 -133.5t-10 -137.5q0 -232 28.5 -337t121.5 -179l-4 -201h-500v309h49l27 -108h309v10q-197 59 -292 182t-95 289
q0 238 159.5 383t415.5 145q273 0 409 -140t136 -386q0 -164 -99.5 -289t-295.5 -188v-6h321z" />
    <glyph glyph-name="iotadieresistonos" unicode="&#x390;" horiz-adv-x="565" 
d="M-74 1149q0 57 34 87t91 30q59 0 91 -29.5t32 -87.5q0 -56 -32.5 -85.5t-90.5 -29.5q-57 0 -91 29.5t-34 85.5zM416 1149q0 57 34 87t91 30q125 0 125 -117q0 -56 -33 -85.5t-92 -29.5q-57 0 -91 29.5t-34 85.5zM268 1446l195 -37l-178 -369l-52 9zM106 182v758h300v-731
q0 -52 11.5 -75t47.5 -23q24 0 82 10l12 -68q-99 -69 -272 -69q-88 0 -134.5 50t-46.5 148z" />
    <glyph glyph-name="Alpha" unicode="&#x391;" horiz-adv-x="1114" 
d="M633 0v39l94 18l-96 291h-342l-90 -256l194 -51v-41h-399v39l110 49l404 1106h178l371 -1139l63 -14v-41h-487zM459 838l-146 -416h293l-137 416h-10z" />
    <glyph glyph-name="Beta" unicode="&#x392;" horiz-adv-x="1081" 
d="M37 0v39l106 14v1084l-106 16v41h534q183 0 295.5 -76.5t112.5 -218.5q0 -94 -55 -171.5t-133 -111.5v-4q253 -36 253 -272q0 -153 -113 -246.5t-315 -93.5h-579zM500 567h-25v-491h25q60 0 101.5 20t63.5 57.5t31 81t9 99.5q0 129 -55.5 181t-149.5 52zM500 1126h-25
v-487h21q73 0 115 56.5t42 174.5q0 60 -6 102.5t-22 79.5t-47 55.5t-78 18.5z" />
    <glyph glyph-name="Gamma" unicode="&#x393;" horiz-adv-x="905" 
d="M37 0v39l125 27v1056l-125 31v41h860v-393h-82l-143 319h-178v-1052l106 -27v-41h-563z" />
    <glyph glyph-name="uni0394" unicode="&#x394;" horiz-adv-x="1052" 
d="M29 0l-21 66l443 1128h233l360 -1088l-45 -106h-970zM449 922l-13 2l-274 -723h508z" />
    <glyph glyph-name="Epsilon" unicode="&#x395;" horiz-adv-x="991" 
d="M844 561l-355 6v-491h248l178 295l56 -9l-53 -362h-881v39l121 24v1063l-121 27v41h885v-332h-56l-133 258h-244v-467l355 9v-101z" />
    <glyph glyph-name="Zeta" unicode="&#x396;" horiz-adv-x="952" 
d="M39 0l-21 74l537 1046h-311l-135 -317h-48v391h822l16 -70l-555 -1048h375l151 301l54 -10l-39 -367h-846z" />
    <glyph glyph-name="Eta" unicode="&#x397;" horiz-adv-x="1300" 
d="M700 0v39l119 16v533h-330v-531l111 -16v-41h-563v39l121 16v1080l-121 18v41h563v-39l-111 -16v-490h330v486l-119 18v41h564v-39l-111 -16v-1082l111 -16v-41h-564z" />
    <glyph glyph-name="Theta" unicode="&#x398;" horiz-adv-x="1222" 
d="M551 528l-19 -102h-51v377h54l16 -109h123l16 109h53v-377h-51l-18 102h-123zM1167 643q0 -187 -67.5 -336t-198 -236t-303.5 -87q-244 0 -393.5 153.5t-149.5 425.5q0 295 159.5 472t412.5 177q252 0 396 -147.5t144 -421.5zM799 604q0 284 -41.5 408.5t-143.5 124.5
q-110 0 -151 -121t-41 -410q0 -140 8.5 -237.5t29.5 -168.5t56.5 -105t87.5 -34q43 0 74.5 15t52.5 48.5t35 76t21 108t9.5 133t2.5 162.5z" />
    <glyph glyph-name="Iota" unicode="&#x399;" horiz-adv-x="663" 
d="M49 0v39l121 24v1063l-121 27v41h563v-39l-110 -25v-1064l110 -25v-41h-563z" />
    <glyph glyph-name="Kappa" unicode="&#x39a;" horiz-adv-x="1198" 
d="M37 0v39l121 24v1063l-121 27v41h563v-39l-111 -25v-1064l111 -25v-41h-563zM799 0l-279 520v49l344 535l-153 51v39h434v-47l-184 -41l-232 -348l406 -682l69 -39v-37h-405z" />
    <glyph glyph-name="Lambda" unicode="&#x39b;" horiz-adv-x="1114" 
d="M633 0v39l94 18l-258 781h-10l-260 -746l194 -51v-41h-399v39l110 49l404 1106h178l371 -1139l63 -14v-41h-487z" />
    <glyph glyph-name="Mu" unicode="&#x39c;" horiz-adv-x="1523" 
d="M997 0v39l107 22l-62 867h-10l-301 -946h-121l-309 946h-10l-55 -840l147 -47v-41h-365v39l129 53l91 1024l-154 37v41h444l256 -760l254 760h418v-41l-131 -35l98 -1065l82 -12v-41h-508z" />
    <glyph glyph-name="Nu" unicode="&#x39d;" horiz-adv-x="1220" 
d="M25 0v39l155 55v991l-155 68v41h387l544 -678v574l-211 63v41h453v-39l-156 -55v-1116h-69l-705 893v-775l230 -61v-41h-473z" />
    <glyph glyph-name="Xi" unicode="&#x39e;" horiz-adv-x="1042" 
d="M840 201l108 215l31 -13l-35 -403h-846l-37 403l31 13l96 -215h652zM193 997l-62 -176h-37v373h854v-373h-41l-59 176h-655zM362 528l-16 -102h-35v377h35l16 -109h318l16 109h39v-377h-37l-18 102h-318z" />
    <glyph glyph-name="Omicron" unicode="&#x39f;" horiz-adv-x="1222" 
d="M1167 643q0 -187 -67.5 -336t-198 -236t-303.5 -87q-244 0 -393.5 153.5t-149.5 425.5q0 295 159.5 472t412.5 177q252 0 396 -147.5t144 -421.5zM799 604q0 284 -41.5 408.5t-143.5 124.5q-110 0 -151 -121t-41 -410q0 -140 8.5 -237.5t29.5 -168.5t56.5 -105t87.5 -34
q43 0 74.5 15t52.5 48.5t35 76t21 108t9.5 133t2.5 162.5z" />
    <glyph glyph-name="Pi" unicode="&#x3a0;" horiz-adv-x="1304" 
d="M711 0v39l120 24v1057h-348v-1054l111 -25v-41h-557v39l123 27v1054l-123 33v41h1231v-39l-111 -25v-1062l111 -27v-41h-557z" />
    <glyph glyph-name="Rho" unicode="&#x3a1;" horiz-adv-x="1048" 
d="M37 0v39l121 24v1063l-121 27v41h586q192 0 301.5 -96t109.5 -289q0 -171 -121.5 -267t-357.5 -96h-66v-380l111 -25v-41h-563zM494 1116h-5v-588h11q94 0 133 74.5t39 220.5q0 293 -178 293z" />
    <glyph glyph-name="Sigma" unicode="&#x3a3;" horiz-adv-x="997" 
d="M397 1120l240 -475l-356 -446h477l133 217l72 -17l-41 -399h-856l-9 57l328 455l-315 616l14 66h834v-393h-82l-129 319h-310z" />
    <glyph glyph-name="Tau" unicode="&#x3a4;" horiz-adv-x="999" 
d="M215 0v39l121 24v1057h-117l-160 -360h-57v434h995v-434h-55l-160 360h-114v-1054l110 -25v-41h-563z" />
    <glyph glyph-name="Upsilon" unicode="&#x3a5;" horiz-adv-x="1175" 
d="M264 0v37l133 26v240q0 154 -44.5 335t-115 316t-139.5 162q-50 0 -90 -6l-8 53q37 17 162.5 33t171.5 16q38 -20 68.5 -46t64.5 -77t60.5 -120.5t50 -179t38.5 -248.5h15q34 286 102.5 452t179.5 219q7 -1 77.5 -7.5t121 -13.5t64.5 -13l-5 -66q-109 -12 -196.5 -94.5
t-138.5 -203.5t-78 -252t-27 -255v-239l125 -27v-41h-592z" />
    <glyph glyph-name="Phi" unicode="&#x3a6;" horiz-adv-x="1357" 
d="M391 0v39l127 27v124q-252 11 -371.5 105.5t-119.5 290.5q0 203 123.5 319.5t367.5 138.5v123l-127 29v41h563v-39l-131 -29v-122q508 -21 508 -400q0 -196 -126 -314.5t-382 -139.5v-127l131 -25v-41h-563zM973 625q0 80 -6 138t-22 108.5t-46.5 77.5t-75.5 30v-717
q38 3 66 24.5t43.5 53t25 80t12.5 95.5t3 110zM362 614q0 -76 7 -134t23.5 -108t48 -78t77.5 -32v717q-156 -13 -156 -365z" />
    <glyph glyph-name="Chi" unicode="&#x3a7;" horiz-adv-x="1089" 
d="M584 0v39l106 24l-219 406l-223 -381l182 -47v-41h-416v39l103 27l313 481l-317 588l-78 18v41h487v-39l-78 -16l177 -322l167 291l-129 45v41h377v-39l-143 -49l-236 -361l377 -692l56 -12v-41h-506z" />
    <glyph glyph-name="Psi" unicode="&#x3a8;" horiz-adv-x="1531" 
d="M483 0v39l125 27v303q-101 13 -187 43t-153.5 74.5t-106 108.5t-38.5 140v322h-121v35l281 102h141v-489q0 -90 50 -154t134 -96v667l-125 31v41h564v-39l-117 -27v-667q84 36 135 107t51 173v453h119l295 -86v-53h-121v-303q0 -80 -38 -146.5t-105 -113t-152 -77
t-184 -44.5v-303l117 -27v-41h-564z" />
    <glyph glyph-name="uni03A9" unicode="&#x3a9;" horiz-adv-x="1282" 
d="M1126 201l27 112h47v-313h-514l-10 201q168 134 168 504q0 430 -199 430q-59 0 -102 -40.5t-65 -106.5t-32 -133.5t-10 -137.5q0 -232 28.5 -337t121.5 -179l-4 -201h-500v309h49l27 -108h309v10q-197 59 -292 182t-95 289q0 238 159.5 383t415.5 145q273 0 409 -140
t136 -386q0 -164 -99.5 -289t-295.5 -188v-6h321z" />
    <glyph glyph-name="Iotadieresis" unicode="&#x3aa;" horiz-adv-x="663" 
d="M49 0v39l121 24v1063l-121 27v41h563v-39l-110 -25v-1064l110 -25v-41h-563zM403 1386q0 47 29.5 78t75.5 31q42 0 70 -31t28 -78q0 -44 -28.5 -74t-69.5 -30q-46 0 -75.5 30t-29.5 74zM59 1386q0 47 28.5 78t72.5 31q43 0 72.5 -31t29.5 -78q0 -44 -29.5 -74t-72.5 -30
q-44 0 -72.5 29.5t-28.5 74.5z" />
    <glyph glyph-name="Upsilondieresis" unicode="&#x3ab;" horiz-adv-x="1175" 
d="M264 0v37l133 26v240q0 154 -44.5 335t-115 316t-139.5 162q-50 0 -90 -6l-8 53q37 17 162.5 33t171.5 16q38 -20 68.5 -46t64.5 -77t60.5 -120.5t50 -179t38.5 -248.5h15q34 286 102.5 452t179.5 219q7 -1 77.5 -7.5t121 -13.5t64.5 -13l-5 -66q-109 -12 -196.5 -94.5
t-138.5 -203.5t-78 -252t-27 -255v-239l125 -27v-41h-592zM348 1386q0 47 28.5 78t72.5 31q43 0 72.5 -31t29.5 -78q0 -44 -29.5 -74t-72.5 -30q-44 0 -72.5 29.5t-28.5 74.5zM692 1386q0 47 29.5 78t75.5 31q42 0 70 -31t28 -78q0 -44 -28.5 -74t-69.5 -30q-45 0 -75 30
t-30 74z" />
    <glyph glyph-name="alphatonos" unicode="&#x3ac;" horiz-adv-x="1034" 
d="M897 408v-160q0 -95 9.5 -122t51.5 -26q16 0 62 11l6 -64q-100 -63 -235 -63q-76 0 -124.5 45t-60.5 118q-44 -70 -110.5 -116.5t-151.5 -46.5q-155 0 -228 119t-73 364q0 113 32.5 206.5t87 153t123.5 91.5t144 32q132 0 207 -100q10 56 20 84l267 24l22 -59
q-24 -78 -36.5 -215t-12.5 -276zM463 139q60 0 141 66v227q0 112 8 205q-14 44 -26 76t-31 70t-43 58.5t-51 20.5q-31 0 -54.5 -34.5t-36 -91.5t-18.5 -118t-6 -124q0 -184 25.5 -269.5t91.5 -85.5zM528 1456l193 -37l-176 -370l-51 10z" />
    <glyph glyph-name="epsilontonos" unicode="&#x3ad;" horiz-adv-x="829" 
d="M440 958q85 0 182.5 -20t168.5 -49v-215h-86q-30 113 -67.5 159t-119.5 46q-71 0 -108 -51t-37 -146q0 -142 41 -178l213 65q10 -23 10 -82t-14 -100l-220 66q-47 -22 -47 -189q0 -95 47 -141.5t115 -46.5q131 0 191 205h82v-199q-58 -42 -156 -70t-191 -28
q-200 0 -304.5 76.5t-104.5 205.5q0 90 59.5 154.5t159.5 71.5v10q-92 14 -140 67.5t-48 120.5q0 106 100.5 187t273.5 81zM453 1454l192 -37l-176 -370l-51 10z" />
    <glyph glyph-name="etatonos" unicode="&#x3ae;" horiz-adv-x="1064" 
d="M967 -424h-303v975q0 142 -19 189.5t-92 47.5q-30 0 -92 -16v-772h-299v725q0 54 -13 76t-61 22q-28 0 -63 -6l-9 74q45 24 129.5 45.5t176.5 21.5q53 0 90.5 -29t46.5 -81v-21q73 73 128 103.5t132 30.5q111 0 179.5 -86.5t68.5 -266.5v-1032zM559 1454l193 -37
l-177 -370l-51 10z" />
    <glyph glyph-name="iotatonos" unicode="&#x3af;" horiz-adv-x="565" 
d="M244 1454l192 -37l-176 -370l-51 10zM106 182v758h300v-731q0 -52 11.5 -75t47.5 -23q24 0 82 10l12 -68q-99 -69 -272 -69q-88 0 -134.5 50t-46.5 148z" />
    <glyph glyph-name="upsilondieresistonos" unicode="&#x3b0;" horiz-adv-x="991" 
d="M193 1149q0 57 33.5 87t90.5 30q59 0 91 -29.5t32 -87.5q0 -56 -32.5 -85.5t-90.5 -29.5q-57 0 -90.5 29.5t-33.5 85.5zM682 1149q0 57 34 87t91 30q125 0 125 -117q0 -56 -33 -85.5t-92 -29.5q-57 0 -91 29.5t-34 85.5zM535 1446l194 -37l-178 -369l-51 9zM455 805v-486
q0 -60 5 -101.5t18.5 -77t39.5 -53t66 -17.5q39 0 67.5 40.5t43 108t20.5 136.5t6 145q0 12 -1 33.5t-1 31.5q-4 56 -19 150l-100 131v59q193 53 246 53q117 -98 117 -350q0 -112 -30.5 -222t-84.5 -200t-138 -146t-182 -56q-172 0 -272 103.5t-100 283.5v360q0 54 -13.5 76
t-60.5 22q-25 0 -62 -6l-12 68q48 24 131.5 45.5t173.5 21.5q62 0 102 -41t40 -112z" />
    <glyph glyph-name="alpha" unicode="&#x3b1;" horiz-adv-x="1034" 
d="M897 408v-160q0 -95 9.5 -122t51.5 -26q16 0 62 11l6 -64q-100 -63 -235 -63q-76 0 -124.5 45t-60.5 118q-44 -70 -110.5 -116.5t-151.5 -46.5q-155 0 -228 119t-73 364q0 113 32.5 206.5t87 153t123.5 91.5t144 32q132 0 207 -100q10 56 20 84l267 24l22 -59
q-24 -78 -36.5 -215t-12.5 -276zM463 139q60 0 141 66v227q0 112 8 205q-14 44 -26 76t-31 70t-43 58.5t-51 20.5q-31 0 -54.5 -34.5t-36 -91.5t-18.5 -118t-6 -124q0 -184 25.5 -269.5t91.5 -85.5z" />
    <glyph glyph-name="beta" unicode="&#x3b2;" horiz-adv-x="1005" 
d="M549 -16q-88 0 -141 30v-438h-302v1401q0 116 43 211.5t108 151t134.5 85t130.5 29.5q168 0 275.5 -96t107.5 -256q0 -59 -23.5 -108t-66.5 -85t-88 -61.5t-104 -48.5v-11q72 -6 134 -30t112.5 -66t79 -109.5t28.5 -152.5q0 -92 -32 -170t-80.5 -127.5t-108 -84.5
t-112.5 -49.5t-95 -14.5zM408 1081v-997q10 -2 30 -2q88 0 151.5 90.5t63.5 235.5q0 43 -3 77t-14 74.5t-30 70t-52 54t-79 35.5v57q35 8 60 42.5t37 86t17 100t5 101.5q0 264 -82 264q-40 0 -61 -21.5t-32 -84t-11 -183.5z" />
    <glyph glyph-name="gamma" unicode="&#x3b3;" horiz-adv-x="913" 
d="M569 -406q-34 -18 -147 -14q-98 0 -152 12q12 61 35.5 191.5t38.5 196.5q-80 393 -180 653q-2 4 -8.5 20t-10 24.5t-10 23.5t-12 25t-11.5 21.5t-12 19.5t-12 13q-41 33 -100 25l-17 69q46 31 125 59t150 28q77 0 109 -24.5t51 -94.5q17 -66 35 -163.5t45 -259.5t46 -269
h11l149 811q47 5 131 -13t113 -39q-26 -68 -186 -431.5t-201 -477.5q17 -313 20 -406z" />
    <glyph glyph-name="delta" unicode="&#x3b4;" horiz-adv-x="948" 
d="M29 410q0 107 35 184t93 123.5t152 85.5q-85 92 -130.5 167t-45.5 152q0 94 53 172t130.5 119t156.5 41q115 0 206.5 -21t190.5 -75l-41 -248l-36 -4q-87 125 -164.5 195.5t-155.5 70.5q-90 0 -90 -108q0 -43 29 -95.5t75.5 -106t102.5 -111.5t112 -120t102.5 -124.5
t75.5 -132.5t29 -136q0 -120 -64 -225.5t-171 -167t-228 -61.5q-97 0 -177 35t-132 94t-80 135.5t-28 161.5zM614 328q0 54 -18.5 106.5t-61 111t-72.5 93t-92 100.5q-9 10 -14 15q-19 -64 -25.5 -127t-6.5 -166q0 -387 149 -387q141 0 141 254z" />
    <glyph glyph-name="epsilon" unicode="&#x3b5;" horiz-adv-x="829" 
d="M440 958q85 0 182.5 -20t168.5 -49v-215h-86q-30 113 -67.5 159t-119.5 46q-71 0 -108 -51t-37 -146q0 -142 41 -178l213 65q10 -23 10 -82t-14 -100l-220 66q-47 -22 -47 -189q0 -95 47 -141.5t115 -46.5q131 0 191 205h82v-199q-58 -42 -156 -70t-191 -28
q-200 0 -304.5 76.5t-104.5 205.5q0 90 59.5 154.5t159.5 71.5v10q-92 14 -140 67.5t-48 120.5q0 106 100.5 187t273.5 81z" />
    <glyph glyph-name="zeta" unicode="&#x3b6;" horiz-adv-x="712" 
d="M57 1440h109q139 -51 307 -60q105 -7 193 -4q10 -27 22 -96t14 -98q-198 -188 -287 -381.5t-89 -403.5q0 -51 31 -79.5t89 -43.5q124 -32 182.5 -62t65.5 -54q0 -113 -41 -242.5t-112 -230.5l-66 26q8 20 27 62.5t24.5 58t12 42t6.5 50.5q-18 16 -48 28t-112 34
q-40 11 -60.5 16.5t-59 18t-59.5 24t-51.5 29.5t-48 39t-35 48.5t-25 62t-7.5 75.5q0 119 91 297.5t217.5 335.5t240.5 246l-4 10q-199 -11 -312 -8q-148 4 -247 32z" />
    <glyph glyph-name="eta" unicode="&#x3b7;" horiz-adv-x="1064" 
d="M967 -424h-303v975q0 142 -19 189.5t-92 47.5q-30 0 -92 -16v-772h-299v725q0 54 -13 76t-61 22q-28 0 -63 -6l-9 74q45 24 129.5 45.5t176.5 21.5q53 0 90.5 -29t46.5 -81v-21q73 73 128 103.5t132 30.5q111 0 179.5 -86.5t68.5 -266.5v-1032z" />
    <glyph glyph-name="theta" unicode="&#x3b8;" horiz-adv-x="925" 
d="M887 719q0 -339 -120.5 -536t-311.5 -197q-184 0 -300 191t-116 507q0 381 119 574.5t317 193.5q212 0 312 -180t100 -553zM473 68q25 0 41.5 23.5t25 68t13 107t5.5 144t1 174.5v111h-197q2 -337 21 -482.5t90 -145.5zM455 1370q-55 0 -73 -143.5t-20 -460.5h197
q-5 315 -26 459.5t-78 144.5z" />
    <glyph glyph-name="iota" unicode="&#x3b9;" horiz-adv-x="565" 
d="M106 182v758h300v-731q0 -52 11.5 -75t47.5 -23q24 0 82 10l12 -68q-99 -69 -272 -69q-88 0 -134.5 50t-46.5 148z" />
    <glyph glyph-name="kappa" unicode="&#x3ba;" horiz-adv-x="1015" 
d="M469 805v-367l236 355q105 165 192 165q42 0 104 -18l-34 -242h-39l-191 23l-82 -117l158 -311q76 -152 139 -152q25 0 52 9l14 -66q-94 -98 -227 -98q-40 0 -68.5 9t-52 32.5t-39 48.5t-39.5 71l-109 242l-14 -18v-371h-299v731q0 50 -19.5 74t-68.5 24q-25 0 -62 -6
l-12 68q48 24 131.5 45.5t173.5 21.5q64 0 110 -41.5t46 -111.5z" />
    <glyph glyph-name="lambda" unicode="&#x3bb;" horiz-adv-x="974" 
d="M63 1178h-16q-49 68 -72 141q35 60 123 97.5t195 37.5q38 0 83.5 -13.5t97 -42t93 -85.5t56.5 -133l180 -885q19 -92 38.5 -126t61.5 -40q39 -3 76 8l10 -55q-43 -45 -93 -71.5t-124 -26.5q-106 0 -162 39t-75 129l-127 622l-127 -774h-246v106l350 756l-51 238
q-23 96 -53 182t-54 102q-21 -12 -75.5 -82.5t-88.5 -123.5z" />
    <glyph glyph-name="uni03BC" unicode="&#x3bc;" horiz-adv-x="1120" 
d="M831 -20q-65 0 -110.5 38t-56.5 97q-58 -72 -111 -100.5t-133 -28.5h-8l30 -138v-272h-299v1364h303v-545q0 -131 33.5 -184t112.5 -53q28 0 63 12v770h297v-735q0 -56 12 -76t35 -20q64 0 101 8l12 -60q-36 -28 -131.5 -52.5t-149.5 -24.5z" />
    <glyph glyph-name="nu" unicode="&#x3bd;" horiz-adv-x="937" 
d="M350 -16l-200 725q-22 80 -80 92q-29 6 -66 0l-12 69q68 45 125.5 66.5t148.5 21.5q59 0 92.5 -36.5t59.5 -128.5l153 -648h21q115 243 115 471q0 44 -7 95q-65 94 -102 135v49q191 66 240 66q37 -23 59.5 -75.5t22.5 -109.5q0 -55 -22.5 -130.5t-71 -178.5t-91 -185.5
t-113.5 -215.5q-19 -35 -28 -52z" />
    <glyph glyph-name="xi" unicode="&#x3be;" horiz-adv-x="843" 
d="M504 1470q112 0 191.5 -26.5t146.5 -79.5l-72 -213h-104q-42 128 -75 173.5t-102 45.5q-63 0 -96 -74t-33 -194q0 -218 99 -287l229 64q10 -35 10 -107q0 -68 -14 -106l-240 59q-41 -14 -67.5 -80.5t-26.5 -169.5q0 -191 197 -235q185 -43 258 -84q12 -127 -32.5 -275
t-94.5 -211l-62 33q42 152 35 238q-21 11 -90.5 27.5t-107.5 21.5q-218 32 -321 132.5t-103 299.5q0 134 99.5 238.5t233.5 130.5v10q-129 31 -208.5 106.5t-79.5 186.5q0 156 124 266t306 110z" />
    <glyph glyph-name="omicron" unicode="&#x3bf;" horiz-adv-x="970" 
d="M928 461q0 -126 -64 -237t-168 -175.5t-219 -64.5q-77 0 -138.5 12t-118.5 43.5t-94.5 83t-60 134.5t-22.5 194t38.5 208.5t101.5 162.5t144 102t165 37q101 0 178.5 -26t136.5 -83.5t90 -155.5t31 -235zM606 436q0 46 -0.5 74.5t-2 74t-5 74.5t-9.5 65.5t-16 59.5
t-23.5 44.5t-33 31.5t-43.5 10t-42.5 -14t-30 -42.5t-19 -60.5t-11 -79t-4.5 -86t-1 -94q0 -95 5 -164t18 -130t38 -92.5t63 -31.5q27 0 47 13.5t32.5 41.5t20.5 58t11.5 76t4.5 82t1 89z" />
    <glyph glyph-name="pi" unicode="&#x3c0;" horiz-adv-x="1110" 
d="M1022 940v-207h-141v-276q0 -206 36 -281.5t125 -75.5q18 0 39 6l9 -51q-44 -33 -116 -52t-138 -19q-55 0 -93 7t-64.5 25.5t-42 41t-23.5 64t-10.5 83t-2.5 108.5v420h-246v-520q0 -97 -48 -164t-130 -67q-113 0 -162 71l6 47q48 -1 77.5 3t61 22.5t48.5 55t28 101.5
t11 160v291h-215v37l108 170h883z" />
    <glyph glyph-name="rho" unicode="&#x3c1;" horiz-adv-x="993" 
d="M406 -424h-300v862q0 110 43 210t108.5 166t142.5 105t147 39q418 0 418 -452q0 -115 -39.5 -214t-105.5 -165.5t-151.5 -104.5t-176.5 -38q-49 0 -86 14v-422zM406 481v-356q35 -27 59.5 -37t64.5 -10q28 0 48.5 21t32 54t19 84.5t9.5 101t2 114.5q0 225 -27 317
t-102 92q-67 0 -86.5 -76t-19.5 -305z" />
    <glyph glyph-name="sigma1" unicode="&#x3c2;" horiz-adv-x="868" 
d="M322 0q-135 39 -214 155.5t-79 288.5q0 114 36.5 211.5t98 163t143 102.5t170.5 37q109 0 185 -23t153 -71l-29 -211h-112q-23 119 -66 172.5t-112 53.5q-168 0 -168 -344q0 -90 12 -147t44.5 -94t77 -57t120.5 -36q118 -28 209 -70q12 -126 -30.5 -267.5t-90.5 -205.5
l-62 37q42 167 35 246q-20 5 -144.5 24t-176.5 35z" />
    <glyph glyph-name="sigma" unicode="&#x3c3;" horiz-adv-x="978" 
d="M969 940l10 -207l-47 -20q-45 20 -281 90q82 -61 151.5 -162.5t69.5 -200.5q0 -98 -27.5 -177.5t-72 -130.5t-104.5 -85t-122 -48.5t-128 -14.5q-175 0 -282 115.5t-107 349.5q0 93 31.5 177t83 143.5t115.5 104t131 66t128 21.5q155 0 451 -21zM608 449q0 178 -45 362
q-35 14 -71 14q-62 0 -98.5 -25t-57.5 -98.5t-21 -205.5q0 -230 33 -328t119 -98q68 0 104.5 102t36.5 277z" />
    <glyph glyph-name="tau" unicode="&#x3c4;" horiz-adv-x="819" 
d="M774 940v-227h-291v-445q0 -92 27.5 -128t89.5 -36q54 0 145 27l13 -68q-48 -35 -126.5 -57t-174.5 -22q-45 0 -91 15.5t-87 45t-67 81.5t-26 118q0 176 205 469h-389v37l94 190h678z" />
    <glyph glyph-name="upsilon" unicode="&#x3c5;" horiz-adv-x="991" 
d="M455 805v-486q0 -60 5 -101.5t18.5 -77t39.5 -53t66 -17.5q39 0 67.5 40.5t43 108t20.5 136.5t6 145q0 12 -1 33.5t-1 31.5q-4 56 -19 150l-100 131v59q193 53 246 53q117 -98 117 -350q0 -112 -30.5 -222t-84.5 -200t-138 -146t-182 -56q-172 0 -272 103.5t-100 283.5
v360q0 54 -13.5 76t-60.5 22q-25 0 -62 -6l-12 68q48 24 131.5 45.5t173.5 21.5q62 0 102 -41t40 -112z" />
    <glyph glyph-name="phi" unicode="&#x3c6;" horiz-adv-x="1263" 
d="M500 1231h272l-8 -277q226 -21 348.5 -138.5t122.5 -354.5q0 -219 -132.5 -335t-361.5 -136l-10 -414h-229l-2 412q-83 6 -150.5 23t-128.5 52t-102.5 85.5t-65.5 127.5t-24 175q0 223 124.5 348.5t346.5 152.5v279zM911 436q0 177 -33 290.5t-118 147.5l-15 -806
q83 28 124.5 131t41.5 237zM350 494q0 -369 150 -422v807q-79 -27 -114.5 -136.5t-35.5 -248.5z" />
    <glyph glyph-name="chi" unicode="&#x3c7;" horiz-adv-x="937" 
d="M-18 -424v94l350 520l-195 527q-24 64 -61 82q-37 19 -92 10l-7 61q68 45 126.5 66.5t150.5 21.5q68 0 104.5 -37t67.5 -124l121 -371l112 514h234v-131l-320 -436l199 -529q43 -112 123 -129q37 -6 72 4l2 -59q-37 -40 -104.5 -69t-145.5 -29q-156 0 -227 190l-136 377
l-133 -553h-241z" />
    <glyph glyph-name="psi" unicode="&#x3c8;" horiz-adv-x="1333" 
d="M590 1231h270l-24 -1157q88 38 131 151t61 334q6 68 -4 156l-86 131v59q197 53 250 53q117 -98 117 -350q0 -99 -33.5 -198.5t-93.5 -185t-151 -148.5t-198 -86l-8 -414h-229l-2 406q-206 24 -319 150t-113 298v301q0 53 -14.5 75.5t-61.5 22.5q-25 0 -62 -6l-12 68
q49 25 129.5 46t171.5 21q62 0 101 -40.5t39 -112.5v-402q0 -139 33 -220.5t108 -108.5v1157z" />
    <glyph glyph-name="omega" unicode="&#x3c9;" horiz-adv-x="1355" 
d="M1321 444q0 -126 -62 -233t-160 -167t-204 -60q-47 0 -88 24.5t-68.5 64.5t-46.5 84.5t-28 90.5q-13 -50 -35 -94.5t-55.5 -84t-82 -62.5t-106.5 -23q-168 0 -259 114.5t-91 319.5q0 163 108 321.5t244 221.5l84 -48q-78 -100 -100.5 -201.5t-22.5 -258.5q0 -57 4 -116
t13.5 -119t27.5 -98t43 -38q28 0 53.5 22.5t41 50t29.5 65t18.5 54.5t7.5 31q-43 248 -43 346q12 8 59.5 13.5t73.5 5.5q27 0 67.5 -5.5t49.5 -13.5q0 -70 -13.5 -172t-34.5 -174q1 -13 9.5 -43.5t24 -74t44 -74.5t62.5 -31q36 0 62 35t38.5 92.5t17.5 113t5 113.5
q0 167 -22.5 274.5t-100.5 200.5l98 50q57 -25 114.5 -72.5t108.5 -113t83 -153t32 -178.5z" />
    <glyph glyph-name="iotadieresis" unicode="&#x3ca;" horiz-adv-x="565" 
d="M-18 1202q0 53 31.5 87t80.5 34q48 0 81.5 -34.5t33.5 -86.5q0 -49 -33.5 -83t-81.5 -34q-49 0 -80.5 33.5t-31.5 83.5zM328 1202q0 53 31.5 87t82.5 34q46 0 78.5 -34.5t32.5 -86.5q0 -49 -32.5 -83t-78.5 -34q-50 0 -82 33.5t-32 83.5zM106 182v758h300v-731
q0 -52 11.5 -75t47.5 -23q24 0 82 10l12 -68q-99 -69 -272 -69q-88 0 -134.5 50t-46.5 148z" />
    <glyph glyph-name="upsilondieresis" unicode="&#x3cb;" horiz-adv-x="991" 
d="M264 1202q0 53 32 87t81 34q48 0 81.5 -34.5t33.5 -86.5q0 -49 -33.5 -83t-81.5 -34q-49 0 -81 33.5t-32 83.5zM610 1202q0 53 32 87t83 34q46 0 78.5 -34.5t32.5 -86.5q0 -49 -32.5 -83t-78.5 -34q-50 0 -82.5 33.5t-32.5 83.5zM455 805v-486q0 -60 5 -101.5t18.5 -77
t39.5 -53t66 -17.5q39 0 67.5 40.5t43 108t20.5 136.5t6 145q0 12 -1 33.5t-1 31.5q-4 56 -19 150l-100 131v59q193 53 246 53q117 -98 117 -350q0 -112 -30.5 -222t-84.5 -200t-138 -146t-182 -56q-172 0 -272 103.5t-100 283.5v360q0 54 -13.5 76t-60.5 22q-25 0 -62 -6
l-12 68q48 24 131.5 45.5t173.5 21.5q62 0 102 -41t40 -112z" />
    <glyph glyph-name="omicrontonos" unicode="&#x3cc;" horiz-adv-x="970" 
d="M928 461q0 -126 -64 -237t-168 -175.5t-219 -64.5q-77 0 -138.5 12t-118.5 43.5t-94.5 83t-60 134.5t-22.5 194t38.5 208.5t101.5 162.5t144 102t165 37q101 0 178.5 -26t136.5 -83.5t90 -155.5t31 -235zM606 436q0 46 -0.5 74.5t-2 74t-5 74.5t-9.5 65.5t-16 59.5
t-23.5 44.5t-33 31.5t-43.5 10t-42.5 -14t-30 -42.5t-19 -60.5t-11 -79t-4.5 -86t-1 -94q0 -95 5 -164t18 -130t38 -92.5t63 -31.5q27 0 47 13.5t32.5 41.5t20.5 58t11.5 76t4.5 82t1 89zM475 1454l193 -37l-176 -370l-52 10z" />
    <glyph glyph-name="upsilontonos" unicode="&#x3cd;" horiz-adv-x="991" 
d="M537 1454l192 -37l-176 -370l-51 10zM455 805v-486q0 -60 5 -101.5t18.5 -77t39.5 -53t66 -17.5q39 0 67.5 40.5t43 108t20.5 136.5t6 145q0 12 -1 33.5t-1 31.5q-4 56 -19 150l-100 131v59q193 53 246 53q117 -98 117 -350q0 -112 -30.5 -222t-84.5 -200t-138 -146
t-182 -56q-172 0 -272 103.5t-100 283.5v360q0 54 -13.5 76t-60.5 22q-25 0 -62 -6l-12 68q48 24 131.5 45.5t173.5 21.5q62 0 102 -41t40 -112z" />
    <glyph glyph-name="omegatonos" unicode="&#x3ce;" horiz-adv-x="1355" 
d="M1321 444q0 -126 -62 -233t-160 -167t-204 -60q-47 0 -88 24.5t-68.5 64.5t-46.5 84.5t-28 90.5q-13 -50 -35 -94.5t-55.5 -84t-82 -62.5t-106.5 -23q-168 0 -259 114.5t-91 319.5q0 163 108 321.5t244 221.5l84 -48q-78 -100 -100.5 -201.5t-22.5 -258.5q0 -57 4 -116
t13.5 -119t27.5 -98t43 -38q28 0 53.5 22.5t41 50t29.5 65t18.5 54.5t7.5 31q-43 248 -43 346q12 8 59.5 13.5t73.5 5.5q27 0 67.5 -5.5t49.5 -13.5q0 -70 -13.5 -172t-34.5 -174q1 -13 9.5 -43.5t24 -74t44 -74.5t62.5 -31q36 0 62 35t38.5 92.5t17.5 113t5 113.5
q0 167 -22.5 274.5t-100.5 200.5l98 50q57 -25 114.5 -72.5t108.5 -113t83 -153t32 -178.5zM682 1454l192 -37l-176 -370l-51 10z" />
    <glyph glyph-name="uni03D8" unicode="&#x3d8;" horiz-adv-x="1222" 
d="M1167 643q0 -244 -114.5 -419t-313.5 -224v-422h-262v418q-195 34 -308.5 182t-113.5 385q0 295 159.5 472t412.5 177q252 0 396 -147.5t144 -421.5zM799 604q0 99 -2.5 169t-10 133.5t-20.5 104t-33.5 70.5t-50 43t-68.5 13q-42 0 -72.5 -12.5t-52 -42.5t-34.5 -69
t-20.5 -103.5t-10 -133.5t-2.5 -170q0 -96 2.5 -165t9.5 -134.5t20 -108t33 -75t49 -47.5t68 -15q35 0 62 8t47 28t34.5 42.5t24 62.5t15 76t8 94.5t3.5 107t1 124.5z" />
    <glyph glyph-name="uni03D9" unicode="&#x3d9;" horiz-adv-x="970" 
d="M928 461q0 -190 -84 -304.5t-221 -154.5v-424h-263v414q-72 11 -127.5 40t-99.5 81.5t-67 137.5t-23 200q0 126 38 226.5t102.5 160.5t143 91.5t165.5 31.5q101 0 178.5 -26t136.5 -83.5t90 -155.5t31 -235zM606 436q0 47 -0.5 75.5t-2 74.5t-5 75.5t-9.5 67.5t-16 61.5
t-23.5 45.5t-33 32.5t-43.5 10.5t-42.5 -14.5t-30 -44t-19 -62.5t-11 -81.5t-4.5 -88t-1 -94.5q0 -95 5 -165.5t18 -133.5t38 -96t63 -33q27 0 47 14.5t32.5 43.5t20.5 60t11.5 78.5t4.5 84t1 89.5z" />
    <glyph glyph-name="uni03DA" unicode="&#x3da;" horiz-adv-x="815" 
d="M748 764h-240q-43 0 -75 -24.5t-50 -65.5t-26.5 -88t-8.5 -99q0 -117 49 -202t131 -92l203 -21q31 -4 44 -42.5t13 -78.5q0 -82 -52.5 -252t-98.5 -233l-88 26q34 85 74.5 223t40.5 185h-158q-101 0 -182.5 26t-144.5 80.5t-97.5 146.5t-34.5 216q0 97 41 184
t105.5 144.5t143 91t155.5 33.5l210 51h46v-209z" />
    <glyph glyph-name="uni03DB" unicode="&#x3db;" horiz-adv-x="815" 
d="M748 764h-240q-43 0 -75 -24.5t-50 -65.5t-26.5 -88t-8.5 -99q0 -117 49 -202t131 -92l203 -21q31 -4 44 -42.5t13 -78.5q0 -82 -52.5 -252t-98.5 -233l-88 26q34 85 74.5 223t40.5 185h-158q-101 0 -182.5 26t-144.5 80.5t-97.5 146.5t-34.5 216q0 97 41 184
t105.5 144.5t143 91t155.5 33.5l210 51h46v-209z" />
    <glyph glyph-name="uni03DC" unicode="&#x3dc;" horiz-adv-x="911" 
d="M172 0v1194h731v-74h-399v-477l303 25v-121l-303 24v-571h-332z" />
    <glyph glyph-name="uni03DD" unicode="&#x3dd;" horiz-adv-x="858" 
d="M172 -426v1366h659v-74h-327v-477l231 25v-121l-231 24v-743h-332z" />
    <glyph glyph-name="uni03DE" unicode="&#x3de;" horiz-adv-x="759" 
d="M432 -180h-133l186 606h-460l268 768h129l-154 -459h469z" />
    <glyph glyph-name="uni03DF" unicode="&#x3df;" horiz-adv-x="759" 
d="M487 0h-131l140 444h-461l258 750h129l-146 -440h472z" />
    <glyph glyph-name="uni03E0" unicode="&#x3e0;" horiz-adv-x="1181" 
d="M1122 -168v-235h-252v172q0 281 -71 524l-412 -352l-57 73l440 363q-21 45 -63.5 123t-59.5 102l-459 -381l-45 70l447 373q-101 126 -228.5 202.5t-250.5 77.5h-148v92h189q191 -1 349.5 -63.5t270.5 -172t190.5 -261.5t117 -329.5t42.5 -377.5z" />
    <glyph glyph-name="uni03E1" unicode="&#x3e1;" horiz-adv-x="913" 
d="M793 -516l-232 80q36 125 55 220t22.5 136t4.5 105q0 82 -6 137l-447 -205l-24 59l463 217q-6 68 -29 152t-47 123l-483 -225l-23 67l477 215q-192 314 -547 424l19 86q889 -220 889 -1007q0 -94 -23.5 -257t-68.5 -327z" />
    <glyph glyph-name="uni0400" unicode="&#x400;" horiz-adv-x="991" 
d="M844 561l-355 6v-491h248l178 295l56 -9l-53 -362h-881v39l121 24v1063l-121 27v41h885v-332h-56l-133 258h-244v-467l355 9v-101zM305 1358l74 172l342 -232l-14 -30z" />
    <glyph glyph-name="afii10023" unicode="&#x401;" horiz-adv-x="991" 
d="M844 561l-355 6v-491h248l178 295l56 -9l-53 -362h-881v39l121 24v1063l-121 27v41h885v-332h-56l-133 258h-244v-467l355 9v-101zM621 1386q0 47 29 78t75 31q42 0 70 -31t28 -78q0 -44 -28.5 -74t-69.5 -30q-45 0 -74.5 29.5t-29.5 74.5zM276 1386q0 47 28.5 78
t72.5 31q43 0 72.5 -31t29.5 -78q0 -44 -29.5 -74t-72.5 -30q-44 0 -72.5 29.5t-28.5 74.5z" />
    <glyph glyph-name="afii10051" unicode="&#x402;" horiz-adv-x="1277" 
d="M631 1120v-452q136 34 233 34q189 0 283 -93.5t94 -262.5q0 -93 -28 -165t-75.5 -114.5t-104.5 -63.5t-122 -21q-122 0 -196 43v231h39l102 -182q4 -2 12 -2q29 0 29 252q0 43 -1.5 73t-6 66.5t-15 61t-26 46.5t-41 32.5t-59.5 10.5q-56 0 -117 -20v-594h-463v39l129 27
v1054h-41l-176 -360h-62v434h996v-373h-60l-151 299h-172z" />
    <glyph glyph-name="afii10052" unicode="&#x403;" horiz-adv-x="911" 
d="M487 1120v-1050l127 -29v-41h-577v39l117 27v1058l-117 29v41h858v-434h-68l-178 360h-162zM709 1528l73 -172l-405 -86l-15 33z" />
    <glyph glyph-name="afii10053" unicode="&#x404;" horiz-adv-x="1075" 
d="M1028 827h-65l-140 285q-29 14 -48 18.5t-54 4.5q-141 0 -216 -135t-83 -359l407 14v-112l-407 12q19 -494 303 -494q75 0 143.5 61t100.5 140h59v-194q-53 -35 -154.5 -60.5t-199.5 -25.5q-97 0 -184 18t-168 61t-139 108t-93 165t-35 225q0 161 49.5 286.5t137.5 204.5
t205.5 119.5t257.5 40.5q86 0 179 -22t144 -45v-316z" />
    <glyph glyph-name="afii10054" unicode="&#x405;" horiz-adv-x="888" 
d="M743 815l-114 289q-61 33 -144 33q-87 0 -139.5 -52t-52.5 -127q0 -132 235 -217q46 -17 77.5 -30.5t73 -36.5t69 -51t53.5 -66t38.5 -89t12.5 -112q0 -130 -60.5 -215t-160.5 -121t-238 -36q-161 0 -346 82v346h68l106 -291q84 -62 185 -62q78 0 131 50t53 127
q0 39 -21.5 72t-65.5 62t-82 48t-101 47q-15 7 -23 10q-52 23 -91.5 49.5t-75.5 67.5t-55.5 100.5t-19.5 134.5q0 184 117 284.5t301 100.5q205 0 336 -77v-320h-66z" />
    <glyph glyph-name="afii10055" unicode="&#x406;" horiz-adv-x="663" 
d="M49 0v39l121 24v1063l-121 27v41h563v-39l-110 -25v-1064l110 -25v-41h-563z" />
    <glyph glyph-name="afii10056" unicode="&#x407;" horiz-adv-x="663" 
d="M49 0v39l121 24v1063l-121 27v41h563v-39l-110 -25v-1064l110 -25v-41h-563zM68 1386q0 47 28 78t72 31q43 0 72.5 -31t29.5 -78q0 -44 -29.5 -74t-72.5 -30q-44 0 -72 29.5t-28 74.5zM412 1386q0 47 29 78t75 31q42 0 70 -31t28 -78q0 -44 -28.5 -74t-69.5 -30
q-45 0 -74.5 29.5t-29.5 74.5z" />
    <glyph glyph-name="afii10057" unicode="&#x408;" horiz-adv-x="788" 
d="M313 -18q-150 0 -307 67v375h60l127 -328q25 -20 37.5 -26.5t31.5 -6.5q54 0 68 52t14 209v802l-119 27v41h563v-39l-110 -25v-800q0 -151 -112 -249.5t-253 -98.5z" />
    <glyph glyph-name="afii10058" unicode="&#x409;" horiz-adv-x="1527" 
d="M1081 1194v-39l-129 -27v-430h152q192 0 302 -87t110 -263q0 -157 -123.5 -252.5t-358.5 -95.5h-545v39l132 27v1054h-144q-44 -600 -121 -882q-68 -254 -321 -254v249l28 13h203q45 178 78.5 417.5t40.5 450.5l-162 39v41h858zM952 625v-551h27q107 0 140.5 60t33.5 210
q0 152 -38 215t-140 66h-23z" />
    <glyph glyph-name="afii10059" unicode="&#x40a;" horiz-adv-x="1714" 
d="M700 0v39l119 27v516h-330v-514l111 -27v-41h-563v39l121 27v1056l-121 31v41h563v-39l-111 -27v-473h330v467l-119 31v41h568v-39l-115 -27v-473h137q191 0 301.5 -82t110.5 -245q0 -147 -124 -237.5t-357 -90.5h-521zM1174 582h-21v-508h27q70 0 113.5 63.5t43.5 186.5
q0 138 -36.5 198t-126.5 60z" />
    <glyph glyph-name="afii10060" unicode="&#x40b;" horiz-adv-x="1366" 
d="M795 0v39l104 24v336q0 39 -6.5 74t-22.5 68.5t-47 53t-75 19.5q-38 0 -103 -18v-530l103 -25v-41h-570v39l129 27v1054h-51l-176 -360h-62v434h996v-373h-60l-151 299h-158v-448q133 30 213 30q211 0 299 -106q78 -95 78 -240v-286l115 -29v-41h-555z" />
    <glyph glyph-name="afii10061" unicode="&#x40c;" horiz-adv-x="1222" 
d="M37 0v39l119 27v1058l-119 29v41h563v-39l-113 -27v-483h125l119 338q47 130 102 178.5t132 48.5q63 0 145 -20l-51 -264h-27l-188 112l-101 -260l375 -702l88 -39v-37h-411l-267 571h-41v-503l95 -27v-41h-545zM874 1528l74 -172l-405 -86l-15 33z" />
    <glyph glyph-name="uni040D" unicode="&#x40d;" horiz-adv-x="1335" 
d="M487 264v-196l113 -27v-41h-563v39l123 27v1056l-123 31v41h563v-39l-113 -27v-745l371 551v188l-123 31v41h563v-39l-112 -27v-1060l112 -27v-41h-563v39l123 27v749zM414 1358l73 172l342 -232l-14 -30z" />
    <glyph glyph-name="afii10062" unicode="&#x40e;" horiz-adv-x="1062" 
d="M420 1133l252 -531l176 510l-189 41v41h404v-39l-117 -29l-303 -819q-30 -80 -52 -128t-51 -90t-63.5 -62.5t-82 -31.5t-113.5 -11v200l28 13h215l17 32l-459 908l-74 16v41h529v-39zM575 1348q-88 0 -168 22.5t-137 75t-57 125.5l248 88h31v-238q32 -18 86 -18
q49 0 86 18v238h30l244 -88q0 -73 -59 -125.5t-138.5 -75t-165.5 -22.5z" />
    <glyph glyph-name="afii10145" unicode="&#x40f;" horiz-adv-x="1277" 
d="M37 0v39l119 27v1058l-119 29v41h545v-39l-97 -25v-1056h310v1052l-101 27v41h547v-39l-117 -27v-1058l117 -29v-41h-477l47 -287h-344l45 287h-475z" />
    <glyph glyph-name="afii10017" unicode="&#x410;" horiz-adv-x="1114" 
d="M633 0v39l94 18l-96 291h-342l-90 -256l194 -51v-41h-399v39l110 49l404 1106h178l371 -1139l63 -14v-41h-487zM459 838l-146 -416h293l-137 416h-10z" />
    <glyph glyph-name="afii10018" unicode="&#x411;" horiz-adv-x="1036" 
d="M37 0v39l119 27v1058l-119 29v41h866v-352h-67l-158 278h-189v-422h129q181 0 286.5 -87.5t105.5 -264.5q0 -159 -122.5 -252.5t-355.5 -93.5h-495zM528 625h-39v-549h13q93 0 132.5 57.5t39.5 212.5q0 153 -28 216t-118 63z" />
    <glyph glyph-name="afii10019" unicode="&#x412;" horiz-adv-x="1081" 
d="M37 0v39l106 14v1084l-106 16v41h534q183 0 295.5 -76.5t112.5 -218.5q0 -94 -55 -171.5t-133 -111.5v-4q253 -36 253 -272q0 -153 -113 -246.5t-315 -93.5h-579zM500 567h-25v-491h25q60 0 101.5 20t63.5 57.5t31 81t9 99.5q0 129 -55.5 181t-149.5 52zM500 1126h-25
v-487h21q73 0 115 56.5t42 174.5q0 60 -6 102.5t-22 79.5t-47 55.5t-78 18.5z" />
    <glyph glyph-name="afii10020" unicode="&#x413;" horiz-adv-x="911" 
d="M487 1120v-1050l127 -29v-41h-577v39l117 27v1058l-117 29v41h858v-434h-68l-178 360h-162z" />
    <glyph glyph-name="afii10021" unicode="&#x414;" horiz-adv-x="1144" 
d="M20 -344v418h142q68 205 129 500.5t86 537.5l-164 41v41h858v-39l-119 -27v-1054h172v-418h-69l-176 344h-613l-176 -344h-70zM264 74h354v1046h-143q-28 -272 -90.5 -574.5t-120.5 -471.5z" />
    <glyph glyph-name="afii10022" unicode="&#x415;" horiz-adv-x="991" 
d="M844 561l-355 6v-491h248l178 295l56 -9l-53 -362h-881v39l121 24v1063l-121 27v41h885v-332h-56l-133 258h-244v-467l355 9v-101z" />
    <glyph glyph-name="afii10024" unicode="&#x416;" horiz-adv-x="1720" 
d="M590 0v39l112 24v508h-55l-237 -571h-392v37l86 39l349 715l-82 247l-189 -112h-26l-54 264q82 20 125 20q100 0 152.5 -45t93.5 -182l102 -338h127v479l-112 29v41h538v-39l-110 -27v-483h127l100 338q21 68 49 115t61 70.5t65 32.5t71 9q43 0 125 -20l-51 -264h-27
l-188 112l-82 -245l346 -717l88 -39v-37h-393l-236 571h-55v-503l110 -27v-41h-538z" />
    <glyph glyph-name="afii10025" unicode="&#x417;" horiz-adv-x="954" 
d="M360 57q103 0 161.5 66.5t58.5 187.5q0 108 -34 170t-95 76l-187 -8v104l189 -10q84 63 84 246q0 119 -43 183.5t-113 64.5q-39 0 -82 -17l-145 -295h-74v318q68 24 173 45.5t202 21.5q118 0 212.5 -34t153 -106t58.5 -171q0 -97 -54 -169t-147 -105v-9q25 -6 52.5 -17.5
t62 -36t61.5 -56t45.5 -81.5t18.5 -108q0 -161 -122 -247t-352 -86q-76 0 -141 9t-116 27t-68.5 25.5t-50.5 24.5v204h77q12 -38 22 -64t28 -57.5t39 -50.5t53.5 -32t72.5 -13z" />
    <glyph glyph-name="afii10026" unicode="&#x418;" horiz-adv-x="1335" 
d="M487 264v-196l113 -27v-41h-563v39l123 27v1056l-123 31v41h563v-39l-113 -27v-745l371 551v188l-123 31v41h563v-39l-112 -27v-1060l112 -27v-41h-563v39l123 27v749z" />
    <glyph glyph-name="afii10027" unicode="&#x419;" horiz-adv-x="1335" 
d="M487 264v-196l113 -27v-41h-563v39l123 27v1056l-123 31v41h563v-39l-113 -27v-745l371 551v188l-123 31v41h563v-39l-112 -27v-1060l112 -27v-41h-563v39l123 27v749zM682 1348q-88 0 -168 22.5t-137.5 75t-57.5 125.5l248 88h31v-238q32 -18 86 -18q49 0 86 18v238h31
l243 -88q0 -73 -58.5 -125.5t-138 -75t-165.5 -22.5z" />
    <glyph glyph-name="afii10028" unicode="&#x41a;" horiz-adv-x="1222" 
d="M37 0v39l119 27v1058l-119 29v41h563v-39l-113 -27v-483h125l119 338q47 130 102 178.5t132 48.5q63 0 145 -20l-51 -264h-27l-188 112l-101 -260l375 -702l88 -39v-37h-411l-267 571h-41v-503l95 -27v-41h-545z" />
    <glyph glyph-name="afii10029" unicode="&#x41b;" horiz-adv-x="1118" 
d="M506 0v39l131 27v1054h-158q-44 -600 -121 -882q-68 -254 -323 -254v249l28 13h203q45 178 78.5 418t40.5 452l-162 37v41h858v-39l-116 -27v-1058l116 -29v-41h-575z" />
    <glyph glyph-name="afii10030" unicode="&#x41c;" horiz-adv-x="1523" 
d="M997 0v39l107 22l-62 867h-10l-301 -946h-121l-309 946h-10l-55 -840l147 -47v-41h-365v39l129 53l91 1024l-154 37v41h444l256 -760l254 760h418v-41l-131 -35l98 -1065l82 -12v-41h-508z" />
    <glyph glyph-name="afii10031" unicode="&#x41d;" horiz-adv-x="1300" 
d="M700 0v39l119 16v533h-330v-531l111 -16v-41h-563v39l121 16v1080l-121 18v41h563v-39l-111 -16v-490h330v486l-119 18v41h564v-39l-111 -16v-1082l111 -16v-41h-564z" />
    <glyph glyph-name="afii10032" unicode="&#x41e;" horiz-adv-x="1222" 
d="M1167 643q0 -187 -67.5 -336t-198 -236t-303.5 -87q-244 0 -393.5 153.5t-149.5 425.5q0 295 159.5 472t412.5 177q252 0 396 -147.5t144 -421.5zM799 604q0 284 -41.5 408.5t-143.5 124.5q-110 0 -151 -121t-41 -410q0 -140 8.5 -237.5t29.5 -168.5t56.5 -105t87.5 -34
q43 0 74.5 15t52.5 48.5t35 76t21 108t9.5 133t2.5 162.5z" />
    <glyph glyph-name="afii10033" unicode="&#x41f;" horiz-adv-x="1277" 
d="M37 0v39l117 27v1058l-117 29v41h1204v-39l-115 -27v-1058l115 -29v-41h-547v39l99 24v1057h-306v-1052l95 -27v-41h-545z" />
    <glyph glyph-name="afii10034" unicode="&#x420;" horiz-adv-x="1048" 
d="M37 0v39l121 24v1063l-121 27v41h586q192 0 301.5 -96t109.5 -289q0 -171 -121.5 -267t-357.5 -96h-66v-380l111 -25v-41h-563zM494 1116h-5v-588h11q94 0 133 74.5t39 220.5q0 293 -178 293z" />
    <glyph glyph-name="afii10035" unicode="&#x421;" horiz-adv-x="1075" 
d="M1028 829h-65l-146 291q-46 17 -96 17q-76 0 -134 -40.5t-93.5 -114t-53.5 -169.5t-18 -213q0 -537 303 -537q76 0 154.5 62.5t109.5 138.5h39v-194q-53 -35 -154.5 -60.5t-199.5 -25.5q-97 0 -184 18t-168 61t-139 108t-93 165t-35 225q0 161 49.5 286.5t137.5 204.5
t205.5 119.5t257.5 40.5q86 0 179 -22t144 -45v-316z" />
    <glyph glyph-name="afii10036" unicode="&#x422;" horiz-adv-x="1032" 
d="M229 0v39l121 24v1057h-117l-159 -360h-58v434h996v-434h-56l-159 360h-115v-1054l111 -25v-41h-564z" />
    <glyph glyph-name="afii10037" unicode="&#x423;" horiz-adv-x="1062" 
d="M420 1133l252 -531l176 510l-189 41v41h404v-39l-117 -29l-303 -819q-30 -80 -52 -128t-51 -90t-63.5 -62.5t-82 -31.5t-113.5 -11v200l28 13h215l17 32l-459 908l-74 16v41h529v-39z" />
    <glyph glyph-name="afii10038" unicode="&#x424;" horiz-adv-x="1376" 
d="M403 0v39l127 29v129q-252 11 -373.5 103.5t-121.5 285.5q0 198 125 312t370 136v131l-127 31v41h564v-39l-123 -29v-133q254 -10 374.5 -107.5t120.5 -285.5q0 -192 -121.5 -307.5t-373.5 -136.5v-127l123 -31v-41h-564zM1004 625q0 169 -36 256t-124 94v-717
q46 4 78 31.5t49.5 77.5t25 112t7.5 146zM371 610q0 -83 7 -142.5t24.5 -107.5t49 -73t78.5 -29v717q-87 -9 -123 -103t-36 -262z" />
    <glyph glyph-name="afii10039" unicode="&#x425;" horiz-adv-x="1089" 
d="M584 0v39l106 24l-219 406l-223 -381l182 -47v-41h-416v39l103 27l313 481l-317 588l-78 18v41h487v-39l-78 -16l177 -322l167 291l-129 45v41h377v-39l-143 -49l-236 -361l377 -692l56 -12v-41h-506z" />
    <glyph glyph-name="afii10040" unicode="&#x426;" horiz-adv-x="1312" 
d="M37 0v39l119 27v1058l-119 29v41h545v-39l-95 -25v-1056h308v1052l-101 27v41h547v-39l-115 -27v-1054h168v-418h-69l-178 344h-1010z" />
    <glyph glyph-name="afii10041" unicode="&#x427;" horiz-adv-x="1200" 
d="M582 0v39l133 29v454q-118 -26 -215 -26q-210 0 -297 104q-40 47 -52 104t-12 132v290l-112 27v41h518v-39l-74 -25v-335q0 -53 13 -101.5t46 -84.5t80 -36q32 0 105 17v536l-90 27v41h536v-39l-106 -27v-1058l106 -29v-41h-579z" />
    <glyph glyph-name="afii10042" unicode="&#x428;" horiz-adv-x="1892" 
d="M37 0v39l117 27v1058l-117 29v41h545v-39l-95 -25v-1056h291v1052l-98 27v41h528v-39l-96 -25v-1056h295v1052l-98 27v41h546v-39l-114 -27v-1058l114 -29v-41h-1818z" />
    <glyph glyph-name="afii10043" unicode="&#x429;" horiz-adv-x="1925" 
d="M37 0v39l119 27v1058l-119 29v41h545v-39l-95 -25v-1056h293v1052l-100 27v41h528v-39l-96 -25v-1056h297v1052l-100 27v41h546v-39l-114 -27v-1054h157v-418h-69l-178 344h-1614z" />
    <glyph glyph-name="afii10044" unicode="&#x42a;" horiz-adv-x="1224" 
d="M20 760v434h756v-39l-127 -27v-430h152q191 0 301 -87.5t110 -262.5q0 -157 -123.5 -252.5t-357.5 -95.5h-547v39l131 27v1054h-57l-176 -360h-62zM670 625h-21v-551h27q105 0 138.5 60.5t33.5 209.5q0 152 -38 215t-140 66z" />
    <glyph glyph-name="afii10045" unicode="&#x42b;" horiz-adv-x="1634" 
d="M37 0v39l119 27v1058l-119 29v41h563v-39l-111 -27v-430h134q192 0 301.5 -87t109.5 -263q0 -157 -122.5 -252.5t-356.5 -95.5h-518zM1034 0v39l115 27v1058l-115 29v41h563v-39l-114 -27v-1058l114 -29v-41h-563zM489 625v-551h27q84 0 120 64.5t36 205.5
q0 157 -31 217.5t-131 63.5h-21z" />
    <glyph glyph-name="afii10046" unicode="&#x42c;" horiz-adv-x="1071" 
d="M37 0v39l119 27v1058l-119 29v41h563v-39l-111 -27v-430h134q192 0 301.5 -87t109.5 -263q0 -157 -122.5 -252.5t-356.5 -95.5h-518zM489 625v-551h27q84 0 120 64.5t36 205.5q0 157 -31 217.5t-131 63.5h-21z" />
    </font>
</defs>
</svg>
