<?xml version="1.0" standalone="no"?>
<!DOCTYPE svg PUBLIC "-//W3C//DTD SVG 1.1//EN" "http://www.w3.org/Graphics/SVG/1.1/DTD/svg11.dtd" >
<svg xmlns="http://www.w3.org/2000/svg" xmlns:xlink="http://www.w3.org/1999/xlink" version="1.1">
<metadata>
Created by FontForge 20201107 at Sun Feb  1 19:50:17 2026
 By 
Copyright (c) 2008 Typotheque.com All rights reserved.
</metadata>
<defs>
<font id="GretaDisNarProMedIta" horiz-adv-x="1005" >
  <font-face 
    font-family="Greta Dis Nar Pro Med"
    font-weight="500"
    font-style="italic"
    font-stretch="condensed"
    units-per-em="2048"
    panose-1="2 0 6 6 0 0 0 9 0 4"
    ascent="1454"
    descent="-594"
    x-height="952"
    cap-height="1194"
    bbox="-721 -786 2300 1819"
    underline-thickness="102"
    underline-position="-204"
    slope="-9"
    unicode-range="U+0020-FB04"
  />
<missing-glyph horiz-adv-x="1390" 
d="M592 768v55h55v-55h-55zM745 1075v55h56v-55h-56zM592 1075v55h55v-55h-55zM438 1075v55h56v-55h-56zM131 0v55h55v-55h-55zM285 0v55h55v-55h-55zM438 0v55h56v-55h-56zM592 0v55h55v-55h-55zM745 0v55h56v-55h-56zM131 154v55h55v-55h-55zM131 307v55h55v-55h-55z
M131 461v55h55v-55h-55zM131 614v56h55v-56h-55zM131 768v55h55v-55h-55zM131 922v55h55v-55h-55zM131 1075v55h55v-55h-55zM131 1229v55h55v-55h-55zM131 1382v56h55v-56h-55zM285 1382v56h55v-56h-55zM438 1382v56h56v-56h-56zM592 1382v56h55v-56h-55zM745 1382v56h56
v-56h-56zM899 1382v56h55v-56h-55zM1053 1382v56h55v-56h-55zM1053 0v55h55v-55h-55zM899 0v55h55v-55h-55zM1206 0v55h56v-55h-56zM1206 1382v56h56v-56h-56zM592 614v56h55v-56h-55zM592 307v55h55v-55h-55zM745 768v55h56v-55h-56zM899 768v55h55v-55h-55zM899 922v55h55
v-55h-55zM899 1075v55h55v-55h-55zM1206 1229v55h56v-55h-56zM1206 1075v55h56v-55h-56zM1206 768v55h56v-55h-56zM1206 614v56h56v-56h-56zM1206 307v55h56v-55h-56zM1206 154v55h56v-55h-56zM1206 461v55h56v-55h-56zM1206 922v55h56v-55h-56z" />
    <glyph glyph-name="f_f" unicode="ff" horiz-adv-x="1085" 
d="M104 834v79h156l23 125q28 162 142 264.5t261 102.5q105 0 221 -64q117 111 281 111q74 0 151 -27l-55 -204h-41l-147 151q-32 -38 -59 -120t-38 -152l-32 -187h172v-79h-185l-125 -740q-17 -111 -79.5 -216.5t-147 -170.5t-162.5 -65q-133 0 -247 73
q-57 -66 -121 -105.5t-121 -39.5q-109 0 -176 37l45 186q19 -14 51 -38.5t47.5 -35t43 -23.5t58.5 -20q28 32 82 307q6 29 9 44l137 807h-144zM477 834l-137 -811q-12 -80 -51 -156q113 -104 225 -119q34 38 88 350l125 736h-250zM770 1087q9 59 33 111l-201 105
q-60 -67 -88 -250l-25 -140h250z" />
    <glyph glyph-name="fi" unicode="fi" horiz-adv-x="1032" 
d="M791 -16l-195 32l135 818h-256l-135 -811q-18 -111 -81 -216.5t-147.5 -171t-160.5 -65.5q-109 0 -176 37l45 186q15 -10 52.5 -38.5t53 -38.5t45 -23t60.5 -17q8 10 16 33.5t16 61.5t14.5 74t16.5 90t17 92l135 807h-142v79h154l31 174q27 165 155.5 267t298.5 102
q89 0 191 -31l-55 -204h-43l-230 151q-55 -64 -86 -272l-31 -187h234l207 39l43 -20l-133 -811l14 -12l145 108l23 -39z" />
    <glyph glyph-name="fl" unicode="fl" horiz-adv-x="1007" 
d="M600 16l201 1227l-207 109q-47 -74 -74 -252l-31 -187h125v-79h-139l-135 -811q-18 -111 -81 -216.5t-147.5 -171t-160.5 -65.5q-109 0 -176 37l45 186q15 -10 52.5 -38.5t53 -38.5t45 -23t60.5 -17q8 10 16 33.5t16 61.5t14.5 74t16.5 90t17 92l135 807h-142l5 79h149
l31 174q30 167 148.5 267t271.5 100q91 0 178 -43l125 31l43 -29l-217 -1298l16 -13l145 115l23 -39l-231 -194z" />
    <glyph glyph-name="f_f_i" unicode="ffi" horiz-adv-x="1517" 
d="M455 -365q-150 0 -265 76q-57 -65 -119.5 -103t-119.5 -38q-109 0 -176 37l45 186q19 -14 51 -38.5t47.5 -35t43 -23.5t58.5 -20q28 32 82 307q6 29 9 44l137 807h-144v79h156l23 125q28 162 142 264.5t261 102.5q112 0 234 -70q134 121 319 121q90 0 188 -31l-55 -204
h-41l-221 151q-60 -68 -96 -272l-33 -187h225l207 39l43 -20l-135 -813l16 -13l148 111l22 -39l-233 -194l-195 32l135 818h-245l-125 -746q-17 -110 -80 -216t-147.5 -171.5t-161.5 -65.5zM477 834l-137 -811q-12 -78 -51 -158q127 -108 237 -123q6 7 12.5 21.5t13 37
t12 44t12.5 56t12 59.5t13 66t13 66l127 742h-264zM514 1053l-25 -140h265l30 174q10 61 29 103l-219 113q-50 -56 -80 -250z" />
    <glyph glyph-name="f_f_l" unicode="ffl" horiz-adv-x="1482" 
d="M1075 16l201 1221l-197 102q-58 -90 -80 -239l-32 -187h131l-2 -79h-142l-125 -740q-17 -111 -79.5 -216.5t-147 -170.5t-162.5 -65q-133 0 -247 73q-57 -66 -121 -105.5t-121 -39.5q-109 0 -176 37l45 186q21 -15 51 -38.5t45.5 -35t42.5 -24t59 -19.5q11 12 22.5 43
t25 91.5t21 96.5t24.5 120l137 807h-154l2 79h164l23 125q28 162 142 264.5t261 102.5q102 0 217 -62q114 111 273 111q89 0 178 -45l133 33l43 -29l-217 -1298l16 -13l144 115l24 -39l-231 -194zM477 834l-137 -811q-12 -80 -51 -156q113 -104 225 -119q37 41 90 350
l125 736h-252zM772 1087q9 56 31 109l-201 107q-60 -67 -88 -250l-25 -140h252z" />
    <glyph glyph-name="uni0045030A" unicode="E&#x2da;" horiz-adv-x="989" 
d="M33 0l4 37l143 26l180 1065l-133 27l6 39h834l-51 -307h-55l-68 239h-281l-84 -493l349 18l-15 -98l-342 18l-88 -501h281l207 266l45 -6l-101 -330h-831zM768 1319q55 0 94 38t39 91q0 51 -28.5 76.5t-77.5 25.5q-55 0 -92 -36t-37 -91q0 -53 30 -78.5t72 -25.5z
M764 1280q-59 0 -101 37t-42 106q0 67 55 116.5t123 49.5q62 0 103.5 -38t41.5 -103q0 -67 -55 -117.5t-125 -50.5z" />
    <glyph glyph-name="uni00460304" unicode="F&#xaf;" horiz-adv-x="911" 
d="M961 1372h-414l12 55h414zM33 0l4 37l143 24l180 1069l-133 25l6 39h824l-53 -307h-54l-57 239h-281l-86 -514l348 21l-18 -101l-342 19l-82 -483l154 -29l-4 -39h-549z" />
    <glyph glyph-name="uni00480331" unicode="H&#x331;" horiz-adv-x="1294" 
d="M33 0l4 37l143 22l182 1074l-135 22l9 39h520l-8 -37l-138 -22l-84 -492h412l80 490l-133 22l8 39h520l-6 -37l-139 -22l-183 -1074l129 -22l-4 -39h-520l4 37l142 22l90 527h-410l-88 -527l129 -20l-4 -39h-520zM784 -268h-381l13 55h381z" />
    <glyph glyph-name="uni004A0301" unicode="J&#xb4;" horiz-adv-x="753" 
d="M270 -16q-164 0 -268 49l59 358h58l37 -317q2 0 21.5 -6t36 -9.5t28.5 -3.5q33 0 57.5 17t41 51t26.5 69t20 87l143 851l-137 25l8 39h537l-4 -37l-150 -24l-139 -811q-24 -149 -134.5 -243.5t-240.5 -94.5zM840 1544l84 -100v-27l-379 -139l-10 16z" />
    <glyph glyph-name="uni004D0310" unicode="M&#x310;" horiz-adv-x="1533" 
d="M928 1257q-66 0 -116.5 55.5t-59.5 143.5l129 19q8 -53 28.5 -83.5t55.5 -56.5q73 9 133 44t86 85l43 -12q-55 -95 -133 -145t-166 -50zM1067 1460l-127 47q60 105 76 197l151 -21q-52 -159 -100 -223zM973 0l4 35l141 24l86 887h-10l-483 -962h-95l-155 1011h-8
l-217 -909l149 -49l-4 -37h-373l4 35l140 51l258 1030l-134 41l9 37h397l127 -856h4l424 856h365l-7 -35l-135 -37l-88 -1069l113 -16l-4 -37h-508z" />
    <glyph glyph-name="uni004E0304" unicode="N&#xaf;" horiz-adv-x="1218" 
d="M1044 1372h-413l12 55h414zM10 0l4 35l144 49l174 1012l-127 61l4 37h334l430 -801h6l125 707l-186 57l6 37h417l-6 -35l-147 -51l-195 -1124h-104l-490 956h-8l-145 -848l198 -55l-6 -37h-428z" />
    <glyph glyph-name="uni00500304" unicode="P&#xaf;" horiz-adv-x="995" 
d="M33 0l4 35l143 26l182 1072l-135 22l9 39h518q148 0 242 -78t94 -209q0 -114 -39.5 -199.5t-109.5 -135t-158 -73.5t-195 -24h-84l-74 -414l152 -24l-4 -37h-545zM512 543h49q109 0 182.5 100t73.5 248q0 225 -149 231h-54zM950 1372h-413l12 55h414z" />
    <glyph glyph-name="uni00520300" unicode="R`" horiz-adv-x="1085" 
d="M33 0l4 35l141 28l182 1063l-133 31l9 37h532q145 0 224 -68.5t79 -195.5q0 -269 -248 -357l176 -495l99 -45l-6 -33h-338l-162 532h-82l-80 -469l131 -26l-6 -37h-522zM524 602q122 6 198.5 84.5t76.5 216.5q0 221 -142 221h-45zM369 1444l84 100l305 -246l-8 -20
l-381 139v27z" />
    <glyph glyph-name="uni00520325" unicode="R&#x325;" horiz-adv-x="1085" 
d="M33 0l4 35l141 28l182 1063l-133 31l9 37h532q145 0 224 -68.5t79 -195.5q0 -269 -248 -357l176 -495l99 -45l-6 -33h-338l-162 532h-82l-80 -469l131 -26l-6 -37h-522zM524 602q122 6 198.5 84.5t76.5 216.5q0 221 -142 221h-45zM557 -410q-59 0 -101 37.5t-42 106.5
q0 67 54.5 115.5t123.5 48.5q63 0 104 -37.5t41 -104.5q0 -65 -56 -115.5t-124 -50.5zM559 -371q56 0 95.5 37.5t39.5 89.5q0 51 -29.5 78t-78.5 27q-53 0 -90 -36.5t-37 -90.5t29.5 -79.5t70.5 -25.5z" />
    <glyph glyph-name="uni005203250304" unicode="R&#x325;&#xaf;" horiz-adv-x="1085" 
d="M33 0l4 35l141 28l182 1063l-133 31l9 37h532q145 0 224 -68.5t79 -195.5q0 -269 -248 -357l176 -495l99 -45l-6 -33h-338l-162 532h-82l-80 -469l131 -26l-6 -37h-522zM524 602q122 6 198.5 84.5t76.5 216.5q0 221 -142 221h-45zM557 -410q-59 0 -101 37.5t-42 106.5
q0 67 54.5 115.5t123.5 48.5q63 0 104 -37.5t41 -104.5q0 -65 -56 -115.5t-124 -50.5zM559 -371q56 0 95.5 37.5t39.5 89.5q0 51 -29.5 78t-78.5 27q-53 0 -90 -36.5t-37 -90.5t29.5 -79.5t70.5 -25.5zM924 1372h-414l12 55h414z" />
    <glyph glyph-name="uni00530331" unicode="S&#x331;" horiz-adv-x="870" 
d="M369 -16q-158 0 -312 77l56 326h57l49 -270q50 -37 91.5 -49.5t97.5 -12.5q91 0 162 56t71 165q0 47 -24 84t-62 62t-84.5 49t-93 51t-84.5 60t-62 84t-24 116q0 127 62.5 226.5t163 151.5t216.5 52q191 0 303 -75l-51 -308h-59l-49 271q-32 22 -64 29.5t-86 7.5
q-93 0 -161 -59t-68 -140q0 -49 25 -87t65 -63t88 -48.5t96 -50.5t88 -60.5t65 -86.5t25 -122q0 -88 -27 -161t-74 -123.5t-110.5 -85t-135.5 -50.5t-150 -16zM602 -268h-381l12 55h381z" />
    <glyph glyph-name="uni00530300" unicode="S`" horiz-adv-x="870" 
d="M371 1444l84 100l305 -246l-8 -20l-381 139v27zM369 -16q-158 0 -312 77l56 326h57l49 -270q50 -37 91.5 -49.5t97.5 -12.5q91 0 162 56t71 165q0 47 -24 84t-62 62t-84.5 49t-93 51t-84.5 60t-62 84t-24 116q0 127 62.5 226.5t163 151.5t216.5 52q191 0 303 -75
l-51 -308h-59l-49 271q-32 22 -64 29.5t-86 7.5q-93 0 -161 -59t-68 -140q0 -49 25 -87t65 -63t88 -48.5t96 -50.5t88 -60.5t65 -86.5t25 -122q0 -88 -27 -161t-74 -123.5t-110.5 -85t-135.5 -50.5t-150 -16z" />
    <glyph glyph-name="uni00530306" unicode="S&#x2d8;" horiz-adv-x="870" 
d="M672 1280q-67 0 -117 58.5t-57 148.5l129 18q5 -93 78 -147q74 9 137 51.5t92 97.5l35 -12q-59 -106 -129.5 -160.5t-167.5 -54.5zM369 -16q-158 0 -312 77l56 326h57l49 -270q50 -37 91.5 -49.5t97.5 -12.5q91 0 162 56t71 165q0 47 -24 84t-62 62t-84.5 49t-93 51
t-84.5 60t-62 84t-24 116q0 127 62.5 226.5t163 151.5t216.5 52q191 0 303 -75l-51 -308h-59l-49 271q-32 22 -64 29.5t-86 7.5q-93 0 -161 -59t-68 -140q0 -49 25 -87t65 -63t88 -48.5t96 -50.5t88 -60.5t65 -86.5t25 -122q0 -88 -27 -161t-74 -123.5t-110.5 -85
t-135.5 -50.5t-150 -16z" />
    <glyph glyph-name="uni00540308" unicode="T&#xa8;" horiz-adv-x="927" 
d="M518 1278l-129 45q28 47 48.5 101.5t27.5 91.5l149 -21q-53 -153 -96 -217zM858 1278l-127 45q53 90 76 193l149 -21q-48 -149 -98 -217zM174 0l6 37l144 29l178 1058h-176l-166 -303h-54l66 373h940l-65 -373h-52l-69 303h-170l-181 -1056l132 -29l-7 -39h-526z" />
    <glyph glyph-name="uni00560304" unicode="V&#xaf;" horiz-adv-x="989" 
d="M946 1372h-414l13 55h413zM365 0l-160 1143l-84 18l8 33h463l-4 -31l-121 -24l106 -881h11l401 850l-147 53l6 33h348l-4 -31l-103 -47l-559 -1116h-161z" />
    <glyph glyph-name="uni00580304" unicode="X&#xaf;" horiz-adv-x="1028" 
d="M543 0l6 35l121 28l-158 420l-303 -401l149 -45l-4 -37h-393l8 35l121 35l393 489l-217 578l-94 20l6 37h477l-8 -35l-112 -24l139 -369l262 348l-107 43l9 37h350l-8 -35l-156 -55l-322 -408l246 -639l88 -20l-6 -37h-487zM979 1372h-414l13 55h413z" />
    <glyph glyph-name="uni005A0324" unicode="Z&#x324;" horiz-adv-x="915" 
d="M25 0l-7 76l742 1052h-363l-159 -305h-52l64 371h784l6 -59l-766 -1067h416l174 294l56 -6l-86 -356h-809zM317 -332l-129 45q28 47 48.5 101.5t27.5 91.5l148 -21q-44 -141 -95 -217zM608 -332l-127 45q58 94 76 193l150 -21q-50 -147 -99 -217z" />
    <glyph glyph-name="uni0065030A" unicode="e&#x2da;" horiz-adv-x="671" 
d="M604 352l17 -39q-55 -82 -166 -179.5t-232 -149.5l-123 28q-32 103 -32 250q0 322 116 506q126 184 293 184q106 0 234 -71l-2 -201q-66 -60 -179.5 -132.5t-226.5 -127.5q-4 -74 -4 -109q0 -89 12 -151l23 -8q118 67 270 200zM502 1077q-59 0 -100.5 37.5t-41.5 106.5
q0 67 54.5 115t122.5 48q63 0 104 -37t41 -102q0 -67 -55 -117.5t-125 -50.5zM408 854q-75 -123 -101 -373q114 69 232 181l-2 137q-63 40 -129 55zM506 1116q55 0 94 38t39 89t-29 78t-78 27q-55 0 -92 -36t-37 -91q0 -54 30.5 -79.5t72.5 -25.5z" />
    <glyph glyph-name="uni00660304" unicode="f&#xaf;" horiz-adv-x="606" 
d="M104 834v79h154l31 174q28 164 148.5 264.5t269.5 100.5q75 0 151 -27l-55 -204h-41l-156 151q-55 -64 -86 -272l-31 -187h170l-2 -79h-182l-135 -811q-17 -111 -80.5 -217t-148 -171t-160.5 -65q-109 0 -176 37l45 186q15 -10 52.5 -38.5t53 -38.5t45 -23t60.5 -17
q5 6 9.5 16t9 25t9 30.5t9 38.5t8.5 41.5t9 47.5t8.5 48.5t9 52t8.5 51.5l135 807h-142zM893 1616h-381l14 53h381z" />
    <glyph glyph-name="uni006A0301" unicode="j&#xb4;" horiz-adv-x="499" 
d="M-27 -438l-22 16q94 168 131 391l145 875h-135v37l332 71l45 -20l-156 -934q-20 -120 -117 -234.5t-223 -201.5zM426 1389l154 -43v-27l-285 -244l-10 12z" />
    <glyph glyph-name="uni006D0310" unicode="m&#x310;" horiz-adv-x="1353" 
d="M1143 -16l-195 32l80 494q16 98 16 205q0 49 -6 73l-24 11q-73 -42 -172 -150q-2 -46 -17 -133l-90 -516h-221l80 510q18 113 18 207q0 47 -6 71l-24 11q-77 -45 -172 -148l-107 -651h-225l139 844h-139v37l334 71l45 -20l-35 -203q193 223 311 223q53 0 82 -64t29 -175
q97 116 176 177.5t145 61.5q56 0 85.5 -62.5t29.5 -170.5q0 -97 -20 -203l-70 -399l14 -13l148 111l20 -37zM776 1071q-64 0 -110 58t-54 147l129 18q11 -99 72 -145q70 9 132 52t91 97l35 -10q-59 -105 -130.5 -161t-164.5 -56zM918 1288l-130 47q59 98 80 197l150 -21
q-46 -150 -100 -223z" />
    <glyph glyph-name="uni006E0304" unicode="n&#xaf;" horiz-adv-x="923" 
d="M709 -16l-197 32l80 494q16 106 16 209q0 51 -4 65l-29 11q-65 -37 -165 -142l-107 -653h-225l139 844h-139v37l334 71l45 -20l-33 -201q188 221 309 221q51 0 80 -66t29 -179q0 -80 -19 -191l-69 -395l14 -12l150 108l22 -39zM786 1212h-380l14 54h381z" />
    <glyph glyph-name="uni007000AF" unicode="p&#xaf;" horiz-adv-x="843" 
d="M-106 -424l4 29l98 37l172 1001q-17 -9 -35.5 -19t-36.5 -21t-26 -15l-7 49q56 38 115 74l35 198l240 58l-19 -109q170 92 240 92q56 0 94 -51.5t54 -128t16 -172.5q0 -100 -33 -205.5t-90 -194.5t-142.5 -148.5t-181.5 -65.5q-55 0 -110 10l-62 -344l125 -43l-4 -31
h-446zM524 815q-5 -1 -106 -43l-115 -653q64 -47 123 -47q33 0 73 72.5t68.5 188t28.5 222.5q0 170 -37 260h-35zM760 1212h-381l14 54h381z" />
    <glyph glyph-name="uni00720325" unicode="r&#x325;" horiz-adv-x="659" 
d="M303 0h-225l139 844h-139v37l328 71l51 -20l-31 -182q141 202 203 202q54 0 108 -65l-106 -215l-90 112q-78 -55 -127 -110zM135 -410q-59 0 -101 37.5t-42 106.5q0 67 54.5 115.5t123.5 48.5q63 0 104 -37.5t41 -104.5q0 -65 -56 -115.5t-124 -50.5zM137 -371
q56 0 95.5 37.5t39.5 89.5q0 51 -29.5 78t-78.5 27q-53 0 -90 -36.5t-37 -90.5t29.5 -79.5t70.5 -25.5z" />
    <glyph glyph-name="uni007203250304" unicode="r&#x325;&#xaf;" horiz-adv-x="659" 
d="M303 0h-225l139 844h-139v37l328 71l51 -20l-31 -182q141 202 203 202q54 0 108 -65l-106 -215l-90 112q-78 -55 -127 -110zM135 -410q-59 0 -101 37.5t-42 106.5q0 67 54.5 115.5t123.5 48.5q63 0 104 -37.5t41 -104.5q0 -65 -56 -115.5t-124 -50.5zM137 -371
q56 0 95.5 37.5t39.5 89.5q0 51 -29.5 78t-78.5 27q-53 0 -90 -36.5t-37 -90.5t29.5 -79.5t70.5 -25.5zM692 1210h-381l15 54h381z" />
    <glyph glyph-name="uni00720300" unicode="r`" horiz-adv-x="659" 
d="M303 0h-225l139 844h-139v37l328 71l51 -20l-31 -182q141 202 203 202q54 0 108 -65l-106 -215l-90 112q-78 -55 -127 -110zM246 1346l153 43l142 -302l-13 -12l-282 244v27z" />
    <glyph glyph-name="uni00730331" unicode="s&#x331;" horiz-adv-x="700" 
d="M668 612h-45l-41 191q-35 13 -83 23t-77 10q-50 0 -84.5 -26t-34.5 -60q0 -21 9 -41t33.5 -45.5t39 -39t55.5 -47.5t54 -45q76 -63 118.5 -121t42.5 -126q0 -70 -58.5 -141.5t-143.5 -115.5t-160 -44q-159 0 -264 57l53 313h43l47 -219q87 -43 199 -43q45 0 69.5 24
t24.5 60q0 22 -10.5 45t-34.5 48.5t-43.5 43.5t-56.5 49q-9 7 -13 11q-52 47 -82 79t-57 83.5t-27 103.5q0 42 31 96t79.5 102t118 81.5t138.5 33.5q95 0 211 -55zM481 -268h-381l13 55h381z" />
    <glyph glyph-name="uni00730300" unicode="s`" horiz-adv-x="700" 
d="M668 612h-45l-41 191q-35 13 -83 23t-77 10q-50 0 -84.5 -26t-34.5 -60q0 -21 9 -41t33.5 -45.5t39 -39t55.5 -47.5t54 -45q76 -63 118.5 -121t42.5 -126q0 -70 -58.5 -141.5t-143.5 -115.5t-160 -44q-159 0 -264 57l53 313h43l47 -219q87 -43 199 -43q45 0 69.5 24
t24.5 60q0 22 -10.5 45t-34.5 48.5t-43.5 43.5t-56.5 49q-9 7 -13 11q-52 47 -82 79t-57 83.5t-27 103.5q0 42 31 96t79.5 102t118 81.5t138.5 33.5q95 0 211 -55zM305 1348l154 43l141 -301l-12 -13l-283 244v27z" />
    <glyph glyph-name="uni00730306" unicode="s&#x2d8;" horiz-adv-x="700" 
d="M668 612h-45l-41 191q-35 13 -83 23t-77 10q-50 0 -84.5 -26t-34.5 -60q0 -21 9 -41t33.5 -45.5t39 -39t55.5 -47.5t54 -45q76 -63 118.5 -121t42.5 -126q0 -70 -58.5 -141.5t-143.5 -115.5t-160 -44q-159 0 -264 57l53 313h43l47 -219q87 -43 199 -43q45 0 69.5 24
t24.5 60q0 22 -10.5 45t-34.5 48.5t-43.5 43.5t-56.5 49q-9 7 -13 11q-52 47 -82 79t-57 83.5t-27 103.5q0 42 31 96t79.5 102t118 81.5t138.5 33.5q95 0 211 -55zM516 1090q-70 0 -109 54.5t-47 147.5l129 21q3 -100 64 -146q68 8 121 51.5t82 100.5l35 -12
q-60 -109 -121.5 -163t-153.5 -54z" />
    <glyph glyph-name="uni00760304" unicode="v&#xaf;" horiz-adv-x="780" 
d="M741 1212h-381l15 54h381zM842 932v-60l-414 -872h-217q-39 148 -65 396.5t-23 447.5h-96v37l315 71l45 -10q-16 -112 -16 -274q0 -270 43 -525h20l195 473l2 316h211z" />
    <glyph glyph-name="uni00780304" unicode="x&#xaf;" horiz-adv-x="845" 
d="M870 932l-2 -49l-323 -355l135 -419l16 -5l144 86l16 -36l-229 -170l-150 22l-108 330l-97 -107l-55 -229h-199v53l330 350l-141 441h-115v35l275 73l45 -12l112 -348l86 92l66 248h194zM772 1212h-381l15 54h380z" />
    <glyph glyph-name="uni007A0324" unicode="z&#x324;" horiz-adv-x="710" 
d="M68 -10l-50 10l-12 39l518 690l-10 8q-62 -16 -158 -16q-92 0 -178 18l-63 -116l-41 6l49 299l51 24q211 -22 322 -22q137 0 204 22l50 -61l-492 -655l6 -23l336 -10l66 145l49 -6l-74 -336l-51 -22l-475 65zM203 -332l-129 45q28 47 48.5 101.5t27.5 91.5l147 -21
q-45 -144 -94 -217zM494 -332l-127 45q57 92 75 193l150 -21q-50 -150 -98 -217z" />
    <glyph glyph-name="f_h" unicode="fh" horiz-adv-x="1464" 
d="M598 0l211 1241l-211 111q-53 -82 -78 -252l-31 -187h125v-79h-139l-135 -811q-18 -113 -76 -217t-142.5 -170t-170.5 -66q-109 0 -176 37l45 186q15 -10 52.5 -38.5t53 -38.5t45 -23t60.5 -17q8 10 16 33.5t16 61.5t14.5 74t16.5 90t17 92l135 807h-142v79h154l31 174
q30 167 148.5 267t271.5 100q93 0 182 -45l127 31l47 -29l-119 -696q200 237 322 237q51 0 79.5 -66t28.5 -179q0 -86 -18 -191l-70 -395l15 -12l149 108l23 -39l-234 -194l-197 32l82 494q17 134 17 211q0 46 -6 67l-27 11q-71 -44 -176 -158l-109 -641h-227z" />
    <glyph glyph-name="f_b" unicode="fb" horiz-adv-x="1374" 
d="M594 55l201 1192l-205 105q-42 -66 -70 -252l-31 -187h125v-79h-139l-135 -811q-18 -111 -81 -216.5t-147.5 -171t-160.5 -65.5q-109 0 -176 37l45 186q22 -16 51.5 -40t46 -36.5t42.5 -24.5t56 -16q9 10 17.5 33.5t17.5 62t16 73t18.5 91t18.5 91.5l136 807h-136v79h148
l31 174q19 110 83 195t153.5 128.5t189.5 43.5q91 0 180 -45l119 31l43 -29l-109 -631q178 170 262 170q56 0 94 -51.5t54 -128t16 -172.5q0 -145 -65 -288t-171.5 -234.5t-218.5 -91.5q-186 0 -319 71zM1067 805q-55 -39 -139 -107l-101 -581q65 -45 117 -45t95.5 84.5
t66 201t22.5 226.5q0 135 -30 221h-31z" />
    <glyph glyph-name="f_j" unicode="fj" horiz-adv-x="991" 
d="M477 -434l-22 16q94 153 139 389l143 863h-262l-135 -811q-18 -111 -81 -216.5t-147.5 -171t-160.5 -65.5q-109 0 -176 37l45 186q22 -16 51.5 -40t46 -36.5t42.5 -24.5t56 -16q33 37 95 351l135 807h-142v79h154l31 174q27 165 155.5 267t298.5 102q89 0 191 -31
l-55 -204h-43l-230 151q-55 -64 -86 -272l-31 -187h244l201 39l45 -20l-156 -932q-22 -121 -120.5 -236t-225.5 -198z" />
    <glyph glyph-name="f_k" unicode="fk" horiz-adv-x="1417" 
d="M600 0l209 1239l-213 113q-50 -78 -76 -252l-31 -187h125v-79h-139l-135 -811q-18 -111 -81 -216.5t-147.5 -171t-160.5 -65.5q-109 0 -176 37l45 186q22 -16 51.5 -40t46 -36.5t42.5 -24.5t56 -16q33 37 95 351l135 807h-142v79h154l31 174q30 167 148.5 267t271.5 100
q94 0 180 -45l133 33l43 -29l-111 -651q139 142 236 188l182 -47q8 -47 8 -96q0 -101 -48.5 -174t-151.5 -129l94 -367l20 -6l129 86l19 -39l-248 -194l-139 30l-76 371l6 31q72 74 125 174.5t53 185.5q0 17 -4 41l-20 10q-72 -29 -201 -155l-113 -672h-225z" />
    <glyph glyph-name="f_igrave" unicode="f&#xec;" horiz-adv-x="1032" 
d="M791 -16l-195 32l133 818h-254l-135 -811q-18 -111 -81 -216.5t-147.5 -171t-160.5 -65.5q-109 0 -176 37l45 186q21 -15 52 -39.5t47.5 -36.5t43.5 -24.5t57 -16.5q33 37 91 351l135 807h-142v79h154l31 174q28 164 148 265.5t257 101.5q64 0 119 -24l-59 -205h-27
l-117 127q-62 -67 -90 -252l-31 -187h228l213 39l43 -20l-135 -815l16 -13l143 113l25 -39zM1020 1090l-25 -9l-157 273l2 26l133 23z" />
    <glyph glyph-name="f_idieresis" unicode="f&#xef;" horiz-adv-x="1032" 
d="M791 -16l-195 32l133 818h-254l-135 -811q-18 -111 -81 -216.5t-147.5 -171t-160.5 -65.5q-109 0 -176 37l45 186q21 -15 52 -39.5t47.5 -36.5t43.5 -24.5t57 -16.5q33 37 91 351l135 807h-142v79h154l31 174q28 164 148 265.5t257 101.5q64 0 119 -24l-59 -205h-27
l-117 127q-62 -67 -90 -252l-31 -187h228l213 39l43 -20l-135 -815l16 -13l143 113l25 -39zM1112 1155l-115 45q57 107 72 193l137 -21q-49 -153 -94 -217zM891 1155l-115 45q57 107 72 193l137 -21q-53 -153 -94 -217z" />
    <glyph glyph-name="lambda_lambda" unicode="&#x3bb;&#x3bb;" horiz-adv-x="1404" 
d="M1184 0l-76 686l-270 -686l-213 -16l-39 16l-72 686l-272 -686h-219l-13 33l475 911l-20 193q-8 89 -49 141q-150 -11 -258 -70l-31 4l-25 220q59 24 154 24q30 0 62 -8t69.5 -30t68.5 -55.5t55.5 -90.5t33.5 -129l106 -950q15 -2 39 4l391 747l-20 193q-11 94 -51 141
q-148 -11 -256 -70l-31 4l-25 220q59 24 154 24q30 0 62.5 -8t70 -30t68 -55.5t55 -90.5t33.5 -129l108 -959q21 -1 40 1t30.5 5t31 9.5t29.5 9.5l9 -14q-17 -49 -65 -109t-103 -102z" />
    <glyph glyph-name="gamma_gamma" unicode="&#x3b3;&#x3b3;" horiz-adv-x="1409" 
d="M1278 948q51 7 108.5 -5.5t88.5 -43.5q-6 -84 -176.5 -423t-254.5 -456q-1 -10 -23 -209t-26 -221q-75 -28 -141 -26q-64 0 -98 10l118 438q-4 147 -38.5 364.5t-71.5 364.5h-6q-30 -112 -144 -386.5t-157 -334.5q-2 -15 -24 -212t-25 -218q-75 -28 -142 -26
q-64 0 -98 10l119 438q-12 189 -57 436.5t-78 376.5l-21 15l-90 -6l-4 47l248 71l80 -14q22 -116 45 -365.5t30 -455.5h19q36 60 142 415t112 408q18 2 59 2q75 0 164 -14q27 -147 57 -388t35 -423h19q34 58 128 413t103 418z" />
    <glyph glyph-name=".notdef" horiz-adv-x="1390" 
d="M592 768v55h55v-55h-55zM745 1075v55h56v-55h-56zM592 1075v55h55v-55h-55zM438 1075v55h56v-55h-56zM131 0v55h55v-55h-55zM285 0v55h55v-55h-55zM438 0v55h56v-55h-56zM592 0v55h55v-55h-55zM745 0v55h56v-55h-56zM131 154v55h55v-55h-55zM131 307v55h55v-55h-55z
M131 461v55h55v-55h-55zM131 614v56h55v-56h-55zM131 768v55h55v-55h-55zM131 922v55h55v-55h-55zM131 1075v55h55v-55h-55zM131 1229v55h55v-55h-55zM131 1382v56h55v-56h-55zM285 1382v56h55v-56h-55zM438 1382v56h56v-56h-56zM592 1382v56h55v-56h-55zM745 1382v56h56
v-56h-56zM899 1382v56h55v-56h-55zM1053 1382v56h55v-56h-55zM1053 0v55h55v-55h-55zM899 0v55h55v-55h-55zM1206 0v55h56v-55h-56zM1206 1382v56h56v-56h-56zM592 614v56h55v-56h-55zM592 307v55h55v-55h-55zM745 768v55h56v-55h-56zM899 768v55h55v-55h-55zM899 922v55h55
v-55h-55zM899 1075v55h55v-55h-55zM1206 1229v55h56v-55h-56zM1206 1075v55h56v-55h-56zM1206 768v55h56v-55h-56zM1206 614v56h56v-56h-56zM1206 307v55h56v-55h-56zM1206 154v55h56v-55h-56zM1206 461v55h56v-55h-56zM1206 922v55h56v-55h-56z" />
    <glyph glyph-name=".null" horiz-adv-x="0" 
 />
    <glyph glyph-name="nonmarkingreturn" horiz-adv-x="682" 
 />
    <glyph glyph-name="space" unicode=" " horiz-adv-x="389" 
 />
    <glyph glyph-name="exclam" unicode="!" horiz-adv-x="505" 
d="M565 1192v-66l-221 -757h-35l25 823h231zM129 25q25 51 50.5 115t31.5 93q53 4 108.5 -5t83.5 -23q-49 -163 -98 -230q-42 0 -93 14t-83 36z" />
    <glyph glyph-name="quotedbl" unicode="&#x22;" horiz-adv-x="696" 
d="M223 981l76 459h168l8 -51l-196 -408h-56zM557 981l78 459h168l6 -51l-197 -408h-55z" />
    <glyph glyph-name="numbersign" unicode="#" horiz-adv-x="1114" 
d="M221 813l21 78h262l117 303h69l-115 -303h320l117 303h73l-114 -303h237l-20 -78h-248l-137 -362h256l-21 -80h-266l-139 -371h-78l141 371h-319l-139 -371h-76l141 371h-231l22 80h240l139 362h-252zM545 813l-137 -362h319l139 362h-321z" />
    <glyph glyph-name="dollar" unicode="$" horiz-adv-x="854" 
d="M365 -12q-164 0 -308 75l56 324h67l10 -211q52 -60 104 -85t114 -25l71 423q-9 6 -36 22t-38 23t-35 23.5t-35.5 26.5t-31.5 28t-30 32t-23 34.5t-19.5 40t-11 44t-4.5 50.5q0 110 55 198.5t142 138t190 58.5l23 123h57l-20 -121q179 -6 274 -73l-53 -308h-68l-8 209
q-34 43 -70 65.5t-90 26.5l-72 -407l36 -22.5t38.5 -24t35.5 -23.5t35.5 -26.5t31 -27.5t29.5 -31t22.5 -33.5t19.5 -39t10.5 -41.5t4.5 -48q0 -97 -30.5 -172.5t-85 -124.5t-122.5 -77t-149 -38l-23 -133h-55l20 129q-5 0 -14 -1t-14 -1zM408 946q0 -59 30.5 -103t87.5 -85
l64 372q-75 -9 -128.5 -60.5t-53.5 -123.5zM637 291q0 51 -27.5 89t-79.5 75l-67 -383q73 19 123.5 75t50.5 144z" />
    <glyph glyph-name="percent" unicode="%" horiz-adv-x="1277" 
d="M113 745q0 71 21 145t59.5 139t102 106t138.5 41q96 0 151.5 -62t55.5 -180q0 -186 -94.5 -305t-224.5 -119q-96 0 -152.5 61t-56.5 174zM342 580q34 0 63.5 36.5t48 94.5t28.5 126.5t10 135.5q0 133 -74 133q-41 0 -73 -41t-48.5 -104t-24.5 -124.5t-8 -115.5
q0 -141 78 -141zM745 219q0 70 21 143.5t59.5 138.5t102 106.5t139.5 41.5q95 0 150 -62t55 -179q0 -187 -94 -305.5t-224 -118.5q-96 0 -152.5 60.5t-56.5 174.5zM975 55q43 0 78.5 63.5t53 151t17.5 172.5q0 138 -75 138q-35 0 -65 -38.5t-49 -98t-29.5 -127.5t-10.5 -130
q0 -131 80 -131zM332 -6h-78l799 1180h80z" />
    <glyph glyph-name="ampersand" unicode="&#x26;" horiz-adv-x="1140" 
d="M1264 678q-74 -71 -203 -74v-6q-2 -121 -51.5 -234.5t-129.5 -196.5t-187 -133t-220 -50q-56 0 -107.5 8.5t-104 31t-91 56t-62.5 88.5t-24 125q0 80 44 152t101.5 115t116.5 61q-71 28 -119.5 94t-48.5 137q0 156 123.5 264.5t292.5 108.5q127 0 200.5 -55.5
t73.5 -139.5q0 -153 -184 -237q62 -9 133 -9q235 0 385 84zM600 713l-18 57q80 111 80 217q0 110 -87 172h-36q-58 -7 -97 -84t-39 -157q0 -86 20.5 -140.5t61.5 -107.5v-39q-59 -28 -100 -88.5t-41 -147.5q0 -132 93 -227.5t192 -95.5q126 50 204 191.5t93 350.5
q-136 22 -326 99z" />
    <glyph glyph-name="quotesingle" unicode="'" horiz-adv-x="362" 
d="M231 981l76 459h162l8 -51l-190 -408h-56z" />
    <glyph glyph-name="parenleft" unicode="(" horiz-adv-x="548" 
d="M377 -379q-40 40 -82 105.5t-83.5 157t-68 213.5t-26.5 249q0 159 43.5 312t122.5 286t177 246t218 215l41 -45q-61 -52 -121.5 -114.5t-136 -163.5t-131.5 -207t-94.5 -244.5t-38.5 -276.5q0 -373 235 -686z" />
    <glyph glyph-name="parenright" unicode=")" horiz-adv-x="544" 
d="M332 1405q39 -40 80.5 -105.5t83 -157t68 -213.5t26.5 -249q0 -159 -43.5 -312t-122 -286t-176 -246t-217.5 -215l-43 45q61 51 122 114t136.5 163.5t132 207t95 245t38.5 276.5q0 384 -233 686z" />
    <glyph glyph-name="asterisk" unicode="*" horiz-adv-x="714" 
d="M748 891l-13 -60l-43 -45l-200 164l34 -260l-55 -18l-53 18l35 262l-199 -166l-39 41l-16 62l237 96l-237 102l12 60l45 41l199 -166l-35 266l51 15l57 -15l-36 -264l202 164l43 -39l11 -62l-248 -100z" />
    <glyph glyph-name="plus" unicode="+" horiz-adv-x="942" 
d="M913 571h-344v-385h-84v385h-342v84h342v377h84v-377h344v-84z" />
    <glyph glyph-name="comma" unicode="," horiz-adv-x="495" 
d="M434 160q-60 -239 -332 -457l-20 14q63 104 105.5 232t48.5 237q32 7 63 7q85 0 135 -33z" />
    <glyph glyph-name="hyphen" unicode="-" horiz-adv-x="659" 
d="M618 444h-460l18 123h459z" />
    <glyph glyph-name="period" unicode="." horiz-adv-x="454" 
d="M102 25q25 51 50.5 115t31.5 93q53 4 109 -5t84 -23q-49 -163 -98 -230q-42 0 -93.5 14t-83.5 36z" />
    <glyph glyph-name="slash" unicode="/" horiz-adv-x="606" 
d="M776 1366l-688 -1542h-88l690 1542h86z" />
    <glyph glyph-name="zero" unicode="0" horiz-adv-x="899" 
d="M938 780q-3 -143 -39 -282t-100.5 -255t-166.5 -187.5t-224 -71.5q-146 0 -222.5 106t-76.5 289q0 114 22 230.5t67.5 224.5t107 192.5t148 135t183.5 50.5q78 0 137 -33.5t94.5 -93t52.5 -136t17 -169.5zM457 51q53 0 95 53t66.5 131.5t40.5 178t21.5 182t5.5 154.5
q0 389 -96 389q-60 0 -108 -77.5t-74.5 -194t-40 -230.5t-13.5 -207q0 -86 4 -149.5t15 -118t32 -83t52 -28.5z" />
    <glyph glyph-name="one" unicode="1" horiz-adv-x="690" 
d="M539 1204h114l-182 -1124l176 -43l-4 -37h-604l2 35l190 45l156 964h-205l4 31z" />
    <glyph glyph-name="two" unicode="2" horiz-adv-x="798" 
d="M786 227v-37l-65 -190h-631l-35 90q200 195 352.5 420.5t206.5 380.5q-44 80 -97 115.5t-128 35.5q-97 0 -188 -67l-21 20q60 97 149.5 157t172.5 60q145 0 230 -82t85 -198q0 -157 -142.5 -342t-391.5 -363h503z" />
    <glyph glyph-name="three" unicode="3" horiz-adv-x="755" 
d="M86 233h29q47 -45 113.5 -76.5t131.5 -31.5q73 0 139.5 62t80.5 139q-81 167 -273 249l10 72q93 37 173.5 97.5t132.5 123.5q-21 69 -91.5 138t-152.5 69q-99 0 -199 -100l-24 33q74 88 169 146t193 58q122 0 201.5 -73t79.5 -178q0 -46 -27 -91.5t-70.5 -81.5t-86 -62
t-87.5 -46v-8q96 -36 167 -113.5t71 -161.5q0 -61 -35 -123.5t-91 -113t-122.5 -91t-133 -63t-118.5 -22.5q-151 0 -239 53z" />
    <glyph glyph-name="four" unicode="4" horiz-adv-x="837" 
d="M49 289l-12 131l610 782h184l-120 -739h155v-29l-55 -145h-129l-49 -305h-234l47 305h-397zM147 463h328l86 536z" />
    <glyph glyph-name="five" unicode="5" horiz-adv-x="757" 
d="M109 217l30 -2q54 -59 110.5 -98t96.5 -39q67 0 118.5 100.5t53.5 200.5q0 81 -18 127t-86 100q-50 -12 -130.5 -40t-82.5 -29l-47 38l129 619h536l-2 -39l-57 -170h-438l-66 -334q152 91 283 115q100 -33 159.5 -111.5t59.5 -205.5q0 -102 -72.5 -211.5t-186 -181.5
t-223.5 -72q-115 0 -223 51z" />
    <glyph glyph-name="six" unicode="6" horiz-adv-x="815" 
d="M829 989l-38 -2q-111 107 -195 107q-103 0 -175 -134t-97 -333q188 155 309 155q84 -44 133 -134.5t49 -225.5q0 -74 -45 -154.5t-111.5 -142t-146.5 -101.5t-147 -40q-113 0 -190 116t-77 306q0 139 52 286t133.5 260.5t189 186.5t211.5 73q115 0 180 -28zM506 655
q-77 -16 -191 -98q-4 -35 -4 -104q0 -86 10 -162t40 -144.5t77 -85.5q69 23 108.5 116t39.5 183q0 197 -80 295z" />
    <glyph glyph-name="seven" unicode="7" horiz-adv-x="688" 
d="M141 987l2 27l62 180h624l23 -88l-524 -1122h-170l2 39l553 964h-572z" />
    <glyph glyph-name="eight" unicode="8" horiz-adv-x="880" 
d="M922 956q0 -147 -271 -292q197 -210 197 -330q0 -57 -28 -111t-75 -96.5t-105.5 -75t-123 -50t-123.5 -17.5q-128 0 -214.5 80t-86.5 190q0 58 22 108t62.5 89t84.5 67.5t101 56.5q-149 174 -149 295q0 62 41 126.5t100.5 111t127 76.5t120.5 30q126 0 223 -73.5
t97 -184.5zM682 197q-10 33 -48 80t-119.5 132t-113.5 121q-72 -100 -120 -245q33 -86 83 -150.5t105 -64.5q52 0 116.5 41t96.5 86zM369 989q5 -18 18.5 -39.5t41.5 -53.5t48.5 -53.5t65 -66.5t63.5 -65q71 91 119 188q-29 85 -84 150t-115 65q-42 0 -84 -35t-73 -90z" />
    <glyph glyph-name="nine" unicode="9" horiz-adv-x="815" 
d="M121 207l39 2q111 -107 194 -107q69 0 126.5 66t93.5 169.5t53 231.5q-82 -68 -165.5 -111.5t-144.5 -43.5q-84 44 -133 134.5t-49 225.5q0 74 45 154.5t112 142t147 101.5t147 40q113 0 189.5 -115.5t76.5 -305.5q0 -139 -52 -286t-133.5 -261t-189 -187t-211.5 -73
q-115 0 -180 28zM444 541q72 15 191 98q4 70 4 104q0 86 -10 162t-40 144.5t-77 85.5q-69 -23 -108 -115.5t-39 -183.5q0 -198 79 -295z" />
    <glyph glyph-name="colon" unicode=":" horiz-adv-x="516" 
d="M123 25q25 51 50.5 115t31.5 93q53 4 108.5 -5t83.5 -23q-49 -163 -98 -230q-42 0 -93 14t-83 36zM240 707q25 51 50.5 115t31.5 93q53 4 108.5 -5t83.5 -23q-49 -163 -98 -230q-42 0 -93 14t-83 36z" />
    <glyph glyph-name="semicolon" unicode=";" horiz-adv-x="591" 
d="M422 160q-60 -239 -332 -457l-20 14q63 103 105 231t48 238q31 7 64 7q85 0 135 -33zM283 707q25 51 50.5 115t31.5 93q53 4 108.5 -5t83.5 -23q-49 -163 -98 -230q-42 0 -93 14t-83 36z" />
    <glyph glyph-name="less" unicode="&#x3c;" horiz-adv-x="921" 
d="M229 614l664 -362l-33 -70l-721 391v76l721 387l33 -69z" />
    <glyph glyph-name="equal" unicode="=" horiz-adv-x="993" 
d="M934 764h-770v88h770v-88zM934 367h-770v88h770v-88z" />
    <glyph glyph-name="greater" unicode="&#x3e;" horiz-adv-x="921" 
d="M174 182l-33 68l664 356l-666 359l35 71l721 -389v-76z" />
    <glyph glyph-name="question" unicode="?" horiz-adv-x="561" 
d="M688 913q0 -49 -40 -107t-107 -110q-75 -58 -150.5 -122.5t-93.5 -92.5q3 -22 11 -61t9 -55l-41 -7q-2 3 -19.5 26t-24 31.5t-20.5 30t-20.5 34t-12 29.5t-5.5 30q0 36 56.5 93.5t127.5 108.5t148 109.5t104 89.5q-47 55 -168 83t-233 32q0 46 23 88.5t61 64.5
q86 -1 178.5 -44t154.5 -112.5t62 -138.5zM98 25q25 51 50.5 115t31.5 93q53 4 109 -5t84 -23q-49 -161 -99 -230q-42 0 -93 14t-83 36z" />
    <glyph glyph-name="at" unicode="@" horiz-adv-x="1544" 
d="M862 10l49 301l-293 -327h-124q-19 90 -19 227q2 157 34 311.5t85 233.5t125 130.5t155 51.5q85 0 185 -57l45 59h98l-141 -836l18 -14q118 59 205.5 154.5t130.5 197.5t43 199q0 132 -32 242t-96.5 193.5t-169 130t-240.5 46.5q-156 0 -294.5 -73.5t-233.5 -193.5
t-150.5 -275.5t-55.5 -317.5q0 -174 49 -313.5t137 -231t210 -140t270 -48.5q114 0 249 61t228 148l25 -64q-110 -95 -246.5 -156t-280.5 -61q-155 0 -288 55.5t-228.5 157t-150 251.5t-54.5 331q0 191 67.5 365.5t180.5 300t269 200t327 74.5q268 0 429 -182t161 -473
q0 -121 -47.5 -232.5t-130 -198t-182.5 -153.5t-217 -115zM657 188l27 -10l246 242l61 350q-113 67 -176 74q-27 0 -39 -4q-50 -76 -84.5 -238.5t-36.5 -322.5q0 -77 2 -91z" />
    <glyph glyph-name="A" unicode="A" horiz-adv-x="1058" 
d="M-45 0l6 35l113 47l655 1112h135l121 -1141l72 -16l-8 -37h-465l4 35l127 22l-27 353h-340l-184 -324l172 -49l-6 -37h-375zM385 471h299l-31 453h-10z" />
    <glyph glyph-name="B" unicode="B" horiz-adv-x="1030" 
d="M33 0l4 37l145 26l183 1070l-138 22l6 39h480q172 0 259 -68t87 -192q0 -216 -283 -299v-6q110 -5 180 -68.5t70 -181.5q0 -168 -131.5 -273.5t-335.5 -105.5h-526zM430 70h68q127 0 200.5 80t73.5 235q0 199 -205 199h-45zM532 641h50q96 0 157.5 82t61.5 225
q0 185 -150 185h-37z" />
    <glyph glyph-name="C" unicode="C" 
d="M1071 829h-61l-72 285q-53 35 -133 35q-104 0 -189 -58.5t-137 -155.5t-80 -217t-28 -249q0 -89 15 -162.5t46.5 -132t86 -91t128.5 -32.5q88 0 163.5 60.5t109.5 138.5h51l-33 -184q-52 -30 -148 -56t-200 -26q-108 0 -198.5 27.5t-159.5 81.5t-107.5 141t-38.5 200
q0 172 57.5 318.5t156 247t232.5 156.5t285 56q168 0 305 -67z" />
    <glyph glyph-name="D" unicode="D" horiz-adv-x="1183" 
d="M33 0l4 37l143 26l182 1070l-135 22l6 39h506q510 0 510 -418q0 -220 -91 -397.5t-251.5 -278t-359.5 -100.5h-514zM678 1126h-66l-182 -1054h80q205 0 332 180t127 498q0 179 -67.5 277.5t-223.5 98.5z" />
    <glyph glyph-name="E" unicode="E" horiz-adv-x="989" 
d="M33 0l4 37l143 26l180 1065l-133 27l6 39h834l-51 -307h-55l-68 239h-281l-84 -493l349 18l-15 -98l-342 18l-88 -501h281l207 266l45 -6l-101 -330h-831z" />
    <glyph glyph-name="F" unicode="F" horiz-adv-x="911" 
d="M33 0l4 37l143 24l180 1069l-133 25l6 39h824l-53 -307h-54l-57 239h-281l-86 -514l348 21l-18 -101l-342 19l-82 -483l154 -29l-4 -39h-549z" />
    <glyph glyph-name="G" unicode="G" horiz-adv-x="1052" 
d="M588 -16q-221 0 -361.5 124.5t-140.5 346.5q0 164 58 307t157 240.5t232 153.5t280 56q166 0 303 -67l-53 -316h-57l-62 285q-62 33 -149 33q-99 0 -182 -62t-134.5 -160.5t-79.5 -214t-28 -229.5q0 -430 258 -430q37 0 84 15l71 456l-139 35l8 37h383l-92 -528
q-51 -29 -151.5 -55.5t-204.5 -26.5z" />
    <glyph glyph-name="H" unicode="H" horiz-adv-x="1294" 
d="M33 0l4 37l143 22l182 1074l-135 22l9 39h520l-8 -37l-138 -22l-84 -492h412l80 490l-133 22l8 39h520l-6 -37l-139 -22l-183 -1074l129 -22l-4 -39h-520l4 37l142 22l90 527h-410l-88 -527l129 -20l-4 -39h-520z" />
    <glyph glyph-name="I" unicode="I" horiz-adv-x="673" 
d="M49 0l4 37l142 24l182 1072l-133 22l6 39h524l-6 -37l-137 -24l-185 -1070l132 -24l-5 -39h-524z" />
    <glyph glyph-name="J" unicode="J" horiz-adv-x="753" 
d="M270 -16q-164 0 -268 49l59 358h58l37 -317q2 0 21.5 -6t36 -9.5t28.5 -3.5q33 0 57.5 17t41 51t26.5 69t20 87l143 851l-137 25l8 39h537l-4 -37l-150 -24l-139 -811q-24 -149 -134.5 -243.5t-240.5 -94.5z" />
    <glyph glyph-name="K" unicode="K" horiz-adv-x="1091" 
d="M33 0l4 37l145 20l180 1076l-135 22l9 39h524l-6 -37l-140 -24l-182 -1074l129 -20l-2 -39h-526zM776 0l-225 543l8 41l436 530l-127 47l6 33h404l-10 -39l-168 -41l-352 -405l290 -631l88 -43l-4 -35h-346z" />
    <glyph glyph-name="L" unicode="L" horiz-adv-x="929" 
d="M33 0l4 37l145 26l180 1070l-135 22l9 39h524l-8 -37l-138 -22l-182 -1065h262l221 311l48 -8l-109 -373h-821z" />
    <glyph glyph-name="M" unicode="M" horiz-adv-x="1533" 
d="M973 0l4 35l141 24l86 887h-10l-483 -962h-95l-155 1011h-8l-217 -909l149 -49l-4 -37h-373l4 35l140 51l258 1030l-134 41l9 37h397l127 -856h4l424 856h365l-7 -35l-135 -37l-88 -1069l113 -16l-4 -37h-508z" />
    <glyph glyph-name="N" unicode="N" horiz-adv-x="1218" 
d="M10 0l4 35l144 49l174 1012l-127 61l4 37h334l430 -801h6l125 707l-186 57l6 37h417l-6 -35l-147 -51l-195 -1124h-104l-490 956h-8l-145 -848l198 -55l-6 -37h-428z" />
    <glyph glyph-name="O" unicode="O" horiz-adv-x="1118" 
d="M1182 754q-2 -113 -34 -225.5t-91.5 -210t-138.5 -172.5t-182.5 -118.5t-215.5 -43.5q-202 0 -318 123.5t-116 330.5q0 200 85 377t239.5 287t341.5 110q210 0 320 -119.5t110 -338.5zM555 55q78 0 144.5 64t110.5 169.5t68.5 240t24.5 276.5q0 73 -10 133.5t-30.5 106.5
t-54 72t-77.5 26q-79 0 -149 -67.5t-116.5 -175t-73.5 -239.5t-27 -262q0 -98 18.5 -173t62.5 -123t109 -48z" />
    <glyph glyph-name="P" unicode="P" horiz-adv-x="995" 
d="M33 0l4 35l143 26l182 1072l-135 22l9 39h518q148 0 242 -78t94 -209q0 -114 -39.5 -199.5t-109.5 -135t-158 -73.5t-195 -24h-84l-74 -414l152 -24l-4 -37h-545zM512 543h49q109 0 182.5 100t73.5 248q0 225 -149 231h-54z" />
    <glyph glyph-name="Q" unicode="Q" horiz-adv-x="1118" 
d="M1182 754q-3 -164 -66.5 -319.5t-180.5 -272t-263 -158.5l381 -203l-6 -32h-338l-95 223q-62 -8 -94 -8q-202 0 -318 123.5t-116 330.5q0 200 85 377t239.5 287t341.5 110q210 0 320 -119.5t110 -338.5zM555 55q78 0 144.5 64t110.5 169.5t68.5 240t24.5 276.5
q0 73 -10 133.5t-30.5 106.5t-54 72t-77.5 26q-79 0 -149 -67.5t-116.5 -175t-73.5 -239.5t-27 -262q0 -98 18.5 -173t62.5 -123t109 -48z" />
    <glyph glyph-name="R" unicode="R" horiz-adv-x="1085" 
d="M33 0l4 35l141 28l182 1063l-133 31l9 37h532q145 0 224 -68.5t79 -195.5q0 -269 -248 -357l176 -495l99 -45l-6 -33h-338l-162 532h-82l-80 -469l131 -26l-6 -37h-522zM524 602q122 6 198.5 84.5t76.5 216.5q0 221 -142 221h-45z" />
    <glyph glyph-name="S" unicode="S" horiz-adv-x="870" 
d="M369 -16q-158 0 -312 77l56 326h57l49 -270q50 -37 91.5 -49.5t97.5 -12.5q91 0 162 56t71 165q0 47 -24 84t-62 62t-84.5 49t-93 51t-84.5 60t-62 84t-24 116q0 127 62.5 226.5t163 151.5t216.5 52q191 0 303 -75l-51 -308h-59l-49 271q-32 22 -64 29.5t-86 7.5
q-93 0 -161 -59t-68 -140q0 -49 25 -87t65 -63t88 -48.5t96 -50.5t88 -60.5t65 -86.5t25 -122q0 -88 -27 -161t-74 -123.5t-110.5 -85t-135.5 -50.5t-150 -16z" />
    <glyph glyph-name="T" unicode="T" horiz-adv-x="927" 
d="M174 0l6 37l144 29l178 1058h-176l-166 -303h-54l66 373h940l-65 -373h-52l-69 303h-170l-181 -1056l132 -29l-7 -39h-526z" />
    <glyph glyph-name="U" unicode="U" horiz-adv-x="1132" 
d="M535 -16q-383 0 -383 319q0 16 4 62q0 10 20.5 134.5t54.5 323t52 312.5l-123 20l8 39h512l-6 -37l-125 -22q-35 -197 -79 -464t-44 -278q-6 -47 -6 -86q0 -248 190 -248q77 0 146.5 45t124.5 139.5t77 223.5l107 637l-166 51l6 39h400l-7 -37l-143 -47l-108 -649
q-18 -104 -54.5 -185.5t-84 -135.5t-109 -89.5t-126.5 -51t-138 -15.5z" />
    <glyph glyph-name="V" unicode="V" horiz-adv-x="989" 
d="M365 0l-160 1143l-84 18l8 33h463l-4 -31l-121 -24l106 -881h11l401 850l-147 53l6 33h348l-4 -31l-103 -47l-559 -1116h-161z" />
    <glyph glyph-name="W" unicode="W" horiz-adv-x="1513" 
d="M293 0l-96 1143l-86 18l6 33h475l-4 -31l-133 -26l51 -846h10l383 903h170l100 -903h11l352 815l-152 55l4 33h361l-4 -31l-117 -51l-496 -1112h-172l-94 891h-10l-381 -891h-178z" />
    <glyph glyph-name="X" unicode="X" horiz-adv-x="1028" 
d="M543 0l6 35l121 28l-158 420l-303 -401l149 -45l-4 -37h-393l8 35l121 35l393 489l-217 578l-94 20l6 37h477l-8 -35l-112 -24l139 -369l262 348l-107 43l9 37h350l-8 -35l-156 -55l-322 -408l246 -639l88 -20l-6 -37h-487z" />
    <glyph glyph-name="Y" unicode="Y" horiz-adv-x="950" 
d="M182 0l4 35l150 26l72 410l-220 670l-67 16l6 37h461l-6 -35l-127 -24l166 -549h4l305 528l-160 43l6 37h373l-6 -35l-113 -31l-358 -606l-80 -461l139 -24l-4 -37h-545z" />
    <glyph glyph-name="Z" unicode="Z" horiz-adv-x="915" 
d="M25 0l-7 76l742 1052h-363l-159 -305h-52l64 371h784l6 -59l-766 -1067h416l174 294l56 -6l-86 -356h-809z" />
    <glyph glyph-name="bracketleft" unicode="[" horiz-adv-x="552" 
d="M354 -371h-225l295 1764h223l-12 -76h-146l-270 -1612h146z" />
    <glyph glyph-name="backslash" unicode="\" horiz-adv-x="532" 
d="M362 -178l-129 1538h82l131 -1538h-84z" />
    <glyph glyph-name="bracketright" unicode="]" horiz-adv-x="552" 
d="M354 1393h224l-293 -1764h-224l11 76h145l270 1612h-145z" />
    <glyph glyph-name="asciicircum" unicode="^" horiz-adv-x="897" 
d="M784 496h-84l-229 610l-260 -610h-82l303 698h88z" />
    <glyph glyph-name="underscore" unicode="_" horiz-adv-x="915" 
d="M905 -227h-942l12 86h945z" />
    <glyph glyph-name="grave" unicode="`" horiz-adv-x="821" 
d="M408 1348l153 43l141 -301l-12 -13l-282 244v27z" />
    <glyph glyph-name="a" unicode="a" horiz-adv-x="835" 
d="M440 16l45 265l-268 -287h-131q-23 100 -23 219q0 157 30.5 305.5t96.5 251.5q58 84 125 132t160 48q107 0 219 -59l99 61h30l-141 -833l12 -13l140 107l20 -35l-223 -194zM289 195l22 -9l187 168l69 416q-70 59 -170 82q-46 -94 -75.5 -243t-32.5 -300q-3 -67 0 -114z
" />
    <glyph glyph-name="b" unicode="b" horiz-adv-x="808" 
d="M29 55l215 1268h-123v37l321 80l43 -29l-108 -631q178 170 262 170q56 0 94 -51.5t54 -128t16 -172.5q0 -145 -65 -288t-171.5 -234.5t-218.5 -91.5q-186 0 -319 71zM502 805q-62 -44 -140 -107l-100 -581q65 -45 117 -45t95.5 84.5t66 201t22.5 226.5q0 133 -31 221h-30
z" />
    <glyph glyph-name="c" unicode="c" horiz-adv-x="657" 
d="M608 354l15 -41q-60 -84 -170 -180.5t-230 -148.5l-125 28q-32 103 -32 250q0 310 118 506q124 184 299 184q97 0 222 -51q-4 -105 -68 -196q-73 65 -114.5 92t-119.5 57q-53 -87 -77.5 -230t-24.5 -268q0 -127 14 -196l21 -8q110 51 272 202z" />
    <glyph glyph-name="d" unicode="d" horiz-adv-x="837" 
d="M440 16l43 265l-266 -287h-131q-23 100 -23 219q0 157 30.5 305.5t96.5 251.5q58 84 125 132t160 48q57 0 119 -16l65 389h-147v37l350 80l43 -29l-221 -1276l14 -10l138 90l20 -37l-242 -194zM289 195l20 -9l187 168l69 416q-70 59 -168 82q-47 -97 -77.5 -243
t-30.5 -294v-120z" />
    <glyph glyph-name="e" unicode="e" horiz-adv-x="671" 
d="M604 352l17 -39q-55 -82 -166 -179.5t-232 -149.5l-123 28q-32 103 -32 250q0 322 116 506q126 184 293 184q106 0 234 -71l-2 -201q-66 -60 -179.5 -132.5t-226.5 -127.5q-4 -74 -4 -109q0 -89 12 -151l23 -8q118 67 270 200zM408 854q-75 -123 -101 -373
q114 69 232 181l-2 137q-63 40 -129 55z" />
    <glyph glyph-name="f" unicode="f" horiz-adv-x="606" 
d="M104 834v79h154l31 174q28 164 148.5 264.5t269.5 100.5q75 0 151 -27l-55 -204h-41l-156 151q-55 -64 -86 -272l-31 -187h170l-2 -79h-182l-135 -811q-17 -111 -80.5 -217t-148 -171t-160.5 -65q-109 0 -176 37l45 186q15 -10 52.5 -38.5t53 -38.5t45 -23t60.5 -17
q5 6 9.5 16t9 25t9 30.5t9 38.5t8.5 41.5t9 47.5t8.5 48.5t9 52t8.5 51.5l135 807h-142z" />
    <glyph glyph-name="g" unicode="g" horiz-adv-x="796" 
d="M250 -436q-194 0 -297 61l45 176q62 -34 98 -52t94.5 -36t110.5 -18q37 0 70 8q39 42 98 457l20 127l-272 -293h-131q-23 100 -23 219q0 157 30.5 305.5t96.5 251.5q58 84 125 132t160 48q107 0 219 -59l103 61h22l-155 -960q-18 -108 -73 -204t-145.5 -160t-195.5 -64z
M500 356q38 224 65 414q-72 61 -168 82q-47 -96 -77.5 -246t-30.5 -297v-116l20 -9z" />
    <glyph glyph-name="h" unicode="h" horiz-adv-x="907" 
d="M41 0l225 1323h-135v37l330 80l47 -29l-119 -696q200 237 322 237q51 0 79.5 -66t28.5 -179q0 -86 -18 -191l-70 -395l14 -12l150 108l23 -39l-234 -194l-197 32l82 494q17 134 17 211q0 46 -6 67l-27 11q-71 -44 -176 -158l-109 -641h-227z" />
    <glyph glyph-name="i" unicode="i" horiz-adv-x="514" 
d="M272 -16l-192 32l137 828h-139v37l334 71l45 -20l-135 -811l16 -10l143 106l23 -39zM440 1106l-157 57q26 51 53 120t33 99l176 -32q-52 -171 -105 -244z" />
    <glyph glyph-name="j" unicode="j" horiz-adv-x="499" 
d="M-27 -438l-22 16q94 168 131 391l145 875h-135v37l332 71l45 -20l-156 -934q-20 -120 -117 -234.5t-223 -201.5zM455 1106l-158 57q26 48 53 117.5t33 101.5l176 -32q-51 -167 -104 -244z" />
    <glyph glyph-name="k" unicode="k" horiz-adv-x="866" 
d="M49 0l223 1323h-137v37l336 82l43 -29l-111 -651q139 142 236 188l182 -47q8 -47 8 -96q0 -101 -48.5 -174t-151.5 -129l94 -367l20 -6l129 86l19 -39l-248 -194l-139 30l-76 371l6 31q72 74 125 174.5t53 185.5q0 17 -4 41l-20 10q-72 -29 -201 -155l-113 -672h-225z
" />
    <glyph glyph-name="l" unicode="l" horiz-adv-x="456" 
d="M51 16l215 1307h-137v37l334 82l43 -29l-217 -1298l16 -13l144 115l24 -39l-231 -194z" />
    <glyph glyph-name="m" unicode="m" horiz-adv-x="1353" 
d="M1143 -16l-195 32l80 494q16 98 16 205q0 49 -6 73l-24 11q-73 -42 -172 -150q-2 -46 -17 -133l-90 -516h-221l80 510q18 113 18 207q0 47 -6 71l-24 11q-77 -45 -172 -148l-107 -651h-225l139 844h-139v37l334 71l45 -20l-35 -203q193 223 311 223q53 0 82 -64t29 -175
q97 116 176 177.5t145 61.5q56 0 85.5 -62.5t29.5 -170.5q0 -97 -20 -203l-70 -399l14 -13l148 111l20 -37z" />
    <glyph glyph-name="n" unicode="n" horiz-adv-x="923" 
d="M709 -16l-197 32l80 494q16 106 16 209q0 51 -4 65l-29 11q-65 -37 -165 -142l-107 -653h-225l139 844h-139v37l334 71l45 -20l-33 -201q188 221 309 221q51 0 80 -66t29 -179q0 -80 -19 -191l-69 -395l14 -12l150 108l22 -39z" />
    <glyph glyph-name="o" unicode="o" horiz-adv-x="804" 
d="M328 -16q-120 0 -190 94t-70 235q0 116 29.5 227.5t84.5 204.5t144.5 150t199.5 57q125 0 201 -90t76 -250q0 -85 -20.5 -172t-61 -166.5t-96.5 -143t-133 -103t-164 -43.5zM393 51q77 68 121.5 234t46.5 323v64q0 132 -14 184q-41 25 -88 27q-71 -62 -110.5 -224
t-41.5 -319q0 -213 12 -262q28 -24 74 -27z" />
    <glyph glyph-name="p" unicode="p" horiz-adv-x="843" 
d="M-106 -424l4 29l98 37l172 1001q-17 -9 -35.5 -19t-36.5 -21t-26 -15l-7 49q56 38 115 74l35 198l240 58l-19 -109q170 92 240 92q56 0 94 -51.5t54 -128t16 -172.5q0 -100 -33 -205.5t-90 -194.5t-142.5 -148.5t-181.5 -65.5q-55 0 -110 10l-62 -344l125 -43l-4 -31
h-446zM524 815q-5 -1 -106 -43l-115 -653q64 -47 123 -47q33 0 73 72.5t68.5 188t28.5 222.5q0 170 -37 260h-35z" />
    <glyph glyph-name="q" unicode="q" horiz-adv-x="794" 
d="M682 -424h-436l4 29l121 43l108 626l-262 -280h-131q-23 100 -23 219q0 157 30.5 305.5t96.5 251.5q58 84 125 132t160 48q107 0 219 -59l103 61h22l-221 -1312l88 -33zM397 852q-107 -206 -110 -555q0 -73 2 -104l20 -9l183 164l71 424q-70 57 -166 80z" />
    <glyph glyph-name="r" unicode="r" horiz-adv-x="659" 
d="M303 0h-225l139 844h-139v37l328 71l51 -20l-31 -182q141 202 203 202q54 0 108 -65l-106 -215l-90 112q-78 -55 -127 -110z" />
    <glyph glyph-name="s" unicode="s" horiz-adv-x="700" 
d="M668 612h-45l-41 191q-35 13 -83 23t-77 10q-50 0 -84.5 -26t-34.5 -60q0 -21 9 -41t33.5 -45.5t39 -39t55.5 -47.5t54 -45q76 -63 118.5 -121t42.5 -126q0 -70 -58.5 -141.5t-143.5 -115.5t-160 -44q-159 0 -264 57l53 313h43l47 -219q87 -43 199 -43q45 0 69.5 24
t24.5 60q0 22 -10.5 45t-34.5 48.5t-43.5 43.5t-56.5 49q-9 7 -13 11q-52 47 -82 79t-57 83.5t-27 103.5q0 42 31 96t79.5 102t118 81.5t138.5 33.5q95 0 211 -55z" />
    <glyph glyph-name="t" unicode="t" horiz-adv-x="628" 
d="M78 834l8 45l147 28l150 275h109l-43 -269h217l-15 -79h-215l-108 -687l14 -12q120 68 242 160l20 -31q-54 -65 -161.5 -157.5t-190.5 -122.5l-164 41l125 809h-135z" />
    <glyph glyph-name="u" unicode="u" horiz-adv-x="917" 
d="M711 -16l-201 32l31 193q-194 -225 -332 -225q-48 0 -73 56t-25 157q0 100 20 211l68 436h-142v37l342 71l43 -20l-80 -506q-28 -176 -18 -279l27 -10q90 48 182 152l90 555h-106v37l305 71l45 -20l-133 -815l16 -15l143 115l23 -39z" />
    <glyph glyph-name="v" unicode="v" horiz-adv-x="780" 
d="M842 932v-60l-414 -872h-217q-39 148 -65 396.5t-23 447.5h-96v37l315 71l45 -10q-16 -112 -16 -274q0 -270 43 -525h20l195 473l2 316h211z" />
    <glyph glyph-name="w" unicode="w" horiz-adv-x="1239" 
d="M674 0q-44 167 -64 414l-166 -414h-229q-40 148 -67 398.5t-23 445.5h-94v37l311 71l47 -8q-14 -120 -14 -276q0 -288 43 -525h18l164 416q-6 141 -6 277v82l266 32q-20 -167 -20 -336q0 -264 39 -471h18l184 473l6 316h211l-2 -60l-403 -872h-219z" />
    <glyph glyph-name="x" unicode="x" horiz-adv-x="845" 
d="M870 932l-2 -49l-323 -355l135 -419l16 -5l144 86l16 -36l-229 -170l-150 22l-108 330l-97 -107l-55 -229h-199v53l330 350l-141 441h-115v35l275 73l45 -12l112 -348l86 92l66 248h194z" />
    <glyph glyph-name="y" unicode="y" horiz-adv-x="782" 
d="M842 932v-60l-346 -745l-215 -551h-191l-2 31l266 393h-135q-40 153 -69.5 401.5t-26.5 442.5h-96v37l315 71l45 -10q-14 -104 -14 -237q0 -263 51 -562h18l187 473l2 316h211z" />
    <glyph glyph-name="z" unicode="z" horiz-adv-x="710" 
d="M68 -10l-50 10l-12 39l518 690l-10 8q-62 -16 -158 -16q-92 0 -178 18l-63 -116l-41 6l49 299l51 24q211 -22 322 -22q137 0 204 22l50 -61l-492 -655l6 -23l336 -10l66 145l49 -6l-74 -336l-51 -22l-475 65z" />
    <glyph glyph-name="braceleft" unicode="{" horiz-adv-x="571" 
d="M438 -344l-43 -4q-119 -8 -194.5 39.5t-75.5 156.5q0 42 12 91l96 380q16 62 -7 115t-87 66l8 61q67 14 109.5 67t48.5 117l33 392q14 133 107 200.5t227 65.5h57l-10 -76h-47q-103 0 -171.5 -51t-78.5 -146l-29 -366q-7 -84 -40.5 -139t-125.5 -93q99 -37 99 -149
q0 -34 -11 -80l-96 -371q-22 -92 28 -148t156 -56h48z" />
    <glyph glyph-name="bar" unicode="|" horiz-adv-x="417" 
d="M207 -186h-80l262 1562h80z" />
    <glyph glyph-name="braceright" unicode="}" horiz-adv-x="571" 
d="M295 1389l43 4q119 8 194.5 -40t75.5 -157q0 -40 -12 -90l-98 -381q-15 -63 8 -115t88 -65l-10 -62q-66 -14 -108 -67t-50 -117l-31 -391q-18 -133 -110 -200.5t-224 -65.5h-59l12 75h47q102 0 169 51t79 146l31 367q3 53 15 90.5t49 76t100 64.5q-96 37 -96 150
q0 37 10 79l94 371q23 91 -27 148t-157 57h-47z" />
    <glyph glyph-name="asciitilde" unicode="~" horiz-adv-x="817" 
d="M743 676l41 -53q-92 -107 -202 -107q-55 0 -111.5 25t-111.5 50t-105 25q-21 0 -39.5 -4t-37 -14t-27.5 -15t-29 -20t-21 -16l-32 51q95 100 200 100q54 0 100.5 -15.5t75 -34.5t70 -34.5t86.5 -15.5q10 0 20.5 2t18 4t19 8.5t16.5 9.5t18 12.5t16 12l18 15t17 14.5z" />
    <glyph glyph-name="uni00A0" unicode="&#xa0;" horiz-adv-x="421" 
 />
    <glyph glyph-name="exclamdown" unicode="&#xa1;" horiz-adv-x="473" 
d="M86 -295v66l219 757h37l-29 -823h-227zM246 731q68 139 82 209q52 4 108 -5t84 -24q-49 -162 -98 -229q-42 0 -93 13.5t-83 35.5z" />
    <glyph glyph-name="cent" unicode="&#xa2;" horiz-adv-x="673" 
d="M608 354l15 -41q-91 -123 -232 -231l-41 -240h-55l33 197q-47 -28 -105 -55l-125 28q-32 103 -32 250q0 310 118 506q124 184 299 184l25 144h57l-26 -148q85 -14 166 -47q-4 -105 -68 -196q-86 73 -123 96l-104 -608q76 52 198 161zM315 160l21 -8l12 6l115 671l-60 25
q-53 -87 -77.5 -230t-24.5 -268q0 -127 14 -196z" />
    <glyph glyph-name="sterling" unicode="&#xa3;" horiz-adv-x="940" 
d="M98 535l11 73h100q0 70 2 109q3 139 58.5 252.5t149 177t204.5 63.5q160 0 286 -88l-53 -313h-47l-57 278q-58 37 -115 37q-74 0 -117 -71.5t-45 -180.5q-5 -198 -12 -264h207l-11 -73h-206q-35 -215 -131 -359l407 -18l131 204l45 -12l-96 -350l-84 -16l-455 65l-32 -65
h-144l-24 43q65 109 95 229.5t40 278.5h-107z" />
    <glyph glyph-name="currency" unicode="&#xa4;" horiz-adv-x="884" 
d="M154 199l-54 59l129 137q-26 34 -41.5 86.5t-15.5 108.5q0 130 66 211l-125 139l53 57l123 -139q86 70 190 70q107 0 185 -66l124 137l56 -61l-127 -137q59 -68 59 -201q0 -58 -20 -114.5t-49 -92.5l122 -139l-51 -59l-125 139q-85 -62 -186 -62q-111 0 -184 64zM467 412
q78 0 117 53t39 135q0 83 -35 134.5t-113 51.5q-76 0 -116 -53t-40 -133q0 -83 36.5 -135.5t111.5 -52.5z" />
    <glyph glyph-name="yen" unicode="&#xa5;" horiz-adv-x="950" 
d="M176 0l4 35l150 26l49 281h-248l12 66h246l12 63l-36 113h-211l12 65h176l-160 492l-67 16l6 37h461l-7 -35l-126 -24l165 -549h4l306 528l-160 43l6 37h373l-6 -35l-113 -31l-285 -479h217l-12 -65h-244l-34 -62l-21 -114h281l-13 -66h-280l-47 -281l139 -24l-4 -37
h-545z" />
    <glyph glyph-name="brokenbar" unicode="&#xa6;" horiz-adv-x="419" 
d="M283 -188h-82v594h82v-594zM283 1382v-579h-82v579h82z" />
    <glyph glyph-name="section" unicode="&#xa7;" horiz-adv-x="749" 
d="M188 -193q-82 0 -149 33l35 142h39q95 -43 176 -43q86 0 164 59l-228 393q-48 86 -66 161t-16 163q0 131 71.5 247.5t185.5 184t237 67.5q81 0 149 -32l-36 -146h-41q-88 43 -174 43q-85 0 -166 -61l229 -385q50 -90 70 -165t18 -157q0 -98 -43.5 -192t-113 -161.5
t-160 -109t-181.5 -41.5zM575 133q13 73 13 131q-5 164 -101 357l-182 335q-40 -51 -53 -73q-12 -49 -12 -127q6 -179 100 -353l180 -346q31 36 55 76z" />
    <glyph glyph-name="dieresis" unicode="&#xa8;" horiz-adv-x="604" 
d="M256 1147l-127 47q61 103 76 192l149 -22q-53 -153 -98 -217zM575 1147l-126 47q59 101 75 192l150 -22q-52 -150 -99 -217z" />
    <glyph glyph-name="copyright" unicode="&#xa9;" horiz-adv-x="1413" 
d="M1057 737h-35l-84 170q-61 25 -102 25q-68 0 -117.5 -47.5t-72.5 -121.5t-23 -163q0 -147 55.5 -240.5t161.5 -93.5q78 0 127.5 47t72.5 111h17v-143q-123 -70 -246 -70q-77 0 -146 22.5t-125.5 66.5t-90 116.5t-33.5 165.5q0 192 115 294.5t292 102.5q76 0 139.5 -16
t94.5 -37v-189zM197 592q0 126 46.5 241t125.5 198t188 132t229 49q159 0 294.5 -83t214.5 -226t79 -311t-79 -311t-214.5 -226.5t-294.5 -83.5q-160 0 -296 83.5t-214.5 226.5t-78.5 311zM252 592q0 -152 72 -283t195 -208.5t267 -77.5t267 77.5t194.5 208.5t71.5 283
q0 113 -42.5 217.5t-114 181t-170 122.5t-206.5 46q-144 0 -267 -77t-195 -208t-72 -282z" />
    <glyph glyph-name="ordfeminine" unicode="&#xaa;" horiz-adv-x="696" 
d="M410 799l32 184l-209 -201h-102q-20 67 -20 168q2 108 28 215t68 164q45 60 96.5 93.5t126.5 33.5q70 0 168 -43l70 43h18l-104 -592l12 -8l127 90l14 -24l-188 -146zM270 909l15 -8l168 133l53 291q-73 49 -158 61q-30 -49 -55.5 -156.5t-26.5 -203.5q0 -67 4 -117z
M88 651v49h602v-49h-602z" />
    <glyph glyph-name="guillemotleft" unicode="&#xab;" horiz-adv-x="784" 
d="M317 94l-202 369l323 366h47l-194 -366l71 -369h-45zM621 94l-203 369l323 366h47l-194 -366l72 -369h-45z" />
    <glyph glyph-name="logicalnot" unicode="&#xac;" horiz-adv-x="919" 
d="M860 205h-92v370h-629v87h721v-457z" />
    <glyph glyph-name="registered" unicode="&#xae;" horiz-adv-x="843" 
d="M528 549q-155 0 -259.5 109t-104.5 272t104.5 273t259.5 110q154 0 258.5 -110t104.5 -273q0 -162 -104.5 -271.5t-258.5 -109.5zM528 590q139 0 223.5 98t84.5 242q0 141 -88.5 240.5t-219.5 99.5q-133 0 -221 -99t-88 -241t88 -241t221 -99zM334 743v9l53 20v336
l-53 18v13h231q64 0 106 -30t42 -85q0 -38 -17.5 -61t-54.5 -37l82 -150l37 -20v-13h-148l-77 166h-23v-137l45 -18v-11h-223zM518 1108h-6v-176q38 0 60 23t22 69q0 81 -76 84z" />
    <glyph glyph-name="macron" unicode="&#xaf;" horiz-adv-x="616" 
d="M647 1210h-381l15 54h381z" />
    <glyph glyph-name="degree" unicode="&#xb0;" horiz-adv-x="638" 
d="M678 942q0 -107 -74 -187.5t-194 -80.5t-189 77.5t-69 188.5q0 108 75 188t195 80q118 0 187 -77.5t69 -188.5zM561 942q0 93 -36.5 150t-110.5 57q-73 0 -109.5 -58t-36.5 -153q0 -92 38 -150.5t112 -58.5q71 0 107 59.5t36 153.5z" />
    <glyph glyph-name="plusminus" unicode="&#xb1;" horiz-adv-x="927" 
d="M897 96h-747v84h747v-84zM563 721h334v-84h-334v-336h-82v336h-331v84h331v340h82v-340z" />
    <glyph glyph-name="twosuperior" unicode="&#xb2;" horiz-adv-x="538" 
d="M520 958v-32l-49 -109h-410l-22 43q125 105 223 223t131 193q-63 72 -164 72q-54 0 -110 -29l-10 18q44 55 97.5 90t106.5 35q101 0 158 -45t57 -114q0 -75 -79 -157.5t-234 -187.5h305z" />
    <glyph glyph-name="threesuperior" unicode="&#xb3;" horiz-adv-x="509" 
d="M61 965h19q115 -47 194 -47q38 0 76 22t51 53q-27 41 -83.5 77t-116.5 54l6 45q107 37 178 101q-14 33 -61.5 56.5t-100.5 23.5q-66 0 -108 -29l-17 18q40 53 102.5 88t127.5 35q83 0 135.5 -39t52.5 -104q0 -77 -166 -139v-4q65 -15 110.5 -57t45.5 -89q0 -50 -59 -103
t-136 -85.5t-133 -32.5q-98 0 -158 29z" />
    <glyph glyph-name="acute" unicode="&#xb4;" horiz-adv-x="831" 
d="M561 1391l154 -43v-27l-285 -244l-10 13z" />
    <glyph glyph-name="mu" unicode="&#xb5;" horiz-adv-x="888" 
d="M-41 -424l227 1356h211l-94 -563q-23 -153 -12 -203l24 -10q93 46 201 166l102 610h220l-142 -797l17 -14l131 110l24 -41l-227 -206l-176 32l39 222q-206 -254 -344 -254q-48 0 -72 55l-16 -12q45 -75 74.5 -177.5t15.5 -195.5l-10 -78h-193z" />
    <glyph glyph-name="paragraph" unicode="&#xb6;" horiz-adv-x="1134" 
d="M567 307q-177 6 -284 104t-107 265q0 159 76.5 278.5t199.5 179.5t273 60h563l-10 -45l-176 -23l-260 -1550h-90l266 1542h-152l-266 -1542h-158z" />
    <glyph glyph-name="periodcentered" unicode="&#xb7;" horiz-adv-x="243" 
d="M170 512l-131 41q60 114 74 184l149 -18q-43 -143 -92 -207z" />
    <glyph glyph-name="cedilla" unicode="&#xb8;" horiz-adv-x="499" 
d="M190 -451q-37 0 -82.5 8t-68.5 21l35 111q89 -49 174 -49q52 0 96 20q-12 24 -30.5 46.5t-51 48t-47.5 36.5t-55 39l4 23l158 194l59 4l-113 -143q68 -57 107 -105.5t39 -97.5q0 -52 -66.5 -104t-157.5 -52z" />
    <glyph glyph-name="onesuperior" unicode="&#xb9;" horiz-adv-x="458" 
d="M324 1456h94l-103 -592l111 -20l-4 -27h-395l4 25l116 22l84 496h-127l5 22z" />
    <glyph glyph-name="ordmasculine" unicode="&#xba;" horiz-adv-x="759" 
d="M88 651v49h610v-49h-610zM422 829q65 48 106 166t41 224q0 124 -18 172q-45 18 -84 18q-60 -43 -96.5 -157.5t-36.5 -221.5q-4 -128 18 -184q26 -17 70 -17zM356 780q-98 0 -151 68t-53 172q2 118 46 216.5t129.5 160t198.5 61.5q106 0 165.5 -64.5t58.5 -183.5
q-2 -113 -50 -209.5t-138.5 -157.5t-205.5 -63z" />
    <glyph glyph-name="guillemotright" unicode="&#xbb;" horiz-adv-x="786" 
d="M240 836l202 -369l-323 -367h-47l194 367l-71 369h45zM547 836l203 -369l-324 -367h-47l194 367l-71 369h45z" />
    <glyph glyph-name="onequarter" unicode="&#xbc;" horiz-adv-x="1372" 
d="M987 -8l23 145h-248l-8 82l374 420h138l-66 -393h103v-25l-39 -84h-80l-25 -145h-172zM385 1200h94l-102 -592l110 -20l-4 -27h-395l4 25l117 22l84 496h-127l4 22zM324 -16l-52 26l777 1141l55 -29zM838 246h190l43 254z" />
    <glyph glyph-name="onehalf" unicode="&#xbd;" horiz-adv-x="1355" 
d="M1282 141v-32l-49 -109h-410l-22 43q125 105 223 223t131 193q-62 71 -164 71q-56 0 -110 -28l-11 18q44 54 98 89.5t107 35.5q101 0 158 -45.5t57 -114.5q0 -75 -78.5 -156.5t-234.5 -187.5h305zM385 1200h94l-102 -592l110 -20l-4 -27h-395l4 25l117 22l84 496h-127
l4 22zM324 -16l-52 26l777 1141l55 -29z" />
    <glyph glyph-name="threequarters" unicode="&#xbe;" horiz-adv-x="1370" 
d="M127 707h18q118 -48 195 -48q38 0 75.5 22.5t51.5 53.5q-27 41 -84 77t-117 54l6 45q109 38 179 101q-14 33 -61.5 56.5t-100.5 23.5q-67 0 -109 -29l-16 18q40 53 102 88t127 35q83 0 136 -39t53 -104q0 -77 -166 -139v-4q65 -15 110 -57t45 -89q0 -50 -59 -103
t-135.5 -85.5t-132.5 -32.5q-98 0 -158 29zM338 -16l-51 26l776 1141l55 -29zM985 -8l23 145h-248l-8 82l374 420h138l-66 -393h102v-25l-38 -84h-80l-25 -145h-172zM836 246h190l43 254z" />
    <glyph glyph-name="questiondown" unicode="&#xbf;" horiz-adv-x="630" 
d="M78 -4q0 49 39 107.5t106 109.5q72 55 149 122t97 95q-3 26 -12 64t-11 51l41 8q3 -4 15.5 -19.5t17.5 -22t17 -22t17.5 -24.5t14 -23.5t13 -24.5t7.5 -22t3 -22q0 -36 -56.5 -94t-127.5 -109.5t-148 -110.5t-104 -90q46 -54 165.5 -81t233.5 -31q0 -47 -22.5 -90
t-61.5 -64q-85 1 -177 44t-154 112t-62 137zM403 731q68 139 82 209q52 4 108.5 -5t84.5 -24q-49 -162 -98 -229q-42 0 -93.5 13.5t-83.5 35.5z" />
    <glyph glyph-name="Agrave" unicode="&#xc0;" horiz-adv-x="1058" 
d="M-45 0l6 35l113 47l655 1112h135l121 -1141l72 -16l-8 -37h-465l4 35l127 22l-27 353h-340l-184 -324l172 -49l-6 -37h-375zM385 471h299l-31 453h-10zM500 1444l84 100l305 -246l-8 -20l-381 139v27z" />
    <glyph glyph-name="Aacute" unicode="&#xc1;" horiz-adv-x="1058" 
d="M-45 0l6 35l113 47l655 1112h135l121 -1141l72 -16l-8 -37h-465l4 35l127 22l-27 353h-340l-184 -324l172 -49l-6 -37h-375zM385 471h299l-31 453h-10zM1022 1544l84 -100v-27l-379 -139l-10 16z" />
    <glyph glyph-name="Acircumflex" unicode="&#xc2;" horiz-adv-x="1058" 
d="M-45 0l6 35l113 47l655 1112h135l121 -1141l72 -16l-8 -37h-465l4 35l127 22l-27 353h-340l-184 -324l172 -49l-6 -37h-375zM385 471h299l-31 453h-10zM840 1530h63l154 -240l-33 -24l-188 141l-258 -145l-17 26z" />
    <glyph glyph-name="Atilde" unicode="&#xc3;" horiz-adv-x="1058" 
d="M-45 0l6 35l113 47l655 1112h135l121 -1141l72 -16l-8 -37h-465l4 35l127 22l-27 353h-340l-184 -324l172 -49l-6 -37h-375zM385 471h299l-31 453h-10zM1081 1481l29 -25l-147 -149h-43l-291 57l-58 -47l-22 24l139 138l49 4l283 -60z" />
    <glyph glyph-name="Adieresis" unicode="&#xc4;" horiz-adv-x="1058" 
d="M-45 0l6 35l113 47l655 1112h135l121 -1141l72 -16l-8 -37h-465l4 35l127 22l-27 353h-340l-184 -324l172 -49l-6 -37h-375zM385 471h299l-31 453h-10zM676 1278l-129 45q28 47 48.5 101.5t27.5 91.5l149 -21q-53 -153 -96 -217zM1016 1278l-127 45q53 90 76 193l149 -21
q-48 -149 -98 -217z" />
    <glyph glyph-name="Aring" unicode="&#xc5;" horiz-adv-x="1058" 
d="M-45 0l6 35l113 47l655 1112h135l121 -1141l72 -16l-8 -37h-465l4 35l127 22l-27 353h-340l-184 -324l172 -49l-6 -37h-375zM385 471h299l-31 453h-10zM813 1311q55 0 94 38t39 91q0 51 -28.5 76.5t-77.5 25.5q-55 0 -92 -36t-37 -91q0 -53 30 -78.5t72 -25.5zM809 1272
q-59 0 -101 37t-42 106q0 67 55 116.5t123 49.5q62 0 103.5 -38t41.5 -103q0 -67 -55 -117.5t-125 -50.5z" />
    <glyph glyph-name="AE" unicode="&#xc6;" horiz-adv-x="1460" 
d="M504 0l4 35l156 28l69 418h-303l-254 -399l152 -49l-6 -33h-369l6 31l125 51l717 1112h737l-53 -307h-60l-59 241h-268l-82 -487l350 23l-18 -101l-342 19l-86 -514h274l188 272l52 -10l-97 -330h-833zM823 1102l-352 -555h274l93 555h-15z" />
    <glyph glyph-name="Ccedilla" unicode="&#xc7;" 
d="M477 -461q-37 0 -82.5 8t-68.5 21l34 110q89 -49 175 -49q49 0 96 21q-15 31 -51.5 66.5t-58 51t-75.5 52.5l5 22l114 142q-215 6 -347 120t-132 330q0 172 57.5 318.5t156 247t232.5 156.5t285 56q168 0 305 -67l-51 -316h-61l-72 285q-53 35 -133 35q-104 0 -189 -58.5
t-137 -155.5t-80 -217t-28 -249q0 -89 15 -162.5t46.5 -132t86 -91t128.5 -32.5q88 0 163.5 60.5t109.5 138.5h51l-33 -184q-48 -27 -134.5 -52.5t-180.5 -29.5l-68 -86q67 -57 106 -105.5t39 -97.5q0 -52 -66 -104t-157 -52z" />
    <glyph glyph-name="Egrave" unicode="&#xc8;" horiz-adv-x="989" 
d="M469 1444l84 100l305 -246l-8 -20l-381 139v27zM33 0l4 37l143 26l180 1065l-133 27l6 39h834l-51 -307h-55l-68 239h-281l-84 -493l349 18l-15 -98l-342 18l-88 -501h281l207 266l45 -6l-101 -330h-831z" />
    <glyph glyph-name="Eacute" unicode="&#xc9;" horiz-adv-x="989" 
d="M924 1544l84 -100v-27l-379 -139l-11 16zM33 0l4 37l143 26l180 1065l-133 27l6 39h834l-51 -307h-55l-68 239h-281l-84 -493l349 18l-15 -98l-342 18l-88 -501h281l207 266l45 -6l-101 -330h-831z" />
    <glyph glyph-name="Ecircumflex" unicode="&#xca;" horiz-adv-x="989" 
d="M33 0l4 37l143 26l180 1065l-133 27l6 39h834l-51 -307h-55l-68 239h-281l-84 -493l349 18l-15 -98l-342 18l-88 -501h281l207 266l45 -6l-101 -330h-831zM788 1530h64l154 -240l-33 -24l-189 141l-258 -145l-16 26z" />
    <glyph glyph-name="Edieresis" unicode="&#xcb;" horiz-adv-x="989" 
d="M596 1280l-129 45q28 47 48.5 101.5t27.5 91.5l149 -21q-53 -153 -96 -217zM936 1280l-127 45q53 90 76 193l149 -21q-48 -149 -98 -217zM33 0l4 37l143 26l180 1065l-133 27l6 39h834l-51 -307h-55l-68 239h-281l-84 -493l349 18l-15 -98l-342 18l-88 -501h281l207 266
l45 -6l-101 -330h-831z" />
    <glyph glyph-name="Igrave" unicode="&#xcc;" horiz-adv-x="673" 
d="M49 0l4 37l142 24l182 1072l-133 22l6 39h524l-6 -37l-137 -24l-185 -1070l132 -24l-5 -39h-524zM291 1444l84 100l305 -246l-8 -20l-381 139v27z" />
    <glyph glyph-name="Iacute" unicode="&#xcd;" horiz-adv-x="673" 
d="M49 0l4 37l142 24l182 1072l-133 22l6 39h524l-6 -37l-137 -24l-185 -1070l132 -24l-5 -39h-524zM655 1544l84 -100v-27l-379 -139l-10 16z" />
    <glyph glyph-name="Icircumflex" unicode="&#xce;" horiz-adv-x="673" 
d="M49 0l4 37l142 24l182 1072l-133 22l6 39h524l-6 -37l-137 -24l-185 -1070l132 -24l-5 -39h-524zM555 1528h63l154 -240l-33 -24l-188 141l-258 -145l-17 26z" />
    <glyph glyph-name="Idieresis" unicode="&#xcf;" horiz-adv-x="673" 
d="M49 0l4 37l142 24l182 1072l-133 22l6 39h524l-6 -37l-137 -24l-185 -1070l132 -24l-5 -39h-524zM383 1280l-129 45q28 47 48.5 101.5t27.5 91.5l149 -21q-53 -153 -96 -217zM723 1280l-127 45q53 90 76 193l149 -21q-48 -149 -98 -217z" />
    <glyph glyph-name="Eth" unicode="&#xd0;" horiz-adv-x="1183" 
d="M162 569l12 70h105l83 494l-135 22l6 39h506q510 0 510 -418q0 -220 -91 -397.5t-251.5 -278t-359.5 -100.5h-514l4 37l143 26l86 506h-104zM678 1126h-66l-84 -487h154l-12 -70h-154l-86 -497h80q205 0 332 180t127 498q0 179 -67.5 277.5t-223.5 98.5z" />
    <glyph glyph-name="Ntilde" unicode="&#xd1;" horiz-adv-x="1218" 
d="M1100 1481l28 -25l-147 -149h-43l-291 57l-57 -47l-23 24l140 138l49 4l282 -60zM10 0l4 35l144 49l174 1012l-127 61l4 37h334l430 -801h6l125 707l-186 57l6 37h417l-6 -35l-147 -51l-195 -1124h-104l-490 956h-8l-145 -848l198 -55l-6 -37h-428z" />
    <glyph glyph-name="Ograve" unicode="&#xd2;" horiz-adv-x="1118" 
d="M463 1444l84 100l305 -246l-8 -20l-381 139v27zM1182 754q-2 -113 -34 -225.5t-91.5 -210t-138.5 -172.5t-182.5 -118.5t-215.5 -43.5q-202 0 -318 123.5t-116 330.5q0 200 85 377t239.5 287t341.5 110q210 0 320 -119.5t110 -338.5zM555 55q78 0 144.5 64t110.5 169.5
t68.5 240t24.5 276.5q0 73 -10 133.5t-30.5 106.5t-54 72t-77.5 26q-79 0 -149 -67.5t-116.5 -175t-73.5 -239.5t-27 -262q0 -98 18.5 -173t62.5 -123t109 -48z" />
    <glyph glyph-name="Oacute" unicode="&#xd3;" horiz-adv-x="1118" 
d="M965 1544l84 -100v-27l-379 -139l-11 16zM1182 754q-2 -113 -34 -225.5t-91.5 -210t-138.5 -172.5t-182.5 -118.5t-215.5 -43.5q-202 0 -318 123.5t-116 330.5q0 200 85 377t239.5 287t341.5 110q210 0 320 -119.5t110 -338.5zM555 55q78 0 144.5 64t110.5 169.5
t68.5 240t24.5 276.5q0 73 -10 133.5t-30.5 106.5t-54 72t-77.5 26q-79 0 -149 -67.5t-116.5 -175t-73.5 -239.5t-27 -262q0 -98 18.5 -173t62.5 -123t109 -48z" />
    <glyph glyph-name="Ocircumflex" unicode="&#xd4;" horiz-adv-x="1118" 
d="M1182 754q-2 -113 -34 -225.5t-91.5 -210t-138.5 -172.5t-182.5 -118.5t-215.5 -43.5q-202 0 -318 123.5t-116 330.5q0 200 85 377t239.5 287t341.5 110q210 0 320 -119.5t110 -338.5zM555 55q78 0 144.5 64t110.5 169.5t68.5 240t24.5 276.5q0 73 -10 133.5t-30.5 106.5
t-54 72t-77.5 26q-79 0 -149 -67.5t-116.5 -175t-73.5 -239.5t-27 -262q0 -98 18.5 -173t62.5 -123t109 -48zM817 1530h64l153 -240l-33 -24l-188 141l-258 -145l-16 26z" />
    <glyph glyph-name="Otilde" unicode="&#xd5;" horiz-adv-x="1118" 
d="M1034 1479l29 -25l-148 -149h-43l-290 57l-58 -47l-22 24l139 138l49 4l283 -60zM1182 754q-2 -113 -34 -225.5t-91.5 -210t-138.5 -172.5t-182.5 -118.5t-215.5 -43.5q-202 0 -318 123.5t-116 330.5q0 200 85 377t239.5 287t341.5 110q210 0 320 -119.5t110 -338.5z
M555 55q78 0 144.5 64t110.5 169.5t68.5 240t24.5 276.5q0 73 -10 133.5t-30.5 106.5t-54 72t-77.5 26q-79 0 -149 -67.5t-116.5 -175t-73.5 -239.5t-27 -262q0 -98 18.5 -173t62.5 -123t109 -48z" />
    <glyph glyph-name="Odieresis" unicode="&#xd6;" horiz-adv-x="1118" 
d="M623 1278l-129 45q58 98 75 193l150 -21q-53 -153 -96 -217zM963 1278l-127 45q51 87 75 193l150 -21q-48 -149 -98 -217zM1182 754q-2 -113 -34 -225.5t-91.5 -210t-138.5 -172.5t-182.5 -118.5t-215.5 -43.5q-202 0 -318 123.5t-116 330.5q0 200 85 377t239.5 287
t341.5 110q210 0 320 -119.5t110 -338.5zM555 55q78 0 144.5 64t110.5 169.5t68.5 240t24.5 276.5q0 73 -10 133.5t-30.5 106.5t-54 72t-77.5 26q-79 0 -149 -67.5t-116.5 -175t-73.5 -239.5t-27 -262q0 -98 18.5 -173t62.5 -123t109 -48z" />
    <glyph glyph-name="multiply" unicode="&#xd7;" horiz-adv-x="1009" 
d="M895 911l-289 -301l291 -305l-57 -61l-291 305l-287 -305l-61 59l291 305l-283 299l57 62l285 -299l285 301z" />
    <glyph glyph-name="Oslash" unicode="&#xd8;" horiz-adv-x="1118" 
d="M1182 754q-2 -113 -34 -225.5t-91.5 -210t-138.5 -172.5t-182.5 -118.5t-215.5 -43.5q-178 0 -293 98l-88 -98h-84l129 143q-98 121 -98 311q0 200 85 377t239.5 287t341.5 110q201 0 313 -112l102 112h82l-145 -161q78 -116 78 -297zM365 399q0 -46 2 -69l530 583
q-14 107 -55.5 168.5t-110.5 61.5q-79 0 -149 -67.5t-116.5 -175t-73.5 -239.5t-27 -262zM555 55q78 0 144.5 64t110.5 169.5t68.5 240t24.5 276.5v22l-524 -579q42 -193 176 -193z" />
    <glyph glyph-name="Ugrave" unicode="&#xd9;" horiz-adv-x="1132" 
d="M479 1444l84 100l305 -246l-8 -20l-381 139v27zM535 -16q-383 0 -383 319q0 16 4 62q0 10 20.5 134.5t54.5 323t52 312.5l-123 20l8 39h512l-6 -37l-125 -22q-35 -197 -79 -464t-44 -278q-6 -47 -6 -86q0 -248 190 -248q77 0 146.5 45t124.5 139.5t77 223.5l107 637
l-166 51l6 39h400l-7 -37l-143 -47l-108 -649q-18 -104 -54.5 -185.5t-84 -135.5t-109 -89.5t-126.5 -51t-138 -15.5z" />
    <glyph glyph-name="Uacute" unicode="&#xda;" horiz-adv-x="1132" 
d="M1022 1544l84 -100v-27l-379 -139l-10 16zM535 -16q-383 0 -383 319q0 16 4 62q0 10 20.5 134.5t54.5 323t52 312.5l-123 20l8 39h512l-6 -37l-125 -22q-35 -197 -79 -464t-44 -278q-6 -47 -6 -86q0 -248 190 -248q77 0 146.5 45t124.5 139.5t77 223.5l107 637l-166 51
l6 39h400l-7 -37l-143 -47l-108 -649q-18 -104 -54.5 -185.5t-84 -135.5t-109 -89.5t-126.5 -51t-138 -15.5z" />
    <glyph glyph-name="Ucircumflex" unicode="&#xdb;" horiz-adv-x="1132" 
d="M535 -16q-383 0 -383 319q0 16 4 62q0 10 20.5 134.5t54.5 323t52 312.5l-123 20l8 39h512l-6 -37l-125 -22q-35 -197 -79 -464t-44 -278q-6 -47 -6 -86q0 -248 190 -248q77 0 146.5 45t124.5 139.5t77 223.5l107 637l-166 51l6 39h400l-7 -37l-143 -47l-108 -649
q-18 -104 -54.5 -185.5t-84 -135.5t-109 -89.5t-126.5 -51t-138 -15.5zM825 1528h64l153 -240l-32 -24l-189 141l-258 -145l-16 26z" />
    <glyph glyph-name="Udieresis" unicode="&#xdc;" horiz-adv-x="1132" 
d="M647 1278l-129 45q28 47 48.5 101.5t27.5 91.5l149 -21q-53 -153 -96 -217zM987 1278l-127 45q53 90 76 193l149 -21q-48 -149 -98 -217zM535 -16q-383 0 -383 319q0 16 4 62q0 10 20.5 134.5t54.5 323t52 312.5l-123 20l8 39h512l-6 -37l-125 -22q-35 -197 -79 -464
t-44 -278q-6 -47 -6 -86q0 -248 190 -248q77 0 146.5 45t124.5 139.5t77 223.5l107 637l-166 51l6 39h400l-7 -37l-143 -47l-108 -649q-18 -104 -54.5 -185.5t-84 -135.5t-109 -89.5t-126.5 -51t-138 -15.5z" />
    <glyph glyph-name="Yacute" unicode="&#xdd;" horiz-adv-x="950" 
d="M182 0l4 35l150 26l72 410l-220 670l-67 16l6 37h461l-6 -35l-127 -24l166 -549h4l305 528l-160 43l6 37h373l-6 -35l-113 -31l-358 -606l-80 -461l139 -24l-4 -37h-545zM907 1544l84 -100v-27l-379 -139l-10 16z" />
    <glyph glyph-name="Thorn" unicode="&#xde;" horiz-adv-x="972" 
d="M33 0l4 37l143 24l180 1072l-133 22l9 39h522l-6 -37l-138 -24l-22 -138h123q149 0 243.5 -77.5t94.5 -210.5q0 -109 -38.5 -192.5t-108 -135.5t-161.5 -78.5t-204 -26.5h-74l-37 -211l143 -24l-8 -39h-532zM621 922h-43l-99 -580h37q111 0 186.5 96t75.5 232
q0 112 -39 182t-118 70z" />
    <glyph glyph-name="germandbls" unicode="&#xdf;" horiz-adv-x="1036" 
d="M-49 -430q-115 0 -176 37l49 184q15 -13 46 -40.5t44.5 -37t40 -21.5t57.5 -16q10 12 21 44.5t23.5 89t21 98.5t22.5 119l133 807h-129v79h144l33 181q27 158 150.5 259t266.5 101q134 0 199.5 -69t65.5 -187q0 -96 -72.5 -196.5t-192.5 -167.5q55 -38 109 -90
t103.5 -117t80.5 -141t31 -148q0 -82 -51.5 -165t-130.5 -136t-154 -53q-70 0 -139 14.5t-113 38.5l53 315h50l41 -235q46 -27 104 -27q61 0 106.5 33t45.5 90q0 218 -263 434l-10 49q39 56 54 78t48.5 77t48.5 89.5t28.5 82t13.5 87.5q0 55 -12.5 107t-47.5 98t-88 57
q-32 -39 -59 -117.5t-37 -146.5l-182 -1085q-13 -110 -73.5 -216t-144 -171.5t-159.5 -65.5z" />
    <glyph glyph-name="agrave" unicode="&#xe0;" horiz-adv-x="835" 
d="M440 16l45 265l-268 -287h-131q-23 100 -23 219q0 157 30.5 305.5t96.5 251.5q58 84 125 132t160 48q107 0 219 -59l99 61h30l-141 -833l12 -13l140 107l20 -35l-223 -194zM289 195l22 -9l187 168l69 416q-70 59 -170 82q-46 -94 -75.5 -243t-32.5 -300q-3 -67 0 -114z
M373 1346l153 43l142 -302l-13 -12l-282 244v27z" />
    <glyph glyph-name="aacute" unicode="&#xe1;" horiz-adv-x="835" 
d="M440 16l45 265l-268 -287h-131q-23 100 -23 219q0 157 30.5 305.5t96.5 251.5q58 84 125 132t160 48q107 0 219 -59l99 61h30l-141 -833l12 -13l140 107l20 -35l-223 -194zM289 195l22 -9l187 168l69 416q-70 59 -170 82q-46 -94 -75.5 -243t-32.5 -300q-3 -67 0 -114z
M645 1391l154 -43v-27l-285 -244l-10 13z" />
    <glyph glyph-name="acircumflex" unicode="&#xe2;" horiz-adv-x="835" 
d="M440 16l45 265l-268 -287h-131q-23 100 -23 219q0 157 30.5 305.5t96.5 251.5q58 84 125 132t160 48q107 0 219 -59l99 61h30l-141 -833l12 -13l140 107l20 -35l-223 -194zM289 195l22 -9l187 168l69 416q-70 59 -170 82q-46 -94 -75.5 -243t-32.5 -300q-3 -67 0 -114z
M596 1368h63l185 -272l-23 -23l-227 158l-266 -166l-19 20z" />
    <glyph glyph-name="atilde" unicode="&#xe3;" horiz-adv-x="835" 
d="M440 16l45 265l-268 -287h-131q-23 100 -23 219q0 157 30.5 305.5t96.5 251.5q58 84 125 132t160 48q107 0 219 -59l99 61h30l-141 -833l12 -13l140 107l20 -35l-223 -194zM289 195l22 -9l187 168l69 416q-70 59 -170 82q-46 -94 -75.5 -243t-32.5 -300q-3 -67 0 -114z
M842 1292l28 -26l-147 -148h-43l-225 88l-97 -71l-26 24l168 150l47 2l223 -82z" />
    <glyph glyph-name="adieresis" unicode="&#xe4;" horiz-adv-x="835" 
d="M440 16l45 265l-268 -287h-131q-23 100 -23 219q0 157 30.5 305.5t96.5 251.5q58 84 125 132t160 48q107 0 219 -59l99 61h30l-141 -833l12 -13l140 107l20 -35l-223 -194zM289 195l22 -9l187 168l69 416q-70 59 -170 82q-46 -94 -75.5 -243t-32.5 -300q-3 -67 0 -114z
M465 1147l-127 47q61 103 76 192l149 -22q-53 -153 -98 -217zM784 1147l-127 47q61 103 76 192l150 -22q-52 -150 -99 -217z" />
    <glyph glyph-name="aring" unicode="&#xe5;" horiz-adv-x="835" 
d="M440 16l45 265l-268 -287h-131q-23 100 -23 219q0 157 30.5 305.5t96.5 251.5q58 84 125 132t160 48q107 0 219 -59l99 61h30l-141 -833l12 -13l140 107l20 -35l-223 -194zM289 195l22 -9l187 168l69 416q-70 59 -170 82q-46 -94 -75.5 -243t-32.5 -300q-3 -67 0 -114z
M586 1077q-59 0 -100.5 37.5t-41.5 106.5q0 67 54.5 115t122.5 48q63 0 104 -37t41 -102q0 -67 -55 -117.5t-125 -50.5zM590 1116q55 0 94 38t39 89t-29 78t-78 27q-55 0 -92 -36t-37 -91q0 -54 30.5 -79.5t72.5 -25.5z" />
    <glyph glyph-name="ae" unicode="&#xe6;" horiz-adv-x="1081" 
d="M621 -16l-125 28q-21 68 -25 217l-235 -235h-150q-23 100 -23 219q0 157 30.5 305.5t96.5 251.5q124 180 302 180q93 0 208 -53q82 55 189 55t233 -73v-193q-6 -4 -73 -51.5t-124.5 -88t-126.5 -87t-104 -66.5q0 -151 13 -237l22 -6q12 5 27 12t28.5 15t31.5 20t30.5 21
t33 24t31 23t31.5 25t28 23t27 22.5t23 18.5l16 -41q-58 -80 -176 -178t-239 -151zM309 168l162 147q6 121 37 253t72 206q-103 70 -189 78q-40 -69 -70.5 -229.5t-31.5 -313.5q0 -12 -0.5 -42.5t-0.5 -54t1 -36.5zM700 473q34 25 120.5 98t121.5 107l2 115q-38 29 -64.5 40
t-74.5 23q-24 -35 -58 -157t-47 -226z" />
    <glyph glyph-name="ccedilla" unicode="&#xe7;" horiz-adv-x="657" 
d="M178 -430q-37 0 -82.5 8t-68.5 21l34 110q89 -49 175 -49q50 0 96 21q-5 10 -12 20t-13 18.5t-17 19t-17.5 17.5t-20 17.5t-20 16t-22 16.5t-21 14.5t-22.5 15.5t-20 14l5 23l100 125l-29 -14l-125 28q-32 103 -32 250q0 310 118 506q124 184 299 184q97 0 222 -51
q-4 -105 -68 -196q-73 65 -114.5 92t-119.5 57q-53 -87 -77.5 -230t-24.5 -268q0 -127 14 -196l21 -8q110 51 272 202l15 -41q-42 -58 -112 -127.5t-153 -126.5l-102 -131q68 -57 106.5 -105t38.5 -97q0 -52 -66 -104t-157 -52z" />
    <glyph glyph-name="egrave" unicode="&#xe8;" horiz-adv-x="671" 
d="M604 352l17 -39q-55 -82 -166 -179.5t-232 -149.5l-123 28q-32 103 -32 250q0 322 116 506q126 184 293 184q106 0 234 -71l-2 -201q-66 -60 -179.5 -132.5t-226.5 -127.5q-4 -74 -4 -109q0 -89 12 -151l23 -8q118 67 270 200zM408 854q-75 -123 -101 -373
q114 69 232 181l-2 137q-63 40 -129 55zM311 1348l154 43l141 -301l-12 -13l-283 244v27z" />
    <glyph glyph-name="eacute" unicode="&#xe9;" horiz-adv-x="671" 
d="M604 352l17 -39q-55 -82 -166 -179.5t-232 -149.5l-123 28q-32 103 -32 250q0 322 116 506q126 184 293 184q106 0 234 -71l-2 -201q-66 -60 -179.5 -132.5t-226.5 -127.5q-4 -74 -4 -109q0 -89 12 -151l23 -8q118 67 270 200zM408 854q-75 -123 -101 -373
q114 69 232 181l-2 137q-63 40 -129 55zM561 1391l154 -43v-27l-285 -244l-10 13z" />
    <glyph glyph-name="ecircumflex" unicode="&#xea;" horiz-adv-x="671" 
d="M604 352l17 -39q-55 -82 -166 -179.5t-232 -149.5l-123 28q-32 103 -32 250q0 322 116 506q126 184 293 184q106 0 234 -71l-2 -201q-66 -60 -179.5 -132.5t-226.5 -127.5q-4 -74 -4 -109q0 -89 12 -151l23 -8q118 67 270 200zM526 1368h64l184 -272l-22 -23l-228 158
l-266 -166l-18 20zM408 854q-75 -123 -101 -373q114 69 232 181l-2 137q-63 40 -129 55z" />
    <glyph glyph-name="edieresis" unicode="&#xeb;" horiz-adv-x="671" 
d="M604 352l17 -39q-55 -82 -166 -179.5t-232 -149.5l-123 28q-32 103 -32 250q0 322 116 506q126 184 293 184q106 0 234 -71l-2 -201q-66 -60 -179.5 -132.5t-226.5 -127.5q-4 -74 -4 -109q0 -89 12 -151l23 -8q118 67 270 200zM408 854q-75 -123 -101 -373
q114 69 232 181l-2 137q-63 40 -129 55zM727 1147l-127 47q61 103 76 192l149 -22q-53 -153 -98 -217zM408 1147l-127 47q59 101 75 192l150 -22q-53 -153 -98 -217z" />
    <glyph glyph-name="igrave" unicode="&#xec;" horiz-adv-x="514" 
d="M272 -16l-192 32l137 828h-139v37l334 71l45 -20l-135 -811l16 -10l143 106l23 -39zM127 1348l154 43l141 -301l-12 -13l-283 244v27z" />
    <glyph glyph-name="iacute" unicode="&#xed;" horiz-adv-x="514" 
d="M422 1391l153 -43v-27l-284 -244l-10 13zM272 -16l-192 32l137 828h-139v37l334 71l45 -20l-135 -811l16 -10l143 106l23 -39z" />
    <glyph glyph-name="icircumflex" unicode="&#xee;" horiz-adv-x="514" 
d="M365 1368h63l184 -272l-22 -23l-228 158l-266 -166l-18 20zM272 -16l-192 32l137 828h-139v37l334 71l45 -20l-135 -811l16 -10l143 106l23 -39z" />
    <glyph glyph-name="idieresis" unicode="&#xef;" horiz-adv-x="514" 
d="M233 1147l-127 47q61 103 76 192l150 -22q-52 -150 -99 -217zM553 1147l-127 47q61 103 76 192l149 -22q-53 -153 -98 -217zM272 -16l-192 32l137 828h-139v37l334 71l45 -20l-135 -811l16 -10l143 106l23 -39z" />
    <glyph glyph-name="eth" unicode="&#xf0;" horiz-adv-x="815" 
d="M332 1061l-27 49l182 104q-50 103 -141 191l35 41q105 -75 192 -182l158 90l27 -54l-148 -83q197 -271 197 -560q0 -95 -18.5 -189t-59 -181.5t-97.5 -154.5t-140 -107.5t-181 -40.5q-117 0 -180 93.5t-63 237.5q0 91 19 180t58 169t93.5 142.5t130 101.5t163.5 44
q17 0 27 -2q-16 132 -49 211zM569 702q0 103 -2 150q-68 31 -106 31q-45 -42 -76.5 -114.5t-47.5 -159.5t-23 -169.5t-7 -169.5q0 -137 19 -192q29 -25 69 -27q80 70 124.5 248.5t49.5 402.5z" />
    <glyph glyph-name="ntilde" unicode="&#xf1;" horiz-adv-x="923" 
d="M709 -16l-197 32l80 494q16 106 16 209q0 51 -4 65l-29 11q-65 -37 -165 -142l-107 -653h-225l139 844h-139v37l334 71l45 -20l-33 -201q188 221 309 221q51 0 80 -66t29 -179q0 -80 -19 -191l-69 -395l14 -12l150 108l22 -39zM834 1292l28 -26l-147 -148h-43l-226 88
l-96 -71l-26 24l168 150l47 2l223 -82z" />
    <glyph glyph-name="ograve" unicode="&#xf2;" horiz-adv-x="804" 
d="M328 -16q-120 0 -190 94t-70 235q0 116 29.5 227.5t84.5 204.5t144.5 150t199.5 57q125 0 201 -90t76 -250q0 -85 -20.5 -172t-61 -166.5t-96.5 -143t-133 -103t-164 -43.5zM393 51q77 68 121.5 234t46.5 323v64q0 132 -14 184q-41 25 -88 27q-71 -62 -110.5 -224
t-41.5 -319q0 -213 12 -262q28 -24 74 -27zM309 1348l154 43l141 -301l-12 -13l-283 244v27z" />
    <glyph glyph-name="oacute" unicode="&#xf3;" horiz-adv-x="804" 
d="M328 -16q-120 0 -190 94t-70 235q0 116 29.5 227.5t84.5 204.5t144.5 150t199.5 57q125 0 201 -90t76 -250q0 -85 -20.5 -172t-61 -166.5t-96.5 -143t-133 -103t-164 -43.5zM393 51q77 68 121.5 234t46.5 323v64q0 132 -14 184q-41 25 -88 27q-71 -62 -110.5 -224
t-41.5 -319q0 -213 12 -262q28 -24 74 -27zM598 1391l154 -43v-27l-285 -244l-10 13z" />
    <glyph glyph-name="ocircumflex" unicode="&#xf4;" horiz-adv-x="804" 
d="M328 -16q-120 0 -190 94t-70 235q0 116 29.5 227.5t84.5 204.5t144.5 150t199.5 57q125 0 201 -90t76 -250q0 -85 -20.5 -172t-61 -166.5t-96.5 -143t-133 -103t-164 -43.5zM393 51q77 68 121.5 234t46.5 323v64q0 132 -14 184q-41 25 -88 27q-71 -62 -110.5 -224
t-41.5 -319q0 -213 12 -262q28 -24 74 -27zM559 1358h64l184 -273l-23 -22l-227 158l-266 -166l-19 20z" />
    <glyph glyph-name="otilde" unicode="&#xf5;" horiz-adv-x="804" 
d="M328 -16q-120 0 -190 94t-70 235q0 116 29.5 227.5t84.5 204.5t144.5 150t199.5 57q125 0 201 -90t76 -250q0 -85 -20.5 -172t-61 -166.5t-96.5 -143t-133 -103t-164 -43.5zM393 51q77 68 121.5 234t46.5 323v64q0 132 -14 184q-41 25 -88 27q-71 -62 -110.5 -224
t-41.5 -319q0 -213 12 -262q28 -24 74 -27zM811 1292l29 -26l-148 -148h-43l-225 88l-96 -71l-27 24l168 150l47 2l223 -82z" />
    <glyph glyph-name="odieresis" unicode="&#xf6;" horiz-adv-x="804" 
d="M328 -16q-120 0 -190 94t-70 235q0 116 29.5 227.5t84.5 204.5t144.5 150t199.5 57q125 0 201 -90t76 -250q0 -85 -20.5 -172t-61 -166.5t-96.5 -143t-133 -103t-164 -43.5zM393 51q77 68 121.5 234t46.5 323v64q0 132 -14 184q-41 25 -88 27q-71 -62 -110.5 -224
t-41.5 -319q0 -213 12 -262q28 -24 74 -27zM428 1147l-127 47q61 103 76 192l149 -22q-53 -153 -98 -217zM748 1147l-127 47q59 101 75 192l150 -22q-53 -153 -98 -217z" />
    <glyph glyph-name="divide" unicode="&#xf7;" horiz-adv-x="909" 
d="M123 528v84h770v-84h-770zM504 723q-55 0 -90 38t-35 93q0 57 35 95t90 38q53 0 89 -38t36 -95q0 -54 -36.5 -92.5t-88.5 -38.5zM504 154q-55 0 -90 37.5t-35 93.5q0 57 35 95t90 38q53 0 89 -38t36 -95q0 -55 -36 -93t-89 -38z" />
    <glyph glyph-name="oslash" unicode="&#xf8;" horiz-adv-x="804" 
d="M330 -16q-115 0 -189 90l-75 -90h-64l113 133q-45 80 -45 196t29.5 227.5t84.5 204.5t144.5 150t199.5 57q128 0 205 -96l82 96h64l-117 -139q43 -84 43 -201q0 -85 -20.5 -172t-61 -166.5t-96.5 -143t-133 -103t-164 -43.5zM461 883q-70 -63 -110 -221.5t-42 -313.5
l254 305q4 128 -14 203q-41 25 -88 27zM395 51q73 64 117 217.5t49 306.5l-252 -303q0 -146 13 -194q28 -24 73 -27z" />
    <glyph glyph-name="ugrave" unicode="&#xf9;" horiz-adv-x="917" 
d="M711 -16l-201 32l31 193q-194 -225 -332 -225q-48 0 -73 56t-25 157q0 100 20 211l68 436h-142v37l342 71l43 -20l-80 -506q-28 -176 -18 -279l27 -10q90 48 182 152l90 555h-106v37l305 71l45 -20l-133 -815l16 -15l143 115l23 -39zM354 1348l154 43l141 -301l-12 -13
l-283 244v27z" />
    <glyph glyph-name="uacute" unicode="&#xfa;" horiz-adv-x="917" 
d="M711 -16l-201 32l31 193q-194 -225 -332 -225q-48 0 -73 56t-25 157q0 100 20 211l68 436h-142v37l342 71l43 -20l-80 -506q-28 -176 -18 -279l27 -10q90 48 182 152l90 555h-106v37l305 71l45 -20l-133 -815l16 -15l143 115l23 -39zM682 1391l154 -43v-27l-285 -244
l-10 13z" />
    <glyph glyph-name="ucircumflex" unicode="&#xfb;" horiz-adv-x="917" 
d="M711 -16l-201 32l31 193q-194 -225 -332 -225q-48 0 -73 56t-25 157q0 100 20 211l68 436h-142v37l342 71l43 -20l-80 -506q-28 -176 -18 -279l27 -10q90 48 182 152l90 555h-106v37l305 71l45 -20l-133 -815l16 -15l143 115l23 -39zM621 1368h63l184 -272l-22 -23
l-228 158l-266 -166l-18 20z" />
    <glyph glyph-name="udieresis" unicode="&#xfc;" horiz-adv-x="917" 
d="M711 -16l-201 32l31 193q-194 -225 -332 -225q-48 0 -73 56t-25 157q0 100 20 211l68 436h-142v37l342 71l43 -20l-80 -506q-28 -176 -18 -279l27 -10q90 48 182 152l90 555h-106v37l305 71l45 -20l-133 -815l16 -15l143 115l23 -39zM813 1147l-127 47q61 103 76 192
l149 -22q-53 -153 -98 -217zM494 1147l-127 47q59 101 75 192l150 -22q-53 -153 -98 -217z" />
    <glyph glyph-name="yacute" unicode="&#xfd;" horiz-adv-x="782" 
d="M842 932v-60l-346 -745l-215 -551h-191l-2 31l266 393h-135q-40 153 -69.5 401.5t-26.5 442.5h-96v37l315 71l45 -10q-14 -104 -14 -237q0 -263 51 -562h18l187 473l2 316h211zM612 1391l154 -43v-27l-285 -244l-10 13z" />
    <glyph glyph-name="thorn" unicode="&#xfe;" horiz-adv-x="843" 
d="M-106 -424l4 29l98 37l172 1001q-17 -9 -35.5 -19t-36.5 -21t-26 -15l-7 49q56 38 115 74l117 673l237 58l-102 -586q181 94 244 94q56 0 94 -51.5t54 -128t16 -172.5q0 -100 -33 -205.5t-90 -194.5t-142.5 -148.5t-181.5 -65.5q-54 0 -112 10l-60 -344l125 -43l-4 -31
h-446zM524 815q-50 -18 -108 -45l-115 -649q66 -49 125 -49q34 0 74 72.5t68 187.5t28 223q0 170 -37 260h-35z" />
    <glyph glyph-name="ydieresis" unicode="&#xff;" horiz-adv-x="782" 
d="M842 932v-60l-346 -745l-215 -551h-191l-2 31l266 393h-135q-40 153 -69.5 401.5t-26.5 442.5h-96v37l315 71l45 -10q-14 -104 -14 -237q0 -263 51 -562h18l187 473l2 316h211zM725 1149l-127 47q61 103 76 193l149 -23q-53 -153 -98 -217zM406 1149l-127 47
q59 100 75 193l150 -23q-53 -153 -98 -217z" />
    <glyph glyph-name="Amacron" unicode="&#x100;" horiz-adv-x="1058" 
d="M-45 0l6 35l113 47l655 1112h135l121 -1141l72 -16l-8 -37h-465l4 35l127 22l-27 353h-340l-184 -324l172 -49l-6 -37h-375zM385 471h299l-31 453h-10zM1028 1372h-414l13 55h413z" />
    <glyph glyph-name="amacron" unicode="&#x101;" horiz-adv-x="835" 
d="M440 16l45 265l-268 -287h-131q-23 100 -23 219q0 157 30.5 305.5t96.5 251.5q58 84 125 132t160 48q107 0 219 -59l99 61h30l-141 -833l12 -13l140 107l20 -35l-223 -194zM289 195l22 -9l187 168l69 416q-70 59 -170 82q-46 -94 -75.5 -243t-32.5 -300q-3 -67 0 -114z
M795 1210h-381l14 54h381z" />
    <glyph glyph-name="Abreve" unicode="&#x102;" horiz-adv-x="1058" 
d="M-45 0l6 35l113 47l655 1112h135l121 -1141l72 -16l-8 -37h-465l4 35l127 22l-27 353h-340l-184 -324l172 -49l-6 -37h-375zM385 471h299l-31 453h-10zM774 1282q-67 0 -117 58.5t-57 148.5l129 18q5 -93 78 -147q74 9 137 51.5t92 97.5l35 -12q-59 -106 -129.5 -160.5
t-167.5 -54.5z" />
    <glyph glyph-name="abreve" unicode="&#x103;" horiz-adv-x="835" 
d="M440 16l45 265l-268 -287h-131q-23 100 -23 219q0 157 30.5 305.5t96.5 251.5q58 84 125 132t160 48q107 0 219 -59l99 61h30l-141 -833l12 -13l140 107l20 -35l-223 -194zM289 195l22 -9l187 168l69 416q-70 59 -170 82q-46 -94 -75.5 -243t-32.5 -300q-3 -67 0 -114z
M553 1085q-69 0 -108.5 55t-47.5 148l129 21q3 -100 64 -146q68 8 121 51.5t82 100.5l34 -12q-60 -110 -121.5 -164t-152.5 -54z" />
    <glyph glyph-name="Aogonek" unicode="&#x104;" horiz-adv-x="1058" 
d="M-45 0l6 35l113 47l655 1112h135l121 -1141l72 -16l-8 -37h-181q-140 -173 -155 -272l20 -13q26 -5 81.5 5.5t97.5 23.5l42 14l21 -94q-58 -35 -149.5 -62t-186.5 -30l-41 39q30 168 211 389h-225l4 35l127 22l-27 353h-340l-184 -324l172 -49l-6 -37h-375zM385 471h299
l-31 453h-10z" />
    <glyph glyph-name="aogonek" unicode="&#x105;" horiz-adv-x="835" 
d="M440 16l45 265l-268 -287h-131q-23 100 -23 219q0 157 30.5 305.5t96.5 251.5q58 84 125 132t160 48q107 0 219 -59l99 61h30l-141 -833l12 -13l140 107l20 -35l-164 -143q-164 -194 -182 -307l20 -13q26 -5 81.5 5.5t98.5 23.5l42 14l20 -94q-58 -35 -149.5 -62
t-186.5 -30l-41 39q31 165 201 379zM289 195l22 -9l187 168l69 416q-70 59 -170 82q-46 -94 -75.5 -243t-32.5 -300q-3 -67 0 -114z" />
    <glyph glyph-name="Cacute" unicode="&#x106;" 
d="M1071 829h-61l-72 285q-53 35 -133 35q-104 0 -189 -58.5t-137 -155.5t-80 -217t-28 -249q0 -89 15 -162.5t46.5 -132t86 -91t128.5 -32.5q88 0 163.5 60.5t109.5 138.5h51l-33 -184q-52 -30 -148 -56t-200 -26q-108 0 -198.5 27.5t-159.5 81.5t-107.5 141t-38.5 200
q0 172 57.5 318.5t156 247t232.5 156.5t285 56q168 0 305 -67zM1020 1544l84 -100v-27l-379 -139l-10 16z" />
    <glyph glyph-name="cacute" unicode="&#x107;" horiz-adv-x="657" 
d="M555 1391l154 -43v-27l-285 -244l-10 13zM608 354l15 -41q-60 -84 -170 -180.5t-230 -148.5l-125 28q-32 103 -32 250q0 310 118 506q124 184 299 184q97 0 222 -51q-4 -105 -68 -196q-73 65 -114.5 92t-119.5 57q-53 -87 -77.5 -230t-24.5 -268q0 -127 14 -196l21 -8
q110 51 272 202z" />
    <glyph glyph-name="Ccircumflex" unicode="&#x108;" 
d="M1071 829h-61l-72 285q-53 35 -133 35q-104 0 -189 -58.5t-137 -155.5t-80 -217t-28 -249q0 -89 15 -162.5t46.5 -132t86 -91t128.5 -32.5q88 0 163.5 60.5t109.5 138.5h51l-33 -184q-52 -30 -148 -56t-200 -26q-108 0 -198.5 27.5t-159.5 81.5t-107.5 141t-38.5 200
q0 172 57.5 318.5t156 247t232.5 156.5t285 56q168 0 305 -67zM862 1528h64l153 -240l-32 -24l-189 141l-258 -145l-16 26z" />
    <glyph glyph-name="ccircumflex" unicode="&#x109;" horiz-adv-x="657" 
d="M514 1368h64l184 -272l-23 -23l-227 158l-266 -166l-19 20zM608 354l15 -41q-60 -84 -170 -180.5t-230 -148.5l-125 28q-32 103 -32 250q0 310 118 506q124 184 299 184q97 0 222 -51q-4 -105 -68 -196q-73 65 -114.5 92t-119.5 57q-53 -87 -77.5 -230t-24.5 -268
q0 -127 14 -196l21 -8q110 51 272 202z" />
    <glyph glyph-name="Cdotaccent" unicode="&#x10a;" 
d="M856 1282l-143 41q26 46 47 104t28 93l162 -19q-38 -146 -94 -219zM1071 829h-61l-72 285q-53 35 -133 35q-104 0 -189 -58.5t-137 -155.5t-80 -217t-28 -249q0 -89 15 -162.5t46.5 -132t86 -91t128.5 -32.5q88 0 163.5 60.5t109.5 138.5h51l-33 -184q-52 -30 -148 -56
t-200 -26q-108 0 -198.5 27.5t-159.5 81.5t-107.5 141t-38.5 200q0 172 57.5 318.5t156 247t232.5 156.5t285 56q168 0 305 -67z" />
    <glyph glyph-name="cdotaccent" unicode="&#x10b;" horiz-adv-x="657" 
d="M608 354l15 -41q-60 -84 -170 -180.5t-230 -148.5l-125 28q-32 103 -32 250q0 310 118 506q124 184 299 184q97 0 222 -51q-4 -105 -68 -196q-73 65 -114.5 92t-119.5 57q-53 -87 -77.5 -230t-24.5 -268q0 -127 14 -196l21 -8q110 51 272 202zM569 1149l-131 41
q60 114 74 184l150 -18q-43 -141 -93 -207z" />
    <glyph glyph-name="Ccaron" unicode="&#x10c;" 
d="M1071 829h-61l-72 285q-53 35 -133 35q-104 0 -189 -58.5t-137 -155.5t-80 -217t-28 -249q0 -89 15 -162.5t46.5 -132t86 -91t128.5 -32.5q88 0 163.5 60.5t109.5 138.5h51l-33 -184q-52 -30 -148 -56t-200 -26q-108 0 -198.5 27.5t-159.5 81.5t-107.5 141t-38.5 200
q0 172 57.5 318.5t156 247t232.5 156.5t285 56q168 0 305 -67zM844 1282h-62l-145 256l31 25l174 -152l286 150l17 -23z" />
    <glyph glyph-name="ccaron" unicode="&#x10d;" horiz-adv-x="657" 
d="M516 1075h-63l-142 285l25 20l184 -170l236 172l18 -22zM608 354l15 -41q-60 -84 -170 -180.5t-230 -148.5l-125 28q-32 103 -32 250q0 310 118 506q124 184 299 184q97 0 222 -51q-4 -105 -68 -196q-73 65 -114.5 92t-119.5 57q-53 -87 -77.5 -230t-24.5 -268
q0 -127 14 -196l21 -8q110 51 272 202z" />
    <glyph glyph-name="Dcaron" unicode="&#x10e;" horiz-adv-x="1183" 
d="M805 1278h-62l-145 256l31 25l174 -152l287 149l16 -22zM33 0l4 37l143 26l182 1070l-135 22l6 39h506q510 0 510 -418q0 -220 -91 -397.5t-251.5 -278t-359.5 -100.5h-514zM678 1126h-66l-182 -1054h80q205 0 332 180t127 498q0 179 -67.5 277.5t-223.5 98.5z" />
    <glyph glyph-name="dcaron" unicode="&#x10f;" horiz-adv-x="991" 
d="M440 16l43 265l-266 -287h-131q-23 100 -23 219q0 157 30.5 305.5t96.5 251.5q58 84 125 132t160 48q57 0 119 -16l65 389h-147v37l350 80l43 -29l-221 -1276l14 -10l138 90l20 -37l-242 -194zM289 195l20 -9l187 168l69 416q-70 59 -168 82q-47 -97 -77.5 -243
t-30.5 -294v-120zM971 1083h-39l63 357h154l-156 -338z" />
    <glyph glyph-name="Dcroat" unicode="&#x110;" horiz-adv-x="1183" 
d="M162 569l12 70h105l83 494l-135 22l6 39h506q510 0 510 -418q0 -220 -91 -397.5t-251.5 -278t-359.5 -100.5h-514l4 37l143 26l86 506h-104zM678 1126h-66l-84 -487h154l-12 -70h-154l-86 -497h80q205 0 332 180t127 498q0 179 -67.5 277.5t-223.5 98.5z" />
    <glyph glyph-name="dcroat" unicode="&#x111;" horiz-adv-x="837" 
d="M440 16l43 265l-266 -287h-131q-23 100 -23 219q0 157 30.5 305.5t96.5 251.5q58 84 125 132t160 48q57 0 119 -16l27 160h-222l11 59h221l28 170h-147v37l350 80l43 -29l-45 -258h90l-12 -59h-88l-166 -959l14 -10l138 90l20 -37l-242 -194zM289 195l20 -9l187 168
l69 416q-70 59 -168 82q-47 -97 -77.5 -243t-30.5 -294v-120z" />
    <glyph glyph-name="Emacron" unicode="&#x112;" horiz-adv-x="989" 
d="M973 1374h-414l12 56h414zM33 0l4 37l143 26l180 1065l-133 27l6 39h834l-51 -307h-55l-68 239h-281l-84 -493l349 18l-15 -98l-342 18l-88 -501h281l207 266l45 -6l-101 -330h-831z" />
    <glyph glyph-name="emacron" unicode="&#x113;" horiz-adv-x="671" 
d="M604 352l17 -39q-55 -82 -166 -179.5t-232 -149.5l-123 28q-32 103 -32 250q0 322 116 506q126 184 293 184q106 0 234 -71l-2 -201q-66 -60 -179.5 -132.5t-226.5 -127.5q-4 -74 -4 -109q0 -89 12 -151l23 -8q118 67 270 200zM408 854q-75 -123 -101 -373
q114 69 232 181l-2 137q-63 40 -129 55zM713 1210h-381l14 54h381z" />
    <glyph glyph-name="Ebreve" unicode="&#x114;" horiz-adv-x="989" 
d="M700 1282q-67 0 -117 58.5t-57 148.5l129 18q5 -93 78 -147q74 9 137.5 51.5t92.5 97.5l34 -12q-59 -106 -129.5 -160.5t-167.5 -54.5zM33 0l4 37l143 26l180 1065l-133 27l6 39h834l-51 -307h-55l-68 239h-281l-84 -493l349 18l-15 -98l-342 18l-88 -501h281l207 266
l45 -6l-101 -330h-831z" />
    <glyph glyph-name="ebreve" unicode="&#x115;" horiz-adv-x="671" 
d="M604 352l17 -39q-55 -82 -166 -179.5t-232 -149.5l-123 28q-32 103 -32 250q0 322 116 506q126 184 293 184q106 0 234 -71l-2 -201q-66 -60 -179.5 -132.5t-226.5 -127.5q-4 -74 -4 -109q0 -89 12 -151l23 -8q118 67 270 200zM408 854q-75 -123 -101 -373
q114 69 232 181l-2 137q-63 40 -129 55zM467 1085q-69 0 -108.5 55t-47.5 148l129 21q3 -100 64 -146q68 8 121 51.5t82 100.5l34 -12q-60 -110 -121.5 -164t-152.5 -54z" />
    <glyph glyph-name="Edotaccent" unicode="&#x116;" horiz-adv-x="989" 
d="M791 1280l-144 41q26 46 47.5 104.5t28.5 92.5l162 -19q-38 -146 -94 -219zM33 0l4 37l143 26l180 1065l-133 27l6 39h834l-51 -307h-55l-68 239h-281l-84 -493l349 18l-15 -98l-342 18l-88 -501h281l207 266l45 -6l-101 -330h-831z" />
    <glyph glyph-name="edotaccent" unicode="&#x117;" horiz-adv-x="671" 
d="M604 352l17 -39q-55 -82 -166 -179.5t-232 -149.5l-123 28q-32 103 -32 250q0 322 116 506q126 184 293 184q106 0 234 -71l-2 -201q-66 -60 -179.5 -132.5t-226.5 -127.5q-4 -74 -4 -109q0 -89 12 -151l23 -8q118 67 270 200zM408 854q-75 -123 -101 -373
q114 69 232 181l-2 137q-63 40 -129 55zM563 1149l-131 41q60 114 74 184l149 -18q-43 -143 -92 -207z" />
    <glyph glyph-name="Eogonek" unicode="&#x118;" horiz-adv-x="989" 
d="M33 0l4 37l143 26l180 1065l-133 27l6 39h834l-51 -307h-55l-68 239h-281l-84 -493l349 18l-15 -98l-342 18l-88 -501h281l207 266l45 -6l-101 -330h-98q-129 -169 -145 -272l20 -13q24 -5 77 5.5t94 23.5l40 14l18 -94q-53 -35 -140.5 -62t-178.5 -30l-39 39
q26 162 203 389h-682z" />
    <glyph glyph-name="eogonek" unicode="&#x119;" horiz-adv-x="671" 
d="M604 352l17 -39q-73 -107 -199 -207q-210 -245 -232 -378l21 -13q24 -5 77 5.5t94 23.5l40 14l18 -94q-53 -35 -140.5 -62t-178.5 -30l-39 39q30 175 221 412q-46 -24 -80 -39l-123 28q-32 103 -32 250q0 322 116 506q126 184 293 184q106 0 234 -71l-2 -201
q-66 -60 -179.5 -132.5t-226.5 -127.5q-4 -74 -4 -109q0 -89 12 -151l23 -8q118 67 270 200zM408 854q-75 -123 -101 -373q114 69 232 181l-2 137q-63 40 -129 55z" />
    <glyph glyph-name="Ecaron" unicode="&#x11a;" horiz-adv-x="989" 
d="M754 1282h-62l-145 256l31 25l174 -152l286 150l17 -23zM33 0l4 37l143 26l180 1065l-133 27l6 39h834l-51 -307h-55l-68 239h-281l-84 -493l349 18l-15 -98l-342 18l-88 -501h281l207 266l45 -6l-101 -330h-831z" />
    <glyph glyph-name="ecaron" unicode="&#x11b;" horiz-adv-x="671" 
d="M604 352l17 -39q-55 -82 -166 -179.5t-232 -149.5l-123 28q-32 103 -32 250q0 322 116 506q126 184 293 184q106 0 234 -71l-2 -201q-66 -60 -179.5 -132.5t-226.5 -127.5q-4 -74 -4 -109q0 -89 12 -151l23 -8q118 67 270 200zM408 854q-75 -123 -101 -373
q114 69 232 181l-2 137q-63 40 -129 55zM516 1075h-63l-142 285l25 20l184 -170l236 172l18 -22z" />
    <glyph glyph-name="Gcircumflex" unicode="&#x11c;" horiz-adv-x="1052" 
d="M588 -16q-221 0 -361.5 124.5t-140.5 346.5q0 164 58 307t157 240.5t232 153.5t280 56q166 0 303 -67l-53 -316h-57l-62 285q-62 33 -149 33q-99 0 -182 -62t-134.5 -160.5t-79.5 -214t-28 -229.5q0 -430 258 -430q37 0 84 15l71 456l-139 35l8 37h383l-92 -528
q-51 -29 -151.5 -55.5t-204.5 -26.5zM866 1528h64l153 -240l-32 -24l-189 141l-258 -145l-16 26z" />
    <glyph glyph-name="gcircumflex" unicode="&#x11d;" horiz-adv-x="796" 
d="M250 -436q-194 0 -297 61l45 176q62 -34 98 -52t94.5 -36t110.5 -18q37 0 70 8q39 42 98 457l20 127l-272 -293h-131q-23 100 -23 219q0 157 30.5 305.5t96.5 251.5q58 84 125 132t160 48q107 0 219 -59l103 61h22l-155 -960q-18 -108 -73 -204t-145.5 -160t-195.5 -64z
M500 356q38 224 65 414q-72 61 -168 82q-47 -96 -77.5 -246t-30.5 -297v-116l20 -9zM596 1368h63l185 -272l-23 -23l-227 158l-266 -166l-19 20z" />
    <glyph glyph-name="Gbreve" unicode="&#x11e;" horiz-adv-x="1052" 
d="M801 1280q-67 0 -117 58.5t-57 148.5l129 18q5 -93 78 -147q74 9 137 51.5t92 97.5l35 -12q-59 -106 -129.5 -160.5t-167.5 -54.5zM588 -16q-221 0 -361.5 124.5t-140.5 346.5q0 164 58 307t157 240.5t232 153.5t280 56q166 0 303 -67l-53 -316h-57l-62 285
q-62 33 -149 33q-99 0 -182 -62t-134.5 -160.5t-79.5 -214t-28 -229.5q0 -430 258 -430q37 0 84 15l71 456l-139 35l8 37h383l-92 -528q-51 -29 -151.5 -55.5t-204.5 -26.5z" />
    <glyph glyph-name="gbreve" unicode="&#x11f;" horiz-adv-x="796" 
d="M250 -436q-194 0 -297 61l45 176q62 -34 98 -52t94.5 -36t110.5 -18q37 0 70 8q39 42 98 457l20 127l-272 -293h-131q-23 100 -23 219q0 157 30.5 305.5t96.5 251.5q58 84 125 132t160 48q107 0 219 -59l103 61h22l-155 -960q-18 -108 -73 -204t-145.5 -160t-195.5 -64z
M500 356q38 224 65 414q-72 61 -168 82q-47 -96 -77.5 -246t-30.5 -297v-116l20 -9zM537 1085q-69 0 -108.5 55t-47.5 148l129 21q3 -101 63 -146q68 8 121 51.5t82 100.5l35 -12q-60 -110 -121.5 -164t-152.5 -54z" />
    <glyph glyph-name="Gdotaccent" unicode="&#x120;" horiz-adv-x="1052" 
d="M874 1282l-143 41q26 46 47.5 104.5t28.5 92.5l162 -19q-38 -144 -95 -219zM588 -16q-221 0 -361.5 124.5t-140.5 346.5q0 164 58 307t157 240.5t232 153.5t280 56q166 0 303 -67l-53 -316h-57l-62 285q-62 33 -149 33q-99 0 -182 -62t-134.5 -160.5t-79.5 -214
t-28 -229.5q0 -430 258 -430q37 0 84 15l71 456l-139 35l8 37h383l-92 -528q-51 -29 -151.5 -55.5t-204.5 -26.5z" />
    <glyph glyph-name="gdotaccent" unicode="&#x121;" horiz-adv-x="796" 
d="M250 -436q-194 0 -297 61l45 176q62 -34 98 -52t94.5 -36t110.5 -18q37 0 70 8q39 42 98 457l20 127l-272 -293h-131q-23 100 -23 219q0 157 30.5 305.5t96.5 251.5q58 84 125 132t160 48q107 0 219 -59l103 61h22l-155 -960q-18 -108 -73 -204t-145.5 -160t-195.5 -64z
M500 356q38 224 65 414q-72 61 -168 82q-47 -96 -77.5 -246t-30.5 -297v-116l20 -9zM610 1149l-131 41q60 114 74 184l149 -18q-43 -143 -92 -207z" />
    <glyph glyph-name="Gcommaaccent" unicode="&#x122;" horiz-adv-x="1052" 
d="M672 -127l16 -18l-156 -361h-38l41 379h137zM588 -16q-221 0 -361.5 124.5t-140.5 346.5q0 164 58 307t157 240.5t232 153.5t280 56q166 0 303 -67l-53 -316h-57l-62 285q-62 33 -149 33q-99 0 -182 -62t-134.5 -160.5t-79.5 -214t-28 -229.5q0 -430 258 -430q37 0 84 15
l71 456l-139 35l8 37h383l-92 -528q-51 -29 -151.5 -55.5t-204.5 -26.5z" />
    <glyph glyph-name="gcommaaccent" unicode="&#x123;" horiz-adv-x="796" 
d="M250 -436q-194 0 -297 61l45 176q62 -34 98 -52t94.5 -36t110.5 -18q37 0 70 8q39 42 98 457l20 127l-272 -293h-131q-23 100 -23 219q0 157 30.5 305.5t96.5 251.5q58 84 125 132t160 48q107 0 219 -59l103 61h22l-155 -960q-18 -108 -73 -204t-145.5 -160t-195.5 -64z
M500 356q38 224 65 414q-72 61 -168 82q-47 -96 -77.5 -246t-30.5 -297v-116l20 -9zM504 1051l-17 18l156 367h39l-41 -385h-137z" />
    <glyph glyph-name="Hcircumflex" unicode="&#x124;" horiz-adv-x="1294" 
d="M33 0l4 37l143 22l182 1074l-135 22l9 39h520l-8 -37l-138 -22l-84 -492h412l80 490l-133 22l8 39h520l-6 -37l-139 -22l-183 -1074l129 -22l-4 -39h-520l4 37l142 22l90 527h-410l-88 -527l129 -20l-4 -39h-520zM895 1528h63l154 -240l-33 -24l-188 141l-258 -145
l-17 26z" />
    <glyph glyph-name="hcircumflex" unicode="&#x125;" horiz-adv-x="907" 
d="M41 0l225 1323h-135v37l330 80l47 -29l-119 -696q200 237 322 237q51 0 79.5 -66t28.5 -179q0 -86 -18 -191l-70 -395l14 -12l150 108l23 -39l-234 -194l-197 32l82 494q17 134 17 211q0 46 -6 67l-27 11q-71 -44 -176 -158l-109 -641h-227zM408 1710h63l154 -240
l-33 -24l-189 141l-258 -145l-16 26z" />
    <glyph glyph-name="Hbar" unicode="&#x126;" horiz-adv-x="1294" 
d="M33 0l4 37l143 22l135 795h-102l10 53h101l38 226l-135 22l9 39h520l-8 -37l-138 -22l-39 -228h410l37 226l-133 22l8 39h520l-6 -37l-139 -22l-39 -228h94l-12 -53h-92l-134 -793l129 -22l-4 -39h-520l4 37l142 22l90 527h-410l-88 -527l129 -20l-4 -39h-520zM526 643
h412l35 211h-412z" />
    <glyph glyph-name="hbar" unicode="&#x127;" horiz-adv-x="907" 
d="M41 0l184 1083h-119l13 58h117l30 182h-135v37l330 80l47 -29l-47 -270h211l-13 -58h-206l-62 -366q198 235 320 235q51 0 79.5 -66t28.5 -179q0 -86 -18 -191l-70 -395l14 -12l150 108l23 -39l-234 -194l-197 32l82 494q17 134 17 211q0 46 -6 67l-27 11
q-71 -44 -176 -158l-109 -641h-227z" />
    <glyph glyph-name="Itilde" unicode="&#x128;" horiz-adv-x="673" 
d="M49 0l4 37l142 24l182 1072l-133 22l6 39h524l-6 -37l-137 -24l-185 -1070l132 -24l-5 -39h-524zM805 1481l29 -25l-148 -149h-43l-291 57l-57 -47l-23 24l140 138l49 4l282 -60z" />
    <glyph glyph-name="itilde" unicode="&#x129;" horiz-adv-x="514" 
d="M272 -16l-192 32l137 828h-139v37l334 71l45 -20l-135 -811l16 -10l143 106l23 -39zM600 1292l29 -26l-148 -148h-43l-225 88l-96 -71l-27 24l168 150l47 2l223 -82z" />
    <glyph glyph-name="Imacron" unicode="&#x12a;" horiz-adv-x="673" 
d="M49 0l4 37l142 24l182 1072l-133 22l6 39h524l-6 -37l-137 -24l-185 -1070l132 -24l-5 -39h-524zM748 1374h-414l12 56h414z" />
    <glyph glyph-name="imacron" unicode="&#x12b;" horiz-adv-x="514" 
d="M272 -16l-192 32l137 828h-139v37l334 71l45 -20l-135 -811l16 -10l143 106l23 -39zM555 1210h-381l14 54h381z" />
    <glyph glyph-name="Ibreve" unicode="&#x12c;" horiz-adv-x="673" 
d="M49 0l4 37l142 24l182 1072l-133 22l6 39h524l-6 -37l-137 -24l-185 -1070l132 -24l-5 -39h-524zM485 1282q-67 0 -117 58.5t-57 148.5l129 18q5 -93 78 -147q74 9 137.5 51.5t92.5 97.5l34 -12q-59 -106 -129.5 -160.5t-167.5 -54.5z" />
    <glyph glyph-name="ibreve" unicode="&#x12d;" horiz-adv-x="514" 
d="M272 -16l-192 32l137 828h-139v37l334 71l45 -20l-135 -811l16 -10l143 106l23 -39zM315 1085q-69 0 -108 54.5t-47 148.5l129 21q3 -101 63 -146q68 8 121 51.5t82 100.5l35 -12q-60 -110 -121.5 -164t-153.5 -54z" />
    <glyph glyph-name="Iogonek" unicode="&#x12e;" horiz-adv-x="673" 
d="M49 0l4 37l142 24l182 1072l-133 22l6 39h524l-6 -37l-137 -24l-178 -1024h2l-2 -3l-7 -43l132 -24l-5 -39h-215q-134 -162 -153 -272l20 -13q26 -5 82 5.5t99 23.5l43 14l18 -94q-58 -35 -149.5 -62t-186.5 -30l-41 39q31 169 207 389h-248z" />
    <glyph glyph-name="iogonek" unicode="&#x12f;" horiz-adv-x="514" 
d="M403 -242l21 -94q-58 -35 -149.5 -62t-186.5 -30l-41 39q26 163 201 377l-168 28l137 828h-139v37l334 71l45 -20l-135 -811l16 -10l143 106l23 -39l-127 -106q-195 -221 -215 -344l20 -13q26 -5 81.5 5.5t97.5 23.5zM473 1106l-182 57q28 51 58 120t36 99l203 -32
q-56 -170 -115 -244z" />
    <glyph glyph-name="Idotaccent" unicode="&#x130;" horiz-adv-x="673" 
d="M49 0l4 37l142 24l182 1072l-133 22l6 39h524l-6 -37l-137 -24l-185 -1070l132 -24l-5 -39h-524zM578 1282l-144 41q26 46 47.5 104.5t28.5 92.5l162 -19q-38 -146 -94 -219z" />
    <glyph glyph-name="dotlessi" unicode="&#x131;" horiz-adv-x="514" 
d="M272 -16l-192 32l137 828h-139v37l334 71l45 -20l-135 -811l16 -10l143 106l23 -39z" />
    <glyph glyph-name="IJ" unicode="&#x132;" horiz-adv-x="1443" 
d="M49 0l4 37l142 24l182 1072l-133 22l6 39h524l-6 -37l-137 -24l-185 -1070l132 -24l-5 -39h-524zM958 -16q-164 0 -268 49l60 358h57l37 -317q2 0 21.5 -6t36 -9.5t28.5 -3.5q33 0 57.5 17t41 51t26.5 69t20 87l144 851l-138 25l9 39h536l-4 -37l-149 -24l-140 -811
q-24 -149 -134.5 -243.5t-240.5 -94.5z" />
    <glyph glyph-name="ij" unicode="&#x133;" horiz-adv-x="1003" 
d="M272 -16l-192 32l137 828h-139v37l334 71l45 -20l-135 -811l16 -10l143 106l23 -39zM440 1106l-157 57q26 51 53 120t33 99l176 -32q-52 -171 -105 -244zM475 -438l-22 16q94 168 131 391l145 875h-135v37l332 71l45 -20l-156 -934q-20 -120 -117 -234.5t-223 -201.5z
M956 1106l-157 57q26 48 53 117.5t33 101.5l176 -32q-50 -165 -105 -244z" />
    <glyph glyph-name="Jcircumflex" unicode="&#x134;" horiz-adv-x="753" 
d="M270 -16q-164 0 -268 49l59 358h58l37 -317q2 0 21.5 -6t36 -9.5t28.5 -3.5q33 0 57.5 17t41 51t26.5 69t20 87l143 851l-137 25l8 39h537l-4 -37l-150 -24l-139 -811q-24 -149 -134.5 -243.5t-240.5 -94.5zM723 1528h63l154 -240l-33 -24l-188 141l-258 -145l-17 26z
" />
    <glyph glyph-name="jcircumflex" unicode="&#x135;" horiz-adv-x="499" 
d="M-27 -438l-22 16q94 168 131 391l145 875h-135v37l332 71l45 -20l-156 -934q-20 -120 -117 -234.5t-223 -201.5zM383 1368h63l185 -272l-23 -23l-227 158l-266 -166l-19 20z" />
    <glyph glyph-name="Kcommaaccent" unicode="&#x136;" horiz-adv-x="1091" 
d="M662 -127l16 -18l-156 -361h-39l41 379h138zM33 0l4 37l145 20l180 1076l-135 22l9 39h524l-6 -37l-140 -24l-182 -1074l129 -20l-2 -39h-526zM776 0l-225 543l8 41l436 530l-127 47l6 33h404l-10 -39l-168 -41l-352 -405l290 -631l88 -43l-4 -35h-346z" />
    <glyph glyph-name="kcommaaccent" unicode="&#x137;" horiz-adv-x="866" 
d="M49 0l223 1323h-137v37l336 82l43 -29l-111 -651q139 142 236 188l182 -47q8 -47 8 -96q0 -101 -48.5 -174t-151.5 -129l94 -367l20 -6l129 86l19 -39l-248 -194l-139 30l-76 371l6 31q72 74 125 174.5t53 185.5q0 17 -4 41l-20 10q-72 -29 -201 -155l-113 -672h-225z
M442 -127l17 -18l-156 -361h-39l41 379h137z" />
    <glyph glyph-name="Lacute" unicode="&#x139;" horiz-adv-x="929" 
d="M694 1544l84 -100v-27l-379 -139l-10 16zM33 0l4 37l145 26l180 1070l-135 22l9 39h524l-8 -37l-138 -22l-182 -1065h262l221 311l48 -8l-109 -373h-821z" />
    <glyph glyph-name="lacute" unicode="&#x13a;" horiz-adv-x="456" 
d="M510 1737l84 -101v-26l-379 -140l-10 17zM51 16l215 1307h-137v37l334 82l43 -29l-217 -1298l16 -13l144 115l24 -39l-231 -194z" />
    <glyph glyph-name="Lcommaaccent" unicode="&#x13b;" horiz-adv-x="929" 
d="M594 -127l16 -18l-155 -361h-39l41 379h137zM33 0l4 37l145 26l180 1070l-135 22l9 39h524l-8 -37l-138 -22l-182 -1065h262l221 311l48 -8l-109 -373h-821z" />
    <glyph glyph-name="lcommaaccent" unicode="&#x13c;" horiz-adv-x="456" 
d="M258 -127l16 -18l-155 -361h-39l41 379h137zM51 16l215 1307h-137v37l334 82l43 -29l-217 -1298l16 -13l144 115l24 -39l-231 -194z" />
    <glyph glyph-name="Lcaron" unicode="&#x13d;" horiz-adv-x="929" 
d="M858 895h-39l64 356h153l-155 -338zM33 0l4 37l145 26l180 1070l-135 22l9 39h524l-8 -37l-138 -22l-182 -1065h262l221 311l48 -8l-109 -373h-821z" />
    <glyph glyph-name="lcaron" unicode="&#x13e;" horiz-adv-x="606" 
d="M584 1085h-39l63 357h154l-156 -338zM51 16l215 1307h-137v37l334 82l43 -29l-217 -1298l16 -13l144 115l24 -39l-231 -194z" />
    <glyph glyph-name="Ldot" unicode="&#x13f;" horiz-adv-x="929" 
d="M33 0l4 37l145 26l180 1070l-135 22l9 39h524l-8 -37l-138 -22l-182 -1065h262l221 311l48 -8l-109 -373h-821zM766 600q63 129 78 197q50 4 102 -4.5t78 -22.5q-41 -146 -92 -215q-40 0 -87.5 12t-78.5 33z" />
    <glyph glyph-name="ldot" unicode="&#x140;" horiz-adv-x="544" 
d="M569 530l-139 39q25 43 46 99t28 90l155 -19q-40 -146 -90 -209zM51 16l215 1307h-137v37l334 82l43 -29l-217 -1298l16 -13l144 115l24 -39l-231 -194z" />
    <glyph glyph-name="Lslash" unicode="&#x141;" horiz-adv-x="929" 
d="M33 0l4 37l145 26l60 351l-95 -49l-16 36l121 74l110 658l-135 22l9 39h524l-8 -37l-138 -22l-84 -490l134 82l32 -72l-180 -96l-84 -489h262l221 311l48 -8l-109 -373h-821z" />
    <glyph glyph-name="lslash" unicode="&#x142;" horiz-adv-x="456" 
d="M51 16l84 514l-112 -61l-15 37l137 88l121 729h-137v37l334 82l43 -29l-111 -661l113 71l33 -71l-160 -88l-92 -549l16 -13l144 115l24 -39l-231 -194z" />
    <glyph glyph-name="Nacute" unicode="&#x143;" horiz-adv-x="1218" 
d="M1014 1544l84 -100v-27l-379 -139l-10 16zM10 0l4 35l144 49l174 1012l-127 61l4 37h334l430 -801h6l125 707l-186 57l6 37h417l-6 -35l-147 -51l-195 -1124h-104l-490 956h-8l-145 -848l198 -55l-6 -37h-428z" />
    <glyph glyph-name="nacute" unicode="&#x144;" horiz-adv-x="923" 
d="M709 -16l-197 32l80 494q16 106 16 209q0 51 -4 65l-29 11q-65 -37 -165 -142l-107 -653h-225l139 844h-139v37l334 71l45 -20l-33 -201q188 221 309 221q51 0 80 -66t29 -179q0 -80 -19 -191l-69 -395l14 -12l150 108l22 -39zM686 1391l154 -43v-27l-285 -244l-10 13z
" />
    <glyph glyph-name="Ncommaaccent" unicode="&#x145;" horiz-adv-x="1218" 
d="M684 -127l16 -18l-155 -361h-39l41 379h137zM10 0l4 35l144 49l174 1012l-127 61l4 37h334l430 -801h6l125 707l-186 57l6 37h417l-6 -35l-147 -51l-195 -1124h-104l-490 956h-8l-145 -848l198 -55l-6 -37h-428z" />
    <glyph glyph-name="ncommaaccent" unicode="&#x146;" horiz-adv-x="923" 
d="M709 -16l-197 32l80 494q16 106 16 209q0 51 -4 65l-29 11q-65 -37 -165 -142l-107 -653h-225l139 844h-139v37l334 71l45 -20l-33 -201q188 221 309 221q51 0 80 -66t29 -179q0 -80 -19 -191l-69 -395l14 -12l150 108l22 -39zM473 -127l16 -18l-155 -361h-39l41 379h137
z" />
    <glyph glyph-name="Ncaron" unicode="&#x147;" horiz-adv-x="1218" 
d="M831 1282h-61l-145 256l30 25l174 -152l287 150l17 -23zM10 0l4 35l144 49l174 1012l-127 61l4 37h334l430 -801h6l125 707l-186 57l6 37h417l-6 -35l-147 -51l-195 -1124h-104l-490 956h-8l-145 -848l198 -55l-6 -37h-428z" />
    <glyph glyph-name="ncaron" unicode="&#x148;" horiz-adv-x="923" 
d="M709 -16l-197 32l80 494q16 106 16 209q0 51 -4 65l-29 11q-65 -37 -165 -142l-107 -653h-225l139 844h-139v37l334 71l45 -20l-33 -201q188 221 309 221q51 0 80 -66t29 -179q0 -80 -19 -191l-69 -395l14 -12l150 108l22 -39zM602 1075h-63l-142 285l25 20l184 -170
l236 172l18 -22z" />
    <glyph glyph-name="napostrophe" unicode="&#x149;" horiz-adv-x="923" 
d="M709 -16l-197 32l80 494q16 106 16 209q0 51 -4 65l-29 11q-65 -37 -165 -142l-107 -653h-225l139 844h-139v37l334 71l45 -20l-33 -201q188 221 309 221q51 0 80 -66t29 -179q0 -80 -19 -191l-69 -395l14 -12l150 108l22 -39zM537 1462q-50 -198 -271 -372l-16 10
q52 86 86.5 190.5t38.5 192.5q37 9 85.5 3.5t76.5 -24.5z" />
    <glyph glyph-name="Eng" unicode="&#x14a;" horiz-adv-x="1218" 
d="M10 0l4 35l144 49l174 1012l-127 61l4 37h334l430 -801h6l125 707l-186 57l6 37h417l-6 -35l-147 -51l-189 -1081q-7 -78 -23.5 -139t-50 -124t-92 -119t-143.5 -104l-51 56q129 79 185.5 160t80.5 227h-16l-490 956h-8l-145 -848l198 -55l-6 -37h-428z" />
    <glyph glyph-name="eng" unicode="&#x14b;" horiz-adv-x="923" 
d="M823 516l-86 -518q-20 -120 -117 -234.5t-223 -201.5l-22 16q92 163 129 391l88 541q16 106 16 209q0 51 -4 65l-29 11q-65 -37 -165 -142l-107 -653h-225l139 844h-139v37l334 71l45 -20l-33 -201q188 221 309 221q51 0 80 -66t29 -179q0 -80 -19 -191z" />
    <glyph glyph-name="Omacron" unicode="&#x14c;" horiz-adv-x="1118" 
d="M995 1374h-413l12 56h414zM1182 754q-2 -113 -34 -225.5t-91.5 -210t-138.5 -172.5t-182.5 -118.5t-215.5 -43.5q-202 0 -318 123.5t-116 330.5q0 200 85 377t239.5 287t341.5 110q210 0 320 -119.5t110 -338.5zM555 55q78 0 144.5 64t110.5 169.5t68.5 240t24.5 276.5
q0 73 -10 133.5t-30.5 106.5t-54 72t-77.5 26q-79 0 -149 -67.5t-116.5 -175t-73.5 -239.5t-27 -262q0 -98 18.5 -173t62.5 -123t109 -48z" />
    <glyph glyph-name="omacron" unicode="&#x14d;" horiz-adv-x="804" 
d="M328 -16q-120 0 -190 94t-70 235q0 116 29.5 227.5t84.5 204.5t144.5 150t199.5 57q125 0 201 -90t76 -250q0 -85 -20.5 -172t-61 -166.5t-96.5 -143t-133 -103t-164 -43.5zM393 51q77 68 121.5 234t46.5 323v64q0 132 -14 184q-41 25 -88 27q-71 -62 -110.5 -224
t-41.5 -319q0 -213 12 -262q28 -24 74 -27zM739 1210h-381l15 54h381z" />
    <glyph glyph-name="Obreve" unicode="&#x14e;" horiz-adv-x="1118" 
d="M733 1280q-67 0 -117 58.5t-57 148.5l129 18q5 -93 78 -147q74 9 137 51.5t92 97.5l35 -12q-59 -106 -129.5 -160.5t-167.5 -54.5zM1182 754q-2 -113 -34 -225.5t-91.5 -210t-138.5 -172.5t-182.5 -118.5t-215.5 -43.5q-202 0 -318 123.5t-116 330.5q0 200 85 377
t239.5 287t341.5 110q210 0 320 -119.5t110 -338.5zM555 55q78 0 144.5 64t110.5 169.5t68.5 240t24.5 276.5q0 73 -10 133.5t-30.5 106.5t-54 72t-77.5 26q-79 0 -149 -67.5t-116.5 -175t-73.5 -239.5t-27 -262q0 -98 18.5 -173t62.5 -123t109 -48z" />
    <glyph glyph-name="obreve" unicode="&#x14f;" horiz-adv-x="804" 
d="M328 -16q-120 0 -190 94t-70 235q0 116 29.5 227.5t84.5 204.5t144.5 150t199.5 57q125 0 201 -90t76 -250q0 -85 -20.5 -172t-61 -166.5t-96.5 -143t-133 -103t-164 -43.5zM393 51q77 68 121.5 234t46.5 323v64q0 132 -14 184q-41 25 -88 27q-71 -62 -110.5 -224
t-41.5 -319q0 -213 12 -262q28 -24 74 -27zM524 1085q-69 0 -108 54.5t-47 148.5l129 21q3 -101 63 -146q68 8 121 51.5t82 100.5l35 -12q-60 -110 -121.5 -164t-153.5 -54z" />
    <glyph glyph-name="Ohungarumlaut" unicode="&#x150;" horiz-adv-x="1118" 
d="M1182 754q-2 -113 -34 -225.5t-91.5 -210t-138.5 -172.5t-182.5 -118.5t-215.5 -43.5q-202 0 -318 123.5t-116 330.5q0 200 85 377t239.5 287t341.5 110q210 0 320 -119.5t110 -338.5zM555 55q78 0 144.5 64t110.5 169.5t68.5 240t24.5 276.5q0 73 -10 133.5t-30.5 106.5
t-54 72t-77.5 26q-79 0 -149 -67.5t-116.5 -175t-73.5 -239.5t-27 -262q0 -98 18.5 -173t62.5 -123t109 -48zM776 1622l101 -76l6 -26l-330 -238l-16 16zM1133 1544l84 -100v-27l-381 -139l-11 22z" />
    <glyph glyph-name="ohungarumlaut" unicode="&#x151;" horiz-adv-x="804" 
d="M328 -16q-120 0 -190 94t-70 235q0 116 29.5 227.5t84.5 204.5t144.5 150t199.5 57q125 0 201 -90t76 -250q0 -85 -20.5 -172t-61 -166.5t-96.5 -143t-133 -103t-164 -43.5zM393 51q77 68 121.5 234t46.5 323v64q0 132 -14 184q-41 25 -88 27q-71 -62 -110.5 -224
t-41.5 -319q0 -213 12 -262q28 -24 74 -27zM756 1384l153 -43v-26l-288 -228l-19 15zM465 1425l145 -36v-27l-219 -266l-18 10z" />
    <glyph glyph-name="OE" unicode="&#x152;" horiz-adv-x="1429" 
d="M1317 567l-344 17l-90 -516h278l189 272l53 -10l-100 -330h-631q-72 -16 -142 -16q-207 0 -325.5 118.5t-118.5 333.5q0 170 56 317t149.5 246.5t217 156t257.5 56.5q82 0 149 -18h592l-53 -307h-61l-62 241h-264l-84 -487l350 23zM547 51q37 0 84 21l180 1056
q-38 19 -68 19q-109 0 -197 -108t-133.5 -274t-45.5 -351q0 -181 43.5 -272t136.5 -91z" />
    <glyph glyph-name="oe" unicode="&#x153;" horiz-adv-x="1116" 
d="M1047 352l16 -39q-62 -86 -171 -181.5t-228 -147.5l-142 28l-14 68q-89 -96 -201 -96q-78 0 -133.5 45.5t-81.5 119.5t-26 168q0 92 18.5 182t57.5 172t93.5 144.5t132.5 99.5t169 37q53 0 100.5 -22t79.5 -58q85 78 203 78q108 0 233 -71v-199q-68 -62 -187 -134.5
t-239 -125.5q0 -20 -1 -59t-1 -58q0 -92 8 -147l23 -11q22 8 49 24t49.5 31t55 40t49 39t49 40.5t39.5 32.5zM342 70q39 13 69 29.5t45 28.5t42 36q-6 46 -6 125q3 154 40 288t89 220q-54 61 -150 84q-72 -66 -118.5 -227.5t-49.5 -313.5q0 -201 39 -270zM831 854
q-30 -47 -60 -153.5t-42 -215.5q121 73 244 187v114q-75 55 -142 68z" />
    <glyph glyph-name="Racute" unicode="&#x154;" horiz-adv-x="1085" 
d="M33 0l4 35l141 28l182 1063l-133 31l9 37h532q145 0 224 -68.5t79 -195.5q0 -269 -248 -357l176 -495l99 -45l-6 -33h-338l-162 532h-82l-80 -469l131 -26l-6 -37h-522zM524 602q122 6 198.5 84.5t76.5 216.5q0 221 -142 221h-45zM887 1544l84 -100v-27l-379 -139l-10 16
z" />
    <glyph glyph-name="racute" unicode="&#x155;" horiz-adv-x="659" 
d="M303 0h-225l139 844h-139v37l328 71l51 -20l-31 -182q141 202 203 202q54 0 108 -65l-106 -215l-90 112q-78 -55 -127 -110zM588 1391l153 -43v-27l-284 -244l-11 13z" />
    <glyph glyph-name="Rcommaaccent" unicode="&#x156;" horiz-adv-x="1085" 
d="M33 0l4 35l141 28l182 1063l-133 31l9 37h532q145 0 224 -68.5t79 -195.5q0 -269 -248 -357l176 -495l99 -45l-6 -33h-338l-162 532h-82l-80 -469l131 -26l-6 -37h-522zM524 602q122 6 198.5 84.5t76.5 216.5q0 221 -142 221h-45zM651 -127l17 -18l-156 -361h-39l41 379
h137z" />
    <glyph glyph-name="rcommaaccent" unicode="&#x157;" horiz-adv-x="659" 
d="M303 0h-225l139 844h-139v37l328 71l51 -20l-31 -182q141 202 203 202q54 0 108 -65l-106 -215l-90 112q-78 -55 -127 -110zM233 -127l17 -18l-156 -361h-39l41 379h137z" />
    <glyph glyph-name="Rcaron" unicode="&#x158;" horiz-adv-x="1085" 
d="M33 0l4 35l141 28l182 1063l-133 31l9 37h532q145 0 224 -68.5t79 -195.5q0 -269 -248 -357l176 -495l99 -45l-6 -33h-338l-162 532h-82l-80 -469l131 -26l-6 -37h-522zM524 602q122 6 198.5 84.5t76.5 216.5q0 221 -142 221h-45zM715 1282h-62l-145 256l31 25l174 -152
l286 150l17 -23z" />
    <glyph glyph-name="rcaron" unicode="&#x159;" horiz-adv-x="659" 
d="M303 0h-225l139 844h-139v37l328 71l51 -20l-31 -182q141 202 203 202q54 0 108 -65l-106 -215l-90 112q-78 -55 -127 -110zM526 1075h-63l-141 285l24 20l184 -170l236 172l18 -22z" />
    <glyph glyph-name="Sacute" unicode="&#x15a;" horiz-adv-x="870" 
d="M369 -16q-158 0 -312 77l56 326h57l49 -270q50 -37 91.5 -49.5t97.5 -12.5q91 0 162 56t71 165q0 47 -24 84t-62 62t-84.5 49t-93 51t-84.5 60t-62 84t-24 116q0 127 62.5 226.5t163 151.5t216.5 52q191 0 303 -75l-51 -308h-59l-49 271q-32 22 -64 29.5t-86 7.5
q-93 0 -161 -59t-68 -140q0 -49 25 -87t65 -63t88 -48.5t96 -50.5t88 -60.5t65 -86.5t25 -122q0 -88 -27 -161t-74 -123.5t-110.5 -85t-135.5 -50.5t-150 -16zM844 1544l84 -100v-27l-379 -139l-10 16z" />
    <glyph glyph-name="sacute" unicode="&#x15b;" horiz-adv-x="700" 
d="M596 1391l154 -43v-27l-285 -244l-10 13zM668 612h-45l-41 191q-35 13 -83 23t-77 10q-50 0 -84.5 -26t-34.5 -60q0 -21 9 -41t33.5 -45.5t39 -39t55.5 -47.5t54 -45q76 -63 118.5 -121t42.5 -126q0 -70 -58.5 -141.5t-143.5 -115.5t-160 -44q-159 0 -264 57l53 313h43
l47 -219q87 -43 199 -43q45 0 69.5 24t24.5 60q0 22 -10.5 45t-34.5 48.5t-43.5 43.5t-56.5 49q-9 7 -13 11q-52 47 -82 79t-57 83.5t-27 103.5q0 42 31 96t79.5 102t118 81.5t138.5 33.5q95 0 211 -55z" />
    <glyph glyph-name="Scircumflex" unicode="&#x15c;" horiz-adv-x="870" 
d="M369 -16q-158 0 -312 77l56 326h57l49 -270q50 -37 91.5 -49.5t97.5 -12.5q91 0 162 56t71 165q0 47 -24 84t-62 62t-84.5 49t-93 51t-84.5 60t-62 84t-24 116q0 127 62.5 226.5t163 151.5t216.5 52q191 0 303 -75l-51 -308h-59l-49 271q-32 22 -64 29.5t-86 7.5
q-93 0 -161 -59t-68 -140q0 -49 25 -87t65 -63t88 -48.5t96 -50.5t88 -60.5t65 -86.5t25 -122q0 -88 -27 -161t-74 -123.5t-110.5 -85t-135.5 -50.5t-150 -16zM700 1528h64l154 -240l-33 -24l-189 141l-258 -145l-16 26z" />
    <glyph glyph-name="scircumflex" unicode="&#x15d;" horiz-adv-x="700" 
d="M541 1368h63l184 -272l-22 -23l-227 158l-267 -166l-18 20zM668 612h-45l-41 191q-35 13 -83 23t-77 10q-50 0 -84.5 -26t-34.5 -60q0 -21 9 -41t33.5 -45.5t39 -39t55.5 -47.5t54 -45q76 -63 118.5 -121t42.5 -126q0 -70 -58.5 -141.5t-143.5 -115.5t-160 -44
q-159 0 -264 57l53 313h43l47 -219q87 -43 199 -43q45 0 69.5 24t24.5 60q0 22 -10.5 45t-34.5 48.5t-43.5 43.5t-56.5 49q-9 7 -13 11q-52 47 -82 79t-57 83.5t-27 103.5q0 42 31 96t79.5 102t118 81.5t138.5 33.5q95 0 211 -55z" />
    <glyph glyph-name="Scedilla" unicode="&#x15e;" horiz-adv-x="870" 
d="M338 -459q-37 0 -83 8t-69 21l35 111q91 -50 174 -50q51 0 97 21q-15 31 -51.5 66.5t-58 51t-75.5 52.5l4 22l115 142q-9 0 -28.5 -1t-28.5 -1q-158 0 -312 77l56 326h57l49 -270q50 -37 91.5 -49.5t97.5 -12.5q91 0 162 56t71 165q0 47 -24 84t-62 62t-84.5 49t-93 51
t-84.5 60t-62 84t-24 116q0 127 62.5 226.5t163 151.5t216.5 52q191 0 303 -75l-51 -308h-59l-49 271q-32 22 -64 29.5t-86 7.5q-93 0 -161 -59t-68 -140q0 -49 25 -87t65 -63t88 -48.5t96 -50.5t88 -60.5t65 -86.5t25 -122q0 -182 -105 -289t-272 -137l-73 -94
q67 -57 106 -105.5t39 -97.5q0 -52 -66 -104t-157 -52z" />
    <glyph glyph-name="scedilla" unicode="&#x15f;" horiz-adv-x="700" 
d="M211 -451q-37 0 -83 8t-69 21l35 111q89 -49 174 -49q53 0 97 20q-15 31 -51.5 66.5t-58 51t-75.5 52.5l4 23l107 131q-157 0 -262 57l53 313h43l47 -219q87 -43 199 -43q45 0 69.5 24t24.5 60q0 22 -10.5 45t-34.5 48.5t-43.5 43.5t-56.5 49q-9 7 -13 11q-52 47 -82 79
t-57 83.5t-27 103.5q0 42 31 96t79.5 102t118 81.5t138.5 33.5q95 0 211 -55l-51 -285h-45l-41 191q-35 13 -83 23t-77 10q-50 0 -84.5 -26t-34.5 -60q0 -21 9 -41t33.5 -45.5t39 -39t55.5 -47.5t54 -45q76 -63 118.5 -121t42.5 -126q0 -93 -94.5 -180t-206.5 -113l-65 -84
q67 -57 106 -105.5t39 -97.5q0 -52 -66 -104t-157 -52z" />
    <glyph glyph-name="Scaron" unicode="&#x160;" horiz-adv-x="870" 
d="M369 -16q-158 0 -312 77l56 326h57l49 -270q50 -37 91.5 -49.5t97.5 -12.5q91 0 162 56t71 165q0 47 -24 84t-62 62t-84.5 49t-93 51t-84.5 60t-62 84t-24 116q0 127 62.5 226.5t163 151.5t216.5 52q191 0 303 -75l-51 -308h-59l-49 271q-32 22 -64 29.5t-86 7.5
q-93 0 -161 -59t-68 -140q0 -49 25 -87t65 -63t88 -48.5t96 -50.5t88 -60.5t65 -86.5t25 -122q0 -88 -27 -161t-74 -123.5t-110.5 -85t-135.5 -50.5t-150 -16zM690 1282h-61l-146 256l31 25l174 -152l287 150l16 -23z" />
    <glyph glyph-name="scaron" unicode="&#x161;" horiz-adv-x="700" 
d="M547 1075h-64l-141 285l25 20l184 -170l235 172l19 -22zM668 612h-45l-41 191q-35 13 -83 23t-77 10q-50 0 -84.5 -26t-34.5 -60q0 -21 9 -41t33.5 -45.5t39 -39t55.5 -47.5t54 -45q76 -63 118.5 -121t42.5 -126q0 -70 -58.5 -141.5t-143.5 -115.5t-160 -44
q-159 0 -264 57l53 313h43l47 -219q87 -43 199 -43q45 0 69.5 24t24.5 60q0 22 -10.5 45t-34.5 48.5t-43.5 43.5t-56.5 49q-9 7 -13 11q-52 47 -82 79t-57 83.5t-27 103.5q0 42 31 96t79.5 102t118 81.5t138.5 33.5q95 0 211 -55z" />
    <glyph glyph-name="Tcommaaccent" unicode="&#x162;" horiz-adv-x="927" 
d="M492 -127l16 -18l-156 -361h-39l41 379h138zM174 0l6 37l144 29l178 1058h-176l-166 -303h-54l66 373h940l-65 -373h-52l-69 303h-170l-181 -1056l132 -29l-7 -39h-526z" />
    <glyph glyph-name="tcommaaccent" unicode="&#x163;" horiz-adv-x="628" 
d="M78 834l8 45l147 28l150 275h109l-43 -269h217l-15 -79h-215l-108 -687l14 -12q120 68 242 160l20 -31q-54 -65 -161.5 -157.5t-190.5 -122.5l-164 41l125 809h-135zM295 -127l16 -18l-155 -361h-39l41 379h137z" />
    <glyph glyph-name="Tcaron" unicode="&#x164;" horiz-adv-x="927" 
d="M678 1282h-62l-145 256l31 25l174 -152l287 150l16 -23zM174 0l6 37l144 29l178 1058h-176l-166 -303h-54l66 373h940l-65 -373h-52l-69 303h-170l-181 -1056l132 -29l-7 -39h-526z" />
    <glyph glyph-name="tcaron" unicode="&#x165;" horiz-adv-x="628" 
d="M78 834l8 45l147 28l150 275h109l-43 -269h217l-15 -79h-215l-108 -687l14 -12q120 68 242 160l20 -31q-54 -65 -161.5 -157.5t-190.5 -122.5l-164 41l125 809h-135zM639 1085h-39l64 357h153l-155 -338z" />
    <glyph glyph-name="Tbar" unicode="&#x166;" horiz-adv-x="927" 
d="M174 0l6 37l144 29l86 520h-164l12 59h162l82 479h-176l-166 -303h-54l66 373h940l-65 -373h-52l-69 303h-170l-82 -479h160l-13 -59h-157l-89 -518l132 -29l-7 -39h-526z" />
    <glyph glyph-name="tbar" unicode="&#x167;" horiz-adv-x="628" 
d="M78 834l8 45l147 28l150 275h109l-43 -269h217l-15 -79h-215l-39 -252h187l-13 -56h-184l-59 -379l14 -12q120 68 242 160l20 -31q-54 -65 -161.5 -157.5t-190.5 -122.5l-164 41l78 501h-105l13 56h100l39 252h-135z" />
    <glyph glyph-name="Utilde" unicode="&#x168;" horiz-adv-x="1132" 
d="M1057 1481l28 -25l-147 -149h-43l-291 57l-57 -47l-23 24l140 138l49 4l282 -60zM535 -16q-383 0 -383 319q0 16 4 62q0 10 20.5 134.5t54.5 323t52 312.5l-123 20l8 39h512l-6 -37l-125 -22q-35 -197 -79 -464t-44 -278q-6 -47 -6 -86q0 -248 190 -248q77 0 146.5 45
t124.5 139.5t77 223.5l107 637l-166 51l6 39h400l-7 -37l-143 -47l-108 -649q-18 -104 -54.5 -185.5t-84 -135.5t-109 -89.5t-126.5 -51t-138 -15.5z" />
    <glyph glyph-name="utilde" unicode="&#x169;" horiz-adv-x="917" 
d="M711 -16l-201 32l31 193q-194 -225 -332 -225q-48 0 -73 56t-25 157q0 100 20 211l68 436h-142v37l342 71l43 -20l-80 -506q-28 -176 -18 -279l27 -10q90 48 182 152l90 555h-106v37l305 71l45 -20l-133 -815l16 -15l143 115l23 -39zM856 1292l29 -26l-148 -148h-43
l-225 88l-96 -71l-27 24l168 150l47 2l223 -82z" />
    <glyph glyph-name="Umacron" unicode="&#x16a;" horiz-adv-x="1132" 
d="M1020 1374h-414l12 56h414zM535 -16q-383 0 -383 319q0 16 4 62q0 10 20.5 134.5t54.5 323t52 312.5l-123 20l8 39h512l-6 -37l-125 -22q-35 -197 -79 -464t-44 -278q-6 -47 -6 -86q0 -248 190 -248q77 0 146.5 45t124.5 139.5t77 223.5l107 637l-166 51l6 39h400l-7 -37
l-143 -47l-108 -649q-18 -104 -54.5 -185.5t-84 -135.5t-109 -89.5t-126.5 -51t-138 -15.5z" />
    <glyph glyph-name="umacron" unicode="&#x16b;" horiz-adv-x="917" 
d="M711 -16l-201 32l31 193q-194 -225 -332 -225q-48 0 -73 56t-25 157q0 100 20 211l68 436h-142v37l342 71l43 -20l-80 -506q-28 -176 -18 -279l27 -10q90 48 182 152l90 555h-106v37l305 71l45 -20l-133 -815l16 -15l143 115l23 -39zM805 1210h-381l14 54h381z" />
    <glyph glyph-name="Ubreve" unicode="&#x16c;" horiz-adv-x="1132" 
d="M760 1282q-67 0 -117 58.5t-57 148.5l129 18q5 -93 78 -147q74 9 137 51.5t92 97.5l35 -12q-59 -106 -129.5 -160.5t-167.5 -54.5zM535 -16q-383 0 -383 319q0 16 4 62q0 10 20.5 134.5t54.5 323t52 312.5l-123 20l8 39h512l-6 -37l-125 -22q-35 -197 -79 -464t-44 -278
q-6 -47 -6 -86q0 -248 190 -248q77 0 146.5 45t124.5 139.5t77 223.5l107 637l-166 51l6 39h400l-7 -37l-143 -47l-108 -649q-18 -104 -54.5 -185.5t-84 -135.5t-109 -89.5t-126.5 -51t-138 -15.5z" />
    <glyph glyph-name="ubreve" unicode="&#x16d;" horiz-adv-x="917" 
d="M711 -16l-201 32l31 193q-194 -225 -332 -225q-48 0 -73 56t-25 157q0 100 20 211l68 436h-142v37l342 71l43 -20l-80 -506q-28 -176 -18 -279l27 -10q90 48 182 152l90 555h-106v37l305 71l45 -20l-133 -815l16 -15l143 115l23 -39zM563 1085q-69 0 -108 54.5t-47 148.5
l129 21q3 -101 63 -146q68 8 121 51.5t82 100.5l35 -12q-60 -110 -121.5 -164t-153.5 -54z" />
    <glyph glyph-name="Uring" unicode="&#x16e;" horiz-adv-x="1132" 
d="M535 -16q-383 0 -383 319q0 16 4 62q0 10 20.5 134.5t54.5 323t52 312.5l-123 20l8 39h512l-6 -37l-125 -22q-35 -197 -79 -464t-44 -278q-6 -47 -6 -86q0 -248 190 -248q77 0 146.5 45t124.5 139.5t77 223.5l107 637l-166 51l6 39h400l-7 -37l-143 -47l-108 -649
q-18 -104 -54.5 -185.5t-84 -135.5t-109 -89.5t-126.5 -51t-138 -15.5zM817 1317q55 0 94 38t39 91q0 51 -28.5 76.5t-77.5 25.5q-55 0 -92 -36t-37 -91q0 -53 30 -78.5t72 -25.5zM813 1278q-59 0 -101 37t-42 106q0 67 55 116.5t123 49.5q62 0 103.5 -38t41.5 -103
q0 -67 -55 -117.5t-125 -50.5z" />
    <glyph glyph-name="uring" unicode="&#x16f;" horiz-adv-x="917" 
d="M711 -16l-201 32l31 193q-194 -225 -332 -225q-48 0 -73 56t-25 157q0 100 20 211l68 436h-142v37l342 71l43 -20l-80 -506q-28 -176 -18 -279l27 -10q90 48 182 152l90 555h-106v37l305 71l45 -20l-133 -815l16 -15l143 115l23 -39zM602 1077q-59 0 -100 37.5t-41 106.5
q0 67 54 115t122 48q63 0 104 -37t41 -102q0 -67 -55 -117.5t-125 -50.5zM606 1116q55 0 94 38t39 89t-28.5 78t-77.5 27q-55 0 -92 -36t-37 -91q0 -54 30 -79.5t72 -25.5z" />
    <glyph glyph-name="Uhungarumlaut" unicode="&#x170;" horiz-adv-x="1132" 
d="M535 -16q-383 0 -383 319q0 16 4 62q0 10 20.5 134.5t54.5 323t52 312.5l-123 20l8 39h512l-6 -37l-125 -22q-35 -197 -79 -464t-44 -278q-6 -47 -6 -86q0 -248 190 -248q77 0 146.5 45t124.5 139.5t77 223.5l107 637l-166 51l6 39h400l-7 -37l-143 -47l-108 -649
q-18 -104 -54.5 -185.5t-84 -135.5t-109 -89.5t-126.5 -51t-138 -15.5zM782 1622l101 -76l6 -26l-330 -238l-16 16zM1139 1544l84 -100v-27l-381 -139l-11 22z" />
    <glyph glyph-name="uhungarumlaut" unicode="&#x171;" horiz-adv-x="917" 
d="M711 -16l-201 32l31 193q-194 -225 -332 -225q-48 0 -73 56t-25 157q0 100 20 211l68 436h-142v37l342 71l43 -20l-80 -506q-28 -176 -18 -279l27 -10q90 48 182 152l90 555h-106v37l305 71l45 -20l-133 -815l16 -15l143 115l23 -39zM803 1384l153 -43v-26l-288 -228
l-19 15zM512 1425l145 -36v-27l-219 -266l-18 10z" />
    <glyph glyph-name="Uogonek" unicode="&#x172;" horiz-adv-x="1132" 
d="M535 -16q-383 0 -383 319q0 16 4 62q0 10 20.5 134.5t54.5 323t52 312.5l-123 20l8 39h512l-6 -37l-125 -22q-35 -197 -79 -464t-44 -278q-6 -47 -6 -86q0 -248 190 -248q77 0 146.5 45t124.5 139.5t77 223.5l107 637l-166 51l6 39h400l-7 -37l-143 -47l-108 -649
q-62 -356 -326 -449q-145 -174 -164 -284l21 -13q26 -5 82 5.5t98 23.5l43 14l18 -94q-58 -35 -149.5 -62t-186.5 -30l-41 39q30 161 207 383q-62 -10 -114 -10z" />
    <glyph glyph-name="uogonek" unicode="&#x173;" horiz-adv-x="917" 
d="M209 -16q-48 0 -73 56t-25 157q0 100 20 211l68 436h-142v37l342 71l43 -20l-80 -506q-28 -176 -18 -279l27 -10q90 48 182 152l90 555h-106v37l305 71l45 -20l-133 -815l16 -15l143 115l23 -39l-137 -119q-186 -216 -203 -331l20 -13q26 -5 81.5 5.5t98.5 23.5l42 14
l20 -94q-58 -35 -149.5 -62t-186.5 -30l-41 39q25 157 201 377l-172 28l31 193q-194 -225 -332 -225z" />
    <glyph glyph-name="Wcircumflex" unicode="&#x174;" horiz-adv-x="1513" 
d="M293 0l-96 1143l-86 18l6 33h475l-4 -31l-133 -26l51 -846h10l383 903h170l100 -903h11l352 815l-152 55l4 33h361l-4 -31l-117 -51l-496 -1112h-172l-94 891h-10l-381 -891h-178zM1028 1528h64l153 -240l-33 -24l-188 141l-258 -145l-16 26z" />
    <glyph glyph-name="wcircumflex" unicode="&#x175;" horiz-adv-x="1239" 
d="M674 0q-44 167 -64 414l-166 -414h-229q-40 148 -67 398.5t-23 445.5h-94v37l311 71l47 -8q-14 -120 -14 -276q0 -288 43 -525h18l164 416q-6 141 -6 277v82l266 32q-20 -167 -20 -336q0 -264 39 -471h18l184 473l6 316h211l-2 -60l-403 -872h-219zM770 1368h64l184 -272
l-23 -23l-227 158l-266 -166l-19 20z" />
    <glyph glyph-name="Ycircumflex" unicode="&#x176;" horiz-adv-x="950" 
d="M182 0l4 35l150 26l72 410l-220 670l-67 16l6 37h461l-6 -35l-127 -24l166 -549h4l305 528l-160 43l6 37h373l-6 -35l-113 -31l-358 -606l-80 -461l139 -24l-4 -37h-545zM729 1528h64l153 -240l-33 -24l-188 141l-258 -145l-16 26z" />
    <glyph glyph-name="ycircumflex" unicode="&#x177;" horiz-adv-x="782" 
d="M842 932v-60l-346 -745l-215 -551h-191l-2 31l266 393h-135q-40 153 -69.5 401.5t-26.5 442.5h-96v37l315 71l45 -10q-14 -104 -14 -237q0 -263 51 -562h18l187 473l2 316h211zM541 1368h63l184 -272l-22 -23l-227 158l-267 -166l-18 20z" />
    <glyph glyph-name="Ydieresis" unicode="&#x178;" horiz-adv-x="950" 
d="M182 0l4 35l150 26l72 410l-220 670l-67 16l6 37h461l-6 -35l-127 -24l166 -549h4l305 528l-160 43l6 37h373l-6 -35l-113 -31l-358 -606l-80 -461l139 -24l-4 -37h-545zM549 1280l-129 45q28 47 48.5 101.5t27.5 91.5l149 -21q-53 -153 -96 -217zM889 1280l-127 45
q53 90 76 193l149 -21q-48 -149 -98 -217z" />
    <glyph glyph-name="Zacute" unicode="&#x179;" horiz-adv-x="915" 
d="M25 0l-7 76l742 1052h-363l-159 -305h-52l64 371h784l6 -59l-766 -1067h416l174 294l56 -6l-86 -356h-809zM836 1544l84 -100v-27l-379 -139l-11 16z" />
    <glyph glyph-name="zacute" unicode="&#x17a;" horiz-adv-x="710" 
d="M539 1391l153 -43v-27l-284 -244l-11 13zM68 -10l-50 10l-12 39l518 690l-10 8q-62 -16 -158 -16q-92 0 -178 18l-63 -116l-41 6l49 299l51 24q211 -22 322 -22q137 0 204 22l50 -61l-492 -655l6 -23l336 -10l66 145l49 -6l-74 -336l-51 -22l-475 65z" />
    <glyph glyph-name="Zdotaccent" unicode="&#x17b;" horiz-adv-x="915" 
d="M721 1280l-143 41q26 46 47 104t28 93l162 -19q-38 -146 -94 -219zM25 0l-7 76l742 1052h-363l-159 -305h-52l64 371h784l6 -59l-766 -1067h416l174 294l56 -6l-86 -356h-809z" />
    <glyph glyph-name="zdotaccent" unicode="&#x17c;" horiz-adv-x="710" 
d="M68 -10l-50 10l-12 39l518 690l-10 8q-62 -16 -158 -16q-92 0 -178 18l-63 -116l-41 6l49 299l51 24q211 -22 322 -22q137 0 204 22l50 -61l-492 -655l6 -23l336 -10l66 145l49 -6l-74 -336l-51 -22l-475 65zM500 1149l-131 41q59 111 73 184l150 -18q-43 -143 -92 -207z
" />
    <glyph glyph-name="Zcaron" unicode="&#x17d;" horiz-adv-x="915" 
d="M680 1282h-62l-145 256l31 25l174 -152l287 150l16 -23zM25 0l-7 76l742 1052h-363l-159 -305h-52l64 371h784l6 -59l-766 -1067h416l174 294l56 -6l-86 -356h-809z" />
    <glyph glyph-name="zcaron" unicode="&#x17e;" horiz-adv-x="710" 
d="M489 1075h-63l-141 285l24 20l185 -170l235 172l19 -22zM68 -10l-50 10l-12 39l518 690l-10 8q-62 -16 -158 -16q-92 0 -178 18l-63 -116l-41 6l49 299l51 24q211 -22 322 -22q137 0 204 22l50 -61l-492 -655l6 -23l336 -10l66 145l49 -6l-74 -336l-51 -22l-475 65z" />
    <glyph glyph-name="uni018F" unicode="&#x18f;" horiz-adv-x="1067" 
d="M467 -16q-184 0 -282.5 105t-98.5 294q0 83 16 174l9 61h733q6 61 6 127q0 183 -53.5 270t-171.5 87q-162 0 -349 -82l-20 51q222 141 436 141q208 0 324.5 -121.5t116.5 -330.5q0 -158 -47.5 -299.5t-132 -247t-211 -167.5t-275.5 -62zM512 51q123 0 210 141.5
t116 364.5h-451q-22 -154 -22 -229q0 -67 5.5 -113.5t21 -85.5t45 -58.5t75.5 -19.5z" />
    <glyph glyph-name="florin" unicode="&#x192;" horiz-adv-x="684" 
d="M61 567l11 72h166l36 231q28 171 138 265t250 94q67 0 129 -23l-48 -184l-159 115q-61 -69 -90 -258l-39 -240h235l-10 -72h-236l-75 -483q-26 -159 -133.5 -282.5t-219.5 -123.5q-87 0 -153 31l41 146q14 -9 42.5 -27.5t39.5 -24t34 -15t52 -15.5q10 11 20 37.5
t21.5 81.5t17.5 87t21 113l73 475h-164z" />
    <glyph glyph-name="Ohorn" unicode="&#x1a0;" horiz-adv-x="1118" 
d="M1182 754q-2 -113 -34 -225.5t-91.5 -210t-138.5 -172.5t-182.5 -118.5t-215.5 -43.5q-202 0 -318 123.5t-116 330.5q0 200 85 377t239.5 287t341.5 110q204 0 315 -114q55 36 55 114q0 35 -22 121l162 29q6 -27 6 -66q0 -93 -37.5 -146t-132.5 -91q84 -116 84 -305z
M555 55q78 0 144.5 64t110.5 169.5t68.5 240t24.5 276.5q0 73 -10 133.5t-30.5 106.5t-54 72t-77.5 26q-79 0 -149 -67.5t-116.5 -175t-73.5 -239.5t-27 -262q0 -98 18.5 -173t62.5 -123t109 -48z" />
    <glyph glyph-name="ohorn" unicode="&#x1a1;" horiz-adv-x="804" 
d="M328 -16q-120 0 -190 94t-70 235q0 116 29.5 227.5t84.5 204.5t144.5 150t199.5 57q123 0 195 -84q55 31 55 99q0 45 -39 141l152 29q6 -27 6 -64q0 -96 -30.5 -149t-116.5 -90q55 -86 55 -222q0 -85 -20.5 -172t-61 -166.5t-96.5 -143t-133 -103t-164 -43.5zM393 51
q77 68 121.5 234t46.5 323v64q0 132 -14 184q-41 25 -88 27q-71 -62 -110.5 -224t-41.5 -319q0 -213 12 -262q28 -24 74 -27z" />
    <glyph glyph-name="Uhorn" unicode="&#x1af;" horiz-adv-x="1132" 
d="M1155 1108l-108 -647q-18 -104 -54.5 -185.5t-84 -135.5t-109 -89.5t-126.5 -51t-138 -15.5q-383 0 -383 319q0 16 4 62q0 10 20.5 134.5t54.5 323t52 312.5l-123 20l8 39h512l-6 -37l-125 -22q-35 -197 -79 -464t-44 -278q-6 -47 -6 -86q0 -248 190 -248q77 0 146.5 45
t124.5 139.5t77 223.5l107 637l-205 51l6 39h363q22 28 22 61q0 64 -59 144l147 26q9 -44 9 -79q0 -84 -44.5 -142.5t-148.5 -95.5z" />
    <glyph glyph-name="uhorn" unicode="&#x1b0;" horiz-adv-x="917" 
d="M879 877l-125 -760l16 -15l143 115l23 -39l-225 -194l-201 32l31 193q-194 -225 -332 -225q-48 0 -73 56t-25 157q0 100 20 211l68 436h-142v37l342 71l43 -20l-80 -506q-28 -176 -18 -279l27 -10q90 48 182 152l90 555h-127v37l326 69q59 12 78.5 35t19.5 59
q0 45 -45 103l125 33q6 -41 6 -78q0 -82 -34 -132.5t-113 -92.5z" />
    <glyph glyph-name="uni01C4" unicode="&#x1c4;" horiz-adv-x="2099" 
d="M1866 1282h-62l-145 256l31 25l174 -152l286 150l17 -23zM1208 0l-6 76l742 1052h-363l-160 -305h-51l64 371h784l6 -59l-766 -1067h416l174 294l55 -6l-86 -356h-809zM33 0l4 37l143 26l182 1070l-135 22l6 39h506q510 0 510 -418q0 -220 -91 -397.5t-251.5 -278
t-359.5 -100.5h-514zM678 1126h-66l-182 -1054h80q205 0 332 180t127 498q0 179 -67.5 277.5t-223.5 98.5z" />
    <glyph glyph-name="uni01C5" unicode="&#x1c5;" horiz-adv-x="1918" 
d="M1671 1075h-63l-142 285l25 20l184 -170l236 172l18 -22zM1276 -10l-49 10l-13 39l519 690l-11 8q-62 -16 -157 -16q-93 0 -179 18l-63 -116l-41 6l49 299l51 24q211 -22 322 -22q138 0 205 22l49 -61l-492 -655l7 -23l335 -10l66 145l49 -6l-74 -336l-51 -22l-475 65z
M33 0l4 37l143 26l182 1070l-135 22l6 39h506q510 0 510 -418q0 -220 -91 -397.5t-251.5 -278t-359.5 -100.5h-514zM678 1126h-66l-182 -1054h80q205 0 332 180t127 498q0 179 -67.5 277.5t-223.5 98.5z" />
    <glyph glyph-name="uni01C6" unicode="&#x1c6;" horiz-adv-x="1548" 
d="M440 16l43 265l-266 -287h-131q-23 100 -23 219q0 157 30.5 305.5t96.5 251.5q58 84 125 132t160 48q57 0 119 -16l65 389h-147v37l350 80l43 -29l-221 -1276l14 -10l138 90l20 -37l-242 -194zM905 -10l-49 10l-12 39l518 690l-10 8q-62 -16 -158 -16q-92 0 -178 18
l-64 -116l-41 6l50 299l51 24q211 -22 321 -22q138 0 205 22l49 -61l-491 -655l6 -23l336 -10l65 145l49 -6l-73 -336l-52 -22l-475 65zM289 195l20 -9l187 168l69 416q-70 59 -168 82q-47 -97 -77.5 -243t-30.5 -294v-120zM1325 1075h-63l-142 285l25 20l184 -170l236 172
l18 -22z" />
    <glyph glyph-name="uni01C7" unicode="&#x1c7;" horiz-adv-x="1683" 
d="M1200 -16q-164 0 -268 49l59 358h58l36 -317q2 0 21.5 -6t36 -9.5t28.5 -3.5q33 0 58 17t41.5 51t26.5 69t20 87l143 851l-137 25l8 39h537l-4 -37l-150 -24l-139 -811q-24 -149 -134.5 -243.5t-240.5 -94.5zM33 0l4 37l145 26l180 1070l-135 22l9 39h524l-8 -37
l-138 -22l-182 -1065h262l221 311l48 -8l-109 -373h-821z" />
    <glyph glyph-name="uni01C8" unicode="&#x1c8;" horiz-adv-x="1429" 
d="M903 -438l-22 16q94 168 131 391l145 875h-135v37l332 71l45 -20l-156 -934q-20 -120 -117 -234.5t-223 -201.5zM1384 1106l-157 57q26 48 53 117.5t33 101.5l176 -32q-50 -165 -105 -244zM33 0l4 37l145 26l180 1070l-135 22l9 39h524l-8 -37l-138 -22l-182 -1065h262
l221 311l48 -8l-109 -373h-821z" />
    <glyph glyph-name="uni01C9" unicode="&#x1c9;" horiz-adv-x="958" 
d="M430 -438l-22 16q94 168 131 391l145 875h-135v37l332 71l45 -20l-156 -934q-20 -120 -117 -234.5t-223 -201.5zM911 1106l-157 57q26 48 53 117.5t33 101.5l176 -32q-50 -165 -105 -244zM51 16l215 1307h-137v37l334 82l43 -29l-217 -1298l16 -13l144 115l24 -39
l-231 -194z" />
    <glyph glyph-name="uni01CA" unicode="&#x1ca;" horiz-adv-x="1935" 
d="M1450 -16q-164 0 -268 49l59 358h57l37 -317q2 0 21.5 -6t36 -9.5t28.5 -3.5q33 0 58 17t41.5 51t26.5 69t20 87l143 851l-137 25l8 39h537l-4 -37l-150 -24l-139 -811q-24 -149 -134.5 -243.5t-240.5 -94.5zM10 0l4 35l144 49l174 1012l-127 61l4 37h334l430 -801h6
l125 707l-186 57l6 37h417l-6 -35l-147 -51l-195 -1124h-104l-490 956h-8l-145 -848l198 -55l-6 -37h-428z" />
    <glyph glyph-name="uni01CB" unicode="&#x1cb;" horiz-adv-x="1720" 
d="M1192 -438l-23 16q94 168 131 391l146 875h-135v37l331 71l46 -20l-156 -934q-20 -120 -117 -234.5t-223 -201.5zM1673 1106l-157 57q26 48 53 117.5t33 101.5l176 -32q-50 -165 -105 -244zM10 0l4 35l144 49l174 1012l-127 61l4 37h334l430 -801h6l125 707l-186 57l6 37
h417l-6 -35l-147 -51l-195 -1124h-104l-490 956h-8l-145 -848l198 -55l-6 -37h-428z" />
    <glyph glyph-name="uni01CC" unicode="&#x1cc;" horiz-adv-x="1423" 
d="M709 -16l-197 32l80 494q16 106 16 209q0 51 -4 65l-29 11q-65 -37 -165 -142l-107 -653h-225l139 844h-139v37l334 71l45 -20l-33 -201q188 221 309 221q51 0 80 -66t29 -179q0 -80 -19 -191l-69 -395l14 -12l150 108l22 -39zM895 -438l-23 16q96 171 132 391l145 875
h-135v37l332 71l45 -20l-156 -934q-20 -120 -117 -234.5t-223 -201.5zM1376 1106l-157 57q26 48 53 117.5t33 101.5l176 -32q-50 -165 -105 -244z" />
    <glyph glyph-name="uni01CD" unicode="&#x1cd;" horiz-adv-x="1058" 
d="M-45 0l6 35l113 47l655 1112h135l121 -1141l72 -16l-8 -37h-465l4 35l127 22l-27 353h-340l-184 -324l172 -49l-6 -37h-375zM385 471h299l-31 453h-10zM836 1282h-62l-145 256l30 25l175 -152l286 150l17 -23z" />
    <glyph glyph-name="uni01CE" unicode="&#x1ce;" horiz-adv-x="835" 
d="M440 16l45 265l-268 -287h-131q-23 100 -23 219q0 157 30.5 305.5t96.5 251.5q58 84 125 132t160 48q107 0 219 -59l99 61h30l-141 -833l12 -13l140 107l20 -35l-223 -194zM289 195l22 -9l187 168l69 416q-70 59 -170 82q-46 -94 -75.5 -243t-32.5 -300q-3 -67 0 -114z
M588 1083h-64l-141 285l25 21l184 -170l235 172l19 -23z" />
    <glyph glyph-name="uni01CF" unicode="&#x1cf;" horiz-adv-x="673" 
d="M49 0l4 37l142 24l182 1072l-133 22l6 39h524l-6 -37l-137 -24l-185 -1070l132 -24l-5 -39h-524zM557 1282h-61l-146 256l31 25l174 -152l287 150l16 -23z" />
    <glyph glyph-name="uni01D0" unicode="&#x1d0;" horiz-adv-x="514" 
d="M375 1075h-64l-141 285l25 20l184 -170l235 172l19 -22zM272 -16l-192 32l137 828h-139v37l334 71l45 -20l-135 -811l16 -10l143 106l23 -39z" />
    <glyph glyph-name="uni01D1" unicode="&#x1d1;" horiz-adv-x="1118" 
d="M799 1282h-62l-145 256l31 25l174 -152l286 150l17 -23zM1182 754q-2 -113 -34 -225.5t-91.5 -210t-138.5 -172.5t-182.5 -118.5t-215.5 -43.5q-202 0 -318 123.5t-116 330.5q0 200 85 377t239.5 287t341.5 110q210 0 320 -119.5t110 -338.5zM555 55q78 0 144.5 64
t110.5 169.5t68.5 240t24.5 276.5q0 73 -10 133.5t-30.5 106.5t-54 72t-77.5 26q-79 0 -149 -67.5t-116.5 -175t-73.5 -239.5t-27 -262q0 -98 18.5 -173t62.5 -123t109 -48z" />
    <glyph glyph-name="uni01D2" unicode="&#x1d2;" horiz-adv-x="804" 
d="M328 -16q-120 0 -190 94t-70 235q0 116 29.5 227.5t84.5 204.5t144.5 150t199.5 57q125 0 201 -90t76 -250q0 -85 -20.5 -172t-61 -166.5t-96.5 -143t-133 -103t-164 -43.5zM393 51q77 68 121.5 234t46.5 323v64q0 132 -14 184q-41 25 -88 27q-71 -62 -110.5 -224
t-41.5 -319q0 -213 12 -262q28 -24 74 -27zM565 1075h-63l-142 285l25 20l184 -170l236 172l18 -22z" />
    <glyph glyph-name="uni01D3" unicode="&#x1d3;" horiz-adv-x="1132" 
d="M827 1284h-61l-145 256l30 25l174 -152l287 150l16 -23zM535 -16q-383 0 -383 319q0 16 4 62q0 10 20.5 134.5t54.5 323t52 312.5l-123 20l8 39h512l-6 -37l-125 -22q-35 -197 -79 -464t-44 -278q-6 -47 -6 -86q0 -248 190 -248q77 0 146.5 45t124.5 139.5t77 223.5
l107 637l-166 51l6 39h400l-7 -37l-143 -47l-108 -649q-18 -104 -54.5 -185.5t-84 -135.5t-109 -89.5t-126.5 -51t-138 -15.5z" />
    <glyph glyph-name="uni01D4" unicode="&#x1d4;" horiz-adv-x="917" 
d="M711 -16l-201 32l31 193q-194 -225 -332 -225q-48 0 -73 56t-25 157q0 100 20 211l68 436h-142v37l342 71l43 -20l-80 -506q-28 -176 -18 -279l27 -10q90 48 182 152l90 555h-106v37l305 71l45 -20l-133 -815l16 -15l143 115l23 -39zM592 1075h-64l-141 285l25 20
l184 -170l235 172l19 -22z" />
    <glyph glyph-name="AEmacron" unicode="&#x1e2;" horiz-adv-x="1460" 
d="M504 0l4 35l156 28l69 418h-303l-254 -399l152 -49l-6 -33h-369l6 31l125 51l717 1112h737l-53 -307h-60l-59 241h-268l-82 -487l350 23l-18 -101l-342 19l-86 -514h274l188 272l52 -10l-97 -330h-833zM823 1102l-352 -555h274l93 555h-15zM1473 1372h-414l12 55h414z
" />
    <glyph glyph-name="aemacron" unicode="&#x1e3;" horiz-adv-x="1083" 
d="M621 -16l-125 28q-21 68 -25 217l-235 -235h-150q-23 100 -23 219q0 157 30.5 305.5t96.5 251.5q124 180 302 180q93 0 208 -53q82 55 189 55t233 -73v-193q-6 -4 -73 -51.5t-124.5 -88t-126.5 -87t-104 -66.5q0 -151 13 -237l22 -6q12 5 27 12t28.5 15t31.5 20t30.5 21
t33 24t31 23t31.5 25t28 23t27 22.5t23 18.5l16 -41q-58 -80 -176 -178t-239 -151zM309 168l162 147q6 121 37 253t72 206q-103 70 -189 78q-40 -69 -70.5 -229.5t-31.5 -313.5q0 -12 -0.5 -42.5t-0.5 -54t1 -36.5zM700 473q34 25 120.5 98t121.5 107l2 115q-38 29 -64.5 40
t-74.5 23q-24 -35 -58 -157t-47 -226zM956 1210h-381l15 54h381z" />
    <glyph glyph-name="uni01E6" unicode="&#x1e6;" horiz-adv-x="1052" 
d="M829 1282h-61l-145 256l30 25l174 -152l287 150l16 -23zM588 -16q-221 0 -361.5 124.5t-140.5 346.5q0 164 58 307t157 240.5t232 153.5t280 56q166 0 303 -67l-53 -316h-57l-62 285q-62 33 -149 33q-99 0 -182 -62t-134.5 -160.5t-79.5 -214t-28 -229.5q0 -430 258 -430
q37 0 84 15l71 456l-139 35l8 37h383l-92 -528q-51 -29 -151.5 -55.5t-204.5 -26.5z" />
    <glyph glyph-name="uni01E7" unicode="&#x1e7;" horiz-adv-x="796" 
d="M250 -436q-194 0 -297 61l45 176q62 -34 98 -52t94.5 -36t110.5 -18q37 0 70 8q39 42 98 457l20 127l-272 -293h-131q-23 100 -23 219q0 157 30.5 305.5t96.5 251.5q58 84 125 132t160 48q107 0 219 -59l103 61h22l-155 -960q-18 -108 -73 -204t-145.5 -160t-195.5 -64z
M500 356q38 224 65 414q-72 61 -168 82q-47 -96 -77.5 -246t-30.5 -297v-116l20 -9zM580 1075h-64l-141 285l24 20l185 -170l235 172l19 -22z" />
    <glyph glyph-name="uni01E8" unicode="&#x1e8;" horiz-adv-x="1091" 
d="M33 0l4 37l145 20l180 1076l-135 22l9 39h524l-6 -37l-140 -24l-182 -1074l129 -20l-2 -39h-526zM776 0l-225 543l8 41l436 530l-127 47l6 33h404l-10 -39l-168 -41l-352 -405l290 -631l88 -43l-4 -35h-346zM831 1282h-61l-145 256l30 25l174 -152l287 150l17 -23z" />
    <glyph glyph-name="uni01E9" unicode="&#x1e9;" horiz-adv-x="866" 
d="M49 0l223 1323h-137v37l336 82l43 -29l-111 -651q139 142 236 188l182 -47q8 -47 8 -96q0 -101 -48.5 -174t-151.5 -129l94 -367l20 -6l129 86l19 -39l-248 -194l-139 30l-76 371l6 31q72 74 125 174.5t53 185.5q0 17 -4 41l-20 10q-72 -29 -201 -155l-113 -672h-225z
M739 1282h-61l-146 256l31 25l174 -152l287 150l16 -23z" />
    <glyph glyph-name="uni01EA" unicode="&#x1ea;" horiz-adv-x="1118" 
d="M1182 754q-3 -159 -63 -310.5t-171 -268t-252 -163.5q-198 -129 -225 -284l21 -13q26 -5 82 5.5t98 23.5l43 14l18 -94q-58 -35 -149.5 -62t-186.5 -30l-41 39q19 109 90.5 211t163.5 170q-39 -8 -90 -8q-202 0 -318 123.5t-116 330.5q0 200 85 377t239.5 287t341.5 110
q210 0 320 -119.5t110 -338.5zM555 55q78 0 144.5 64t110.5 169.5t68.5 240t24.5 276.5q0 73 -10 133.5t-30.5 106.5t-54 72t-77.5 26q-79 0 -149 -67.5t-116.5 -175t-73.5 -239.5t-27 -262q0 -98 18.5 -173t62.5 -123t109 -48z" />
    <glyph glyph-name="uni01EB" unicode="&#x1eb;" horiz-adv-x="804" 
d="M328 -16q-120 0 -190 94t-70 235q0 116 29.5 227.5t84.5 204.5t144.5 150t199.5 57q125 0 201 -90t76 -250q0 -119 -38.5 -237t-116.5 -216.5t-181 -142.5q-140 -180 -158 -288l21 -13q24 -5 77 5.5t93 23.5l41 14l18 -94q-53 -35 -140.5 -62t-178.5 -30l-39 39
q26 160 196 383q-23 -6 -69 -10zM393 51q77 68 121.5 234t46.5 323v64q0 132 -14 184q-41 25 -88 27q-71 -62 -110.5 -224t-41.5 -319q0 -213 12 -262q28 -24 74 -27z" />
    <glyph glyph-name="uni01EC" unicode="&#x1ec;" horiz-adv-x="1118" 
d="M1182 754q-3 -159 -63 -310.5t-171 -268t-252 -163.5q-198 -129 -225 -284l21 -13q26 -5 82 5.5t98 23.5l43 14l18 -94q-58 -35 -149.5 -62t-186.5 -30l-41 39q19 109 90.5 211t163.5 170q-39 -8 -90 -8q-202 0 -318 123.5t-116 330.5q0 200 85 377t239.5 287t341.5 110
q210 0 320 -119.5t110 -338.5zM555 55q78 0 144.5 64t110.5 169.5t68.5 240t24.5 276.5q0 73 -10 133.5t-30.5 106.5t-54 72t-77.5 26q-79 0 -149 -67.5t-116.5 -175t-73.5 -239.5t-27 -262q0 -98 18.5 -173t62.5 -123t109 -48zM1004 1372h-414l12 55h414z" />
    <glyph glyph-name="uni01ED" unicode="&#x1ed;" horiz-adv-x="804" 
d="M328 -16q-120 0 -190 94t-70 235q0 116 29.5 227.5t84.5 204.5t144.5 150t199.5 57q125 0 201 -90t76 -250q0 -119 -38.5 -237t-116.5 -216.5t-181 -142.5q-140 -180 -158 -288l21 -13q24 -5 77 5.5t93 23.5l41 14l18 -94q-53 -35 -140.5 -62t-178.5 -30l-39 39
q26 160 196 383q-23 -6 -69 -10zM393 51q77 68 121.5 234t46.5 323v64q0 132 -14 184q-41 25 -88 27q-71 -62 -110.5 -224t-41.5 -319q0 -213 12 -262q28 -24 74 -27zM735 1210h-381l15 54h381z" />
    <glyph glyph-name="uni01EE" unicode="&#x1ee;" horiz-adv-x="815" 
d="M582 1282h-62l-145 256l31 25l174 -152l286 150l17 -23zM291 -176q65 0 117.5 53t80 134t27.5 169q0 116 -57 195t-160 86l-8 86l420 471l-2 14h-400l-127 -174l-41 2l80 334h666l10 -55l-428 -484l2 -12q150 -10 239 -115.5t89 -257.5q0 -123 -42 -222t-114 -162.5
t-166 -97.5t-201 -34q-146 0 -272 64l37 235h49q12 -89 65.5 -159t135.5 -70z" />
    <glyph glyph-name="uni01EF" unicode="&#x1ef;" horiz-adv-x="751" 
d="M694 139q0 -19 -4 -47q-11 -110 -75.5 -206.5t-158.5 -160.5t-206 -102t-221 -41l-2 51q83 8 162 53.5t135.5 109t90.5 140t34 146.5q0 172 -140 172q-31 0 -76 -10l-8 106l336 393l-4 15q-73 -13 -164 -13q-83 0 -153 13l-82 -133l-47 8l65 270l51 43q157 -16 303 -16
q131 0 246 16l8 -55l-411 -473l4 -12q155 -4 236 -72.5t81 -194.5zM530 1075h-63l-141 285l24 20l185 -170l235 172l18 -22z" />
    <glyph glyph-name="uni01F1" unicode="&#x1f1;" horiz-adv-x="2099" 
d="M1208 0l-6 76l742 1052h-363l-160 -305h-51l64 371h784l6 -59l-766 -1067h416l174 294l55 -6l-86 -356h-809zM33 0l4 37l143 26l182 1070l-135 22l6 39h506q510 0 510 -418q0 -220 -91 -397.5t-251.5 -278t-359.5 -100.5h-514zM678 1126h-66l-182 -1054h80q205 0 332 180
t127 498q0 179 -67.5 277.5t-223.5 98.5z" />
    <glyph glyph-name="uni01F2" unicode="&#x1f2;" horiz-adv-x="1931" 
d="M1288 -10l-49 10l-12 39l518 690l-10 8q-62 -16 -158 -16q-93 0 -178 18l-64 -116l-41 6l49 299l52 24q211 -22 321 -22q138 0 205 22l49 -61l-491 -655l6 -23l336 -10l65 145l49 -6l-73 -336l-52 -22l-475 65zM33 0l4 37l143 26l182 1070l-135 22l6 39h506
q510 0 510 -418q0 -220 -91 -397.5t-251.5 -278t-359.5 -100.5h-514zM678 1126h-66l-182 -1054h80q205 0 332 180t127 498q0 179 -67.5 277.5t-223.5 98.5z" />
    <glyph glyph-name="uni01F3" unicode="&#x1f3;" horiz-adv-x="1548" 
d="M440 16l43 265l-266 -287h-131q-23 100 -23 219q0 157 30.5 305.5t96.5 251.5q58 84 125 132t160 48q57 0 119 -16l65 389h-147v37l350 80l43 -29l-221 -1276l14 -10l138 90l20 -37l-242 -194zM905 -10l-49 10l-12 39l518 690l-10 8q-62 -16 -158 -16q-92 0 -178 18
l-64 -116l-41 6l50 299l51 24q211 -22 321 -22q138 0 205 22l49 -61l-491 -655l6 -23l336 -10l65 145l49 -6l-73 -336l-52 -22l-475 65zM289 195l20 -9l187 168l69 416q-70 59 -168 82q-47 -97 -77.5 -243t-30.5 -294v-120z" />
    <glyph glyph-name="uni01F4" unicode="&#x1f4;" horiz-adv-x="1052" 
d="M991 1544l84 -100v-27l-379 -139l-10 16zM588 -16q-221 0 -361.5 124.5t-140.5 346.5q0 164 58 307t157 240.5t232 153.5t280 56q166 0 303 -67l-53 -316h-57l-62 285q-62 33 -149 33q-99 0 -182 -62t-134.5 -160.5t-79.5 -214t-28 -229.5q0 -430 258 -430q37 0 84 15
l71 456l-139 35l8 37h383l-92 -528q-51 -29 -151.5 -55.5t-204.5 -26.5z" />
    <glyph glyph-name="uni01F5" unicode="&#x1f5;" horiz-adv-x="796" 
d="M250 -436q-194 0 -297 61l45 176q62 -34 98 -52t94.5 -36t110.5 -18q37 0 70 8q39 42 98 457l20 127l-272 -293h-131q-23 100 -23 219q0 157 30.5 305.5t96.5 251.5q58 84 125 132t160 48q107 0 219 -59l103 61h22l-155 -960q-18 -108 -73 -204t-145.5 -160t-195.5 -64z
M500 356q38 224 65 414q-72 61 -168 82q-47 -96 -77.5 -246t-30.5 -297v-116l20 -9zM635 1391l153 -43v-27l-284 -244l-10 13z" />
    <glyph glyph-name="uni01F8" unicode="&#x1f8;" horiz-adv-x="1218" 
d="M483 1444l84 100l305 -246l-8 -20l-381 139v27zM10 0l4 35l144 49l174 1012l-127 61l4 37h334l430 -801h6l125 707l-186 57l6 37h417l-6 -35l-147 -51l-195 -1124h-104l-490 956h-8l-145 -848l198 -55l-6 -37h-428z" />
    <glyph glyph-name="uni01F9" unicode="&#x1f9;" horiz-adv-x="923" 
d="M709 -16l-197 32l80 494q16 106 16 209q0 51 -4 65l-29 11q-65 -37 -165 -142l-107 -653h-225l139 844h-139v37l334 71l45 -20l-33 -201q188 221 309 221q51 0 80 -66t29 -179q0 -80 -19 -191l-69 -395l14 -12l150 108l22 -39zM348 1348l154 43l141 -301l-12 -13
l-283 244v27z" />
    <glyph glyph-name="uni01FA" unicode="&#x1fa;" horiz-adv-x="1058" 
d="M-45 0l6 35l113 47l655 1112h135l121 -1141l72 -16l-8 -37h-465l4 35l127 22l-27 353h-340l-184 -324l172 -49l-6 -37h-375zM385 471h299l-31 453h-10zM1022 1819l84 -101v-26l-379 -140l-10 17zM809 1266q55 0 94 38t39 91q0 51 -28.5 76.5t-77.5 25.5q-55 0 -92 -36
t-37 -91q0 -53 30 -78.5t72 -25.5zM805 1227q-59 0 -101 37t-42 106q0 67 55 116.5t123 49.5q62 0 103.5 -38t41.5 -103q0 -67 -55 -117.5t-125 -50.5z" />
    <glyph glyph-name="uni01FB" unicode="&#x1fb;" horiz-adv-x="835" 
d="M440 16l45 265l-268 -287h-131q-23 100 -23 219q0 157 30.5 305.5t96.5 251.5q58 84 125 132t160 48q107 0 219 -59l99 61h30l-141 -833l12 -13l140 107l20 -35l-223 -194zM289 195l22 -9l187 168l69 416q-70 59 -170 82q-46 -94 -75.5 -243t-32.5 -300q-3 -67 0 -114z
M567 1049q-59 0 -100 37t-41 106q0 67 54 115.5t122 48.5q63 0 104.5 -37t41.5 -102q0 -67 -55.5 -117.5t-125.5 -50.5zM571 1087q55 0 94.5 38t39.5 89t-29 78t-78 27q-55 0 -92 -36t-37 -91q0 -54 30 -79.5t72 -25.5zM799 1679l84 -100v-27l-379 -139l-10 17z" />
    <glyph glyph-name="AEacute" unicode="&#x1fc;" horiz-adv-x="1460" 
d="M504 0l4 35l156 28l69 418h-303l-254 -399l152 -49l-6 -33h-369l6 31l125 51l717 1112h737l-53 -307h-60l-59 241h-268l-82 -487l350 23l-18 -101l-342 19l-86 -514h274l188 272l52 -10l-97 -330h-833zM823 1102l-352 -555h274l93 555h-15zM1438 1546l84 -100v-27
l-379 -139l-10 16z" />
    <glyph glyph-name="aeacute" unicode="&#x1fd;" horiz-adv-x="1083" 
d="M870 1391l154 -43v-27l-285 -244l-10 13zM621 -16l-125 28q-21 68 -25 217l-235 -235h-150q-23 100 -23 219q0 157 30.5 305.5t96.5 251.5q124 180 302 180q93 0 208 -53q82 55 189 55t233 -73v-193q-6 -4 -73 -51.5t-124.5 -88t-126.5 -87t-104 -66.5q0 -151 13 -237
l22 -6q12 5 27 12t28.5 15t31.5 20t30.5 21t33 24t31 23t31.5 25t28 23t27 22.5t23 18.5l16 -41q-58 -80 -176 -178t-239 -151zM309 168l162 147q6 121 37 253t72 206q-103 70 -189 78q-40 -69 -70.5 -229.5t-31.5 -313.5q0 -12 -0.5 -42.5t-0.5 -54t1 -36.5zM700 473
q34 25 120.5 98t121.5 107l2 115q-38 29 -64.5 40t-74.5 23q-24 -35 -58 -157t-47 -226z" />
    <glyph glyph-name="Oslashacute" unicode="&#x1fe;" horiz-adv-x="1118" 
d="M1182 754q-2 -113 -34 -225.5t-91.5 -210t-138.5 -172.5t-182.5 -118.5t-215.5 -43.5q-178 0 -293 98l-88 -98h-84l129 143q-98 121 -98 311q0 200 85 377t239.5 287t341.5 110q201 0 313 -112l102 112h82l-145 -161q78 -116 78 -297zM365 399q0 -46 2 -69l530 583
q-14 107 -55.5 168.5t-110.5 61.5q-79 0 -149 -67.5t-116.5 -175t-73.5 -239.5t-27 -262zM555 55q78 0 144.5 64t110.5 169.5t68.5 240t24.5 276.5v22l-524 -579q42 -193 176 -193zM958 1544l84 -100v-27l-378 -139l-11 16z" />
    <glyph glyph-name="oslashacute" unicode="&#x1ff;" horiz-adv-x="804" 
d="M330 -16q-115 0 -189 90l-75 -90h-64l113 133q-45 80 -45 196t29.5 227.5t84.5 204.5t144.5 150t199.5 57q128 0 205 -96l82 96h64l-117 -139q43 -84 43 -201q0 -85 -20.5 -172t-61 -166.5t-96.5 -143t-133 -103t-164 -43.5zM461 883q-70 -63 -110 -221.5t-42 -313.5
l254 305q4 128 -14 203q-41 25 -88 27zM395 51q73 64 117 217.5t49 306.5l-252 -303q0 -146 13 -194q28 -24 73 -27zM608 1391l154 -43v-27l-285 -244l-10 13z" />
    <glyph glyph-name="Scommaaccent" unicode="&#x218;" horiz-adv-x="870" 
d="M514 -127l16 -18l-155 -361h-39l41 379h137zM369 -16q-158 0 -312 77l56 326h57l49 -270q50 -37 91.5 -49.5t97.5 -12.5q91 0 162 56t71 165q0 47 -24 84t-62 62t-84.5 49t-93 51t-84.5 60t-62 84t-24 116q0 127 62.5 226.5t163 151.5t216.5 52q191 0 303 -75l-51 -308
h-59l-49 271q-32 22 -64 29.5t-86 7.5q-93 0 -161 -59t-68 -140q0 -49 25 -87t65 -63t88 -48.5t96 -50.5t88 -60.5t65 -86.5t25 -122q0 -88 -27 -161t-74 -123.5t-110.5 -85t-135.5 -50.5t-150 -16z" />
    <glyph glyph-name="scommaaccent" unicode="&#x219;" horiz-adv-x="700" 
d="M387 -127l16 -18l-155 -361h-39l41 379h137zM668 612h-45l-41 191q-35 13 -83 23t-77 10q-50 0 -84.5 -26t-34.5 -60q0 -21 9 -41t33.5 -45.5t39 -39t55.5 -47.5t54 -45q76 -63 118.5 -121t42.5 -126q0 -70 -58.5 -141.5t-143.5 -115.5t-160 -44q-159 0 -264 57l53 313
h43l47 -219q87 -43 199 -43q45 0 69.5 24t24.5 60q0 22 -10.5 45t-34.5 48.5t-43.5 43.5t-56.5 49q-9 7 -13 11q-52 47 -82 79t-57 83.5t-27 103.5q0 42 31 96t79.5 102t118 81.5t138.5 33.5q95 0 211 -55z" />
    <glyph glyph-name="uni021A" unicode="&#x21a;" horiz-adv-x="927" 
d="M492 -127l16 -18l-156 -361h-39l41 379h138zM174 0l6 37l144 29l178 1058h-176l-166 -303h-54l66 373h940l-65 -373h-52l-69 303h-170l-181 -1056l132 -29l-7 -39h-526z" />
    <glyph glyph-name="uni021B" unicode="&#x21b;" horiz-adv-x="628" 
d="M78 834l8 45l147 28l150 275h109l-43 -269h217l-15 -79h-215l-108 -687l14 -12q120 68 242 160l20 -31q-54 -65 -161.5 -157.5t-190.5 -122.5l-164 41l125 809h-135zM295 -127l16 -18l-155 -361h-39l41 379h137z" />
    <glyph glyph-name="uni021C" unicode="&#x21c;" horiz-adv-x="815" 
d="M291 -176q65 0 117.5 53t80 134t27.5 169q0 116 -57 195t-160 86l-8 86l420 471l-2 14h-400l-127 -174l-41 2l80 334h666l10 -55l-428 -484l2 -12q150 -10 239 -115.5t89 -257.5q0 -123 -42 -222t-114 -162.5t-166 -97.5t-201 -34q-146 0 -272 64l37 235h49
q12 -89 65.5 -159t135.5 -70z" />
    <glyph glyph-name="uni021D" unicode="&#x21d;" horiz-adv-x="751" 
d="M694 139q0 -19 -4 -47q-11 -110 -75.5 -206.5t-158.5 -160.5t-206 -102t-221 -41l-2 51q83 8 162 53.5t135.5 109t90.5 140t34 146.5q0 172 -140 172q-31 0 -76 -10l-8 106l336 393l-4 15q-73 -13 -164 -13q-83 0 -153 13l-82 -133l-47 8l65 270l51 43q157 -16 303 -16
q131 0 246 16l8 -55l-411 -473l4 -12q155 -4 236 -72.5t81 -194.5z" />
    <glyph glyph-name="uni021E" unicode="&#x21e;" horiz-adv-x="1294" 
d="M33 0l4 37l143 22l182 1074l-135 22l9 39h520l-8 -37l-138 -22l-84 -492h412l80 490l-133 22l8 39h520l-6 -37l-139 -22l-183 -1074l129 -22l-4 -39h-520l4 37l142 22l90 527h-410l-88 -527l129 -20l-4 -39h-520zM848 1282h-62l-145 256l31 25l174 -152l287 150l16 -23z
" />
    <glyph glyph-name="uni021F" unicode="&#x21f;" horiz-adv-x="907" 
d="M41 0l225 1323h-135v37l330 80l47 -29l-119 -696q200 237 322 237q51 0 79.5 -66t28.5 -179q0 -86 -18 -191l-70 -395l14 -12l150 108l23 -39l-234 -194l-197 32l82 494q17 134 17 211q0 46 -6 67l-27 11q-71 -44 -176 -158l-109 -641h-227zM735 1282h-61l-146 256l31 25
l174 -152l287 150l16 -23z" />
    <glyph glyph-name="uni0226" unicode="&#x226;" horiz-adv-x="1058" 
d="M-45 0l6 35l113 47l655 1112h135l121 -1141l72 -16l-8 -37h-465l4 35l127 22l-27 353h-340l-184 -324l172 -49l-6 -37h-375zM385 471h299l-31 453h-10zM860 1280l-143 41q26 46 47.5 104.5t28.5 92.5l161 -19q-38 -146 -94 -219z" />
    <glyph glyph-name="uni0227" unicode="&#x227;" horiz-adv-x="835" 
d="M440 16l45 265l-268 -287h-131q-23 100 -23 219q0 157 30.5 305.5t96.5 251.5q58 84 125 132t160 48q107 0 219 -59l99 61h30l-141 -833l12 -13l140 107l20 -35l-223 -194zM289 195l22 -9l187 168l69 416q-70 59 -170 82q-46 -94 -75.5 -243t-32.5 -300q-3 -67 0 -114z
M621 1149l-132 41q60 114 74 184l150 -18q-43 -143 -92 -207z" />
    <glyph glyph-name="uni0228" unicode="&#x228;" horiz-adv-x="989" 
d="M33 0l4 37l143 26l180 1065l-133 27l6 39h834l-51 -307h-55l-68 239h-281l-84 -493l349 18l-15 -98l-342 18l-88 -501h281l207 266l45 -6l-101 -330h-282l-80 -102q67 -57 106 -105.5t39 -97.5q0 -52 -66 -104t-157 -52q-37 0 -83 8t-69 21l35 110q89 -49 174 -49
q51 0 97 21q-15 31 -51.5 66.5t-58 51t-75.5 52.5l4 22l127 158h-491z" />
    <glyph glyph-name="uni0229" unicode="&#x229;" horiz-adv-x="671" 
d="M123 -451q-37 0 -83 8t-69 21l35 111q89 -49 174 -49q52 0 96 20q-12 24 -30.5 46.5t-51 48t-47.5 36.5t-55 39l4 23l109 135l-105 24q-32 103 -32 250q0 322 116 506q126 184 293 184q106 0 234 -71l-2 -201q-66 -60 -179.5 -132.5t-226.5 -127.5q-4 -74 -4 -109
q0 -89 12 -151l23 -8q118 67 270 200l17 -39q-49 -73 -141 -158.5t-197 -142.5l-82 -104q67 -57 106 -105.5t39 -97.5q0 -52 -66 -104t-157 -52zM408 854q-75 -123 -101 -373q114 69 232 181l-2 137q-63 40 -129 55z" />
    <glyph glyph-name="uni022E" unicode="&#x22e;" horiz-adv-x="1118" 
d="M821 1280l-143 41q26 46 47.5 104.5t28.5 92.5l161 -19q-38 -146 -94 -219zM1182 754q-2 -113 -34 -225.5t-91.5 -210t-138.5 -172.5t-182.5 -118.5t-215.5 -43.5q-202 0 -318 123.5t-116 330.5q0 200 85 377t239.5 287t341.5 110q210 0 320 -119.5t110 -338.5zM555 55
q78 0 144.5 64t110.5 169.5t68.5 240t24.5 276.5q0 73 -10 133.5t-30.5 106.5t-54 72t-77.5 26q-79 0 -149 -67.5t-116.5 -175t-73.5 -239.5t-27 -262q0 -98 18.5 -173t62.5 -123t109 -48z" />
    <glyph glyph-name="uni022F" unicode="&#x22f;" horiz-adv-x="804" 
d="M328 -16q-120 0 -190 94t-70 235q0 116 29.5 227.5t84.5 204.5t144.5 150t199.5 57q125 0 201 -90t76 -250q0 -85 -20.5 -172t-61 -166.5t-96.5 -143t-133 -103t-164 -43.5zM393 51q77 68 121.5 234t46.5 323v64q0 132 -14 184q-41 25 -88 27q-71 -62 -110.5 -224
t-41.5 -319q0 -213 12 -262q28 -24 74 -27zM610 1149l-131 41q60 114 74 184l149 -18q-43 -143 -92 -207z" />
    <glyph glyph-name="Ymacron" unicode="&#x232;" horiz-adv-x="950" 
d="M182 0l4 35l150 26l72 410l-220 670l-67 16l6 37h461l-6 -35l-127 -24l166 -549h4l305 528l-160 43l6 37h373l-6 -35l-113 -31l-358 -606l-80 -461l139 -24l-4 -37h-545zM907 1372h-413l12 55h414z" />
    <glyph glyph-name="ymacron" unicode="&#x233;" horiz-adv-x="782" 
d="M842 932v-60l-346 -745l-215 -551h-191l-2 31l266 393h-135q-40 153 -69.5 401.5t-26.5 442.5h-96v37l315 71l45 -10q-14 -104 -14 -237q0 -263 51 -562h18l187 473l2 316h211zM727 1212h-381l14 54h381z" />
    <glyph glyph-name="dotlessj" unicode="&#x237;" horiz-adv-x="499" 
d="M-27 -438l-22 16q94 168 131 391l145 875h-135v37l332 71l45 -20l-156 -934q-20 -120 -117 -234.5t-223 -201.5z" />
    <glyph glyph-name="schwa" unicode="&#x259;" horiz-adv-x="710" 
d="M170 584l-16 39q55 83 165.5 180t231.5 149l123 -28q33 -106 33 -250q0 -318 -119 -506q-126 -184 -291 -184q-106 0 -236 71l5 201q65 60 176.5 131.5t226.5 128.5l6 109q0 89 -12 151l-23 8q-106 -56 -270 -200zM367 84q71 114 98 371q-105 -63 -229 -181v-139
q62 -39 131 -51z" />
    <glyph glyph-name="circumflex" unicode="&#x2c6;" horiz-adv-x="677" 
d="M346 1368h64l184 -272l-23 -23l-227 158l-266 -166l-19 20z" />
    <glyph glyph-name="caron" unicode="&#x2c7;" horiz-adv-x="800" 
d="M543 1075h-64l-141 285l24 20l185 -170l235 172l19 -22z" />
    <glyph glyph-name="breve" unicode="&#x2d8;" horiz-adv-x="585" 
d="M354 1085q-69 0 -108 54.5t-47 148.5l129 21q3 -101 63 -146q68 8 121 51.5t82 100.5l35 -12q-60 -110 -121.5 -164t-153.5 -54z" />
    <glyph glyph-name="dotaccent" unicode="&#x2d9;" horiz-adv-x="485" 
d="M356 1149l-131 41q60 114 74 184l150 -18q-43 -141 -93 -207z" />
    <glyph glyph-name="ring" unicode="&#x2da;" horiz-adv-x="544" 
d="M381 1116q55 0 94 38t39 89t-28.5 78t-77.5 27q-55 0 -92 -36t-37 -91q0 -54 30 -79.5t72 -25.5zM377 1077q-59 0 -100 37.5t-41 106.5q0 67 54 115t122 48q63 0 104 -37t41 -102q0 -67 -55 -117.5t-125 -50.5z" />
    <glyph glyph-name="ogonek" unicode="&#x2db;" horiz-adv-x="681" 
d="M600 -242l18 -94q-53 -35 -140.5 -62t-178.5 -30l-39 39q21 122 114.5 264t198.5 256l80 35q-103 -112 -185.5 -232t-98.5 -206l20 -13q24 -5 77 5.5t94 23.5z" />
    <glyph glyph-name="tilde" unicode="&#x2dc;" horiz-adv-x="724" 
d="M698 1292l29 -26l-147 -148h-43l-226 88l-96 -71l-27 24l168 150l47 2l224 -82z" />
    <glyph glyph-name="hungarumlaut" unicode="&#x2dd;" horiz-adv-x="856" 
d="M686 1384l154 -43v-26l-289 -228l-19 15zM395 1425l146 -36v-27l-219 -266l-19 10z" />
    <glyph glyph-name="gravecmb" unicode="&#x300;" horiz-adv-x="0" 
d="M-467 1348l152 43l139 -301l-10 -13l-281 244v27z" />
    <glyph glyph-name="acutecmb" unicode="&#x301;" horiz-adv-x="0" 
d="M-231 1391l151 -43v-27l-280 -244l-13 13z" />
    <glyph glyph-name="circumflexcmb" unicode="&#x302;" horiz-adv-x="0" 
d="M-256 1368h61l181 -272l-21 -23l-225 158l-266 -166l-17 20z" />
    <glyph glyph-name="tildecmb" unicode="&#x303;" horiz-adv-x="0" 
d="M-35 1292l29 -26l-146 -148h-43l-223 88l-96 -71l-25 24l164 150l47 2l224 -82z" />
    <glyph glyph-name="macroncmb" unicode="&#x304;" horiz-adv-x="0" 
d="M-80 1204h-381l12 56h381z" />
    <glyph glyph-name="brevecmb" unicode="&#x306;" horiz-adv-x="0" 
d="M-311 1085q-70 0 -110 55t-48 148l131 21q3 -100 64 -146q67 7 119.5 50.5t82.5 99.5l35 -10q-60 -109 -122 -163.5t-152 -54.5z" />
    <glyph glyph-name="dotaccentcmb" unicode="&#x307;" horiz-adv-x="0" 
d="M-225 1139l-144 41q25 47 46 105t28 91l162 -18q-38 -145 -92 -219z" />
    <glyph glyph-name="dieresiscmb" unicode="&#x308;" horiz-adv-x="0" 
d="M-432 1147l-127 45q61 103 76 192l147 -20q-52 -155 -96 -217zM-117 1147l-125 45q59 106 74 192l150 -20q-50 -147 -99 -217z" />
    <glyph glyph-name="hookcmb" unicode="&#x309;" horiz-adv-x="0" 
d="M-74 1290q0 -79 -57.5 -140t-142.5 -103l-29 30q50 34 84.5 87t34.5 98q0 63 -64 63q-34 0 -88 -35l-24 62q71 61 155 61q58 0 94.5 -32.5t36.5 -90.5z" />
    <glyph glyph-name="ringcmb" unicode="&#x30a;" horiz-adv-x="0" 
d="M-276 1116q57 0 96 38t39 91q0 51 -30 78t-79 27q-53 0 -90 -36.5t-37 -90.5t30.5 -80.5t70.5 -26.5zM-279 1079q-59 0 -101 37t-42 105t55 116.5t123 48.5q63 0 104.5 -37.5t41.5 -103.5t-56 -116t-125 -50z" />
    <glyph glyph-name="hungarumlautcmb" unicode="&#x30b;" horiz-adv-x="0" 
d="M-106 1384l151 -43v-26l-287 -228l-18 15zM-395 1425l143 -36v-27l-215 -266l-20 10z" />
    <glyph glyph-name="caroncmb" unicode="&#x30c;" horiz-adv-x="0" 
d="M-258 1075h-61l-142 285l23 20l182 -170l233 172l21 -22z" />
    <glyph glyph-name="candrabinducmb" unicode="&#x310;" horiz-adv-x="0" 
d="M-176 1288l-129 47q59 98 80 197l149 -21q-46 -150 -100 -223zM-317 1071q-64 0 -110 58t-54 147l129 18q11 -100 71 -145q70 9 132.5 52t91.5 97l34 -10q-59 -105 -130 -161t-164 -56z" />
    <glyph glyph-name="dotbelowcmb" unicode="&#x323;" horiz-adv-x="0" 
d="M-414 -356l-143 41q25 48 46 106t26 90l163 -18q-38 -145 -92 -219z" />
    <glyph glyph-name="dieresisbelowcmb" unicode="&#x324;" horiz-adv-x="0" 
d="M-592 -332l-129 45q28 47 48.5 101.5t27.5 91.5l147 -21q-45 -144 -94 -217zM-301 -332l-127 45q58 94 76 193l149 -21q-50 -150 -98 -217z" />
    <glyph glyph-name="ringbelowcmb" unicode="&#x325;" horiz-adv-x="0" 
d="M-485 -371q56 0 95.5 37.5t39.5 89.5q0 51 -30 78t-79 27q-53 0 -90 -36.5t-37 -90.5t30 -79.5t71 -25.5zM-487 -410q-59 0 -101.5 37.5t-42.5 106.5q0 67 54.5 115.5t123.5 48.5q63 0 104.5 -37.5t41.5 -104.5q0 -65 -56 -115.5t-124 -50.5z" />
    <glyph glyph-name="cedillacmb" unicode="&#x327;" horiz-adv-x="0" 
d="M-537 -451q-38 0 -81.5 8t-67.5 21l33 111q96 -49 180 -49q50 0 86 20q-15 31 -50.5 66.5t-57 51.5t-72.5 52l4 23l153 196l58 2l-109 -143q37 -34 55 -52t43.5 -48t36 -57.5t9.5 -55.5q-3 -49 -70 -97.5t-150 -48.5z" />
    <glyph glyph-name="ogonekcmb" unicode="&#x328;" horiz-adv-x="0" 
d="M-307 -242l18 -94q-53 -35 -139 -62t-176 -30l-39 39q21 123 114.5 267.5t196.5 252.5l78 35q-105 -114 -187 -233t-96 -205l21 -13q24 -5 76.5 5.5t92.5 23.5z" />
    <glyph glyph-name="brevebelowcmb" unicode="&#x32e;" horiz-adv-x="0" 
d="M-516 -344q-69 0 -108.5 55t-47.5 148l129 20q5 -101 64 -145q69 8 122.5 51t82.5 100l34 -12q-60 -110 -121.5 -163.5t-154.5 -53.5z" />
    <glyph glyph-name="macronbelowcmb" unicode="&#x331;" horiz-adv-x="0" 
d="M-262 -268h-381l12 55h381z" />
    <glyph glyph-name="uni0374" unicode="&#x374;" horiz-adv-x="495" 
d="M391 1354q-55 -214 -299 -410l-18 12q57 93 95 208t42 214q39 9 94 3.5t86 -27.5z" />
    <glyph glyph-name="uni0375" unicode="&#x375;" horiz-adv-x="495" 
d="M418 162q-57 -229 -320 -438l-20 12q62 100 102.5 222.5t46.5 227.5q32 7 62 7q78 0 129 -31z" />
    <glyph glyph-name="uni037E" unicode="&#x37e;" horiz-adv-x="495" 
d="M434 160q-60 -239 -332 -457l-20 14q63 104 105.5 232t48.5 237q32 7 63 7q85 0 135 -33zM244 680q68 139 82 209q52 4 108 -5t84 -24q-49 -162 -98 -229q-42 0 -93 13.5t-83 35.5z" />
    <glyph glyph-name="tonos" unicode="&#x384;" horiz-adv-x="679" 
d="M401 1448h166l27 -35l-229 -348l-43 4z" />
    <glyph glyph-name="dieresistonos" unicode="&#x385;" horiz-adv-x="796" 
d="M279 1057l-127 45q63 112 73 192l150 -20q-52 -155 -96 -217zM737 1057l-125 45q58 98 74 192l148 -20q-45 -143 -97 -217zM492 1448h165l27 -35l-229 -348l-43 4z" />
    <glyph glyph-name="Alphatonos" unicode="&#x386;" horiz-adv-x="1058" 
d="M-45 0l6 35l113 47l655 1112h135l121 -1141l72 -16l-8 -37h-465l4 35l127 22l-27 353h-340l-184 -324l172 -49l-6 -37h-375zM385 471h299l-31 453h-10zM305 1194h172l8 -29l-188 -331h-39z" />
    <glyph glyph-name="anoteleia" unicode="&#x387;" horiz-adv-x="485" 
d="M356 397l-131 41q60 113 74 185l150 -19q-43 -141 -93 -207z" />
    <glyph glyph-name="Epsilontonos" unicode="&#x388;" horiz-adv-x="989" 
d="M0 1194h172l8 -29l-188 -331h-39zM33 0l4 37l143 26l180 1065l-133 27l6 39h834l-51 -307h-55l-68 239h-281l-84 -493l349 18l-15 -98l-342 18l-88 -501h281l207 266l45 -6l-101 -330h-831z" />
    <glyph glyph-name="Etatonos" unicode="&#x389;" horiz-adv-x="1294" 
d="M33 0l4 37l143 22l182 1074l-135 22l9 39h520l-8 -37l-138 -22l-84 -492h412l80 490l-133 22l8 39h520l-6 -37l-139 -22l-183 -1074l129 -22l-4 -39h-520l4 37l142 22l90 527h-410l-88 -527l129 -20l-4 -39h-520zM-6 1194h172l8 -29l-188 -331h-39z" />
    <glyph glyph-name="Iotatonos" unicode="&#x38a;" horiz-adv-x="673" 
d="M49 0l4 37l142 24l182 1072l-133 22l6 39h524l-6 -37l-137 -24l-185 -1070l132 -24l-5 -39h-524zM10 1194h172l8 -29l-188 -331h-39z" />
    <glyph glyph-name="Omicrontonos" unicode="&#x38c;" horiz-adv-x="1118" 
d="M29 1194h172l8 -29l-189 -331h-38zM1182 754q-2 -113 -34 -225.5t-91.5 -210t-138.5 -172.5t-182.5 -118.5t-215.5 -43.5q-202 0 -318 123.5t-116 330.5q0 200 85 377t239.5 287t341.5 110q210 0 320 -119.5t110 -338.5zM555 55q78 0 144.5 64t110.5 169.5t68.5 240
t24.5 276.5q0 73 -10 133.5t-30.5 106.5t-54 72t-77.5 26q-79 0 -149 -67.5t-116.5 -175t-73.5 -239.5t-27 -262q0 -98 18.5 -173t62.5 -123t109 -48z" />
    <glyph glyph-name="Upsilontonos" unicode="&#x38e;" horiz-adv-x="1034" 
d="M186 0l7 35l155 28l49 330q15 85 15 176q0 196 -57 356.5t-140 194.5q-49 0 -90 -6l2 49q40 17 140.5 33t140.5 16q204 -87 204 -565q0 -74 -2 -115h15q156 596 370 680q183 -22 207 -34l-8 -41q-89 -9 -171.5 -68.5t-143.5 -147t-111 -196t-80 -214t-45 -204.5l-39 -241
l141 -29l-6 -37h-553zM-90 1194h172l8 -29l-188 -331h-39z" />
    <glyph glyph-name="Omegatonos" unicode="&#x38f;" horiz-adv-x="1239" 
d="M47 1194h172l8 -29l-188 -331h-39zM1026 205l72 125h43l-45 -330h-443l-4 199q279 200 279 579q0 71 -10 132t-31.5 115.5t-62 86t-95.5 31.5q-75 0 -135 -45t-97 -115t-61.5 -161t-34.5 -176.5t-10 -168.5q0 -113 21.5 -165.5t87.5 -114.5l-54 -197h-417l45 330h41
l30 -125h242l2 8q-121 52 -193.5 154t-72.5 243q0 121 53 233.5t139 192.5t197 128t223 48q116 0 207 -36t147 -99t84.5 -145.5t28.5 -179.5q0 -95 -36 -181t-99 -153t-136 -118t-159 -91l-2 -4h256z" />
    <glyph glyph-name="iotadieresistonos" unicode="&#x390;" horiz-adv-x="503" 
d="M178 1057l-127 45q64 114 74 192l149 -20q-52 -155 -96 -217zM637 1057l-125 45q58 98 74 192l147 -20q-45 -145 -96 -217zM391 1448h166l27 -35l-230 -348l-43 4zM252 -16l-176 32l155 916h228l-135 -797l16 -12l127 92l25 -39z" />
    <glyph glyph-name="Alpha" unicode="&#x391;" horiz-adv-x="1058" 
d="M-45 0l6 35l113 47l655 1112h135l121 -1141l72 -16l-8 -37h-465l4 35l127 22l-27 353h-340l-184 -324l172 -49l-6 -37h-375zM385 471h299l-31 453h-10z" />
    <glyph glyph-name="Beta" unicode="&#x392;" horiz-adv-x="1030" 
d="M33 0l4 37l145 26l183 1070l-138 22l6 39h480q172 0 259 -68t87 -192q0 -216 -283 -299v-6q110 -5 180 -68.5t70 -181.5q0 -168 -131.5 -273.5t-335.5 -105.5h-526zM430 70h68q127 0 200.5 80t73.5 235q0 199 -205 199h-45zM532 641h50q96 0 157.5 82t61.5 225
q0 185 -150 185h-37z" />
    <glyph glyph-name="Gamma" unicode="&#x393;" horiz-adv-x="894" 
d="M193 61l182 1072l-148 22l6 39h807l-53 -356h-33l-86 288h-241l-183 -1063l144 -24l-4 -39h-551l4 37z" />
    <glyph glyph-name="uni0394" unicode="&#x394;" horiz-adv-x="985" 
d="M4 0l-12 121l571 1073h189l174 -1102l-47 -92h-875zM532 991l-405 -786h506l-90 784z" />
    <glyph glyph-name="Epsilon" unicode="&#x395;" horiz-adv-x="989" 
d="M33 0l4 37l143 26l180 1065l-133 27l6 39h834l-51 -307h-55l-68 239h-281l-84 -493l349 18l-15 -98l-342 18l-88 -501h281l207 266l45 -6l-101 -330h-831z" />
    <glyph glyph-name="Zeta" unicode="&#x396;" horiz-adv-x="915" 
d="M25 0l-7 76l742 1052h-363l-159 -305h-52l64 371h784l6 -59l-766 -1067h416l174 294l56 -6l-86 -356h-809z" />
    <glyph glyph-name="Eta" unicode="&#x397;" horiz-adv-x="1294" 
d="M33 0l4 37l143 22l182 1074l-135 22l9 39h520l-8 -37l-138 -22l-84 -492h412l80 490l-133 22l8 39h520l-6 -37l-139 -22l-183 -1074l129 -22l-4 -39h-520l4 37l142 22l90 527h-410l-88 -527l129 -20l-4 -39h-520z" />
    <glyph glyph-name="Theta" unicode="&#x398;" horiz-adv-x="1118" 
d="M532 528l-43 -110h-40l59 377h41l6 -117h184l39 117h43l-59 -377h-41l-4 110h-185zM1182 754q-2 -113 -34 -225.5t-91.5 -210t-138.5 -172.5t-182.5 -118.5t-215.5 -43.5q-202 0 -318 123.5t-116 330.5q0 200 85 377t239.5 287t341.5 110q210 0 320 -119.5t110 -338.5z
M555 55q78 0 144.5 64t110.5 169.5t68.5 240t24.5 276.5q0 73 -10 133.5t-30.5 106.5t-54 72t-77.5 26q-79 0 -149 -67.5t-116.5 -175t-73.5 -239.5t-27 -262q0 -98 18.5 -173t62.5 -123t109 -48z" />
    <glyph glyph-name="Iota" unicode="&#x399;" horiz-adv-x="673" 
d="M49 0l4 37l142 24l182 1072l-133 22l6 39h524l-6 -37l-137 -24l-185 -1070l132 -24l-5 -39h-524z" />
    <glyph glyph-name="Kappa" unicode="&#x39a;" horiz-adv-x="1091" 
d="M33 0l4 37l145 20l180 1076l-135 22l9 39h524l-6 -37l-140 -24l-182 -1074l129 -20l-2 -39h-526zM776 0l-225 543l8 41l436 530l-127 47l6 33h404l-10 -39l-168 -41l-352 -405l290 -631l88 -43l-4 -35h-346z" />
    <glyph glyph-name="Lambda" unicode="&#x39b;" horiz-adv-x="1050" 
d="M643 924l-479 -838l172 -49l-6 -37h-375l6 35l113 47l655 1112h135l121 -1141l72 -16l-8 -37h-465l4 35l127 22l-62 867h-10z" />
    <glyph glyph-name="Mu" unicode="&#x39c;" horiz-adv-x="1533" 
d="M973 0l4 35l141 24l86 887h-10l-483 -962h-95l-155 1011h-8l-217 -909l149 -49l-4 -37h-373l4 35l140 51l258 1030l-134 41l9 37h397l127 -856h4l424 856h365l-7 -35l-135 -37l-88 -1069l113 -16l-4 -37h-508z" />
    <glyph glyph-name="Nu" unicode="&#x39d;" horiz-adv-x="1218" 
d="M10 0l4 35l144 49l174 1012l-127 61l4 37h334l430 -801h6l125 707l-186 57l6 37h417l-6 -35l-147 -51l-195 -1124h-104l-490 956h-8l-145 -848l198 -55l-6 -37h-428z" />
    <glyph glyph-name="Xi" unicode="&#x39e;" horiz-adv-x="1003" 
d="M840 205l90 164l31 -9l-87 -360h-786l31 362l24 5l47 -162h650zM328 989l-84 -155h-29l68 360h768l-52 -360h-30l-15 155h-626zM420 537l-47 -109h-29l59 369h31l8 -111h289l47 111h29l-59 -369h-27l-12 109h-289z" />
    <glyph glyph-name="Omicron" unicode="&#x39f;" horiz-adv-x="1118" 
d="M1182 754q-2 -113 -34 -225.5t-91.5 -210t-138.5 -172.5t-182.5 -118.5t-215.5 -43.5q-202 0 -318 123.5t-116 330.5q0 200 85 377t239.5 287t341.5 110q210 0 320 -119.5t110 -338.5zM555 55q78 0 144.5 64t110.5 169.5t68.5 240t24.5 276.5q0 73 -10 133.5t-30.5 106.5
t-54 72t-77.5 26q-79 0 -149 -67.5t-116.5 -175t-73.5 -239.5t-27 -262q0 -98 18.5 -173t62.5 -123t109 -48z" />
    <glyph glyph-name="Pi" unicode="&#x3a0;" horiz-adv-x="1265" 
d="M180 61l180 1072l-133 22l4 39h1149l-4 -37l-139 -24l-180 -1070l129 -24l-4 -39h-514l4 37l137 24l180 1067h-381l-180 -1065l125 -24l-6 -39h-514l4 37z" />
    <glyph glyph-name="Rho" unicode="&#x3a1;" horiz-adv-x="995" 
d="M33 0l4 35l143 26l182 1072l-135 22l9 39h518q148 0 242 -78t94 -209q0 -114 -39.5 -199.5t-109.5 -135t-158 -73.5t-195 -24h-84l-74 -414l152 -24l-4 -37h-545zM512 543h49q109 0 182.5 100t73.5 248q0 225 -149 231h-54z" />
    <glyph glyph-name="Sigma" unicode="&#x3a3;" horiz-adv-x="925" 
d="M469 1128l166 -499l-395 -424h528l111 168l28 -6l-90 -367h-792l-13 70l398 430l-215 641l18 53h793l-58 -373h-33l-96 307h-350z" />
    <glyph glyph-name="Tau" unicode="&#x3a4;" horiz-adv-x="927" 
d="M174 0l6 37l144 29l178 1058h-176l-166 -303h-54l66 373h940l-65 -373h-52l-69 303h-170l-181 -1056l132 -29l-7 -39h-526z" />
    <glyph glyph-name="Upsilon" unicode="&#x3a5;" horiz-adv-x="1034" 
d="M186 0l7 35l155 28l49 330q15 85 15 176q0 196 -57 356.5t-140 194.5q-49 0 -90 -6l2 49q40 17 140.5 33t140.5 16q204 -87 204 -565q0 -74 -2 -115h15q156 596 370 680q183 -22 207 -34l-8 -41q-89 -9 -171.5 -68.5t-143.5 -147t-111 -196t-80 -214t-45 -204.5l-39 -241
l141 -29l-6 -37h-553z" />
    <glyph glyph-name="Phi" unicode="&#x3a6;" horiz-adv-x="1230" 
d="M473 61l21 132q-197 7 -306.5 101t-109.5 245q0 228 144 358t411 150l22 129l-135 22l6 39h510l-4 -37l-139 -24l-21 -127q201 -7 308.5 -103.5t107.5 -251.5q0 -227 -143 -354t-414 -147l-20 -130l129 -24l-6 -39h-508l6 37zM862 987l-123 -739q132 3 213.5 131
t81.5 317q0 133 -42 211.5t-130 79.5zM334 528q0 -277 170 -280l121 739q-133 -6 -211 -135t-80 -324z" />
    <glyph glyph-name="Chi" unicode="&#x3a7;" horiz-adv-x="1028" 
d="M543 0l6 35l121 28l-158 420l-303 -401l149 -45l-4 -37h-393l8 35l121 35l393 489l-217 578l-94 20l6 37h477l-8 -35l-112 -24l139 -369l262 348l-107 43l9 37h350l-8 -35l-156 -55l-322 -408l246 -639l88 -20l-6 -37h-487z" />
    <glyph glyph-name="Psi" unicode="&#x3a8;" horiz-adv-x="1409" 
d="M393 0l4 37l144 24l51 301q-77 8 -140.5 28t-120.5 57.5t-89.5 101.5t-32.5 149q0 45 8 86l47 291h-137l6 37l262 82h133l-67 -410q-15 -96 -15 -133q0 -90 37 -142t121 -73l119 697l-119 22l6 39h498l-8 -37l-123 -24l-121 -703q56 8 96.5 26.5t70 48t51 78t35.5 106
t28 142.5l61 363h121l246 -72l-9 -37h-135l-47 -284q-15 -88 -53 -160t-88.5 -119.5t-117 -82t-132.5 -52t-139 -25.5l-51 -299l129 -24l-4 -39h-525z" />
    <glyph glyph-name="uni03A9" unicode="&#x3a9;" horiz-adv-x="1239" 
d="M1026 205l72 125h43l-45 -330h-443l-4 199q279 200 279 579q0 71 -10 132t-31.5 115.5t-62 86t-95.5 31.5q-75 0 -135 -45t-97 -115t-61.5 -161t-34.5 -176.5t-10 -168.5q0 -113 21.5 -165.5t87.5 -114.5l-54 -197h-417l45 330h41l30 -125h242l2 8q-121 52 -193.5 154
t-72.5 243q0 121 53 233.5t139 192.5t197 128t223 48q116 0 207 -36t147 -99t84.5 -145.5t28.5 -179.5q0 -95 -36 -181t-99 -153t-136 -118t-159 -91l-2 -4h256z" />
    <glyph glyph-name="Iotadieresis" unicode="&#x3aa;" horiz-adv-x="673" 
d="M49 0l4 37l142 24l182 1072l-133 22l6 39h524l-6 -37l-137 -24l-185 -1070l132 -24l-5 -39h-524zM379 1278l-129 45q28 47 48.5 101.5t27.5 91.5l149 -21q-53 -153 -96 -217zM719 1278l-127 45q53 90 76 193l149 -21q-48 -149 -98 -217z" />
    <glyph glyph-name="Upsilondieresis" unicode="&#x3ab;" horiz-adv-x="1034" 
d="M186 0l7 35l155 28l49 330q15 85 15 176q0 196 -57 356.5t-140 194.5q-49 0 -90 -6l2 49q40 17 140.5 33t140.5 16q204 -87 204 -565q0 -74 -2 -115h15q156 596 370 680q183 -22 207 -34l-8 -41q-89 -9 -171.5 -68.5t-143.5 -147t-111 -196t-80 -214t-45 -204.5l-39 -241
l141 -29l-6 -37h-553zM559 1278l-129 45q28 47 48.5 101.5t27.5 91.5l149 -21q-53 -153 -96 -217zM899 1278l-127 45q53 90 76 193l149 -21q-48 -149 -98 -217z" />
    <glyph glyph-name="alphatonos" unicode="&#x3ac;" horiz-adv-x="843" 
d="M623 -16l-160 32q0 111 18 269q-33 -60 -70.5 -112t-67.5 -83.5t-55 -54.5t-38 -32l-14 -9h-150q-27 102 -27 237q0 155 30.5 305.5t82.5 233.5q53 85 113 133.5t139 48.5q125 0 178 -180q16 46 47 105l191 75l20 -37q-74 -156 -126.5 -374.5t-51.5 -413.5l18 -14
l142 116l20 -34zM305 156q63 53 110.5 107t84.5 130q30 169 69 285q-23 57 -55 98t-59 60.5t-76 48.5q-46 -77 -72 -211.5t-26 -304.5q0 -133 12 -209zM604 1448h166l27 -35l-230 -348l-43 4z" />
    <glyph glyph-name="epsilontonos" unicode="&#x3ad;" horiz-adv-x="702" 
d="M557 1448h166l27 -35l-230 -348l-43 4zM580 203l22 -25l-29 -162q-32 -14 -107 -23t-142 -9q-120 0 -200.5 61t-80.5 164q0 79 67.5 159t141.5 111l4 8q-101 104 -98 222q2 85 93.5 164t205.5 79q173 0 274 -49l-29 -172l-32 -18q-52 23 -133 37t-160 14q-26 0 -45.5 -3
t-29.5 -6t-30.5 -11t-35.5 -13q0 -68 33.5 -124t78.5 -81q98 29 187 29q17 0 49 -4q4 -44 -5 -103t-22 -77q-108 -3 -233 80q-57 -22 -93.5 -55.5t-66.5 -84.5q56 -135 221 -135q104 0 195 27z" />
    <glyph glyph-name="etatonos" unicode="&#x3ae;" horiz-adv-x="897" 
d="M76 0l145 829l-8 19l-123 -12l-6 34l307 82l58 -20l-39 -219q196 239 323 239q52 0 79.5 -67t27.5 -183q0 -84 -15 -186l-153 -940h-219l155 973q15 103 15 156q0 42 -11 79l-26 11q-83 -48 -191 -166l-106 -629h-213zM621 1448h165l27 -35l-229 -348l-43 4z" />
    <glyph glyph-name="iotatonos" unicode="&#x3af;" horiz-adv-x="503" 
d="M393 1448h166l27 -35l-230 -348l-43 4zM252 -16l-176 32l155 916h228l-135 -797l16 -12l127 92l25 -39z" />
    <glyph glyph-name="upsilondieresistonos" unicode="&#x3b0;" horiz-adv-x="839" 
d="M340 1057l-127 45q64 114 74 192l149 -20q-52 -155 -96 -217zM799 1057l-125 45q58 98 74 192l147 -20q-45 -145 -96 -217zM553 1448h166l26 -35l-229 -348l-43 4zM131 266q0 174 90 572l-8 18l-166 -16l-4 37l311 79q48 -25 90 -67q-186 -324 -241 -549
q54 -59 132 -95.5t169 -39.5q46 0 82 20q59 102 86 230q31 145 26 237l-149 185l8 36q27 9 102 24t111 15q49 -74 49 -266q0 -119 -51.5 -249t-127 -227.5t-164 -161.5t-159.5 -64q-86 0 -136.5 74t-49.5 208z" />
    <glyph glyph-name="alpha" unicode="&#x3b1;" horiz-adv-x="843" 
d="M623 -16l-160 32q0 111 18 269q-33 -60 -70.5 -112t-67.5 -83.5t-55 -54.5t-38 -32l-14 -9h-150q-27 102 -27 237q0 155 30.5 305.5t82.5 233.5q53 85 113 133.5t139 48.5q125 0 178 -180q16 46 47 105l191 75l20 -37q-74 -156 -126.5 -374.5t-51.5 -413.5l18 -14
l142 116l20 -34zM305 156q63 53 110.5 107t84.5 130q30 169 69 285q-23 57 -55 98t-59 60.5t-76 48.5q-46 -77 -72 -211.5t-26 -304.5q0 -133 12 -209z" />
    <glyph glyph-name="beta" unicode="&#x3b2;" horiz-adv-x="851" 
d="M182 -424h-176l232 1479q25 170 119 283.5t223 113.5q64 0 112.5 -24t74 -63.5t38 -82t12.5 -88.5q0 -127 -64 -224.5t-175 -183.5q231 -204 231 -436q0 -81 -58.5 -167t-147 -141.5t-169.5 -55.5q-102 0 -182 39zM412 1067l-127 -819q135 -103 262 -103q56 0 102 35
q-2 107 -56.5 240t-127.5 203l-6 79q71 94 119.5 223t48.5 246q0 152 -97 226q-46 -44 -72 -124.5t-46 -205.5z" />
    <glyph glyph-name="gamma" unicode="&#x3b3;" horiz-adv-x="813" 
d="M682 948q53 7 110.5 -5.5t88.5 -43.5q-6 -83 -168 -407t-262 -474l-52 -428q-62 -27 -145 -24q-62 0 -96 10l121 453q-16 199 -62 449.5t-76 350.5l-18 15l-90 -8l-2 45l258 71l67 -14q25 -109 46.5 -353t29.5 -468h21q34 59 128.5 416.5t100.5 414.5z" />
    <glyph glyph-name="delta" unicode="&#x3b4;" horiz-adv-x="780" 
d="M59 332q0 171 94 341t226 251q-47 59 -65 82t-47.5 68t-40.5 79.5t-11 71.5q0 78 47.5 131.5t119 75.5t163.5 22q87 0 176 -22.5t133 -59.5l-61 -215l-35 -12q-62 53 -150 86t-178 33q-78 0 -143 -43q11 -26 58 -80.5t102.5 -121t110.5 -145.5t91.5 -177t36.5 -193
q0 -136 -48.5 -254.5t-139 -192t-203.5 -73.5q-121 0 -178.5 95.5t-57.5 252.5zM526 162q31 95 31 180q3 257 -90 453q-131 -37 -208 -125t-124 -258q118 -243 316 -254q50 0 75 4z" />
    <glyph glyph-name="epsilon" unicode="&#x3b5;" horiz-adv-x="702" 
d="M580 203l22 -25l-29 -162q-32 -14 -107 -23t-142 -9q-120 0 -200.5 61t-80.5 164q0 79 67.5 159t141.5 111l4 8q-101 104 -98 222q2 85 93.5 164t205.5 79q173 0 274 -49l-29 -172l-32 -18q-52 23 -133 37t-160 14q-26 0 -45.5 -3t-29.5 -6t-30.5 -11t-35.5 -13
q0 -68 33.5 -124t78.5 -81q98 29 187 29q17 0 49 -4q4 -44 -5 -103t-22 -77q-108 -3 -233 80q-57 -22 -93.5 -55.5t-66.5 -84.5q56 -135 221 -135q104 0 195 27z" />
    <glyph glyph-name="zeta" unicode="&#x3b6;" horiz-adv-x="661" 
d="M221 1440h33q80 -36 193.5 -60t214.5 -24q50 0 94 6q17 -76 14 -154q-524 -479 -526 -938q22 -35 96.5 -62.5t160.5 -55t122 -58.5q-13 -113 -75 -256t-118 -205l-39 15q78 155 94 258q-19 21 -254 90q-92 27 -130 76t-38 153q0 423 582 944l-6 17q-46 -6 -119 -6
q-220 0 -344 51z" />
    <glyph glyph-name="eta" unicode="&#x3b7;" horiz-adv-x="897" 
d="M76 0l145 829l-8 19l-123 -12l-6 34l307 82l58 -20l-39 -219q196 239 323 239q52 0 79.5 -67t27.5 -183q0 -84 -15 -186l-153 -940h-219l155 973q15 103 15 156q0 42 -11 79l-26 11q-83 -48 -191 -166l-106 -629h-213z" />
    <glyph glyph-name="theta" unicode="&#x3b8;" horiz-adv-x="765" 
d="M279 -16q-57 0 -98 29.5t-64.5 83t-34 120t-10.5 148.5q0 250 65.5 504.5t171 419.5t211.5 165q113 0 182.5 -90.5t69.5 -255.5q0 -182 -44.5 -384t-113 -364.5t-159 -269t-176.5 -106.5zM453 193q92 169 161 446l-421 72q-28 -162 -25 -273q0 -100 2 -116
q60 -59 124.5 -89t158.5 -40zM360 1251q-39 -58 -80 -179.5t-71 -264.5l440 4q21 133 21 213q0 12 -1 32.5t-1 28.5q-47 79 -127 125.5t-181 40.5z" />
    <glyph glyph-name="iota" unicode="&#x3b9;" horiz-adv-x="503" 
d="M252 -16l-176 32l155 916h228l-135 -797l16 -12l127 92l25 -39z" />
    <glyph glyph-name="kappa" unicode="&#x3ba;" horiz-adv-x="884" 
d="M672 799l-113 -158l158 -500l20 -6l125 90l19 -35l-234 -204l-127 26l-117 408l-51 -72l-59 -348h-213l143 838l-8 18l-125 -14l-6 35l303 75l66 -20l-80 -465l217 344q46 74 93 107.5t105 33.5q61 0 113 -24l-45 -197h-39z" />
    <glyph glyph-name="lambda" unicode="&#x3bb;" horiz-adv-x="808" 
d="M586 0l-74 684l-270 -684h-219l-13 33l475 909l-20 195q-8 89 -49 141q-150 -11 -258 -70l-31 4l-25 220q59 24 154 24q30 0 62 -8t69.5 -30t68 -55.5t55 -90.5t32.5 -129l108 -959q21 -1 40.5 1t30.5 5t31.5 10t28.5 9l11 -14q-17 -49 -65 -109t-103 -102z" />
    <glyph glyph-name="uni03BC" unicode="&#x3bc;" horiz-adv-x="888" 
d="M-41 -424l227 1356h211l-94 -563q-23 -153 -12 -203l24 -10q93 46 201 166l102 610h220l-142 -797l17 -14l131 110l24 -41l-227 -206l-176 32l39 222q-206 -254 -344 -254q-48 0 -72 55l-16 -12q45 -75 74.5 -177.5t15.5 -195.5l-10 -78h-193z" />
    <glyph glyph-name="nu" unicode="&#x3bd;" horiz-adv-x="804" 
d="M563 846l2 53q143 53 191 53q32 -13 50.5 -61.5t18.5 -108.5q0 -72 -37 -176.5t-97.5 -216.5t-119.5 -206.5t-120 -182.5l-228 -16q-7 123 -37.5 467t-40.5 380l-14 15l-100 -10l-4 45l284 71l68 -14q12 -62 31 -385t18 -444h18q70 111 140.5 292.5t79.5 290.5z" />
    <glyph glyph-name="xi" unicode="&#x3be;" horiz-adv-x="632" 
d="M190 1102q0 149 108.5 250.5t264.5 101.5q128 0 215 -72l-55 -196l-43 -10q-110 69 -229 69q-57 0 -93.5 -14.5t-83.5 -52.5q-4 -36 -4 -66q0 -104 26 -205.5t77 -142.5q151 72 245 76q7 -25 -1 -99t-27 -112h-37q-10 0 -20.5 1.5t-18 2.5t-18.5 4.5t-16.5 4.5t-17.5 7
t-16 7.5t-18 9t-17 9.5t-20 11.5t-20 11.5q-89 -57 -145 -164.5t-56 -220.5q0 -36 10 -88q14 -4 94 -25t136 -36.5t117 -36.5t79 -35q-13 -123 -79 -256t-115 -184l-35 20q80 146 88 238q-13 9 -174 52.5t-189 55.5q-51 74 -51 218t61 270.5t187 210.5v8q-109 134 -109 377z
" />
    <glyph glyph-name="omicron" unicode="&#x3bf;" horiz-adv-x="720" 
d="M508 180q74 94 86 301q0 22 -4 72q-44 104 -111 164.5t-153 64.5q-35 0 -78 -22q-43 -46 -70.5 -133t-30.5 -162q-2 -35 9 -86q45 -96 120.5 -153.5t153.5 -59.5q37 0 78 14zM291 -16q-110 0 -170 103.5t-60 266.5q0 154 46.5 289t136.5 222t205 87q111 0 183.5 -94.5
t72.5 -259.5q-1 -158 -56.5 -299.5t-151 -228t-206.5 -86.5z" />
    <glyph glyph-name="pi" unicode="&#x3c0;" horiz-adv-x="866" 
d="M94 721l-14 41l78 170h729l-29 -211h-164l-73 -512l14 -16q84 6 143 22l10 -14q-34 -49 -122 -118t-170 -99l-31 16l110 721h-237l-82 -508q-16 -102 -59 -165.5t-111 -63.5q-35 0 -58 37t-24 114l8 21h94q34 0 52.5 18.5t27.5 69.5l82 477h-174z" />
    <glyph glyph-name="rho" unicode="&#x3c1;" horiz-adv-x="778" 
d="M301 -14q-55 0 -113 14l-49 -424h-168l109 666q16 128 55 252.5t96 227.5t135.5 166.5t163.5 63.5q109 0 166.5 -98.5t57.5 -257.5q0 -116 -38.5 -228.5t-100.5 -196t-145 -134.5t-169 -51zM225 326l-12 -109q159 -98 268 -98q73 70 113.5 175.5t40.5 219.5q0 40 -6 80
q-48 78 -114 110.5t-171 47.5q-90 -144 -119 -426z" />
    <glyph glyph-name="sigma1" unicode="&#x3c2;" horiz-adv-x="661" 
d="M281 776q-91 -157 -91 -383q0 -73 17 -160q28 -10 126 -35.5t179 -53t111 -54.5q-10 -103 -76.5 -243t-128.5 -201l-37 18q92 145 111 264q-12 8 -175.5 44t-214.5 61q-36 71 -36 221q0 134 34.5 273t98.5 243q110 182 268 182q103 0 219 -49q0 -110 -45 -215l-41 -10
q-55 41 -136 69t-151 33q-16 0 -32 -4z" />
    <glyph glyph-name="sigma" unicode="&#x3c3;" horiz-adv-x="804" 
d="M780 684q-116 32 -151 39q43 -105 43 -231q0 -92 -25 -182t-69.5 -163t-114 -118t-150.5 -45q-116 0 -183 104.5t-67 265.5q0 153 51.5 288.5t152 222.5t227.5 87q203 0 333 -26q0 -26 -3.5 -110.5t-6.5 -104.5zM586 539q0 96 -23 196q-111 19 -184 19q-83 4 -148 -25
q-35 -39 -57 -111t-29 -139q-6 -53 0 -102q66 -102 131 -150.5t142 -48.5q36 0 71 8q97 125 97 353z" />
    <glyph glyph-name="tau" unicode="&#x3c4;" horiz-adv-x="686" 
d="M696 735h-278q-106 -219 -109 -473q-2 -27 2 -74l19 -12q34 -6 84 -2q88 3 168 57l12 -24q-64 -86 -149.5 -154.5t-159.5 -68.5q-72 0 -108 46t-36 124q0 112 60 272t145 309h-305l-12 39l75 158h619z" />
    <glyph glyph-name="upsilon" unicode="&#x3c5;" horiz-adv-x="839" 
d="M131 266q0 174 90 572l-8 18l-166 -16l-4 37l311 79q48 -25 90 -67q-186 -324 -241 -549q54 -59 132 -95.5t169 -39.5q46 0 82 20q59 102 86 230q31 145 26 237l-149 185l8 36q27 9 102 24t111 15q49 -74 49 -266q0 -119 -51.5 -249t-127 -227.5t-164 -161.5t-159.5 -64
q-86 0 -136.5 74t-49.5 208z" />
    <glyph glyph-name="phi" unicode="&#x3c6;" horiz-adv-x="1038" 
d="M1022 608q0 -135 -70 -267.5t-185 -226t-243 -120.5l-43 -418h-190l63 412q-155 13 -224 96.5t-69 253.5q0 181 68 339.5t160 254.5h209l8 -29q-59 -38 -117 -91.5t-111 -119.5t-91 -146t-48 -159q-3 -30 0 -61q99 -86 248 -136l10 66q15 105 38.5 201t61 188t84.5 158.5
t111.5 107.5t138.5 41q191 0 191 -344zM565 365l-22 -211q85 -15 168 -15q70 64 116 191t52 245q3 45 -2 78q-92 126 -238 142q-19 -33 -30.5 -94.5t-25 -180t-18.5 -155.5z" />
    <glyph glyph-name="chi" unicode="&#x3c7;" horiz-adv-x="815" 
d="M457 -434l-25 10l-24 584l-269 -584h-194l-13 27l394 700l-127 498l-172 20l-4 39l290 88l27 -12l31 -543l237 541h221l19 -33l-387 -641l110 -496l177 29l16 -35z" />
    <glyph glyph-name="psi" unicode="&#x3c8;" horiz-adv-x="1128" 
d="M594 1206h205l-176 -993q52 -6 98 -6q90 0 125 16q59 54 97 152.5t38 175.5q0 61 -10 123l-111 182l4 53q36 13 104 28t105 15q43 -70 43 -225q0 -110 -40.5 -231t-109 -225.5t-169.5 -181.5t-213 -97l-72 -412h-80l39 406q-72 3 -127.5 21t-101.5 56.5t-70.5 107.5
t-24.5 165q0 22 1 46t2.5 43.5t5 48t5.5 45t8 50t8.5 47.5t10.5 53.5t10.5 52t12 59t12.5 59.5l-14 14l-166 -14l-6 37l297 79q10 -3 51 -33t45 -38q-82 -147 -128 -272.5t-79 -274.5q89 -60 273 -102z" />
    <glyph glyph-name="omega" unicode="&#x3c9;" horiz-adv-x="1120" 
d="M1044 524q0 -136 -46 -261t-125.5 -202t-170.5 -77q-73 0 -123.5 52.5t-72.5 151.5h-8q-46 -86 -112.5 -145t-137.5 -59q-185 0 -185 327q0 211 90.5 379.5t243.5 261.5l109 -92l-6 -47q-68 -30 -121.5 -64.5t-104.5 -86t-84 -124t-43 -163.5q-5 -31 -2 -74
q95 -98 258 -98q30 0 46 4q8 5 20 29q-25 92 -25 190q0 90 21 203q44 20 121 20q79 0 121 -20q-18 -93 -65.5 -212.5t-96.5 -189.5l4 -20q77 -35 164 -35q54 0 91 10t91 35q31 64 31 141q4 357 -195 539l23 35h170q58 -71 89 -178t31 -230z" />
    <glyph glyph-name="iotadieresis" unicode="&#x3ca;" horiz-adv-x="503" 
d="M248 1147l-127 47q61 103 76 192l149 -22q-53 -153 -98 -217zM567 1147l-127 47q61 103 76 192l150 -22q-52 -150 -99 -217zM252 -16l-176 32l155 916h228l-135 -797l16 -12l127 92l25 -39z" />
    <glyph glyph-name="upsilondieresis" unicode="&#x3cb;" horiz-adv-x="839" 
d="M446 1147l-127 47q61 103 76 192l150 -22q-52 -150 -99 -217zM766 1147l-127 47q61 103 76 192l149 -22q-53 -153 -98 -217zM131 266q0 174 90 572l-8 18l-166 -16l-4 37l311 79q48 -25 90 -67q-186 -324 -241 -549q54 -59 132 -95.5t169 -39.5q46 0 82 20q59 102 86 230
q31 145 26 237l-149 185l8 36q27 9 102 24t111 15q49 -74 49 -266q0 -119 -51.5 -249t-127 -227.5t-164 -161.5t-159.5 -64q-86 0 -136.5 74t-49.5 208z" />
    <glyph glyph-name="omicrontonos" unicode="&#x3cc;" horiz-adv-x="720" 
d="M532 1448h166l27 -35l-229 -348l-43 4zM508 180q74 94 86 301q0 22 -4 72q-44 104 -111 164.5t-153 64.5q-35 0 -78 -22q-43 -46 -70.5 -133t-30.5 -162q-2 -35 9 -86q45 -96 120.5 -153.5t153.5 -59.5q37 0 78 14zM291 -16q-110 0 -170 103.5t-60 266.5q0 154 46.5 289
t136.5 222t205 87q111 0 183.5 -94.5t72.5 -259.5q-1 -158 -56.5 -299.5t-151 -228t-206.5 -86.5z" />
    <glyph glyph-name="upsilontonos" unicode="&#x3cd;" horiz-adv-x="839" 
d="M573 1448h166l27 -35l-229 -348l-43 4zM131 266q0 174 90 572l-8 18l-166 -16l-4 37l311 79q48 -25 90 -67q-186 -324 -241 -549q54 -59 132 -95.5t169 -39.5q46 0 82 20q59 102 86 230q31 145 26 237l-149 185l8 36q27 9 102 24t111 15q49 -74 49 -266
q0 -119 -51.5 -249t-127 -227.5t-164 -161.5t-159.5 -64q-86 0 -136.5 74t-49.5 208z" />
    <glyph glyph-name="omegatonos" unicode="&#x3ce;" horiz-adv-x="1120" 
d="M674 1448h166l26 -35l-229 -348l-43 4zM1044 524q0 -136 -46 -261t-125.5 -202t-170.5 -77q-73 0 -123.5 52.5t-72.5 151.5h-8q-46 -86 -112.5 -145t-137.5 -59q-185 0 -185 327q0 211 90.5 379.5t243.5 261.5l109 -92l-6 -47q-68 -30 -121.5 -64.5t-104.5 -86t-84 -124
t-43 -163.5q-5 -31 -2 -74q95 -98 258 -98q30 0 46 4q8 5 20 29q-25 92 -25 190q0 90 21 203q44 20 121 20q79 0 121 -20q-18 -93 -65.5 -212.5t-96.5 -189.5l4 -20q77 -35 164 -35q54 0 91 10t91 35q31 64 31 141q4 357 -195 539l23 35h170q58 -71 89 -178t31 -230z" />
    <glyph glyph-name="uni03D8" unicode="&#x3d8;" horiz-adv-x="1118" 
d="M1176 754q-3 -172 -71.5 -332.5t-195 -277t-284.5 -148.5l-78 -418h-207l78 414q-159 28 -247.5 146t-88.5 300q0 119 31.5 234t91.5 212t140 171t183.5 115.5t216.5 41.5q211 0 321 -119.5t110 -338.5zM551 55q102 0 183.5 109.5t123 279.5t41.5 361q0 151 -43.5 244.5
t-128.5 93.5q-106 0 -192 -115t-130.5 -284t-44.5 -345q0 -152 47 -248t144 -96z" />
    <glyph glyph-name="uni03D9" unicode="&#x3d9;" horiz-adv-x="720" 
d="M141 -422l68 422q-72 34 -110 129t-38 225q0 154 46.5 289t136.5 222t205 87q111 0 183.5 -94.5t72.5 -259.5q-1 -196 -84 -361t-211 -227l-70 -432h-199zM508 180q74 94 86 301q0 22 -4 72q-44 104 -111 164.5t-153 64.5q-35 0 -78 -22q-43 -46 -70.5 -133t-30.5 -162
q-2 -35 9 -86q45 -96 120.5 -153.5t153.5 -59.5q37 0 78 14z" />
    <glyph glyph-name="uni03DA" unicode="&#x3da;" horiz-adv-x="800" 
d="M836 776h-279q-60 0 -105.5 -25t-71 -62.5t-41.5 -91t-21 -101.5t-5 -103q0 -109 58.5 -161.5t154.5 -57.5l199 -12q35 -7 35 -68q0 -67 -97.5 -267.5t-156.5 -260.5l-60 12q45 77 109.5 225t73.5 197h-121q-399 0 -399 350q0 121 44.5 229.5t115.5 182.5t160.5 117
t178.5 43l211 51h49z" />
    <glyph glyph-name="uni03DB" unicode="&#x3db;" horiz-adv-x="800" 
d="M836 776h-279q-60 0 -105.5 -25t-71 -62.5t-41.5 -91t-21 -101.5t-5 -103q0 -109 58.5 -161.5t154.5 -57.5l199 -12q35 -7 35 -68q0 -67 -97.5 -267.5t-156.5 -260.5l-60 12q44 76 107 224t70 198h-115q-399 0 -399 350q0 121 44.5 229.5t115.5 182.5t160.5 117t178.5 43
l211 51h49z" />
    <glyph glyph-name="uni03DC" unicode="&#x3dc;" horiz-adv-x="872" 
d="M410 0h-263l207 1194h690l-8 -68h-432l-88 -510l348 17l-18 -101l-342 19z" />
    <glyph glyph-name="uni03DD" unicode="&#x3dd;" horiz-adv-x="819" 
d="M113 -424l237 1356h590l-10 -66h-338l-88 -497l256 18l-15 -98l-249 16l-129 -729h-254z" />
    <glyph glyph-name="uni03DE" unicode="&#x3de;" horiz-adv-x="794" 
d="M424 -158h-94l309 621h-530l383 731h94l-252 -487h532z" />
    <glyph glyph-name="uni03DF" unicode="&#x3df;" horiz-adv-x="794" 
d="M487 0h-92l252 494h-532l364 700h88l-235 -457h540z" />
    <glyph glyph-name="uni03E0" unicode="&#x3e0;" horiz-adv-x="1259" 
d="M1106 -412h-244q56 309 56 486q0 110 -21 227l-506 -358l-37 55l525 377q-42 134 -99 219l-540 -381l-33 53l534 381q-51 77 -98 126t-118 92.5t-170.5 64.5t-235.5 24l6 62q146 0 160 -2q218 -6 386.5 -78t275 -197t160.5 -291t54 -366q0 -57 -17.5 -216t-37.5 -278z
" />
    <glyph glyph-name="uni03E1" unicode="&#x3e1;" horiz-adv-x="1024" 
d="M737 -520l-200 69q77 167 122 312t56 305l-522 -195l-17 66l543 201q-4 171 -33 258l-565 -215l-17 61l560 221q-39 96 -80.5 166.5t-99 134t-135.5 109.5t-179 78l20 63q205 -51 357 -138.5t241.5 -199.5t132 -239t42.5 -271q0 -191 -58 -380.5t-168 -405.5z" />
    <glyph glyph-name="uni0400" unicode="&#x400;" horiz-adv-x="989" 
d="M446 1444l84 100l306 -246l-9 -20l-381 139v27zM33 0l4 37l143 26l180 1065l-133 27l6 39h834l-51 -307h-55l-68 239h-281l-84 -493l349 18l-15 -98l-342 18l-88 -501h281l207 266l45 -6l-101 -330h-831z" />
    <glyph glyph-name="afii10023" unicode="&#x401;" horiz-adv-x="989" 
d="M596 1278l-129 45q28 47 48.5 101.5t27.5 91.5l149 -21q-53 -153 -96 -217zM936 1278l-127 45q53 90 76 193l149 -21q-48 -149 -98 -217zM33 0l4 37l143 26l180 1065l-133 27l6 39h834l-51 -307h-55l-68 239h-281l-84 -493l349 18l-15 -98l-342 18l-88 -501h281l207 266
l45 -6l-101 -330h-831z" />
    <glyph glyph-name="afii10051" unicode="&#x402;" horiz-adv-x="1202" 
d="M948 1124h-223l-80 -469q142 37 240 37q158 0 234.5 -71t76.5 -197q0 -104 -33 -189.5t-86.5 -139.5t-120 -83.5t-135.5 -29.5q-105 0 -182 41l37 235h39l51 -197q13 -6 33 -6q58 0 96.5 100.5t38.5 235.5q0 113 -31 172.5t-110 59.5q-73 0 -158 -33l-103 -590h-372l4 37
l131 24l180 1063h-143l-172 -303h-45l61 373h954l-57 -342h-43z" />
    <glyph glyph-name="afii10052" unicode="&#x403;" horiz-adv-x="899" 
d="M891 1544l84 -100v-27l-379 -139l-10 16zM193 61l180 1072l-148 22l6 39h809l-57 -373h-31l-100 303h-229l-183 -1061l144 -24l-6 -39h-543l4 37z" />
    <glyph glyph-name="afii10053" unicode="&#x404;" horiz-adv-x="1009" 
d="M1057 829h-43l-76 283q-65 37 -152 37q-71 0 -132 -28t-106 -75.5t-80 -114.5t-57.5 -141.5t-35.5 -160.5l465 20l-17 -104l-456 20q0 -17 -1 -49t-1 -47q0 -120 27.5 -211t92.5 -149t162 -58q83 0 160 60.5t115 136.5l45 2l-29 -184q-53 -30 -148 -56t-198 -26
q-111 0 -202 26.5t-161.5 81t-109.5 144.5t-39 210q0 159 56 301t151 244t228 161.5t282 59.5q170 0 307 -67z" />
    <glyph glyph-name="afii10054" unicode="&#x405;" horiz-adv-x="870" 
d="M362 -16q-157 0 -311 77l55 326h58l49 -270q50 -37 91 -49.5t97 -12.5q91 0 162.5 56t71.5 165q0 47 -24 84t-62 62t-84.5 49t-93 51t-84.5 60t-62 84t-24 116q0 127 62.5 226.5t163 151.5t216.5 52q191 0 303 -75l-51 -308h-59l-50 271q-32 22 -63.5 29.5t-85.5 7.5
q-93 0 -161 -59t-68 -140q0 -49 25 -87t65 -63t88 -48.5t96 -50.5t88 -60.5t65 -86.5t25 -122q0 -110 -41.5 -195.5t-112 -137t-158 -77.5t-186.5 -26z" />
    <glyph glyph-name="afii10055" unicode="&#x406;" horiz-adv-x="673" 
d="M43 0l4 37l141 24l183 1072l-135 22l8 39h524l-6 -37l-139 -24l-183 -1070l129 -24l-4 -39h-522z" />
    <glyph glyph-name="afii10056" unicode="&#x407;" horiz-adv-x="673" 
d="M43 0l4 37l141 24l183 1072l-135 22l8 39h524l-6 -37l-139 -24l-183 -1070l129 -24l-4 -39h-522zM375 1278l-129 45q53 90 76 193l149 -21q-53 -153 -96 -217zM715 1278l-127 45q53 90 76 193l149 -21q-48 -149 -98 -217z" />
    <glyph glyph-name="afii10057" unicode="&#x408;" horiz-adv-x="753" 
d="M270 -16q-164 0 -268 49l59 358h58l37 -317q2 0 21.5 -6t36 -9.5t28.5 -3.5q33 0 57.5 17t41 51t26.5 69t20 87l143 851l-137 25l8 39h537l-4 -37l-150 -24l-139 -811q-24 -149 -134.5 -243.5t-240.5 -94.5z" />
    <glyph glyph-name="afii10058" unicode="&#x409;" horiz-adv-x="1429" 
d="M471 0l8 37l148 24l182 1067l-209 -2q-124 -544 -274 -888q-18 -42 -30.5 -66.5t-33.5 -58.5t-44 -53.5t-55 -39t-74.5 -28t-94.5 -8.5l31 213l41 18h180q85 192 161 433t121 468l-174 39l8 39h834l-6 -37l-152 -24l-73 -428h149q158 0 248 -70t90 -203q0 -196 -140 -314
t-384 -118h-457zM1018 637h-64l-100 -571h66q132 0 205 95.5t73 264.5q0 101 -45.5 156t-134.5 55z" />
    <glyph glyph-name="afii10059" unicode="&#x40a;" horiz-adv-x="1640" 
d="M684 0l4 37l141 22l89 523h-408l-88 -523l129 -20l-6 -39h-518l4 37l143 22l182 1074l-135 22l8 39h521l-9 -37l-135 -22l-84 -488h408l84 486l-133 22l6 39h520l-6 -37l-139 -24l-84 -486h147q162 0 251 -66t89 -194q0 -175 -139.5 -281t-380.5 -106h-461zM1235 582h-70
l-86 -516h56q117 0 187.5 84t70.5 233q0 96 -41 147.5t-117 51.5z" />
    <glyph glyph-name="afii10060" unicode="&#x40b;" horiz-adv-x="1286" 
d="M961 1124h-226l-82 -471q144 39 238 39q153 0 224 -59.5t71 -181.5q0 -39 -10 -101l-48 -287l127 -24l-6 -39h-491l4 37l112 24l58 342q8 50 8 76q0 144 -139 144q-44 0 -158 -29l-92 -531l119 -24l-6 -39h-506l6 37l141 24l182 1063h-168l-159 -303h-45l61 373h952
l-57 -342h-45z" />
    <glyph glyph-name="afii10061" unicode="&#x40c;" horiz-adv-x="1148" 
d="M967 1538l84 -100v-27l-379 -139l-10 16zM621 1133l-89 -492h125l172 326q74 140 129.5 192.5t133.5 52.5q57 0 116 -34l-63 -220h-29l-153 107l-183 -346l232 -641l98 -43l-4 -35h-340l-186 575h-58l-86 -512l121 -24l-4 -39h-520l4 37l143 24l182 1072l-135 22l4 39
h514l-4 -37z" />
    <glyph glyph-name="uni040D" unicode="&#x40d;" horiz-adv-x="1323" 
d="M498 1444l84 100l305 -246l-8 -20l-381 139v27zM610 1133l-133 -783l543 606l27 177l-134 22l7 39h510l-5 -37l-129 -24l-184 -1070l133 -24l-6 -39h-520l6 37l141 24l135 779l-542 -600l-31 -177l129 -24l-4 -39h-520l4 37l143 24l182 1072l-135 22l6 39h521l-6 -37z
" />
    <glyph glyph-name="afii10062" unicode="&#x40e;" horiz-adv-x="1036" 
d="M709 1339q-137 0 -224.5 69t-72.5 163l196 71h33l-35 -204q11 -21 43 -33t66 -12q36 0 72.5 12t50.5 33l36 204h35l168 -71q-15 -99 -124 -165.5t-244 -66.5zM479 1135l207 -619l301 598l-170 43l4 37h377l-6 -35l-109 -31l-436 -821q-73 -133 -129.5 -199.5t-124 -95
t-172.5 -28.5l31 186l39 16h198l37 62l-307 893l-72 16l7 37h467l-7 -35z" />
    <glyph glyph-name="afii10145" unicode="&#x40f;" horiz-adv-x="1267" 
d="M1235 1133l-184 -1070l133 -24l-6 -39h-480l-8 -287h-258l86 287h-489l4 37l141 24l182 1072l-133 22l6 39h510l-6 -37l-129 -24l-182 -1067h385l180 1067l-123 22l6 39h510l-6 -37z" />
    <glyph glyph-name="afii10017" unicode="&#x410;" horiz-adv-x="1060" 
d="M-37 0l6 35l113 47l655 1112h133l121 -1141l72 -16l-6 -37h-465l4 35l125 22l-25 353h-340l-186 -324l174 -49l-6 -37h-375zM391 471h299l-28 453h-11z" />
    <glyph glyph-name="afii10018" unicode="&#x411;" horiz-adv-x="1021" 
d="M879 1126h-258l-70 -421h57q36 0 68 -2t77 -8.5t82 -18t75.5 -32.5t65 -49.5t43.5 -72t17 -96.5q0 -105 -38.5 -188t-104 -134t-146 -77.5t-169.5 -26.5h-545l4 37l151 24l183 1072l-144 22l6 39h826l-53 -338h-31zM569 637h-30l-99 -571l88 2q104 2 176 87t72 257
q0 120 -47 172.5t-160 52.5z" />
    <glyph glyph-name="afii10019" unicode="&#x412;" horiz-adv-x="1038" 
d="M33 0l4 37l145 26l183 1070l-138 22l6 39h480q172 0 259 -68t87 -192q0 -216 -283 -299v-6q110 -5 180 -68.5t70 -181.5q0 -168 -131.5 -273.5t-335.5 -105.5h-526zM430 70h68q127 0 200.5 80t73.5 235q0 199 -205 199h-45zM532 641h50q96 0 157.5 82t61.5 225
q0 185 -150 185h-37z" />
    <glyph glyph-name="afii10020" unicode="&#x413;" horiz-adv-x="899" 
d="M193 61l180 1072l-148 22l6 39h809l-57 -373h-31l-100 303h-229l-183 -1061l144 -24l-6 -39h-543l4 37z" />
    <glyph glyph-name="afii10021" unicode="&#x414;" horiz-adv-x="1095" 
d="M858 0h-676l-180 -299h-45l55 365h131q121 239 231.5 523.5t170.5 526.5l-172 39l4 39h811l-4 -37l-152 -24l-182 -1067h199l-56 -365h-45zM221 66h383l180 1060h-163q-70 -279 -185 -586t-215 -474z" />
    <glyph glyph-name="afii10022" unicode="&#x415;" horiz-adv-x="989" 
d="M33 0l4 37l143 26l180 1065l-133 27l6 39h834l-51 -307h-55l-68 239h-281l-84 -493l349 18l-15 -98l-342 18l-88 -501h281l207 266l45 -6l-101 -330h-831z" />
    <glyph glyph-name="afii10024" unicode="&#x416;" horiz-adv-x="1566" 
d="M635 61l86 510h-70l-336 -571h-331l6 35l112 43l404 643l-64 344l-178 -107h-31l9 220q62 34 118 34q38 0 64.5 -9t43.5 -24t30 -48.5t20.5 -67.5t18.5 -96l57 -330h137l84 496l-125 22l8 39h490l-4 -37l-131 -24l-84 -496h137l164 340q65 137 118.5 186t133.5 49
q59 0 110 -34l-63 -220h-31l-145 107l-176 -352l206 -635l101 -43l-6 -35h-328l-162 571h-72l-84 -508l121 -24l-6 -39h-491l6 37z" />
    <glyph glyph-name="afii10025" unicode="&#x417;" horiz-adv-x="888" 
d="M375 51q104 0 170.5 91t66.5 231q0 150 -118 194l-207 -14l16 104l209 -24q58 30 100.5 116.5t42.5 198.5q0 102 -32 149.5t-109 47.5q-62 0 -123 -41l-155 -268h-60l49 309q62 24 164.5 45.5t190.5 21.5q141 0 236 -71t95 -189q0 -113 -70.5 -210t-176.5 -126v-4
q29 -4 60.5 -19t63.5 -41.5t53 -71.5t21 -101q0 -79 -31 -150t-88.5 -126t-148 -87t-201.5 -32q-70 0 -135 14t-107 34t-67.5 36t-34.5 26l31 197h67q4 -40 18.5 -79.5t40.5 -77t70 -60.5t99 -23z" />
    <glyph glyph-name="afii10026" unicode="&#x418;" horiz-adv-x="1323" 
d="M610 1133l-133 -783l543 606l27 177l-134 22l7 39h510l-5 -37l-129 -24l-184 -1070l133 -24l-6 -39h-520l6 37l141 24l135 779l-542 -600l-31 -177l129 -24l-4 -39h-520l4 37l143 24l182 1072l-135 22l6 39h521l-6 -37z" />
    <glyph glyph-name="afii10027" unicode="&#x419;" horiz-adv-x="1323" 
d="M610 1133l-133 -783l543 606l27 177l-134 22l7 39h510l-5 -37l-129 -24l-184 -1070l133 -24l-6 -39h-520l6 37l141 24l135 779l-542 -600l-31 -177l129 -24l-4 -39h-520l4 37l143 24l182 1072l-135 22l6 39h521l-6 -37zM846 1339q-137 0 -224.5 69t-72.5 163l196 71h33
l-35 -204q11 -21 43 -33t66 -12q36 0 72.5 12t50.5 33l37 204h35l167 -71q-15 -99 -124 -165.5t-244 -66.5z" />
    <glyph glyph-name="afii10028" unicode="&#x41a;" horiz-adv-x="1148" 
d="M621 1133l-89 -492h125l172 326q74 140 129.5 192.5t133.5 52.5q57 0 116 -34l-63 -220h-29l-153 107l-183 -346l232 -641l98 -43l-4 -35h-340l-186 575h-58l-86 -512l121 -24l-4 -39h-520l4 37l143 24l182 1072l-135 22l4 39h514l-4 -37z" />
    <glyph glyph-name="afii10029" unicode="&#x41b;" horiz-adv-x="1085" 
d="M623 61l182 1067h-189q-46 -213 -104.5 -408.5t-91.5 -281.5t-80 -200q-20 -48 -36.5 -79.5t-45 -67.5t-61.5 -57t-83.5 -35.5t-113.5 -14.5l29 213l41 18h180q204 482 287 901l-172 39l4 39h833l-6 -37l-137 -24l-187 -1070l144 -24l-4 -39h-545l6 37z" />
    <glyph glyph-name="afii10030" unicode="&#x41c;" horiz-adv-x="1533" 
d="M973 0l4 35l141 24l86 887h-10l-483 -962h-95l-155 1011h-8l-217 -909l149 -49l-4 -37h-373l4 35l140 51l258 1030l-134 41l9 37h397l127 -856h4l424 856h365l-7 -35l-135 -37l-88 -1069l113 -16l-4 -37h-508z" />
    <glyph glyph-name="afii10031" unicode="&#x41d;" horiz-adv-x="1294" 
d="M33 0l4 37l143 22l182 1074l-135 22l9 39h520l-8 -37l-138 -22l-84 -492h412l80 490l-133 22l8 39h520l-6 -37l-139 -22l-183 -1074l129 -22l-4 -39h-520l4 37l142 22l90 527h-410l-88 -527l129 -20l-4 -39h-520z" />
    <glyph glyph-name="afii10032" unicode="&#x41e;" horiz-adv-x="1118" 
d="M1174 754q-2 -113 -34 -225.5t-91.5 -210t-138.5 -172.5t-182.5 -118.5t-215.5 -43.5q-202 0 -318 123.5t-116 330.5q0 119 32 234t92 212t140.5 171t184 115.5t216.5 41.5q211 0 321 -119.5t110 -338.5zM547 55q103 0 185 109.5t123.5 279.5t41.5 361q0 151 -43.5 244.5
t-130.5 93.5q-105 0 -190.5 -114.5t-130 -284t-44.5 -345.5q0 -98 18.5 -173t62 -123t108.5 -48z" />
    <glyph glyph-name="afii10033" unicode="&#x41f;" horiz-adv-x="1265" 
d="M180 61l180 1072l-141 22l4 39h1159l-4 -37l-139 -24l-182 -1070l129 -24l-4 -39h-514l4 37l137 24l182 1067h-383l-180 -1065l125 -24l-6 -39h-514l4 37z" />
    <glyph glyph-name="afii10034" unicode="&#x420;" horiz-adv-x="995" 
d="M33 0l4 35l143 26l182 1072l-135 22l9 39h518q148 0 242 -78t94 -209q0 -114 -39.5 -199.5t-109.5 -135t-158 -73.5t-195 -24h-84l-74 -414l152 -24l-4 -37h-545zM512 543h49q109 0 182.5 100t73.5 248q0 225 -149 231h-54z" />
    <glyph glyph-name="afii10035" unicode="&#x421;" horiz-adv-x="1009" 
d="M1067 829h-61l-70 285q-53 35 -133 35q-104 0 -189 -58.5t-137 -155.5t-80 -217t-28 -249q0 -89 15 -162.5t46.5 -132t86 -91t128.5 -32.5q88 0 163.5 60.5t109.5 138.5h51l-35 -184q-50 -29 -146 -55.5t-200 -26.5q-108 0 -198.5 27.5t-159.5 81.5t-107.5 141t-38.5 200
q0 172 57.5 318.5t156 247t232.5 156.5t285 56q166 0 303 -67z" />
    <glyph glyph-name="afii10036" unicode="&#x422;" horiz-adv-x="974" 
d="M180 0l6 37l144 29l178 1058h-176l-168 -303h-51l63 373h940l-63 -373h-52l-71 303h-170l-178 -1056l129 -29l-4 -39h-527z" />
    <glyph glyph-name="afii10037" unicode="&#x423;" horiz-adv-x="1036" 
d="M479 1135l207 -619l301 598l-170 43l4 37h377l-6 -35l-109 -31l-436 -821q-73 -133 -129.5 -199.5t-124 -95t-172.5 -28.5l31 186l39 16h198l37 62l-307 893l-72 16l7 37h467l-7 -35z" />
    <glyph glyph-name="afii10038" unicode="&#x424;" horiz-adv-x="1230" 
d="M475 61l23 132q-197 7 -308.5 106t-111.5 252q0 219 148.5 347.5t416.5 148.5l23 129l-140 22l6 39h510l-6 -37l-139 -24l-20 -127q200 -7 305.5 -103t105.5 -252q0 -227 -143.5 -354t-415.5 -147l-20 -130l131 -24l-6 -39h-508l6 37zM866 987l-127 -739q130 3 212.5 131
t82.5 315q0 123 -40.5 201.5t-127.5 91.5zM633 987q-83 4 -152.5 -58.5t-109 -167.5t-39.5 -226q0 -118 42.5 -196t131.5 -91z" />
    <glyph glyph-name="afii10039" unicode="&#x425;" horiz-adv-x="1028" 
d="M543 0l6 35l121 28l-158 420l-303 -401l149 -45l-4 -37h-393l8 35l121 35l393 489l-217 576l-94 22l6 37h477l-8 -35l-112 -26l139 -367l262 348l-107 43l9 37h350l-8 -35l-156 -55l-322 -408l246 -639l88 -20l-6 -37h-487z" />
    <glyph glyph-name="afii10040" unicode="&#x426;" horiz-adv-x="1290" 
d="M180 61l180 1072l-133 22l6 39h506l-4 -37l-125 -24l-182 -1067h383l180 1067l-119 22l7 39h505l-6 -37l-137 -24l-182 -1067h188l-55 -365h-45l-88 299h-1026l4 37z" />
    <glyph glyph-name="afii10041" unicode="&#x427;" horiz-adv-x="1142" 
d="M670 61l78 469q-115 -32 -234 -32q-137 0 -216.5 56t-78.5 171q0 41 12 111l54 297l-121 22l8 39h481l-6 -37l-112 -24l-62 -342q-8 -54 -8 -82q0 -142 141 -142q66 0 154 25l108 541l-125 22l7 39h501l-4 -37l-147 -24l-182 -1070l139 -24l-4 -39h-557l6 37z" />
    <glyph glyph-name="afii10042" unicode="&#x428;" horiz-adv-x="1814" 
d="M180 61l180 1072l-135 22l6 39h502l-4 -37l-121 -24l-180 -1065h342l180 1065l-116 22l4 39h487l-6 -37l-123 -24l-180 -1065h344l178 1065l-115 22l7 39h501l-6 -37l-137 -24l-182 -1070l131 -24l-4 -39h-1700l4 37z" />
    <glyph glyph-name="afii10043" unicode="&#x429;" horiz-adv-x="1839" 
d="M1638 0h-1605l4 37l143 24l180 1072l-133 22l4 39h502l-2 -37l-123 -24l-180 -1065h342l180 1065l-116 22l6 39h485l-6 -37l-121 -24l-182 -1065h344l180 1065l-117 22l7 39h501l-4 -37l-139 -24l-182 -1067h202l-55 -365h-43z" />
    <glyph glyph-name="afii10044" unicode="&#x42a;" horiz-adv-x="1114" 
d="M725 1133l-74 -428h150q158 0 248 -70t90 -203q0 -196 -141 -314t-384 -118h-475l8 37l148 24l180 1063h-135l-184 -303h-33l61 373h697l-7 -37zM705 637h-64l-100 -571h65q121 0 190.5 95t69.5 265q0 100 -42.5 155.5t-118.5 55.5z" />
    </font>
</defs>
</svg>
