<?xml version="1.0" standalone="no"?>
<!DOCTYPE svg PUBLIC "-//W3C//DTD SVG 1.1//EN" "http://www.w3.org/Graphics/SVG/1.1/DTD/svg11.dtd" >
<svg xmlns="http://www.w3.org/2000/svg" xmlns:xlink="http://www.w3.org/1999/xlink" version="1.1">
<metadata>
Created by FontForge 20201107 at Sun Feb  1 19:50:23 2026
 By 
Copyright (c) 2008 Typotheque.com All rights reserved.
</metadata>
<defs>
<font id="GretaDisNarProRegIta" horiz-adv-x="1005" >
  <font-face 
    font-family="Greta Dis Nar Pro Reg"
    font-weight="400"
    font-style="italic"
    font-stretch="condensed"
    units-per-em="2048"
    panose-1="2 0 5 6 0 0 0 2 0 4"
    ascent="1454"
    descent="-594"
    x-height="946"
    cap-height="1194"
    bbox="-707 -786 2320 1804"
    underline-thickness="102"
    underline-position="-204"
    slope="-9"
    unicode-range="U+0020-FB04"
  />
<missing-glyph horiz-adv-x="1427" 
d="M608 768v55h56v-55h-56zM762 1075v55h55v-55h-55zM608 1075v55h56v-55h-56zM455 1075v55h55v-55h-55zM147 0v55h56v-55h-56zM301 0v55h55v-55h-55zM455 0v55h55v-55h-55zM608 0v55h56v-55h-56zM762 0v55h55v-55h-55zM147 154v55h56v-55h-56zM147 307v55h56v-55h-56z
M147 461v55h56v-55h-56zM147 614v56h56v-56h-56zM147 768v55h56v-55h-56zM147 922v55h56v-55h-56zM147 1075v55h56v-55h-56zM147 1229v55h56v-55h-56zM147 1382v56h56v-56h-56zM301 1382v56h55v-56h-55zM455 1382v56h55v-56h-55zM608 1382v56h56v-56h-56zM762 1382v56h55
v-56h-55zM915 1382v56h56v-56h-56zM1069 1382v56h55v-56h-55zM1069 0v55h55v-55h-55zM915 0v55h56v-55h-56zM1223 0v55h55v-55h-55zM1223 1382v56h55v-56h-55zM608 614v56h56v-56h-56zM608 307v55h56v-55h-56zM762 768v55h55v-55h-55zM915 768v55h56v-55h-56zM915 922v55h56
v-55h-56zM915 1075v55h56v-55h-56zM1223 1229v55h55v-55h-55zM1223 1075v55h55v-55h-55zM1223 768v55h55v-55h-55zM1223 614v56h55v-56h-55zM1223 307v55h55v-55h-55zM1223 154v55h55v-55h-55zM1223 461v55h55v-55h-55zM1223 922v55h55v-55h-55z" />
    <glyph glyph-name="f_f" unicode="ff" horiz-adv-x="1024" 
d="M113 854v64h157l23 126q29 159 137.5 258t249.5 99q99 0 213 -60q119 109 266 109q62 0 115 -20l-47 -175h-33l-156 121q-64 -69 -100 -278l-31 -180h168v-64h-178l-129 -774q-15 -101 -66.5 -205.5t-126.5 -176t-147 -71.5q-61 0 -134 19.5t-130 62.5
q-103 -139 -205 -139q-103 0 -176 37l43 166q19 -14 53 -41.5t49.5 -38.5t43 -22.5t57.5 -14.5q9 10 18 34.5t19 67t17 78t19 97t19 94.5l139 827h-147zM440 854l-141 -831q-17 -95 -55 -179q60 -54 132 -91t124 -40q29 33 84 339q4 21 6 32l131 770h-281zM762 1096
q9 59 33 112l-226 107q-62 -64 -96 -268l-22 -129h280z" />
    <glyph glyph-name="fi" unicode="fi" horiz-adv-x="980" 
d="M719 -16l-137 28l139 842h-283l-139 -831q-16 -101 -68 -205.5t-127 -176t-145 -71.5q-103 0 -176 37l43 166q17 -13 53.5 -42t52 -39.5t44 -22.5t57.5 -13q9 10 17.5 35.5t17.5 65.5t16.5 79t18 96t18.5 95l139 827h-147v64h157l31 178q25 155 147 256.5t285 101.5
q83 0 154 -24l-47 -175h-33l-234 121q-57 -61 -94 -278l-30 -180h262l170 28l30 -20l-139 -813l16 -9l154 107l19 -35z" />
    <glyph glyph-name="fl" unicode="fl" horiz-adv-x="962" 
d="M588 12l213 1270l-234 84q-53 -64 -88 -268l-30 -180h145v-64h-156l-139 -831q-16 -101 -68 -205.5t-127 -176t-145 -71.5q-103 0 -176 37l43 166q17 -13 53.5 -42t52 -39.5t44 -22.5t57.5 -13q9 10 17.5 35.5t17.5 65.5t16.5 79t18 96t18.5 95l139 827h-147v64h157
l31 178q28 168 148 264t278 96q78 0 160 -31l80 19l34 -23l-225 -1312l17 -11l155 115l19 -35l-242 -194z" />
    <glyph glyph-name="f_f_i" unicode="ffi" horiz-adv-x="1449" 
d="M434 -375q-65 0 -139 20.5t-133 61.5q-46 -63 -99 -100t-104 -37q-103 0 -176 37l43 166q19 -14 53 -41.5t49.5 -38.5t43 -22.5t57.5 -14.5q9 10 18 34.5t19 67t17 78t19 97t19 94.5l139 827h-147v64h157l23 126q29 159 137.5 258t249.5 99q107 0 217 -64
q126 117 303 117q83 0 154 -24l-47 -175h-33l-230 121q-36 -38 -61.5 -119.5t-36.5 -158.5l-31 -180h259l169 28l33 -20l-139 -817l14 -11l162 113l17 -35l-246 -192l-137 28l139 842h-281l-131 -776q-14 -101 -66.5 -206t-128 -176t-145.5 -71zM299 23q-17 -95 -55 -179
q61 -55 135 -92.5t127 -42.5q6 7 13 22t14 40.5t12.5 47.5t13.5 61t12.5 63t13.5 70.5t13 68.5l129 772h-287zM473 1047l-22 -129h286l31 178q9 57 33 110l-236 109q-57 -59 -92 -268z" />
    <glyph glyph-name="f_f_l" unicode="ffl" horiz-adv-x="1406" 
d="M1032 12l211 1274l-213 74q-59 -71 -92 -262l-31 -180h150v-64h-160l-129 -774q-15 -101 -66.5 -205.5t-126.5 -176t-147 -71.5q-61 0 -134 19.5t-130 62.5q-103 -139 -205 -139q-103 0 -176 37l43 166q21 -16 52 -42t47 -37.5t42 -23t56 -14.5q10 11 21 41.5t24 84
t21.5 93.5t23.5 113q5 26 8 39l139 827h-151v64h161l23 126q29 159 137.5 258t249.5 99q98 0 209 -60q115 115 291 115q74 0 153 -31l78 19l33 -23l-223 -1312l16 -11l156 115l18 -35l-242 -194zM500 -287q36 41 96 371l131 770h-287l-141 -831q-17 -95 -55 -179
q60 -54 132 -91t124 -40zM768 1096q8 56 31 110l-230 109q-62 -64 -96 -268l-22 -129h286z" />
    <glyph glyph-name="f_h" unicode="fh" horiz-adv-x="1390" 
d="M580 0l217 1284l-228 82q-56 -67 -90 -268l-30 -180h145v-64h-156l-139 -831q-16 -102 -66 -205.5t-125 -175.5t-149 -72q-103 0 -176 37l43 166q17 -13 53.5 -42t52 -39.5t44 -22.5t57.5 -13q9 10 17.5 35.5t17.5 65.5t16.5 79t18 96t18.5 95l139 827h-147v64h157
l31 178q28 168 148 264t278 96q75 0 162 -33l74 17l38 -21l-124 -723q209 250 325 250q92 0 92 -209q0 -95 -22 -227l-72 -401l14 -9l162 111l19 -35l-244 -192l-141 28l80 494q20 140 20 242q0 35 -4 63l-21 10q-89 -49 -219 -190l-108 -631h-178z" />
    <glyph glyph-name="f_b" unicode="fb" horiz-adv-x="1308" 
d="M573 43v2l209 1243l-217 78q-51 -61 -86 -268l-30 -180h145v-64h-156l-139 -831q-16 -101 -68 -205.5t-127 -176t-145 -71.5q-103 0 -176 37l43 166q20 -15 53 -42t49 -39t43 -23.5t56 -12.5q9 10 18.5 34.5t19 67.5t16.5 77t18.5 97.5t17.5 94.5l139 827h-143v64h153
l31 178q30 168 151 264t279 96q84 0 160 -33l67 17l31 -21l-115 -663q186 186 267 186q52 0 87.5 -50.5t50.5 -126.5t15 -171q0 -147 -58 -288t-158.5 -231.5t-213.5 -90.5q-169 0 -287 59zM1040 821q-77 -46 -182 -137l-98 -571q78 -47 149 -47q57 0 102 88.5t66 209
t21 238.5q0 131 -31 219h-27z" />
    <glyph glyph-name="f_j" unicode="fj" horiz-adv-x="940" 
d="M455 -436l-21 14q42 68 81.5 172.5t57.5 198.5l152 905h-287l-139 -831q-16 -101 -68 -205.5t-127 -176t-145 -71.5q-103 0 -176 37l43 166q20 -15 53 -42t49 -39t43 -23.5t56 -12.5q9 10 18.5 34.5t19.5 67.5t17.5 77.5t19.5 97t19 94.5l139 827h-147v64h157l31 178
q25 155 147 256.5t285 101.5q83 0 154 -24l-47 -175h-33l-234 121q-57 -61 -94 -278l-30 -180h270l164 28l35 -20l-158 -928q-22 -121 -106 -233.5t-199 -200.5z" />
    <glyph glyph-name="f_k" unicode="fk" horiz-adv-x="1361" 
d="M586 0l217 1282l-236 84q-53 -64 -88 -268l-30 -180h145v-64h-156l-139 -831q-16 -101 -68 -205.5t-127 -176t-145 -71.5q-103 0 -176 37l43 166q20 -15 53 -42t49 -39t43 -23.5t56 -12.5q9 10 18.5 34.5t19.5 67.5t17.5 77.5t19.5 97t19 94.5l139 827h-147v64h157
l31 178q28 168 148 264t278 96q84 0 160 -33l84 21l33 -23l-119 -692q74 74 150 132.5t126 80.5l135 -45q9 -50 9 -92q0 -98 -50 -169.5t-155 -135.5l90 -381l18 -6l148 98l18 -35l-258 -192l-102 28l-78 373l6 33q186 193 186 362q0 29 -2 43l-20 11q-88 -40 -234 -179
l-110 -655h-176z" />
    <glyph glyph-name="f_idieresis" unicode="f&#xef;" horiz-adv-x="980" 
d="M719 -16l-137 28l139 842h-283l-139 -831q-16 -101 -68 -205.5t-127 -176t-145 -71.5q-103 0 -176 37l43 166q20 -15 53.5 -42.5t49.5 -39t43.5 -23t56.5 -12.5q36 41 92 371l139 827h-147v64h157l31 178q17 103 77 185.5t139.5 125.5t160.5 43q55 0 94 -16l-53 -177h-27
l-117 109q-61 -63 -96 -268l-30 -180h258l172 28l30 -20l-137 -813l14 -11l156 109l16 -35zM1053 1155l-109 43q52 94 68 182l129 -20q-44 -140 -88 -205zM834 1155l-107 43q56 107 66 182l129 -20q-44 -140 -88 -205z" />
    <glyph glyph-name="uni0065030A" unicode="e&#x2da;" horiz-adv-x="651" 
d="M571 332l17 -43q-67 -81 -171 -168.5t-222 -136.5l-82 20q-37 115 -37 258q0 318 119 500q61 88 121.5 136t144.5 48q89 0 221 -78l-2 -172q-68 -64 -185.5 -143t-230.5 -137q-2 -37 -2 -109q0 -112 14 -176l19 -4q135 71 276 205zM492 1077q-61 0 -101.5 38t-40.5 106
t54.5 114.5t121.5 46.5q60 0 100 -36.5t40 -102.5q0 -68 -55 -117t-119 -49zM387 856q-96 -147 -119 -385q147 86 277 213l-4 100q-68 49 -154 72zM494 1116q54 0 92.5 37.5t38.5 89.5q0 48 -28.5 74t-76.5 26q-52 0 -89.5 -33t-37.5 -87q0 -53 30 -80t71 -27z" />
    <glyph glyph-name="uni00660304" unicode="f&#xaf;" horiz-adv-x="563" 
d="M113 854v64h157l31 178q26 154 142 254t255 100q59 0 115 -20l-45 -175h-35l-160 121q-57 -61 -94 -278l-30 -180h165v-64h-176l-139 -831q-13 -100 -66 -205t-128.5 -176.5t-145.5 -71.5q-103 0 -176 37l43 166q17 -13 53.5 -42t52 -39.5t44 -22.5t57.5 -13
q11 12 22.5 46.5t24 95.5t20.5 105.5t21 123.5l139 827h-147zM866 1610h-381l11 51h381z" />
    <glyph glyph-name="uni006A0301" unicode="j&#xb4;" horiz-adv-x="471" 
d="M-23 -436l-18 12q40 71 77.5 175.5t51.5 195.5l152 901h-136v31l295 67l33 -20l-158 -928q-20 -123 -102 -235.5t-195 -198.5zM424 1389l147 -43v-27l-284 -244l-11 12z" />
    <glyph glyph-name="uni006E0304" unicode="n&#xaf;" horiz-adv-x="884" 
d="M653 -16l-143 28l80 494q20 140 20 237q0 34 -4 62l-20 10q-88 -47 -213 -172l-109 -643h-176l143 848h-139v31l297 67l31 -20l-37 -217q200 237 322 237q45 0 67.5 -54.5t22.5 -150.5q0 -107 -23 -231l-70 -401l13 -9l164 111l16 -35zM766 1212h-381l10 52h381z" />
    <glyph glyph-name="uni00720300" unicode="r`" horiz-adv-x="624" 
d="M264 0h-176l141 848h-137v31l283 67l45 -20l-33 -195q148 215 207 215q49 0 102 -76l-92 -178l-86 113q-60 -46 -143 -148zM225 1346l148 43l147 -302l-12 -12l-283 244v27z" />
    <glyph glyph-name="uni00730306" unicode="s&#x2d8;" horiz-adv-x="681" 
d="M645 633h-39l-37 180q-68 27 -143 27q-61 0 -103 -29t-42 -74q0 -11 3 -22.5t10 -24t14 -22.5t20 -23l22 -22t27 -24t27.5 -22.5t30.5 -24t30 -24.5q40 -35 63.5 -58t51 -57t40.5 -68.5t13 -70.5q0 -70 -54 -138.5t-135 -110t-157 -41.5q-141 0 -246 59l53 293h39
l41 -215q79 -39 186 -39q53 0 87 27.5t34 72.5q0 13 -4 26.5t-9.5 24.5t-17.5 25.5t-20 23.5t-26 26t-27 24.5t-31.5 26.5t-30.5 26q-80 68 -124 129t-44 137q0 33 29.5 82.5t75.5 97t111.5 81.5t128.5 34q55 0 98 -14t100 -45zM492 1100q-69 0 -105.5 55t-44.5 150l123 18
q5 -99 67 -145q71 8 123 50t82 99l35 -10q-59 -106 -125 -161.5t-155 -55.5z" />
    <glyph glyph-name="uni00760304" unicode="v&#xaf;" horiz-adv-x="739" 
d="M813 928l-2 -60l-430 -868h-164q-39 151 -61.5 364.5t-22.5 415.5v68h-96v31l276 67l31 -8q-18 -129 -18 -279q0 -263 47 -522h16l229 506l3 285h192zM723 1212h-381l10 52h381z" />
    <glyph glyph-name="uni00780304" unicode="x&#xaf;" horiz-adv-x="817" 
d="M827 928v-45l-319 -369l137 -414l17 -4l147 94l14 -34l-227 -172l-111 22l-116 344l-123 -141l-47 -209h-170v55l319 359l-145 434h-109v29l244 69l31 -6l120 -369l109 123l64 234h165zM745 1212h-380l10 52h381z" />
    <glyph glyph-name="uni0045030A" unicode="E&#x2da;" horiz-adv-x="978" 
d="M45 0l2 31l162 28l180 1076l-151 26l6 33h807l-50 -287h-53l-43 228h-317l-86 -500l372 12l-12 -84l-368 12l-91 -514h322l170 246l41 -6l-86 -301h-805zM764 1327q54 0 92.5 37t38.5 88q0 50 -28 76t-76 26q-52 0 -88.5 -33t-36.5 -87q0 -53 29 -80t69 -27zM762 1288
q-60 0 -99.5 38t-39.5 106t53.5 114.5t120.5 46.5q60 0 100.5 -36.5t40.5 -102.5q0 -68 -55 -117t-121 -49z" />
    <glyph glyph-name="uni00460304" unicode="F&#xaf;" horiz-adv-x="903" 
d="M952 1372h-395l10 49h396zM45 0l4 31l160 26l180 1078l-151 26l8 33h798l-49 -287h-51l-39 228h-317l-88 -521l370 15l-12 -86l-371 14l-81 -496l159 -28l-4 -33h-516z" />
    <glyph glyph-name="uni004A0301" unicode="J&#xb4;" horiz-adv-x="745" 
d="M258 -18q-141 0 -248 47l58 342h55l24 -299q1 0 14.5 -4.5t28 -9t32.5 -8t30 -3.5q125 0 164 244l143 844l-149 26l4 33h514l-4 -31l-166 -26l-140 -824q-24 -145 -132 -238t-228 -93zM823 1538l84 -94v-27l-379 -139l-10 14z" />
    <glyph glyph-name="uni004E0304" unicode="N&#xaf;" horiz-adv-x="1193" 
d="M1030 1372h-395l10 49h395zM23 0l6 31l139 49l176 1024l-127 57l6 33h291l438 -842h6l134 758l-166 51l6 33h387l-6 -31l-142 -47l-194 -1134h-76l-493 974h-9l-149 -874l172 -49l-6 -33h-393z" />
    <glyph glyph-name="uni00500304" unicode="P&#xaf;" horiz-adv-x="968" 
d="M45 0l2 31l160 26l184 1078l-151 26l6 33h493q138 0 230 -77t92 -208q0 -110 -38.5 -193t-107 -132.5t-155.5 -74t-191 -24.5h-92l-74 -428l162 -24l-4 -33h-516zM485 545h72q120 0 206.5 93t86.5 243q0 246 -176 249h-86zM940 1372h-395l10 49h395z" />
    <glyph glyph-name="uni00520300" unicode="R`" horiz-adv-x="1062" 
d="M45 0l4 31l158 28l182 1071l-151 31l8 33h504q140 0 217 -68t77 -192q0 -261 -260 -350l185 -504l100 -53l-4 -27h-289l-176 549h-115l-79 -490l149 -26l-4 -33h-506zM498 608q68 2 125 17.5t106 47.5t77 90t28 136q0 234 -170 234h-76zM381 1444l84 94l305 -244l-8 -16
l-381 139v27z" />
    <glyph glyph-name="uni00530306" unicode="S&#x2d8;" horiz-adv-x="843" 
d="M657 1276q-62 0 -110 59.5t-55 149.5l120 18q11 -101 78 -149q78 10 139.5 53.5t92.5 97.5l36 -8q-61 -107 -133.5 -164t-167.5 -57zM360 -16q-152 0 -292 73l49 308h51l41 -248q51 -37 96.5 -50.5t106.5 -13.5q94 0 167.5 61t73.5 171q0 49 -24 88t-62 65t-84 50
t-92 50.5t-84 58.5t-62 82t-24 114q0 176 124.5 297.5t289.5 121.5q89 0 164.5 -20.5t122.5 -52.5l-50 -295h-53l-37 250q-36 27 -69 36t-88 9q-96 0 -168 -61.5t-72 -145.5q0 -50 25 -89.5t64.5 -66t87.5 -51t95.5 -52t87 -61t64.5 -85.5t25 -119q0 -102 -40.5 -185
t-108 -134t-151 -78t-174.5 -27z" />
    <glyph glyph-name="uni00560304" unicode="V&#xaf;" horiz-adv-x="978" 
d="M922 1372h-396l11 49h395zM381 0l-162 1147l-86 18l6 29h430l-4 -27l-133 -24l115 -940h8l430 911l-149 51l6 29h340l-4 -27l-107 -47l-551 -1120h-139z" />
    <glyph glyph-name="uni00580304" unicode="X&#xaf;" horiz-adv-x="1015" 
d="M565 0l6 31l129 28l-163 435l-312 -418l137 -43l-4 -33h-370l6 31l123 39l395 493l-211 574l-104 24l8 33h448l-8 -31l-125 -30l146 -394l278 379l-102 43l6 33h328l-7 -31l-135 -53l-344 -434l236 -621l100 -22l-6 -33h-455zM965 1372h-396l11 49h395z" />
    <glyph glyph-name="f_igrave" unicode="f&#xec;" horiz-adv-x="980" 
d="M719 -16l-137 28l139 842h-283l-139 -831q-16 -101 -68 -205.5t-127 -176t-145 -71.5q-103 0 -176 37l43 166q20 -15 53.5 -42.5t49.5 -39t43.5 -23t56.5 -12.5q36 41 92 371l139 827h-147v64h157l31 178q17 103 77 185.5t139.5 125.5t160.5 43q55 0 94 -16l-53 -177h-27
l-117 109q-61 -63 -96 -268l-30 -180h258l172 28l30 -20l-137 -813l14 -11l156 109l16 -35zM969 1090l-21 -7l-151 269v26l133 25z" />
    <glyph glyph-name="uni00480331" unicode="H&#x331;" horiz-adv-x="1296" 
d="M45 0l2 31l162 24l182 1082l-151 24l6 33h506l-9 -31l-155 -24l-86 -500h463l84 498l-150 24l6 33h506l-6 -31l-160 -24l-182 -1084l149 -22l-4 -33h-503l4 31l155 24l90 529h-462l-89 -529l148 -22l-2 -33h-504zM788 -264h-380l12 51h381z" />
    <glyph glyph-name="uni004D0310" unicode="M&#x310;" horiz-adv-x="1513" 
d="M911 1260q-61 0 -111 54t-59 140l123 19q9 -53 29.5 -81t56.5 -55q161 22 219 125l37 -10q-53 -95 -129.5 -143.5t-165.5 -48.5zM1047 1456l-123 43q59 114 73 191l144 -21q-42 -143 -94 -213zM969 0l4 31l157 24l84 899h-8l-485 -972h-86l-160 1026h-8l-225 -924
l157 -51l-4 -33h-379l4 31l142 51l264 1034l-133 45l8 33h352l138 -932h2l458 932h324l-6 -31l-146 -33l-88 -1077l127 -20l-4 -33h-489z" />
    <glyph glyph-name="uni00520325" unicode="R&#x325;" horiz-adv-x="1062" 
d="M45 0l4 31l158 28l182 1071l-151 31l8 33h504q140 0 217 -68t77 -192q0 -261 -260 -350l185 -504l100 -53l-4 -27h-289l-176 549h-115l-79 -490l149 -26l-4 -33h-506zM498 608q68 2 125 17.5t106 47.5t77 90t28 136q0 234 -170 234h-76zM567 -416q-61 0 -101 38.5
t-40 107.5q0 67 54.5 113t121.5 46q60 0 99.5 -36t39.5 -101q0 -70 -54 -119t-120 -49zM569 -375q54 0 92.5 36.5t38.5 88.5q0 49 -28 76t-76 27q-51 0 -88 -34.5t-37 -88.5q0 -52 28.5 -78.5t69.5 -26.5z" />
    <glyph glyph-name="uni005203250304" unicode="R&#x325;&#xaf;" horiz-adv-x="1062" 
d="M45 0l4 31l158 28l182 1071l-151 31l8 33h504q140 0 217 -68t77 -192q0 -261 -260 -350l185 -504l100 -53l-4 -27h-289l-176 549h-115l-79 -490l149 -26l-4 -33h-506zM498 608q68 2 125 17.5t106 47.5t77 90t28 136q0 234 -170 234h-76zM567 -416q-61 0 -101 38.5
t-40 107.5q0 67 54.5 113t121.5 46q60 0 99.5 -36t39.5 -101q0 -70 -54 -119t-120 -49zM569 -375q54 0 92.5 36.5t38.5 88.5q0 49 -28 76t-76 27q-51 0 -88 -34.5t-37 -88.5q0 -52 28.5 -78.5t69.5 -26.5zM915 1372h-395l10 49h396z" />
    <glyph glyph-name="uni00530331" unicode="S&#x331;" horiz-adv-x="843" 
d="M360 -16q-152 0 -292 73l49 308h51l41 -248q51 -37 96.5 -50.5t106.5 -13.5q94 0 167.5 61t73.5 171q0 49 -24 88t-62 65t-84 50t-92 50.5t-84 58.5t-62 82t-24 114q0 176 124.5 297.5t289.5 121.5q89 0 164.5 -20.5t122.5 -52.5l-50 -295h-53l-37 250q-36 27 -69 36
t-88 9q-96 0 -168 -61.5t-72 -145.5q0 -50 25 -89.5t64.5 -66t87.5 -51t95.5 -52t87 -61t64.5 -85.5t25 -119q0 -102 -40.5 -185t-108 -134t-151 -78t-174.5 -27zM592 -264h-381l12 51h381z" />
    <glyph glyph-name="uni00530300" unicode="S`" horiz-adv-x="843" 
d="M358 1444l84 94l306 -244l-9 -16l-381 139v27zM360 -16q-152 0 -292 73l49 308h51l41 -248q51 -37 96.5 -50.5t106.5 -13.5q94 0 167.5 61t73.5 171q0 49 -24 88t-62 65t-84 50t-92 50.5t-84 58.5t-62 82t-24 114q0 176 124.5 297.5t289.5 121.5q89 0 164.5 -20.5
t122.5 -52.5l-50 -295h-53l-37 250q-36 27 -69 36t-88 9q-96 0 -168 -61.5t-72 -145.5q0 -50 25 -89.5t64.5 -66t87.5 -51t95.5 -52t87 -61t64.5 -85.5t25 -119q0 -102 -40.5 -185t-108 -134t-151 -78t-174.5 -27z" />
    <glyph glyph-name="uni00540308" unicode="T&#xa8;" horiz-adv-x="905" 
d="M514 1278l-121 43q57 97 72 182l141 -20q-49 -145 -92 -205zM854 1278l-121 43q57 97 72 182l141 -20q-49 -145 -92 -205zM176 0l6 31l160 37l180 1065h-213l-141 -293h-49l61 354h910l-64 -354h-45l-55 293h-205l-180 -1065l149 -35l-6 -33h-508z" />
    <glyph glyph-name="uni005A0324" unicode="Z&#x324;" horiz-adv-x="888" 
d="M37 0l-8 68l753 1065h-405l-135 -293h-47l61 354h754l6 -51l-783 -1082h449l149 291l50 -6l-74 -346h-770zM307 -332l-119 45q58 96 70 181l141 -21q-50 -145 -92 -205zM592 -332l-119 45q49 80 72 181l139 -21q-50 -145 -92 -205z" />
    <glyph glyph-name="uni006D0310" unicode="m&#x310;" horiz-adv-x="1302" 
d="M1073 -16l-137 28l82 494q20 140 20 244q0 33 -4 61l-22 10q-106 -61 -217 -182q-2 -46 -17 -129l-88 -510h-178l84 506q20 117 20 235q0 56 -4 70l-20 10q-110 -63 -221 -184l-107 -637h-176l143 848h-139v31l297 67l31 -20l-39 -226q208 246 324 246q51 0 75 -66.5
t19 -183.5q209 250 325 250q48 0 72.5 -55.5t24.5 -155.5q0 -87 -23 -225l-70 -401l13 -11l159 113l15 -35zM756 1075q-60 0 -108.5 58.5t-57.5 146.5l125 18q12 -95 80 -145q74 10 133.5 51t89.5 94l35 -10q-122 -213 -297 -213zM899 1278l-125 43q61 109 76 190l145 -20
q-20 -58 -28 -80.5t-27.5 -63.5t-40.5 -69z" />
    <glyph glyph-name="uni007000AF" unicode="p&#xaf;" horiz-adv-x="819" 
d="M-84 -424l4 25l103 37l174 1026q-20 -11 -41.5 -23.5t-43.5 -25.5t-32 -19l-4 49q76 51 133 86l31 178l184 43l-18 -106q175 96 243 96q51 0 85.5 -50.5t49.5 -126.5t15 -171q0 -106 -31.5 -213.5t-86 -194.5t-135.5 -143t-171 -59q-56 0 -117 14l-61 -354l129 -41
l-4 -27h-406zM547 825q-80 -28 -158 -65l-113 -649q81 -48 146 -48q27 0 59 42.5t60 110t46.5 161.5t18.5 186q0 157 -31 262h-28zM770 1212h-381l10 52h381z" />
    <glyph glyph-name="uni00720325" unicode="r&#x325;" horiz-adv-x="624" 
d="M264 0h-176l141 848h-137v31l283 67l45 -20l-33 -195q148 215 207 215q49 0 102 -76l-92 -178l-86 113q-60 -46 -143 -148zM125 -416q-61 0 -101 38.5t-40 107.5q0 67 54.5 113t121.5 46q60 0 99.5 -36t39.5 -101q0 -70 -54 -119t-120 -49zM127 -375q54 0 92.5 36.5
t38.5 88.5q0 49 -28 76t-76 27q-51 0 -88 -34.5t-37 -88.5q0 -52 28.5 -78.5t69.5 -26.5z" />
    <glyph glyph-name="uni007203250304" unicode="r&#x325;&#xaf;" horiz-adv-x="624" 
d="M264 0h-176l141 848h-137v31l283 67l45 -20l-33 -195q148 215 207 215q49 0 102 -76l-92 -178l-86 113q-60 -46 -143 -148zM125 -416q-61 0 -101 38.5t-40 107.5q0 67 54.5 113t121.5 46q60 0 99.5 -36t39.5 -101q0 -70 -54 -119t-120 -49zM127 -375q54 0 92.5 36.5
t38.5 88.5q0 49 -28 76t-76 27q-51 0 -88 -34.5t-37 -88.5q0 -52 28.5 -78.5t69.5 -26.5zM686 1210h-381l10 52h381z" />
    <glyph glyph-name="uni00730331" unicode="s&#x331;" horiz-adv-x="681" 
d="M645 633h-39l-37 180q-68 27 -143 27q-61 0 -103 -29t-42 -74q0 -11 3 -22.5t10 -24t14 -22.5t20 -23l22 -22t27 -24t27.5 -22.5t30.5 -24t30 -24.5q40 -35 63.5 -58t51 -57t40.5 -68.5t13 -70.5q0 -70 -54 -138.5t-135 -110t-157 -41.5q-141 0 -246 59l53 293h39
l41 -215q79 -39 186 -39q53 0 87 27.5t34 72.5q0 13 -4 26.5t-9.5 24.5t-17.5 25.5t-20 23.5t-26 26t-27 24.5t-31.5 26.5t-30.5 26q-80 68 -124 129t-44 137q0 33 29.5 82.5t75.5 97t111.5 81.5t128.5 34q55 0 98 -14t100 -45zM481 -264h-381l13 51h381z" />
    <glyph glyph-name="uni00730300" unicode="s`" horiz-adv-x="681" 
d="M645 633h-39l-37 180q-68 27 -143 27q-61 0 -103 -29t-42 -74q0 -11 3 -22.5t10 -24t14 -22.5t20 -23l22 -22t27 -24t27.5 -22.5t30.5 -24t30 -24.5q40 -35 63.5 -58t51 -57t40.5 -68.5t13 -70.5q0 -70 -54 -138.5t-135 -110t-157 -41.5q-141 0 -246 59l53 293h39
l41 -215q79 -39 186 -39q53 0 87 27.5t34 72.5q0 13 -4 26.5t-9.5 24.5t-17.5 25.5t-20 23.5t-26 26t-27 24.5t-31.5 26.5t-30.5 26q-80 68 -124 129t-44 137q0 33 29.5 82.5t75.5 97t111.5 81.5t128.5 34q55 0 98 -14t100 -45zM295 1348l147 43l148 -301l-12 -13l-283 244
v27z" />
    <glyph glyph-name="uni007A0324" unicode="z&#x324;" horiz-adv-x="700" 
d="M72 -4l-43 4l-13 35l525 723l-9 8q-64 -12 -153 -12q-97 0 -186 18l-70 -119l-37 9l47 260l45 24q240 -24 309 -24q128 0 201 24l45 -49l-502 -694l5 -17l344 -22l71 153l43 -8l-78 -307l-47 -18l-456 65zM199 -332l-119 45q58 96 70 181l141 -21q-50 -145 -92 -205z
M483 -332l-118 45q47 77 71 181l139 -21q-50 -145 -92 -205z" />
    <glyph glyph-name="lambda_lambda" unicode="&#x3bb;&#x3bb;" horiz-adv-x="1310" 
d="M1100 0l-76 719l-279 -719l-170 -16l-34 16l-74 719l-281 -719h-178l-12 33l446 903l-24 242q-5 67 -37 122q-152 -11 -246 -63l-26 6l-23 180q75 33 162 33q81 0 156.5 -70t89.5 -198l110 -1002q19 0 27 2l370 748l-24 242q-7 68 -39 122q-150 -11 -246 -63l-24 6
l-25 180q77 33 164 33q81 0 156.5 -70t91.5 -198l110 -1018q31 -1 50 2t43.5 12t31.5 11l8 -15q-18 -53 -64.5 -110t-98.5 -86z" />
    <glyph glyph-name="gamma_gamma" unicode="&#x3b3;&#x3b3;" horiz-adv-x="1325" 
d="M1227 944q44 2 93.5 -9t72.5 -34q-1 -38 -203.5 -440t-241.5 -455q-37 -322 -51 -420q-50 -24 -115 -24q-53 0 -86 8l123 457q-7 186 -32 386.5t-54 331.5h-6q-14 -51 -160 -380t-168 -357q-6 -43 -25 -214.5t-24 -207.5q-53 -24 -117 -24q-53 0 -86 8l121 455
q-12 228 -47.5 452.5t-68.5 343.5l-19 17l-98 -4l-2 45l235 67l62 -10q28 -138 49.5 -370.5t21.5 -438.5h17q17 28 147.5 408.5t134.5 404.5q97 0 177 -27q28 -147 50 -371t21 -415h17q17 28 138.5 411t123.5 406z" />
    <glyph glyph-name=".notdef" horiz-adv-x="1427" 
d="M608 768v55h56v-55h-56zM762 1075v55h55v-55h-55zM608 1075v55h56v-55h-56zM455 1075v55h55v-55h-55zM147 0v55h56v-55h-56zM301 0v55h55v-55h-55zM455 0v55h55v-55h-55zM608 0v55h56v-55h-56zM762 0v55h55v-55h-55zM147 154v55h56v-55h-56zM147 307v55h56v-55h-56z
M147 461v55h56v-55h-56zM147 614v56h56v-56h-56zM147 768v55h56v-55h-56zM147 922v55h56v-55h-56zM147 1075v55h56v-55h-56zM147 1229v55h56v-55h-56zM147 1382v56h56v-56h-56zM301 1382v56h55v-56h-55zM455 1382v56h55v-56h-55zM608 1382v56h56v-56h-56zM762 1382v56h55
v-56h-55zM915 1382v56h56v-56h-56zM1069 1382v56h55v-56h-55zM1069 0v55h55v-55h-55zM915 0v55h56v-55h-56zM1223 0v55h55v-55h-55zM1223 1382v56h55v-56h-55zM608 614v56h56v-56h-56zM608 307v55h56v-55h-56zM762 768v55h55v-55h-55zM915 768v55h56v-55h-56zM915 922v55h56
v-55h-56zM915 1075v55h56v-55h-56zM1223 1229v55h55v-55h-55zM1223 1075v55h55v-55h-55zM1223 768v55h55v-55h-55zM1223 614v56h55v-56h-55zM1223 307v55h55v-55h-55zM1223 154v55h55v-55h-55zM1223 461v55h55v-55h-55zM1223 922v55h55v-55h-55z" />
    <glyph glyph-name=".null" horiz-adv-x="0" 
 />
    <glyph glyph-name="nonmarkingreturn" horiz-adv-x="682" 
 />
    <glyph glyph-name="space" unicode=" " horiz-adv-x="389" 
 />
    <glyph glyph-name="exclam" unicode="!" horiz-adv-x="495" 
d="M532 1192v-59l-204 -764h-29l33 823h200zM121 25q67 135 78 194q117 9 182 -24q-47 -156 -96 -220q-91 0 -164 50z" />
    <glyph glyph-name="quotedbl" unicode="&#x22;" horiz-adv-x="677" 
d="M244 1010l71 430h150l4 -49l-180 -381h-45zM561 1010l72 430h149l4 -49l-180 -381h-45z" />
    <glyph glyph-name="numbersign" unicode="#" horiz-adv-x="1144" 
d="M240 819l16 68h274l119 307h62l-117 -307h313l119 307h64l-117 -307h246l-15 -68h-256l-143 -377h264l-14 -67h-275l-141 -375h-68l142 375h-312l-141 -375h-67l143 375h-246l14 67h256l146 377h-266zM569 819l-143 -377h313l144 377h-314z" />
    <glyph glyph-name="dollar" unicode="$" horiz-adv-x="866" 
d="M358 -14q-159 0 -290 73l51 306h55l23 -215q53 -50 102 -71.5t109 -21.5l77 445q-111 61 -148 89q-112 87 -112 218q0 162 113 277t268 124l23 129h51l-23 -127q160 -6 256 -73l-49 -295h-57l-19 217q-70 67 -143 74l-74 -428q111 -66 151 -100q99 -86 99 -208
q0 -89 -30 -162t-82.5 -122t-118 -79.5t-141.5 -41.5l-25 -144h-51l22 138q-12 -2 -37 -2zM377 936q0 -66 38.5 -113.5t108.5 -89.5l70 402q-87 -6 -152 -63.5t-65 -135.5zM659 295q0 59 -33 100t-96 80l-69 -414q81 16 139.5 78t58.5 156z" />
    <glyph glyph-name="percent" unicode="%" horiz-adv-x="1290" 
d="M133 743q0 68 20.5 139.5t57.5 134t97.5 102.5t133.5 40q93 0 146 -59.5t53 -173.5q0 -180 -91 -295t-214 -115q-94 0 -148.5 58.5t-54.5 168.5zM354 575q41 0 73 39t49.5 99.5t26.5 123t9 119.5q0 142 -84 142q-45 0 -79 -40.5t-51.5 -102t-25.5 -121t-8 -111.5
q0 -73 23.5 -110.5t66.5 -37.5zM762 211q0 68 20 139.5t57 134t98 102.5t134 40q93 0 146 -59.5t53 -172.5q0 -181 -90.5 -296t-214.5 -115q-93 0 -148 58.5t-55 168.5zM983 43q40 0 72.5 39.5t50.5 100t27.5 123t9.5 116.5q0 145 -86 145q-41 0 -74.5 -39.5t-52 -100
t-28 -123.5t-9.5 -118q0 -143 90 -143zM348 -12h-74l768 1169h80z" />
    <glyph glyph-name="ampersand" unicode="&#x26;" horiz-adv-x="1093" 
d="M1212 715q-74 -71 -202 -84v-33q-3 -163 -77.5 -304t-203 -225.5t-278.5 -84.5q-68 0 -129.5 18t-113 55t-82 100.5t-30.5 145.5q0 109 81 199t177 119q-71 31 -116 96t-45 139q0 148 113.5 255.5t264.5 107.5q108 0 175 -53.5t67 -133.5q0 -65 -44.5 -133t-137.5 -123
q35 -6 110 -6q258 0 416 98zM580 711l-21 59q80 111 80 219q0 109 -86 170h-33q-63 -3 -106 -85t-43 -165q0 -88 20.5 -145.5t61.5 -108.5l-2 -30q-61 -29 -104.5 -91.5t-43.5 -154.5q0 -75 27.5 -137t70.5 -100t93 -58.5t98 -20.5q150 57 224 198.5t83 369.5
q-144 13 -319 80z" />
    <glyph glyph-name="quotesingle" unicode="'" horiz-adv-x="360" 
d="M254 1010l72 430h145l4 -49l-178 -381h-43z" />
    <glyph glyph-name="parenleft" unicode="(" horiz-adv-x="557" 
d="M381 -379q-40 40 -81.5 105.5t-83 157t-67.5 213.5t-26 249q0 586 559 1059l39 -45q-67 -57 -127.5 -117t-136.5 -159t-129.5 -202.5t-91 -243t-37.5 -284.5q0 -109 19 -211t41.5 -168t62 -138t59 -99.5t53.5 -73.5z" />
    <glyph glyph-name="parenright" unicode=")" horiz-adv-x="557" 
d="M346 1405q39 -40 80.5 -105.5t83 -157t68 -213.5t26.5 -249q0 -586 -559 -1059l-39 45q68 56 129 116.5t137.5 159.5t130.5 202.5t91.5 243t37.5 284.5q0 109 -18.5 211t-41 169t-60.5 137t-58 100t-53 73z" />
    <glyph glyph-name="asterisk" unicode="*" horiz-adv-x="727" 
d="M758 891l-10 -60l-46 -45l-202 170l37 -266l-56 -18l-53 18l39 268l-203 -172l-39 41l-16 62l250 96l-250 102l12 60l45 41l203 -170l-39 270l51 15l58 -15l-39 -268l205 168l43 -39l10 -62l-256 -100z" />
    <glyph glyph-name="plus" unicode="+" horiz-adv-x="954" 
d="M918 575h-345v-391h-79v391h-347v78h347v377h79v-377h345v-78z" />
    <glyph glyph-name="comma" unicode="," horiz-adv-x="503" 
d="M428 150q-65 -258 -313 -451l-19 12q62 102 102 228t46 237q27 6 59 6q76 0 125 -32z" />
    <glyph glyph-name="hyphen" unicode="-" horiz-adv-x="704" 
d="M635 459h-467l12 96h469z" />
    <glyph glyph-name="period" unicode="." horiz-adv-x="471" 
d="M119 25q67 135 78 194q117 9 182 -24q-47 -156 -96 -220q-91 0 -164 50z" />
    <glyph glyph-name="slash" unicode="/" horiz-adv-x="598" 
d="M780 1376l-700 -1556h-82l704 1556h78z" />
    <glyph glyph-name="zero" unicode="0" horiz-adv-x="882" 
d="M924 807q-2 -108 -22.5 -220t-62.5 -221t-100.5 -194t-143 -137.5t-183.5 -52.5q-144 0 -213.5 99.5t-69.5 278.5q0 105 20 220t62.5 228t101.5 202.5t144.5 145.5t183.5 56q77 0 133.5 -31t88.5 -88t46.5 -127.5t14.5 -158.5zM449 41q61 0 110 58t78 143t48.5 191
t26.5 192.5t7 156.5q0 77 -4 135.5t-15.5 116t-36.5 88.5t-61 31q-57 0 -105 -57.5t-78.5 -144t-52.5 -191.5t-31 -196.5t-9 -162.5q0 -178 25 -269t98 -91z" />
    <glyph glyph-name="one" unicode="1" horiz-adv-x="688" 
d="M565 1208h64l-185 -1128l195 -43l-4 -37h-582l2 35l201 45l160 979h-217l4 31z" />
    <glyph glyph-name="two" unicode="2" horiz-adv-x="778" 
d="M760 190v-40l-49 -150h-609l-36 94q211 209 364.5 430.5t198.5 376.5q-35 88 -87 129t-128 41q-108 0 -201 -88l-20 25q59 95 145.5 149.5t163.5 54.5q130 0 211.5 -82t81.5 -188q0 -158 -152 -358.5t-403 -393.5h520z" />
    <glyph glyph-name="three" unicode="3" horiz-adv-x="735" 
d="M90 201h27q118 -99 245 -99q69 0 137.5 77t75.5 163q-39 83 -101.5 141t-168.5 111l10 61q92 34 174.5 99t131.5 131q-4 39 -30.5 88t-76.5 89t-106 40q-107 0 -218 -117l-24 31q169 196 348 196q115 0 187.5 -74.5t72.5 -168.5q0 -149 -278 -291v-8q91 -36 164 -117.5
t73 -165.5q0 -100 -80.5 -196.5t-188.5 -152.5t-196 -56q-137 0 -229 55z" />
    <glyph glyph-name="four" unicode="4" horiz-adv-x="817" 
d="M53 322l-12 102l610 782h140l-121 -745h155v-27l-43 -112h-135l-55 -340h-184l53 340h-408zM147 461h336l90 561z" />
    <glyph glyph-name="five" unicode="5" horiz-adv-x="745" 
d="M123 188h27q52 -55 110 -90t96 -35q46 0 90.5 53t70.5 127t26 138q0 89 -21 144t-92 114q-61 -17 -217 -80l-39 27l133 608h508l-2 -33l-55 -149h-420l-70 -353q142 82 269 105q93 -33 144.5 -118.5t51.5 -211.5q0 -75 -40 -156.5t-102 -145.5t-142.5 -106t-155.5 -42
q-111 0 -223 53z" />
    <glyph glyph-name="six" unicode="6" horiz-adv-x="796" 
d="M803 1014h-27q-111 90 -196 90q-54 0 -102.5 -43.5t-84.5 -116.5t-61 -160t-39 -182q191 168 307 168q81 -41 127.5 -129t46.5 -217q0 -74 -42.5 -155t-105.5 -143.5t-139 -103t-139 -40.5q-104 0 -171.5 115.5t-67.5 308.5q0 134 48.5 279.5t125.5 261t181.5 190.5
t207.5 75q96 0 166 -30zM502 657q-43 -4 -93 -33.5t-122 -84.5q-4 -54 -4 -80q0 -136 33.5 -257t101.5 -149q71 25 118.5 120t47.5 185q0 213 -82 299z" />
    <glyph glyph-name="seven" unicode="7" horiz-adv-x="673" 
d="M160 1012v28l57 154h619l14 -74l-545 -1136h-141l4 36l557 992h-565z" />
    <glyph glyph-name="eight" unicode="8" horiz-adv-x="851" 
d="M883 961q0 -139 -273 -289q94 -100 147.5 -183t53.5 -157q0 -94 -66 -176t-164.5 -127t-197.5 -45q-125 0 -206 85.5t-81 192.5q0 188 287 326q-156 181 -156 293q0 77 61.5 156t146.5 127t155 48q120 0 206.5 -74.5t86.5 -176.5zM672 207q-3 25 -18 55t-46.5 69.5
t-55 67t-72.5 80t-70 76.5q-100 -111 -156 -260q26 -88 77 -166t103 -78q62 0 136.5 50.5t101.5 105.5zM356 991q2 -20 13.5 -43t39.5 -57t45 -53t63.5 -67.5t60.5 -63.5q99 102 143 202q-24 81 -80.5 151t-114.5 70q-44 0 -88.5 -37t-81.5 -102z" />
    <glyph glyph-name="nine" unicode="9" horiz-adv-x="794" 
d="M127 180h27q111 -90 196 -90q70 0 131 76t99 187t55 239q-187 -168 -305 -168q-81 41 -127.5 129t-46.5 217q0 74 42.5 155t105.5 143.5t139 103t139 40.5q104 0 171.5 -115.5t67.5 -308.5q0 -134 -48.5 -279.5t-125.5 -261t-181.5 -190.5t-207.5 -75q-96 0 -166 30z
M428 537q41 4 92 34t121 82l6 82q0 136 -33.5 257t-101.5 149q-71 -25 -118.5 -120t-47.5 -185q0 -213 82 -299z" />
    <glyph glyph-name="colon" unicode=":" horiz-adv-x="530" 
d="M139 25q67 135 78 194q117 9 182 -24q-47 -156 -96 -220q-91 0 -164 50zM256 707q67 135 78 194q117 9 182 -24q-47 -156 -96 -220q-91 0 -164 50z" />
    <glyph glyph-name="semicolon" unicode=";" horiz-adv-x="563" 
d="M416 150q-65 -257 -314 -451l-18 12q62 101 101.5 227t45.5 238q27 6 60 6q76 0 125 -32zM279 707q65 132 77 194q54 4 105 -3t78 -21q-47 -154 -97 -220q-90 0 -163 50z" />
    <glyph glyph-name="less" unicode="&#x3c;" horiz-adv-x="944" 
d="M244 614l665 -366l-28 -66l-723 391v76l723 387l28 -65z" />
    <glyph glyph-name="equal" unicode="=" horiz-adv-x="1019" 
d="M950 768h-770v84h770v-84zM950 367h-770v84h770v-84z" />
    <glyph glyph-name="greater" unicode="&#x3e;" horiz-adv-x="944" 
d="M190 182l-30 62l667 364l-669 363l32 65l721 -389v-76z" />
    <glyph glyph-name="question" unicode="?" horiz-adv-x="573" 
d="M662 918q0 -49 -41.5 -108.5t-108.5 -111.5q-70 -54 -140 -116t-89 -90q3 -21 11 -64.5t9 -60.5l-31 -9q-3 4 -13.5 17t-15 18.5t-14 18.5t-14.5 20.5t-12.5 19t-11.5 20.5t-8.5 19.5t-6.5 20t-2 18.5q0 36 56.5 93t127.5 108.5t145 111.5t99 97q-26 43 -101.5 73.5
t-149.5 42.5t-138 13q0 96 80 141q84 0 170.5 -44t142.5 -112.5t56 -135.5zM98 25q67 135 78 194q117 9 182 -24q-47 -156 -96 -220q-91 0 -164 50z" />
    <glyph glyph-name="at" unicode="@" horiz-adv-x="1558" 
d="M883 10l51 309l-309 -335h-105q-18 86 -18 227q0 153 33 310.5t86 234.5q122 182 266 182q82 0 182 -57l45 59h84l-141 -836l18 -14q121 51 214 144t140.5 200t47.5 211q0 126 -32 234t-95.5 192.5t-169 133t-242.5 48.5q-156 0 -295 -71.5t-236 -190t-153.5 -275.5
t-56.5 -325q0 -176 50 -316t139.5 -230.5t210.5 -138.5t265 -48q116 0 250 62.5t227 150.5l25 -61q-110 -96 -243.5 -157t-276.5 -61q-155 0 -288 55t-229 155.5t-150 250t-54 330.5q0 191 66.5 365t179.5 299t268 198.5t326 73.5q177 0 311.5 -84.5t206 -232.5t71.5 -336
q0 -120 -49.5 -231.5t-133.5 -197t-184 -151t-212 -109.5zM662 184l26 -10l264 262l62 338q-123 62 -189 64q-13 2 -37 -2q-52 -84 -91.5 -254t-39.5 -328q0 -45 5 -70z" />
    <glyph glyph-name="A" unicode="A" horiz-adv-x="1046" 
d="M-20 0l4 31l106 45l615 1118h133l125 -1141l79 -20l-4 -33h-434l2 31l133 22l-28 402h-340l-199 -377l170 -45l-6 -33h-356zM401 512h306l-31 494h-10z" />
    <glyph glyph-name="B" unicode="B" horiz-adv-x="1032" 
d="M45 0l2 31l162 28l182 1076l-153 26l6 33h446q344 0 344 -262q0 -111 -73.5 -183.5t-192.5 -111.5v-6q106 -8 174 -68.5t68 -169.5q0 -183 -132.5 -288t-334.5 -105h-498zM403 61h103q137 0 219 82.5t82 233.5q0 108 -60 159.5t-188 51.5h-61zM506 645h74q113 0 180 77
t67 210q0 115 -43 162t-137 47h-59z" />
    <glyph glyph-name="C" unicode="C" horiz-adv-x="997" 
d="M1057 829h-58l-53 281q-64 45 -155 45q-143 0 -250.5 -95.5t-161 -249.5t-53.5 -341q0 -196 80 -311t233 -115q89 0 165 59.5t107 133.5h45l-32 -173q-162 -79 -330 -79q-226 0 -360 117t-134 343q0 163 56 306t151 244t226.5 159.5t277.5 58.5q77 0 143 -13.5
t89.5 -23.5t64.5 -30z" />
    <glyph glyph-name="D" unicode="D" horiz-adv-x="1181" 
d="M45 0l2 31l160 28l184 1078l-153 24l6 33h473q91 0 165 -12t142 -41.5t114.5 -76.5t73.5 -121t27 -171q0 -220 -88 -396t-247 -276t-361 -100h-498zM674 1133h-86l-187 -1070h121q223 0 358.5 179.5t135.5 490.5q0 400 -342 400z" />
    <glyph glyph-name="E" unicode="E" horiz-adv-x="978" 
d="M45 0l2 31l162 28l180 1076l-151 26l6 33h807l-50 -287h-53l-43 228h-317l-86 -500l372 12l-12 -84l-368 12l-91 -514h322l170 246l41 -6l-86 -301h-805z" />
    <glyph glyph-name="F" unicode="F" horiz-adv-x="903" 
d="M45 0l4 31l160 26l180 1078l-151 26l8 33h798l-49 -287h-51l-39 228h-317l-88 -521l370 15l-12 -86l-371 14l-81 -496l159 -28l-4 -33h-516z" />
    <glyph glyph-name="G" unicode="G" horiz-adv-x="1038" 
d="M594 -16q-222 0 -358 124t-136 343q0 161 55.5 303t150 242t224 158t273.5 58q76 0 142 -13t92 -24t65 -30l-53 -316h-52l-49 281q-65 45 -170 45q-102 0 -189.5 -60.5t-143.5 -157.5t-87.5 -215t-31.5 -237q0 -229 76.5 -335.5t228.5 -106.5q51 0 104 23l76 462l-158 37
l9 33h354l-92 -535q-162 -79 -330 -79z" />
    <glyph glyph-name="H" unicode="H" horiz-adv-x="1296" 
d="M45 0l2 31l162 24l182 1082l-151 24l6 33h506l-9 -31l-155 -24l-86 -500h463l84 498l-150 24l6 33h506l-6 -31l-160 -24l-182 -1084l149 -22l-4 -33h-503l4 31l155 24l90 529h-462l-89 -529l148 -22l-2 -33h-504z" />
    <glyph glyph-name="I" unicode="I" horiz-adv-x="673" 
d="M61 0l5 31l157 26l185 1080l-152 24l8 33h506l-6 -31l-160 -26l-182 -1078l149 -26l-4 -33h-506z" />
    <glyph glyph-name="J" unicode="J" horiz-adv-x="745" 
d="M258 -18q-141 0 -248 47l58 342h55l24 -299q1 0 14.5 -4.5t28 -9t32.5 -8t30 -3.5q125 0 164 244l143 844l-149 26l4 33h514l-4 -31l-166 -26l-140 -824q-24 -145 -132 -238t-228 -93z" />
    <glyph glyph-name="K" unicode="K" horiz-adv-x="1062" 
d="M45 0l2 31l162 22l182 1082l-151 26l8 33h506l-9 -31l-157 -26l-182 -1084l147 -20l-2 -33h-506zM786 0l-251 563l6 33l446 526l-123 43l6 29h375l-8 -35l-158 -37l-383 -438l297 -616l94 -35l-4 -33h-297z" />
    <glyph glyph-name="L" unicode="L" horiz-adv-x="901" 
d="M45 0l4 31l160 28l182 1078l-151 24l6 33h508l-6 -31l-158 -24l-184 -1078h296l189 308l45 -7l-100 -362h-791z" />
    <glyph glyph-name="M" unicode="M" horiz-adv-x="1513" 
d="M969 0l4 31l157 24l84 899h-8l-485 -972h-86l-160 1026h-8l-225 -924l157 -51l-4 -33h-379l4 31l142 51l264 1034l-133 45l8 33h352l138 -932h2l458 932h324l-6 -31l-146 -33l-88 -1077l127 -20l-4 -33h-489z" />
    <glyph glyph-name="N" unicode="N" horiz-adv-x="1193" 
d="M23 0l6 31l139 49l176 1024l-127 57l6 33h291l438 -842h6l134 758l-166 51l6 33h387l-6 -31l-142 -47l-194 -1134h-76l-493 974h-9l-149 -874l172 -49l-6 -33h-393z" />
    <glyph glyph-name="O" unicode="O" horiz-adv-x="1120" 
d="M1178 743q-2 -108 -33.5 -217t-90 -206t-136 -172.5t-179 -119.5t-211.5 -44q-199 0 -313.5 125t-114.5 331q0 146 49.5 286t134 247.5t207.5 173t261 65.5q208 0 317 -123t109 -346zM555 47q92 0 170 65t127 170t76.5 232t27.5 256q0 168 -58 274.5t-171 106.5
q-93 0 -171.5 -66t-127.5 -171t-76.5 -230t-27.5 -250q0 -170 57 -278.5t174 -108.5z" />
    <glyph glyph-name="P" unicode="P" horiz-adv-x="968" 
d="M45 0l2 31l160 26l184 1078l-151 26l6 33h493q138 0 230 -77t92 -208q0 -110 -38.5 -193t-107 -132.5t-155.5 -74t-191 -24.5h-92l-74 -428l162 -24l-4 -33h-516zM485 545h72q120 0 206.5 93t86.5 243q0 246 -176 249h-86z" />
    <glyph glyph-name="Q" unicode="Q" horiz-adv-x="1120" 
d="M1178 743q-3 -154 -63.5 -304.5t-172.5 -267.5t-252 -163l367 -198l-4 -35h-273l-141 221q-55 -12 -111 -12q-199 0 -313.5 125t-114.5 331q0 146 49.5 286t134 247.5t207.5 173t261 65.5q208 0 317 -123t109 -346zM555 47q92 0 170 65t127 170t76.5 232t27.5 256
q0 168 -58 274.5t-171 106.5q-93 0 -171.5 -66t-127.5 -171t-76.5 -230t-27.5 -250q0 -170 57 -278.5t174 -108.5z" />
    <glyph glyph-name="R" unicode="R" horiz-adv-x="1062" 
d="M45 0l4 31l158 28l182 1071l-151 31l8 33h504q140 0 217 -68t77 -192q0 -261 -260 -350l185 -504l100 -53l-4 -27h-289l-176 549h-115l-79 -490l149 -26l-4 -33h-506zM498 608q68 2 125 17.5t106 47.5t77 90t28 136q0 234 -170 234h-76z" />
    <glyph glyph-name="S" unicode="S" horiz-adv-x="843" 
d="M360 -16q-152 0 -292 73l49 308h51l41 -248q51 -37 96.5 -50.5t106.5 -13.5q94 0 167.5 61t73.5 171q0 49 -24 88t-62 65t-84 50t-92 50.5t-84 58.5t-62 82t-24 114q0 176 124.5 297.5t289.5 121.5q89 0 164.5 -20.5t122.5 -52.5l-50 -295h-53l-37 250q-36 27 -69 36
t-88 9q-96 0 -168 -61.5t-72 -145.5q0 -50 25 -89.5t64.5 -66t87.5 -51t95.5 -52t87 -61t64.5 -85.5t25 -119q0 -102 -40.5 -185t-108 -134t-151 -78t-174.5 -27z" />
    <glyph glyph-name="T" unicode="T" horiz-adv-x="905" 
d="M176 0l6 31l160 37l180 1065h-213l-141 -293h-49l61 354h910l-64 -354h-45l-55 293h-205l-180 -1065l149 -35l-6 -33h-508z" />
    <glyph glyph-name="U" unicode="U" horiz-adv-x="1130" 
d="M545 -18q-85 0 -153 19.5t-118.5 60t-76 109t-21.5 161.5q0 12 4.5 45.5t16.5 105.5t25.5 149.5t38.5 224t48 282.5l-141 22l8 33h492l-4 -31l-150 -24q-129 -759 -129 -772q-17 -316 207 -316q122 0 228 113t138 305l107 643l-170 49l6 33h399l-6 -31l-143 -49
l-113 -651q-18 -103 -55 -185.5t-85 -137t-107.5 -91t-120.5 -52t-125 -15.5z" />
    <glyph glyph-name="V" unicode="V" horiz-adv-x="978" 
d="M381 0l-162 1147l-86 18l6 29h430l-4 -27l-133 -24l115 -940h8l430 911l-149 51l6 29h340l-4 -27l-107 -47l-551 -1120h-139z" />
    <glyph glyph-name="W" unicode="W" horiz-adv-x="1542" 
d="M322 0l-109 1147l-84 18l4 29h436l-4 -27l-139 -26l61 -918h9l422 971h141l100 -975h10l398 895l-152 51l6 29h344l-2 -27l-112 -47l-512 -1120h-148l-100 936h-8l-416 -936h-145z" />
    <glyph glyph-name="X" unicode="X" horiz-adv-x="1015" 
d="M565 0l6 31l129 28l-163 435l-312 -418l137 -43l-4 -33h-370l6 31l123 39l395 493l-211 574l-104 24l8 33h448l-8 -31l-125 -30l146 -394l278 379l-102 43l6 33h328l-7 -31l-135 -53l-344 -434l236 -621l100 -22l-6 -33h-455z" />
    <glyph glyph-name="Y" unicode="Y" horiz-adv-x="937" 
d="M193 0l4 31l161 26l74 424l-221 664l-66 16l9 33h407l-4 -31l-131 -28l174 -566h6l322 545l-154 47l6 33h355l-7 -31l-104 -33l-385 -624l-76 -449l156 -24l-4 -33h-522z" />
    <glyph glyph-name="Z" unicode="Z" horiz-adv-x="888" 
d="M37 0l-8 68l753 1065h-405l-135 -293h-47l61 354h754l6 -51l-783 -1082h449l149 291l50 -6l-74 -346h-770z" />
    <glyph glyph-name="bracketleft" unicode="[" horiz-adv-x="555" 
d="M358 -371h-223l293 1764h225l-12 -72h-152l-270 -1620h152z" />
    <glyph glyph-name="backslash" unicode="\" horiz-adv-x="522" 
d="M346 -182l-129 1556h78l131 -1556h-80z" />
    <glyph glyph-name="bracketright" unicode="]" horiz-adv-x="555" 
d="M358 1393h224l-293 -1764h-226l13 72h149l271 1620h-150z" />
    <glyph glyph-name="asciicircum" unicode="^" horiz-adv-x="882" 
d="M791 496h-78l-236 616l-266 -616h-78l305 698h86z" />
    <glyph glyph-name="underscore" unicode="_" horiz-adv-x="876" 
d="M866 -201h-889l13 78h889z" />
    <glyph glyph-name="grave" unicode="`" horiz-adv-x="870" 
d="M444 1348l148 43l147 -301l-12 -13l-283 244v27z" />
    <glyph glyph-name="a" unicode="a" horiz-adv-x="804" 
d="M446 12l50 293l-299 -317h-97q-22 93 -22 223q0 156 32 308.5t91 242.5q29 42 52 70t55.5 56t70.5 42t82 14q95 0 203 -61l84 63h32l-143 -835l12 -9l152 103l14 -29l-237 -192zM256 156l16 -4l236 219l67 397q-98 69 -196 84q-48 -82 -81.5 -243t-41.5 -322
q-2 -16 -2 -68q0 -49 2 -63z" />
    <glyph glyph-name="b" unicode="b" horiz-adv-x="778" 
d="M45 43v2l219 1298h-127v31l289 66l31 -21l-115 -663q186 186 266 186q52 0 88 -50.5t51 -126.5t15 -171q0 -147 -58 -288t-158.5 -231.5t-213.5 -90.5q-169 0 -287 59zM512 821q-77 -46 -182 -137l-99 -571q78 -47 150 -47q43 0 80 51.5t60 132.5t35.5 173t12.5 179
q0 134 -30 219h-27z" />
    <glyph glyph-name="c" unicode="c" horiz-adv-x="641" 
d="M582 334l14 -43q-67 -81 -172 -169.5t-223 -137.5l-86 20q-35 109 -35 258q0 306 117 502q39 55 72.5 90.5t87.5 63.5t116 28q92 0 207 -49q-7 -85 -64 -166q-53 39 -75.5 54.5t-64 36t-93.5 36.5q-59 -90 -88 -234.5t-29 -273.5q0 -124 19 -217l16 -6q57 22 122.5 72.5
t158.5 134.5z" />
    <glyph glyph-name="d" unicode="d" horiz-adv-x="811" 
d="M444 12l50 291l-297 -315h-97q-22 93 -22 223q0 156 32 308.5t91 242.5q29 42 52 70t55.5 56t70.5 42t82 14q59 0 135 -29l72 428h-146v31l312 66l32 -21l-227 -1298l12 -10l152 96l16 -29l-250 -194zM256 156l16 -4l232 215l67 403q-89 66 -192 82q-50 -85 -85 -242.5
t-38 -310.5v-143z" />
    <glyph glyph-name="e" unicode="e" horiz-adv-x="651" 
d="M571 332l17 -43q-67 -81 -171 -168.5t-222 -136.5l-82 20q-37 115 -37 258q0 318 119 500q61 88 121.5 136t144.5 48q89 0 221 -78l-2 -172q-68 -64 -185.5 -143t-230.5 -137q-2 -37 -2 -109q0 -112 14 -176l19 -4q135 71 276 205zM387 856q-96 -147 -119 -385
q147 86 277 213l-4 100q-68 49 -154 72z" />
    <glyph glyph-name="f" unicode="f" horiz-adv-x="563" 
d="M113 854v64h157l31 178q26 154 142 254t255 100q59 0 115 -20l-45 -175h-35l-160 121q-57 -61 -94 -278l-30 -180h165v-64h-176l-139 -831q-13 -100 -66 -205t-128.5 -176.5t-145.5 -71.5q-103 0 -176 37l43 166q17 -13 53.5 -42t52 -39.5t44 -22.5t57.5 -13
q11 12 22.5 46.5t24 95.5t20.5 105.5t21 123.5l139 827h-147z" />
    <glyph glyph-name="g" unicode="g" horiz-adv-x="780" 
d="M236 -436q-168 0 -271 61l41 166q51 -31 70 -42.5t64 -34t82.5 -31.5t76.5 -9q33 0 70 9q42 46 104 452l29 178l-305 -325h-97q-22 93 -22 223q0 156 32 308.5t91 242.5q29 42 52 70t55.5 56t70.5 42t82 14q93 0 209 -65l94 67h20l-155 -938q-14 -82 -46 -158.5t-80 -142
t-117.5 -104.5t-149.5 -39zM514 379q34 185 66 383q-54 40 -98 61t-103 29q-49 -84 -84.5 -247.5t-38.5 -317.5q0 -10 -0.5 -40.5t-0.5 -54.5t1 -36l16 -6z" />
    <glyph glyph-name="h" unicode="h" horiz-adv-x="864" 
d="M55 0l228 1343h-136v31l291 66l39 -21l-125 -723q209 250 326 250q92 0 92 -209q0 -95 -22 -227l-72 -401l14 -9l162 111l18 -35l-243 -192l-142 28l80 494q21 147 21 242q0 35 -4 63l-21 10q-89 -49 -219 -190l-109 -631h-178z" />
    <glyph glyph-name="i" unicode="i" horiz-adv-x="489" 
d="M227 -16l-137 28l141 836h-139v31l297 67l31 -20l-137 -815l14 -11l156 111l16 -35zM416 1128l-131 50q62 131 75 200l150 -24q-49 -161 -94 -226z" />
    <glyph glyph-name="j" unicode="j" horiz-adv-x="471" 
d="M-23 -436l-18 12q40 71 77.5 175.5t51.5 195.5l152 901h-136v31l295 67l33 -20l-158 -928q-20 -123 -102 -235.5t-195 -198.5zM430 1128l-131 50q69 138 78 200l149 -24q-49 -161 -96 -226z" />
    <glyph glyph-name="k" unicode="k" horiz-adv-x="839" 
d="M63 0l228 1343h-139v31l297 70l32 -23l-119 -692q74 74 150.5 132.5t126.5 80.5l135 -45q8 -44 8 -92q0 -98 -49.5 -169.5t-154.5 -135.5l90 -381l18 -6l148 98l18 -35l-258 -192l-102 28l-78 373l6 33q186 193 186 362q0 29 -2 43l-20 11q-88 -40 -234 -179l-110 -655
h-177z" />
    <glyph glyph-name="l" unicode="l" horiz-adv-x="440" 
d="M66 12l221 1331h-137v31l294 70l33 -23l-223 -1312l16 -11l156 115l18 -35l-241 -194z" />
    <glyph glyph-name="m" unicode="m" horiz-adv-x="1302" 
d="M1073 -16l-137 28l82 494q20 140 20 244q0 33 -4 61l-22 10q-106 -61 -217 -182q-2 -46 -17 -129l-88 -510h-178l84 506q20 117 20 235q0 56 -4 70l-20 10q-110 -63 -221 -184l-107 -637h-176l143 848h-139v31l297 67l31 -20l-39 -226q208 246 324 246q51 0 75 -66.5
t19 -183.5q209 250 325 250q48 0 72.5 -55.5t24.5 -155.5q0 -87 -23 -225l-70 -401l13 -11l159 113l15 -35z" />
    <glyph glyph-name="n" unicode="n" horiz-adv-x="884" 
d="M653 -16l-143 28l80 494q20 140 20 237q0 34 -4 62l-20 10q-88 -47 -213 -172l-109 -643h-176l143 848h-139v31l297 67l31 -20l-37 -217q200 237 322 237q45 0 67.5 -54.5t22.5 -150.5q0 -107 -23 -231l-70 -401l13 -9l164 111l16 -35z" />
    <glyph glyph-name="o" unicode="o" horiz-adv-x="765" 
d="M313 -16q-110 0 -170.5 98t-60.5 244q0 115 29.5 225.5t82 198.5t133 142t175.5 54q117 0 183.5 -98t66.5 -262q0 -100 -33 -205.5t-89.5 -193t-140.5 -144.5t-176 -59zM375 47q88 62 136 212.5t50 299.5q0 204 -22 279q-57 32 -105 36q-54 -34 -93 -120.5t-55 -182.5
t-16 -190v-78q0 -169 21 -223q35 -30 84 -33z" />
    <glyph glyph-name="p" unicode="p" horiz-adv-x="819" 
d="M-84 -424l4 25l103 37l174 1026q-20 -11 -41.5 -23.5t-43.5 -25.5t-32 -19l-4 49q76 51 133 86l31 178l184 43l-18 -106q175 96 243 96q51 0 85.5 -50.5t49.5 -126.5t15 -171q0 -106 -31.5 -213.5t-86 -194.5t-135.5 -143t-171 -59q-56 0 -117 14l-61 -354l129 -41
l-4 -27h-406zM547 825q-80 -28 -158 -65l-113 -649q81 -48 146 -48q27 0 59 42.5t60 110t46.5 161.5t18.5 186q0 157 -31 262h-28z" />
    <glyph glyph-name="q" unicode="q" horiz-adv-x="765" 
d="M662 -424h-402l4 25l113 41l112 657l-292 -311h-97q-22 93 -22 223q0 156 32 308.5t91 242.5q29 42 52 70t55.5 56t70.5 42t82 14q95 0 203 -61l90 63h20l-223 -1304l115 -39zM379 852q-121 -208 -125 -588q0 -75 2 -110l16 -7l228 215l69 408q-96 66 -190 82z" />
    <glyph glyph-name="r" unicode="r" horiz-adv-x="624" 
d="M264 0h-176l141 848h-137v31l283 67l45 -20l-33 -195q148 215 207 215q49 0 102 -76l-92 -178l-86 113q-60 -46 -143 -148z" />
    <glyph glyph-name="s" unicode="s" horiz-adv-x="681" 
d="M645 633h-39l-37 180q-68 27 -143 27q-61 0 -103 -29t-42 -74q0 -11 3 -22.5t10 -24t14 -22.5t20 -23l22 -22t27 -24t27.5 -22.5t30.5 -24t30 -24.5q40 -35 63.5 -58t51 -57t40.5 -68.5t13 -70.5q0 -70 -54 -138.5t-135 -110t-157 -41.5q-141 0 -246 59l53 293h39
l41 -215q79 -39 186 -39q53 0 87 27.5t34 72.5q0 13 -4 26.5t-9.5 24.5t-17.5 25.5t-20 23.5t-26 26t-27 24.5t-31.5 26.5t-30.5 26q-80 68 -124 129t-44 137q0 33 29.5 82.5t75.5 97t111.5 81.5t128.5 34q55 0 98 -14t100 -45z" />
    <glyph glyph-name="t" unicode="t" horiz-adv-x="593" 
d="M100 854l6 39l134 20l145 258h66l-41 -253h227l-8 -64h-230l-114 -731l14 -10q53 27 132.5 81t119.5 89l18 -33q-49 -59 -158 -147.5t-192 -118.5l-123 32l127 838h-123z" />
    <glyph glyph-name="u" unicode="u" horiz-adv-x="870" 
d="M639 -16l-139 28l32 211q-92 -106 -181 -172.5t-156 -66.5q-84 0 -84 184q0 108 24 246l68 434h-135v31l301 67l30 -20l-82 -502q-31 -194 -24 -305l22 -10q108 53 230 188l88 551h-117v31l283 67l30 -20l-135 -813l17 -15l151 111l19 -33z" />
    <glyph glyph-name="v" unicode="v" horiz-adv-x="739" 
d="M813 928l-2 -60l-430 -868h-164q-39 151 -61.5 364.5t-22.5 415.5v68h-96v31l276 67l31 -8q-18 -129 -18 -279q0 -263 47 -522h16l229 506l3 285h192z" />
    <glyph glyph-name="w" unicode="w" horiz-adv-x="1163" 
d="M645 0q-41 158 -65 420l-189 -420h-174q-39 151 -61.5 364.5t-22.5 415.5v68h-92v31l270 67l33 -6q-14 -123 -14 -289q0 -274 41 -514h18l182 412q-8 128 -8 285v79l215 29q-18 -144 -18 -317q0 -260 41 -488h16l215 506l4 285h193v-60l-414 -868h-170z" />
    <glyph glyph-name="x" unicode="x" horiz-adv-x="817" 
d="M827 928v-45l-319 -369l137 -414l17 -4l147 94l14 -34l-227 -172l-111 22l-116 344l-123 -141l-47 -209h-170v55l319 359l-145 434h-109v29l244 69l31 -6l120 -369l109 123l64 234h165z" />
    <glyph glyph-name="y" unicode="y" horiz-adv-x="739" 
d="M813 928l-2 -60l-350 -712l-248 -580h-145l-2 35l243 389h-88q-40 155 -64 370.5t-24 415.5v62h-96v31l276 67l31 -8q-16 -107 -16 -262q0 -277 49 -539h16l225 506l3 285h192z" />
    <glyph glyph-name="z" unicode="z" horiz-adv-x="700" 
d="M72 -4l-43 4l-13 35l525 723l-9 8q-64 -12 -153 -12q-97 0 -186 18l-70 -119l-37 9l47 260l45 24q240 -24 309 -24q128 0 201 24l45 -49l-502 -694l5 -17l344 -22l71 153l43 -8l-78 -307l-47 -18l-456 65z" />
    <glyph glyph-name="braceleft" unicode="{" horiz-adv-x="575" 
d="M446 -344l-43 -4q-119 -8 -194.5 39.5t-75.5 156.5q0 42 12 91l99 380q15 63 -8.5 115.5t-88.5 65.5l11 61q66 14 107.5 67t49.5 117l31 392q8 89 57 151t120 89t157 26h59l-10 -72h-47q-106 0 -176 -49t-80 -152l-29 -366q-4 -41 -10 -69t-22 -60.5t-47.5 -57.5
t-79.5 -45q92 -34 92 -143q0 -37 -11 -86l-96 -371q-8 -40 -8 -57q0 -73 52.5 -112t144.5 -39h47z" />
    <glyph glyph-name="bar" unicode="|" horiz-adv-x="419" 
d="M209 -186h-76l264 1562h74z" />
    <glyph glyph-name="braceright" unicode="}" horiz-adv-x="575" 
d="M303 1389l43 4q119 8 194.5 -40t75.5 -157q0 -40 -12 -90l-98 -381q-15 -63 8 -115t88 -65l-10 -62q-66 -14 -108 -67t-50 -117l-31 -391q-18 -133 -109.5 -200.5t-223.5 -65.5h-60l10 71h48q105 0 172 49t84 152l30 367q3 41 9 69t22 60t47.5 57t79.5 45q-92 34 -92 141
q0 34 12 88l94 371q9 45 9 57q0 73 -52.5 112.5t-144.5 39.5h-47z" />
    <glyph glyph-name="asciitilde" unicode="~" horiz-adv-x="839" 
d="M754 676l34 -47q-51 -53 -99.5 -80t-106.5 -27q-55 0 -110.5 23.5t-109.5 47t-104 23.5q-13 0 -25.5 -2t-22.5 -4.5t-22.5 -8.5t-19.5 -9.5t-19 -11t-16.5 -11t-16 -12t-14.5 -10.5l-26 47q100 100 203 100q54 0 100 -15t73 -33t68 -33t86 -15q25 0 53 13t46 26.5
t49 38.5z" />
    <glyph glyph-name="uni00A0" unicode="&#xa0;" horiz-adv-x="421" 
 />
    <glyph glyph-name="exclamdown" unicode="&#xa1;" horiz-adv-x="466" 
d="M84 -274v59l205 764h30l-34 -823h-201zM227 731q66 135 78 195q115 9 182 -25q-47 -154 -96 -219q-93 0 -164 49z" />
    <glyph glyph-name="cent" unicode="&#xa2;" horiz-adv-x="657" 
d="M582 334l14 -43q-107 -126 -227 -213l-41 -236h-52l33 197q-60 -34 -108 -55l-86 20q-35 109 -35 258q0 306 117 502q57 83 119 131t149 51l27 150h51l-27 -152q81 -10 164 -47q-7 -85 -64 -166q-88 65 -122 82l-109 -641q49 33 197 162zM301 127q5 1 27 10l118 699
q-15 7 -63 22q-59 -90 -88 -234.5t-29 -273.5q0 -124 19 -217z" />
    <glyph glyph-name="sterling" unicode="&#xa3;" horiz-adv-x="892" 
d="M113 559l10 70h98l4 112q3 192 114 330.5t265 138.5q162 0 266 -82l-49 -292h-47l-35 256q-59 47 -129 47q-85 0 -131.5 -81.5t-48.5 -199.5q-5 -191 -8 -229h227l-10 -70h-225q-28 -235 -135 -399l415 -15l113 207l45 -10l-82 -340l-61 -18l-478 57l-26 -57h-117l-18 41
q75 131 107 253t42 281h-106z" />
    <glyph glyph-name="currency" unicode="&#xa4;" horiz-adv-x="884" 
d="M172 193l-51 57l131 143q-28 37 -45 91.5t-17 109.5q0 132 70 221l-127 146l49 53l125 -144q90 74 193 74q104 0 186 -70l127 142l51 -58l-129 -143q29 -35 46.5 -93t17.5 -118q0 -57 -22.5 -116t-53.5 -97l127 -145l-49 -56l-125 144q-90 -66 -189 -66q-108 0 -188 68z
M487 375q95 0 144 64t49 165q0 106 -43.5 170t-140.5 64q-93 0 -142 -66t-49 -168q0 -103 44 -166t138 -63z" />
    <glyph glyph-name="yen" unicode="&#xa5;" horiz-adv-x="937" 
d="M197 0l4 31l161 26l50 289h-262l12 62h260l14 73l-37 107h-225l8 61h197l-164 496l-65 16l8 33h407l-4 -31l-131 -28l174 -566h6l322 545l-154 47l6 33h355l-6 -31l-105 -33l-297 -481h230l-9 -61h-260l-49 -82l-16 -98h305l-12 -62h-304l-49 -289l156 -24l-4 -33h-522z
" />
    <glyph glyph-name="brokenbar" unicode="&#xa6;" horiz-adv-x="419" 
d="M264 -188h-76v594h76v-594zM264 1382v-579h-76v579h76z" />
    <glyph glyph-name="section" unicode="&#xa7;" horiz-adv-x="774" 
d="M201 -190q-84 0 -152 32l37 129h35q85 -45 172 -45q102 0 188 76l-229 393q-89 161 -86 324q1 99 43 191t109 158t155 106t180 40q82 0 150 -32l-37 -131h-35q-88 45 -174 45q-105 0 -188 -80l231 -389q88 -157 88 -322q-2 -131 -72.5 -246.5t-182 -182t-232.5 -66.5z
M592 152q8 76 6 110q-6 171 -102 356l-183 334q-34 -51 -51 -84q-9 -58 -6 -120q9 -164 100 -342l183 -340q38 57 53 86z" />
    <glyph glyph-name="dieresis" unicode="&#xa8;" horiz-adv-x="632" 
d="M281 1151l-121 43q60 102 71 182l142 -20q-48 -141 -92 -205zM580 1151l-121 43q47 81 71 182l142 -20q-48 -141 -92 -205z" />
    <glyph glyph-name="copyright" unicode="&#xa9;" horiz-adv-x="1413" 
d="M1042 737h-30l-88 174q-58 25 -101 25q-102 0 -158.5 -97.5t-56.5 -238.5q0 -147 55 -242.5t156 -95.5q78 0 131 49t76 113h16v-143q-122 -70 -239 -70q-79 0 -147.5 22.5t-122.5 66.5t-85.5 116.5t-31.5 165.5q0 185 112 291t279 106q157 0 235 -53v-189zM190 592
q0 168 79 311t215 226t296 83t296 -83t215 -226t79 -311t-79 -311t-215 -226.5t-296 -83.5t-296 83.5t-215 226.5t-79 311zM244 592q0 -152 72 -282.5t195.5 -207.5t268.5 -77q108 0 207 45.5t171 122t114.5 181t42.5 218.5t-42.5 218.5t-114.5 181t-171 122t-207 45.5
q-145 0 -268.5 -77t-195.5 -207.5t-72 -282.5z" />
    <glyph glyph-name="ordfeminine" unicode="&#xaa;" horiz-adv-x="657" 
d="M410 797l39 204l-244 -223h-80q-19 68 -19 164q2 110 29.5 218t71.5 165q44 59 93 93t116 34q68 0 164 -45l65 45h17l-113 -592l10 -8l139 84l11 -21l-199 -141zM236 883l12 -4l209 170l53 278q-90 54 -178 62q-37 -53 -67.5 -170.5t-31.5 -221.5q0 -79 3 -114zM94 653
v47h557v-47h-557z" />
    <glyph glyph-name="guillemotleft" unicode="&#xab;" horiz-adv-x="778" 
d="M301 94l-188 369l309 366h43l-176 -366l53 -369h-41zM604 94l-188 369l309 366h43l-176 -366l53 -369h-41z" />
    <glyph glyph-name="logicalnot" unicode="&#xac;" horiz-adv-x="942" 
d="M872 205h-88v375h-632v82h720v-457z" />
    <glyph glyph-name="registered" unicode="&#xae;" horiz-adv-x="843" 
d="M543 549q-155 0 -260 109t-105 272t105 273t260 110q154 0 258 -110t104 -273t-104 -272t-258 -109zM543 590q136 0 222.5 98t86.5 242q0 142 -88.5 241t-220.5 99q-134 0 -223 -99t-89 -241t89 -241t223 -99zM352 743v9l51 20v336l-51 18v13h219q63 0 101.5 -30
t38.5 -85q0 -73 -70 -100l80 -150l45 -20v-11h-148l-79 166h-23v-137l47 -18v-11h-211zM524 1112h-8v-180q84 0 84 92q0 85 -76 88z" />
    <glyph glyph-name="macron" unicode="&#xaf;" horiz-adv-x="649" 
d="M668 1210h-381l10 52h381z" />
    <glyph glyph-name="degree" unicode="&#xb0;" horiz-adv-x="651" 
d="M688 946q0 -107 -73.5 -186.5t-192.5 -79.5q-118 0 -187 76.5t-69 187.5q0 108 74.5 187t195.5 79q117 0 184.5 -76.5t67.5 -187.5zM578 946q0 93 -40.5 150t-111.5 57t-109 -57.5t-38 -153.5q0 -93 39 -150t112 -57t110.5 58t37.5 153z" />
    <glyph glyph-name="plusminus" unicode="&#xb1;" horiz-adv-x="954" 
d="M909 96h-747v80h747v-80zM571 721h338v-80h-338v-340h-75v340h-334v80h334v340h75v-340z" />
    <glyph glyph-name="twosuperior" unicode="&#xb2;" horiz-adv-x="528" 
d="M508 934v-29l-39 -88h-399l-23 47q131 109 230 227t129 197q-55 84 -156 84q-60 0 -121 -43l-10 17q41 52 94.5 85t103.5 33q91 0 146 -44.5t55 -106.5q0 -151 -338 -379h328z" />
    <glyph glyph-name="threesuperior" unicode="&#xb3;" horiz-adv-x="499" 
d="M63 942h19q92 -49 174 -49q41 0 84.5 34t50.5 74q-24 37 -74.5 72.5t-117.5 59.5l8 38q104 31 186 113q-10 33 -52 63.5t-95 30.5q-68 0 -127 -45l-15 17q99 114 226 114q76 0 126 -40.5t50 -96.5q0 -20 -13.5 -40t-28 -33.5t-45 -31.5t-42.5 -23.5t-43 -20.5v-4
q60 -16 107.5 -59t47.5 -89q0 -52 -54 -104.5t-125.5 -83.5t-127.5 -31q-89 0 -153 31z" />
    <glyph glyph-name="acute" unicode="&#xb4;" horiz-adv-x="880" 
d="M600 1391l148 -43v-27l-285 -244l-10 13z" />
    <glyph glyph-name="mu" unicode="&#xb5;" horiz-adv-x="819" 
d="M-47 -424l213 1352h172l-94 -609q-19 -134 -17 -188l23 -10q117 55 244 196l98 611h176l-133 -805l16 -14l144 106l18 -33l-240 -198l-124 28l34 228q-93 -113 -185.5 -184.5t-160.5 -71.5q-24 0 -38 11.5t-25 39.5l-13 -10q31 -65 53.5 -167t10.5 -188l-14 -94h-158z
" />
    <glyph glyph-name="paragraph" unicode="&#xb6;" horiz-adv-x="1124" 
d="M584 307q-176 5 -283.5 103t-107.5 266q0 122 43 221.5t118 163.5t174 98.5t213 34.5h508l-10 -47l-158 -21l-262 -1550h-76l263 1540h-170l-265 -1540h-112z" />
    <glyph glyph-name="periodcentered" unicode="&#xb7;" horiz-adv-x="256" 
d="M170 500l-125 41q60 114 74 184l143 -18q-43 -143 -92 -207z" />
    <glyph glyph-name="cedilla" unicode="&#xb8;" horiz-adv-x="528" 
d="M203 -451q-36 0 -81.5 8t-70.5 21l33 105q98 -52 178 -52q46 0 90 21q-39 81 -180 178l4 23l162 198l55 6l-112 -147q44 -41 68.5 -66.5t47.5 -64.5t23 -74q0 -51 -63.5 -103.5t-153.5 -52.5z" />
    <glyph glyph-name="onesuperior" unicode="&#xb9;" horiz-adv-x="460" 
d="M346 1460h60l-105 -598l123 -22l-4 -23h-383l4 23l123 22l90 512h-137l4 19z" />
    <glyph glyph-name="ordmasculine" unicode="&#xba;" horiz-adv-x="690" 
d="M94 653v47h570v-47h-570zM389 821q78 43 124 150t48 209q0 143 -31 198q-53 23 -96 25q-68 -34 -108.5 -138.5t-42.5 -207.5q0 -61 8 -124.5t22 -90.5q37 -21 76 -21zM334 774q-96 0 -147.5 73t-49.5 181q2 111 46.5 208t126.5 157.5t184 60.5t158.5 -71.5t56.5 -192.5
q-2 -100 -51 -195t-136 -157.5t-188 -63.5z" />
    <glyph glyph-name="guillemotright" unicode="&#xbb;" horiz-adv-x="780" 
d="M250 836l188 -369l-309 -367h-43l176 367l-53 369h41zM555 836l188 -369l-309 -367h-43l176 367l-53 369h41z" />
    <glyph glyph-name="onequarter" unicode="&#xbc;" horiz-adv-x="1351" 
d="M987 -10l27 168h-256l-10 65l382 420h105l-68 -397h105v-21l-31 -67h-88l-29 -168h-137zM408 1204h59l-105 -598l123 -22l-4 -23h-383l4 23l123 22l90 512h-137l4 19zM305 -12l-43 22l803 1147l47 -24zM823 246h205l49 280z" />
    <glyph glyph-name="onehalf" unicode="&#xbd;" horiz-adv-x="1359" 
d="M1270 117v-29l-39 -88h-400l-22 47q130 109 229 227t129 197q-55 84 -155 84q-60 0 -121 -43l-10 16q41 53 94.5 86t103.5 33q91 0 146 -44.5t55 -106.5q0 -151 -338 -379h328zM408 1204h59l-105 -598l123 -22l-4 -23h-383l4 23l123 22l90 512h-137l4 19zM311 -12l-43 22
l803 1147l47 -24z" />
    <glyph glyph-name="threequarters" unicode="&#xbe;" horiz-adv-x="1353" 
d="M133 684h19q92 -49 174 -49q41 0 84.5 34t50.5 74q-24 36 -75 71.5t-118 59.5l8 39q105 31 187 113q-10 33 -52.5 63.5t-95.5 30.5q-68 0 -127 -45l-14 17q99 114 225 114q76 0 126 -40.5t50 -96.5q0 -20 -13.5 -40t-28 -33.5t-45 -31.5t-42.5 -23.5t-43 -20.5v-5
q60 -16 108 -59t48 -88q0 -52 -54 -104.5t-125.5 -83.5t-127.5 -31q-90 0 -154 31zM319 -12l-43 22l803 1147l47 -24zM989 -10l27 168h-256l-10 65l383 420h104l-68 -397h105v-21l-31 -67h-88l-29 -168h-137zM825 246h205l49 280z" />
    <glyph glyph-name="questiondown" unicode="&#xbf;" horiz-adv-x="634" 
d="M76 -14q0 49 40 108t107 111q69 53 141.5 116.5t92.5 92.5q-3 26 -13 69t-12 56l33 6q69 -86 85 -126q11 -25 11 -46q0 -36 -56 -93t-126 -108t-144 -111t-100 -96q26 -43 102.5 -74t149 -42.5t135.5 -12.5q0 -98 -78 -141q-83 0 -169.5 43.5t-142.5 112t-56 135.5z
M381 731q66 135 78 195q115 9 182 -25q-47 -154 -96 -219q-93 0 -164 49z" />
    <glyph glyph-name="Agrave" unicode="&#xc0;" horiz-adv-x="1046" 
d="M-20 0l4 31l106 45l615 1118h133l125 -1141l79 -20l-4 -33h-434l2 31l133 22l-28 402h-340l-199 -377l170 -45l-6 -33h-356zM401 512h306l-31 494h-10zM469 1444l84 94l305 -244l-8 -16l-381 139v27z" />
    <glyph glyph-name="Aacute" unicode="&#xc1;" horiz-adv-x="1046" 
d="M-20 0l4 31l106 45l615 1118h133l125 -1141l79 -20l-4 -33h-434l2 31l133 22l-28 402h-340l-199 -377l170 -45l-6 -33h-356zM401 512h306l-31 494h-10zM991 1538l84 -94v-27l-379 -139l-10 14z" />
    <glyph glyph-name="Acircumflex" unicode="&#xc2;" horiz-adv-x="1046" 
d="M-20 0l4 31l106 45l615 1118h133l125 -1141l79 -20l-4 -33h-434l2 31l133 22l-28 402h-340l-199 -377l170 -45l-6 -33h-356zM401 512h306l-31 494h-10zM811 1532h63l150 -250l-43 -22l-176 151l-260 -147l-17 24z" />
    <glyph glyph-name="Atilde" unicode="&#xc3;" horiz-adv-x="1046" 
d="M-20 0l4 31l106 45l615 1118h133l125 -1141l79 -20l-4 -33h-434l2 31l133 22l-28 402h-340l-199 -377l170 -45l-6 -33h-356zM401 512h306l-31 494h-10zM1051 1473l26 -25l-149 -137l-45 2l-277 61l-61 -53l-21 25l140 131l49 2l272 -64z" />
    <glyph glyph-name="Adieresis" unicode="&#xc4;" horiz-adv-x="1046" 
d="M-20 0l4 31l106 45l615 1118h133l125 -1141l79 -20l-4 -33h-434l2 31l133 22l-28 402h-340l-199 -377l170 -45l-6 -33h-356zM401 512h306l-31 494h-10zM645 1278l-121 43q57 97 72 182l141 -20q-49 -145 -92 -205zM985 1278l-121 43q57 97 72 182l141 -20
q-49 -145 -92 -205z" />
    <glyph glyph-name="Aring" unicode="&#xc5;" horiz-adv-x="1046" 
d="M-20 0l4 31l106 45l615 1118h133l125 -1141l79 -20l-4 -33h-434l2 31l133 22l-28 402h-340l-199 -377l170 -45l-6 -33h-356zM401 512h306l-31 494h-10zM788 1315q54 0 93 37t39 88q0 50 -28 76t-77 26q-51 0 -88 -33.5t-37 -87.5q0 -53 29 -79.5t69 -26.5zM786 1276
q-60 0 -99.5 37.5t-39.5 105.5t53.5 115t120.5 47q60 0 101 -36.5t41 -102.5q0 -68 -55.5 -117t-121.5 -49z" />
    <glyph glyph-name="AE" unicode="&#xc6;" horiz-adv-x="1441" 
d="M512 0l4 31l164 26l70 418h-314l-254 -401l144 -45l-4 -29h-342l4 27l110 47l723 1120h696l-51 -287h-59l-35 228h-307l-82 -498l364 14l-16 -82l-356 13l-88 -521h315l154 252l45 -12l-82 -301h-803zM844 1114l-369 -579h285l98 579h-14z" />
    <glyph glyph-name="Ccedilla" unicode="&#xc7;" horiz-adv-x="997" 
d="M481 -471q-36 0 -81 8t-70 21l32 104q96 -51 179 -51q49 0 90 20q-40 82 -180 179l4 22l123 152q-220 5 -349 121t-129 339q0 163 56 306t151 244t226.5 159.5t277.5 58.5q77 0 143 -13.5t89.5 -23.5t64.5 -30l-51 -316h-58l-53 281q-64 45 -155 45q-143 0 -250.5 -95.5
t-161 -249.5t-53.5 -341q0 -196 80 -311t233 -115q89 0 165 59.5t107 133.5h45l-32 -173q-150 -69 -293 -77l-72 -97q45 -41 68.5 -66t47 -64t23.5 -74q0 -51 -63.5 -103.5t-153.5 -52.5z" />
    <glyph glyph-name="Egrave" unicode="&#xc8;" horiz-adv-x="978" 
d="M457 1444l84 94l305 -244l-8 -16l-381 139v27zM45 0l2 31l162 28l180 1076l-151 26l6 33h807l-50 -287h-53l-43 228h-317l-86 -500l372 12l-12 -84l-368 12l-91 -514h322l170 246l41 -6l-86 -301h-805z" />
    <glyph glyph-name="Eacute" unicode="&#xc9;" horiz-adv-x="978" 
d="M922 1538l84 -94v-27l-379 -139l-11 14zM45 0l2 31l162 28l180 1076l-151 26l6 33h807l-50 -287h-53l-43 228h-317l-86 -500l372 12l-12 -84l-368 12l-91 -514h322l170 246l41 -6l-86 -301h-805z" />
    <glyph glyph-name="Ecircumflex" unicode="&#xca;" horiz-adv-x="978" 
d="M45 0l2 31l162 28l180 1076l-151 26l6 33h807l-50 -287h-53l-43 228h-317l-86 -500l372 12l-12 -84l-368 12l-91 -514h322l170 246l41 -6l-86 -301h-805zM801 1532h63l150 -250l-43 -22l-176 151l-260 -147l-17 24z" />
    <glyph glyph-name="Edieresis" unicode="&#xcb;" horiz-adv-x="978" 
d="M604 1280l-121 43q57 97 72 182l141 -20q-49 -145 -92 -205zM944 1280l-121 43q57 97 72 182l141 -20q-49 -145 -92 -205zM45 0l2 31l162 28l180 1076l-151 26l6 33h807l-50 -287h-53l-43 228h-317l-86 -500l372 12l-12 -84l-368 12l-91 -514h322l170 246l41 -6l-86 -301
h-805z" />
    <glyph glyph-name="Igrave" unicode="&#xcc;" horiz-adv-x="673" 
d="M61 0l5 31l157 26l185 1080l-152 24l8 33h506l-6 -31l-160 -26l-182 -1078l149 -26l-4 -33h-506zM299 1444l84 94l305 -244l-8 -16l-381 139v27z" />
    <glyph glyph-name="Iacute" unicode="&#xcd;" horiz-adv-x="673" 
d="M61 0l5 31l157 26l185 1080l-152 24l8 33h506l-6 -31l-160 -26l-182 -1078l149 -26l-4 -33h-506zM657 1538l84 -94v-27l-379 -139l-10 14z" />
    <glyph glyph-name="Icircumflex" unicode="&#xce;" horiz-adv-x="673" 
d="M61 0l5 31l157 26l185 1080l-152 24l8 33h506l-6 -31l-160 -26l-182 -1078l149 -26l-4 -33h-506zM561 1530h64l149 -250l-43 -23l-176 152l-260 -147l-16 24z" />
    <glyph glyph-name="Idieresis" unicode="&#xcf;" horiz-adv-x="673" 
d="M61 0l5 31l157 26l185 1080l-152 24l8 33h506l-6 -31l-160 -26l-182 -1078l149 -26l-4 -33h-506zM389 1280l-121 43q57 97 72 182l141 -20q-49 -145 -92 -205zM729 1280l-121 43q57 97 72 182l141 -20q-49 -145 -92 -205z" />
    <glyph glyph-name="Eth" unicode="&#xd0;" horiz-adv-x="1181" 
d="M178 575l12 68h115l86 494l-153 24l6 33h473q91 0 165 -12t142 -41.5t114.5 -76.5t73.5 -121t27 -171q0 -220 -88 -396t-247 -276t-361 -100h-498l2 31l160 28l88 516h-117zM674 1133h-86l-86 -490h184l-12 -68h-185l-88 -512h121q223 0 358.5 179.5t135.5 490.5
q0 400 -342 400z" />
    <glyph glyph-name="Ntilde" unicode="&#xd1;" horiz-adv-x="1193" 
d="M1102 1473l26 -25l-149 -137l-45 2l-277 61l-61 -53l-21 25l140 131l49 2l272 -64zM23 0l6 31l139 49l176 1024l-127 57l6 33h291l438 -842h6l134 758l-166 51l6 33h387l-6 -31l-142 -47l-194 -1134h-76l-493 974h-9l-149 -874l172 -49l-6 -33h-393z" />
    <glyph glyph-name="Ograve" unicode="&#xd2;" horiz-adv-x="1120" 
d="M461 1444l84 94l305 -244l-8 -16l-381 139v27zM1178 743q-2 -108 -33.5 -217t-90 -206t-136 -172.5t-179 -119.5t-211.5 -44q-199 0 -313.5 125t-114.5 331q0 146 49.5 286t134 247.5t207.5 173t261 65.5q208 0 317 -123t109 -346zM555 47q92 0 170 65t127 170t76.5 232
t27.5 256q0 168 -58 274.5t-171 106.5q-93 0 -171.5 -66t-127.5 -171t-76.5 -230t-27.5 -250q0 -170 57 -278.5t174 -108.5z" />
    <glyph glyph-name="Oacute" unicode="&#xd3;" horiz-adv-x="1120" 
d="M963 1538l84 -94v-27l-379 -139l-11 14zM1178 743q-2 -108 -33.5 -217t-90 -206t-136 -172.5t-179 -119.5t-211.5 -44q-199 0 -313.5 125t-114.5 331q0 146 49.5 286t134 247.5t207.5 173t261 65.5q208 0 317 -123t109 -346zM555 47q92 0 170 65t127 170t76.5 232
t27.5 256q0 168 -58 274.5t-171 106.5q-93 0 -171.5 -66t-127.5 -171t-76.5 -230t-27.5 -250q0 -170 57 -278.5t174 -108.5z" />
    <glyph glyph-name="Ocircumflex" unicode="&#xd4;" horiz-adv-x="1120" 
d="M1178 743q-2 -108 -33.5 -217t-90 -206t-136 -172.5t-179 -119.5t-211.5 -44q-199 0 -313.5 125t-114.5 331q0 146 49.5 286t134 247.5t207.5 173t261 65.5q208 0 317 -123t109 -346zM555 47q92 0 170 65t127 170t76.5 232t27.5 256q0 168 -58 274.5t-171 106.5
q-93 0 -171.5 -66t-127.5 -171t-76.5 -230t-27.5 -250q0 -170 57 -278.5t174 -108.5zM819 1532h64l149 -250l-43 -22l-176 151l-260 -147l-16 24z" />
    <glyph glyph-name="Otilde" unicode="&#xd5;" horiz-adv-x="1120" 
d="M1030 1470l27 -24l-150 -137l-45 2l-276 61l-62 -53l-20 24l139 132l49 2l273 -64zM1178 743q-2 -108 -33.5 -217t-90 -206t-136 -172.5t-179 -119.5t-211.5 -44q-199 0 -313.5 125t-114.5 331q0 146 49.5 286t134 247.5t207.5 173t261 65.5q208 0 317 -123t109 -346z
M555 47q92 0 170 65t127 170t76.5 232t27.5 256q0 168 -58 274.5t-171 106.5q-93 0 -171.5 -66t-127.5 -171t-76.5 -230t-27.5 -250q0 -170 57 -278.5t174 -108.5z" />
    <glyph glyph-name="Odieresis" unicode="&#xd6;" horiz-adv-x="1120" 
d="M616 1278l-120 43q55 94 71 182l142 -20q-48 -143 -93 -205zM956 1278l-120 43q55 94 71 182l142 -20q-48 -143 -93 -205zM1178 743q-2 -108 -33.5 -217t-90 -206t-136 -172.5t-179 -119.5t-211.5 -44q-199 0 -313.5 125t-114.5 331q0 146 49.5 286t134 247.5t207.5 173
t261 65.5q208 0 317 -123t109 -346zM555 47q92 0 170 65t127 170t76.5 232t27.5 256q0 168 -58 274.5t-171 106.5q-93 0 -171.5 -66t-127.5 -171t-76.5 -230t-27.5 -250q0 -170 57 -278.5t174 -108.5z" />
    <glyph glyph-name="multiply" unicode="&#xd7;" horiz-adv-x="1009" 
d="M870 911l-292 -301l292 -307l-55 -59l-293 305l-286 -305l-58 55l291 305l-285 303l56 60l284 -303l289 303z" />
    <glyph glyph-name="Oslash" unicode="&#xd8;" horiz-adv-x="1120" 
d="M1178 743q-2 -108 -33.5 -217t-90 -206t-136 -172.5t-179 -119.5t-211.5 -44q-169 0 -278 92l-78 -92h-78l113 133q-107 122 -107 323q0 146 49.5 286t134 247.5t207.5 173t261 65.5q187 0 295 -102l86 102h75l-123 -145q93 -122 93 -324zM324 434q0 -93 14 -162l592 699
q-58 180 -203 180q-93 0 -171.5 -66t-127.5 -171t-76.5 -230t-27.5 -250zM555 47q92 0 170 65t127 170t76.5 232t27.5 256q0 63 -10 131l-588 -696q58 -158 197 -158z" />
    <glyph glyph-name="Ugrave" unicode="&#xd9;" horiz-adv-x="1130" 
d="M469 1444l84 94l305 -244l-8 -16l-381 139v27zM545 -18q-85 0 -153 19.5t-118.5 60t-76 109t-21.5 161.5q0 12 4.5 45.5t16.5 105.5t25.5 149.5t38.5 224t48 282.5l-141 22l8 33h492l-4 -31l-150 -24q-129 -759 -129 -772q-17 -316 207 -316q122 0 228 113t138 305
l107 643l-170 49l6 33h399l-6 -31l-143 -49l-113 -651q-18 -103 -55 -185.5t-85 -137t-107.5 -91t-120.5 -52t-125 -15.5z" />
    <glyph glyph-name="Uacute" unicode="&#xda;" horiz-adv-x="1130" 
d="M1022 1538l84 -94v-27l-379 -139l-10 14zM545 -18q-85 0 -153 19.5t-118.5 60t-76 109t-21.5 161.5q0 12 4.5 45.5t16.5 105.5t25.5 149.5t38.5 224t48 282.5l-141 22l8 33h492l-4 -31l-150 -24q-129 -759 -129 -772q-17 -316 207 -316q122 0 228 113t138 305l107 643
l-170 49l6 33h399l-6 -31l-143 -49l-113 -651q-18 -103 -55 -185.5t-85 -137t-107.5 -91t-120.5 -52t-125 -15.5z" />
    <glyph glyph-name="Ucircumflex" unicode="&#xdb;" horiz-adv-x="1130" 
d="M545 -18q-85 0 -153 19.5t-118.5 60t-76 109t-21.5 161.5q0 12 4.5 45.5t16.5 105.5t25.5 149.5t38.5 224t48 282.5l-141 22l8 33h492l-4 -31l-150 -24q-129 -759 -129 -772q-17 -316 207 -316q122 0 228 113t138 305l107 643l-170 49l6 33h399l-6 -31l-143 -49
l-113 -651q-18 -103 -55 -185.5t-85 -137t-107.5 -91t-120.5 -52t-125 -15.5zM821 1530h64l149 -250l-43 -23l-176 152l-260 -147l-16 24z" />
    <glyph glyph-name="Udieresis" unicode="&#xdc;" horiz-adv-x="1130" 
d="M641 1278l-121 43q57 97 72 182l141 -20q-49 -145 -92 -205zM981 1278l-121 43q57 97 72 182l141 -20q-49 -145 -92 -205zM545 -18q-85 0 -153 19.5t-118.5 60t-76 109t-21.5 161.5q0 12 4.5 45.5t16.5 105.5t25.5 149.5t38.5 224t48 282.5l-141 22l8 33h492l-4 -31
l-150 -24q-129 -759 -129 -772q-17 -316 207 -316q122 0 228 113t138 305l107 643l-170 49l6 33h399l-6 -31l-143 -49l-113 -651q-18 -103 -55 -185.5t-85 -137t-107.5 -91t-120.5 -52t-125 -15.5z" />
    <glyph glyph-name="Yacute" unicode="&#xdd;" horiz-adv-x="937" 
d="M193 0l4 31l161 26l74 424l-221 664l-66 16l9 33h407l-4 -31l-131 -28l174 -566h6l322 545l-154 47l6 33h355l-7 -31l-104 -33l-385 -624l-76 -449l156 -24l-4 -33h-522zM911 1538l84 -94v-27l-379 -139l-10 14z" />
    <glyph glyph-name="Thorn" unicode="&#xde;" horiz-adv-x="950" 
d="M45 0l4 31l158 26l182 1080l-149 24l6 33h508l-6 -31l-158 -26l-27 -156h127q138 0 229 -76.5t91 -208.5q0 -107 -38 -189.5t-106 -133t-156.5 -76t-195.5 -25.5h-76l-35 -213l156 -26l-4 -33h-510zM618 918h-69l-98 -586h53q121 0 208 91t87 234q0 125 -46 193t-135 68z
" />
    <glyph glyph-name="germandbls" unicode="&#xdf;" horiz-adv-x="974" 
d="M-41 -430q-119 0 -176 37l45 164q17 -14 46.5 -40t45 -38t42.5 -23.5t58 -13.5q36 43 91 371l139 827h-137v64h147l35 188q24 147 142 246.5t245 99.5q114 0 175 -68t61 -186q0 -111 -70.5 -213t-183.5 -180q46 -37 94 -87.5t94 -112.5t75 -132.5t29 -132.5
q0 -82 -50 -165.5t-127.5 -137t-151.5 -53.5q-141 0 -226 49l52 299h45l28 -232q53 -24 111 -24q62 0 110 40.5t48 94.5q0 222 -242 430l-8 57q42 60 66 96.5t59 98.5t52 119t17 110q0 41 -8 79.5t-26 76t-52 64t-80 34.5q-35 -41 -62.5 -117.5t-39.5 -148.5l-182 -1087
q-14 -101 -63.5 -205.5t-123 -176t-143.5 -71.5z" />
    <glyph glyph-name="agrave" unicode="&#xe0;" horiz-adv-x="804" 
d="M446 12l50 293l-299 -317h-97q-22 93 -22 223q0 156 32 308.5t91 242.5q29 42 52 70t55.5 56t70.5 42t82 14q95 0 203 -61l84 63h32l-143 -835l12 -9l152 103l14 -29l-237 -192zM256 156l16 -4l236 219l67 397q-98 69 -196 84q-48 -82 -81.5 -243t-41.5 -322
q-2 -16 -2 -68q0 -49 2 -63zM356 1346l148 43l147 -302l-12 -12l-283 244v27z" />
    <glyph glyph-name="aacute" unicode="&#xe1;" horiz-adv-x="804" 
d="M446 12l50 293l-299 -317h-97q-22 93 -22 223q0 156 32 308.5t91 242.5q29 42 52 70t55.5 56t70.5 42t82 14q95 0 203 -61l84 63h32l-143 -835l12 -9l152 103l14 -29l-237 -192zM256 156l16 -4l236 219l67 397q-98 69 -196 84q-48 -82 -81.5 -243t-41.5 -322
q-2 -16 -2 -68q0 -49 2 -63zM631 1391l147 -43v-27l-284 -244l-11 13z" />
    <glyph glyph-name="acircumflex" unicode="&#xe2;" horiz-adv-x="804" 
d="M446 12l50 293l-299 -317h-97q-22 93 -22 223q0 156 32 308.5t91 242.5q29 42 52 70t55.5 56t70.5 42t82 14q95 0 203 -61l84 63h32l-143 -835l12 -9l152 103l14 -29l-237 -192zM256 156l16 -4l236 219l67 397q-98 69 -196 84q-48 -82 -81.5 -243t-41.5 -322
q-2 -16 -2 -68q0 -49 2 -63zM584 1368h63l170 -272l-22 -25l-215 166l-256 -172l-17 20z" />
    <glyph glyph-name="atilde" unicode="&#xe3;" horiz-adv-x="804" 
d="M446 12l50 293l-299 -317h-97q-22 93 -22 223q0 156 32 308.5t91 242.5q29 42 52 70t55.5 56t70.5 42t82 14q95 0 203 -61l84 63h32l-143 -835l12 -9l152 103l14 -29l-237 -192zM256 156l16 -4l236 219l67 397q-98 69 -196 84q-48 -82 -81.5 -243t-41.5 -322
q-2 -16 -2 -68q0 -49 2 -63zM815 1284l27 -22l-156 -142l-43 2l-199 88l-102 -67l-18 24l163 138h48l202 -80z" />
    <glyph glyph-name="adieresis" unicode="&#xe4;" horiz-adv-x="804" 
d="M446 12l50 293l-299 -317h-97q-22 93 -22 223q0 156 32 308.5t91 242.5q29 42 52 70t55.5 56t70.5 42t82 14q95 0 203 -61l84 63h32l-143 -835l12 -9l152 103l14 -29l-237 -192zM256 156l16 -4l236 219l67 397q-98 69 -196 84q-48 -82 -81.5 -243t-41.5 -322
q-2 -16 -2 -68q0 -49 2 -63zM760 1151l-121 43q49 84 72 182l141 -20q-48 -141 -92 -205zM461 1151l-121 43q61 104 72 182l141 -20q-48 -141 -92 -205z" />
    <glyph glyph-name="aring" unicode="&#xe5;" horiz-adv-x="804" 
d="M446 12l50 293l-299 -317h-97q-22 93 -22 223q0 156 32 308.5t91 242.5q29 42 52 70t55.5 56t70.5 42t82 14q95 0 203 -61l84 63h32l-143 -835l12 -9l152 103l14 -29l-237 -192zM256 156l16 -4l236 219l67 397q-98 69 -196 84q-48 -82 -81.5 -243t-41.5 -322
q-2 -16 -2 -68q0 -49 2 -63zM563 1077q-61 0 -101 38t-40 106t54.5 114.5t121.5 46.5q60 0 99.5 -36.5t39.5 -102.5q0 -68 -55 -117t-119 -49zM565 1116q54 0 92.5 37.5t38.5 89.5q0 49 -28 74.5t-76 25.5q-52 0 -89.5 -33t-37.5 -87q0 -53 29.5 -80t70.5 -27z" />
    <glyph glyph-name="ae" unicode="&#xe6;" horiz-adv-x="1034" 
d="M573 -16l-84 20q-28 81 -32 232l-252 -248h-105q-22 93 -22 223q0 156 32 308.5t91 242.5q38 55 72 91.5t86 63.5t110 27q38 0 96 -16.5t111 -44.5q69 63 168 63q92 0 223 -80l-2 -159q-7 -4 -205 -158t-225 -170q-2 -46 4.5 -126.5t15.5 -125.5l19 -6q31 14 74 44
t72 53.5t79.5 66t61.5 51.5l12 -47q-63 -77 -172.5 -166t-227.5 -139zM272 139l187 178q4 126 37 254.5t79 202.5q-119 76 -206 78q-46 -70 -78 -236.5t-35 -328.5v-142zM641 453q14 10 134.5 117t137.5 124l2 86q-36 33 -64.5 49t-82.5 33q-26 -31 -69.5 -161.5
t-57.5 -247.5z" />
    <glyph glyph-name="ccedilla" unicode="&#xe7;" horiz-adv-x="641" 
d="M172 -430q-36 0 -81.5 8t-70.5 21l33 104q96 -51 178 -51q50 0 91 20q-39 80 -181 178l4 23l111 135l-55 -24l-86 20q-35 109 -35 258q0 306 117 502q39 55 72.5 90.5t87.5 63.5t116 28q92 0 207 -49q-7 -85 -64 -166q-53 39 -75.5 54.5t-64 36t-93.5 36.5
q-59 -90 -88 -234.5t-29 -273.5q0 -124 19 -217l16 -6q57 22 122.5 72.5t158.5 134.5l14 -43q-103 -126 -240 -219l-106 -142q45 -41 68.5 -66t47 -64t23.5 -74q0 -51 -63.5 -103.5t-153.5 -52.5z" />
    <glyph glyph-name="egrave" unicode="&#xe8;" horiz-adv-x="651" 
d="M571 332l17 -43q-67 -81 -171 -168.5t-222 -136.5l-82 20q-37 115 -37 258q0 318 119 500q61 88 121.5 136t144.5 48q89 0 221 -78l-2 -172q-68 -64 -185.5 -143t-230.5 -137q-2 -37 -2 -109q0 -112 14 -176l19 -4q135 71 276 205zM387 856q-96 -147 -119 -385
q147 86 277 213l-4 100q-68 49 -154 72zM295 1348l147 43l148 -301l-12 -13l-283 244v27z" />
    <glyph glyph-name="eacute" unicode="&#xe9;" horiz-adv-x="651" 
d="M571 332l17 -43q-67 -81 -171 -168.5t-222 -136.5l-82 20q-37 115 -37 258q0 318 119 500q61 88 121.5 136t144.5 48q89 0 221 -78l-2 -172q-68 -64 -185.5 -143t-230.5 -137q-2 -37 -2 -109q0 -112 14 -176l19 -4q135 71 276 205zM387 856q-96 -147 -119 -385
q147 86 277 213l-4 100q-68 49 -154 72zM561 1391l148 -43v-27l-285 -244l-10 13z" />
    <glyph glyph-name="ecircumflex" unicode="&#xea;" horiz-adv-x="651" 
d="M571 332l17 -43q-67 -81 -171 -168.5t-222 -136.5l-82 20q-37 115 -37 258q0 318 119 500q61 88 121.5 136t144.5 48q89 0 221 -78l-2 -172q-68 -64 -185.5 -143t-230.5 -137q-2 -37 -2 -109q0 -112 14 -176l19 -4q135 71 276 205zM387 856q-96 -147 -119 -385
q147 86 277 213l-4 100q-68 49 -154 72zM512 1368h63l170 -272l-22 -25l-215 166l-256 -172l-16 20z" />
    <glyph glyph-name="edieresis" unicode="&#xeb;" horiz-adv-x="651" 
d="M571 332l17 -43q-67 -81 -171 -168.5t-222 -136.5l-82 20q-37 115 -37 258q0 318 119 500q61 88 121.5 136t144.5 48q89 0 221 -78l-2 -172q-68 -64 -185.5 -143t-230.5 -137q-2 -37 -2 -109q0 -112 14 -176l19 -4q135 71 276 205zM387 856q-96 -147 -119 -385
q147 86 277 213l-4 100q-68 49 -154 72zM694 1151l-121 43q49 84 72 182l141 -20q-48 -141 -92 -205zM395 1151l-121 43q61 104 72 182l141 -20q-48 -141 -92 -205z" />
    <glyph glyph-name="igrave" unicode="&#xec;" horiz-adv-x="489" 
d="M227 -16l-137 28l141 836h-139v31l297 67l31 -20l-137 -815l14 -11l156 111l16 -35zM121 1348l147 43l148 -301l-13 -13l-282 244v27z" />
    <glyph glyph-name="iacute" unicode="&#xed;" horiz-adv-x="489" 
d="M426 1391l147 -43v-27l-284 -244l-10 13zM227 -16l-137 28l141 836h-139v31l297 67l31 -20l-137 -815l14 -11l156 111l16 -35z" />
    <glyph glyph-name="icircumflex" unicode="&#xee;" horiz-adv-x="489" 
d="M360 1368h64l170 -272l-23 -25l-215 166l-256 -172l-16 20zM227 -16l-137 28l141 836h-139v31l297 67l31 -20l-137 -815l14 -11l156 111l16 -35z" />
    <glyph glyph-name="idieresis" unicode="&#xef;" horiz-adv-x="489" 
d="M242 1151l-121 43q61 104 72 182l141 -20q-48 -141 -92 -205zM541 1151l-121 43q49 84 72 182l141 -20q-48 -141 -92 -205zM227 -16l-137 28l141 836h-139v31l297 67l31 -20l-137 -815l14 -11l156 111l16 -35z" />
    <glyph glyph-name="eth" unicode="&#xf0;" horiz-adv-x="782" 
d="M303 1069l-24 47l198 109q-53 100 -137 178l31 43q105 -75 184 -178l156 86l24 -49l-147 -82q174 -251 174 -551q0 -92 -17.5 -186.5t-55 -185t-89.5 -160.5t-128 -113t-165 -43q-111 0 -168 97t-57 247q0 114 30 223.5t83 196t134 141t175 57.5q19 0 59 -8
q-15 126 -63 238zM575 733q0 34 -4 96q-85 39 -137 45q-58 -40 -97 -133t-54 -191t-15 -200q0 -82 9.5 -159t25.5 -111q31 -31 72 -33q191 133 200 686z" />
    <glyph glyph-name="ntilde" unicode="&#xf1;" horiz-adv-x="884" 
d="M653 -16l-143 28l80 494q20 140 20 237q0 34 -4 62l-20 10q-88 -47 -213 -172l-109 -643h-176l143 848h-139v31l297 67l31 -20l-37 -217q200 237 322 237q45 0 67.5 -54.5t22.5 -150.5q0 -107 -23 -231l-70 -401l13 -9l164 111l16 -35zM813 1284l27 -22l-156 -142l-43 2
l-199 88l-102 -67l-18 24l163 138h47l203 -80z" />
    <glyph glyph-name="ograve" unicode="&#xf2;" horiz-adv-x="765" 
d="M313 -16q-110 0 -170.5 98t-60.5 244q0 115 29.5 225.5t82 198.5t133 142t175.5 54q117 0 183.5 -98t66.5 -262q0 -100 -33 -205.5t-89.5 -193t-140.5 -144.5t-176 -59zM375 47q88 62 136 212.5t50 299.5q0 204 -22 279q-57 32 -105 36q-54 -34 -93 -120.5t-55 -182.5
t-16 -190v-78q0 -169 21 -223q35 -30 84 -33zM274 1348l148 43l147 -301l-12 -13l-283 244v27z" />
    <glyph glyph-name="oacute" unicode="&#xf3;" horiz-adv-x="765" 
d="M313 -16q-110 0 -170.5 98t-60.5 244q0 115 29.5 225.5t82 198.5t133 142t175.5 54q117 0 183.5 -98t66.5 -262q0 -100 -33 -205.5t-89.5 -193t-140.5 -144.5t-176 -59zM375 47q88 62 136 212.5t50 299.5q0 204 -22 279q-57 32 -105 36q-54 -34 -93 -120.5t-55 -182.5
t-16 -190v-78q0 -169 21 -223q35 -30 84 -33zM586 1391l147 -43v-27l-284 -244l-11 13z" />
    <glyph glyph-name="ocircumflex" unicode="&#xf4;" horiz-adv-x="765" 
d="M313 -16q-110 0 -170.5 98t-60.5 244q0 115 29.5 225.5t82 198.5t133 142t175.5 54q117 0 183.5 -98t66.5 -262q0 -100 -33 -205.5t-89.5 -193t-140.5 -144.5t-176 -59zM375 47q88 62 136 212.5t50 299.5q0 204 -22 279q-57 32 -105 36q-54 -34 -93 -120.5t-55 -182.5
t-16 -190v-78q0 -169 21 -223q35 -30 84 -33zM532 1358h64l170 -273l-23 -24l-215 166l-256 -172l-16 20z" />
    <glyph glyph-name="otilde" unicode="&#xf5;" horiz-adv-x="765" 
d="M313 -16q-110 0 -170.5 98t-60.5 244q0 115 29.5 225.5t82 198.5t133 142t175.5 54q117 0 183.5 -98t66.5 -262q0 -100 -33 -205.5t-89.5 -193t-140.5 -144.5t-176 -59zM375 47q88 62 136 212.5t50 299.5q0 204 -22 279q-57 32 -105 36q-54 -34 -93 -120.5t-55 -182.5
t-16 -190v-78q0 -169 21 -223q35 -30 84 -33zM782 1284l27 -22l-156 -142l-43 2l-198 88l-103 -67l-18 24l164 138h47l203 -80z" />
    <glyph glyph-name="odieresis" unicode="&#xf6;" horiz-adv-x="765" 
d="M313 -16q-110 0 -170.5 98t-60.5 244q0 115 29.5 225.5t82 198.5t133 142t175.5 54q117 0 183.5 -98t66.5 -262q0 -100 -33 -205.5t-89.5 -193t-140.5 -144.5t-176 -59zM375 47q88 62 136 212.5t50 299.5q0 204 -22 279q-57 32 -105 36q-54 -34 -93 -120.5t-55 -182.5
t-16 -190v-78q0 -169 21 -223q35 -30 84 -33zM711 1151l-121 43q49 84 72 182l141 -20q-48 -141 -92 -205zM412 1151l-121 43q60 102 71 182l142 -20q-48 -141 -92 -205z" />
    <glyph glyph-name="divide" unicode="&#xf7;" horiz-adv-x="937" 
d="M139 496v77h770v-77h-770zM520 682q-47 0 -79.5 34.5t-32.5 84.5q0 52 32 86.5t80 34.5q50 0 83.5 -34.5t33.5 -86.5q0 -50 -34 -84.5t-83 -34.5zM520 147q-47 0 -79.5 35t-32.5 86q0 52 32 86.5t80 34.5q50 0 83.5 -34.5t33.5 -86.5q0 -51 -34 -86t-83 -35z" />
    <glyph glyph-name="oslash" unicode="&#xf8;" horiz-adv-x="765" 
d="M313 -16q-104 0 -168 94l-71 -94h-64l109 141q-37 84 -37 201q0 115 29.5 225.5t82 198.5t133 142t175.5 54q111 0 176 -90l70 90h63l-104 -137q45 -92 45 -223q0 -100 -33 -205.5t-89.5 -193t-140.5 -144.5t-176 -59zM375 47q88 62 136 212.5t50 299.5v62l-291 -381
q4 -121 21 -160q35 -30 84 -33zM270 381q0 -9 -1 -29t-1 -30l291 378q-7 84 -20 138q-57 32 -105 36q-54 -34 -93 -120.5t-55 -182.5t-16 -190z" />
    <glyph glyph-name="ugrave" unicode="&#xf9;" horiz-adv-x="870" 
d="M639 -16l-139 28l32 211q-92 -106 -181 -172.5t-156 -66.5q-84 0 -84 184q0 108 24 246l68 434h-135v31l301 67l30 -20l-82 -502q-31 -194 -24 -305l22 -10q108 53 230 188l88 551h-117v31l283 67l30 -20l-135 -813l17 -15l151 111l19 -33zM326 1348l147 43l148 -301
l-13 -13l-282 244v27z" />
    <glyph glyph-name="uacute" unicode="&#xfa;" horiz-adv-x="870" 
d="M639 -16l-139 28l32 211q-92 -106 -181 -172.5t-156 -66.5q-84 0 -84 184q0 108 24 246l68 434h-135v31l301 67l30 -20l-82 -502q-31 -194 -24 -305l22 -10q108 53 230 188l88 551h-117v31l283 67l30 -20l-135 -813l17 -15l151 111l19 -33zM657 1391l148 -43v-27
l-285 -244l-10 13z" />
    <glyph glyph-name="ucircumflex" unicode="&#xfb;" horiz-adv-x="870" 
d="M639 -16l-139 28l32 211q-92 -106 -181 -172.5t-156 -66.5q-84 0 -84 184q0 108 24 246l68 434h-135v31l301 67l30 -20l-82 -502q-31 -194 -24 -305l22 -10q108 53 230 188l88 551h-117v31l283 67l30 -20l-135 -813l17 -15l151 111l19 -33zM575 1368h64l170 -272l-23 -25
l-215 166l-256 -172l-16 20z" />
    <glyph glyph-name="udieresis" unicode="&#xfc;" horiz-adv-x="870" 
d="M639 -16l-139 28l32 211q-92 -106 -181 -172.5t-156 -66.5q-84 0 -84 184q0 108 24 246l68 434h-135v31l301 67l30 -20l-82 -502q-31 -194 -24 -305l22 -10q108 53 230 188l88 551h-117v31l283 67l30 -20l-135 -813l17 -15l151 111l19 -33zM758 1151l-121 43
q49 84 72 182l141 -20q-48 -141 -92 -205zM459 1151l-121 43q61 104 72 182l141 -20q-48 -141 -92 -205z" />
    <glyph glyph-name="yacute" unicode="&#xfd;" horiz-adv-x="739" 
d="M813 928l-2 -60l-350 -712l-248 -580h-145l-2 35l243 389h-88q-40 155 -64 370.5t-24 415.5v62h-96v31l276 67l31 -8q-16 -107 -16 -262q0 -277 49 -539h16l225 506l3 285h192zM598 1391l147 -43v-27l-284 -244l-10 13z" />
    <glyph glyph-name="thorn" unicode="&#xfe;" horiz-adv-x="819" 
d="M-84 -424l4 25l103 37l176 1026l-119 -68l-4 49l135 88l113 664l184 43l-105 -594q178 96 246 96q51 0 85.5 -50.5t49.5 -126.5t15 -171q0 -106 -31.5 -213.5t-86 -194.5t-135.5 -143t-171 -59q-67 0 -119 14l-61 -354l131 -41l-4 -27h-406zM547 825q-91 -34 -158 -65
l-113 -647q82 -50 146 -50q28 0 60.5 42.5t60.5 110t46.5 161t18.5 186.5q0 160 -30 262h-31z" />
    <glyph glyph-name="ydieresis" unicode="&#xff;" horiz-adv-x="739" 
d="M813 928l-2 -60l-350 -712l-248 -580h-145l-2 35l243 389h-88q-40 155 -64 370.5t-24 415.5v62h-96v31l276 67l31 -8q-16 -107 -16 -262q0 -277 49 -539h16l225 506l3 285h192zM694 1153l-121 43q49 84 72 182l141 -20q-48 -141 -92 -205zM395 1153l-121 43
q61 104 72 182l141 -20q-48 -141 -92 -205z" />
    <glyph glyph-name="Amacron" unicode="&#x100;" horiz-adv-x="1046" 
d="M-20 0l4 31l106 45l615 1118h133l125 -1141l79 -20l-4 -33h-434l2 31l133 22l-28 402h-340l-199 -377l170 -45l-6 -33h-356zM401 512h306l-31 494h-10zM993 1372h-395l10 49h396z" />
    <glyph glyph-name="amacron" unicode="&#x101;" horiz-adv-x="804" 
d="M446 12l50 293l-299 -317h-97q-22 93 -22 223q0 156 32 308.5t91 242.5q29 42 52 70t55.5 56t70.5 42t82 14q95 0 203 -61l84 63h32l-143 -835l12 -9l152 103l14 -29l-237 -192zM256 156l16 -4l236 219l67 397q-98 69 -196 84q-48 -82 -81.5 -243t-41.5 -322
q-2 -16 -2 -68q0 -49 2 -63zM770 1210h-381l10 52h381z" />
    <glyph glyph-name="Abreve" unicode="&#x102;" horiz-adv-x="1046" 
d="M-20 0l4 31l106 45l615 1118h133l125 -1141l79 -20l-4 -33h-434l2 31l133 22l-28 402h-340l-199 -377l170 -45l-6 -33h-356zM401 512h306l-31 494h-10zM735 1278q-62 0 -110.5 59.5t-55.5 149.5l121 18q11 -101 78 -149q78 10 139 53t92 98l37 -8q-61 -107 -133.5 -164
t-167.5 -57z" />
    <glyph glyph-name="abreve" unicode="&#x103;" horiz-adv-x="804" 
d="M446 12l50 293l-299 -317h-97q-22 93 -22 223q0 156 32 308.5t91 242.5q29 42 52 70t55.5 56t70.5 42t82 14q95 0 203 -61l84 63h32l-143 -835l12 -9l152 103l14 -29l-237 -192zM256 156l16 -4l236 219l67 397q-98 69 -196 84q-48 -82 -81.5 -243t-41.5 -322
q-2 -16 -2 -68q0 -49 2 -63zM528 1096q-132 0 -149 204l123 19q5 -99 67 -145q71 8 123 50t82 99l35 -10q-59 -106 -125 -161.5t-156 -55.5z" />
    <glyph glyph-name="Aogonek" unicode="&#x104;" horiz-adv-x="1046" 
d="M-20 0l4 31l106 45l615 1118h133l125 -1141l79 -20l-4 -33h-149q-144 -177 -160 -281l21 -12q26 -5 80.5 5.5t95.5 23.5l41 14l20 -86q-58 -35 -146.5 -62t-183.5 -30l-41 39q31 162 220 389h-232l2 31l133 22l-28 402h-340l-199 -377l170 -45l-6 -33h-356zM401 512h306
l-31 494h-10z" />
    <glyph glyph-name="aogonek" unicode="&#x105;" horiz-adv-x="804" 
d="M446 12l50 293l-299 -317h-97q-22 93 -22 223q0 156 32 308.5t91 242.5q29 42 52 70t55.5 56t70.5 42t82 14q95 0 203 -61l84 63h32l-143 -835l12 -9l152 103l14 -29l-186 -151q-159 -193 -178 -306l20 -12q26 -5 80.5 5.5t95.5 23.5l41 14l21 -86q-58 -35 -146.5 -62
t-183.5 -30l-41 39q31 170 209 381zM256 156l16 -4l236 219l67 397q-98 69 -196 84q-48 -82 -81.5 -243t-41.5 -322q-2 -16 -2 -68q0 -49 2 -63z" />
    <glyph glyph-name="Cacute" unicode="&#x106;" horiz-adv-x="997" 
d="M1057 829h-58l-53 281q-64 45 -155 45q-143 0 -250.5 -95.5t-161 -249.5t-53.5 -341q0 -196 80 -311t233 -115q89 0 165 59.5t107 133.5h45l-32 -173q-162 -79 -330 -79q-226 0 -360 117t-134 343q0 163 56 306t151 244t226.5 159.5t277.5 58.5q77 0 143 -13.5
t89.5 -23.5t64.5 -30zM995 1538l84 -94v-27l-379 -139l-10 14z" />
    <glyph glyph-name="cacute" unicode="&#x107;" horiz-adv-x="641" 
d="M553 1391l147 -43v-27l-284 -244l-10 13zM582 334l14 -43q-67 -81 -172 -169.5t-223 -137.5l-86 20q-35 109 -35 258q0 306 117 502q39 55 72.5 90.5t87.5 63.5t116 28q92 0 207 -49q-7 -85 -64 -166q-53 39 -75.5 54.5t-64 36t-93.5 36.5q-59 -90 -88 -234.5t-29 -273.5
q0 -124 19 -217l16 -6q57 22 122.5 72.5t158.5 134.5z" />
    <glyph glyph-name="Ccircumflex" unicode="&#x108;" horiz-adv-x="997" 
d="M1057 829h-58l-53 281q-64 45 -155 45q-143 0 -250.5 -95.5t-161 -249.5t-53.5 -341q0 -196 80 -311t233 -115q89 0 165 59.5t107 133.5h45l-32 -173q-162 -79 -330 -79q-226 0 -360 117t-134 343q0 163 56 306t151 244t226.5 159.5t277.5 58.5q77 0 143 -13.5
t89.5 -23.5t64.5 -30zM850 1530h63l150 -250l-43 -23l-176 152l-260 -147l-17 24z" />
    <glyph glyph-name="ccircumflex" unicode="&#x109;" horiz-adv-x="641" 
d="M512 1368h63l170 -272l-22 -25l-215 166l-256 -172l-16 20zM582 334l14 -43q-67 -81 -172 -169.5t-223 -137.5l-86 20q-35 109 -35 258q0 306 117 502q39 55 72.5 90.5t87.5 63.5t116 28q92 0 207 -49q-7 -85 -64 -166q-53 39 -75.5 54.5t-64 36t-93.5 36.5
q-59 -90 -88 -234.5t-29 -273.5q0 -124 19 -217l16 -6q57 22 122.5 72.5t158.5 134.5z" />
    <glyph glyph-name="Cdotaccent" unicode="&#x10a;" horiz-adv-x="997" 
d="M854 1288l-131 41q58 110 74 191l151 -19q-45 -149 -94 -213zM1057 829h-58l-53 281q-64 45 -155 45q-143 0 -250.5 -95.5t-161 -249.5t-53.5 -341q0 -196 80 -311t233 -115q89 0 165 59.5t107 133.5h45l-32 -173q-162 -79 -330 -79q-226 0 -360 117t-134 343
q0 163 56 306t151 244t226.5 159.5t277.5 58.5q77 0 143 -13.5t89.5 -23.5t64.5 -30z" />
    <glyph glyph-name="cdotaccent" unicode="&#x10b;" horiz-adv-x="641" 
d="M582 334l14 -43q-67 -81 -172 -169.5t-223 -137.5l-86 20q-35 109 -35 258q0 306 117 502q39 55 72.5 90.5t87.5 63.5t116 28q92 0 207 -49q-7 -85 -64 -166q-53 39 -75.5 54.5t-64 36t-93.5 36.5q-59 -90 -88 -234.5t-29 -273.5q0 -124 19 -217l16 -6q57 22 122.5 72.5
t158.5 134.5zM553 1149l-125 41q60 114 74 184l143 -18q-43 -143 -92 -207z" />
    <glyph glyph-name="Ccaron" unicode="&#x10c;" horiz-adv-x="997" 
d="M1057 829h-58l-53 281q-64 45 -155 45q-143 0 -250.5 -95.5t-161 -249.5t-53.5 -341q0 -196 80 -311t233 -115q89 0 165 59.5t107 133.5h45l-32 -173q-162 -79 -330 -79q-226 0 -360 117t-134 343q0 163 56 306t151 244t226.5 159.5t277.5 58.5q77 0 143 -13.5
t89.5 -23.5t64.5 -30zM834 1282h-62l-133 256l39 23l160 -158l284 153l15 -22z" />
    <glyph glyph-name="ccaron" unicode="&#x10d;" horiz-adv-x="641" 
d="M504 1075h-64l-145 283l24 22l191 -172l240 172l20 -22zM582 334l14 -43q-67 -81 -172 -169.5t-223 -137.5l-86 20q-35 109 -35 258q0 306 117 502q39 55 72.5 90.5t87.5 63.5t116 28q92 0 207 -49q-7 -85 -64 -166q-53 39 -75.5 54.5t-64 36t-93.5 36.5
q-59 -90 -88 -234.5t-29 -273.5q0 -124 19 -217l16 -6q57 22 122.5 72.5t158.5 134.5z" />
    <glyph glyph-name="Dcaron" unicode="&#x10e;" horiz-adv-x="1181" 
d="M805 1278h-62l-133 256l39 22l160 -157l285 153l14 -22zM45 0l2 31l160 28l184 1078l-153 24l6 33h473q91 0 165 -12t142 -41.5t114.5 -76.5t73.5 -121t27 -171q0 -220 -88 -396t-247 -276t-361 -100h-498zM674 1133h-86l-187 -1070h121q223 0 358.5 179.5t135.5 490.5
q0 400 -342 400z" />
    <glyph glyph-name="dcaron" unicode="&#x10f;" horiz-adv-x="952" 
d="M444 12l50 291l-297 -315h-97q-22 93 -22 223q0 156 32 308.5t91 242.5q29 42 52 70t55.5 56t70.5 42t82 14q59 0 135 -29l72 428h-146v31l312 66l32 -21l-227 -1298l12 -10l152 96l16 -29l-250 -194zM256 156l16 -4l232 215l67 403q-89 66 -192 82q-50 -85 -85 -242.5
t-38 -310.5v-143zM930 1083h-35l63 357h146l-158 -342z" />
    <glyph glyph-name="Dcroat" unicode="&#x110;" horiz-adv-x="1181" 
d="M178 575l12 68h115l86 494l-153 24l6 33h473q91 0 165 -12t142 -41.5t114.5 -76.5t73.5 -121t27 -171q0 -220 -88 -396t-247 -276t-361 -100h-498l2 31l160 28l88 516h-117zM674 1133h-86l-86 -490h184l-12 -68h-185l-88 -512h121q223 0 358.5 179.5t135.5 490.5
q0 400 -342 400z" />
    <glyph glyph-name="dcroat" unicode="&#x111;" horiz-adv-x="811" 
d="M444 12l50 291l-297 -315h-97q-22 93 -22 223q0 156 32 308.5t91 242.5q29 42 52 70t55.5 56t70.5 42t82 14q67 0 135 -29l31 185h-232l11 57h229l33 186h-146v31l312 66l32 -21l-47 -262h94l-10 -57h-94l-170 -979l12 -10l152 96l16 -29l-250 -194zM256 156l16 -4
l232 215l67 403q-89 66 -192 82q-50 -85 -85 -242.5t-38 -310.5v-143z" />
    <glyph glyph-name="Emacron" unicode="&#x112;" horiz-adv-x="978" 
d="M967 1374h-396l11 49h395zM45 0l2 31l162 28l180 1076l-151 26l6 33h807l-50 -287h-53l-43 228h-317l-86 -500l372 12l-12 -84l-368 12l-91 -514h322l170 246l41 -6l-86 -301h-805z" />
    <glyph glyph-name="emacron" unicode="&#x113;" horiz-adv-x="651" 
d="M571 332l17 -43q-67 -81 -171 -168.5t-222 -136.5l-82 20q-37 115 -37 258q0 318 119 500q61 88 121.5 136t144.5 48q89 0 221 -78l-2 -172q-68 -64 -185.5 -143t-230.5 -137q-2 -37 -2 -109q0 -112 14 -176l19 -4q135 71 276 205zM387 856q-96 -147 -119 -385
q147 86 277 213l-4 100q-68 49 -154 72zM696 1210h-381l11 52h381z" />
    <glyph glyph-name="Ebreve" unicode="&#x114;" horiz-adv-x="978" 
d="M692 1278q-62 0 -110.5 59.5t-55.5 149.5l121 18q11 -101 78 -149q78 10 139 53t92 98l37 -8q-61 -107 -133.5 -164t-167.5 -57zM45 0l2 31l162 28l180 1076l-151 26l6 33h807l-50 -287h-53l-43 228h-317l-86 -500l372 12l-12 -84l-368 12l-91 -514h322l170 246l41 -6
l-86 -301h-805z" />
    <glyph glyph-name="ebreve" unicode="&#x115;" horiz-adv-x="651" 
d="M571 332l17 -43q-67 -81 -171 -168.5t-222 -136.5l-82 20q-37 115 -37 258q0 318 119 500q61 88 121.5 136t144.5 48q89 0 221 -78l-2 -172q-68 -64 -185.5 -143t-230.5 -137q-2 -37 -2 -109q0 -112 14 -176l19 -4q135 71 276 205zM387 856q-96 -147 -119 -385
q147 86 277 213l-4 100q-68 49 -154 72zM451 1096q-133 0 -150 204l123 19q5 -98 68 -145q71 8 122.5 50t81.5 99l35 -10q-59 -106 -125 -161.5t-155 -55.5z" />
    <glyph glyph-name="Edotaccent" unicode="&#x116;" horiz-adv-x="978" 
d="M780 1286l-131 41q58 110 74 191l151 -19q-45 -149 -94 -213zM45 0l2 31l162 28l180 1076l-151 26l6 33h807l-50 -287h-53l-43 228h-317l-86 -500l372 12l-12 -84l-368 12l-91 -514h322l170 246l41 -6l-86 -301h-805z" />
    <glyph glyph-name="edotaccent" unicode="&#x117;" horiz-adv-x="651" 
d="M571 332l17 -43q-67 -81 -171 -168.5t-222 -136.5l-82 20q-37 115 -37 258q0 318 119 500q61 88 121.5 136t144.5 48q89 0 221 -78l-2 -172q-68 -64 -185.5 -143t-230.5 -137q-2 -37 -2 -109q0 -112 14 -176l19 -4q135 71 276 205zM387 856q-96 -147 -119 -385
q147 86 277 213l-4 100q-68 49 -154 72zM541 1149l-125 41q59 111 73 184l144 -18q-43 -143 -92 -207z" />
    <glyph glyph-name="Eogonek" unicode="&#x118;" horiz-adv-x="978" 
d="M45 0l2 31l162 28l180 1076l-151 26l6 33h807l-50 -287h-53l-43 228h-317l-86 -500l372 12l-12 -84l-368 12l-91 -514h322l170 246l41 -6l-86 -301h-102q-132 -176 -148 -281l21 -12q24 -5 74.5 5.5t88.5 23.5l39 14l23 -86q-57 -35 -141 -62t-173 -30l-38 39
q25 161 206 389h-655z" />
    <glyph glyph-name="eogonek" unicode="&#x119;" horiz-adv-x="651" 
d="M571 332l17 -43q-89 -107 -201 -193q-83 -97 -146.5 -200.5t-76.5 -176.5l20 -12q24 -5 75 5.5t89 23.5l39 14l23 -86q-57 -35 -141 -62t-173 -30l-39 39q17 99 82 210t150 210q-46 -26 -94 -47l-82 20q-37 115 -37 258q0 318 119 500q61 88 121.5 136t144.5 48
q89 0 221 -78l-2 -172q-68 -64 -185.5 -143t-230.5 -137q-2 -37 -2 -109q0 -112 14 -176l19 -4q135 71 276 205zM387 856q-96 -147 -119 -385q147 86 277 213l-4 100q-68 49 -154 72z" />
    <glyph glyph-name="Ecaron" unicode="&#x11a;" horiz-adv-x="978" 
d="M758 1282h-62l-133 256l39 23l160 -158l285 153l14 -22zM45 0l2 31l162 28l180 1076l-151 26l6 33h807l-50 -287h-53l-43 228h-317l-86 -500l372 12l-12 -84l-368 12l-91 -514h322l170 246l41 -6l-86 -301h-805z" />
    <glyph glyph-name="ecaron" unicode="&#x11b;" horiz-adv-x="651" 
d="M571 332l17 -43q-67 -81 -171 -168.5t-222 -136.5l-82 20q-37 115 -37 258q0 318 119 500q61 88 121.5 136t144.5 48q89 0 221 -78l-2 -172q-68 -64 -185.5 -143t-230.5 -137q-2 -37 -2 -109q0 -112 14 -176l19 -4q135 71 276 205zM387 856q-96 -147 -119 -385
q147 86 277 213l-4 100q-68 49 -154 72zM498 1075h-64l-145 283l24 22l191 -172l239 172l21 -22z" />
    <glyph glyph-name="Gcircumflex" unicode="&#x11c;" horiz-adv-x="1038" 
d="M594 -16q-222 0 -358 124t-136 343q0 161 55.5 303t150 242t224 158t273.5 58q76 0 142 -13t92 -24t65 -30l-53 -316h-52l-49 281q-65 45 -170 45q-102 0 -189.5 -60.5t-143.5 -157.5t-87.5 -215t-31.5 -237q0 -229 76.5 -335.5t228.5 -106.5q51 0 104 23l76 462l-158 37
l9 33h354l-92 -535q-162 -79 -330 -79zM850 1530h63l150 -250l-43 -23l-176 152l-260 -147l-17 24z" />
    <glyph glyph-name="gcircumflex" unicode="&#x11d;" horiz-adv-x="780" 
d="M236 -436q-168 0 -271 61l41 166q51 -31 70 -42.5t64 -34t82.5 -31.5t76.5 -9q33 0 70 9q42 46 104 452l29 178l-305 -325h-97q-22 93 -22 223q0 156 32 308.5t91 242.5q29 42 52 70t55.5 56t70.5 42t82 14q93 0 209 -65l94 67h20l-155 -938q-14 -82 -46 -158.5t-80 -142
t-117.5 -104.5t-149.5 -39zM514 379q34 185 66 383q-54 40 -98 61t-103 29q-49 -84 -84.5 -247.5t-38.5 -317.5q0 -10 -0.5 -40.5t-0.5 -54.5t1 -36l16 -6zM584 1368h63l170 -272l-22 -25l-215 166l-256 -172l-17 20z" />
    <glyph glyph-name="Gbreve" unicode="&#x11e;" horiz-adv-x="1038" 
d="M799 1276q-62 0 -110.5 59.5t-55.5 149.5l121 18q11 -102 77 -149q78 10 139.5 53.5t92.5 97.5l37 -8q-61 -107 -133.5 -164t-167.5 -57zM594 -16q-222 0 -358 124t-136 343q0 161 55.5 303t150 242t224 158t273.5 58q76 0 142 -13t92 -24t65 -30l-53 -316h-52l-49 281
q-65 45 -170 45q-102 0 -189.5 -60.5t-143.5 -157.5t-87.5 -215t-31.5 -237q0 -229 76.5 -335.5t228.5 -106.5q51 0 104 23l76 462l-158 37l9 33h354l-92 -535q-162 -79 -330 -79z" />
    <glyph glyph-name="gbreve" unicode="&#x11f;" horiz-adv-x="780" 
d="M236 -436q-168 0 -271 61l41 166q51 -31 70 -42.5t64 -34t82.5 -31.5t76.5 -9q33 0 70 9q42 46 104 452l29 178l-305 -325h-97q-22 93 -22 223q0 156 32 308.5t91 242.5q29 42 52 70t55.5 56t70.5 42t82 14q93 0 209 -65l94 67h20l-155 -938q-14 -82 -46 -158.5t-80 -142
t-117.5 -104.5t-149.5 -39zM514 379q34 185 66 383q-54 40 -98 61t-103 29q-49 -84 -84.5 -247.5t-38.5 -317.5q0 -10 -0.5 -40.5t-0.5 -54.5t1 -36l16 -6zM520 1096q-132 0 -149 204l123 19q5 -99 67 -145q71 8 123 50t82 99l35 -10q-59 -106 -125 -161.5t-156 -55.5z" />
    <glyph glyph-name="Gdotaccent" unicode="&#x120;" horiz-adv-x="1038" 
d="M850 1288l-131 41q58 110 74 191l151 -19q-45 -149 -94 -213zM594 -16q-222 0 -358 124t-136 343q0 161 55.5 303t150 242t224 158t273.5 58q76 0 142 -13t92 -24t65 -30l-53 -316h-52l-49 281q-65 45 -170 45q-102 0 -189.5 -60.5t-143.5 -157.5t-87.5 -215t-31.5 -237
q0 -229 76.5 -335.5t228.5 -106.5q51 0 104 23l76 462l-158 37l9 33h354l-92 -535q-162 -79 -330 -79z" />
    <glyph glyph-name="gdotaccent" unicode="&#x121;" horiz-adv-x="780" 
d="M236 -436q-168 0 -271 61l41 166q51 -31 70 -42.5t64 -34t82.5 -31.5t76.5 -9q33 0 70 9q42 46 104 452l29 178l-305 -325h-97q-22 93 -22 223q0 156 32 308.5t91 242.5q29 42 52 70t55.5 56t70.5 42t82 14q93 0 209 -65l94 67h20l-155 -938q-14 -82 -46 -158.5t-80 -142
t-117.5 -104.5t-149.5 -39zM514 379q34 185 66 383q-54 40 -98 61t-103 29q-49 -84 -84.5 -247.5t-38.5 -317.5q0 -10 -0.5 -40.5t-0.5 -54.5t1 -36l16 -6zM594 1149l-125 41q60 114 74 184l143 -18q-43 -143 -92 -207z" />
    <glyph glyph-name="Gcommaaccent" unicode="&#x122;" horiz-adv-x="1038" 
d="M668 -127l16 -18l-147 -361h-39l41 379h129zM594 -16q-222 0 -358 124t-136 343q0 161 55.5 303t150 242t224 158t273.5 58q76 0 142 -13t92 -24t65 -30l-53 -316h-52l-49 281q-65 45 -170 45q-102 0 -189.5 -60.5t-143.5 -157.5t-87.5 -215t-31.5 -237
q0 -229 76.5 -335.5t228.5 -106.5q51 0 104 23l76 462l-158 37l9 33h354l-92 -535q-162 -79 -330 -79z" />
    <glyph glyph-name="gcommaaccent" unicode="&#x123;" horiz-adv-x="780" 
d="M236 -436q-168 0 -271 61l41 166q51 -31 70 -42.5t64 -34t82.5 -31.5t76.5 -9q33 0 70 9q42 46 104 452l29 178l-305 -325h-97q-22 93 -22 223q0 156 32 308.5t91 242.5q29 42 52 70t55.5 56t70.5 42t82 14q93 0 209 -65l94 67h20l-155 -938q-14 -82 -46 -158.5t-80 -142
t-117.5 -104.5t-149.5 -39zM514 379q34 185 66 383q-54 40 -98 61t-103 29q-49 -84 -84.5 -247.5t-38.5 -317.5q0 -10 -0.5 -40.5t-0.5 -54.5t1 -36l16 -6zM496 1051l-17 18l148 367h39l-41 -385h-129z" />
    <glyph glyph-name="Hcircumflex" unicode="&#x124;" horiz-adv-x="1296" 
d="M45 0l2 31l162 24l182 1082l-151 24l6 33h506l-9 -31l-155 -24l-86 -500h463l84 498l-150 24l6 33h506l-6 -31l-160 -24l-182 -1084l149 -22l-4 -33h-503l4 31l155 24l90 529h-462l-89 -529l148 -22l-2 -33h-504zM897 1530h64l149 -250l-43 -23l-176 152l-260 -147
l-17 24z" />
    <glyph glyph-name="hcircumflex" unicode="&#x125;" horiz-adv-x="864" 
d="M55 0l228 1343h-136v31l291 66l39 -21l-125 -723q209 250 326 250q92 0 92 -209q0 -95 -22 -227l-72 -401l14 -9l162 111l18 -35l-243 -192l-142 28l80 494q21 147 21 242q0 35 -4 63l-21 10q-89 -49 -219 -190l-109 -631h-178zM410 1720h63l150 -250l-43 -22l-177 151
l-260 -147l-16 25z" />
    <glyph glyph-name="Hbar" unicode="&#x126;" horiz-adv-x="1296" 
d="M45 0l2 31l162 24l135 801h-102l10 51h100l39 230l-151 24l6 33h506l-9 -31l-155 -24l-41 -232h463l39 230l-150 24l6 33h506l-6 -31l-160 -24l-39 -232h97l-11 -51h-94l-135 -801l149 -22l-4 -33h-503l4 31l155 24l90 529h-462l-89 -529l148 -22l-2 -33h-504zM502 639
h463l36 217h-462z" />
    <glyph glyph-name="hbar" unicode="&#x127;" horiz-adv-x="864" 
d="M55 0l185 1098h-125l12 53h123l33 192h-136v31l291 66l39 -21l-47 -268h211l-10 -53h-209l-70 -402q209 250 326 250q92 0 92 -209q0 -95 -22 -227l-72 -401l14 -9l162 111l18 -35l-243 -192l-142 28l80 494q21 147 21 242q0 35 -4 63l-21 10q-84 -46 -219 -190
l-109 -631h-178z" />
    <glyph glyph-name="Itilde" unicode="&#x128;" horiz-adv-x="673" 
d="M61 0l5 31l157 26l185 1080l-152 24l8 33h506l-6 -31l-160 -26l-182 -1078l149 -26l-4 -33h-506zM803 1473l26 -25l-149 -137l-45 2l-277 61l-61 -53l-21 25l140 131l49 2l272 -64z" />
    <glyph glyph-name="itilde" unicode="&#x129;" horiz-adv-x="489" 
d="M227 -16l-137 28l141 836h-139v31l297 67l31 -20l-137 -815l14 -11l156 111l16 -35zM584 1284l26 -22l-155 -142l-43 2l-199 88l-102 -67l-19 24l164 138h47l203 -80z" />
    <glyph glyph-name="Imacron" unicode="&#x12a;" horiz-adv-x="673" 
d="M61 0l5 31l157 26l185 1080l-152 24l8 33h506l-6 -31l-160 -26l-182 -1078l149 -26l-4 -33h-506zM741 1374h-395l10 49h396z" />
    <glyph glyph-name="imacron" unicode="&#x12b;" horiz-adv-x="489" 
d="M227 -16l-137 28l141 836h-139v31l297 67l31 -20l-137 -815l14 -11l156 111l16 -35zM539 1210h-381l10 52h381z" />
    <glyph glyph-name="Ibreve" unicode="&#x12c;" horiz-adv-x="673" 
d="M61 0l5 31l157 26l185 1080l-152 24l8 33h506l-6 -31l-160 -26l-182 -1078l149 -26l-4 -33h-506zM487 1278q-62 0 -110 59.5t-55 149.5l120 18q11 -101 78 -149q78 10 139.5 53.5t92.5 97.5l36 -8q-61 -107 -133.5 -164t-167.5 -57z" />
    <glyph glyph-name="ibreve" unicode="&#x12d;" horiz-adv-x="489" 
d="M227 -16l-137 28l141 836h-139v31l297 67l31 -20l-137 -815l14 -11l156 111l16 -35zM311 1096q-132 0 -149 204l123 19q5 -99 67 -145q71 8 123 50t82 99l35 -10q-59 -106 -125 -161.5t-156 -55.5z" />
    <glyph glyph-name="Iogonek" unicode="&#x12e;" horiz-adv-x="673" 
d="M61 0l5 31l157 26l185 1080l-152 24l8 33h506l-6 -31l-160 -26l-180 -1065l8 -4q-1 -2 -8 -9l147 -26l-4 -33h-190q-142 -174 -158 -281l21 -12q26 -5 80.5 5.5t95.5 23.5l41 14l20 -86q-58 -35 -146.5 -62t-183.5 -30l-41 39q31 175 209 389h-254z" />
    <glyph glyph-name="iogonek" unicode="&#x12f;" horiz-adv-x="489" 
d="M342 -250l20 -86q-59 -35 -146.5 -62t-182.5 -30l-41 39q29 162 209 379l-111 22l141 836h-139v31l297 67l31 -20l-137 -815l14 -11l156 111l16 -35l-174 -139q-171 -205 -191 -318l21 -12q26 -5 80.5 5.5t95.5 23.5zM444 1128l-151 50q28 49 53 109t31 91l174 -24
q-51 -156 -107 -226z" />
    <glyph glyph-name="Idotaccent" unicode="&#x130;" horiz-adv-x="673" 
d="M61 0l5 31l157 26l185 1080l-152 24l8 33h506l-6 -31l-160 -26l-182 -1078l149 -26l-4 -33h-506zM575 1288l-131 41q58 110 74 191l152 -19q-44 -147 -95 -213z" />
    <glyph glyph-name="dotlessi" unicode="&#x131;" horiz-adv-x="489" 
d="M227 -16l-137 28l141 836h-139v31l297 67l31 -20l-137 -815l14 -11l156 111l16 -35z" />
    <glyph glyph-name="IJ" unicode="&#x132;" horiz-adv-x="1423" 
d="M61 0l5 31l157 26l185 1080l-152 24l8 33h506l-6 -31l-160 -26l-182 -1078l149 -26l-4 -33h-506zM936 -18q-141 0 -248 47l57 342h56l24 -299q1 0 14.5 -4.5t28 -9t32.5 -8t30 -3.5q125 0 164 244l143 844l-150 26l5 33h514l-4 -31l-166 -26l-140 -824
q-24 -145 -132 -238t-228 -93z" />
    <glyph glyph-name="ij" unicode="&#x133;" horiz-adv-x="940" 
d="M227 -16l-137 28l141 836h-139v31l297 67l31 -20l-137 -815l14 -11l156 111l16 -35zM416 1128l-131 50q62 131 75 200l150 -24q-49 -161 -94 -226zM446 -436l-18 12q40 71 77.5 175.5t51.5 195.5l152 901h-136v31l295 67l33 -20l-158 -928q-20 -123 -102 -235.5
t-195 -198.5zM899 1128l-131 50q69 138 78 200l149 -24q-49 -161 -96 -226z" />
    <glyph glyph-name="Jcircumflex" unicode="&#x134;" horiz-adv-x="745" 
d="M258 -18q-141 0 -248 47l58 342h55l24 -299q1 0 14.5 -4.5t28 -9t32.5 -8t30 -3.5q125 0 164 244l143 844l-149 26l4 33h514l-4 -31l-166 -26l-140 -824q-24 -145 -132 -238t-228 -93zM725 1530h63l150 -250l-43 -23l-176 152l-260 -147l-17 24z" />
    <glyph glyph-name="jcircumflex" unicode="&#x135;" horiz-adv-x="471" 
d="M-23 -436l-18 12q40 71 77.5 175.5t51.5 195.5l152 901h-136v31l295 67l33 -20l-158 -928q-20 -123 -102 -235.5t-195 -198.5zM369 1368h63l170 -272l-22 -25l-215 166l-256 -172l-17 20z" />
    <glyph glyph-name="Kcommaaccent" unicode="&#x136;" horiz-adv-x="1062" 
d="M649 -127l17 -18l-148 -361h-39l41 379h129zM45 0l2 31l162 22l182 1082l-151 26l8 33h506l-9 -31l-157 -26l-182 -1084l147 -20l-2 -33h-506zM786 0l-251 563l6 33l446 526l-123 43l6 29h375l-8 -35l-158 -37l-383 -438l297 -616l94 -35l-4 -33h-297z" />
    <glyph glyph-name="kcommaaccent" unicode="&#x137;" horiz-adv-x="839" 
d="M63 0l228 1343h-139v31l297 70l32 -23l-119 -692q74 74 150.5 132.5t126.5 80.5l135 -45q8 -44 8 -92q0 -98 -49.5 -169.5t-154.5 -135.5l90 -381l18 -6l148 98l18 -35l-258 -192l-102 28l-78 373l6 33q186 193 186 362q0 29 -2 43l-20 11q-88 -40 -234 -179l-110 -655
h-177zM414 -127l16 -18l-147 -361h-39l41 379h129z" />
    <glyph glyph-name="Lacute" unicode="&#x139;" horiz-adv-x="901" 
d="M702 1538l84 -94v-27l-378 -139l-11 14zM45 0l4 31l160 28l182 1078l-151 24l6 33h508l-6 -31l-158 -24l-184 -1078h296l189 308l45 -7l-100 -362h-791z" />
    <glyph glyph-name="lacute" unicode="&#x13a;" horiz-adv-x="440" 
d="M498 1731l84 -95v-26l-379 -140l-10 15zM66 12l221 1331h-137v31l294 70l33 -23l-223 -1312l16 -11l156 115l18 -35l-241 -194z" />
    <glyph glyph-name="Lcommaaccent" unicode="&#x13b;" horiz-adv-x="901" 
d="M582 -127l16 -18l-147 -361h-39l41 379h129zM45 0l4 31l160 28l182 1078l-151 24l6 33h508l-6 -31l-158 -24l-184 -1078h296l189 308l45 -7l-100 -362h-791z" />
    <glyph glyph-name="lcommaaccent" unicode="&#x13c;" horiz-adv-x="440" 
d="M252 -127l16 -18l-147 -361h-39l41 379h129zM66 12l221 1331h-137v31l294 70l33 -23l-223 -1312l16 -11l156 115l18 -35l-241 -194z" />
    <glyph glyph-name="Lcaron" unicode="&#x13d;" horiz-adv-x="901" 
d="M846 883h-35l63 356h146l-158 -342zM45 0l4 31l160 28l182 1078l-151 24l6 33h508l-6 -31l-158 -24l-184 -1078h296l189 308l45 -7l-100 -362h-791z" />
    <glyph glyph-name="lcaron" unicode="&#x13e;" horiz-adv-x="575" 
d="M555 1087h-35l64 357h145l-158 -342zM66 12l221 1331h-137v31l294 70l33 -23l-223 -1312l16 -11l156 115l18 -35l-241 -194z" />
    <glyph glyph-name="Ldot" unicode="&#x13f;" horiz-adv-x="901" 
d="M45 0l4 31l160 28l182 1078l-151 24l6 33h508l-6 -31l-158 -24l-184 -1078h296l189 308l45 -7l-100 -362h-791zM764 600q57 117 70 172q104 9 161 -20q-41 -138 -86 -197q-84 0 -145 45z" />
    <glyph glyph-name="ldot" unicode="&#x140;" horiz-adv-x="520" 
d="M541 559l-121 37q51 101 67 178l142 -18q-46 -141 -88 -197zM66 12l221 1331h-137v31l294 70l33 -23l-223 -1312l16 -11l156 115l18 -35l-241 -194z" />
    <glyph glyph-name="Lslash" unicode="&#x141;" horiz-adv-x="901" 
d="M45 0l4 31l160 28l63 379l-110 -57l-15 35l136 82l108 639l-151 24l6 33h508l-6 -31l-158 -24l-88 -508l145 88l33 -66l-191 -100l-83 -492h296l189 308l45 -7l-100 -362h-791z" />
    <glyph glyph-name="lslash" unicode="&#x142;" horiz-adv-x="440" 
d="M66 12l90 551l-117 -69l-14 32l141 99l121 718h-137v31l294 70l33 -23l-112 -661l118 82l33 -66l-166 -98l-96 -569l16 -11l156 115l18 -35l-241 -194z" />
    <glyph glyph-name="Nacute" unicode="&#x143;" horiz-adv-x="1193" 
d="M1012 1538l84 -94v-27l-379 -139l-10 14zM23 0l6 31l139 49l176 1024l-127 57l6 33h291l438 -842h6l134 758l-166 51l6 33h387l-6 -31l-142 -47l-194 -1134h-76l-493 974h-9l-149 -874l172 -49l-6 -33h-393z" />
    <glyph glyph-name="nacute" unicode="&#x144;" horiz-adv-x="884" 
d="M653 -16l-143 28l80 494q20 140 20 237q0 34 -4 62l-20 10q-88 -47 -213 -172l-109 -643h-176l143 848h-139v31l297 67l31 -20l-37 -217q200 237 322 237q45 0 67.5 -54.5t22.5 -150.5q0 -107 -23 -231l-70 -401l13 -9l164 111l16 -35zM674 1391l147 -43v-27l-284 -244
l-11 13z" />
    <glyph glyph-name="Ncommaaccent" unicode="&#x145;" horiz-adv-x="1193" 
d="M676 -127l16 -18l-147 -361h-39l41 379h129zM23 0l6 31l139 49l176 1024l-127 57l6 33h291l438 -842h6l134 758l-166 51l6 33h387l-6 -31l-142 -47l-194 -1134h-76l-493 974h-9l-149 -874l172 -49l-6 -33h-393z" />
    <glyph glyph-name="ncommaaccent" unicode="&#x146;" horiz-adv-x="884" 
d="M653 -16l-143 28l80 494q20 140 20 237q0 34 -4 62l-20 10q-88 -47 -213 -172l-109 -643h-176l143 848h-139v31l297 67l31 -20l-37 -217q200 237 322 237q45 0 67.5 -54.5t22.5 -150.5q0 -107 -23 -231l-70 -401l13 -9l164 111l16 -35zM446 -127l17 -18l-148 -361h-39
l41 379h129z" />
    <glyph glyph-name="Ncaron" unicode="&#x147;" horiz-adv-x="1193" 
d="M836 1282h-62l-133 256l39 23l160 -158l284 153l15 -22zM23 0l6 31l139 49l176 1024l-127 57l6 33h291l438 -842h6l134 758l-166 51l6 33h387l-6 -31l-142 -47l-194 -1134h-76l-493 974h-9l-149 -874l172 -49l-6 -33h-393z" />
    <glyph glyph-name="ncaron" unicode="&#x148;" horiz-adv-x="884" 
d="M653 -16l-143 28l80 494q20 140 20 237q0 34 -4 62l-20 10q-88 -47 -213 -172l-109 -643h-176l143 848h-139v31l297 67l31 -20l-37 -217q200 237 322 237q45 0 67.5 -54.5t22.5 -150.5q0 -107 -23 -231l-70 -401l13 -9l164 111l16 -35zM575 1075h-63l-145 283l24 22
l191 -172l239 172l21 -22z" />
    <glyph glyph-name="napostrophe" unicode="&#x149;" horiz-adv-x="884" 
d="M653 -16l-143 28l80 494q20 140 20 237q0 34 -4 62l-20 10q-88 -47 -213 -172l-109 -643h-176l143 848h-139v31l297 67l31 -20l-37 -217q200 237 322 237q45 0 67.5 -54.5t22.5 -150.5q0 -107 -23 -231l-70 -401l13 -9l164 111l16 -35zM524 1454q-54 -213 -256 -369
l-16 11q52 84 84 185.5t37 193.5q92 18 151 -21z" />
    <glyph glyph-name="Eng" unicode="&#x14a;" horiz-adv-x="1193" 
d="M23 0l6 31l139 49l176 1024l-127 57l6 33h291l438 -842h6l134 758l-166 51l6 33h387l-6 -31l-142 -47l-194 -1134h-2q-19 -142 -85 -248.5t-216 -192.5l-45 53q125 77 184.5 163.5t85.5 230.5l-491 968h-9l-149 -874l172 -49l-6 -33h-393z" />
    <glyph glyph-name="eng" unicode="&#x14b;" horiz-adv-x="884" 
d="M772 510l-84 -512q-20 -123 -102 -235.5t-195 -198.5l-18 12q40 68 76 172.5t51 198.5l90 559q20 140 20 237q0 34 -4 62l-20 10q-88 -47 -213 -172l-109 -643h-176l143 848h-139v31l297 67l31 -20l-37 -217q200 237 322 237q45 0 67.5 -54.5t22.5 -150.5
q0 -107 -23 -231z" />
    <glyph glyph-name="Omacron" unicode="&#x14c;" horiz-adv-x="1120" 
d="M985 1374h-395l10 49h395zM1178 743q-2 -108 -33.5 -217t-90 -206t-136 -172.5t-179 -119.5t-211.5 -44q-199 0 -313.5 125t-114.5 331q0 146 49.5 286t134 247.5t207.5 173t261 65.5q208 0 317 -123t109 -346zM555 47q92 0 170 65t127 170t76.5 232t27.5 256
q0 168 -58 274.5t-171 106.5q-93 0 -171.5 -66t-127.5 -171t-76.5 -230t-27.5 -250q0 -170 57 -278.5t174 -108.5z" />
    <glyph glyph-name="omacron" unicode="&#x14d;" horiz-adv-x="765" 
d="M313 -16q-110 0 -170.5 98t-60.5 244q0 115 29.5 225.5t82 198.5t133 142t175.5 54q117 0 183.5 -98t66.5 -262q0 -100 -33 -205.5t-89.5 -193t-140.5 -144.5t-176 -59zM375 47q88 62 136 212.5t50 299.5q0 204 -22 279q-57 32 -105 36q-54 -34 -93 -120.5t-55 -182.5
t-16 -190v-78q0 -169 21 -223q35 -30 84 -33zM715 1210h-381l10 52h381z" />
    <glyph glyph-name="Obreve" unicode="&#x14e;" horiz-adv-x="1120" 
d="M719 1276q-62 0 -110.5 59.5t-55.5 149.5l121 18q11 -101 78 -149q78 10 139 53t92 98l37 -8q-61 -107 -133.5 -164t-167.5 -57zM1178 743q-2 -108 -33.5 -217t-90 -206t-136 -172.5t-179 -119.5t-211.5 -44q-199 0 -313.5 125t-114.5 331q0 146 49.5 286t134 247.5
t207.5 173t261 65.5q208 0 317 -123t109 -346zM555 47q92 0 170 65t127 170t76.5 232t27.5 256q0 168 -58 274.5t-171 106.5q-93 0 -171.5 -66t-127.5 -171t-76.5 -230t-27.5 -250q0 -170 57 -278.5t174 -108.5z" />
    <glyph glyph-name="obreve" unicode="&#x14f;" horiz-adv-x="765" 
d="M313 -16q-110 0 -170.5 98t-60.5 244q0 115 29.5 225.5t82 198.5t133 142t175.5 54q117 0 183.5 -98t66.5 -262q0 -100 -33 -205.5t-89.5 -193t-140.5 -144.5t-176 -59zM375 47q88 62 136 212.5t50 299.5q0 204 -22 279q-57 32 -105 36q-54 -34 -93 -120.5t-55 -182.5
t-16 -190v-78q0 -169 21 -223q35 -30 84 -33zM496 1096q-133 0 -150 204l123 19q5 -98 68 -145q71 8 122.5 50t81.5 99l35 -10q-59 -106 -125 -161.5t-155 -55.5z" />
    <glyph glyph-name="Ohungarumlaut" unicode="&#x150;" horiz-adv-x="1120" 
d="M1178 743q-2 -108 -33.5 -217t-90 -206t-136 -172.5t-179 -119.5t-211.5 -44q-199 0 -313.5 125t-114.5 331q0 146 49.5 286t134 247.5t207.5 173t261 65.5q208 0 317 -123t109 -346zM555 47q92 0 170 65t127 170t76.5 232t27.5 256q0 168 -58 274.5t-171 106.5
q-93 0 -171.5 -66t-127.5 -171t-76.5 -230t-27.5 -250q0 -170 57 -278.5t174 -108.5zM764 1616l100 -70l6 -26l-329 -238l-15 14zM1120 1538l84 -94v-27l-381 -139l-10 18z" />
    <glyph glyph-name="ohungarumlaut" unicode="&#x151;" horiz-adv-x="765" 
d="M313 -16q-110 0 -170.5 98t-60.5 244q0 115 29.5 225.5t82 198.5t133 142t175.5 54q117 0 183.5 -98t66.5 -262q0 -100 -33 -205.5t-89.5 -193t-140.5 -144.5t-176 -59zM375 47q88 62 136 212.5t50 299.5q0 204 -22 279q-57 32 -105 36q-54 -34 -93 -120.5t-55 -182.5
t-16 -190v-78q0 -169 21 -223q35 -30 84 -33zM739 1384l148 -43v-26l-289 -228l-18 13zM446 1425l142 -36v-27l-219 -266l-21 10z" />
    <glyph glyph-name="OE" unicode="&#x152;" horiz-adv-x="1390" 
d="M1272 575l-357 7l-88 -521h316l153 252l50 -12l-89 -301h-587q-66 -16 -135 -16q-203 0 -319 120t-116 338q0 167 53.5 312.5t144.5 245t212.5 156t255.5 56.5q80 0 141 -18h553l-49 -287h-59l-37 228h-305l-84 -492l360 8zM549 43q36 0 78 20l182 1076q-29 16 -61 16
q-117 0 -214.5 -94.5t-153.5 -259.5t-56 -363q0 -395 225 -395z" />
    <glyph glyph-name="oe" unicode="&#x153;" horiz-adv-x="1056" 
d="M975 332l16 -43q-70 -83 -173 -169.5t-220 -135.5l-92 20q-16 49 -19 80q-96 -100 -194 -100q-101 0 -157 98.5t-56 245.5q0 92 18.5 181.5t55 168t87 138.5t118.5 95t145 35q106 0 172 -86q79 86 186 86q93 0 221 -80v-170q-67 -64 -186 -141.5t-240 -136.5
q0 -16 -1 -49t-1 -50q0 -105 15 -194l20 -10q34 16 78.5 48t69 52t79.5 67t58 50zM322 66q39 11 68 27t41 25.5t46 41.5q-6 46 -6 127q3 144 39 278t86 221q-59 62 -150 86q-83 -50 -131.5 -196.5t-50.5 -294.5q0 -88 15.5 -180t42.5 -135zM782 858q-37 -56 -74 -161.5
t-51 -215.5q144 79 277 209l2 86q-46 35 -78.5 52.5t-75.5 29.5z" />
    <glyph glyph-name="Racute" unicode="&#x154;" horiz-adv-x="1062" 
d="M45 0l4 31l158 28l182 1071l-151 31l8 33h504q140 0 217 -68t77 -192q0 -261 -260 -350l185 -504l100 -53l-4 -27h-289l-176 549h-115l-79 -490l149 -26l-4 -33h-506zM498 608q68 2 125 17.5t106 47.5t77 90t28 136q0 234 -170 234h-76zM891 1538l84 -94v-27l-379 -139
l-10 14z" />
    <glyph glyph-name="racute" unicode="&#x155;" horiz-adv-x="624" 
d="M264 0h-176l141 848h-137v31l283 67l45 -20l-33 -195q148 215 207 215q49 0 102 -76l-92 -178l-86 113q-60 -46 -143 -148zM567 1391l148 -43v-27l-285 -244l-10 13z" />
    <glyph glyph-name="Rcommaaccent" unicode="&#x156;" horiz-adv-x="1062" 
d="M45 0l4 31l158 28l182 1071l-151 31l8 33h504q140 0 217 -68t77 -192q0 -261 -260 -350l185 -504l100 -53l-4 -27h-289l-176 549h-115l-79 -490l149 -26l-4 -33h-506zM498 608q68 2 125 17.5t106 47.5t77 90t28 136q0 234 -170 234h-76zM643 -127l16 -18l-147 -361h-39
l41 379h129z" />
    <glyph glyph-name="rcommaaccent" unicode="&#x157;" horiz-adv-x="624" 
d="M264 0h-176l141 848h-137v31l283 67l45 -20l-33 -195q148 215 207 215q49 0 102 -76l-92 -178l-86 113q-60 -46 -143 -148zM217 -127l16 -18l-147 -361h-39l41 379h129z" />
    <glyph glyph-name="Rcaron" unicode="&#x158;" horiz-adv-x="1062" 
d="M45 0l4 31l158 28l182 1071l-151 31l8 33h504q140 0 217 -68t77 -192q0 -261 -260 -350l185 -504l100 -53l-4 -27h-289l-176 549h-115l-79 -490l149 -26l-4 -33h-506zM498 608q68 2 125 17.5t106 47.5t77 90t28 136q0 234 -170 234h-76zM713 1282h-62l-133 256l39 23
l160 -158l284 153l15 -22z" />
    <glyph glyph-name="rcaron" unicode="&#x159;" horiz-adv-x="624" 
d="M264 0h-176l141 848h-137v31l283 67l45 -20l-33 -195q148 215 207 215q49 0 102 -76l-92 -178l-86 113q-60 -46 -143 -148zM502 1075h-64l-145 283l24 22l191 -172l240 172l20 -22z" />
    <glyph glyph-name="Sacute" unicode="&#x15a;" horiz-adv-x="843" 
d="M360 -16q-152 0 -292 73l49 308h51l41 -248q51 -37 96.5 -50.5t106.5 -13.5q94 0 167.5 61t73.5 171q0 49 -24 88t-62 65t-84 50t-92 50.5t-84 58.5t-62 82t-24 114q0 176 124.5 297.5t289.5 121.5q89 0 164.5 -20.5t122.5 -52.5l-50 -295h-53l-37 250q-36 27 -69 36
t-88 9q-96 0 -168 -61.5t-72 -145.5q0 -50 25 -89.5t64.5 -66t87.5 -51t95.5 -52t87 -61t64.5 -85.5t25 -119q0 -102 -40.5 -185t-108 -134t-151 -78t-174.5 -27zM836 1538l84 -94v-27l-379 -139l-11 14z" />
    <glyph glyph-name="sacute" unicode="&#x15b;" horiz-adv-x="681" 
d="M592 1391l147 -43v-27l-284 -244l-11 13zM645 633h-39l-37 180q-68 27 -143 27q-61 0 -103 -29t-42 -74q0 -11 3 -22.5t10 -24t14 -22.5t20 -23l22 -22t27 -24t27.5 -22.5t30.5 -24t30 -24.5q40 -35 63.5 -58t51 -57t40.5 -68.5t13 -70.5q0 -70 -54 -138.5t-135 -110
t-157 -41.5q-141 0 -246 59l53 293h39l41 -215q79 -39 186 -39q53 0 87 27.5t34 72.5q0 13 -4 26.5t-9.5 24.5t-17.5 25.5t-20 23.5t-26 26t-27 24.5t-31.5 26.5t-30.5 26q-80 68 -124 129t-44 137q0 33 29.5 82.5t75.5 97t111.5 81.5t128.5 34q55 0 98 -14t100 -45z" />
    <glyph glyph-name="Scircumflex" unicode="&#x15c;" horiz-adv-x="843" 
d="M360 -16q-152 0 -292 73l49 308h51l41 -248q51 -37 96.5 -50.5t106.5 -13.5q94 0 167.5 61t73.5 171q0 49 -24 88t-62 65t-84 50t-92 50.5t-84 58.5t-62 82t-24 114q0 176 124.5 297.5t289.5 121.5q89 0 164.5 -20.5t122.5 -52.5l-50 -295h-53l-37 250q-36 27 -69 36
t-88 9q-96 0 -168 -61.5t-72 -145.5q0 -50 25 -89.5t64.5 -66t87.5 -51t95.5 -52t87 -61t64.5 -85.5t25 -119q0 -102 -40.5 -185t-108 -134t-151 -78t-174.5 -27zM696 1530h64l149 -250l-43 -23l-176 152l-260 -147l-16 24z" />
    <glyph glyph-name="scircumflex" unicode="&#x15d;" horiz-adv-x="681" 
d="M526 1368h64l170 -272l-23 -25l-215 166l-256 -172l-16 20zM645 633h-39l-37 180q-68 27 -143 27q-61 0 -103 -29t-42 -74q0 -11 3 -22.5t10 -24t14 -22.5t20 -23l22 -22t27 -24t27.5 -22.5t30.5 -24t30 -24.5q40 -35 63.5 -58t51 -57t40.5 -68.5t13 -70.5
q0 -70 -54 -138.5t-135 -110t-157 -41.5q-141 0 -246 59l53 293h39l41 -215q79 -39 186 -39q53 0 87 27.5t34 72.5q0 13 -4 26.5t-9.5 24.5t-17.5 25.5t-20 23.5t-26 26t-27 24.5t-31.5 26.5t-30.5 26q-80 68 -124 129t-44 137q0 33 29.5 82.5t75.5 97t111.5 81.5t128.5 34
q55 0 98 -14t100 -45z" />
    <glyph glyph-name="Scedilla" unicode="&#x15e;" horiz-adv-x="843" 
d="M322 -465q-36 0 -81.5 8t-70.5 21l33 104q96 -51 178 -51q47 0 90 21q-39 81 -180 178l4 22l119 148q-18 -2 -54 -2q-152 0 -292 73l49 308h51l41 -248q51 -37 96.5 -50.5t106.5 -13.5q94 0 167.5 61t73.5 171q0 49 -24 88t-62 65t-84 50t-92 50.5t-84 58.5t-62 82
t-24 114q0 176 124.5 297.5t289.5 121.5q89 0 164.5 -20.5t122.5 -52.5l-50 -295h-53l-37 250q-36 27 -69 36t-88 9q-96 0 -168 -61.5t-72 -145.5q0 -50 25 -89.5t64.5 -66t87.5 -51t95.5 -52t87 -61t64.5 -85.5t25 -119q0 -169 -102 -275.5t-257 -136.5l-76 -100
q33 -31 51.5 -49.5t42.5 -47t35 -55.5t11 -53q0 -51 -63.5 -103.5t-153.5 -52.5z" />
    <glyph glyph-name="scedilla" unicode="&#x15f;" horiz-adv-x="681" 
d="M211 -451q-36 0 -81.5 8t-70.5 21l33 105q98 -52 178 -52q46 0 90 21q-39 81 -180 178l4 23l107 131h-4q-141 0 -246 59l53 293h39l41 -215q79 -39 186 -39q53 0 87 27.5t34 72.5q0 13 -4 26.5t-9.5 24.5t-17.5 25.5t-20 23.5t-26 26t-27 24.5t-31.5 26.5t-30.5 26
q-80 68 -124 129t-44 137q0 33 29.5 82.5t75.5 97t111.5 81.5t128.5 34q55 0 98 -14t100 -45l-45 -254h-39l-37 180q-68 27 -143 27q-61 0 -103 -29t-42 -74q0 -11 3 -22.5t10 -24t14 -22.5t20 -23l22 -22t27 -24t27.5 -22.5t30.5 -24t30 -24.5q40 -35 63.5 -58t51 -57
t40.5 -68.5t13 -70.5q0 -92 -87.5 -175t-195.5 -107l-61 -82q44 -41 68.5 -66.5t47.5 -64.5t23 -74q0 -51 -63.5 -103.5t-153.5 -52.5z" />
    <glyph glyph-name="Scaron" unicode="&#x160;" horiz-adv-x="843" 
d="M360 -16q-152 0 -292 73l49 308h51l41 -248q51 -37 96.5 -50.5t106.5 -13.5q94 0 167.5 61t73.5 171q0 49 -24 88t-62 65t-84 50t-92 50.5t-84 58.5t-62 82t-24 114q0 176 124.5 297.5t289.5 121.5q89 0 164.5 -20.5t122.5 -52.5l-50 -295h-53l-37 250q-36 27 -69 36
t-88 9q-96 0 -168 -61.5t-72 -145.5q0 -50 25 -89.5t64.5 -66t87.5 -51t95.5 -52t87 -61t64.5 -85.5t25 -119q0 -102 -40.5 -185t-108 -134t-151 -78t-174.5 -27zM680 1282h-62l-133 256l39 23l160 -158l285 153l14 -22z" />
    <glyph glyph-name="scaron" unicode="&#x161;" horiz-adv-x="681" 
d="M537 1075h-64l-145 283l24 22l191 -172l239 172l21 -22zM645 633h-39l-37 180q-68 27 -143 27q-61 0 -103 -29t-42 -74q0 -11 3 -22.5t10 -24t14 -22.5t20 -23l22 -22t27 -24t27.5 -22.5t30.5 -24t30 -24.5q40 -35 63.5 -58t51 -57t40.5 -68.5t13 -70.5q0 -70 -54 -138.5
t-135 -110t-157 -41.5q-141 0 -246 59l53 293h39l41 -215q79 -39 186 -39q53 0 87 27.5t34 72.5q0 13 -4 26.5t-9.5 24.5t-17.5 25.5t-20 23.5t-26 26t-27 24.5t-31.5 26.5t-30.5 26q-80 68 -124 129t-44 137q0 33 29.5 82.5t75.5 97t111.5 81.5t128.5 34q55 0 98 -14
t100 -45z" />
    <glyph glyph-name="Tcommaaccent" unicode="&#x162;" horiz-adv-x="905" 
d="M473 -127l16 -18l-147 -361h-39l41 379h129zM176 0l6 31l160 37l180 1065h-213l-141 -293h-49l61 354h910l-64 -354h-45l-55 293h-205l-180 -1065l149 -35l-6 -33h-508z" />
    <glyph glyph-name="tcommaaccent" unicode="&#x163;" horiz-adv-x="593" 
d="M100 854l6 39l134 20l145 258h66l-41 -253h227l-8 -64h-230l-114 -731l14 -10q53 27 132.5 81t119.5 89l18 -33q-49 -59 -158 -147.5t-192 -118.5l-123 32l127 838h-123zM272 -127l17 -18l-148 -361h-39l41 379h129z" />
    <glyph glyph-name="Tcaron" unicode="&#x164;" horiz-adv-x="905" 
d="M668 1282h-62l-133 256l39 23l160 -158l284 153l15 -22zM176 0l6 31l160 37l180 1065h-213l-141 -293h-49l61 354h910l-64 -354h-45l-55 293h-205l-180 -1065l149 -35l-6 -33h-508z" />
    <glyph glyph-name="tcaron" unicode="&#x165;" horiz-adv-x="593" 
d="M100 854l6 39l134 20l145 258h66l-41 -253h227l-8 -64h-230l-114 -731l14 -10q53 27 132.5 81t119.5 89l18 -33q-49 -59 -158 -147.5t-192 -118.5l-123 32l127 838h-123zM596 1087h-35l64 357h145l-158 -342z" />
    <glyph glyph-name="Tbar" unicode="&#x166;" horiz-adv-x="905" 
d="M176 0l6 31l160 37l88 520h-180l12 57h176l84 488h-213l-141 -293h-49l61 354h910l-64 -354h-45l-55 293h-205l-84 -488h180l-12 -57h-176l-88 -520l149 -35l-6 -33h-508z" />
    <glyph glyph-name="tbar" unicode="&#x167;" horiz-adv-x="593" 
d="M100 854l6 39l134 20l145 258h66l-41 -253h227l-8 -64h-230l-43 -270h203l-10 -54h-201l-63 -407l14 -10q53 27 132.5 81t119.5 89l18 -33q-49 -59 -158 -147.5t-192 -118.5l-123 32l78 514h-96l10 54h94l41 270h-123z" />
    <glyph glyph-name="Utilde" unicode="&#x168;" horiz-adv-x="1130" 
d="M1055 1473l26 -25l-149 -137l-45 2l-277 61l-61 -53l-21 25l140 131l49 2l272 -64zM545 -18q-85 0 -153 19.5t-118.5 60t-76 109t-21.5 161.5q0 12 4.5 45.5t16.5 105.5t25.5 149.5t38.5 224t48 282.5l-141 22l8 33h492l-4 -31l-150 -24q-129 -759 -129 -772
q-17 -316 207 -316q122 0 228 113t138 305l107 643l-170 49l6 33h399l-6 -31l-143 -49l-113 -651q-18 -103 -55 -185.5t-85 -137t-107.5 -91t-120.5 -52t-125 -15.5z" />
    <glyph glyph-name="utilde" unicode="&#x169;" horiz-adv-x="870" 
d="M639 -16l-139 28l32 211q-92 -106 -181 -172.5t-156 -66.5q-84 0 -84 184q0 108 24 246l68 434h-135v31l301 67l30 -20l-82 -502q-31 -194 -24 -305l22 -10q108 53 230 188l88 551h-117v31l283 67l30 -20l-135 -813l17 -15l151 111l19 -33zM819 1284l27 -22l-156 -142
l-43 2l-198 88l-103 -67l-18 24l164 138h47l202 -80z" />
    <glyph glyph-name="Umacron" unicode="&#x16a;" horiz-adv-x="1130" 
d="M1006 1374h-396l11 49h395zM545 -18q-85 0 -153 19.5t-118.5 60t-76 109t-21.5 161.5q0 12 4.5 45.5t16.5 105.5t25.5 149.5t38.5 224t48 282.5l-141 22l8 33h492l-4 -31l-150 -24q-129 -759 -129 -772q-17 -316 207 -316q122 0 228 113t138 305l107 643l-170 49l6 33
h399l-6 -31l-143 -49l-113 -651q-18 -103 -55 -185.5t-85 -137t-107.5 -91t-120.5 -52t-125 -15.5z" />
    <glyph glyph-name="umacron" unicode="&#x16b;" horiz-adv-x="870" 
d="M639 -16l-139 28l32 211q-92 -106 -181 -172.5t-156 -66.5q-84 0 -84 184q0 108 24 246l68 434h-135v31l301 67l30 -20l-82 -502q-31 -194 -24 -305l22 -10q108 53 230 188l88 551h-117v31l283 67l30 -20l-135 -813l17 -15l151 111l19 -33zM764 1210h-381l10 52h381z" />
    <glyph glyph-name="Ubreve" unicode="&#x16c;" horiz-adv-x="1130" 
d="M743 1278q-62 0 -110 59.5t-55 149.5l120 18q11 -101 78 -149q78 10 139.5 53.5t92.5 97.5l36 -8q-61 -107 -133.5 -164t-167.5 -57zM545 -18q-85 0 -153 19.5t-118.5 60t-76 109t-21.5 161.5q0 12 4.5 45.5t16.5 105.5t25.5 149.5t38.5 224t48 282.5l-141 22l8 33h492
l-4 -31l-150 -24q-129 -759 -129 -772q-17 -316 207 -316q122 0 228 113t138 305l107 643l-170 49l6 33h399l-6 -31l-143 -49l-113 -651q-18 -103 -55 -185.5t-85 -137t-107.5 -91t-120.5 -52t-125 -15.5z" />
    <glyph glyph-name="ubreve" unicode="&#x16d;" horiz-adv-x="870" 
d="M639 -16l-139 28l32 211q-92 -106 -181 -172.5t-156 -66.5q-84 0 -84 184q0 108 24 246l68 434h-135v31l301 67l30 -20l-82 -502q-31 -194 -24 -305l22 -10q108 53 230 188l88 551h-117v31l283 67l30 -20l-135 -813l17 -15l151 111l19 -33zM520 1096q-132 0 -149 204
l123 19q5 -99 67 -145q71 8 123 50t82 99l35 -10q-59 -106 -125 -161.5t-156 -55.5z" />
    <glyph glyph-name="Uring" unicode="&#x16e;" horiz-adv-x="1130" 
d="M545 -18q-85 0 -153 19.5t-118.5 60t-76 109t-21.5 161.5q0 12 4.5 45.5t16.5 105.5t25.5 149.5t38.5 224t48 282.5l-141 22l8 33h492l-4 -31l-150 -24q-129 -759 -129 -772q-17 -316 207 -316q122 0 228 113t138 305l107 643l-170 49l6 33h399l-6 -31l-143 -49
l-113 -651q-18 -103 -55 -185.5t-85 -137t-107.5 -91t-120.5 -52t-125 -15.5zM817 1325q54 0 92.5 37t38.5 88q0 50 -28 76t-76 26q-52 0 -88.5 -33t-36.5 -87q0 -53 29 -80t69 -27zM815 1286q-60 0 -99.5 38t-39.5 106t53.5 114.5t120.5 46.5q60 0 100.5 -36.5t40.5 -102.5
q0 -68 -55 -117t-121 -49z" />
    <glyph glyph-name="uring" unicode="&#x16f;" horiz-adv-x="870" 
d="M639 -16l-139 28l32 211q-92 -106 -181 -172.5t-156 -66.5q-84 0 -84 184q0 108 24 246l68 434h-135v31l301 67l30 -20l-82 -502q-31 -194 -24 -305l22 -10q108 53 230 188l88 551h-117v31l283 67l30 -20l-135 -813l17 -15l151 111l19 -33zM567 1077q-61 0 -101 38
t-40 106t54.5 114.5t121.5 46.5q60 0 99.5 -36.5t39.5 -102.5q0 -68 -55 -117t-119 -49zM569 1116q54 0 92.5 37.5t38.5 89.5q0 49 -28 74.5t-76 25.5q-52 0 -89.5 -33t-37.5 -87q0 -53 29.5 -80t70.5 -27z" />
    <glyph glyph-name="Uhungarumlaut" unicode="&#x170;" horiz-adv-x="1130" 
d="M545 -18q-85 0 -153 19.5t-118.5 60t-76 109t-21.5 161.5q0 12 4.5 45.5t16.5 105.5t25.5 149.5t38.5 224t48 282.5l-141 22l8 33h492l-4 -31l-150 -24q-129 -759 -129 -772q-17 -316 207 -316q122 0 228 113t138 305l107 643l-170 49l6 33h399l-6 -31l-143 -49
l-113 -651q-18 -103 -55 -185.5t-85 -137t-107.5 -91t-120.5 -52t-125 -15.5zM772 1616l100 -70l7 -26l-330 -238l-14 14zM1128 1538l84 -94v-27l-381 -139l-10 18z" />
    <glyph glyph-name="uhungarumlaut" unicode="&#x171;" horiz-adv-x="870" 
d="M639 -16l-139 28l32 211q-92 -106 -181 -172.5t-156 -66.5q-84 0 -84 184q0 108 24 246l68 434h-135v31l301 67l30 -20l-82 -502q-31 -194 -24 -305l22 -10q108 53 230 188l88 551h-117v31l283 67l30 -20l-135 -813l17 -15l151 111l19 -33zM764 1384l147 -43v-26
l-288 -228l-19 13zM471 1425l141 -36v-27l-219 -266l-20 10z" />
    <glyph glyph-name="Uogonek" unicode="&#x172;" horiz-adv-x="1130" 
d="M545 -18q-85 0 -153 19.5t-118.5 60t-76 109t-21.5 161.5q0 12 4.5 45.5t16.5 105.5t25.5 149.5t38.5 224t48 282.5l-141 22l8 33h492l-4 -31l-150 -24q-129 -759 -129 -772q-17 -316 207 -316q122 0 228 113t138 305l107 643l-170 49l6 33h399l-6 -31l-143 -49
l-113 -651q-32 -185 -120 -297.5t-209 -155.5q-144 -180 -164 -291l20 -12q26 -5 80 5.5t95 23.5l40 14l23 -86q-58 -35 -146.5 -62t-183.5 -30l-41 39q29 162 211 381q-55 -10 -98 -10z" />
    <glyph glyph-name="uogonek" unicode="&#x173;" horiz-adv-x="870" 
d="M195 -16q-84 0 -84 184q0 108 24 246l68 434h-135v31l301 67l30 -20l-82 -502q-31 -194 -24 -305l22 -10q108 53 230 188l88 551h-117v31l283 67l30 -20l-135 -813l17 -15l151 111l19 -33l-176 -141q-167 -206 -187 -316l21 -12q26 -5 80 5.5t95 23.5l40 14l22 -86
q-58 -35 -146.5 -62t-183.5 -30l-40 39q30 164 208 379l-114 22l32 211q-92 -106 -181 -172.5t-156 -66.5z" />
    <glyph glyph-name="Wcircumflex" unicode="&#x174;" horiz-adv-x="1542" 
d="M322 0l-109 1147l-84 18l4 29h436l-4 -27l-139 -26l61 -918h9l422 971h141l100 -975h10l398 895l-152 51l6 29h344l-2 -27l-112 -47l-512 -1120h-148l-100 936h-8l-416 -936h-145zM1034 1530h64l149 -250l-43 -23l-176 152l-260 -147l-16 24z" />
    <glyph glyph-name="wcircumflex" unicode="&#x175;" horiz-adv-x="1163" 
d="M645 0q-41 158 -65 420l-189 -420h-174q-39 151 -61.5 364.5t-22.5 415.5v68h-92v31l270 67l33 -6q-14 -123 -14 -289q0 -274 41 -514h18l182 412q-8 128 -8 285v79l215 29q-18 -144 -18 -317q0 -260 41 -488h16l215 506l4 285h193v-60l-414 -868h-170zM721 1368h63
l170 -272l-22 -25l-215 166l-256 -172l-17 20z" />
    <glyph glyph-name="Ycircumflex" unicode="&#x176;" horiz-adv-x="937" 
d="M193 0l4 31l161 26l74 424l-221 664l-66 16l9 33h407l-4 -31l-131 -28l174 -566h6l322 545l-154 47l6 33h355l-7 -31l-104 -33l-385 -624l-76 -449l156 -24l-4 -33h-522zM733 1530h64l149 -250l-43 -23l-176 152l-260 -147l-16 24z" />
    <glyph glyph-name="ycircumflex" unicode="&#x177;" horiz-adv-x="739" 
d="M813 928l-2 -60l-350 -712l-248 -580h-145l-2 35l243 389h-88q-40 155 -64 370.5t-24 415.5v62h-96v31l276 67l31 -8q-16 -107 -16 -262q0 -277 49 -539h16l225 506l3 285h192zM522 1368h64l170 -272l-23 -25l-215 166l-256 -172l-16 20z" />
    <glyph glyph-name="Ydieresis" unicode="&#x178;" horiz-adv-x="937" 
d="M193 0l4 31l161 26l74 424l-221 664l-66 16l9 33h407l-4 -31l-131 -28l174 -566h6l322 545l-154 47l6 33h355l-7 -31l-104 -33l-385 -624l-76 -449l156 -24l-4 -33h-522zM551 1280l-121 43q57 97 72 182l141 -20q-49 -145 -92 -205zM891 1280l-121 43q57 97 72 182
l141 -20q-49 -145 -92 -205z" />
    <glyph glyph-name="Zacute" unicode="&#x179;" horiz-adv-x="888" 
d="M37 0l-8 68l753 1065h-405l-135 -293h-47l61 354h754l6 -51l-783 -1082h449l149 291l50 -6l-74 -346h-770zM831 1538l84 -94v-27l-378 -139l-11 14z" />
    <glyph glyph-name="zacute" unicode="&#x17a;" horiz-adv-x="700" 
d="M549 1391l147 -43v-27l-284 -244l-11 13zM72 -4l-43 4l-13 35l525 723l-9 8q-64 -12 -153 -12q-97 0 -186 18l-70 -119l-37 9l47 260l45 24q240 -24 309 -24q128 0 201 24l45 -49l-502 -694l5 -17l344 -22l71 153l43 -8l-78 -307l-47 -18l-456 65z" />
    <glyph glyph-name="Zdotaccent" unicode="&#x17b;" horiz-adv-x="888" 
d="M700 1286l-131 41q58 110 74 191l152 -19q-44 -147 -95 -213zM37 0l-8 68l753 1065h-405l-135 -293h-47l61 354h754l6 -51l-783 -1082h449l149 291l50 -6l-74 -346h-770z" />
    <glyph glyph-name="zdotaccent" unicode="&#x17c;" horiz-adv-x="700" 
d="M72 -4l-43 4l-13 35l525 723l-9 8q-64 -12 -153 -12q-97 0 -186 18l-70 -119l-37 9l47 260l45 24q240 -24 309 -24q128 0 201 24l45 -49l-502 -694l5 -17l344 -22l71 153l43 -8l-78 -307l-47 -18l-456 65zM496 1149l-125 41q59 111 73 184l144 -18q-43 -143 -92 -207z
" />
    <glyph glyph-name="Zcaron" unicode="&#x17d;" horiz-adv-x="888" 
d="M657 1282h-61l-133 256l39 23l160 -158l284 153l15 -22zM37 0l-8 68l753 1065h-405l-135 -293h-47l61 354h754l6 -51l-783 -1082h449l149 291l50 -6l-74 -346h-770z" />
    <glyph glyph-name="zcaron" unicode="&#x17e;" horiz-adv-x="700" 
d="M479 1075h-63l-146 283l25 22l190 -172l240 172l20 -22zM72 -4l-43 4l-13 35l525 723l-9 8q-64 -12 -153 -12q-97 0 -186 18l-70 -119l-37 9l47 260l45 24q240 -24 309 -24q128 0 201 24l45 -49l-502 -694l5 -17l344 -22l71 153l43 -8l-78 -307l-47 -18l-456 65z" />
    <glyph glyph-name="uni018F" unicode="&#x18f;" horiz-adv-x="1058" 
d="M475 -16q-190 0 -282.5 103.5t-92.5 291.5q0 90 19 188l8 60h756q6 58 6 118q0 181 -57.5 275t-184.5 94q-164 0 -354 -86l-21 49q216 135 416 135q205 0 316.5 -117t111.5 -327q0 -123 -27.5 -239t-82.5 -214.5t-131 -172.5t-179 -116t-221 -42zM504 43q96 0 175 73.5
t128 189.5t70 261h-535q-18 -140 -18 -213q0 -59 4 -102.5t15 -85t31 -67t52.5 -41t77.5 -15.5z" />
    <glyph glyph-name="florin" unicode="&#x192;" horiz-adv-x="694" 
d="M113 578l10 65h168l28 184q28 192 140.5 297t253.5 105q47 0 94 -15l-41 -176l-160 107q-80 -83 -112 -318l-29 -184h229l-10 -65h-229l-68 -455q-17 -106 -63.5 -203.5t-118 -162t-148.5 -64.5q-92 0 -157 33l45 139q18 -10 46.5 -27t42.5 -24.5t39 -17.5t56 -17
q11 12 21 40t22.5 88.5t18.5 95l22 126.5l68 449h-168z" />
    <glyph glyph-name="Ohorn" unicode="&#x1a0;" horiz-adv-x="1120" 
d="M1178 743q-2 -108 -33.5 -217t-90 -206t-136 -172.5t-179 -119.5t-211.5 -44q-199 0 -313.5 125t-114.5 331q0 146 49.5 286t134 247.5t207.5 173t261 65.5q204 0 317 -125q61 39 61 138q0 28 -14 110l141 27q7 -35 7 -64q0 -94 -37 -150t-131 -95q82 -116 82 -310z
M555 47q92 0 170 65t127 170t76.5 232t27.5 256q0 168 -58 274.5t-171 106.5q-93 0 -171.5 -66t-127.5 -171t-76.5 -230t-27.5 -250q0 -170 57 -278.5t174 -108.5z" />
    <glyph glyph-name="ohorn" unicode="&#x1a1;" horiz-adv-x="765" 
d="M313 -16q-110 0 -170.5 98t-60.5 244q0 115 29.5 225.5t82 198.5t133 142t175.5 54q104 0 174 -86q47 34 47 103q0 43 -31 143l131 27q6 -30 6 -64q0 -97 -26 -152.5t-105 -91.5q54 -94 54 -239q0 -100 -33 -205.5t-89.5 -193t-140.5 -144.5t-176 -59zM375 47
q88 62 136 212.5t50 299.5q0 204 -22 279q-57 32 -105 36q-54 -34 -93 -120.5t-55 -182.5t-16 -190v-78q0 -169 21 -223q35 -30 84 -33z" />
    <glyph glyph-name="Uhorn" unicode="&#x1af;" horiz-adv-x="1130" 
d="M1149 1116l-111 -653q-18 -103 -55 -185.5t-85 -137t-107.5 -91t-120.5 -52t-125 -15.5q-85 0 -153 19.5t-118.5 60t-76 109t-21.5 161.5q0 12 4.5 45.5t16.5 105.5t25.5 149.5t38.5 224t48 282.5l-141 22l8 33h492l-4 -31l-150 -24q-129 -759 -129 -772
q-17 -316 207 -316q122 0 228 113t138 305l107 643l-205 49l4 33h353q24 30 24 72q0 61 -45 133l131 26q8 -50 8 -73q0 -82 -38.5 -140t-147.5 -96z" />
    <glyph glyph-name="uhorn" unicode="&#x1b0;" horiz-adv-x="870" 
d="M821 872l-127 -759l17 -15l151 111l19 -33l-242 -192l-139 28l32 211q-92 -106 -181 -172.5t-156 -66.5q-84 0 -84 184q0 108 24 246l68 434h-135v31l301 67l30 -20l-82 -502q-31 -194 -24 -305l22 -10q108 53 230 188l88 551h-144v31l299 63q64 16 88.5 40.5t24.5 57.5
q0 38 -45 105l117 31q6 -34 6 -72q0 -82 -36 -137t-122 -95z" />
    <glyph glyph-name="uni01C4" unicode="&#x1c4;" horiz-adv-x="2070" 
d="M1839 1282h-61l-133 256l38 23l160 -158l285 153l14 -22zM1219 0l-9 68l754 1065h-405l-136 -293h-47l62 354h753l7 -51l-783 -1082h449l149 291l49 -6l-73 -346h-770zM45 0l2 31l160 28l184 1078l-153 24l6 33h473q91 0 165 -12t142 -41.5t114.5 -76.5t73.5 -121
t27 -171q0 -220 -88 -396t-247 -276t-361 -100h-498zM674 1133h-86l-187 -1070h121q223 0 358.5 179.5t135.5 490.5q0 400 -342 400z" />
    <glyph glyph-name="uni01C5" unicode="&#x1c5;" horiz-adv-x="1894" 
d="M1659 1075h-64l-145 283l25 22l190 -172l240 172l20 -22zM1264 -4l-43 4l-13 35l525 723l-9 8q-64 -12 -153 -12q-99 0 -187 18l-69 -119l-37 9l47 260l45 24q240 -24 309 -24q128 0 201 24l45 -49l-502 -694l4 -17l345 -22l71 153l43 -8l-78 -307l-47 -18l-456 65zM45 0
l2 31l160 28l184 1078l-153 24l6 33h473q91 0 165 -12t142 -41.5t114.5 -76.5t73.5 -121t27 -171q0 -220 -88 -396t-247 -276t-361 -100h-498zM674 1133h-86l-187 -1070h121q223 0 358.5 179.5t135.5 490.5q0 400 -342 400z" />
    <glyph glyph-name="uni01C6" unicode="&#x1c6;" horiz-adv-x="1511" 
d="M444 12l50 291l-297 -315h-97q-22 93 -22 223q0 156 32 308.5t91 242.5q29 42 52 70t55.5 56t70.5 42t82 14q59 0 135 -29l72 428h-146v31l312 66l32 -21l-227 -1298l12 -10l152 96l16 -29l-250 -194zM883 -4l-43 4l-13 35l525 723l-9 8q-64 -12 -153 -12q-98 0 -186 18
l-70 -119l-37 9l47 260l45 24q240 -24 309 -24q128 0 201 24l45 -49l-502 -694l5 -17l344 -22l71 153l43 -8l-78 -307l-47 -18l-456 65zM256 156l16 -4l232 215l67 403q-89 66 -192 82q-50 -85 -85 -242.5t-38 -310.5v-143zM1288 1075h-63l-146 283l25 22l190 -172l240 172
l20 -22z" />
    <glyph glyph-name="uni01C7" unicode="&#x1c7;" horiz-adv-x="1646" 
d="M1159 -18q-141 0 -248 47l58 342h55l25 -299q1 0 14.5 -4.5t27.5 -9t32 -8t30 -3.5q125 0 164 244l143 844l-149 26l4 33h514l-4 -31l-166 -26l-139 -824q-24 -145 -132.5 -238t-228.5 -93zM45 0l4 31l160 28l182 1078l-151 24l6 33h508l-6 -31l-158 -24l-184 -1078h296
l189 308l45 -7l-100 -362h-791z" />
    <glyph glyph-name="uni01C8" unicode="&#x1c8;" horiz-adv-x="1372" 
d="M879 -436l-19 12q40 71 77.5 175.5t51.5 195.5l152 901h-135v31l294 67l33 -20l-157 -928q-20 -123 -102 -235.5t-195 -198.5zM1331 1128l-131 50q69 138 78 200l149 -24q-49 -161 -96 -226zM45 0l4 31l160 28l182 1078l-151 24l6 33h508l-6 -31l-158 -24l-184 -1078h296
l189 308l45 -7l-100 -362h-791z" />
    <glyph glyph-name="uni01C9" unicode="&#x1c9;" horiz-adv-x="909" 
d="M416 -436l-19 12q40 71 77.5 175.5t51.5 195.5l152 901h-135v31l295 67l32 -20l-157 -928q-20 -123 -102 -235.5t-195 -198.5zM868 1128l-131 50q69 138 78 200l150 -24q-48 -159 -97 -226zM66 12l221 1331h-137v31l294 70l33 -23l-223 -1312l16 -11l156 115l18 -35
l-241 -194z" />
    <glyph glyph-name="uni01CA" unicode="&#x1ca;" horiz-adv-x="1921" 
d="M1434 -18q-141 0 -248 47l57 342h55l25 -299q1 0 14.5 -4.5t27.5 -9t32 -8t30 -3.5q125 0 164 244l144 844l-150 26l4 33h514l-4 -31l-166 -26l-139 -824q-24 -145 -132 -238t-228 -93zM23 0l6 31l139 49l176 1024l-127 57l6 33h291l438 -842h6l134 758l-166 51l6 33h387
l-6 -31l-142 -47l-194 -1134h-76l-493 974h-9l-149 -874l172 -49l-6 -33h-393z" />
    <glyph glyph-name="uni01CB" unicode="&#x1cb;" horiz-adv-x="1662" 
d="M1169 -436l-18 12q40 71 77.5 175.5t51.5 195.5l152 901h-136v31l295 67l33 -20l-158 -928q-20 -123 -102 -235.5t-195 -198.5zM1622 1128l-131 50q69 138 78 200l149 -24q-49 -161 -96 -226zM23 0l6 31l139 49l176 1024l-127 57l6 33h291l438 -842h6l134 758l-166 51
l6 33h387l-6 -31l-142 -47l-194 -1134h-76l-493 974h-9l-149 -874l172 -49l-6 -33h-393z" />
    <glyph glyph-name="uni01CC" unicode="&#x1cc;" horiz-adv-x="1355" 
d="M653 -16l-143 28l80 494q20 140 20 237q0 34 -4 62l-20 10q-88 -47 -213 -172l-109 -643h-176l143 848h-139v31l297 67l31 -20l-37 -217q200 237 322 237q45 0 67.5 -54.5t22.5 -150.5q0 -107 -23 -231l-70 -401l13 -9l164 111l16 -35zM862 -436l-18 12q40 71 77.5 175.5
t51.5 195.5l151 901h-135v31l295 67l33 -20l-158 -928q-20 -123 -102 -235.5t-195 -198.5zM1315 1128l-131 50q69 138 78 200l149 -24q-49 -161 -96 -226z" />
    <glyph glyph-name="uni01CD" unicode="&#x1cd;" horiz-adv-x="1046" 
d="M-20 0l4 31l106 45l615 1118h133l125 -1141l79 -20l-4 -33h-434l2 31l133 22l-28 402h-340l-199 -377l170 -45l-6 -33h-356zM401 512h306l-31 494h-10zM807 1282h-62l-133 256l39 23l160 -158l285 153l14 -22z" />
    <glyph glyph-name="uni01CE" unicode="&#x1ce;" horiz-adv-x="804" 
d="M446 12l50 293l-299 -317h-97q-22 93 -22 223q0 156 32 308.5t91 242.5q29 42 52 70t55.5 56t70.5 42t82 14q95 0 203 -61l84 63h32l-143 -835l12 -9l152 103l14 -29l-237 -192zM256 156l16 -4l236 219l67 397q-98 69 -196 84q-48 -82 -81.5 -243t-41.5 -322
q-2 -16 -2 -68q0 -49 2 -63zM573 1083h-63l-145 283l24 23l191 -172l239 172l21 -23z" />
    <glyph glyph-name="uni01CF" unicode="&#x1cf;" horiz-adv-x="673" 
d="M61 0l5 31l157 26l185 1080l-152 24l8 33h506l-6 -31l-160 -26l-182 -1078l149 -26l-4 -33h-506zM555 1282h-61l-134 256l39 23l160 -158l285 153l14 -22z" />
    <glyph glyph-name="uni01D0" unicode="&#x1d0;" horiz-adv-x="489" 
d="M365 1075h-64l-145 283l24 22l191 -172l239 172l21 -22zM227 -16l-137 28l141 836h-139v31l297 67l31 -20l-137 -815l14 -11l156 111l16 -35z" />
    <glyph glyph-name="uni01D1" unicode="&#x1d1;" horiz-adv-x="1120" 
d="M797 1282h-62l-133 256l39 23l160 -158l284 153l15 -22zM1178 743q-2 -108 -33.5 -217t-90 -206t-136 -172.5t-179 -119.5t-211.5 -44q-199 0 -313.5 125t-114.5 331q0 146 49.5 286t134 247.5t207.5 173t261 65.5q208 0 317 -123t109 -346zM555 47q92 0 170 65t127 170
t76.5 232t27.5 256q0 168 -58 274.5t-171 106.5q-93 0 -171.5 -66t-127.5 -171t-76.5 -230t-27.5 -250q0 -170 57 -278.5t174 -108.5z" />
    <glyph glyph-name="uni01D2" unicode="&#x1d2;" horiz-adv-x="765" 
d="M313 -16q-110 0 -170.5 98t-60.5 244q0 115 29.5 225.5t82 198.5t133 142t175.5 54q117 0 183.5 -98t66.5 -262q0 -100 -33 -205.5t-89.5 -193t-140.5 -144.5t-176 -59zM375 47q88 62 136 212.5t50 299.5q0 204 -22 279q-57 32 -105 36q-54 -34 -93 -120.5t-55 -182.5
t-16 -190v-78q0 -169 21 -223q35 -30 84 -33zM539 1075h-64l-145 283l24 22l191 -172l239 172l21 -22z" />
    <glyph glyph-name="uni01D3" unicode="&#x1d3;" horiz-adv-x="1130" 
d="M823 1284h-61l-133 256l39 23l159 -158l285 154l14 -23zM545 -18q-85 0 -153 19.5t-118.5 60t-76 109t-21.5 161.5q0 12 4.5 45.5t16.5 105.5t25.5 149.5t38.5 224t48 282.5l-141 22l8 33h492l-4 -31l-150 -24q-129 -759 -129 -772q-17 -316 207 -316q122 0 228 113
t138 305l107 643l-170 49l6 33h399l-6 -31l-143 -49l-113 -651q-18 -103 -55 -185.5t-85 -137t-107.5 -91t-120.5 -52t-125 -15.5z" />
    <glyph glyph-name="uni01D4" unicode="&#x1d4;" horiz-adv-x="870" 
d="M639 -16l-139 28l32 211q-92 -106 -181 -172.5t-156 -66.5q-84 0 -84 184q0 108 24 246l68 434h-135v31l301 67l30 -20l-82 -502q-31 -194 -24 -305l22 -10q108 53 230 188l88 551h-117v31l283 67l30 -20l-135 -813l17 -15l151 111l19 -33zM565 1075h-63l-146 283l25 22
l190 -172l240 172l20 -22z" />
    <glyph glyph-name="AEmacron" unicode="&#x1e2;" horiz-adv-x="1441" 
d="M512 0l4 31l164 26l70 418h-314l-254 -401l144 -45l-4 -29h-342l4 27l110 47l723 1120h696l-51 -287h-59l-35 228h-307l-82 -498l364 14l-16 -82l-356 13l-88 -521h315l154 252l45 -12l-82 -301h-803zM844 1114l-369 -579h285l98 579h-14zM1444 1372h-395l10 49h395z" />
    <glyph glyph-name="aemacron" unicode="&#x1e3;" horiz-adv-x="1036" 
d="M573 -16l-84 20q-28 81 -32 232l-252 -248h-105q-22 93 -22 223q0 156 32 308.5t91 242.5q38 55 72 91.5t86 63.5t110 27q38 0 96 -16.5t111 -44.5q69 63 168 63q92 0 223 -80l-2 -159q-7 -4 -205 -158t-225 -170q-2 -46 4.5 -126.5t15.5 -125.5l19 -6q31 14 74 44
t72 53.5t79.5 66t61.5 51.5l12 -47q-63 -77 -172.5 -166t-227.5 -139zM272 139l187 178q4 126 37 254.5t79 202.5q-119 76 -206 78q-46 -70 -78 -236.5t-35 -328.5v-142zM641 453q14 10 134.5 117t137.5 124l2 86q-36 33 -64.5 49t-82.5 33q-26 -31 -69.5 -161.5
t-57.5 -247.5zM924 1210h-381l10 52h381z" />
    <glyph glyph-name="uni01E6" unicode="&#x1e6;" horiz-adv-x="1038" 
d="M825 1282h-61l-133 256l39 23l159 -158l285 153l14 -22zM594 -16q-222 0 -358 124t-136 343q0 161 55.5 303t150 242t224 158t273.5 58q76 0 142 -13t92 -24t65 -30l-53 -316h-52l-49 281q-65 45 -170 45q-102 0 -189.5 -60.5t-143.5 -157.5t-87.5 -215t-31.5 -237
q0 -229 76.5 -335.5t228.5 -106.5q51 0 104 23l76 462l-158 37l9 33h354l-92 -535q-162 -79 -330 -79z" />
    <glyph glyph-name="uni01E7" unicode="&#x1e7;" horiz-adv-x="780" 
d="M236 -436q-168 0 -271 61l41 166q51 -31 70 -42.5t64 -34t82.5 -31.5t76.5 -9q33 0 70 9q42 46 104 452l29 178l-305 -325h-97q-22 93 -22 223q0 156 32 308.5t91 242.5q29 42 52 70t55.5 56t70.5 42t82 14q93 0 209 -65l94 67h20l-155 -938q-14 -82 -46 -158.5t-80 -142
t-117.5 -104.5t-149.5 -39zM514 379q34 185 66 383q-54 40 -98 61t-103 29q-49 -84 -84.5 -247.5t-38.5 -317.5q0 -10 -0.5 -40.5t-0.5 -54.5t1 -36l16 -6zM575 1075h-63l-145 283l24 22l191 -172l239 172l21 -22z" />
    <glyph glyph-name="uni01E8" unicode="&#x1e8;" horiz-adv-x="1062" 
d="M45 0l2 31l162 22l182 1082l-151 26l8 33h506l-9 -31l-157 -26l-182 -1084l147 -20l-2 -33h-506zM786 0l-251 563l6 33l446 526l-123 43l6 29h375l-8 -35l-158 -37l-383 -438l297 -616l94 -35l-4 -33h-297zM815 1282h-61l-133 256l38 23l160 -158l285 153l14 -22z" />
    <glyph glyph-name="uni01E9" unicode="&#x1e9;" horiz-adv-x="839" 
d="M63 0l228 1343h-139v31l297 70l32 -23l-119 -692q74 74 150.5 132.5t126.5 80.5l135 -45q8 -44 8 -92q0 -98 -49.5 -169.5t-154.5 -135.5l90 -381l18 -6l148 98l18 -35l-258 -192l-102 28l-78 373l6 33q186 193 186 362q0 29 -2 43l-20 11q-88 -40 -234 -179l-110 -655
h-177zM705 1282h-62l-133 256l39 23l160 -158l284 153l15 -22z" />
    <glyph glyph-name="uni01EA" unicode="&#x1ea;" horiz-adv-x="1120" 
d="M1178 743q-3 -150 -60.5 -297t-164 -263t-240.5 -167q-85 -57 -142.5 -135t-72.5 -162l20 -12q26 -5 80.5 5.5t95.5 23.5l41 14l21 -86q-58 -35 -146.5 -62t-183.5 -30l-41 39q19 105 88.5 209t157.5 174q-55 -10 -103 -10q-199 0 -313.5 125t-114.5 331q0 146 49.5 286
t134 247.5t207.5 173t261 65.5q208 0 317 -123t109 -346zM555 47q92 0 170 65t127 170t76.5 232t27.5 256q0 168 -58 274.5t-171 106.5q-93 0 -171.5 -66t-127.5 -171t-76.5 -230t-27.5 -250q0 -170 57 -278.5t174 -108.5z" />
    <glyph glyph-name="uni01EB" unicode="&#x1eb;" horiz-adv-x="765" 
d="M313 -16q-110 0 -170.5 98t-60.5 244q0 115 29.5 225.5t82 198.5t133 142t175.5 54q117 0 183.5 -98t66.5 -262q0 -167 -84.5 -333.5t-216.5 -234.5q-143 -188 -162 -299l20 -12q24 -5 75 5.5t90 23.5l38 14l23 -86q-57 -35 -141 -62t-173 -30l-39 39q25 159 203 383
q-27 -6 -72 -10zM375 47q88 62 136 212.5t50 299.5q0 204 -22 279q-57 32 -105 36q-54 -34 -93 -120.5t-55 -182.5t-16 -190v-78q0 -169 21 -223q35 -30 84 -33z" />
    <glyph glyph-name="uni01EC" unicode="&#x1ec;" horiz-adv-x="1120" 
d="M1178 743q-3 -150 -60.5 -297t-164 -263t-240.5 -167q-85 -57 -142.5 -135t-72.5 -162l20 -12q26 -5 80.5 5.5t95.5 23.5l41 14l21 -86q-58 -35 -146.5 -62t-183.5 -30l-41 39q19 105 88.5 209t157.5 174q-55 -10 -103 -10q-199 0 -313.5 125t-114.5 331q0 146 49.5 286
t134 247.5t207.5 173t261 65.5q208 0 317 -123t109 -346zM555 47q92 0 170 65t127 170t76.5 232t27.5 256q0 168 -58 274.5t-171 106.5q-93 0 -171.5 -66t-127.5 -171t-76.5 -230t-27.5 -250q0 -170 57 -278.5t174 -108.5zM995 1372h-395l10 49h396z" />
    <glyph glyph-name="uni01ED" unicode="&#x1ed;" horiz-adv-x="765" 
d="M313 -16q-110 0 -170.5 98t-60.5 244q0 115 29.5 225.5t82 198.5t133 142t175.5 54q117 0 183.5 -98t66.5 -262q0 -167 -84.5 -333.5t-216.5 -234.5q-143 -188 -162 -299l20 -12q24 -5 75 5.5t90 23.5l38 14l23 -86q-57 -35 -141 -62t-173 -30l-39 39q25 159 203 383
q-27 -6 -72 -10zM375 47q88 62 136 212.5t50 299.5q0 204 -22 279q-57 32 -105 36q-54 -34 -93 -120.5t-55 -182.5t-16 -190v-78q0 -169 21 -223q35 -30 84 -33zM711 1210h-381l10 52h381z" />
    <glyph glyph-name="uni01EE" unicode="&#x1ee;" horiz-adv-x="794" 
d="M555 1282h-61l-134 256l39 23l160 -158l285 153l14 -22zM291 -180q70 0 129 52t91 134t32 172q0 117 -69.5 198t-180.5 85l-10 86l411 479l-4 14h-393l-115 -166l-39 7l78 313h631l10 -51l-424 -498l4 -12q147 -18 236.5 -125.5t89.5 -249.5q0 -97 -27.5 -179.5
t-75 -141.5t-111.5 -101t-138 -62t-154 -20q-119 0 -256 58l35 229h39q13 -89 70 -155t141 -66z" />
    <glyph glyph-name="uni01EF" unicode="&#x1ef;" horiz-adv-x="724" 
d="M657 141q0 -33 -2 -49q-11 -108 -68.5 -203t-145 -160.5t-195 -105.5t-219.5 -45l-2 51q113 4 216 71.5t163.5 170t60.5 207.5q0 88 -35.5 132t-112.5 44q-45 0 -81 -10l-9 94l342 414l-4 14q-59 -10 -162 -10q-106 0 -165 10l-97 -145l-35 8l66 266l45 37
q208 -17 313 -17q121 0 211 17l11 -49l-392 -465l5 -12q141 -11 216.5 -79t75.5 -186zM510 1075h-64l-145 283l25 22l190 -172l240 172l20 -22z" />
    <glyph glyph-name="uni01F1" unicode="&#x1f1;" horiz-adv-x="2070" 
d="M1219 0l-9 68l754 1065h-405l-136 -293h-47l62 354h753l7 -51l-783 -1082h449l149 291l49 -6l-73 -346h-770zM45 0l2 31l160 28l184 1078l-153 24l6 33h473q91 0 165 -12t142 -41.5t114.5 -76.5t73.5 -121t27 -171q0 -220 -88 -396t-247 -276t-361 -100h-498zM674 1133
h-86l-187 -1070h121q223 0 358.5 179.5t135.5 490.5q0 400 -342 400z" />
    <glyph glyph-name="uni01F2" unicode="&#x1f2;" horiz-adv-x="1898" 
d="M1270 -4l-43 4l-13 35l525 723l-8 8q-65 -12 -154 -12q-97 0 -186 18l-70 -119l-37 9l47 260l45 24q240 -24 310 -24q127 0 200 24l45 -49l-501 -694l4 -17l344 -22l71 153l43 -8l-77 -307l-48 -18l-456 65zM45 0l2 31l160 28l184 1078l-153 24l6 33h473q91 0 165 -12
t142 -41.5t114.5 -76.5t73.5 -121t27 -171q0 -220 -88 -396t-247 -276t-361 -100h-498zM674 1133h-86l-187 -1070h121q223 0 358.5 179.5t135.5 490.5q0 400 -342 400z" />
    <glyph glyph-name="uni01F3" unicode="&#x1f3;" horiz-adv-x="1511" 
d="M444 12l50 291l-297 -315h-97q-22 93 -22 223q0 156 32 308.5t91 242.5q29 42 52 70t55.5 56t70.5 42t82 14q59 0 135 -29l72 428h-146v31l312 66l32 -21l-227 -1298l12 -10l152 96l16 -29l-250 -194zM883 -4l-43 4l-13 35l525 723l-9 8q-64 -12 -153 -12q-98 0 -186 18
l-70 -119l-37 9l47 260l45 24q240 -24 309 -24q128 0 201 24l45 -49l-502 -694l5 -17l344 -22l71 153l43 -8l-78 -307l-47 -18l-456 65zM256 156l16 -4l232 215l67 403q-89 66 -192 82q-50 -85 -85 -242.5t-38 -310.5v-143z" />
    <glyph glyph-name="uni01F4" unicode="&#x1f4;" horiz-adv-x="1038" 
d="M989 1538l84 -94v-27l-379 -139l-10 14zM594 -16q-222 0 -358 124t-136 343q0 161 55.5 303t150 242t224 158t273.5 58q76 0 142 -13t92 -24t65 -30l-53 -316h-52l-49 281q-65 45 -170 45q-102 0 -189.5 -60.5t-143.5 -157.5t-87.5 -215t-31.5 -237q0 -229 76.5 -335.5
t228.5 -106.5q51 0 104 23l76 462l-158 37l9 33h354l-92 -535q-162 -79 -330 -79z" />
    <glyph glyph-name="uni01F5" unicode="&#x1f5;" horiz-adv-x="780" 
d="M236 -436q-168 0 -271 61l41 166q51 -31 70 -42.5t64 -34t82.5 -31.5t76.5 -9q33 0 70 9q42 46 104 452l29 178l-305 -325h-97q-22 93 -22 223q0 156 32 308.5t91 242.5q29 42 52 70t55.5 56t70.5 42t82 14q93 0 209 -65l94 67h20l-155 -938q-14 -82 -46 -158.5t-80 -142
t-117.5 -104.5t-149.5 -39zM514 379q34 185 66 383q-54 40 -98 61t-103 29q-49 -84 -84.5 -247.5t-38.5 -317.5q0 -10 -0.5 -40.5t-0.5 -54.5t1 -36l16 -6zM625 1391l147 -43v-27l-285 -244l-10 13z" />
    <glyph glyph-name="uni01F8" unicode="&#x1f8;" horiz-adv-x="1193" 
d="M481 1444l84 94l305 -244l-8 -16l-381 139v27zM23 0l6 31l139 49l176 1024l-127 57l6 33h291l438 -842h6l134 758l-166 51l6 33h387l-6 -31l-142 -47l-194 -1134h-76l-493 974h-9l-149 -874l172 -49l-6 -33h-393z" />
    <glyph glyph-name="uni01F9" unicode="&#x1f9;" horiz-adv-x="884" 
d="M653 -16l-143 28l80 494q20 140 20 237q0 34 -4 62l-20 10q-88 -47 -213 -172l-109 -643h-176l143 848h-139v31l297 67l31 -20l-37 -217q200 237 322 237q45 0 67.5 -54.5t22.5 -150.5q0 -107 -23 -231l-70 -401l13 -9l164 111l16 -35zM330 1348l147 43l148 -301l-13 -13
l-282 244v27z" />
    <glyph glyph-name="uni01FA" unicode="&#x1fa;" horiz-adv-x="1046" 
d="M-20 0l4 31l106 45l615 1118h133l125 -1141l79 -20l-4 -33h-434l2 31l133 22l-28 402h-340l-199 -377l170 -45l-6 -33h-356zM401 512h306l-31 494h-10zM983 1802l84 -94v-27l-379 -139l-10 14zM776 1264q54 0 92.5 37t38.5 88q0 50 -28 76t-76 26q-51 0 -88 -33.5
t-37 -87.5q0 -53 29 -79.5t69 -26.5zM774 1225q-60 0 -99.5 37.5t-39.5 105.5t53.5 115t120.5 47q60 0 100.5 -36.5t40.5 -102.5q0 -68 -55 -117t-121 -49z" />
    <glyph glyph-name="uni01FB" unicode="&#x1fb;" horiz-adv-x="804" 
d="M446 12l50 293l-299 -317h-97q-22 93 -22 223q0 156 32 308.5t91 242.5q29 42 52 70t55.5 56t70.5 42t82 14q95 0 203 -61l84 63h32l-143 -835l12 -9l152 103l14 -29l-237 -192zM256 156l16 -4l236 219l67 397q-98 69 -196 84q-48 -82 -81.5 -243t-41.5 -322
q-2 -16 -2 -68q0 -49 2 -63zM549 1044q-61 0 -101 38t-40 106t54.5 115t121.5 47q60 0 99.5 -37t39.5 -103q0 -68 -55 -117t-119 -49zM551 1083q54 0 92.5 37.5t38.5 89.5q0 49 -28 75t-76 26q-52 0 -89.5 -33.5t-37.5 -87.5q0 -53 29.5 -80t70.5 -27zM778 1651l84 -95v-26
l-379 -139l-10 14z" />
    <glyph glyph-name="AEacute" unicode="&#x1fc;" horiz-adv-x="1441" 
d="M512 0l4 31l164 26l70 418h-314l-254 -401l144 -45l-4 -29h-342l4 27l110 47l723 1120h696l-51 -287h-59l-35 228h-307l-82 -498l364 14l-16 -82l-356 13l-88 -521h315l154 252l45 -12l-82 -301h-803zM844 1114l-369 -579h285l98 579h-14zM1415 1540l84 -94v-27
l-379 -139l-10 14z" />
    <glyph glyph-name="aeacute" unicode="&#x1fd;" horiz-adv-x="1036" 
d="M848 1391l147 -43v-27l-284 -244l-11 13zM573 -16l-84 20q-28 81 -32 232l-252 -248h-105q-22 93 -22 223q0 156 32 308.5t91 242.5q38 55 72 91.5t86 63.5t110 27q38 0 96 -16.5t111 -44.5q69 63 168 63q92 0 223 -80l-2 -159q-7 -4 -205 -158t-225 -170
q-2 -46 4.5 -126.5t15.5 -125.5l19 -6q31 14 74 44t72 53.5t79.5 66t61.5 51.5l12 -47q-63 -77 -172.5 -166t-227.5 -139zM272 139l187 178q4 126 37 254.5t79 202.5q-119 76 -206 78q-46 -70 -78 -236.5t-35 -328.5v-142zM641 453q14 10 134.5 117t137.5 124l2 86
q-36 33 -64.5 49t-82.5 33q-26 -31 -69.5 -161.5t-57.5 -247.5z" />
    <glyph glyph-name="Oslashacute" unicode="&#x1fe;" horiz-adv-x="1120" 
d="M1178 743q-2 -108 -33.5 -217t-90 -206t-136 -172.5t-179 -119.5t-211.5 -44q-169 0 -278 92l-78 -92h-78l113 133q-107 122 -107 323q0 146 49.5 286t134 247.5t207.5 173t261 65.5q187 0 295 -102l86 102h75l-123 -145q93 -122 93 -324zM324 434q0 -93 14 -162l592 699
q-58 180 -203 180q-93 0 -171.5 -66t-127.5 -171t-76.5 -230t-27.5 -250zM555 47q92 0 170 65t127 170t76.5 232t27.5 256q0 63 -10 131l-588 -696q58 -158 197 -158zM958 1538l84 -94v-27l-378 -139l-11 14z" />
    <glyph glyph-name="oslashacute" unicode="&#x1ff;" horiz-adv-x="765" 
d="M313 -16q-104 0 -168 94l-71 -94h-64l109 141q-37 84 -37 201q0 115 29.5 225.5t82 198.5t133 142t175.5 54q111 0 176 -90l70 90h63l-104 -137q45 -92 45 -223q0 -100 -33 -205.5t-89.5 -193t-140.5 -144.5t-176 -59zM375 47q88 62 136 212.5t50 299.5v62l-291 -381
q4 -121 21 -160q35 -30 84 -33zM270 381q0 -9 -1 -29t-1 -30l291 378q-7 84 -20 138q-57 32 -105 36q-54 -34 -93 -120.5t-55 -182.5t-16 -190zM594 1391l147 -43v-27l-284 -244l-11 13z" />
    <glyph glyph-name="Scommaaccent" unicode="&#x218;" horiz-adv-x="843" 
d="M502 -127l16 -18l-147 -361h-39l41 379h129zM360 -16q-152 0 -292 73l49 308h51l41 -248q51 -37 96.5 -50.5t106.5 -13.5q94 0 167.5 61t73.5 171q0 49 -24 88t-62 65t-84 50t-92 50.5t-84 58.5t-62 82t-24 114q0 176 124.5 297.5t289.5 121.5q89 0 164.5 -20.5
t122.5 -52.5l-50 -295h-53l-37 250q-36 27 -69 36t-88 9q-96 0 -168 -61.5t-72 -145.5q0 -50 25 -89.5t64.5 -66t87.5 -51t95.5 -52t87 -61t64.5 -85.5t25 -119q0 -102 -40.5 -185t-108 -134t-151 -78t-174.5 -27z" />
    <glyph glyph-name="scommaaccent" unicode="&#x219;" horiz-adv-x="681" 
d="M387 -127l16 -18l-147 -361h-39l41 379h129zM645 633h-39l-37 180q-68 27 -143 27q-61 0 -103 -29t-42 -74q0 -11 3 -22.5t10 -24t14 -22.5t20 -23l22 -22t27 -24t27.5 -22.5t30.5 -24t30 -24.5q40 -35 63.5 -58t51 -57t40.5 -68.5t13 -70.5q0 -70 -54 -138.5t-135 -110
t-157 -41.5q-141 0 -246 59l53 293h39l41 -215q79 -39 186 -39q53 0 87 27.5t34 72.5q0 13 -4 26.5t-9.5 24.5t-17.5 25.5t-20 23.5t-26 26t-27 24.5t-31.5 26.5t-30.5 26q-80 68 -124 129t-44 137q0 33 29.5 82.5t75.5 97t111.5 81.5t128.5 34q55 0 98 -14t100 -45z" />
    <glyph glyph-name="uni021A" unicode="&#x21a;" horiz-adv-x="905" 
d="M473 -127l16 -18l-147 -361h-39l41 379h129zM176 0l6 31l160 37l180 1065h-213l-141 -293h-49l61 354h910l-64 -354h-45l-55 293h-205l-180 -1065l149 -35l-6 -33h-508z" />
    <glyph glyph-name="uni021B" unicode="&#x21b;" horiz-adv-x="593" 
d="M100 854l6 39l134 20l145 258h66l-41 -253h227l-8 -64h-230l-114 -731l14 -10q53 27 132.5 81t119.5 89l18 -33q-49 -59 -158 -147.5t-192 -118.5l-123 32l127 838h-123zM272 -127l17 -18l-148 -361h-39l41 379h129z" />
    <glyph glyph-name="uni021C" unicode="&#x21c;" horiz-adv-x="794" 
d="M291 -180q70 0 129 52t91 134t32 172q0 117 -69.5 198t-180.5 85l-10 86l411 479l-4 14h-393l-115 -166l-39 7l78 313h631l10 -51l-424 -498l4 -12q147 -18 236.5 -125.5t89.5 -249.5q0 -97 -27.5 -179.5t-75 -141.5t-111.5 -101t-138 -62t-154 -20q-119 0 -256 58
l35 229h39q13 -89 70 -155t141 -66z" />
    <glyph glyph-name="uni021D" unicode="&#x21d;" horiz-adv-x="724" 
d="M657 141q0 -33 -2 -49q-11 -108 -68.5 -203t-145 -160.5t-195 -105.5t-219.5 -45l-2 51q113 4 216 71.5t163.5 170t60.5 207.5q0 88 -35.5 132t-112.5 44q-45 0 -81 -10l-9 94l342 414l-4 14q-59 -10 -162 -10q-106 0 -165 10l-97 -145l-35 8l66 266l45 37
q208 -17 313 -17q121 0 211 17l11 -49l-392 -465l5 -12q141 -11 216.5 -79t75.5 -186z" />
    <glyph glyph-name="uni021E" unicode="&#x21e;" horiz-adv-x="1296" 
d="M45 0l2 31l162 24l182 1082l-151 24l6 33h506l-9 -31l-155 -24l-86 -500h463l84 498l-150 24l6 33h506l-6 -31l-160 -24l-182 -1084l149 -22l-4 -33h-503l4 31l155 24l90 529h-462l-89 -529l148 -22l-2 -33h-504zM854 1282h-61l-134 256l39 23l160 -158l285 153l14 -22z
" />
    <glyph glyph-name="uni021F" unicode="&#x21f;" horiz-adv-x="864" 
d="M55 0l228 1343h-136v31l291 66l39 -21l-125 -723q209 250 326 250q92 0 92 -209q0 -95 -22 -227l-72 -401l14 -9l162 111l18 -35l-243 -192l-142 28l80 494q21 147 21 242q0 35 -4 63l-21 10q-89 -49 -219 -190l-109 -631h-178zM700 1282h-61l-133 256l39 23l160 -158
l284 153l15 -22z" />
    <glyph glyph-name="uni0226" unicode="&#x226;" horiz-adv-x="1046" 
d="M-20 0l4 31l106 45l615 1118h133l125 -1141l79 -20l-4 -33h-434l2 31l133 22l-28 402h-340l-199 -377l170 -45l-6 -33h-356zM401 512h306l-31 494h-10zM831 1286l-131 41q58 110 74 191l152 -19q-44 -147 -95 -213z" />
    <glyph glyph-name="uni0227" unicode="&#x227;" horiz-adv-x="804" 
d="M446 12l50 293l-299 -317h-97q-22 93 -22 223q0 156 32 308.5t91 242.5q29 42 52 70t55.5 56t70.5 42t82 14q95 0 203 -61l84 63h32l-143 -835l12 -9l152 103l14 -29l-237 -192zM256 156l16 -4l236 219l67 397q-98 69 -196 84q-48 -82 -81.5 -243t-41.5 -322
q-2 -16 -2 -68q0 -49 2 -63zM604 1149l-125 41q60 114 74 184l143 -18q-43 -143 -92 -207z" />
    <glyph glyph-name="uni0228" unicode="&#x228;" horiz-adv-x="978" 
d="M45 0l2 31l162 28l180 1076l-151 26l6 33h807l-50 -287h-53l-43 228h-317l-86 -500l372 12l-12 -84l-368 12l-91 -514h322l170 246l41 -6l-86 -301h-262l-84 -111q45 -41 68.5 -66t47 -64t23.5 -74q0 -51 -63.5 -103.5t-153.5 -52.5q-36 0 -81.5 8t-70.5 21l33 104
q96 -51 178 -51q49 0 90 20q-40 82 -180 179l4 22l138 168h-492z" />
    <glyph glyph-name="uni0229" unicode="&#x229;" horiz-adv-x="651" 
d="M109 -451q-36 0 -81.5 8t-70.5 21l33 105q98 -52 178 -52q46 0 90 21q-39 81 -180 178l4 23l106 133l-75 18q-37 115 -37 258q0 318 119 500q61 88 121.5 136t144.5 48q89 0 221 -78l-2 -172q-68 -64 -185.5 -143t-230.5 -137q-2 -37 -2 -109q0 -112 14 -176l19 -4
q135 71 276 205l17 -43q-53 -65 -137 -140t-181 -129l-84 -110q33 -31 51.5 -49.5t42.5 -47t35 -55.5t11 -53q0 -51 -63.5 -103.5t-153.5 -52.5zM387 856q-96 -147 -119 -385q147 86 277 213l-4 100q-68 49 -154 72z" />
    <glyph glyph-name="uni022E" unicode="&#x22e;" horiz-adv-x="1120" 
d="M811 1286l-131 41q58 110 74 191l151 -19q-45 -149 -94 -213zM1178 743q-2 -108 -33.5 -217t-90 -206t-136 -172.5t-179 -119.5t-211.5 -44q-199 0 -313.5 125t-114.5 331q0 146 49.5 286t134 247.5t207.5 173t261 65.5q208 0 317 -123t109 -346zM555 47q92 0 170 65
t127 170t76.5 232t27.5 256q0 168 -58 274.5t-171 106.5q-93 0 -171.5 -66t-127.5 -171t-76.5 -230t-27.5 -250q0 -170 57 -278.5t174 -108.5z" />
    <glyph glyph-name="uni022F" unicode="&#x22f;" horiz-adv-x="765" 
d="M313 -16q-110 0 -170.5 98t-60.5 244q0 115 29.5 225.5t82 198.5t133 142t175.5 54q117 0 183.5 -98t66.5 -262q0 -100 -33 -205.5t-89.5 -193t-140.5 -144.5t-176 -59zM375 47q88 62 136 212.5t50 299.5q0 204 -22 279q-57 32 -105 36q-54 -34 -93 -120.5t-55 -182.5
t-16 -190v-78q0 -169 21 -223q35 -30 84 -33zM569 1149l-125 41q60 114 74 184l144 -18q-43 -141 -93 -207z" />
    <glyph glyph-name="Ymacron" unicode="&#x232;" horiz-adv-x="937" 
d="M193 0l4 31l161 26l74 424l-221 664l-66 16l9 33h407l-4 -31l-131 -28l174 -566h6l322 545l-154 47l6 33h355l-7 -31l-104 -33l-385 -624l-76 -449l156 -24l-4 -33h-522zM899 1372h-395l10 49h395z" />
    <glyph glyph-name="ymacron" unicode="&#x233;" horiz-adv-x="739" 
d="M813 928l-2 -60l-350 -712l-248 -580h-145l-2 35l243 389h-88q-40 155 -64 370.5t-24 415.5v62h-96v31l276 67l31 -8q-16 -107 -16 -262q0 -277 49 -539h16l225 506l3 285h192zM707 1212h-381l10 52h381z" />
    <glyph glyph-name="dotlessj" unicode="&#x237;" horiz-adv-x="471" 
d="M-23 -436l-18 12q40 71 77.5 175.5t51.5 195.5l152 901h-136v31l295 67l33 -20l-158 -928q-20 -123 -102 -235.5t-195 -198.5z" />
    <glyph glyph-name="schwa" unicode="&#x259;" horiz-adv-x="684" 
d="M174 596l-16 45q70 83 173 169.5t220 135.5l84 -20q37 -115 37 -258q0 -318 -119 -500q-60 -88 -120.5 -136t-145.5 -48q-95 0 -221 77l2 172q70 63 186 143t227 138q4 70 4 109q0 112 -14 174l-18 6q-137 -73 -279 -207zM360 74q94 141 117 385q-153 -95 -274 -213
l2 -103q69 -49 155 -69z" />
    <glyph glyph-name="circumflex" unicode="&#x2c6;" horiz-adv-x="708" 
d="M360 1368h64l170 -272l-23 -25l-215 166l-256 -172l-16 20z" />
    <glyph glyph-name="caron" unicode="&#x2c7;" horiz-adv-x="835" 
d="M569 1075h-63l-146 283l25 22l190 -172l240 172l21 -22z" />
    <glyph glyph-name="breve" unicode="&#x2d8;" horiz-adv-x="616" 
d="M375 1096q-133 0 -150 204l123 19q5 -98 68 -145q71 8 123 50t82 99l34 -10q-59 -106 -125 -161.5t-155 -55.5z" />
    <glyph glyph-name="dotaccent" unicode="&#x2d9;" horiz-adv-x="520" 
d="M379 1149l-125 41q60 114 74 184l143 -18q-43 -143 -92 -207z" />
    <glyph glyph-name="ring" unicode="&#x2da;" horiz-adv-x="577" 
d="M401 1116q54 0 92.5 37.5t38.5 89.5q0 49 -28 74.5t-76 25.5q-52 0 -89.5 -33t-37.5 -87q0 -53 29.5 -80t70.5 -27zM399 1077q-61 0 -101 38t-40 106t54.5 114.5t121.5 46.5q60 0 99.5 -36.5t39.5 -102.5q0 -68 -55 -117t-119 -49z" />
    <glyph glyph-name="ogonek" unicode="&#x2db;" horiz-adv-x="716" 
d="M623 -250l22 -86q-57 -35 -140.5 -62t-172.5 -30l-39 39q21 121 112 257t197 249l86 53q-99 -106 -186 -235t-103 -216l21 -12q24 -5 75 5.5t89 23.5z" />
    <glyph glyph-name="tilde" unicode="&#x2dc;" horiz-adv-x="759" 
d="M723 1284l27 -22l-156 -142l-43 2l-199 88l-102 -67l-19 24l164 138h47l203 -80z" />
    <glyph glyph-name="hungarumlaut" unicode="&#x2dd;" horiz-adv-x="890" 
d="M719 1384l147 -43v-26l-288 -228l-19 13zM426 1425l141 -36v-27l-219 -266l-20 10z" />
    <glyph glyph-name="gravecmb" unicode="&#x300;" horiz-adv-x="0" 
d="M-500 1348l146 43l145 -301l-10 -13l-281 244v27z" />
    <glyph glyph-name="acutecmb" unicode="&#x301;" horiz-adv-x="0" 
d="M-264 1391l145 -43v-27l-280 -244l-11 13z" />
    <glyph glyph-name="circumflexcmb" unicode="&#x302;" horiz-adv-x="0" 
d="M-295 1368h62l167 -272l-20 -25l-213 166l-254 -172l-14 20z" />
    <glyph glyph-name="tildecmb" unicode="&#x303;" horiz-adv-x="0" 
d="M-68 1284l29 -22l-156 -142l-43 2l-194 88l-103 -67l-18 24l162 138h47l201 -80z" />
    <glyph glyph-name="macroncmb" unicode="&#x304;" horiz-adv-x="0" 
d="M-115 1202h-381l13 51h381z" />
    <glyph glyph-name="brevecmb" unicode="&#x306;" horiz-adv-x="0" 
d="M-340 1090q-69 0 -106.5 55t-45.5 149l125 19q3 -99 66 -146q72 10 123.5 51.5t81.5 98.5l35 -8q-59 -107 -125 -163t-154 -56z" />
    <glyph glyph-name="dotaccentcmb" unicode="&#x307;" horiz-adv-x="0" 
d="M-270 1145l-131 41q57 107 73 190l150 -18q-45 -148 -92 -213z" />
    <glyph glyph-name="dieresiscmb" unicode="&#x308;" horiz-adv-x="0" 
d="M-446 1149l-121 43q54 89 71 180l140 -18q-44 -141 -90 -205zM-152 1149l-118 43q51 84 69 180l142 -18q-48 -143 -93 -205z" />
    <glyph glyph-name="hookcmb" unicode="&#x309;" horiz-adv-x="0" 
d="M-106 1294q0 -79 -57 -140.5t-142 -102.5l-29 28q45 24 86 79.5t41 105.5q0 32 -18.5 48.5t-48.5 16.5q-41 0 -91 -37l-24 64q25 21 67.5 40t83.5 19q62 0 97 -32.5t35 -88.5z" />
    <glyph glyph-name="ringcmb" unicode="&#x30a;" horiz-adv-x="0" 
d="M-311 1118q54 0 92.5 36.5t38.5 88.5q0 49 -28.5 76t-76.5 27q-51 0 -88 -34.5t-37 -88.5q0 -52 29.5 -78.5t69.5 -26.5zM-313 1077q-60 0 -101 38.5t-41 107.5q0 67 54.5 113t121.5 46q60 0 101 -36t41 -101q0 -68 -55 -118t-121 -50z" />
    <glyph glyph-name="hungarumlautcmb" unicode="&#x30b;" horiz-adv-x="0" 
d="M-119 1384l148 -43v-26l-287 -228l-18 13zM-408 1425l140 -36v-27l-215 -266l-21 10z" />
    <glyph glyph-name="caroncmb" unicode="&#x30c;" horiz-adv-x="0" 
d="M-291 1075h-61l-148 283l27 22l188 -172l238 172l18 -22z" />
    <glyph glyph-name="candrabinducmb" unicode="&#x310;" horiz-adv-x="0" 
d="M-209 1278l-125 43q61 109 76 190l145 -20q-20 -58 -28 -80.5t-27.5 -63.5t-40.5 -69zM-352 1075q-60 0 -108.5 58.5t-57.5 146.5l125 18q12 -95 80 -145q74 10 133.5 51t89.5 94l35 -10q-122 -213 -297 -213z" />
    <glyph glyph-name="dotbelowcmb" unicode="&#x323;" horiz-adv-x="0" 
d="M-416 -352l-131 41q58 110 74 190l149 -18q-45 -148 -92 -213z" />
    <glyph glyph-name="dieresisbelowcmb" unicode="&#x324;" horiz-adv-x="0" 
d="M-588 -332l-119 45q58 96 70 181l141 -21q-50 -145 -92 -205zM-303 -332l-119 45q49 80 72 181l139 -21q-50 -145 -92 -205z" />
    <glyph glyph-name="ringbelowcmb" unicode="&#x325;" horiz-adv-x="0" 
d="M-479 -375q54 0 92.5 36.5t38.5 88.5q0 49 -28.5 76t-76.5 27q-51 0 -88 -34.5t-37 -88.5q0 -52 29 -78.5t70 -26.5zM-481 -416q-61 0 -101.5 38.5t-40.5 107.5q0 67 55 113t122 46q60 0 99.5 -36t39.5 -101q0 -70 -54 -119t-120 -49z" />
    <glyph glyph-name="cedillacmb" unicode="&#x327;" horiz-adv-x="0" 
d="M-532 -451q-38 0 -82 8t-68 21l33 105q102 -52 180 -52q45 0 82 21q-39 80 -176 178l4 23l160 200l55 4l-111 -147q32 -31 51.5 -51.5t42 -50t33 -57.5t9.5 -56q-2 -49 -66 -97.5t-147 -48.5z" />
    <glyph glyph-name="ogonekcmb" unicode="&#x328;" horiz-adv-x="0" 
d="M-301 -250l20 -86q-54 -35 -137 -62t-172 -30l-39 39q21 122 111.5 258t195.5 248l86 53q-100 -107 -186 -235.5t-100 -215.5l18 -12q25 -5 76 5.5t89 23.5z" />
    <glyph glyph-name="brevebelowcmb" unicode="&#x32e;" horiz-adv-x="0" 
d="M-512 -344q-69 0 -105.5 55t-44.5 150l123 18q5 -98 68 -145q71 10 123 51.5t82 97.5l35 -8q-59 -107 -125 -163t-156 -56z" />
    <glyph glyph-name="macronbelowcmb" unicode="&#x331;" horiz-adv-x="0" 
d="M-258 -264h-381l12 51h381z" />
    <glyph glyph-name="uni0374" unicode="&#x374;" horiz-adv-x="503" 
d="M385 1346q-59 -232 -283 -406l-16 10q56 90 91.5 203.5t41.5 214.5q99 21 166 -22z" />
    <glyph glyph-name="uni0375" unicode="&#x375;" horiz-adv-x="503" 
d="M397 154q-58 -237 -291 -418l-16 10q58 94 94 211t41 221q109 19 172 -24z" />
    <glyph glyph-name="uni037E" unicode="&#x37e;" horiz-adv-x="503" 
d="M428 150q-65 -258 -313 -451l-19 12q62 102 102 228t46 237q27 6 59 6q76 0 125 -32zM268 694q66 135 78 195q115 9 182 -25q-47 -154 -96 -219q-93 0 -164 49z" />
    <glyph glyph-name="tonos" unicode="&#x384;" horiz-adv-x="606" 
d="M367 1454h139l24 -29l-198 -348l-41 2z" />
    <glyph glyph-name="dieresistonos" unicode="&#x385;" horiz-adv-x="761" 
d="M258 1077l-119 43q59 103 70 180l139 -18q-44 -141 -90 -205zM692 1077l-119 43q49 81 72 180l137 -18q-44 -141 -90 -205zM463 1454h139l27 -29l-201 -348l-39 2z" />
    <glyph glyph-name="Alphatonos" unicode="&#x386;" horiz-adv-x="1046" 
d="M-20 0l4 31l106 45l615 1118h133l125 -1141l79 -20l-4 -33h-434l2 31l133 22l-28 402h-340l-199 -377l170 -45l-6 -33h-356zM401 512h306l-31 494h-10zM307 1194h139l9 -25l-150 -297h-35z" />
    <glyph glyph-name="anoteleia" unicode="&#x387;" horiz-adv-x="520" 
d="M379 397l-125 41q60 113 74 185l143 -19q-43 -143 -92 -207z" />
    <glyph glyph-name="Epsilontonos" unicode="&#x388;" horiz-adv-x="978" 
d="M43 1194h139l8 -25l-149 -297h-35zM45 0l2 31l162 28l180 1076l-151 26l6 33h807l-50 -287h-53l-43 228h-317l-86 -500l372 12l-12 -84l-368 12l-91 -514h322l170 246l41 -6l-86 -301h-805z" />
    <glyph glyph-name="Etatonos" unicode="&#x389;" horiz-adv-x="1296" 
d="M45 0l2 31l162 24l182 1082l-151 24l6 33h506l-9 -31l-155 -24l-86 -500h463l84 498l-150 24l6 33h506l-6 -31l-160 -24l-182 -1084l149 -22l-4 -33h-503l4 31l155 24l90 529h-462l-89 -529l148 -22l-2 -33h-504zM31 1194h139l8 -25l-149 -297h-35z" />
    <glyph glyph-name="Iotatonos" unicode="&#x38a;" horiz-adv-x="673" 
d="M61 0l5 31l157 26l185 1080l-152 24l8 33h506l-6 -31l-160 -26l-182 -1078l149 -26l-4 -33h-506zM47 1194h139l9 -25l-150 -297h-35z" />
    <glyph glyph-name="Omicrontonos" unicode="&#x38c;" horiz-adv-x="1120" 
d="M55 1194h140l8 -25l-150 -297h-35zM1178 743q-2 -108 -33.5 -217t-90 -206t-136 -172.5t-179 -119.5t-211.5 -44q-199 0 -313.5 125t-114.5 331q0 146 49.5 286t134 247.5t207.5 173t261 65.5q208 0 317 -123t109 -346zM555 47q92 0 170 65t127 170t76.5 232t27.5 256
q0 168 -58 274.5t-171 106.5q-93 0 -171.5 -66t-127.5 -171t-76.5 -230t-27.5 -250q0 -170 57 -278.5t174 -108.5z" />
    <glyph glyph-name="Upsilontonos" unicode="&#x38e;" horiz-adv-x="974" 
d="M170 0l6 31l172 32l51 338q13 89 13 168q0 197 -58 359t-141 196q-49 0 -92 -6l2 45q41 17 126.5 33t123.5 16q86 -43 140 -174.5t54 -371.5q0 -91 -4 -142h15q71 263 183.5 454.5t229.5 233.5q128 -16 166 -34l-8 -41q-89 -9 -172.5 -68.5t-145.5 -147t-113.5 -196
t-83 -214.5t-46.5 -204l-37 -244l158 -30l-4 -33h-535zM-66 1194h140l8 -25l-150 -297h-34z" />
    <glyph glyph-name="Omegatonos" unicode="&#x38f;" horiz-adv-x="1200" 
d="M92 1194h139l9 -25l-150 -297h-35zM1030 178l78 137h33l-41 -315h-412l-6 170q301 222 301 604q0 76 -13 141t-40 119.5t-75 85.5t-112 31q-82 0 -149 -43t-110 -112t-72 -160t-41.5 -182t-12.5 -183q0 -120 25 -181t96 -126l-45 -164h-389l43 315h31l35 -137h231l4 6
q-110 47 -177 149t-67 238q0 125 52 244t137 205.5t197.5 139t228.5 52.5q112 0 198 -33.5t139.5 -94t81 -140.5t27.5 -176q0 -128 -63 -249t-158 -205t-205 -132l-2 -4h252z" />
    <glyph glyph-name="iotadieresistonos" unicode="&#x390;" horiz-adv-x="485" 
d="M176 1077l-119 43q59 103 70 180l139 -18q-44 -141 -90 -205zM610 1077l-118 43q47 78 71 180l137 -18q-44 -141 -90 -205zM381 1454h139l27 -29l-201 -348l-39 2zM217 -16l-129 28l156 916h176l-137 -811l14 -11l147 105l19 -35z" />
    <glyph glyph-name="Alpha" unicode="&#x391;" horiz-adv-x="1046" 
d="M-20 0l4 31l106 45l615 1118h133l125 -1141l79 -20l-4 -33h-434l2 31l133 22l-28 402h-340l-199 -377l170 -45l-6 -33h-356zM401 512h306l-31 494h-10z" />
    <glyph glyph-name="Beta" unicode="&#x392;" horiz-adv-x="1032" 
d="M45 0l2 31l162 28l182 1076l-153 26l6 33h446q344 0 344 -262q0 -111 -73.5 -183.5t-192.5 -111.5v-6q106 -8 174 -68.5t68 -169.5q0 -183 -132.5 -288t-334.5 -105h-498zM403 61h103q137 0 219 82.5t82 233.5q0 108 -60 159.5t-188 51.5h-61zM506 645h74q113 0 180 77
t67 210q0 115 -43 162t-137 47h-59z" />
    <glyph glyph-name="Gamma" unicode="&#x393;" horiz-adv-x="890" 
d="M217 59l184 1076l-159 26l4 33h790l-47 -328h-31l-55 269h-301l-186 -1076l164 -26l-5 -33h-530l4 31z" />
    <glyph glyph-name="uni0394" unicode="&#x394;" horiz-adv-x="929" 
d="M12 0l-6 92l576 1102h159l150 -1112l-35 -82h-844zM565 1034l-430 -856h516l-76 856h-10z" />
    <glyph glyph-name="Epsilon" unicode="&#x395;" horiz-adv-x="978" 
d="M45 0l2 31l162 28l180 1076l-151 26l6 33h807l-50 -287h-53l-43 228h-317l-86 -500l372 12l-12 -84l-368 12l-91 -514h322l170 246l41 -6l-86 -301h-805z" />
    <glyph glyph-name="Zeta" unicode="&#x396;" horiz-adv-x="888" 
d="M37 0l-8 68l753 1065h-405l-135 -293h-47l61 354h754l6 -51l-783 -1082h449l149 291l50 -6l-74 -346h-770z" />
    <glyph glyph-name="Eta" unicode="&#x397;" horiz-adv-x="1296" 
d="M45 0l2 31l162 24l182 1082l-151 24l6 33h506l-9 -31l-155 -24l-86 -500h463l84 498l-150 24l6 33h506l-6 -31l-160 -24l-182 -1084l149 -22l-4 -33h-503l4 31l155 24l90 529h-462l-89 -529l148 -22l-2 -33h-504z" />
    <glyph glyph-name="Theta" unicode="&#x398;" horiz-adv-x="1120" 
d="M520 528l-45 -116h-37l58 376h39l6 -122h209l41 122h40l-59 -376h-37l-8 116h-207zM1178 743q-2 -108 -33.5 -217t-90 -206t-136 -172.5t-179 -119.5t-211.5 -44q-199 0 -313.5 125t-114.5 331q0 146 49.5 286t134 247.5t207.5 173t261 65.5q208 0 317 -123t109 -346z
M555 47q92 0 170 65t127 170t76.5 232t27.5 256q0 168 -58 274.5t-171 106.5q-93 0 -171.5 -66t-127.5 -171t-76.5 -230t-27.5 -250q0 -170 57 -278.5t174 -108.5z" />
    <glyph glyph-name="Iota" unicode="&#x399;" horiz-adv-x="673" 
d="M61 0l5 31l157 26l185 1080l-152 24l8 33h506l-6 -31l-160 -26l-182 -1078l149 -26l-4 -33h-506z" />
    <glyph glyph-name="Kappa" unicode="&#x39a;" horiz-adv-x="1062" 
d="M45 0l2 31l162 22l182 1082l-151 26l8 33h506l-9 -31l-157 -26l-182 -1084l147 -20l-2 -33h-506zM786 0l-251 563l6 33l446 526l-123 43l6 29h375l-8 -35l-158 -37l-383 -438l297 -616l94 -35l-4 -33h-297z" />
    <glyph glyph-name="Lambda" unicode="&#x39b;" horiz-adv-x="1042" 
d="M666 1006l-494 -928l170 -45l-6 -33h-356l4 31l106 45l615 1118h133l125 -1141l79 -20l-4 -33h-434l2 31l133 22l-63 953h-10z" />
    <glyph glyph-name="Mu" unicode="&#x39c;" horiz-adv-x="1513" 
d="M969 0l4 31l157 24l84 899h-8l-485 -972h-86l-160 1026h-8l-225 -924l157 -51l-4 -33h-379l4 31l142 51l264 1034l-133 45l8 33h352l138 -932h2l458 932h324l-6 -31l-146 -33l-88 -1077l127 -20l-4 -33h-489z" />
    <glyph glyph-name="Nu" unicode="&#x39d;" horiz-adv-x="1193" 
d="M23 0l6 31l139 49l176 1024l-127 57l6 33h291l438 -842h6l134 758l-166 51l6 33h387l-6 -31l-142 -47l-194 -1134h-76l-493 974h-9l-149 -874l172 -49l-6 -33h-393z" />
    <glyph glyph-name="Xi" unicode="&#x39e;" horiz-adv-x="968" 
d="M811 178l96 160l27 -10l-86 -328h-760l27 328l24 4l45 -154h627zM334 1016l-80 -146l-25 2l58 322h745l-49 -322l-27 -2l-20 146h-602zM397 541l-49 -113h-26l59 360h27l10 -112h317l49 112h29l-61 -360h-27l-10 113h-318z" />
    <glyph glyph-name="Omicron" unicode="&#x39f;" horiz-adv-x="1120" 
d="M1178 743q-2 -108 -33.5 -217t-90 -206t-136 -172.5t-179 -119.5t-211.5 -44q-199 0 -313.5 125t-114.5 331q0 146 49.5 286t134 247.5t207.5 173t261 65.5q208 0 317 -123t109 -346zM555 47q92 0 170 65t127 170t76.5 232t27.5 256q0 168 -58 274.5t-171 106.5
q-93 0 -171.5 -66t-127.5 -171t-76.5 -230t-27.5 -250q0 -170 57 -278.5t174 -108.5z" />
    <glyph glyph-name="Pi" unicode="&#x3a0;" horiz-adv-x="1269" 
d="M207 57l182 1078l-151 26l6 33h1136l-4 -31l-162 -26l-180 -1078l152 -26l-4 -33h-504l6 31l154 26l182 1078h-436l-183 -1076l150 -26l-4 -33h-502l4 31z" />
    <glyph glyph-name="Rho" unicode="&#x3a1;" horiz-adv-x="968" 
d="M45 0l2 31l160 26l184 1078l-151 26l6 33h493q138 0 230 -77t92 -208q0 -110 -38.5 -193t-107 -132.5t-155.5 -74t-191 -24.5h-92l-74 -428l162 -24l-4 -33h-516zM485 545h72q120 0 206.5 93t86.5 243q0 246 -176 249h-86z" />
    <glyph glyph-name="Sigma" unicode="&#x3a3;" horiz-adv-x="894" 
d="M440 1135l181 -531l-394 -424h521l102 168l24 -8l-79 -340h-768l-11 66l412 448l-215 623l20 57h758l-55 -354h-31l-74 295h-391z" />
    <glyph glyph-name="Tau" unicode="&#x3a4;" horiz-adv-x="905" 
d="M176 0l6 31l160 37l180 1065h-213l-141 -293h-49l61 354h910l-64 -354h-45l-55 293h-205l-180 -1065l149 -35l-6 -33h-508z" />
    <glyph glyph-name="Upsilon" unicode="&#x3a5;" horiz-adv-x="974" 
d="M170 0l6 31l172 32l51 338q13 89 13 168q0 197 -58 359t-141 196q-49 0 -92 -6l2 45q41 17 126.5 33t123.5 16q86 -43 140 -174.5t54 -371.5q0 -91 -4 -142h15q71 263 183.5 454.5t229.5 233.5q128 -16 166 -34l-8 -41q-89 -9 -172.5 -68.5t-145.5 -147t-113.5 -196
t-83 -214.5t-46.5 -204l-37 -244l158 -30l-4 -33h-535z" />
    <glyph glyph-name="Phi" unicode="&#x3a6;" horiz-adv-x="1175" 
d="M475 57l21 133q-191 4 -302.5 102.5t-111.5 254.5q0 227 148 354.5t401 145.5l20 131l-147 26l2 33h502l-4 -31l-162 -26l-19 -131q194 -4 303 -105t109 -258q0 -222 -145.5 -350t-403.5 -146l-20 -131l151 -26l-6 -33h-500l6 31zM815 995l-121 -751q155 5 245.5 122.5
t90.5 317.5q0 140 -53 223.5t-162 87.5zM289 547q0 -139 51.5 -220.5t163.5 -82.5l121 751q-153 -6 -244 -125.5t-92 -322.5z" />
    <glyph glyph-name="Chi" unicode="&#x3a7;" horiz-adv-x="1015" 
d="M565 0l6 31l129 28l-163 435l-312 -418l137 -43l-4 -33h-370l6 31l123 39l395 493l-211 574l-104 24l8 33h448l-8 -31l-125 -30l146 -394l278 379l-102 43l6 33h328l-7 -31l-135 -53l-344 -434l236 -621l100 -22l-6 -33h-455z" />
    <glyph glyph-name="Psi" unicode="&#x3a8;" horiz-adv-x="1312" 
d="M356 0l2 31l160 26l53 320q-364 32 -364 323q0 47 8 91l49 307h-141l4 32l231 64h115l-65 -410q-11 -71 -11 -106q0 -103 46 -157t141 -72l118 688l-124 24l6 33h454l-4 -31l-133 -26l-121 -695q145 12 213 96.5t103 299.5l55 356h109l217 -59l-9 -33h-137l-47 -295
q-15 -91 -51.5 -163t-85 -119t-112.5 -80t-128 -48.5t-137 -21.5l-55 -316l151 -26l-4 -33h-506z" />
    <glyph glyph-name="uni03A9" unicode="&#x3a9;" horiz-adv-x="1200" 
d="M1030 178l78 137h33l-41 -315h-412l-6 170q301 222 301 604q0 76 -13 141t-40 119.5t-75 85.5t-112 31q-82 0 -149 -43t-110 -112t-72 -160t-41.5 -182t-12.5 -183q0 -120 25 -181t96 -126l-45 -164h-389l43 315h31l35 -137h231l4 6q-110 47 -177 149t-67 238
q0 125 52 244t137 205.5t197.5 139t228.5 52.5q112 0 198 -33.5t139.5 -94t81 -140.5t27.5 -176q0 -128 -63 -249t-158 -205t-205 -132l-2 -4h252z" />
    <glyph glyph-name="Iotadieresis" unicode="&#x3aa;" horiz-adv-x="673" 
d="M61 0l5 31l157 26l185 1080l-152 24l8 33h506l-6 -31l-160 -26l-182 -1078l149 -26l-4 -33h-506zM375 1278l-121 43q57 97 72 182l141 -20q-49 -145 -92 -205zM715 1278l-121 43q57 97 72 182l141 -20q-49 -145 -92 -205z" />
    <glyph glyph-name="Upsilondieresis" unicode="&#x3ab;" horiz-adv-x="974" 
d="M170 0l6 31l172 32l51 338q13 89 13 168q0 197 -58 359t-141 196q-49 0 -92 -6l2 45q41 17 126.5 33t123.5 16q86 -43 140 -174.5t54 -371.5q0 -91 -4 -142h15q71 263 183.5 454.5t229.5 233.5q128 -16 166 -34l-8 -41q-89 -9 -172.5 -68.5t-145.5 -147t-113.5 -196
t-83 -214.5t-46.5 -204l-37 -244l158 -30l-4 -33h-535zM530 1278l-120 43q55 94 71 182l142 -20q-48 -143 -93 -205zM870 1278l-120 43q55 94 71 182l142 -20q-48 -143 -93 -205z" />
    <glyph glyph-name="alphatonos" unicode="&#x3ac;" horiz-adv-x="811" 
d="M575 -16l-114 28q3 167 24 320q-38 -77 -81.5 -140.5t-78 -99.5t-65 -61t-46 -34t-17.5 -9h-99q-24 91 -24 231q0 153 28.5 305.5t75.5 237.5q48 86 108 135t144 49q56 0 99.5 -49t64.5 -125q25 63 55 121l156 51l14 -37q-69 -141 -124 -351.5t-56 -432.5l18 -14l152 108
l14 -27zM270 152q158 121 234 290q24 127 59 236q-35 82 -85 121.5t-128 70.5q-49 -87 -75.5 -223.5t-26.5 -292.5q-3 -103 10 -198zM584 1454h139l25 -29l-199 -348l-41 2z" />
    <glyph glyph-name="epsilontonos" unicode="&#x3ad;" horiz-adv-x="661" 
d="M532 1454h140l24 -29l-198 -348l-41 2zM528 176l27 -18l-14 -142q-72 -32 -228 -32q-118 0 -189 60t-71 165q0 80 64.5 159t138.5 109l4 10q-97 100 -94 226q2 83 87 158t185 75q154 0 252 -45l-26 -149l-31 -13q-106 45 -256 45q-17 0 -31 -1t-23 -2t-21.5 -4.5
t-18 -5.5t-21.5 -8l-24 -9q-4 -70 25 -136t71 -88q93 21 158 21q42 0 65 -10q4 -41 -3 -90.5t-19 -67.5q-88 -3 -220 68q-107 -36 -159 -150q15 -71 64.5 -110t123.5 -39q120 0 184 24z" />
    <glyph glyph-name="etatonos" unicode="&#x3ae;" horiz-adv-x="874" 
d="M88 0l143 827l-6 17l-125 -8l-6 30l285 80l37 -20l-39 -226q208 246 328 246q92 0 92 -223q0 -80 -17 -213l-145 -934h-178l147 946q17 119 17 193q0 63 -11 90l-20 10q-103 -56 -223 -182l-107 -633h-172zM614 1454h140l24 -29l-198 -348l-41 2z" />
    <glyph glyph-name="iotatonos" unicode="&#x3af;" horiz-adv-x="485" 
d="M385 1454h139l25 -29l-199 -348l-41 2zM217 -16l-129 28l156 916h176l-137 -811l14 -11l147 105l19 -35z" />
    <glyph glyph-name="upsilondieresistonos" unicode="&#x3b0;" horiz-adv-x="804" 
d="M328 1077l-119 43q59 103 70 180l139 -18q-44 -141 -90 -205zM762 1077l-119 43q49 81 72 180l137 -18q-44 -141 -90 -205zM532 1454h140l26 -29l-200 -348l-39 2zM135 254q3 202 92 592l-10 14l-162 -16l-4 35l268 73q56 -21 101 -59q-167 -326 -219 -612
q110 -106 264 -117q28 -3 57 8q85 127 121 262q38 137 35 262l-156 176l8 41q14 6 87 19.5t108 13.5q49 -88 49 -264q0 -96 -29.5 -199t-79 -190t-108.5 -157.5t-122 -111t-116 -40.5q-87 0 -135.5 72t-48.5 198z" />
    <glyph glyph-name="alpha" unicode="&#x3b1;" horiz-adv-x="811" 
d="M575 -16l-114 28q3 167 24 320q-38 -77 -81.5 -140.5t-78 -99.5t-65 -61t-46 -34t-17.5 -9h-99q-24 91 -24 231q0 153 28.5 305.5t75.5 237.5q48 86 108 135t144 49q56 0 99.5 -49t64.5 -125q25 63 55 121l156 51l14 -37q-69 -141 -124 -351.5t-56 -432.5l18 -14l152 108
l14 -27zM270 152q158 121 234 290q24 127 59 236q-35 82 -85 121.5t-128 70.5q-49 -87 -75.5 -223.5t-26.5 -292.5q-3 -103 10 -198z" />
    <glyph glyph-name="beta" unicode="&#x3b2;" horiz-adv-x="804" 
d="M152 -424h-146l246 1511q25 152 116.5 257.5t200.5 105.5q62 0 107 -23.5t68 -63.5t33.5 -82t10.5 -89q0 -65 -21 -124.5t-61.5 -111.5t-77.5 -88t-91 -82q95 -82 159 -202.5t64 -237.5q0 -82 -52.5 -166.5t-133 -139t-156.5 -54.5q-110 0 -193 45zM397 1090l-141 -873
q130 -100 256 -100q67 0 115 59q3 108 -56.5 249t-136.5 212l-6 70q195 262 195 444q0 175 -103 248q-44 -38 -76 -125t-47 -184z" />
    <glyph glyph-name="gamma" unicode="&#x3b3;" horiz-adv-x="772" 
d="M678 944q44 2 93 -9t73 -34q-3 -36 -183 -394t-262 -501q-24 -218 -53 -424q-57 -22 -117 -22q-40 0 -86 8l123 467q-14 236 -51 462t-72 334l-16 11l-94 -2l-2 39l254 67l43 -10q27 -127 46.5 -357.5t22.5 -451.5h17q17 28 138.5 409.5t125.5 407.5z" />
    <glyph glyph-name="delta" unicode="&#x3b4;" horiz-adv-x="755" 
d="M70 317q0 165 93.5 339t229.5 251q-54 78 -79.5 117t-50.5 99t-25 110q0 111 87.5 166t217.5 55q84 0 167.5 -24t127.5 -62l-64 -182l-29 -8q-65 48 -146 78t-161 30q-44 0 -75 -11.5t-62 -39.5q5 -25 46 -81.5t95 -129t107.5 -155.5t90 -181.5t36.5 -187.5
q0 -131 -48.5 -249t-137 -192.5t-195.5 -74.5q-115 0 -170 89.5t-55 243.5zM498 127q57 142 57 270q3 207 -86 389q-136 -63 -218 -163t-120 -279q52 -90 131 -149t172 -68q37 -3 64 0z" />
    <glyph glyph-name="epsilon" unicode="&#x3b5;" horiz-adv-x="661" 
d="M528 176l27 -18l-14 -142q-72 -32 -228 -32q-118 0 -189 60t-71 165q0 80 64.5 159t138.5 109l4 10q-97 100 -94 226q2 83 87 158t185 75q154 0 252 -45l-26 -149l-31 -13q-106 45 -256 45q-17 0 -31 -1t-23 -2t-21.5 -4.5t-18 -5.5t-21.5 -8l-24 -9q-4 -70 25 -136
t71 -88q93 21 158 21q42 0 65 -10q4 -41 -3 -90.5t-19 -67.5q-88 -3 -220 68q-107 -36 -159 -150q15 -71 64.5 -110t123.5 -39q120 0 184 24z" />
    <glyph glyph-name="zeta" unicode="&#x3b6;" horiz-adv-x="634" 
d="M240 1440h34q81 -37 186 -60.5t199 -23.5q47 0 91 6q13 -66 10 -123q-70 -64 -132 -130t-139 -169t-130.5 -206.5t-88.5 -237t-32 -265.5q17 -30 66 -53.5t100.5 -37.5t106 -37.5t79.5 -51.5q-14 -106 -76.5 -235.5t-110.5 -177.5l-32 14q84 161 98 254q-29 32 -227 90
q-93 28 -130.5 77.5t-37.5 164.5q0 125 53 263t142 264.5t184 232.5t200 200l-4 12q-46 -4 -80 -4q-96 0 -199 15t-173 45z" />
    <glyph glyph-name="eta" unicode="&#x3b7;" horiz-adv-x="874" 
d="M88 0l143 827l-6 17l-125 -8l-6 30l285 80l37 -20l-39 -226q208 246 328 246q92 0 92 -223q0 -80 -17 -213l-145 -934h-178l147 946q17 119 17 193q0 63 -11 90l-20 10q-103 -56 -223 -182l-107 -633h-172z" />
    <glyph glyph-name="theta" unicode="&#x3b8;" horiz-adv-x="757" 
d="M287 -16q-56 0 -97 32t-64.5 88t-34.5 123t-11 146q0 191 40.5 389t104.5 349t147 247t163 96q113 0 175 -100t62 -271q0 -185 -43.5 -384.5t-111 -355.5t-156.5 -257.5t-174 -101.5zM446 152q43 66 88 196t80 283l-413 80q-32 -205 -29 -336q0 -70 2 -101
q43 -55 114 -87t158 -35zM383 1282q-45 -59 -92 -200.5t-78 -309.5l432 6q27 165 27 266q0 28 -4 74q-42 76 -117 120t-168 44z" />
    <glyph glyph-name="iota" unicode="&#x3b9;" horiz-adv-x="485" 
d="M217 -16l-129 28l156 916h176l-137 -811l14 -11l147 105l19 -35z" />
    <glyph glyph-name="kappa" unicode="&#x3ba;" horiz-adv-x="839" 
d="M659 799l-143 -185l156 -483l20 -6l129 84l15 -29l-238 -192l-82 22l-127 439l-61 -78l-64 -371h-170l146 842l-9 12l-129 -6l-4 31l277 67l51 -20l-80 -457l232 336q57 79 98 109t92 30q46 0 92 -16l-39 -174h-39z" />
    <glyph glyph-name="lambda" unicode="&#x3bb;" horiz-adv-x="753" 
d="M541 0l-76 715l-279 -715h-178l-12 33l446 901l-24 244q-5 67 -37 122q-152 -11 -246 -63l-26 6l-23 180q75 33 162 33q81 0 156.5 -70t89.5 -198l112 -1018q23 -1 42.5 1.5t29 5.5t27 9.5t24.5 8.5l10 -15q-17 -53 -64.5 -110t-99.5 -86z" />
    <glyph glyph-name="uni03BC" unicode="&#x3bc;" horiz-adv-x="819" 
d="M-47 -424l213 1352h172l-94 -609q-19 -134 -17 -188l23 -10q117 55 244 196l98 611h176l-133 -805l16 -14l144 106l18 -33l-240 -198l-124 28l34 228q-93 -113 -185.5 -184.5t-160.5 -71.5q-24 0 -38 11.5t-25 39.5l-13 -10q31 -65 53.5 -167t10.5 -188l-14 -94h-158z
" />
    <glyph glyph-name="nu" unicode="&#x3bd;" horiz-adv-x="749" 
d="M549 846l4 51l29 13q29 13 60.5 23.5t51.5 10.5q40 -6 62 -53t22 -119q0 -58 -29 -142.5t-63.5 -155.5t-98 -177.5t-95.5 -155t-93 -141.5l-174 -16q-4 65 -35.5 448.5t-35.5 401.5l-13 10l-108 -4l-2 39l264 67l43 -10q5 -31 27.5 -400t21.5 -421h19q73 111 154.5 293.5
t92.5 277.5z" />
    <glyph glyph-name="xi" unicode="&#x3be;" horiz-adv-x="598" 
d="M205 1077q0 156 98.5 265.5t257.5 109.5q117 0 209 -66l-55 -165l-35 -7q-115 64 -213 64q-56 0 -95.5 -20.5t-80.5 -67.5q-4 -58 -4 -92q0 -233 88 -318q99 45 223 60q9 -21 1.5 -90t-26.5 -103q-10 -2 -41 2q-71 2 -165 58q-94 -65 -142.5 -171t-48.5 -227
q0 -62 12 -106q5 -2 63.5 -18.5t97.5 -28.5t93.5 -30t91 -34.5t50.5 -30.5q-18 -119 -80.5 -239t-104.5 -162l-28 21q75 132 84 239q-8 8 -75.5 27t-149.5 41.5t-111 34.5q-53 45 -53 215q0 135 59 268.5t178 224.5l2 8q-100 126 -100 338z" />
    <glyph glyph-name="omicron" unicode="&#x3bf;" horiz-adv-x="716" 
d="M481 145q108 129 111 351q0 40 -6 90q-44 88 -112 144.5t-152 62.5q-27 0 -52 -11q-60 -54 -88 -147t-30 -193q0 -69 16 -131q37 -70 112 -119.5t152 -54.5q28 0 49 8zM293 -16q-109 0 -164 104t-55 266q0 153 46 287.5t133.5 219.5t197.5 85q112 0 175.5 -102.5
t63.5 -272.5q0 -141 -53 -276.5t-146 -223t-198 -87.5z" />
    <glyph glyph-name="pi" unicode="&#x3c0;" horiz-adv-x="884" 
d="M113 748l-7 28l64 152h717l-23 -180h-166l-75 -555l10 -15q11 0 71 8t70 11l6 -15q-32 -45 -112.5 -106.5t-157.5 -91.5l-35 16l117 748h-236l-86 -535q-9 -57 -28 -106t-56.5 -86t-85.5 -37q-34 0 -55.5 34.5t-24.5 98.5l7 18h96q34 0 51 20.5t27 80.5l88 512h-176z" />
    <glyph glyph-name="rho" unicode="&#x3c1;" horiz-adv-x="759" 
d="M301 -14q-57 0 -113 16l-47 -426h-153l112 686q19 139 55.5 261t88.5 217.5t122 150.5t148 55q102 0 157.5 -104.5t55.5 -261.5q0 -150 -58 -287t-157 -222t-211 -85zM225 342l-16 -156q64 -38 131.5 -61t114.5 -23q80 65 125 183t45 243q0 43 -7 97q-50 79 -113.5 116
t-148.5 47q-99 -137 -131 -446z" />
    <glyph glyph-name="sigma1" unicode="&#x3c2;" horiz-adv-x="634" 
d="M289 795q-103 -163 -103 -418q0 -77 21 -180q27 -10 114.5 -35t160.5 -51.5t108 -53.5q-7 -86 -78.5 -222.5t-122.5 -184.5l-31 16q101 178 117 264q-10 8 -161 43t-193 58q-21 24 -34 87.5t-13 139.5q0 132 33 271t96 243q101 174 254 174q103 0 202 -45
q-4 -109 -34 -174l-33 -12q-53 36 -122 59.5t-130 26.5q-21 0 -51 -6z" />
    <glyph glyph-name="sigma" unicode="&#x3c3;" horiz-adv-x="784" 
d="M764 705q-67 23 -146 43q44 -103 44 -230q0 -130 -43 -250t-129.5 -202t-196.5 -82q-107 0 -162 104.5t-55 265.5q0 114 28.5 220.5t79.5 189t126.5 132.5t162.5 50q207 0 334 -24q0 -131 -10 -195zM578 573q0 103 -17 187q-109 20 -205 20q-43 3 -100 -12
q-94 -89 -104 -324q-3 -79 10 -139q59 -79 114 -114.5t130 -38.5q32 0 55 4q117 148 117 417z" />
    <glyph glyph-name="tau" unicode="&#x3c4;" horiz-adv-x="643" 
d="M657 752h-260q-99 -282 -108 -516v-74q1 0 10.5 -6.5t11.5 -8.5q8 -1 18 -1t22.5 0.5t19.5 0.5q77 8 170 62l14 -27q-67 -83 -145.5 -140.5t-153.5 -57.5q-60 0 -90.5 42.5t-30.5 108.5q0 110 60 278.5t145 338.5h-303l-12 28l65 148h592z" />
    <glyph glyph-name="upsilon" unicode="&#x3c5;" horiz-adv-x="804" 
d="M135 254q3 202 92 592l-10 14l-162 -16l-4 35l268 73q56 -21 101 -59q-167 -326 -219 -612q110 -106 264 -117q28 -3 57 8q85 127 121 262q38 137 35 262l-156 176l8 41q14 6 87 19.5t108 13.5q49 -88 49 -264q0 -96 -29.5 -199t-79 -190t-108.5 -157.5t-122 -111
t-116 -40.5q-87 0 -135.5 72t-48.5 198z" />
    <glyph glyph-name="phi" unicode="&#x3c6;" horiz-adv-x="995" 
d="M971 600q0 -130 -65.5 -263t-176 -228.5t-233.5 -118.5l-45 -414h-164l61 412q-147 17 -209.5 103.5t-62.5 258.5q0 165 62 319t155 259h188l6 -33q-134 -93 -235 -238t-111 -301q0 -53 6 -82q84 -70 226 -116l28 188q16 115 50.5 221.5t84 192t118.5 137t145 51.5
q82 0 127 -87t45 -261zM537 365l-27 -238q101 -12 145 -10q88 71 138 203.5t53 269.5q3 52 -6 102q-33 44 -91 73.5t-124 33.5q-13 -16 -24 -45.5t-19.5 -76.5t-14.5 -88.5t-15 -110.5t-15 -113z" />
    <glyph glyph-name="chi" unicode="&#x3c7;" horiz-adv-x="731" 
d="M408 -436l-29 12l-33 584l-272 -584h-158l-10 27l391 706l-111 488l-166 34l-2 35l261 78l26 -12l35 -539l252 537h170l16 -35l-385 -641l88 -500l168 10l15 -36z" />
    <glyph glyph-name="psi" unicode="&#x3c8;" horiz-adv-x="1077" 
d="M575 1200h179l-181 -1034q44 -6 82 -6q55 0 78 6q85 71 148 209.5t63 230.5q0 50 -6 90l-113 164l4 49q120 37 193 37q35 -75 35 -190q0 -113 -42 -239.5t-110 -234t-164 -188t-196 -102.5l-72 -414h-76l45 408q-142 6 -218.5 86.5t-76.5 259.5q0 96 15.5 208.5
t50.5 309.5l-14 12l-146 -18l-4 35l262 73q19 -5 50.5 -26t41.5 -37q-87 -176 -129 -311.5t-63 -292.5q88 -57 254 -97z" />
    <glyph glyph-name="omega" unicode="&#x3c9;" horiz-adv-x="1075" 
d="M1024 512q0 -130 -50.5 -254t-128.5 -199t-157 -75q-74 0 -119 48t-69 140h-6q-44 -76 -107 -132t-131 -56q-63 0 -105 44t-59.5 116t-17.5 171q0 202 93.5 369.5t235.5 261.5l97 -88l-2 -43q-154 -80 -245 -192t-101 -277q0 -55 8 -86q74 -90 233 -90q25 0 41 4
q24 15 31 39q-14 77 -14 152q0 126 28 245q43 17 99 17q63 0 102 -17q-13 -88 -56 -211.5t-89 -191.5l8 -27q73 -37 153 -37q16 0 29.5 1t26.5 3.5t21 4t21.5 6t18 6.5t20 8t19.5 8q49 69 49 180q2 152 -39 294t-133 239l23 35h149q123 -156 123 -416z" />
    <glyph glyph-name="iotadieresis" unicode="&#x3ca;" horiz-adv-x="485" 
d="M250 1151l-121 43q61 104 72 182l141 -20q-48 -141 -92 -205zM549 1151l-121 43q49 84 72 182l141 -20q-48 -141 -92 -205zM217 -16l-129 28l156 916h176l-137 -811l14 -11l147 105l19 -35z" />
    <glyph glyph-name="upsilondieresis" unicode="&#x3cb;" horiz-adv-x="804" 
d="M420 1151l-121 43q61 104 72 182l141 -20q-48 -141 -92 -205zM719 1151l-121 43q49 84 72 182l141 -20q-48 -141 -92 -205zM135 254q3 202 92 592l-10 14l-162 -16l-4 35l268 73q56 -21 101 -59q-167 -326 -219 -612q110 -106 264 -117q28 -3 57 8q85 127 121 262
q38 137 35 262l-156 176l8 41q14 6 87 19.5t108 13.5q49 -88 49 -264q0 -96 -29.5 -199t-79 -190t-108.5 -157.5t-122 -111t-116 -40.5q-87 0 -135.5 72t-48.5 198z" />
    <glyph glyph-name="omicrontonos" unicode="&#x3cc;" horiz-adv-x="716" 
d="M520 1454h139l25 -29l-199 -348l-41 2zM481 145q108 129 111 351q0 40 -6 90q-44 88 -112 144.5t-152 62.5q-27 0 -52 -11q-60 -54 -88 -147t-30 -193q0 -69 16 -131q37 -70 112 -119.5t152 -54.5q28 0 49 8zM293 -16q-109 0 -164 104t-55 266q0 153 46 287.5
t133.5 219.5t197.5 85q112 0 175.5 -102.5t63.5 -272.5q0 -141 -53 -276.5t-146 -223t-198 -87.5z" />
    <glyph glyph-name="upsilontonos" unicode="&#x3cd;" horiz-adv-x="804" 
d="M549 1454h139l25 -29l-199 -348l-41 2zM135 254q3 202 92 592l-10 14l-162 -16l-4 35l268 73q56 -21 101 -59q-167 -326 -219 -612q110 -106 264 -117q28 -3 57 8q85 127 121 262q38 137 35 262l-156 176l8 41q14 6 87 19.5t108 13.5q49 -88 49 -264q0 -96 -29.5 -199
t-79 -190t-108.5 -157.5t-122 -111t-116 -40.5q-87 0 -135.5 72t-48.5 198z" />
    <glyph glyph-name="omegatonos" unicode="&#x3ce;" horiz-adv-x="1075" 
d="M668 1454h139l24 -29l-198 -348l-41 2zM1024 512q0 -130 -50.5 -254t-128.5 -199t-157 -75q-74 0 -119 48t-69 140h-6q-44 -76 -107 -132t-131 -56q-63 0 -105 44t-59.5 116t-17.5 171q0 202 93.5 369.5t235.5 261.5l97 -88l-2 -43q-154 -80 -245 -192t-101 -277
q0 -55 8 -86q74 -90 233 -90q25 0 41 4q24 15 31 39q-14 77 -14 152q0 126 28 245q43 17 99 17q63 0 102 -17q-13 -88 -56 -211.5t-89 -191.5l8 -27q73 -37 153 -37q16 0 29.5 1t26.5 3.5t21 4t21.5 6t18 6.5t20 8t19.5 8q49 69 49 180q2 152 -39 294t-133 239l23 35h149
q123 -156 123 -416z" />
    <glyph glyph-name="uni03D8" unicode="&#x3d8;" horiz-adv-x="1120" 
d="M1176 743q-2 -124 -43.5 -248t-112.5 -228t-175 -178t-222 -95l-74 -416h-187l76 414q-160 26 -250 145.5t-90 302.5q0 146 49.5 286t134 247.5t207.5 173t261 65.5q208 0 317 -123t109 -346zM553 47q92 0 170 65t127 170t76.5 232t27.5 256q0 168 -58 274.5t-171 106.5
q-93 0 -171.5 -66t-127.5 -171t-76.5 -230t-27.5 -250q0 -170 57 -278.5t174 -108.5z" />
    <glyph glyph-name="uni03D9" unicode="&#x3d9;" horiz-adv-x="716" 
d="M156 -422l69 420q-76 29 -113.5 125.5t-37.5 230.5q0 153 46 287.5t133.5 219.5t197.5 85q112 0 175.5 -102.5t63.5 -272.5q0 -180 -85 -344t-210 -221l-73 -428h-166zM481 145q108 129 111 351q0 40 -6 90q-44 88 -112 144.5t-152 62.5q-27 0 -52 -11q-60 -54 -88 -147
t-30 -193q0 -69 16 -131q37 -70 112 -119.5t152 -54.5q28 0 49 8z" />
    <glyph glyph-name="uni03DA" unicode="&#x3da;" horiz-adv-x="790" 
d="M807 786h-285q-63 0 -110 -26.5t-73 -66.5t-41 -98.5t-19.5 -108.5t-4.5 -111q0 -103 58.5 -159t161.5 -58l202 -6q27 -9 27 -54q0 -48 -56.5 -168.5t-122 -228.5t-95.5 -137l-52 18q53 88 124 230t79 188h-96q-402 0 -402 344q0 122 43 231.5t111.5 184t155.5 118.5
t174 44l202 51h50z" />
    <glyph glyph-name="uni03DB" unicode="&#x3db;" horiz-adv-x="790" 
d="M807 786h-285q-63 0 -110 -26.5t-73 -66.5t-41 -98.5t-19.5 -108.5t-4.5 -111q0 -103 58.5 -159t161.5 -58l202 -6q27 -9 27 -54q0 -48 -56.5 -168.5t-122 -228.5t-95.5 -137l-52 18q52 86 122.5 228.5t78.5 189.5h-94q-402 0 -402 344q0 122 43 231.5t111.5 184
t155.5 118.5t174 44l202 51h50z" />
    <glyph glyph-name="uni03DC" unicode="&#x3dc;" horiz-adv-x="837" 
d="M336 0h-215l207 1194h692l-10 -59h-475l-91 -521l392 15l-15 -86l-389 12z" />
    <glyph glyph-name="uni03DD" unicode="&#x3dd;" horiz-adv-x="784" 
d="M98 -424l238 1352h569l-10 -62h-369l-88 -489l287 12l-12 -84l-283 14l-131 -743h-201z" />
    <glyph glyph-name="uni03DE" unicode="&#x3de;" horiz-adv-x="823" 
d="M451 -137h-89l330 633h-555l377 698h90l-274 -510h561z" />
    <glyph glyph-name="uni03DF" unicode="&#x3df;" horiz-adv-x="823" 
d="M502 0h-90l286 535h-555l355 659h86l-254 -471h565z" />
    <glyph glyph-name="uni03E0" unicode="&#x3e0;" horiz-adv-x="1304" 
d="M1096 -416h-191q56 305 56 477q0 116 -25 250l-533 -366l-38 51l553 385q-41 137 -105 227l-569 -387l-35 49l563 385q-52 69 -100.5 113.5t-123 83t-179 59t-248.5 25.5l4 63q16 0 70 -1t67 -1q226 -12 398.5 -84t280.5 -193.5t162 -281.5t54 -356q0 -152 -61 -498z" />
    <glyph glyph-name="uni03E1" unicode="&#x3e1;" horiz-adv-x="1036" 
d="M733 -518l-164 57q84 173 132 321t59 312l-547 -213l-16 61l563 220q-4 169 -35 264l-588 -225l-14 57l579 229q-78 174 -200.5 289.5t-327.5 177.5l21 60q205 -51 355 -133t239.5 -189t131.5 -229.5t42 -266.5q0 -197 -58.5 -389t-171.5 -403z" />
    <glyph glyph-name="uni0400" unicode="&#x400;" horiz-adv-x="978" 
d="M444 1444l84 94l306 -244l-9 -16l-381 139v27zM45 0l2 31l162 28l180 1076l-151 26l6 33h807l-50 -287h-53l-43 228h-317l-86 -500l372 12l-12 -84l-368 12l-91 -514h322l170 246l41 -6l-86 -301h-805z" />
    <glyph glyph-name="afii10023" unicode="&#x401;" horiz-adv-x="978" 
d="M590 1278l-121 43q57 97 72 182l141 -20q-49 -145 -92 -205zM930 1278l-121 43q57 97 72 182l141 -20q-49 -145 -92 -205zM45 0l2 31l162 28l180 1076l-151 26l6 33h807l-50 -287h-53l-43 228h-317l-86 -500l372 12l-12 -84l-368 12l-91 -514h322l170 246l41 -6l-86 -301
h-805z" />
    <glyph glyph-name="afii10051" unicode="&#x402;" horiz-adv-x="1181" 
d="M954 1133h-249l-82 -486q143 41 239 41q156 0 231.5 -71.5t75.5 -196.5q0 -102 -31 -187t-82.5 -138.5t-115 -83t-131.5 -29.5q-98 0 -172 43l37 233h37l32 -201q0 -1 7.5 -4t22 -5.5t30.5 -2.5q70 0 112.5 101t42.5 253q0 50 -7 88t-23.5 70.5t-49.5 50t-81 17.5
q-81 0 -185 -39l-102 -586h-338l4 31l148 26l182 1076h-184l-150 -293h-37l55 354h918l-53 -324h-33z" />
    <glyph glyph-name="afii10052" unicode="&#x403;" horiz-adv-x="894" 
d="M893 1538l84 -94v-27l-379 -139l-10 14zM217 57l184 1078l-159 26l6 33h788l-53 -354h-29l-80 293h-276l-182 -1074l159 -26l-4 -33h-524l4 31z" />
    <glyph glyph-name="afii10053" unicode="&#x404;" horiz-adv-x="999" 
d="M1042 829h-41l-55 279q-66 47 -174 47q-122 0 -216 -71t-149 -187.5t-77 -269.5l479 16l-16 -92l-471 18q0 -17 -1.5 -50.5t-1.5 -49.5q0 -194 84.5 -310t235.5 -116q80 0 159 59.5t120 133.5h36l-30 -173q-162 -79 -328 -79q-229 0 -365.5 119t-136.5 352
q0 201 91.5 375t252.5 278t353 104q77 0 143 -13.5t91 -23.5t65 -30z" />
    <glyph glyph-name="afii10054" unicode="&#x405;" horiz-adv-x="843" 
d="M354 -16q-153 0 -293 73l50 308h51l41 -248q51 -37 96.5 -50.5t106.5 -13.5q94 0 167.5 61t73.5 171q0 49 -24 88t-62 65t-84 50t-92 50.5t-84 58.5t-62 82t-24 114q0 176 124.5 297.5t289.5 121.5q89 0 164 -20.5t122 -52.5l-49 -295h-53l-37 250q-35 27 -69 36t-89 9
q-96 0 -167.5 -61.5t-71.5 -145.5q0 -44 19.5 -80t50.5 -60t71.5 -48t82.5 -44t82.5 -47.5t71.5 -59t50.5 -79t19.5 -106.5q0 -82 -26.5 -152t-71.5 -119.5t-105.5 -84.5t-129 -51.5t-140.5 -16.5z" />
    <glyph glyph-name="afii10055" unicode="&#x406;" horiz-adv-x="673" 
d="M53 0l4 31l158 26l184 1080l-149 24l6 33h506l-6 -31l-158 -26l-184 -1078l151 -26l-4 -33h-508z" />
    <glyph glyph-name="afii10056" unicode="&#x407;" horiz-adv-x="673" 
d="M53 0l4 31l158 26l184 1080l-149 24l6 33h506l-6 -31l-158 -26l-184 -1078l151 -26l-4 -33h-508zM379 1278l-121 43q57 97 72 182l141 -20q-49 -145 -92 -205zM719 1278l-121 43q57 97 72 182l143 -20q-55 -151 -94 -205z" />
    <glyph glyph-name="afii10057" unicode="&#x408;" horiz-adv-x="745" 
d="M258 -18q-141 0 -248 47l58 342h55l24 -299q1 0 14.5 -4.5t28 -9t32.5 -8t30 -3.5q125 0 164 244l143 844l-149 26l4 33h514l-4 -31l-166 -26l-140 -824q-24 -145 -132 -238t-228 -93z" />
    <glyph glyph-name="afii10058" unicode="&#x409;" horiz-adv-x="1386" 
d="M475 0l6 31l156 26l186 1076h-215q-107 -487 -276 -895q-22 -51 -37 -81t-42.5 -67.5t-58 -57.5t-79 -34t-109.5 -14l25 190l32 14h179q206 455 297 926l-181 47l7 33h821l-6 -31l-172 -26l-72 -432h147q154 0 241 -72t87 -205q0 -192 -136 -310t-364 -118h-436z
M1018 643h-92l-101 -582h84q136 0 218.5 93.5t82.5 261.5q0 105 -50 166t-142 61z" />
    <glyph glyph-name="afii10059" unicode="&#x40a;" horiz-adv-x="1609" 
d="M700 0l5 31l157 24l88 527h-461l-88 -527l148 -22l-4 -33h-504l2 31l162 24l184 1082l-151 24l6 33h504l-5 -31l-157 -24l-86 -498h461l86 496l-150 24l6 33h504l-4 -31l-158 -26l-90 -496h152q157 0 242 -67t85 -193q0 -172 -133.5 -276.5t-359.5 -104.5h-441zM1243 582
h-98l-86 -521h78q130 0 209 79t79 229q0 210 -182 213z" />
    <glyph glyph-name="afii10060" unicode="&#x40b;" horiz-adv-x="1263" 
d="M958 1133h-245l-82 -488q150 43 241 43q150 0 216.5 -60.5t66.5 -181.5q0 -49 -8 -96l-51 -291l143 -26l-2 -33h-475l4 31l131 26l57 344q9 61 9 80q0 144 -154 144q-72 0 -188 -35l-93 -531l140 -26l-2 -33h-494l2 31l160 26l182 1076h-201l-145 -293h-35l55 354h916
l-51 -324h-33z" />
    <glyph glyph-name="afii10061" unicode="&#x40c;" horiz-adv-x="1118" 
d="M952 1526l84 -94v-27l-379 -139l-10 14zM590 1137l-86 -500h143l178 344q70 135 118.5 183t119.5 48q60 0 111 -28l-56 -193h-24l-148 84l-203 -389l228 -618l106 -35l-4 -33h-297l-196 580h-86l-88 -521l147 -26l-4 -33h-504l4 31l158 26l180 1078l-149 26l4 33h491
l-4 -31z" />
    <glyph glyph-name="uni040D" unicode="&#x40d;" horiz-adv-x="1308" 
d="M512 1444l84 94l305 -244l-8 -16l-381 139v27zM588 1137l-139 -809l587 643l25 164l-148 26l7 33h499l-6 -31l-153 -26l-187 -1078l152 -26l-4 -33h-506l6 31l158 26l139 805l-584 -635l-33 -168l152 -26l-4 -33h-504l4 31l158 26l184 1078l-149 26l4 33h506l-4 -31z" />
    <glyph glyph-name="afii10062" unicode="&#x40e;" horiz-adv-x="1015" 
d="M700 1350q-124 0 -204.5 71.5t-67.5 149.5l164 57h31l-31 -186q31 -45 117 -45q89 0 131 45l30 186h31l143 -57q-15 -90 -116.5 -155.5t-227.5 -65.5zM442 1135l205 -666l328 645l-166 47l6 33h356l-4 -31l-100 -33l-440 -823q-55 -102 -93 -158.5t-85 -97.5t-98.5 -55
t-127.5 -14l29 180l31 14h190l49 86l-289 883l-71 16l6 33h420l-4 -31z" />
    <glyph glyph-name="afii10145" unicode="&#x40f;" horiz-adv-x="1267" 
d="M1217 1137l-187 -1078l152 -26l-4 -33h-494l-16 -287h-199l76 287h-504l4 31l160 26l184 1078l-149 26l4 33h499l-4 -31l-155 -26l-185 -1076h437l184 1074l-143 26l4 33h499l-4 -31z" />
    <glyph glyph-name="afii10017" unicode="&#x410;" horiz-adv-x="1046" 
d="M-16 0l4 31l106 45l613 1118h135l123 -1141l82 -20l-7 -33h-432l2 31l133 22l-28 402h-340l-201 -377l170 -45l-4 -33h-356zM406 512h305l-33 494h-10z" />
    <glyph glyph-name="afii10018" unicode="&#x411;" horiz-adv-x="1017" 
d="M891 1133h-299l-70 -431h66q426 0 426 -278q0 -84 -26 -154t-70.5 -119.5t-104 -84t-126.5 -50.5t-138 -16h-504l4 31l162 26l184 1078l-153 26l4 33h798l-49 -317h-28zM555 641h-43l-102 -580h110q55 0 104 19t90.5 57.5t66 106.5t24.5 157q0 133 -58 186.5t-192 53.5z
" />
    <glyph glyph-name="afii10019" unicode="&#x412;" horiz-adv-x="1036" 
d="M45 0l2 31l162 28l182 1076l-153 26l6 33h446q344 0 344 -262q0 -111 -73.5 -183.5t-192.5 -111.5v-6q106 -8 174 -68.5t68 -169.5q0 -183 -132.5 -288t-334.5 -105h-498zM403 61h103q137 0 219 82.5t82 233.5q0 108 -60 159.5t-188 51.5h-61zM506 645h74q113 0 180 77
t67 210q0 115 -43 162t-137 47h-59z" />
    <glyph glyph-name="afii10020" unicode="&#x413;" horiz-adv-x="894" 
d="M217 57l184 1078l-159 26l6 33h788l-53 -354h-29l-80 293h-276l-182 -1074l159 -26l-4 -33h-524l4 31z" />
    <glyph glyph-name="afii10021" unicode="&#x414;" horiz-adv-x="1091" 
d="M860 0h-680l-164 -293h-43l54 354h133q121 239 229.5 522t167.5 531l-180 47l4 33h805l-4 -31l-170 -26l-181 -1076h199l-55 -354h-39zM231 61h404l182 1072h-184q-70 -281 -188 -597.5t-214 -474.5z" />
    <glyph glyph-name="afii10022" unicode="&#x415;" horiz-adv-x="978" 
d="M45 0l2 31l162 28l180 1076l-151 26l6 33h807l-50 -287h-53l-43 228h-317l-86 -500l372 12l-12 -84l-368 12l-91 -514h322l170 246l41 -6l-86 -301h-805z" />
    <glyph glyph-name="afii10024" unicode="&#x416;" horiz-adv-x="1513" 
d="M635 57l84 514h-94l-342 -571h-297l6 33l119 35l389 620l-76 387l-160 -86h-28l8 195q58 28 106 28q35 0 58.5 -8.5t39.5 -22.5t28.5 -46t20.5 -63.5t19 -90.5l66 -350h147l86 504l-137 26l6 33h471l-4 -31l-145 -26l-86 -506h147l176 366q61 128 107 171.5t120 43.5
q56 0 107 -28l-55 -193h-25l-139 84l-195 -395l207 -612l109 -35l-6 -33h-291l-176 571h-97l-84 -512l138 -26l-5 -33h-473l4 31z" />
    <glyph glyph-name="afii10025" unicode="&#x417;" horiz-adv-x="882" 
d="M389 43q110 0 181 91t71 233q0 158 -121 204l-217 -12l14 90l218 -18q62 30 106.5 117t44.5 204q0 201 -156 201q-77 0 -147 -53l-133 -256h-49l47 301q58 24 153 45.5t179 21.5q134 0 222.5 -70.5t88.5 -189.5q0 -113 -63 -208.5t-160 -127.5v-4q25 -5 52 -20t56.5 -41
t48.5 -71t19 -101q0 -166 -123.5 -280.5t-333.5 -114.5q-67 0 -128 13t-101.5 33t-62.5 33.5t-34 24.5l27 176h45q8 -36 27 -72t49 -71t77 -56.5t103 -21.5z" />
    <glyph glyph-name="afii10026" unicode="&#x418;" horiz-adv-x="1308" 
d="M588 1137l-139 -809l587 643l25 164l-148 26l7 33h499l-6 -31l-153 -26l-187 -1078l152 -26l-4 -33h-506l6 31l158 26l139 805l-584 -635l-33 -168l152 -26l-4 -33h-504l4 31l158 26l184 1078l-149 26l4 33h506l-4 -31z" />
    <glyph glyph-name="afii10027" unicode="&#x419;" horiz-adv-x="1308" 
d="M588 1137l-139 -809l587 643l25 164l-148 26l7 33h499l-6 -31l-153 -26l-187 -1078l152 -26l-4 -33h-506l6 31l158 26l139 805l-584 -635l-33 -168l152 -26l-4 -33h-504l4 31l158 26l184 1078l-149 26l4 33h506l-4 -31zM848 1350q-125 0 -205.5 71.5t-67.5 149.5l164 57
h31l-31 -186q31 -45 117 -45q89 0 131 45l31 186h31l143 -57q-15 -90 -116.5 -155.5t-227.5 -65.5z" />
    <glyph glyph-name="afii10028" unicode="&#x41a;" horiz-adv-x="1118" 
d="M590 1137l-86 -500h143l178 344q70 135 118.5 183t119.5 48q60 0 111 -28l-56 -193h-24l-148 84l-203 -389l228 -618l106 -35l-4 -33h-297l-196 580h-86l-88 -521l147 -26l-4 -33h-504l4 31l158 26l180 1078l-149 26l4 33h491l-4 -31z" />
    <glyph glyph-name="afii10029" unicode="&#x41b;" horiz-adv-x="1075" 
d="M641 57l184 1076h-209q-104 -476 -278 -895q-21 -51 -36.5 -81t-43.5 -67.5t-59 -57.5t-79.5 -34t-109.5 -14l23 190l33 14h178q209 468 297 926l-179 47l5 33h819l-4 -31l-158 -26l-186 -1078l159 -26l-4 -33h-524l4 31z" />
    <glyph glyph-name="afii10030" unicode="&#x41c;" horiz-adv-x="1513" 
d="M969 0l4 31l157 24l84 899h-8l-485 -972h-86l-160 1026h-8l-225 -924l157 -51l-4 -33h-379l4 31l142 51l264 1034l-133 45l8 33h352l138 -932h2l458 932h324l-6 -31l-146 -33l-88 -1077l127 -20l-4 -33h-489z" />
    <glyph glyph-name="afii10031" unicode="&#x41d;" horiz-adv-x="1296" 
d="M45 0l2 31l162 24l182 1082l-151 24l6 33h506l-9 -31l-155 -24l-86 -500h463l84 498l-150 24l6 33h506l-6 -31l-160 -24l-182 -1084l149 -22l-4 -33h-503l4 31l155 24l90 529h-462l-89 -529l148 -22l-2 -33h-504z" />
    <glyph glyph-name="afii10032" unicode="&#x41e;" horiz-adv-x="1120" 
d="M1171 743q-2 -135 -51.5 -270.5t-132.5 -244t-205.5 -176.5t-259.5 -68q-199 0 -313.5 125t-114.5 331q0 147 49.5 286.5t134 247t208 173t262.5 65.5q207 0 315 -123t108 -346zM549 47q92 0 170 65t127 170t76.5 232t27.5 256q0 109 -23.5 193t-76 136t-127.5 52
q-93 0 -171.5 -66t-128.5 -171t-78 -230.5t-28 -249.5q0 -109 22.5 -193.5t76 -139t133.5 -54.5z" />
    <glyph glyph-name="afii10033" unicode="&#x41f;" horiz-adv-x="1269" 
d="M207 57l182 1078l-153 26l4 33h1140l-4 -31l-159 -26l-183 -1078l152 -26l-4 -33h-504l6 31l154 26l184 1078h-436l-185 -1076l150 -26l-4 -33h-502l4 31z" />
    <glyph glyph-name="afii10034" unicode="&#x420;" horiz-adv-x="968" 
d="M45 0l2 31l160 26l184 1078l-151 26l6 33h493q138 0 230 -77t92 -208q0 -110 -38.5 -193t-107 -132.5t-155.5 -74t-191 -24.5h-92l-74 -428l162 -24l-4 -33h-516zM485 545h72q120 0 206.5 93t86.5 243q0 246 -176 249h-86z" />
    <glyph glyph-name="afii10035" unicode="&#x421;" horiz-adv-x="999" 
d="M1053 829h-58l-53 281q-64 45 -156 45q-143 0 -250 -95.5t-160.5 -249.5t-53.5 -341q0 -196 80 -311t231 -115q90 0 165.5 59t106.5 134h47l-32 -173q-162 -79 -330 -79q-226 0 -360 117t-134 343q0 217 94.5 393.5t257.5 275.5t359 99q76 0 141.5 -13.5t90.5 -23.5
t65 -30z" />
    <glyph glyph-name="afii10036" unicode="&#x422;" horiz-adv-x="966" 
d="M190 0l5 31l159 37l183 1065h-215l-142 -293h-47l60 354h909l-62 -354h-45l-55 293h-205l-182 -1065l149 -35l-4 -33h-508z" />
    <glyph glyph-name="afii10037" unicode="&#x423;" horiz-adv-x="1015" 
d="M442 1135l205 -666l328 645l-166 47l6 33h356l-4 -31l-100 -33l-440 -823q-55 -102 -93 -158.5t-85 -97.5t-98.5 -55t-127.5 -14l29 180l31 14h190l49 86l-289 883l-71 16l6 33h420l-4 -31z" />
    <glyph glyph-name="afii10038" unicode="&#x424;" horiz-adv-x="1175" 
d="M477 57l23 133q-191 4 -304.5 105t-113.5 256q0 221 155.5 349.5t409.5 146.5l23 131l-156 26l2 33h502l-4 -31l-158 -26l-20 -131q193 -4 296 -104.5t103 -258.5q0 -222 -146 -350t-403 -146l-20 -131l151 -26l-6 -33h-500l6 31zM823 995l-127 -751q152 5 243 122.5
t91 317.5q0 292 -207 311zM637 995q-149 0 -248.5 -123t-99.5 -321q0 -135 53 -218t166 -89z" />
    <glyph glyph-name="afii10039" unicode="&#x425;" horiz-adv-x="1015" 
d="M565 0l6 31l129 28l-163 435l-312 -418l137 -43l-4 -33h-370l6 31l123 39l395 493l-211 574l-104 22l8 33h448l-8 -31l-125 -28l146 -394l278 377l-102 43l6 33h328l-7 -31l-135 -53l-344 -432l236 -621l100 -22l-6 -33h-455z" />
    <glyph glyph-name="afii10040" unicode="&#x426;" horiz-adv-x="1286" 
d="M207 57l182 1078l-149 26l4 33h493l-4 -31l-147 -26l-185 -1076h437l182 1074l-139 26l6 33h493l-6 -31l-157 -26l-185 -1076h193l-56 -354h-41l-73 293h-1010l4 31z" />
    <glyph glyph-name="afii10041" unicode="&#x427;" horiz-adv-x="1134" 
d="M694 57l82 490q-140 -41 -252 -41q-127 0 -202 56.5t-74 166.5q0 21 10 113l55 293l-129 26l6 33h459l-6 -31l-135 -26l-66 -346q-6 -41 -6 -80q0 -66 34 -105t124 -39q83 0 192 33l99 535l-135 26l4 33h487l-4 -31l-164 -26l-182 -1078l153 -26l-2 -33h-530l4 31z" />
    <glyph glyph-name="afii10042" unicode="&#x428;" horiz-adv-x="1779" 
d="M207 57l182 1078l-149 26l4 33h485l-2 -31l-141 -26l-185 -1078h377l183 1076l-134 26l7 33h469l-5 -31l-143 -26l-182 -1078h377l180 1076l-129 26l2 33h489l-6 -31l-157 -26l-185 -1078l152 -26l-4 -33h-1647l4 31z" />
    </font>
</defs>
</svg>
