<svg width="305" height="51" viewBox="0 0 305 51" fill="none" xmlns="http://www.w3.org/2000/svg">
<g clip-path="url(#clip0_596_1280)">
<path fill-rule="evenodd" clip-rule="evenodd" d="M0 51H156.857V0H0V51Z" fill="#EC6A4F"/>
<path fill-rule="evenodd" clip-rule="evenodd" d="M74.8271 40.6865H75.7567V34.3398H74.8271V40.6865ZM78.0805 40.6865H79.01V36.6065C79.01 36.2665 78.8938 35.6998 78.8938 35.6998C78.8938 35.6998 79.2424 36.2665 79.4748 36.6065L82.3795 40.6865H83.3091V34.3398H82.3795V38.5332C82.3795 38.8732 82.3795 39.4398 82.3795 39.4398C82.3795 39.4398 82.1471 38.8732 81.9148 38.5332L79.01 34.3398H78.0805V40.6865ZM90.1643 40.6865H90.9776V35.1332H93.3014V34.3398H87.8405V35.1332H90.1643V40.6865ZM94.8119 40.6865H95.7414V37.9665H99.111V40.6865H100.04V34.3398H99.111V37.1732H95.7414V34.3398H94.8119V40.6865ZM102.364 40.6865H106.315V40.0065H103.294V37.9665H105.618V37.1732H103.294V35.1332H106.199V34.3398H102.364V40.6865ZM112.24 40.6865H113.286L114.448 36.6065C114.564 36.1532 114.68 35.6998 114.68 35.6998C114.68 35.6998 114.797 36.1532 114.913 36.6065L116.075 40.6865H117.004L118.747 34.3398H117.818L116.656 39.0998C116.54 39.4398 116.54 39.7798 116.54 39.7798C116.54 39.7798 116.423 39.4398 116.307 39.0998L115.029 34.3398H114.216L112.938 39.0998C112.938 39.4398 112.821 39.7798 112.821 39.7798C112.821 39.7798 112.821 39.4398 112.705 39.0998L111.543 34.3398H110.614L112.24 40.6865ZM119.909 37.5132C119.909 39.4398 121.303 40.7998 123.279 40.7998C125.254 40.7998 126.648 39.4398 126.648 37.5132C126.648 35.6998 125.254 34.3398 123.279 34.3398C121.303 34.3398 119.909 35.6998 119.909 37.5132ZM120.839 37.5132C120.839 36.1532 121.884 35.1332 123.279 35.1332C124.673 35.1332 125.719 36.1532 125.719 37.5132C125.719 38.9865 124.673 40.0065 123.279 40.0065C121.884 40.0065 120.839 38.9865 120.839 37.5132ZM128.623 40.6865H129.553V38.1932H130.831L132.225 40.6865H133.271L131.877 38.3065C131.76 38.0798 131.76 37.9665 131.76 37.9665C132.458 37.7398 132.922 37.0598 132.922 36.2665C132.922 35.4732 132.458 34.7932 131.877 34.5665C131.644 34.4532 131.296 34.3398 130.599 34.3398H128.623V40.6865ZM129.553 37.3998V35.1332H130.599C130.947 35.1332 131.18 35.2465 131.412 35.2465C131.76 35.4732 131.993 35.8132 131.993 36.2665C131.993 36.9465 131.528 37.3998 130.831 37.3998H129.553ZM135.014 40.6865H138.848V40.0065H135.943V34.3398H135.014V40.6865ZM140.475 40.6865H142.566C144.541 40.6865 145.936 39.5532 145.936 37.5132C145.936 35.5865 144.541 34.3398 142.566 34.3398H140.475V40.6865ZM141.404 40.0065V35.1332H142.566C143.96 35.1332 145.006 36.0398 145.006 37.5132C145.006 39.0998 143.96 40.0065 142.566 40.0065H141.404Z" fill="#FEFEFE"/>
<path fill-rule="evenodd" clip-rule="evenodd" d="M74.5947 29.1265H78.6614L79.1262 21.9865C79.2423 20.7398 79.1262 19.2665 79.1262 19.2665H79.2423C79.2423 19.2665 79.8233 20.9665 80.1719 21.9865L81.9147 26.6332H85.2843L87.0271 21.9865C87.3757 20.9665 87.9566 19.2665 87.9566 19.2665H88.0728C88.0728 19.2665 87.9566 20.7398 88.0728 21.9865L88.5376 29.1265H92.6043L91.21 13.1465H86.7947L84.4709 19.9465C84.1223 20.9665 83.6576 22.5532 83.6576 22.5532H83.5414C83.5414 22.5532 83.0766 20.9665 82.7281 19.9465L80.2881 13.1465H75.989L74.5947 29.1265ZM96.09 29.1265H100.273L101.202 25.8398H106.431L107.36 29.1265H111.543L105.966 13.1465H101.667L96.09 29.1265ZM102.248 22.6665L103.178 19.4932C103.41 18.4732 103.875 16.7732 103.875 16.7732C103.875 16.7732 104.223 18.4732 104.572 19.4932L105.501 22.6665H102.248ZM115.378 29.1265H121.303C126.416 29.1265 129.785 26.1798 129.785 21.0798C129.785 16.0932 126.416 13.1465 121.303 13.1465H115.378V29.1265ZM119.444 25.8398V16.4332H121.071C123.859 16.4332 125.602 18.0198 125.602 21.0798C125.602 24.1398 123.859 25.8398 121.071 25.8398H119.444ZM134.665 29.1265H145.239V25.8398H138.616V22.7798H143.728V19.3798H138.616V16.4332H145.006V13.1465H134.665V29.1265Z" fill="#FEFEFE"/>
<path fill-rule="evenodd" clip-rule="evenodd" d="M165.92 40.8004H168.244L169.87 36.2671H176.028L177.655 40.8004H179.979L174.169 24.9337H171.729L165.92 40.8004ZM170.451 34.3404L172.31 29.3537C172.543 28.5604 172.891 27.0871 172.891 27.0871H173.008C173.008 27.0871 173.356 28.5604 173.588 29.3537L175.448 34.3404H170.451ZM186.486 40.8004H188.809V34.4537H192.295L195.665 40.8004H198.221L194.851 34.6804C194.503 34.1137 194.387 33.8871 194.387 33.8871C196.129 33.3204 197.291 31.5071 197.291 29.4671C197.291 27.4271 196.246 26.0671 194.619 25.3871C194.038 25.0471 193.225 24.9337 191.598 24.9337H186.486V40.8004ZM188.809 32.5271V26.8604H191.482C192.528 26.8604 192.992 26.9737 193.457 27.0871C194.387 27.5404 194.968 28.4471 194.968 29.5804C194.968 31.3937 193.806 32.5271 192.063 32.5271H188.809ZM203.798 32.7537C203.798 37.4004 207.168 41.0271 212.164 41.0271C215.068 41.0271 217.044 39.8937 218.438 38.5337L217.276 36.9471C215.882 38.1937 214.023 38.9871 212.28 38.9871C208.446 38.9871 206.122 36.1537 206.122 32.7537C206.122 29.3537 208.446 26.6337 212.164 26.6337C213.907 26.6337 215.649 27.3137 216.928 28.4471L218.089 26.7471C216.463 25.2737 214.139 24.5938 212.048 24.5938C207.284 24.5938 203.798 28.1071 203.798 32.7537ZM225.177 40.8004H227.501V33.7737H235.983V40.8004H238.19V24.9337H235.983V31.8471H227.501V24.9337H225.177V40.8004ZM245.394 38.9871C246.788 40.3471 248.764 41.0271 250.739 41.0271C253.992 41.0271 255.851 38.9871 255.851 36.4937C255.851 31.3937 248.067 32.3004 248.067 28.9004C248.067 27.5404 249.345 26.6337 250.971 26.6337C252.249 26.6337 253.644 27.3137 254.573 28.1071L255.619 26.2937C254.457 25.1604 252.714 24.5938 251.088 24.5938C248.067 24.5938 245.743 26.4071 245.743 29.0138C245.743 34.0004 253.644 33.2071 253.644 36.7204C253.644 38.0804 252.482 38.9871 250.739 38.9871C249.228 38.9871 247.602 38.1937 246.672 37.2871L245.394 38.9871ZM263.171 40.8004H265.495V33.5471H267.935L272.234 40.8004H274.907L269.794 32.5271V32.4137L274.558 24.9337H272.002L267.935 31.6204H265.495V24.9337H263.171V40.8004ZM281.413 40.8004H283.621V24.9337H281.413V40.8004ZM291.987 40.8004H294.31V30.4871C294.31 29.5804 294.078 28.2204 294.078 28.2204H294.194C294.194 28.2204 294.891 29.5804 295.472 30.4871L302.792 40.8004H305V24.9337H302.792V35.2471C302.792 36.1537 302.908 37.5137 302.908 37.5137H302.792C302.792 37.5137 302.095 36.0404 301.514 35.2471L294.194 24.9337H291.987V40.8004Z" fill="white"/>
<path fill-rule="evenodd" clip-rule="evenodd" d="M168.593 19.833H169.522V16.8863H170.452L172.195 19.833H173.24L171.265 16.433L173.124 13.4863H172.078L170.452 16.093H169.522V13.4863H168.593V19.833ZM186.951 19.833H190.901V19.0397H187.88V16.9997H190.204V16.2063H187.88V14.1663H190.669V13.4863H186.951V19.833ZM204.728 19.833H205.541V17.453H207.052C208.214 17.453 209.143 16.6597 209.143 15.413C209.143 14.2797 208.214 13.4863 207.052 13.4863H204.728V19.833ZM205.541 16.6597V14.1663H206.936C207.749 14.1663 208.214 14.733 208.214 15.413C208.214 16.2063 207.749 16.6597 206.936 16.6597H205.541ZM221.808 19.833H222.738L223.435 18.0197H225.875L226.456 19.833H227.385L225.061 13.4863H224.132L221.808 19.833ZM223.667 17.2263L224.364 15.1863C224.48 14.8463 224.597 14.2797 224.597 14.2797C224.597 14.2797 224.713 14.8463 224.829 15.1863L225.642 17.2263H223.667ZM240.979 19.833H241.909L242.258 15.753C242.258 15.413 242.258 14.8463 242.258 14.8463C242.258 14.8463 242.49 15.413 242.606 15.753L243.884 18.6997H244.698L245.976 15.753C246.092 15.413 246.324 14.8463 246.324 14.8463C246.324 14.8463 246.324 15.413 246.44 15.753L246.673 19.833H247.602L247.021 13.4863H246.092L244.581 16.8863C244.465 17.2263 244.349 17.793 244.349 17.793H244.233C244.233 17.793 244.117 17.2263 244 16.8863L242.49 13.4863H241.56L240.979 19.833ZM261.661 19.833H262.591L265.496 15.6397C265.728 15.2997 266.077 14.733 266.077 14.733C266.077 14.733 265.96 15.2997 265.96 15.6397V19.833H266.89V13.4863H266.077L263.172 17.5663C262.939 17.9063 262.591 18.473 262.591 18.473C262.591 18.473 262.591 17.9063 262.591 17.5663V13.4863H261.661V19.833ZM281.181 19.833H282.111V16.8863H283.157L284.899 19.833H285.945L283.854 16.433L285.829 13.4863H284.783L283.157 16.093H282.111V13.4863H281.181V19.833ZM299.191 19.833H300.12L300.818 18.0197H303.258L303.955 19.833H304.884L302.56 13.4863H301.515L299.191 19.833ZM301.05 17.2263L301.747 15.1863C301.863 14.8463 301.979 14.2797 301.979 14.2797C301.979 14.2797 302.212 14.8463 302.328 15.1863L303.025 17.2263H301.05Z" fill="white"/>
</g>
<defs>
<clipPath id="clip0_596_1280">
<rect width="305" height="51" fill="white"/>
</clipPath>
</defs>
</svg>
