<svg width="217" height="37" viewBox="0 0 217 37" fill="none" xmlns="http://www.w3.org/2000/svg">
<path fill-rule="evenodd" clip-rule="evenodd" d="M15.2719 10.0189C14.5099 10.0189 13.8697 11.5416 13.8697 13.3992V29.7523C13.8697 31.6099 14.4794 33.1325 15.2719 33.1325C16.034 33.1325 16.6741 31.6099 16.6741 29.7523V13.3992C16.6741 11.5416 16.034 10.0189 15.2719 10.0189ZM13.1076 37H0.762072C0.335312 37 0 36.665 0 36.2387V0.761317C0 0.334979 0.335312 0 0.762072 0H13.1076C13.5344 0 13.8697 0.334979 13.8697 0.761317V6.42551C14.3574 6.27325 14.8757 6.18189 15.4243 6.18189H26.2153C28.7758 6.18189 30.8487 8.25268 30.8487 10.8107V32.3712C30.8487 34.9292 28.7758 37 26.2153 37H13.1076Z" fill="#AFB1C6"/>
<path fill-rule="evenodd" clip-rule="evenodd" d="M49.3798 10.0189C48.6178 10.0189 47.9776 11.5416 47.9776 13.3992V18.1803C47.9776 20.0683 48.5873 21.5605 49.3798 21.5605C50.1419 21.5605 50.7821 20.0379 50.7821 18.1803V13.3992C50.7516 11.5416 50.1419 10.0189 49.3798 10.0189ZM50.7516 29.1432C50.7516 28.7169 51.0869 28.3819 51.5136 28.3819H64.0116C64.4384 28.3819 64.7737 28.7473 64.7737 29.1432V32.3712C64.7737 34.9292 62.7009 37 60.1403 37H38.5279C35.9674 37 33.8945 34.9292 33.8945 32.3712V10.7803C33.8945 8.22223 35.9674 6.15144 38.5279 6.15144H60.1403C62.7009 6.15144 64.7737 8.22223 64.7737 10.7803V24.8798C64.7737 25.3062 64.4384 25.6412 64.0116 25.6412H48.7702C48.3434 25.6412 48.0081 25.9761 48.0081 26.4025V29.7218C48.0081 31.5794 48.6178 33.1021 49.4103 33.1021C50.1724 33.1021 50.8125 31.5794 50.8125 29.7218L50.7516 29.1432Z" fill="#AFB1C6"/>
<path fill-rule="evenodd" clip-rule="evenodd" d="M83.3079 21.5605C82.5458 21.5605 81.9362 23.0831 81.9362 24.9712V29.7523C81.9362 31.6099 82.5458 33.1325 83.3079 33.1325C84.07 33.1325 84.7101 31.6099 84.7101 29.7523V24.9712C84.7101 23.0831 84.1005 21.5605 83.3079 21.5605ZM81.9362 14.0387C81.9362 14.465 81.6009 14.8 81.1741 14.8H68.6761C68.2494 14.8 67.9141 14.4346 67.9141 14.0387V10.8107C67.9141 8.25268 69.9869 6.1819 72.5475 6.1819H94.1598C96.7204 6.1819 98.7932 8.25268 98.7932 10.8107V32.3712C98.7932 34.9292 96.7204 37 94.1598 37H72.5475C69.9869 37 67.9141 34.9292 67.9141 32.3712V18.2716C67.9141 17.8453 68.2494 17.5103 68.6761 17.5103H83.9481C84.3748 17.5103 84.7101 17.1753 84.7101 16.749V13.4296C84.7101 11.572 84.1005 10.0494 83.3079 10.0494C82.5458 10.0494 81.9057 11.572 81.9057 13.4296L81.9362 14.0387Z" fill="#AFB1C6"/>
<path fill-rule="evenodd" clip-rule="evenodd" d="M166.649 10.0189C165.887 10.0189 165.278 11.5416 165.278 13.3992V18.1803C165.278 20.0683 165.887 21.5605 166.649 21.5605C167.411 21.5605 168.052 20.0379 168.052 18.1803V13.3992C168.021 11.5416 167.411 10.0189 166.649 10.0189ZM168.021 29.1432C168.021 28.7169 168.356 28.3819 168.783 28.3819H181.281C181.708 28.3819 182.043 28.7473 182.043 29.1432V32.3712C182.043 34.9292 179.97 37 177.41 37H155.797C153.237 37 151.164 34.9292 151.164 32.3712V10.7803C151.164 8.22223 153.237 6.15144 155.797 6.15144H177.41C179.97 6.15144 182.043 8.22223 182.043 10.7803V24.8798C182.043 25.3062 181.708 25.6412 181.281 25.6412H166.009C165.582 25.6412 165.247 25.9761 165.247 26.4025V29.7218C165.247 31.5794 165.857 33.1021 166.619 33.1021C167.381 33.1021 168.021 31.5794 168.021 29.7218V29.1432Z" fill="#AFB1C6"/>
<path fill-rule="evenodd" clip-rule="evenodd" d="M130.685 37H119.285C118.858 37 118.523 36.665 118.523 36.2387V13.4296C118.523 11.572 117.913 10.0494 117.151 10.0494C116.389 10.0494 115.749 11.572 115.749 13.4296V36.2387C115.749 36.665 115.413 37 114.987 37H102.641C102.214 37 101.879 36.665 101.879 36.2387V10.7803C101.879 8.22223 103.952 6.15144 106.512 6.15144H143.549C146.11 6.15144 148.182 8.22223 148.182 10.7803V36.2082C148.182 36.6346 147.847 36.9696 147.42 36.9696H135.044H135.014C134.587 36.9696 134.252 36.6346 134.252 36.2082V13.3992C134.252 11.5416 133.642 10.0189 132.85 10.0189C132.087 10.0189 131.478 11.5416 131.478 13.3992V36.2082C131.478 36.6346 131.112 37 130.685 37Z" fill="#AFB1C6"/>
<path fill-rule="evenodd" clip-rule="evenodd" d="M188.231 20.1901H194.114C196.004 20.1901 197.498 20.7992 197.498 21.5605C197.498 22.3218 195.974 22.9613 194.114 22.9613H188.231C186.524 22.9613 185.152 24.3317 185.152 26.037V34.6856C185.152 35.9646 186.189 37 187.469 37H196.126C197.833 37 199.205 35.6296 199.205 33.9243V28.0469C199.205 26.1589 199.815 24.6667 200.607 24.6667C201.369 24.6667 202.009 26.1893 202.009 28.0469V33.9243C202.009 35.6296 203.381 37 205.088 37H213.745C215.026 37 216.062 35.9646 216.062 34.6856V26.037C216.062 24.3317 214.69 22.9613 212.983 22.9613H207.1C205.241 22.9613 203.716 22.3523 203.716 21.5605C203.716 20.7992 205.241 20.1901 207.1 20.1901H212.983C214.69 20.1901 216.062 18.8198 216.062 17.1144V8.46585C216.062 7.18683 215.026 6.15144 213.745 6.15144H205.088C203.381 6.15144 202.009 7.52181 202.009 9.22716V15.1045C202.009 16.9926 201.4 18.5152 200.607 18.5152C199.845 18.5152 199.205 16.9926 199.205 15.1045V9.25762C199.205 7.55227 197.833 6.1819 196.126 6.1819H187.469C186.189 6.1819 185.152 7.21729 185.152 8.4963V17.1449C185.152 18.8198 186.555 20.1901 188.231 20.1901Z" fill="#AFB1C6"/>
</svg>
