<svg width="461" height="35" viewBox="0 0 461 35" fill="none" xmlns="http://www.w3.org/2000/svg">
<path d="M0.108089 8.16139L0 15.7637L2.16178 17.2769C5.62063 19.7269 22.3744 31.2204 24.8605 32.8778L27.1304 34.355L32.1385 30.9682C34.8767 29.0946 37.3268 27.3292 37.579 27.077C38.1915 26.4645 38.3356 26.5726 26.1936 18.1776C21.1134 14.6828 16.2134 11.296 15.3126 10.6474C9.5839 6.61211 0.684564 0.559124 0.468386 0.559124C0.324267 0.559124 0.144119 3.98195 0.108089 8.16139Z" fill="white"/>
<path d="M48.0277 4.55851C45.0733 6.54014 42.6953 8.37766 42.6953 8.59384C42.7313 9.06222 53.7925 16.5924 54.0807 16.3042C54.1888 16.1961 54.3329 3.76586 54.2608 1.35187C54.2248 0.523184 53.288 0.99157 48.0277 4.55851Z" fill="white"/>
<path d="M181.446 5.60329C177.771 6.39595 174.6 8.95405 173.015 12.3769C171.862 14.8269 171.898 20.2314 173.051 22.5733C174.96 26.4645 178.239 28.8785 182.202 29.3108C188.003 29.9954 192.687 27.6535 194.993 22.9696C195.894 21.1321 196.002 20.5196 196.002 17.3129C196.002 14.1063 195.894 13.5298 195.029 11.8725C193.804 9.53053 190.886 6.90036 188.688 6.17977C186.526 5.42314 183.463 5.17094 181.446 5.60329ZM186.562 10.7916C187.319 11.0798 188.291 11.5842 188.688 11.9805C190.886 13.9622 191.462 18.2137 189.949 21.1321C187.607 25.5998 180.401 25.4917 178.203 20.988C176.798 18.0696 177.411 13.8901 179.536 11.9805C180.473 11.1158 182.707 10.3232 184.112 10.3232C184.725 10.3232 185.805 10.5394 186.562 10.7916Z" fill="white"/>
<path d="M227.527 5.78333C224.141 6.75613 221.33 9.17012 219.853 12.4128C219.277 13.7099 219.097 14.8268 219.097 17.493C219.06 20.7357 219.133 21.0599 220.285 23.1857C221.547 25.4916 223.348 27.257 225.726 28.5181C226.735 29.0585 227.78 29.2026 230.95 29.2026C234.409 29.2026 235.13 29.0945 236.463 28.374C238.553 27.257 240.498 25.4195 241.471 23.7261L242.3 22.2849L240.606 21.0599C239.669 20.3754 238.733 19.7268 238.517 19.5827C238.228 19.4026 237.652 19.979 236.931 21.132C235.418 23.4019 233.689 24.3386 230.842 24.3386C226.915 24.3386 224.285 21.6004 224.285 17.493C224.285 12.5569 228.284 9.3863 232.932 10.6473C234.445 11.0437 236.247 12.5209 237.111 14.0702C237.472 14.7187 237.616 14.6827 239.706 13.3496L241.867 11.9084L241.291 10.8995C240.318 9.20615 237.364 6.79216 235.526 6.14363C233.04 5.27892 229.833 5.1348 227.527 5.78333Z" fill="white"/>
<path d="M421.439 5.78333C418.053 6.72011 415.603 8.7738 413.909 12.0885C413.008 13.854 412.9 14.4305 412.9 17.493C412.936 20.5555 413.045 21.132 413.981 23.0055C415.134 25.3114 416.9 27.1129 419.278 28.374C420.611 29.0945 421.331 29.2026 424.79 29.2026C428.393 29.2026 428.934 29.1306 430.555 28.2298C433.041 26.9328 435.167 24.5548 436.14 21.9607C437.22 19.0423 437.076 14.5386 435.779 11.9444C434.626 9.67454 431.6 6.93629 429.402 6.17966C426.88 5.31495 423.673 5.1348 421.439 5.78333ZM427.384 10.8275C430.159 11.9804 431.456 14.1062 431.456 17.529C431.456 21.7445 428.898 24.3747 424.79 24.3747C420.683 24.3747 418.125 21.6724 418.125 17.3128C418.125 14.0702 419.602 11.7643 422.34 10.7915C424.178 10.1429 425.799 10.179 427.384 10.8275Z" fill="white"/>
<path d="M152.333 5.8914L146.1 5.96346V17.493V29.0225H148.802H151.504V24.5187V20.015H154.495H157.449L159.971 24.5187L162.493 28.9864L165.484 29.0225C168.366 29.0225 168.438 28.9864 168.078 28.3019C167.862 27.9055 166.637 25.7438 165.339 23.5459C163.178 19.8709 163.034 19.5106 163.646 19.1864C164.943 18.4658 166.564 16.34 166.997 14.7547C167.862 11.7642 166.781 8.8098 164.223 7.04435C162.673 5.99949 160.259 5.74728 152.333 5.8914ZM161.448 11.512C162.205 12.5569 162.061 13.7819 161.16 14.3944C160.548 14.8268 159.359 14.9709 155.936 14.9709H151.504V12.7731V10.5753L156.224 10.7194C160.403 10.8275 160.98 10.8995 161.448 11.512Z" fill="white"/>
<path d="M255.63 5.8914L254.333 5.99949L248.676 17.3488C245.578 23.582 243.02 28.7342 243.02 28.8423C243.02 28.9504 244.281 29.0225 245.83 29.0225H248.64L249.973 26.3202L251.306 23.618H256.351H261.395L262.728 26.3202L264.061 29.0225H266.871C268.42 29.0225 269.682 28.9144 269.682 28.7342C269.645 28.5901 267.087 23.4739 263.989 17.3488C259.953 9.38628 258.116 6.1436 257.612 5.99949C257.215 5.85537 256.314 5.81934 255.63 5.8914ZM257.539 15.8716C258.08 16.9525 258.512 17.9974 258.512 18.2136C258.512 18.4297 257.612 18.5738 256.351 18.5738C255.162 18.5738 254.189 18.4297 254.189 18.2136C254.189 17.7452 256.098 13.89 256.351 13.89C256.459 13.89 256.963 14.7907 257.539 15.8716Z" fill="white"/>
<path d="M296.705 17.3128V29.0225H299.227H301.749V17.3128V5.60316H299.227H296.705V17.3128Z" fill="white"/>
<path d="M403.713 17.3128V29.0225H406.415H409.117V17.3128V5.60316H406.415H403.713V17.3128Z" fill="white"/>
<path d="M440.463 17.3128V29.0225H443.165H445.867L445.939 22.4651L446.047 15.9437L451.74 22.4651L457.469 29.0225H459.234H461V17.3128V5.60316H458.298H455.595V12.1245C455.595 15.9797 455.451 18.5738 455.271 18.5018C455.091 18.4297 453.65 16.9165 452.1 15.115C443.165 4.73844 444.066 5.60316 442.192 5.60316H440.463V17.3128Z" fill="white"/>
<path d="M65.321 16.232C65.285 21.8887 65.2489 27.0409 65.2489 27.6534L65.2129 28.8424L68.5276 28.9505L71.8424 29.0586L71.9504 23.3659L72.0585 17.6732L72.9953 19.2945C73.4997 20.1953 74.9409 22.7534 76.238 24.9872C78.5078 29.0226 78.5439 29.0586 79.7689 28.9505C80.9579 28.8424 81.138 28.6623 84.2726 23.1137L87.5513 17.385L87.6594 23.1858L87.7315 29.0226H90.9741H94.2168V17.4931V5.96356H91.5506H88.8484L84.6329 13.0614C82.327 16.9886 80.2373 20.4115 80.0211 20.6276C79.6968 20.9879 78.5799 19.2945 75.1211 13.5298L70.6534 5.96356H68.0232H65.393L65.321 16.232Z" fill="white"/>
<path d="M98.2537 17.3849L98.3618 28.8423L108.378 28.9504L118.358 29.0225V26.5004V23.9783H110.972H103.586V21.6364V19.2944H107.693H111.801L111.945 16.7724L112.053 14.2503H107.802H103.55L103.658 12.5209L103.766 10.8275L110.72 10.7194L117.638 10.6473V8.30539V5.96346H107.91H98.1816L98.2537 17.3849Z" fill="white"/>
<path d="M120.52 8.30539V10.6473H124.843H129.167V19.8349V29.0225H131.869H134.571V19.8349V10.6473H138.895H143.218V8.30539V5.96346H131.869H120.52V8.30539Z" fill="white"/>
<path d="M199.064 17.493V29.0225H208.612H218.16V26.5004V23.9783H211.315H204.469V14.9709V5.96346H201.767H199.064V17.493Z" fill="white"/>
<path d="M274.365 17.493V29.0225H283.733H293.101V26.5004V23.9783H286.255H279.409V14.9709V5.96346H276.887H274.365V17.493Z" fill="white"/>
<path d="M305.352 17.4569V29.0225H313.386C317.782 29.0225 321.961 28.8423 322.682 28.6622C324.627 28.1217 326.321 26.8607 327.258 25.2393C327.942 24.0143 328.05 23.3658 327.978 21.24C327.87 19.0783 327.69 18.4658 326.825 17.3128C325.888 16.0878 325.816 15.8356 326.177 14.7907C327.294 11.8003 326.429 8.70171 323.979 6.90023C323.006 6.17964 322.43 6.14361 314.143 6.03552L305.352 5.92743V17.4569ZM320.412 10.8635C321.349 11.1517 321.817 12.5929 321.205 13.3495C320.844 13.7819 319.727 13.89 315.764 13.89H310.756V12.2687V10.6473H315.188C317.602 10.6473 319.944 10.7554 320.412 10.8635ZM321.781 19.2224C323.15 20.1231 323.222 22.9334 321.925 23.618C321.565 23.8342 318.899 23.9783 316.016 23.9783H310.756V21.4562V18.9341H316.088C319.007 18.9341 321.565 19.0783 321.781 19.2224Z" fill="white"/>
<path d="M331.293 17.4569V29.0225H333.995H336.697V24.5187V20.015H339.688H342.678L343.795 21.8886C344.408 22.9334 345.597 24.9871 346.425 26.3923L347.939 29.0225H350.785C352.37 29.0225 353.631 28.9504 353.631 28.8783C353.631 28.8063 352.514 26.7526 351.109 24.3746C349.74 21.9606 348.587 19.8709 348.587 19.7268C348.587 19.5827 349.164 19.0062 349.848 18.4658C353.523 15.5474 353.415 9.67452 349.632 7.15244L348.119 6.14361L339.688 6.03552L331.293 5.92743V17.4569ZM346.353 11.2238C347.398 11.9444 347.47 14.0701 346.461 14.6106C346.065 14.7907 343.723 14.9709 341.237 14.9709H336.697V12.8091V10.6473H341.129C344.552 10.6473 345.741 10.7914 346.353 11.2238Z" fill="white"/>
<path d="M359.936 17.3488C356.874 23.618 354.352 28.8063 354.352 28.8783C354.352 28.9504 355.613 29.0225 357.162 29.0225L359.936 28.9864L361.161 26.3202L362.386 23.618H367.466H372.583L373.916 26.3202L375.249 29.0225H378.131H381.014L375.249 17.493L369.484 5.96346H367.502H365.521L359.936 17.3488ZM368.763 16.0518C369.34 17.2408 369.844 18.2856 369.844 18.3937C369.844 18.6459 365.701 18.6099 365.413 18.3577C365.197 18.1415 367.178 13.89 367.502 13.89C367.61 13.89 368.151 14.8628 368.763 16.0518Z" fill="white"/>
<path d="M377.771 8.30539V10.6473H382.095H386.419V19.8349V29.0225H389.121H391.823V19.8349V10.6473H396.147H400.47V8.30539V5.96346H389.121H377.771V8.30539Z" fill="white"/>
<path d="M36.2098 12.665C34.3362 13.962 32.1744 15.4393 31.4539 15.9437C29.1119 17.529 28.7516 17.1687 40.173 25.0592C49.865 31.7247 53.1437 33.7784 53.6842 33.5622C54.1526 33.382 54.2246 32.4813 54.1526 26.6085L54.0445 19.8349L47.1988 15.079C43.4517 12.4848 40.2091 10.323 39.9929 10.323C39.8127 10.287 38.0833 11.3679 36.2098 12.665Z" fill="white"/>
<path d="M0.360465 19.655C0.216346 19.9072 0.0722277 29.0227 0.180317 33.3823C0.180317 34.1029 1.26121 33.5264 5.94507 30.2837C8.82744 28.3021 10.5929 26.8249 10.5208 26.5006C10.4848 26.2124 8.50318 24.6271 6.12522 22.9697C0.828851 19.2947 0.648703 19.1866 0.360465 19.655Z" fill="white"/>
</svg>
