<svg width="410" height="31" viewBox="0 0 410 31" fill="none" xmlns="http://www.w3.org/2000/svg">
<path fill-rule="evenodd" clip-rule="evenodd" d="M47.9393 0.121094H47.9349C47.8376 0.121905 47.7375 0.151092 47.6463 0.213506L38.1107 6.68971C37.7873 6.90898 37.7857 7.39983 38.1079 7.62235L47.643 14.1387C48.0005 14.3851 48.4792 14.1192 48.4792 13.6738V0.680434C48.4792 0.352537 48.2194 0.121094 47.9393 0.121094Z" fill="#C1121C"/>
<path fill-rule="evenodd" clip-rule="evenodd" d="M0 0.700392V13.7602L0.00769856 13.7553L12.0477 22.0461L12.055 22.0417L23.7213 30.1967C23.9475 30.3548 24.2442 30.356 24.4716 30.2L33.4843 23.9811C33.8843 23.7059 33.8864 23.0975 33.4887 22.8191L1.05099 0.120375C0.932234 0.0376964 0.802538 0 0.67647 0C0.325876 0 0 0.288991 0 0.700392Z" fill="#13447C"/>
<path fill-rule="evenodd" clip-rule="evenodd" d="M48.4797 28.7448V18.0387C48.4797 17.68 48.3059 17.3448 48.0177 17.145L36.154 8.84362C35.9809 8.72365 35.7807 8.66406 35.5809 8.66406C35.383 8.66406 35.1865 8.72161 35.0142 8.83915L27.2454 14.2522C26.6237 14.675 26.6208 15.6198 27.2398 16.0445L37.0157 22.8977L46.8751 29.6414C47.5625 30.1115 48.4797 29.5996 48.4797 28.7448Z" fill="#C1121C"/>
<path fill-rule="evenodd" clip-rule="evenodd" d="M0.699979 16.8555H0.693903C0.334386 16.8555 0 17.1526 0 17.5741V29.1026C0 29.6773 0.619734 30.0182 1.07815 29.6964L9.36856 23.891C9.77632 23.6048 9.77428 22.9815 9.36492 22.6998L1.0741 16.9767C0.954931 16.8952 0.826047 16.8567 0.699979 16.8555Z" fill="#13447C"/>
<path fill-rule="evenodd" clip-rule="evenodd" d="M405.156 16.4355V4.53933H410V25.5406H406.941L396.636 13.7279V25.5406H391.831V4.53933H394.913L405.156 16.4355ZM343.765 9.18429H335.984V4.64228H356.314V9.18429H348.532V25.5576H343.765V9.18429ZM359.097 25.5576V4.53933H363.884V25.5576H359.097ZM211.772 16.6446L215.587 19.4656L215.103 20.3829C214.177 22.1383 212.864 23.5707 211.15 24.5739C209.418 25.5872 207.503 26.0379 205.502 26.0379C202.518 26.0379 199.876 25.068 197.767 22.94C195.651 20.8048 194.707 18.1317 194.707 15.1401C194.707 12.1427 195.65 9.46315 197.774 7.32671C199.883 5.20527 202.516 4.23047 205.496 4.23047C207.342 4.23047 209.117 4.62485 210.751 5.49305C212.362 6.34949 213.659 7.57517 214.64 9.11336L215.258 10.0809L211.264 12.9201L210.622 11.6957C210.148 10.7906 209.465 10.0926 208.578 9.58678C207.629 9.04608 206.593 8.80654 205.502 8.80654C203.811 8.80654 202.378 9.34845 201.204 10.5741C199.988 11.8448 199.493 13.3931 199.493 15.1401C199.493 16.885 199.984 18.4369 201.202 19.7036C202.378 20.926 203.813 21.4614 205.502 21.4614C206.662 21.4614 207.748 21.1955 208.73 20.573C209.772 19.9135 210.538 18.957 211.114 17.878L211.772 16.6446ZM232.399 20.5803H223.651L221.198 25.5576H216.04L226.309 4.64228H229.723L240.109 25.5576H234.916L232.399 20.5803ZM248.746 21.0152H260.85V25.5576H243.959V4.64228H248.746V21.0152ZM263.791 25.5576V4.53933H268.579V25.5576H263.791ZM289.702 13.7028C290.238 14.164 290.707 14.6983 291.082 15.3148C291.726 16.3763 292.013 17.5509 292.013 18.79C292.013 20.7266 291.385 22.4549 289.924 23.7539C288.425 25.0862 286.51 25.5576 284.542 25.5576L271.691 25.5831V4.66741L283.958 4.64228C285.676 4.64228 287.511 4.95843 288.868 6.08886C290.197 7.19539 290.707 8.7656 290.707 10.4602C290.707 11.3382 290.538 12.1922 290.143 12.9801C290.015 13.2367 289.868 13.4778 289.702 13.7028ZM309.881 16.9328L314.79 25.5576H309.47L304.833 17.4569H299.548V25.5576H294.769V4.64228H306.674C308.512 4.64228 310.325 5.06827 311.731 6.31219C313.108 7.52938 313.681 9.177 313.681 10.992C313.681 12.5663 313.21 14.0019 312.193 15.2086C311.543 15.9799 310.763 16.5498 309.881 16.9328ZM331.344 20.5803H322.595L320.143 25.5576H314.984L325.254 4.64228H328.668L339.054 25.5576H333.86L331.344 20.5803ZM377.893 26.0379C374.909 26.0379 372.265 25.0696 370.158 22.9396C368.044 20.8032 367.098 18.1317 367.098 15.1401C367.098 12.1399 368.047 9.46396 370.172 7.32671C372.281 5.20527 374.912 4.23047 377.893 4.23047C380.888 4.23047 383.53 5.20811 385.65 7.33765C387.775 9.47207 388.735 12.1391 388.735 15.1401C388.735 18.1382 387.779 20.8081 385.655 22.9421C383.537 25.0696 380.883 26.0379 377.893 26.0379ZM225.901 16.0038H230.163L228.023 11.7257L225.901 16.0038ZM276.505 21.0152H284.995C285.595 21.0152 286.192 20.8936 286.625 20.451C287.071 19.9966 287.192 19.3724 287.192 18.7555C287.192 18.139 287.065 17.5233 286.623 17.069C286.189 16.6231 285.599 16.4959 284.995 16.4959H276.505V21.0152ZM276.505 11.9534H284.158C284.613 11.9534 285.239 11.8922 285.601 11.5809C285.891 11.3317 285.955 10.9584 285.955 10.5916C285.955 10.2365 285.906 9.78741 285.62 9.53652C285.276 9.23415 284.59 9.18429 284.158 9.18429H276.505V11.9534ZM299.548 12.8804H306.525C307.116 12.8804 307.911 12.8006 308.382 12.3977C308.772 12.0641 308.859 11.5445 308.859 11.0548C308.859 10.5401 308.752 10.042 308.358 9.68567C307.905 9.27711 307.225 9.18429 306.639 9.18429H299.548V12.8804ZM324.845 16.0038H329.107L326.967 11.7257L324.845 16.0038ZM377.899 21.4614C379.591 21.4614 381.027 20.9252 382.206 19.7027C383.425 18.4373 383.914 16.8837 383.914 15.1401C383.914 13.3944 383.425 11.8331 382.209 10.5628C381.033 9.33426 379.586 8.80654 377.899 8.80654C376.206 8.80654 374.771 9.34926 373.595 10.5749C372.378 11.8432 371.885 13.3944 371.885 15.1401C371.885 16.8837 372.374 18.4377 373.593 19.7027C374.771 20.9252 376.208 21.4614 377.899 21.4614Z" fill="#2B2A29"/>
<path fill-rule="evenodd" clip-rule="evenodd" d="M92.3019 9.18429V12.1938H99.7294V16.7358H92.3019V21.0152H105.334V25.5576H87.4798V4.64228H104.578V9.18429H92.3019ZM70.9549 18.4844L79.1148 4.6593H83.9636V25.5029H78.0289V14.9755L72.1161 25.4364H69.786L63.8731 14.9755V25.5029H58.0195V4.6593H62.8319L70.9549 18.4844ZM114.944 9.18429H107.162V4.64228H127.492V9.18429H119.71V25.5576H114.944V9.18429ZM145.067 16.9328L149.977 25.5576H144.657L140.02 17.4569H134.734V25.5576H129.947V4.64228H141.861C143.699 4.64228 145.511 5.06827 146.918 6.31219C148.295 7.52938 148.867 9.177 148.867 10.992C148.867 12.5663 148.397 14.0019 147.38 15.2086C146.729 15.9799 145.95 16.5498 145.067 16.9328ZM163.814 26.0379C160.829 26.0379 158.186 25.0696 156.078 22.9396C153.964 20.8024 153.019 18.1317 153.019 15.1401C153.019 12.1399 153.966 9.46477 156.092 7.32671C158.2 5.20487 160.832 4.23047 163.814 4.23047C166.808 4.23047 169.449 5.20811 171.569 7.33765C173.695 9.47329 174.655 12.1391 174.655 15.1401C174.655 18.1382 173.699 20.8076 171.575 22.9421C169.457 25.0696 166.804 26.0379 163.814 26.0379ZM181.953 21.0152H194.057V25.5576H177.166V4.64228H181.953V21.0152ZM134.734 12.8804H141.711C142.303 12.8804 143.098 12.8006 143.569 12.3977C143.959 12.0641 144.046 11.5445 144.046 11.0548C144.046 10.5401 143.939 10.042 143.545 9.68567C143.092 9.27711 142.412 9.18429 141.826 9.18429H134.734V12.8804ZM163.819 21.4614C165.512 21.4614 166.947 20.926 168.125 19.7027C169.345 18.4373 169.833 16.8837 169.833 15.1401C169.833 13.3944 169.345 11.8343 168.128 10.5628C166.952 9.33386 165.506 8.80654 163.819 8.80654C162.126 8.80654 160.692 9.34845 159.515 10.5749C158.298 11.844 157.805 13.3944 157.805 15.1401C157.805 16.8837 158.294 18.4373 159.513 19.7027C160.691 20.926 162.128 21.4614 163.819 21.4614Z" fill="#2B2A29"/>
</svg>
