<svg width="92" height="61" viewBox="0 0 92 61" fill="none" xmlns="http://www.w3.org/2000/svg">
<path d="M1.05919 3.52043C1.63347 3.84113 2.0437 4.02013 2.39424 4.26625C14.223 12.5374 26.0517 20.816 37.8804 29.0947C46.1441 34.8748 54.4004 40.6549 62.6566 46.4425C62.776 46.5245 62.9028 46.614 63.0221 46.6961C64.1781 47.5314 64.1707 48.4189 62.9848 49.2393C57.9356 52.7372 52.8789 56.2277 47.8148 59.7107C45.3088 61.4335 45.8458 61.426 43.3697 59.7107C29.2513 49.9255 15.1403 40.1254 1.00702 30.3551C0.298489 29.8629 -0.0073252 29.3706 0.00013302 28.4756C0.0374241 20.9279 0.0225295 13.3802 0.0225295 5.83248C0.0225295 5.44466 -0.0595364 5.00462 0.089628 4.68391C0.305916 4.25879 0.708651 3.93063 1.05919 3.52043Z" fill="#AFB1C6"/>
<path d="M91.1758 46.6811C91.1758 50.0522 91.1609 53.4233 91.1833 56.7944C91.1908 57.7491 91.0117 58.5844 90.1018 59.0766C89.1845 59.5838 88.4014 59.2333 87.6182 58.6963C74.6409 49.7762 61.6562 40.8637 48.6715 31.9511C46.8218 30.6832 46.8218 29.0871 48.6789 27.8267C53.5864 24.4854 58.4939 21.1516 63.4014 17.8178C64.7588 16.893 65.2586 16.9004 66.6383 17.8551C74.3427 23.1728 82.047 28.5054 89.7662 33.8007C90.7507 34.472 91.2057 35.2626 91.1908 36.4708C91.146 39.8792 91.1758 43.2801 91.1758 46.6811Z" fill="#AFB1C6"/>
<path d="M91.1788 14.4915C91.1788 18.7278 91.1788 22.9641 91.1788 27.2004C91.1788 27.8119 91.1862 28.4086 90.5597 28.7666C89.8736 29.1544 89.3664 28.7516 88.8518 28.3937C82.7584 24.1947 76.6725 20.0032 70.5792 15.8116C69.0801 14.775 69.0726 13.9769 70.5568 12.9626C76.6502 8.82329 82.7435 4.68398 88.8294 0.544667C89.3515 0.194131 89.8512 -0.230986 90.5374 0.149383C91.2086 0.514836 91.1862 1.15625 91.1788 1.7902C91.1788 6.01901 91.1788 10.2553 91.1788 14.4915Z" fill="#AFB1C6"/>
<path d="M0.0291237 47.8447C0.0291237 44.5631 0.0291237 41.2815 0.0291237 38.0073C0.0291237 37.7388 -0.0454439 37.4405 0.0440547 37.2093C0.23051 36.717 0.387156 36.0532 0.767526 35.8369C1.09569 35.643 1.82659 35.822 2.20696 36.0756C6.20456 38.783 10.1723 41.5425 14.1476 44.2871C15.229 45.0329 16.3179 45.7639 17.3844 46.5246C18.4808 47.3002 18.4808 48.2624 17.3769 49.038C12.3277 52.5881 7.27855 56.1383 2.20696 59.6436C1.82659 59.9047 1.09569 60.0687 0.767526 59.8748C0.387156 59.6511 0.0739094 58.9798 0.0664512 58.5025C0.00678547 54.9449 0.0291237 51.3948 0.0291237 47.8447Z" fill="#AFB1C6"/>
</svg>
