<svg width="824" height="61" viewBox="0 0 824 61" fill="none" xmlns="http://www.w3.org/2000/svg">
<path fill-rule="evenodd" clip-rule="evenodd" d="M96.3441 0.24353H96.3352C96.1396 0.24516 95.9384 0.303819 95.7552 0.429256L76.591 13.4448C75.941 13.8855 75.9377 14.872 76.5853 15.3192L95.7486 28.4154C96.4671 28.9107 97.4291 28.3763 97.4291 27.4811V1.36767C97.4291 0.708675 96.907 0.24353 96.3441 0.24353Z" fill="#C1121C"/>
<path fill-rule="evenodd" clip-rule="evenodd" d="M0 1.40762V27.6546L0.0154722 27.6448L24.213 44.3073L24.2276 44.2984L47.674 60.688C48.1286 61.0057 48.7249 61.0081 49.1819 60.6945L67.2952 48.1962C68.0992 47.6431 68.1032 46.4204 67.3041 45.8608L2.11222 0.241924C1.87356 0.0757605 1.6129 0 1.35954 0C0.654931 0 0 0.580801 0 1.40762Z" fill="#13447C"/>
<path fill-rule="evenodd" clip-rule="evenodd" d="M97.4329 57.7675V36.2509C97.4329 35.53 97.0835 34.8563 96.5043 34.4547L72.6611 17.771C72.3133 17.5299 71.9109 17.4102 71.5093 17.4102C71.1118 17.4102 70.7167 17.5258 70.3705 17.762L54.7572 28.6409C53.5076 29.4906 53.5019 31.3894 54.7458 32.2431L74.3929 46.0162L94.2079 59.5694C95.5895 60.5143 97.4329 59.4855 97.4329 57.7675Z" fill="#C1121C"/>
<path fill-rule="evenodd" clip-rule="evenodd" d="M1.40679 33.8724H1.39457C0.672034 33.8724 0 34.4695 0 35.3167V58.4862C0 59.6413 1.24551 60.3263 2.16682 59.6796L18.8285 48.0121C19.648 47.437 19.6439 46.1842 18.8212 45.618L2.15867 34.116C1.91918 33.9523 1.66015 33.8749 1.40679 33.8724Z" fill="#13447C"/>
<path fill-rule="evenodd" clip-rule="evenodd" d="M814.268 33.0342V9.12585H824.003V51.3332H817.855L797.143 27.5927V51.3332H787.486V9.12585H793.681L814.268 33.0342ZM690.887 18.4611H675.249V9.33277H716.107V18.4611H700.467V51.3674H690.887V18.4611ZM721.701 51.3674V9.12585H731.321V51.3674H721.701ZM425.613 33.4545L433.28 39.1241L432.308 40.9675C430.446 44.4955 427.808 47.3743 424.362 49.3904C420.882 51.4269 417.032 52.3327 413.012 52.3327C407.015 52.3327 401.704 50.3834 397.466 46.1068C393.213 41.8155 391.316 36.4432 391.316 30.4307C391.316 24.4068 393.212 19.0215 397.48 14.7278C401.719 10.4642 407.01 8.50513 412.999 8.50513C416.709 8.50513 420.277 9.29774 423.561 11.0426C426.799 12.7638 429.406 15.2272 431.377 18.3185L432.618 20.263L424.593 25.9692L423.302 23.5083C422.349 21.6893 420.977 20.2866 419.193 19.27C417.286 18.1833 415.205 17.7019 413.012 17.7019C409.612 17.7019 406.733 18.791 404.374 21.2543C401.931 23.8081 400.936 26.9198 400.936 30.4307C400.936 33.9375 401.922 37.0566 404.37 39.6022C406.733 42.059 409.616 43.1351 413.012 43.1351C415.343 43.1351 417.526 42.6007 419.5 41.3495C421.592 40.0242 423.134 38.1018 424.29 35.9333L425.613 33.4545ZM467.069 41.3642H449.487L444.557 51.3674H434.19L454.829 9.33277H461.691L482.564 51.3674H472.127L467.069 41.3642ZM499.921 42.2383H524.248V51.3674H490.3V9.33277H499.921V42.2383ZM530.159 51.3674V9.12585H539.78V51.3674H530.159ZM582.233 27.5422C583.311 28.4692 584.254 29.5428 585.006 30.7818C586.3 32.9152 586.878 35.2759 586.878 37.7661C586.878 41.6583 585.615 45.1317 582.678 47.7425C579.666 50.42 575.817 51.3674 571.863 51.3674L546.036 51.4187V9.38328L570.688 9.33277C574.142 9.33277 577.829 9.96814 580.556 12.24C583.228 14.4639 584.253 17.6196 584.253 21.0254C584.253 22.7898 583.913 24.5062 583.12 26.0897C582.862 26.6054 582.566 27.0901 582.233 27.5422ZM622.787 34.0337L632.653 51.3674H621.961L612.643 35.0869H602.022V51.3674H592.416V9.33277H616.342C620.037 9.33277 623.68 10.1889 626.507 12.6889C629.273 15.1351 630.424 18.4464 630.424 22.0942C630.424 25.2581 629.478 28.1433 627.434 30.5684C626.128 32.1186 624.561 33.2639 622.787 34.0337ZM665.924 41.3642H648.34L643.411 51.3674H633.045L653.683 9.33277H660.545L681.418 51.3674H670.979L665.924 41.3642ZM759.476 52.3327C753.479 52.3327 748.165 50.3866 743.929 46.1059C739.681 41.8122 737.78 36.4432 737.78 30.4307C737.78 24.4011 739.687 19.0232 743.957 14.7278C748.196 10.4642 753.484 8.50513 759.476 8.50513C765.494 8.50513 770.804 10.47 775.064 14.7498C779.336 19.0395 781.265 24.3995 781.265 30.4307C781.265 36.4563 779.344 41.822 775.075 46.1108C770.817 50.3866 765.485 52.3327 759.476 52.3327ZM454.008 32.1666H462.574L458.273 23.5686L454.008 32.1666ZM555.71 42.2383H572.773C573.979 42.2383 575.179 41.9939 576.05 41.1043C576.944 40.1912 577.189 38.9367 577.189 37.6969C577.189 36.4579 576.934 35.2205 576.046 34.3074C575.173 33.4113 573.987 33.1555 572.773 33.1555H555.71V42.2383ZM555.71 24.0264H571.091C572.005 24.0264 573.264 23.9034 573.991 23.2778C574.575 22.7768 574.702 22.0266 574.702 21.2894C574.702 20.5758 574.603 19.6732 574.03 19.169C573.337 18.5613 571.958 18.4611 571.091 18.4611H555.71V24.0264ZM602.022 25.8894H616.042C617.231 25.8894 618.829 25.7289 619.776 24.9192C620.559 24.2488 620.734 23.2045 620.734 22.2204C620.734 21.1859 620.519 20.1848 619.727 19.4687C618.817 18.6476 617.449 18.4611 616.273 18.4611H602.022V25.8894ZM652.862 32.1666H661.427L657.126 23.5686L652.862 32.1666ZM759.488 43.1351C762.887 43.1351 765.774 42.0574 768.142 39.6006C770.593 37.0574 771.575 33.9351 771.575 30.4307C771.575 26.9223 770.593 23.7845 768.149 21.2315C765.786 18.7625 762.878 17.7019 759.488 17.7019C756.084 17.7019 753.201 18.7926 750.837 21.256C748.392 23.8048 747.401 26.9223 747.401 30.4307C747.401 33.9351 748.384 37.0582 750.834 39.6006C753.201 42.0574 756.088 43.1351 759.488 43.1351Z" fill="#2B2A29"/>
<path fill-rule="evenodd" clip-rule="evenodd" d="M185.505 18.4611V24.5094H200.432V33.6378H185.505V42.2383H211.696V51.3674H175.813V9.33277H210.176V18.4611H185.505ZM142.602 37.1519L159.002 9.36698H168.747V51.2574H156.819V30.1L144.936 51.1238H140.253L128.37 30.1V51.2574H116.605V9.36698H126.277L142.602 37.1519ZM231.009 18.4611H215.37V9.33277H256.228V18.4611H240.589V51.3674H231.009V18.4611ZM291.55 34.0337L301.417 51.3674H290.725L281.406 35.0869H270.784V51.3674H261.162V9.33277H285.106C288.8 9.33277 292.443 10.1889 295.27 12.6889C298.037 15.1351 299.188 18.4464 299.188 22.0942C299.188 25.2581 298.241 28.1433 296.197 30.5684C294.891 32.1186 293.325 33.2639 291.55 34.0337ZM329.226 52.3327C323.227 52.3327 317.915 50.3866 313.679 46.1059C309.43 41.8106 307.531 36.4432 307.531 30.4307C307.531 24.4011 309.435 19.0248 313.706 14.7278C317.944 10.4634 323.233 8.50513 329.226 8.50513C335.243 8.50513 340.552 10.47 344.813 14.7498C349.085 19.0419 351.014 24.3995 351.014 30.4307C351.014 36.4563 349.094 41.8212 344.824 46.1108C340.566 50.3866 335.235 52.3327 329.226 52.3327ZM365.681 42.2383H390.007V51.3674H356.061V9.33277H365.681V42.2383ZM270.784 25.8894H284.805C285.994 25.8894 287.592 25.7289 288.538 24.9192C289.323 24.2488 289.497 23.2045 289.497 22.2204C289.497 21.1859 289.282 20.1848 288.49 19.4687C287.58 18.6476 286.213 18.4611 285.036 18.4611H270.784V25.8894ZM329.236 43.1351C332.638 43.1351 335.523 42.059 337.891 39.6006C340.342 37.0574 341.324 33.9351 341.324 30.4307C341.324 26.9223 340.343 23.7869 337.897 21.2315C335.532 18.7617 332.627 17.7019 329.236 17.7019C325.833 17.7019 322.952 18.791 320.586 21.256C318.14 23.8065 317.15 26.9223 317.15 30.4307C317.15 33.9351 318.133 37.0574 320.583 39.6006C322.951 42.059 325.837 43.1351 329.236 43.1351Z" fill="#2B2A29"/>
</svg>
