<?xml version="1.0" encoding="UTF-8" ?>
<!DOCTYPE svg PUBLIC "-//W3C//DTD SVG 1.1//EN" "http://www.w3.org/Graphics/SVG/1.1/DTD/svg11.dtd">
<svg width="1257pt" height="620pt" viewBox="0 0 1257 620" version="1.1" xmlns="http://www.w3.org/2000/svg">
<g id="#ffffffff">
</g>
<g id="#231f20ff">
<path fill="#231f20" opacity="1.00" d=" M 678.75 141.25 C 854.50 141.25 1030.25 141.25 1206.00 141.25 C 1206.00 141.81 1206.00 142.94 1206.00 143.50 C 1030.25 143.50 854.50 143.51 678.75 143.49 C 678.75 142.93 678.75 141.81 678.75 141.25 Z" />
<path fill="#231f20" opacity="1.00" d=" M 213.40 142.37 C 225.10 142.38 236.80 142.37 248.50 142.38 C 248.49 156.29 248.52 170.19 248.49 184.10 C 239.27 168.34 227.71 153.81 213.40 142.37 Z" />
<path fill="#231f20" opacity="1.00" d=" M 534.66 141.89 C 546.39 141.86 558.13 141.88 569.87 141.88 C 569.87 155.97 569.89 170.05 569.86 184.14 C 560.81 168.10 549.46 153.06 534.66 141.89 Z" />
<path fill="#231f20" opacity="1.00" d=" M 330.56 225.64 C 348.93 187.59 382.13 155.86 422.85 143.16 C 408.65 157.82 399.45 176.45 392.60 195.47 C 380.85 228.65 376.09 263.91 375.01 298.97 C 374.20 326.31 375.36 353.82 380.21 380.78 C 383.75 400.15 389.30 419.27 398.08 436.93 C 404.06 449.25 412.10 460.43 421.10 470.70 C 403.52 463.56 386.87 453.86 372.58 441.32 C 360.49 430.73 349.67 418.64 340.81 405.22 C 325.57 382.27 316.71 355.39 314.12 328.03 C 310.90 293.31 315.26 257.25 330.56 225.64 Z" />
<path fill="#231f20" opacity="1.00" d=" M 55.72 192.70 C 58.92 183.79 63.82 175.51 70.00 168.34 C 66.78 182.54 67.99 197.81 73.96 211.14 C 78.85 222.07 86.61 231.60 95.95 239.05 C 133.79 270.52 181.21 287.53 219.22 318.76 C 234.26 330.84 244.23 348.78 247.20 367.80 C 250.10 386.69 248.27 406.65 240.12 424.08 C 233.63 438.05 222.94 449.71 210.77 458.96 C 219.69 443.03 221.93 423.90 218.46 406.11 C 216.33 395.34 211.39 385.10 203.98 376.97 C 194.07 367.85 182.32 361.11 170.71 354.41 C 140.41 336.75 107.71 322.16 81.74 298.03 C 67.32 284.89 56.78 267.35 53.06 248.12 C 49.54 229.84 49.42 210.41 55.72 192.70 Z" />
<path fill="#231f20" opacity="1.00" d=" M 691.42 235.64 C 699.34 233.81 708.43 235.83 713.94 242.09 C 712.94 243.18 711.95 244.28 710.97 245.37 C 706.56 240.08 699.07 237.92 692.45 239.58 C 688.63 240.58 684.92 243.75 684.97 247.98 C 684.71 251.47 687.66 254.14 690.66 255.29 C 697.56 258.06 705.60 258.65 711.44 263.63 C 717.98 269.96 714.97 282.20 706.58 285.34 C 697.17 288.66 685.24 287.03 678.69 278.94 C 679.63 277.82 680.58 276.70 681.53 275.58 C 684.97 279.44 689.66 282.35 694.90 282.76 C 699.89 283.24 706.08 282.55 708.91 277.81 C 711.58 273.98 710.43 268.15 706.33 265.82 C 699.52 261.99 691.17 261.80 684.62 257.39 C 680.05 254.13 679.19 247.44 681.67 242.65 C 683.65 238.99 687.47 236.64 691.42 235.64 Z" />
<path fill="#231f20" opacity="1.00" d=" M 749.51 235.88 C 751.66 235.87 753.82 235.87 755.98 235.87 C 761.65 249.56 767.29 263.25 772.94 276.94 C 778.59 263.26 784.19 249.55 789.84 235.87 C 792.01 235.87 794.18 235.87 796.37 235.88 C 796.38 252.59 796.37 269.29 796.37 286.00 C 794.91 285.99 793.45 285.99 792.00 286.00 C 791.99 271.33 792.02 256.66 791.99 241.99 C 785.91 256.65 779.95 271.37 773.78 285.98 C 773.37 285.98 772.53 285.98 772.11 285.98 C 765.94 271.41 759.99 256.74 753.88 242.13 C 753.86 256.75 753.88 271.37 753.88 285.99 C 752.41 285.99 750.95 285.99 749.50 286.00 C 749.50 269.29 749.49 252.59 749.51 235.88 Z" />
<path fill="#231f20" opacity="1.00" d=" M 827.97 286.00 C 834.87 269.28 841.53 252.45 848.62 235.81 C 850.38 235.86 852.16 235.88 853.94 235.88 C 860.79 252.58 867.62 269.29 874.45 286.00 C 872.71 285.99 871.01 285.99 869.30 285.98 C 867.70 281.89 866.05 277.82 864.39 273.75 C 855.60 273.75 846.82 273.75 838.04 273.75 C 836.32 277.81 834.76 281.93 833.08 286.00 C 831.37 285.99 829.66 286.00 827.97 286.00 M 839.52 269.61 C 847.30 269.64 855.08 269.62 862.87 269.62 C 859.00 259.98 855.07 250.35 851.18 240.72 C 847.27 250.34 843.43 259.99 839.52 269.61 Z" />
<path fill="#231f20" opacity="1.00" d=" M 906.01 235.88 C 912.67 235.90 919.33 235.83 926.00 235.90 C 931.95 236.00 937.87 239.98 939.43 245.87 C 940.76 251.03 940.05 257.22 935.97 260.99 C 933.40 263.58 929.82 264.74 926.28 265.12 C 931.15 272.04 935.89 279.05 940.72 286.00 C 938.90 285.99 937.13 286.00 935.34 286.00 C 930.67 279.10 925.95 272.24 921.35 265.30 C 917.69 265.20 914.03 265.26 910.37 265.25 C 910.37 272.17 910.37 279.08 910.37 286.00 C 908.90 285.99 907.45 285.99 906.00 286.00 C 906.00 269.29 905.99 252.59 906.01 235.88 M 910.38 239.88 C 910.37 247.00 910.36 254.13 910.38 261.25 C 915.25 261.23 920.12 261.28 924.99 261.24 C 927.42 261.20 929.87 260.37 931.74 258.78 C 936.45 254.94 936.67 246.90 932.24 242.78 C 930.31 240.93 927.66 239.96 925.02 239.91 C 920.14 239.81 915.25 239.90 910.38 239.88 Z" />
<path fill="#231f20" opacity="1.00" d=" M 971.38 235.88 C 983.75 235.87 996.12 235.88 1008.50 235.88 C 1008.48 237.21 1008.48 238.54 1008.50 239.87 C 1003.04 239.88 997.58 239.87 992.13 239.88 C 992.11 255.25 992.13 270.62 992.12 286.00 C 990.61 285.99 989.11 285.99 987.63 286.00 C 987.62 270.63 987.63 255.25 987.62 239.88 C 982.20 239.86 976.78 239.89 971.37 239.87 C 971.36 238.54 971.37 237.21 971.38 235.88 Z" />
<path fill="#231f20" opacity="1.00" d=" M 680.76 361.74 C 683.47 352.00 692.78 344.62 702.88 344.18 C 710.70 343.33 718.67 346.77 723.45 353.02 C 722.21 353.81 720.98 354.61 719.76 355.41 C 715.63 350.06 708.58 347.18 701.89 348.35 C 692.94 349.40 685.59 357.22 684.57 366.09 C 683.21 374.20 686.04 383.22 692.89 388.11 C 700.92 394.26 713.67 392.96 719.76 384.68 C 720.98 385.44 722.21 386.22 723.45 387.00 C 715.11 398.48 696.74 398.82 687.08 388.90 C 679.87 382.06 678.19 371.03 680.76 361.74 Z" />
<path fill="#231f20" opacity="1.00" d=" M 1157.84 348.76 C 1168.01 341.32 1183.82 342.80 1191.90 352.72 C 1190.75 353.51 1189.66 354.31 1188.56 355.11 C 1183.76 349.63 1176.03 347.09 1168.91 348.48 C 1161.40 349.70 1155.05 355.72 1153.06 363.01 C 1151.72 367.80 1151.78 373.01 1153.27 377.77 C 1155.66 385.39 1162.79 391.46 1170.87 391.94 C 1176.97 392.65 1183.07 390.19 1187.52 386.07 C 1187.48 382.08 1187.51 378.10 1187.49 374.12 C 1181.20 374.12 1174.91 374.13 1168.63 374.12 C 1168.62 372.78 1168.62 371.45 1168.63 370.13 C 1176.41 370.12 1184.20 370.13 1191.99 370.12 C 1192.01 375.98 1191.98 381.83 1192.01 387.69 C 1183.15 398.22 1165.42 398.90 1155.54 389.48 C 1143.91 379.02 1144.86 357.75 1157.84 348.76 Z" />
<path fill="#231f20" opacity="1.00" d=" M 751.16 395.11 C 757.98 378.40 764.83 361.70 771.67 345.00 C 773.49 344.99 775.32 345.00 777.16 345.00 C 784.00 361.71 790.84 378.41 797.67 395.11 C 795.96 395.11 794.26 395.12 792.57 395.13 C 790.91 391.01 789.21 386.90 787.59 382.76 C 778.81 382.73 770.03 382.75 761.25 382.75 C 759.60 386.88 757.92 390.99 756.27 395.12 C 754.56 395.11 752.86 395.11 751.16 395.11 M 762.73 378.74 C 770.52 378.76 778.30 378.74 786.09 378.75 C 782.22 369.10 778.28 359.47 774.40 349.83 C 770.45 359.44 766.61 369.10 762.73 378.74 Z" />
<path fill="#231f20" opacity="1.00" d=" M 825.63 345.00 C 838.00 345.00 850.37 344.99 862.75 345.01 C 862.74 346.33 862.74 347.66 862.75 348.99 C 857.29 349.01 851.83 348.98 846.37 349.01 C 846.37 364.38 846.38 379.75 846.37 395.12 C 844.90 395.11 843.45 395.12 842.00 395.12 C 841.99 379.75 842.00 364.38 842.00 349.00 C 836.54 348.99 831.08 349.01 825.63 349.00 C 825.62 347.66 825.62 346.33 825.63 345.00 Z" />
<path fill="#231f20" opacity="1.00" d=" M 895.88 345.00 C 906.50 345.00 917.13 344.99 927.75 345.01 C 927.74 346.33 927.74 347.66 927.75 348.99 C 918.58 349.01 909.41 348.98 900.25 349.01 C 900.26 355.13 900.22 361.26 900.27 367.39 C 909.26 367.37 918.26 367.37 927.25 367.39 C 927.25 368.38 927.25 370.37 927.25 371.37 C 918.25 371.38 909.25 371.37 900.26 371.37 C 900.24 377.96 900.25 384.54 900.25 391.12 C 909.42 391.14 918.58 391.12 927.75 391.13 C 927.74 392.46 927.73 393.78 927.75 395.12 C 917.12 395.13 906.50 395.13 895.88 395.12 C 895.87 378.41 895.87 361.71 895.88 345.00 Z" />
<path fill="#231f20" opacity="1.00" d=" M 962.50 345.00 C 969.02 345.00 975.54 344.99 982.06 345.00 C 988.22 344.85 994.44 349.00 996.02 355.08 C 997.35 360.29 996.53 366.57 992.30 370.27 C 989.77 372.75 986.26 373.84 982.81 374.16 C 987.66 381.12 992.47 388.11 997.26 395.11 C 995.47 395.11 993.69 395.12 991.93 395.13 C 987.19 388.23 982.55 381.26 977.82 374.36 C 974.21 374.38 970.61 374.37 967.01 374.37 C 966.98 381.29 967.01 388.20 967.00 395.12 C 965.49 395.12 963.99 395.12 962.51 395.12 C 962.49 378.42 962.50 361.71 962.50 345.00 M 967.00 349.00 C 967.00 356.13 966.99 363.25 967.00 370.37 C 971.97 370.33 976.94 370.47 981.91 370.32 C 986.66 370.22 991.05 366.52 991.78 361.79 C 993.11 356.05 989.00 349.73 983.04 349.12 C 977.70 348.83 972.34 349.08 967.00 349.00 Z" />
<path fill="#231f20" opacity="1.00" d=" M 1031.50 345.00 C 1032.95 345.00 1034.41 345.00 1035.88 345.01 C 1035.87 361.71 1035.88 378.42 1035.87 395.12 C 1034.40 395.12 1032.95 395.12 1031.51 395.12 C 1031.49 378.41 1031.50 361.71 1031.50 345.00 Z" />
<path fill="#231f20" opacity="1.00" d=" M 1072.63 345.00 C 1074.10 345.00 1075.59 345.00 1077.09 345.00 C 1087.49 359.00 1097.81 373.08 1108.25 387.06 C 1108.25 373.04 1108.25 359.02 1108.25 344.99 C 1109.70 345.00 1111.16 345.00 1112.63 345.01 C 1112.61 361.72 1112.63 378.42 1112.62 395.12 C 1111.19 395.11 1109.77 395.11 1108.37 395.11 C 1097.91 380.85 1087.46 366.58 1077.00 352.33 C 1076.99 366.59 1077.01 380.86 1077.00 395.13 C 1075.53 395.12 1074.07 395.11 1072.63 395.12 C 1072.62 378.41 1072.63 361.71 1072.63 345.00 Z" />
<path fill="#231f20" opacity="1.00" d=" M 531.65 471.87 C 549.25 459.52 562.76 442.34 573.76 424.07 C 573.74 440.00 573.75 455.93 573.75 471.87 C 559.72 471.88 545.69 471.87 531.65 471.87 Z" />
<path fill="#231f20" opacity="1.00" d=" M 50.64 429.65 C 59.67 445.70 71.04 460.73 85.84 471.88 C 74.10 471.85 62.36 471.89 50.62 471.86 C 50.64 457.79 50.60 443.72 50.64 429.65 Z" />
<path fill="#231f20" opacity="1.00" d=" M 678.75 476.75 C 854.50 476.75 1030.25 476.75 1206.00 476.75 C 1206.00 477.31 1206.00 478.44 1206.00 479.00 C 1030.25 479.00 854.50 479.01 678.75 478.99 C 678.75 478.43 678.75 477.31 678.75 476.75 Z" />
</g>
</svg>
