<svg width="167" height="58" viewBox="0 0 167 58" fill="none" xmlns="http://www.w3.org/2000/svg">
<path d="M38.686 25.767L19.8982 38.3438V33.2601L32.5584 24.7852L32.9049 25.767H38.686Z" fill="#ED4A41"/>
<path d="M38.8817 30.7042L19.8982 43.4121V38.3283L38.6628 25.7671H38.8817V30.7042Z" fill="#4997D2"/>
<path d="M38.8817 35.7816L19.8982 48.4894V43.4058L38.8817 30.6979V35.7816Z" fill="#ED4A41"/>
<path d="M38.6991 40.9819L19.8982 53.5675V48.4837L38.6991 35.8981V40.9819Z" fill="#4997D2"/>
<path d="M19.8982 53.5781L38.8817 40.8703V43.2043L19.8982 56.1265V53.5781Z" fill="#ED4A41"/>
<path d="M23.1739 26.0186L19.8982 28.2113V23.8461H22.5263L23.1739 26.0186Z" fill="#ED4A41"/>
<path d="M32.5599 24.7897L19.8982 33.2656V28.1819L23.1665 25.9941L23.2042 26.1207H27.533L28.2111 23.8461H32.2268L32.5599 24.7897Z" fill="#4997D2"/>
<path d="M19.0627 22.0269V-1.52588e-05L28.6588 3.7342L20.6635 7.9248V22.0269H19.0627Z" fill="#ED4A41"/>
<path d="M30.0498 9.28475V11.5127H29.2153V9.28475H25.8776V11.5127H18.3677H16.3298C15.6551 8.83095 13.2159 6.84135 10.3015 6.84135C6.86628 6.84135 4.08154 9.60174 4.08154 13.0067C4.08154 16.4117 6.86628 19.172 10.3015 19.172C13.0995 19.172 15.465 17.3404 16.2467 14.8211H18.3677H29.2153H33.3876V9.28476H30.0498V9.28475ZM10.3015 15.8635C8.71231 15.8635 7.41928 14.582 7.41928 13.0067C7.41928 11.4313 8.71231 10.1498 10.3015 10.1498C11.8907 10.1498 13.1837 11.4313 13.1837 13.0067C13.1837 14.582 11.8907 15.8635 10.3015 15.8635Z" fill="#32302C"/>
<path d="M17.3459 37.2534C17.3458 34.7298 15.2818 32.6842 12.7358 32.6843C10.1899 32.6844 8.12611 34.7303 8.12622 37.2539C8.12634 39.7775 10.1904 41.8231 12.7363 41.823C15.2821 41.8229 17.346 39.7771 17.3459 37.2534Z" fill="#ED4A41"/>
<path d="M15.2429 34.244C16.4718 34.244 17.3833 34.5912 17.6217 35.1501C17.8202 35.6158 17.5788 36.3356 16.9758 37.0754C16.2186 38.0045 14.969 38.8788 13.5476 39.4743C12.3332 39.9831 11.0585 40.2632 9.95836 40.2632C8.72933 40.2632 7.81784 39.916 7.57953 39.3572C7.29924 38.7 7.88512 37.5959 9.03742 36.6099C9.7579 35.9935 10.6625 35.4482 11.6537 35.0329C12.7681 34.566 13.9064 34.2956 14.9457 34.2506C15.0462 34.2462 15.1452 34.244 15.2429 34.244H15.2429ZM15.2429 33.2102C15.1303 33.2102 15.0162 33.2126 14.9003 33.2176C13.7806 33.2661 12.5154 33.5494 11.2476 34.0807C10.1187 34.5536 9.13381 35.1617 8.35584 35.8274C6.85691 37.11 6.12685 38.6061 6.61872 39.7597C7.04957 40.7699 8.32379 41.2971 9.95836 41.2971C11.1593 41.2971 12.5545 41.0128 13.9536 40.4267C17.2573 39.0426 19.3297 36.4999 18.5823 34.7475C18.1516 33.7373 16.8776 33.2102 15.2429 33.2102Z" fill="#32302C"/>
<path d="M17.3459 37.2534C17.3458 34.7298 15.2818 32.6842 12.7358 32.6843C10.1899 32.6844 8.12611 34.7303 8.12622 37.2539C8.12634 39.7775 12.0415 35.8735 14.4745 35.1302C16.7308 34.441 17.3459 37.2534 17.3459 37.2534Z" fill="#ED4A41"/>
<path d="M51.2141 42.0666V28.233H55.5005V33.3912L59.4284 28.233H64.4725L59.528 34.6558L65.4694 42.0666H60.2062L55.5005 36.0984V42.0666H51.2141H51.2141ZM157.589 40.3474C156.074 39.0031 155.317 37.2647 155.317 35.1495C155.317 33.0351 156.074 31.2967 157.569 29.9722C159.065 28.6282 160.979 27.9565 163.271 27.9565C164.647 27.9565 165.824 28.1934 166.8 28.6877V32.6996C165.664 32.0867 164.528 31.7902 163.39 31.7902C162.334 31.7902 161.457 32.1065 160.759 32.7584C160.062 33.3911 159.722 34.1813 159.722 35.1495C159.722 36.1377 160.082 36.9483 160.799 37.5804C161.517 38.1933 162.434 38.5096 163.551 38.5096C164.926 38.5096 166.063 38.1732 167 37.5215V41.592C166.043 42.0866 164.807 42.3433 163.311 42.3433C161.018 42.3433 159.105 41.6716 157.589 40.3474ZM140.146 42.0666V28.233H144.292V35.1105L149.676 28.233H153.205V42.0666H149.098V35.2487L143.794 42.0666H140.146ZM143.954 26.6123C143.216 25.9604 142.837 25.0909 142.817 23.9844H145.528C145.549 24.6957 145.948 25.0511 146.685 25.0511C147.422 25.0511 147.802 24.6957 147.822 23.9844H150.573C150.553 25.0909 150.194 25.9604 149.456 26.6123C148.718 27.2449 147.802 27.5614 146.706 27.5614C145.608 27.5614 144.692 27.2449 143.954 26.6123ZM127.068 42.0666V28.233H138.014V31.8888H131.354V33.1146H136.578V36.4736H131.354V38.4109H138.133V42.0667H127.068L127.068 42.0666ZM111.897 42.0666V28.233H124.558V42.0666H120.291V31.8888H116.184V42.0666H111.897ZM100.236 40.3475C98.7199 39.0031 97.9629 37.2647 97.9629 35.1497C97.9629 33.0352 98.7199 31.2968 100.215 29.9725C101.711 28.6282 103.625 27.9566 105.917 27.9566C107.293 27.9566 108.47 28.1933 109.447 28.6877V32.6997C108.31 32.0867 107.174 31.7903 106.037 31.7903C104.981 31.7903 104.103 32.1066 103.406 32.7584C102.708 33.3912 102.368 34.1815 102.368 35.1497C102.368 36.1377 102.728 36.9484 103.446 37.5805C104.163 38.1933 105.08 38.5097 106.197 38.5097C107.572 38.5097 108.709 38.1732 109.646 37.5215V41.5921C108.689 42.0867 107.453 42.3434 105.957 42.3434C103.665 42.3434 101.751 41.6718 100.236 40.3475ZM81.1172 44.616V38.4108H82.5326C83.43 36.8101 83.8878 34.2997 83.8878 30.9207V28.233H94.7543V38.4108H96.5086V44.616H92.4815V42.0666H85.1244V44.616H81.1172V44.616ZM90.4879 38.4108V31.8888H87.9159C87.9159 32.9761 87.8158 34.1424 87.6372 35.427C87.4574 36.6914 87.1976 37.6796 86.8389 38.4108H90.4879H90.4879ZM66.6443 42.0666V28.233H70.7914V35.1105L76.1743 28.233H79.7039V42.0666H75.5962V35.2487L70.2931 42.0666H66.6443Z" fill="#2B2A29"/>
<path d="M3.9847 24.6404V24.6379C5.02401 24.6379 5.86919 23.8002 5.86919 22.77V21.2263H12.6304V22.77C12.6304 23.8002 13.4765 24.6379 14.5158 24.6379C15.5542 24.6379 16.3994 23.8002 16.3994 22.77V21.2263C18.6644 21.2263 20.9292 21.2263 23.1942 21.2263V22.77C23.1942 23.8002 24.0396 24.6379 25.078 24.6379C26.1174 24.6379 26.9634 23.8002 26.9634 22.77V21.2263H33.7246V22.77C33.7246 23.8002 34.5698 24.6379 35.6091 24.6379V24.6404H38.7944V45.2488L19.8967 57.7358L1 45.2488V24.6404H3.9847ZM19.8967 52.7884L34.6412 43.0454V27.6284C32.8608 27.2801 31.4157 25.9964 30.8577 24.3137H29.8295C29.1734 26.2929 27.2914 27.7253 25.078 27.7253C22.8655 27.7253 20.9833 26.2929 20.3275 24.3137H19.4668C17.7879 28.8078 11.2915 28.9225 9.76433 24.3137H8.73616C8.20218 25.918 6.8728 27.4216 5.15313 27.6284C5.10903 27.6336 5.15313 41.9232 5.15313 43.0454L19.8967 52.7884Z" fill="#2B2A29" stroke="#2B2A29" stroke-width="0.288006" stroke-miterlimit="22.9256"/>
</svg>
