<svg width="84" height="23" viewBox="0 0 84 23" fill="none" xmlns="http://www.w3.org/2000/svg">
<g clip-path="url(#clip0_6299_3145)">
<path d="M79.6704 19.9513C81.3099 19.9513 82.4711 19.6703 83.3363 19.0651V16.3199C82.4483 16.9035 81.3782 17.271 79.8754 17.271C77.348 17.271 76.3006 15.412 76.3006 12.4723C76.3006 9.38121 77.5757 7.80326 79.8981 7.80326C81.2643 7.80326 82.6077 8.25719 83.3136 8.68951V5.83623C82.5622 5.44714 81.2643 5.16614 79.4883 5.16614C74.9572 5.16614 72.6119 8.25719 72.6119 12.5803C72.6347 17.3142 74.9344 19.9513 79.6704 19.9513ZM57.5157 18.6976V15.9524C56.4228 16.6657 54.5557 17.2926 52.848 17.2926C50.2523 17.2926 49.2732 16.1253 49.1138 13.7476H57.6751V11.9751C57.6751 7.02509 55.3754 5.16614 51.8461 5.16614C47.5199 5.16614 45.4707 8.30042 45.4707 12.602C45.4707 17.552 48.0436 19.9513 52.552 19.9513C54.8062 19.9513 56.4683 19.3677 57.5157 18.6976ZM25.0237 5.42553V11.0456H20.2876V5.42553H16.7356V19.6703H20.2876V13.726H25.0237V19.6703H28.5757V5.42553H25.0237ZM44.5827 16.99H43.0116V5.42553H32.6742V6.63601C32.6742 10.1161 32.4465 14.6122 31.1942 16.99H30.0557V22.9127H33.3345V19.6703H41.2811V22.9127H44.5599V16.99H44.5827ZM68.8322 19.6703H72.8624L67.17 11.9967L72.1793 5.42553H68.6045L63.5952 11.9967V5.42553H60.0432V19.6703H63.5952V12.6668L68.8322 19.6703ZM51.7551 7.80326C53.5083 7.80326 54.0548 9.18667 54.0548 10.9808V11.2618H49.1138C49.2049 8.99213 50.0701 7.80326 51.7551 7.80326ZM39.4595 16.99H34.4503C35.4293 14.85 35.7026 10.9592 35.7026 8.49497V8.06265H39.4595V16.99Z" fill="#2B2A29"/>
<path d="M13.7755 19.6704H10.1552V2.65874H8.53856C5.57852 2.65874 4.0302 4.06377 4.0302 6.16049C4.0302 8.53823 5.10037 9.64063 7.30901 11.0457L9.13056 12.2129L3.89358 19.6704H0L4.71328 13.0127C2.00372 11.1754 0.478159 9.38124 0.478159 6.35504C0.478159 2.57228 3.25604 0 8.51579 0H13.7528L13.7755 19.6704Z" fill="#ED4A41"/>
</g>
<defs>
<clipPath id="clip0_6299_3145">
<rect width="83.564" height="22.9127" fill="white"/>
</clipPath>
</defs>
</svg>
