<svg width="12" height="11" viewBox="0 0 12 11" fill="none" xmlns="http://www.w3.org/2000/svg">
<g id="Group">
<g id="Group_2">
<path id="Vector" d="M11.2787 4.30358C11.2296 4.29561 11.1799 4.29193 11.1302 4.29258L2.66449 4.29258L2.84909 4.20672C3.02952 4.12131 3.19368 4.00507 3.33419 3.86326L5.70821 1.48913C6.02087 1.19064 6.07341 0.710479 5.83271 0.351434C5.55257 -0.0311691 5.01533 -0.114242 4.63272 0.165915C4.60181 0.188562 4.57243 0.213247 4.54482 0.239811L0.251849 4.533C-0.0836467 4.86813 -0.083945 5.41179 0.251171 5.7473C0.251386 5.74751 0.251628 5.74775 0.251842 5.74797L4.54477 10.0412C4.88053 10.376 5.42415 10.3752 5.759 10.0395C5.78535 10.013 5.80995 9.98491 5.83265 9.95529C6.07335 9.59625 6.02082 9.11608 5.70816 8.8176L3.33847 6.43917C3.2125 6.31306 3.06767 6.20731 2.90918 6.12577L2.6516 6.00985L11.083 6.00985C11.5216 6.02614 11.9064 5.71974 11.9888 5.2886C12.0647 4.82051 11.7468 4.37952 11.2787 4.30358Z" fill="#F26B47"/>
</g>
</g>
</svg>
