<svg width="21" height="21" viewBox="0 0 21 21" fill="none" xmlns="http://www.w3.org/2000/svg">
<g id="filter (1) 1">
<path id="Vector" d="M2.625 3.71875C2.26257 3.71875 1.96875 4.01257 1.96875 4.375C1.96875 4.73743 2.26257 5.03125 2.625 5.03125V3.71875ZM2.625 9.84375C2.26257 9.84375 1.96875 10.1376 1.96875 10.5C1.96875 10.8624 2.26257 11.1562 2.625 11.1562V9.84375ZM10.5 11.1562C10.8624 11.1562 11.1562 10.8624 11.1562 10.5C11.1562 10.1376 10.8624 9.84375 10.5 9.84375V11.1562ZM18.375 11.1562C18.7374 11.1562 19.0312 10.8624 19.0312 10.5C19.0312 10.1376 18.7374 9.84375 18.375 9.84375V11.1562ZM18.375 5.03125C18.7374 5.03125 19.0312 4.73743 19.0312 4.375C19.0312 4.01257 18.7374 3.71875 18.375 3.71875V5.03125ZM10.5 15.9688C10.1376 15.9688 9.84375 16.2626 9.84375 16.625C9.84375 16.9874 10.1376 17.2812 10.5 17.2812V15.9688ZM18.375 17.2812C18.7374 17.2812 19.0312 16.9874 19.0312 16.625C19.0312 16.2626 18.7374 15.9688 18.375 15.9688V17.2812ZM2.625 15.9688C2.26257 15.9688 1.96875 16.2626 1.96875 16.625C1.96875 16.9874 2.26257 17.2812 2.625 17.2812V15.9688ZM2.625 5.03125H8.75V3.71875H2.625V5.03125ZM2.625 11.1562H10.5V9.84375H2.625V11.1562ZM16.625 11.1562H18.375V9.84375H16.625V11.1562ZM12.25 5.03125H18.375V3.71875H12.25V5.03125ZM10.5 17.2812H18.375V15.9688H10.5V17.2812ZM2.625 17.2812H4.375V15.9688H2.625V17.2812ZM7.21875 16.625C7.21875 17.2291 6.72906 17.7188 6.125 17.7188V19.0312C7.45393 19.0312 8.53125 17.9539 8.53125 16.625H7.21875ZM6.125 17.7188C5.52094 17.7188 5.03125 17.2291 5.03125 16.625H3.71875C3.71875 17.9539 4.79607 19.0312 6.125 19.0312V17.7188ZM5.03125 16.625C5.03125 16.0209 5.52094 15.5312 6.125 15.5312V14.2188C4.79607 14.2188 3.71875 15.2961 3.71875 16.625H5.03125ZM6.125 15.5312C6.72906 15.5312 7.21875 16.0209 7.21875 16.625H8.53125C8.53125 15.2961 7.45393 14.2188 6.125 14.2188V15.5312ZM15.9688 10.5C15.9688 11.1041 15.4791 11.5938 14.875 11.5938V12.9062C16.2039 12.9062 17.2812 11.8289 17.2812 10.5H15.9688ZM14.875 11.5938C14.2709 11.5938 13.7812 11.1041 13.7812 10.5H12.4688C12.4688 11.8289 13.5461 12.9062 14.875 12.9062V11.5938ZM13.7812 10.5C13.7812 9.8959 14.2709 9.40625 14.875 9.40625V8.09375C13.5461 8.09375 12.4688 9.17105 12.4688 10.5H13.7812ZM14.875 9.40625C15.4791 9.40625 15.9688 9.8959 15.9688 10.5H17.2812C17.2812 9.17105 16.2039 8.09375 14.875 8.09375V9.40625ZM11.5938 4.375C11.5938 4.97906 11.1041 5.46875 10.5 5.46875V6.78125C11.8289 6.78125 12.9062 5.70393 12.9062 4.375H11.5938ZM10.5 5.46875C9.8959 5.46875 9.40625 4.97906 9.40625 4.375H8.09375C8.09375 5.70393 9.17105 6.78125 10.5 6.78125V5.46875ZM9.40625 4.375C9.40625 3.77093 9.8959 3.28125 10.5 3.28125V1.96875C9.17105 1.96875 8.09375 3.04607 8.09375 4.375H9.40625ZM10.5 3.28125C11.1041 3.28125 11.5938 3.77093 11.5938 4.375H12.9062C12.9062 3.04607 11.8289 1.96875 10.5 1.96875V3.28125Z" fill="white"/>
</g>
</svg>
