<svg width="24" height="23" viewBox="0 0 24 23" fill="none" xmlns="http://www.w3.org/2000/svg">
<path d="M17.6183 0.671875C16.5396 0.688653 15.4845 0.989773 14.5594 1.54482C13.6343 2.09988 12.872 2.8892 12.3496 3.8331C11.8272 2.8892 11.0649 2.09988 10.1399 1.54482C9.21477 0.989773 8.1596 0.688653 7.0809 0.671875C5.36133 0.746586 3.74122 1.49883 2.57451 2.76425C1.40781 4.02968 0.789345 5.70543 0.854247 7.4254C0.854247 13.9155 11.3495 21.4114 11.7959 21.7295L12.3496 22.1213L12.9033 21.7295C13.3497 21.4133 23.845 13.9155 23.845 7.4254C23.9099 5.70543 23.2914 4.02968 22.1247 2.76425C20.958 1.49883 19.3379 0.746586 17.6183 0.671875ZM12.3496 19.7628C9.23341 17.435 2.77014 11.716 2.77014 7.4254C2.70466 6.21333 3.1211 5.02453 3.92865 4.11828C4.73619 3.21203 5.86932 2.66187 7.0809 2.58777C8.29248 2.66187 9.42561 3.21203 10.2332 4.11828C11.0407 5.02453 11.4571 6.21333 11.3917 7.4254H13.3076C13.2421 6.21333 13.6585 5.02453 14.4661 4.11828C15.2736 3.21203 16.4067 2.66187 17.6183 2.58777C18.8299 2.66187 19.963 3.21203 20.7706 4.11828C21.5781 5.02453 21.9946 6.21333 21.9291 7.4254C21.9291 11.718 15.4658 17.435 12.3496 19.7628Z" fill="black"/>
</svg>
