<svg width="18" height="13" viewBox="0 0 18 13" fill="none" xmlns="http://www.w3.org/2000/svg">
<path id="Vector" fill-rule="evenodd" clip-rule="evenodd" d="M15.8871 2.1287C16.0875 2.37076 16.0523 2.73028 15.8133 2.92963L10.1461 7.69962C9.81563 7.97727 9.40781 8.11966 9 8.11966C8.59219 8.11966 8.18437 7.98083 7.85391 7.69962L2.18672 2.92963C1.94766 2.73028 1.91602 2.37076 2.11289 2.1287C2.31328 1.88664 2.66484 1.8546 2.90391 2.05394L8.57461 6.82393C8.82422 7.03395 9.17578 7.03395 9.42891 6.82393L15.0961 2.05394C15.3352 1.85104 15.6902 1.88664 15.8871 2.1287ZM16.875 11.1846V1.81544C16.875 1.44168 16.5762 1.1391 16.207 1.1391H1.79297C1.42383 1.1391 1.125 1.44168 1.125 1.81544V11.1846C1.125 11.5583 1.42383 11.8609 1.79297 11.8609H16.207C16.5762 11.8609 16.875 11.5583 16.875 11.1846ZM16.207 0H1.79297C0.805078 0 0 0.81517 0 1.81544V11.1846C0 12.1848 0.805078 13 1.79297 13H16.207C17.1949 13 18 12.1848 18 11.1846V1.81544C18 0.81517 17.1949 0 16.207 0Z" fill="#EC6A4F"/>
</svg>
