<svg width="18" height="18" viewBox="0 0 18 18" fill="none" xmlns="http://www.w3.org/2000/svg">
<path d="M1.638 17.0722C1.21436 17.0968 0.797726 16.956 0.475951 16.6794C-0.15865 16.041 -0.15865 15.01 0.475951 14.3716L14.3716 0.475834C15.0317 -0.14179 16.0674 -0.107457 16.685 0.552585C17.2435 1.14946 17.2761 2.06687 16.7612 2.70179L2.78367 16.6794C2.46605 16.952 2.0561 17.0925 1.638 17.0722Z" fill="white"/>
<path d="M15.5177 17.0718C15.0884 17.0699 14.6769 16.8995 14.372 16.5971L0.476259 2.70134C-0.111667 2.01478 -0.0317349 0.981547 0.654825 0.393567C1.2676 -0.131189 2.17132 -0.131189 2.78403 0.393567L16.7616 14.2893C17.4215 14.9071 17.4556 15.9429 16.8378 16.6028C16.8132 16.629 16.7879 16.6544 16.7616 16.679C16.4193 16.9766 15.9689 17.1188 15.5177 17.0718Z" fill="white"/>
</svg>
