<svg width="37" height="37" viewBox="0 0 37 37" fill="none" xmlns="http://www.w3.org/2000/svg">
<circle cx="16.9714" cy="20.0285" r="11.6482" fill="white"/>
<g clip-path="url(#clip0_174_2807)">
<path d="M18.4273 0.614746C8.5249 0.614746 0.469727 8.67069 0.469727 18.5723C0.469727 28.474 8.5249 36.5299 18.4273 36.5299C28.3297 36.5299 36.3849 28.474 36.3849 18.5723C36.3849 8.67069 28.3297 0.614746 18.4273 0.614746ZM25.5662 19.2015L15.091 25.9356C14.9682 26.0152 14.8265 26.0547 14.6862 26.0547C14.5634 26.0547 14.4392 26.024 14.3282 25.9634C14.087 25.8318 13.9379 25.5804 13.9379 25.3064V11.8382C13.9379 11.5643 14.087 11.3128 14.3282 11.1813C14.5649 11.0513 14.8615 11.0593 15.091 11.2091L25.5662 17.9432C25.7796 18.0805 25.9097 18.3181 25.9097 18.5723C25.9097 18.8266 25.7796 19.0641 25.5662 19.2015Z" fill="#EC6A4F"/>
</g>
<defs>
<clipPath id="clip0_174_2807">
<rect width="35.9152" height="35.9152" fill="white" transform="translate(0.469727 0.614746)"/>
</clipPath>
</defs>
</svg>
