<svg width="15" height="20" viewBox="0 0 15 20" fill="none" xmlns="http://www.w3.org/2000/svg">
<g id="Group">
<path id="Vector" d="M7.5 0.307617C3.36346 0.307617 0 3.67108 0 7.80762C0 11.8057 6.78462 19.4095 7.07308 19.7326C7.18269 19.8538 7.33846 19.923 7.5 19.923C7.66154 19.923 7.81731 19.8538 7.92692 19.7326C8.21538 19.4095 15 11.8057 15 7.80762C15 3.67108 11.6365 0.307617 7.5 0.307617ZM7.5 18.4692C6.04038 16.7615 1.15385 10.8365 1.15385 7.80762C1.15385 4.30569 3.99808 1.46146 7.5 1.46146C11.0019 1.46146 13.8462 4.30569 13.8462 7.80762C13.8462 10.8365 8.95962 16.7615 7.5 18.4692Z" fill="#EC6A4F"/>
<path id="Vector_2" d="M7.56788 3.76929C5.34096 3.76929 3.52942 5.58083 3.52942 7.80775C3.52942 10.0347 5.34096 11.8462 7.56788 11.8462C9.7948 11.8462 11.6063 10.0347 11.6063 7.80775C11.6063 5.58083 9.7948 3.76929 7.56788 3.76929ZM7.56788 10.6924C5.97557 10.6924 4.68327 9.40006 4.68327 7.80775C4.68327 6.21544 5.97557 4.92313 7.56788 4.92313C9.16019 4.92313 10.4525 6.21544 10.4525 7.80775C10.4525 9.40006 9.16019 10.6924 7.56788 10.6924Z" fill="#EC6A4F"/>
</g>
</svg>
