<svg width="39" height="39" viewBox="0 0 39 39" fill="none" xmlns="http://www.w3.org/2000/svg">
<g id="friction 1" clip-path="url(#clip0_550_1826)">
<path id="Vector" d="M38.4799 35.3763L15.9235 25.9881C17.1863 25.792 18.3774 25.2957 19.42 24.523C19.6836 24.3278 19.7389 23.9556 19.5434 23.6919C19.348 23.4283 18.976 23.373 18.7121 23.5682C17.541 24.4364 16.1484 24.8952 14.686 24.8952C10.9533 24.8952 7.91682 21.8588 7.91682 18.126C7.91682 14.3936 10.9533 11.3569 14.686 11.3569C18.4184 11.3569 21.4552 14.3936 21.4552 18.126C21.4552 19.4141 21.0919 20.6668 20.4051 21.749C20.2293 22.026 20.3114 22.3932 20.5884 22.569C20.8654 22.7449 21.2326 22.663 21.4085 22.3857C22.2166 21.1131 22.6436 19.6403 22.6436 18.126C22.6436 13.7384 19.0736 10.1685 14.686 10.1685C10.2981 10.1685 6.72812 13.7384 6.72812 18.126C6.72812 19.8676 7.29078 21.48 8.24353 22.7916L1.23303 19.8738C0.957505 19.7593 0.644783 19.7896 0.396332 19.9551C0.148178 20.1205 0 20.3978 0 20.6962V24.049V24.0544V36.1086C0 36.5998 0.399605 36.9991 0.890557 36.9991H30.8145C30.8154 36.9991 30.8166 36.9994 30.8178 36.9994C30.8184 36.9994 30.819 36.9991 30.8196 36.9991H38.1556C38.5629 36.9991 38.9033 36.7203 38.9831 36.3207C39.0628 35.9211 38.856 35.5328 38.4799 35.3763ZM30.9347 35.8107L5.79145 25.5287C5.48735 25.4043 5.14071 25.5501 5.01634 25.8536C4.89226 26.1574 5.03776 26.5044 5.34155 26.6287L27.795 35.8107H1.1884V24.9303L3.10252 25.7132C3.17631 25.7432 3.25248 25.7575 3.32746 25.7575C3.56133 25.7575 3.7836 25.6183 3.87763 25.388C4.0017 25.0842 3.8562 24.7372 3.55241 24.6132L1.1884 23.6464V21.1426L36.431 35.8107H30.9347Z" fill="#EC6A4F"/>
<path id="Vector_2" d="M25.0367 25.7091C25.1313 25.9382 25.353 26.0766 25.5863 26.0766C25.6619 26.0766 25.7389 26.062 25.813 26.0313C26.1162 25.9061 26.2605 25.5588 26.1352 25.2553L25.4143 23.5105L33.9316 27.0475C34.0059 27.0784 34.0833 27.093 34.1592 27.093C34.3922 27.093 34.6132 26.9549 34.7082 26.7264C34.834 26.4235 34.6903 26.0757 34.3871 25.9498L25.8987 22.4251L27.6435 21.7041C27.9467 21.5788 28.091 21.2313 27.9658 20.9281C27.8405 20.6246 27.493 20.4803 27.1898 20.6059L24.2143 21.8353C24.0271 21.8731 23.8617 22.0002 23.7828 22.1897C23.7817 22.1924 23.7811 22.1951 23.7802 22.1977C23.779 22.1998 23.7778 22.2019 23.7769 22.2043C23.7165 22.3498 23.7162 22.5134 23.7766 22.6592L25.0367 25.7091Z" fill="#EC6A4F"/>
<path id="Vector_3" d="M9.69281 3.27593L18.1812 6.80066L16.4364 7.52162C16.1332 7.64688 15.9889 7.99442 16.1142 8.29762C16.2088 8.52673 16.4305 8.66509 16.6637 8.66509C16.7393 8.66509 16.8164 8.65051 16.8905 8.61986L19.8737 7.38742C20.0421 7.35083 20.1914 7.24192 20.2751 7.07976C20.2786 7.07321 20.2816 7.06667 20.2849 7.06012C20.2887 7.05179 20.2938 7.04435 20.2974 7.03602C20.2983 7.03364 20.2989 7.03156 20.2997 7.02918C20.3009 7.0265 20.3021 7.02412 20.3033 7.02174C20.3637 6.87594 20.364 6.71259 20.3036 6.56679L19.0432 3.51634C18.9179 3.21314 18.5704 3.06883 18.2672 3.1944C17.964 3.31966 17.8197 3.6669 17.945 3.9704L18.6659 5.71521L10.1487 2.17828C9.84545 2.05271 9.49762 2.19613 9.37176 2.49903C9.24589 2.80223 9.38961 3.15006 9.69281 3.27593Z" fill="#EC6A4F"/>
</g>
<defs>
<clipPath id="clip0_550_1826">
<rect width="39" height="39" fill="white"/>
</clipPath>
</defs>
</svg>
