<svg width="32" height="32" viewBox="0 0 32 32" fill="none" xmlns="http://www.w3.org/2000/svg">
<g id="Group">
<g id="Page-1_22_">
<g id="_x30_23---Warm-and-Cold-Settings">
<path id="Shape_139_" d="M29.2686 0.46847L0.477898 29.2591C0.0682809 29.662 -0.0937291 30.2537 0.0533483 30.8091C0.200488 31.3645 0.63416 31.7983 1.18954 31.9455C1.74486 32.0928 2.33655 31.9309 2.73954 31.5213L31.5302 2.73067C31.8302 2.43071 31.9988 2.02384 31.9988 1.5996C31.9988 1.17537 31.8302 0.768498 31.5302 0.468533C30.8972 -0.135334 29.9015 -0.135334 29.2686 0.46847ZM30.7763 1.97623L1.98566 30.7669C1.7746 30.968 1.44284 30.968 1.23178 30.7669C1.02366 30.5587 1.02366 30.2212 1.23178 30.013L30.0224 1.22235C30.2308 1.01417 30.5684 1.01429 30.7766 1.2226C30.9848 1.43091 30.9846 1.76855 30.7763 1.97673V1.97623Z" fill="#EC6A4F"/>
<path id="Shape_138_" d="M10.3023 27.3783L14.7382 24.4033C14.8452 24.3312 14.9227 24.2229 14.9563 24.0983L15.644 21.5284C15.7203 21.244 15.5516 20.9516 15.2671 20.8753C14.9826 20.799 14.6902 20.9678 14.614 21.2523L13.9774 23.6291L9.7121 26.4916C8.97334 26.9887 8.77403 27.9887 9.26587 28.7309C9.50498 29.0869 9.87567 29.3332 10.2964 29.4158C10.7171 29.4984 11.1535 29.4104 11.5094 29.1713L12.7143 28.3652L12.2878 29.9556C12.1729 30.3689 12.2283 30.8111 12.4417 31.1832C12.655 31.5554 13.0086 31.8266 13.4234 31.9363C13.8378 32.0477 14.2794 31.9883 14.6497 31.7715C15.0191 31.5599 15.2881 31.2087 15.3961 30.7969L15.8227 29.2033L16.4598 30.4988C16.6591 30.9128 17.029 31.2192 17.4728 31.338C17.8545 31.455 18.2668 31.4195 18.6228 31.2389C19.0075 31.0505 19.3016 30.7169 19.4403 30.3117C19.5789 29.9064 19.5509 29.4626 19.3622 29.078L17.0941 24.4645L18.1732 20.4419L21.1163 23.3849L21.4602 28.5171C21.5076 29.2111 21.9942 29.7967 22.6678 29.9705C22.8318 30.0127 23.0016 30.028 23.1705 30.0158C23.5988 29.9889 23.9987 29.7922 24.2815 29.4695C24.5643 29.1468 24.7067 28.7245 24.6772 28.2964L24.5802 26.8568L25.7462 28.0228C26.3788 28.6489 27.3977 28.6489 28.0303 28.0228C28.6599 27.3917 28.6599 26.3699 28.0303 25.7388L26.865 24.5728L28.3045 24.6699C28.8794 24.7097 29.4318 24.4397 29.7537 23.9618C30.0756 23.4839 30.1181 22.8705 29.8651 22.3527C29.6121 21.835 29.1022 21.4915 28.5273 21.4517L23.3951 21.1078L20.4521 18.1648L24.4747 17.0857L29.085 19.3521C29.18 19.4017 29.2806 19.4398 29.3847 19.4657C30.1883 19.6803 31.0233 19.2489 31.3135 18.4694C31.6036 17.6898 31.2537 16.8175 30.5054 16.4545L29.2098 15.8173L30.8002 15.3908C31.2141 15.2806 31.5672 15.0105 31.7819 14.64C31.9966 14.2694 32.0552 13.8287 31.9449 13.4149C31.8345 12.9976 31.5606 12.6424 31.1851 12.4296C30.8169 12.2173 30.379 12.1618 29.9695 12.2755L28.3743 12.702L29.181 11.4961C29.5126 11.0178 29.5607 10.3979 29.307 9.87409C29.0533 9.35032 28.5371 9.00387 27.9562 8.96751C27.3753 8.93121 26.8199 9.21062 26.503 9.69871L23.6378 13.9688L21.2609 14.6048C20.9764 14.6811 20.8077 14.9735 20.884 15.2579C20.9603 15.5424 21.2527 15.7111 21.5371 15.6348L24.1069 14.9471C24.2315 14.9135 24.3398 14.836 24.4119 14.729L27.3875 10.2921C27.4671 10.1712 27.5916 10.0871 27.7334 10.0584C27.8752 10.0297 28.0226 10.0587 28.1429 10.1391C28.3936 10.3106 28.4601 10.6516 28.2922 10.9047L26.698 13.2879C26.5745 13.4725 26.5784 13.7143 26.7077 13.8948C26.837 14.0754 27.0647 14.1569 27.2792 14.0994L30.2484 13.3039C30.385 13.2657 30.5311 13.284 30.6541 13.3546C30.7814 13.4271 30.8744 13.5476 30.9124 13.6891C30.9503 13.8306 30.9301 13.9814 30.8562 14.108C30.7849 14.2327 30.6663 14.3235 30.5272 14.3596L27.5629 15.1541C27.3481 15.2115 27.1915 15.3961 27.1699 15.6174C27.1483 15.8386 27.2662 16.05 27.4658 16.1479L30.0341 17.4104C30.2922 17.5338 30.4119 17.8351 30.3087 18.102C30.2054 18.3689 29.914 18.5113 29.6401 18.4288C29.6111 18.4206 29.5832 18.4092 29.5569 18.3946L24.7643 16.0386C24.6485 15.9815 24.5159 15.9685 24.3912 16.0018L19.2835 17.372C19.0996 17.4214 18.9559 17.5651 18.9066 17.7491C18.8573 17.9331 18.91 18.1293 19.0446 18.2641L22.7821 22.0015C22.8733 22.0928 22.9945 22.148 23.1233 22.1567L28.4523 22.5139C28.5977 22.5238 28.7333 22.5912 28.8292 22.701C28.9246 22.8091 28.9721 22.9513 28.9609 23.095C28.9526 23.2405 28.886 23.3765 28.7761 23.4722C28.6662 23.568 28.5224 23.6153 28.3771 23.6036L25.5193 23.4123C25.2989 23.3986 25.0927 23.5224 25.0012 23.7235C24.9097 23.9245 24.9516 24.1613 25.1067 24.3187L27.2767 26.4886C27.4527 26.6634 27.4891 26.9347 27.3654 27.1496C27.2417 27.3646 26.9889 27.4694 26.7494 27.4051C26.6558 27.3803 26.5701 27.3321 26.5004 27.2649L24.3304 25.0949C24.173 24.9398 23.9364 24.8978 23.7352 24.9894C23.5342 25.081 23.4104 25.2871 23.424 25.5076L23.6154 28.3675C23.6264 28.5122 23.5785 28.6552 23.4826 28.7642C23.3835 28.8765 23.243 28.9437 23.0934 28.9502C23.0383 28.9533 22.9831 28.9478 22.9298 28.9337C22.7026 28.8756 22.5392 28.6772 22.5256 28.4432L22.1684 23.1116C22.1598 22.9828 22.1046 22.8616 22.0133 22.7704L18.2758 19.0329C18.1412 18.8982 17.9449 18.8456 17.7609 18.8949C17.5769 18.9442 17.4332 19.0879 17.3838 19.2718L16.0136 24.3794C15.9802 24.5042 15.9933 24.6368 16.0504 24.7526L18.4027 29.5479C18.4669 29.6785 18.4765 29.8293 18.4293 29.967C18.3831 30.1046 18.2834 30.2178 18.1526 30.281C18.0324 30.3418 17.8931 30.3525 17.765 30.3108C17.6132 30.2722 17.4864 30.1681 17.419 30.0267L16.157 27.4579C16.0592 27.2583 15.8477 27.1404 15.6265 27.1619C15.4053 27.1835 15.2206 27.3401 15.1632 27.5549L14.3683 30.5225C14.3315 30.6604 14.2411 30.7776 14.1172 30.8483C13.9908 30.9218 13.8403 30.9422 13.6989 30.9048C13.5575 30.8673 13.4368 30.7753 13.3633 30.6489C13.2916 30.5235 13.2739 30.3743 13.3142 30.2357L14.1087 27.2713C14.1662 27.0568 14.0847 26.8292 13.9041 26.6998C13.7235 26.5705 13.4818 26.5667 13.2972 26.6901L10.9145 28.2837C10.7849 28.3707 10.6249 28.3995 10.473 28.3632C10.3433 28.3292 10.2299 28.2502 10.1531 28.1403C10.0707 28.0198 10.04 27.8713 10.0681 27.7281C10.0961 27.5847 10.1805 27.4587 10.3023 27.3783Z" fill="#EC6A4F"/>
<path id="Shape_137_" d="M8.94434 14.9282C8.94359 15.874 9.16876 16.8062 9.60119 17.6473C9.73664 17.9088 10.0584 18.011 10.3199 17.8755C10.5814 17.7401 10.6835 17.4183 10.5481 17.1568C10.1939 16.4674 10.0096 15.7033 10.0106 14.9282C10.0136 12.2087 12.2175 10.0048 14.937 10.0018C15.7121 10.0008 16.4762 10.185 17.1656 10.5393C17.4271 10.6747 17.7489 10.5726 17.8843 10.3111C18.0198 10.0496 17.9176 9.72785 17.6561 9.5924C16.815 9.15998 15.8828 8.9348 14.937 8.93555C11.6288 8.93905 8.94784 11.6201 8.94434 14.9282Z" fill="#EC6A4F"/>
<path id="Shape_136_" d="M14.4043 7.02279H15.4759C16.0096 7.01879 16.4529 6.60973 16.4996 6.07803L16.9133 1.11433C16.937 0.827482 16.8395 0.543761 16.6445 0.33208C16.4495 0.120336 16.1748 -6.23827e-05 15.887 9.70726e-08H13.9878C13.6999 -0.000124862 13.4251 0.120399 13.2301 0.332205C13.0351 0.544011 12.9377 0.827857 12.9616 1.11483L13.3753 6.07853C13.4224 6.61211 13.8687 7.0216 14.4043 7.02279ZM15.847 1.06634L15.4397 5.95757L14.4379 5.99062L14.0279 1.06634H15.847Z" fill="#EC6A4F"/>
<path id="Shape_135_" d="M1.03883 16.9077C1.06726 16.9077 1.0955 16.9066 1.12362 16.9045L6.08732 16.4908C6.61983 16.4437 7.02895 15.999 7.03158 15.4644V14.3954C7.03033 13.8597 6.62052 13.4133 6.08682 13.3665L1.12312 12.9527C0.836271 12.929 0.55255 13.0265 0.340869 13.2215C0.129188 13.4165 0.00872669 13.6912 0.00878917 13.9791V15.8782C0.00866421 16.1514 0.117129 16.4134 0.310379 16.6065C0.503566 16.7996 0.765669 16.908 1.03883 16.9077ZM1.07513 14.0185L5.9653 14.3917V15.4297L1.07513 15.8382V14.0185Z" fill="#EC6A4F"/>
<path id="Shape_134_" d="M9.74243 1.97821C9.61966 1.71767 9.39342 1.52042 9.11863 1.43432C8.84379 1.34823 8.54551 1.38109 8.29603 1.52498L6.65175 2.47505C6.40226 2.619 6.22451 2.86086 6.16159 3.1419C6.09868 3.42293 6.15634 3.71752 6.32067 3.95407L9.16081 8.04556C9.46746 8.48304 10.0568 8.61518 10.5209 8.35052L11.4497 7.81413C11.9125 7.54453 12.0932 6.96634 11.8661 6.48125L9.74243 1.97821ZM10.0367 7.43775L7.21894 3.37826L8.79499 2.46868L10.8861 6.90886L10.0367 7.43775Z" fill="#EC6A4F"/>
<path id="Shape_133_" d="M7.82347 18.4171C7.55406 17.9541 6.97568 17.7734 6.49059 18.0007L1.98749 20.1243C1.72695 20.247 1.5297 20.4733 1.4436 20.7481C1.3575 21.0229 1.39037 21.3213 1.53426 21.5707L2.48433 23.215C2.62828 23.4644 2.87008 23.6422 3.15117 23.7051C3.43227 23.768 3.7268 23.7104 3.96335 23.546L8.05483 20.7059C8.49232 20.3993 8.62446 19.8099 8.3598 19.3458L7.82347 18.4171ZM3.38753 22.6478L2.47795 21.0717L6.89996 18.9503L7.41873 19.8492L3.38753 22.6478Z" fill="#EC6A4F"/>
<path id="Shape_132_" d="M18.4263 7.81407L19.355 8.35046C19.8191 8.61512 20.4084 8.48298 20.7152 8.04549L23.5559 3.95351C23.7197 3.7169 23.7772 3.42243 23.7141 3.14158C23.6511 2.86074 23.4734 2.619 23.2242 2.47505L21.5794 1.52498C21.33 1.38109 21.0318 1.34823 20.757 1.43432C20.4823 1.52042 20.2561 1.71767 20.1335 1.97815L18.0099 6.48337C17.7844 6.96784 17.9648 7.54441 18.4263 7.81407ZM21.0808 2.46855L22.6569 3.37813L19.8578 7.41095L18.9743 6.93854L21.0808 2.46855Z" fill="#EC6A4F"/>
<path id="Shape_131_" d="M3.1508 6.15187C2.86995 6.21491 2.62828 6.3926 2.48433 6.64183L1.53426 8.28661C1.39037 8.53603 1.3575 8.83425 1.4436 9.10903C1.5297 9.38376 1.72695 9.60994 1.98742 9.73258L6.49265 11.8561C6.62873 11.9201 6.77731 11.9532 6.9277 11.9532C7.29639 11.9537 7.63753 11.7582 7.82341 11.4397L8.35655 10.5115C8.62165 10.0474 8.48975 9.45767 8.05208 9.15083L3.96272 6.31013C3.7258 6.14718 3.43177 6.08983 3.1508 6.15187ZM6.91708 10.8762L2.47795 8.78514L3.38803 7.20909L7.43578 9.97782L6.91708 10.8762Z" fill="#EC6A4F"/>
</g>
</g>
</g>
</svg>
