<svg width="29" height="31" viewBox="0 0 29 31" fill="none" xmlns="http://www.w3.org/2000/svg">
<g id="Group">
<path id="Vector" d="M16.8907 0H11.7246C10.974 0.000877329 10.2544 0.29903 9.72365 0.829054C9.19289 1.35908 8.89433 2.07769 8.89345 2.82726V5.12868H6.38467C5.65604 5.1272 4.95063 5.38451 4.39449 5.85462C3.83836 6.32473 3.46776 6.97701 3.34891 7.69489L0.0421917 27.419C-0.03159 27.8594 -0.00839858 28.3106 0.110152 28.7411C0.228703 29.1717 0.439765 29.5713 0.728657 29.9121C1.01755 30.2529 1.37733 30.5268 1.78298 30.7147C2.18862 30.9026 2.63039 30.9999 3.07754 31H25.5378C25.985 30.9999 26.4268 30.9026 26.8324 30.7147C27.2381 30.5268 27.5978 30.2529 27.8867 29.9121C28.1756 29.5713 28.3867 29.1717 28.5052 28.7411C28.6238 28.3106 28.647 27.8594 28.5732 27.419L25.2665 7.69489C25.1476 6.97701 24.777 6.32473 24.2209 5.85462C23.6648 5.38451 22.9593 5.1272 22.2307 5.12868H19.7219V2.82726C19.7211 2.07769 19.4225 1.35908 18.8917 0.829054C18.361 0.29903 17.6414 0.000877329 16.8907 0ZM10.3458 2.82726C10.3462 2.4622 10.4916 2.11222 10.7501 1.85409C11.0086 1.59595 11.3591 1.45074 11.7246 1.4503H16.8907C17.2563 1.45074 17.6068 1.59595 17.8653 1.85409C18.1238 2.11222 18.2692 2.4622 18.2696 2.82726V5.12868H10.3441L10.3458 2.82726ZM23.8341 7.9344L27.1408 27.6585C27.1797 27.8911 27.1675 28.1293 27.1048 28.3567C27.0422 28.5841 26.9308 28.7951 26.7782 28.9751C26.6257 29.1551 26.4357 29.2997 26.2215 29.3989C26.0073 29.4982 25.774 29.5496 25.5378 29.5497H3.07754C2.8414 29.5496 2.60812 29.4982 2.39392 29.3989C2.17972 29.2997 1.98973 29.1551 1.83717 28.9751C1.68462 28.7951 1.57316 28.5841 1.51054 28.3567C1.44793 28.1293 1.43566 27.8911 1.47459 27.6585L4.78131 7.9344C4.84341 7.55493 5.03896 7.21001 5.33283 6.96158C5.6267 6.71316 5.99964 6.5775 6.38467 6.57899H22.2307C22.6157 6.5775 22.9887 6.71316 23.2826 6.96158C23.5764 7.21001 23.772 7.55493 23.8341 7.9344Z" fill="#EC6A4F"/>
<path id="Vector_2" d="M6.19922 17.646C6.19922 19.2967 6.68871 20.9103 7.6058 22.2828C8.52289 23.6553 9.82638 24.7251 11.3514 25.3568C12.8765 25.9885 14.5546 26.1538 16.1736 25.8317C17.7926 25.5097 19.2798 24.7148 20.447 23.5476C21.6142 22.3803 22.4091 20.8932 22.7312 19.2742C23.0532 17.6552 22.8879 15.9771 22.2562 14.452C21.6245 12.927 20.5548 11.6235 19.1822 10.7064C17.8097 9.7893 16.1961 9.2998 14.5454 9.2998C12.3326 9.30235 10.2112 10.1825 8.64656 11.7471C7.08191 13.3118 6.20176 15.4332 6.19922 17.646ZM21.3616 17.646C21.3616 18.9941 20.9618 20.3119 20.2128 21.4328C19.4639 22.5537 18.3993 23.4274 17.1538 23.9433C15.9083 24.4592 14.5378 24.5942 13.2156 24.3312C11.8934 24.0682 10.6789 23.419 9.72559 22.4657C8.77233 21.5125 8.12315 20.2979 7.86015 18.9757C7.59715 17.6535 7.73213 16.283 8.24803 15.0375C8.76393 13.792 9.63758 12.7275 10.7585 11.9785C11.8794 11.2295 13.1973 10.8298 14.5454 10.8298C16.3525 10.8318 18.085 11.5506 19.3628 12.8285C20.6407 14.1063 21.3595 15.8388 21.3616 17.646Z" fill="#EC6A4F"/>
<g id="Group 53">
<path id="Vector_3" d="M13.1694 17.5762L14.3028 16.4005C14.3602 16.3464 14.4042 16.283 14.432 16.214C14.4598 16.1451 14.4709 16.0721 14.4646 15.9993C14.4583 15.9266 14.4348 15.8558 14.3954 15.791C14.356 15.7263 14.3016 15.669 14.2355 15.6227C14.1694 15.5764 14.0929 15.542 14.0107 15.5216C13.9285 15.5012 13.8423 15.4951 13.7573 15.5039C13.6723 15.5127 13.5903 15.536 13.5162 15.5726C13.4421 15.6091 13.3775 15.6581 13.3263 15.7165L12.053 17.0373H11.5988V16.0584C11.5988 15.9154 11.5321 15.7784 11.4134 15.6773C11.2947 15.5762 11.1337 15.5194 10.9659 15.5194C10.798 15.5194 10.6371 15.5762 10.5184 15.6773C10.3997 15.7784 10.333 15.9154 10.333 16.0584V19.0944C10.333 19.2374 10.3997 19.3744 10.5184 19.4755C10.6371 19.5766 10.798 19.6333 10.9659 19.6333C11.1337 19.6333 11.2947 19.5766 11.4134 19.4755C11.5321 19.3744 11.5988 19.2374 11.5988 19.0944V18.1151H12.053L13.326 19.4362C13.4325 19.5467 13.5862 19.6167 13.7532 19.6307C13.9203 19.6447 14.0871 19.6016 14.2169 19.5109C14.3466 19.4202 14.4288 19.2893 14.4452 19.1471C14.4617 19.0048 14.4111 18.8628 14.3046 18.7523L13.1694 17.5762Z" fill="#EC6A4F"/>
<path id="Vector_4" d="M15.8669 19.6333H17.9642C18.1329 19.6333 18.2946 19.5763 18.4139 19.4747C18.5331 19.3732 18.6001 19.2355 18.6001 19.0919V17.5665C18.6002 17.4954 18.5838 17.425 18.5518 17.3593C18.5199 17.2935 18.473 17.2338 18.414 17.1836C18.3549 17.1333 18.2848 17.0934 18.2076 17.0662C18.1305 17.039 18.0478 17.025 17.9642 17.0251H17.2215C17.0529 17.0251 16.8911 17.0821 16.7719 17.1836C16.6526 17.2852 16.5856 17.4229 16.5856 17.5665C16.5856 17.7101 16.6526 17.8478 16.7719 17.9494C16.8911 18.0509 17.0529 18.108 17.2215 18.108H17.3283V18.5504H15.8669C15.8329 18.5503 15.8003 18.5388 15.7763 18.5183C15.7522 18.4979 15.7387 18.4701 15.7386 18.4412V16.6918C15.7387 16.6629 15.7522 16.6352 15.7763 16.6148C15.8003 16.5944 15.8329 16.5829 15.8669 16.5829H17.9642C18.1329 16.5829 18.2946 16.5259 18.4139 16.4243C18.5331 16.3228 18.6001 16.1851 18.6001 16.0415C18.6001 15.8979 18.5331 15.7601 18.4139 15.6586C18.2946 15.557 18.1329 15.5 17.9642 15.5H15.8669C15.4957 15.5003 15.1399 15.626 14.8774 15.8494C14.615 16.0729 14.4673 16.3758 14.4668 16.6918V18.4412C14.4672 18.7573 14.6148 19.0603 14.8773 19.2838C15.1398 19.5073 15.4957 19.633 15.8669 19.6333Z" fill="#EC6A4F"/>
</g>
</g>
</svg>
