<svg width="42" height="36" viewBox="0 0 42 36" fill="none" xmlns="http://www.w3.org/2000/svg">
<g id="Group">
<path id="Vector" d="M12.2237 1C12.2237 1 18.8262 8.26282 18.8262 14.2051C18.8262 15.9562 18.1306 17.6356 16.8924 18.8738C15.6542 20.1121 13.9748 20.8077 12.2237 20.8077C10.4725 20.8077 8.79316 20.1121 7.55494 18.8738C6.31672 17.6356 5.62109 15.9562 5.62109 14.2051C5.62109 8.26282 12.2237 1 12.2237 1Z" stroke="#EC6A4F" stroke-width="1.3" stroke-linecap="round" stroke-linejoin="round"/>
<path id="Vector_2" d="M8.39844 12.8844C8.44245 12.6665 8.49307 12.4464 8.5503 12.2241" stroke="#EC6A4F" stroke-width="1.3" stroke-linecap="round" stroke-linejoin="round"/>
<path id="Vector_3" d="M11.565 18.1121C10.869 17.9931 10.2172 17.6907 9.67674 17.2362C9.1363 16.7816 8.72675 16.1913 8.49023 15.5259" stroke="#EC6A4F" stroke-width="1.3" stroke-linecap="round" stroke-linejoin="round"/>
<path id="Vector_4" d="M40.6154 35.3335H1" stroke="#EC6A4F" stroke-width="1.3" stroke-linecap="round" stroke-linejoin="round"/>
<path id="Vector_5" d="M27.4106 31.3714C28.8692 31.3714 30.0516 30.189 30.0516 28.7304C30.0516 27.2718 28.8692 26.0894 27.4106 26.0894C25.952 26.0894 24.7695 27.2718 24.7695 28.7304C24.7695 30.189 25.952 31.3714 27.4106 31.3714Z" stroke="#EC6A4F" stroke-width="1.3" stroke-linecap="round" stroke-linejoin="round"/>
<path id="Vector_6" d="M38.6351 30.7115C39.729 30.7115 40.6158 29.8247 40.6158 28.7308C40.6158 27.6368 39.729 26.75 38.6351 26.75C37.5411 26.75 36.6543 27.6368 36.6543 28.7308C36.6543 29.8247 37.5411 30.7115 38.6351 30.7115Z" stroke="#EC6A4F" stroke-width="1.3" stroke-linecap="round" stroke-linejoin="round"/>
<path id="Vector_7" d="M36.9837 22.7883C38.26 22.7883 39.2946 21.7537 39.2946 20.4774C39.2946 19.2011 38.26 18.1665 36.9837 18.1665C35.7075 18.1665 34.6729 19.2011 34.6729 20.4774C34.6729 21.7537 35.7075 22.7883 36.9837 22.7883Z" stroke="#EC6A4F" stroke-width="1.3" stroke-linecap="round" stroke-linejoin="round"/>
<path id="Vector_8" d="M28.0705 12.8848H33.3526C16.8462 24.1091 16.1859 32.0322 13.5449 32.0322C11.5641 32.0322 10.2436 26.7502 1 21.4681" stroke="#EC6A4F" stroke-width="1.3" stroke-linecap="round" stroke-linejoin="round"/>
<path id="Vector_9" d="M33.3527 12.8848L32.0322 17.5066" stroke="#EC6A4F" stroke-width="1.3" stroke-linecap="round" stroke-linejoin="round"/>
</g>
</svg>
