<svg width="35" height="35" viewBox="0 0 35 35" fill="none" xmlns="http://www.w3.org/2000/svg">
<g id="temperature 1">
<g id="g2355">
<g id="g2357">
<g id="Clip path group">
<mask id="mask0_547_1793" style="mask-type:luminance" maskUnits="userSpaceOnUse" x="0" y="0" width="35" height="35">
<g id="clipPath2363">
<path id="path2361" d="M0 3.8147e-06H35V35H0V3.8147e-06Z" fill="white"/>
</g>
</mask>
<g mask="url(#mask0_547_1793)">
<g id="g2359">
<g id="g2365">
<path id="path2367" d="M28.0957 27.8223C28.0957 26.0023 27.3009 24.3722 26.0449 23.2457V5.12696C26.0449 2.86173 24.2086 1.02539 21.9434 1.02539C19.6781 1.02539 17.8418 2.86173 17.8418 5.12696V23.2457C16.5858 24.3722 15.791 26.0023 15.791 27.8223" stroke="#EC6A4F" stroke-width="1.3" stroke-miterlimit="10" stroke-linecap="round" stroke-linejoin="round"/>
</g>
<g id="g2369">
<path id="path2371" d="M15.791 27.8223C15.791 31.2201 18.5455 33.9746 21.9434 33.9746C25.3412 33.9746 28.0957 31.2201 28.0957 27.8223" stroke="#EC6A4F" stroke-width="1.3" stroke-miterlimit="10" stroke-linecap="round" stroke-linejoin="round"/>
</g>
<g id="g2373">
<path id="path2375" d="M23.9941 27.8223C23.9941 28.9548 23.0759 29.873 21.9434 29.873C20.8108 29.873 19.8926 28.9548 19.8926 27.8223C19.8926 26.6897 20.8108 25.7715 21.9434 25.7715C23.0759 25.7715 23.9941 26.6897 23.9941 27.8223Z" stroke="#EC6A4F" stroke-width="1.3" stroke-miterlimit="10" stroke-linecap="round" stroke-linejoin="round"/>
</g>
<g id="g2377">
<path id="path2379" d="M21.9434 25.7715V13.3301" stroke="#EC6A4F" stroke-width="1.3" stroke-miterlimit="10" stroke-linecap="round" stroke-linejoin="round"/>
</g>
<g id="g2381">
<path id="path2383" d="M30.1465 5.12695H32.1973" stroke="#EC6A4F" stroke-width="1.3" stroke-miterlimit="10" stroke-linecap="round" stroke-linejoin="round"/>
</g>
<g id="g2385">
<path id="path2387" d="M30.1465 9.22852H31.1719" stroke="#EC6A4F" stroke-width="1.3" stroke-miterlimit="10" stroke-linecap="round" stroke-linejoin="round"/>
</g>
<g id="g2389">
<path id="path2391" d="M30.1465 13.3301H32.1973" stroke="#EC6A4F" stroke-width="1.3" stroke-miterlimit="10" stroke-linecap="round" stroke-linejoin="round"/>
</g>
<g id="g2393">
<path id="path2395" d="M30.1465 17.4316H31.1719" stroke="#EC6A4F" stroke-width="1.3" stroke-miterlimit="10" stroke-linecap="round" stroke-linejoin="round"/>
</g>
<g id="g2397">
<path id="path2399" d="M30.1465 21.5332H32.1973" stroke="#EC6A4F" stroke-width="1.3" stroke-miterlimit="10" stroke-linecap="round" stroke-linejoin="round"/>
</g>
<g id="g2401">
<path id="path2403" d="M2.80273 7.86133L5.53711 5.12695L8.27148 7.86133" stroke="#EC6A4F" stroke-width="1.3" stroke-miterlimit="10" stroke-linecap="round" stroke-linejoin="round"/>
</g>
<g id="g2405">
<path id="path2407" d="M5.53711 17.4316V5.12695" stroke="#EC6A4F" stroke-width="1.3" stroke-miterlimit="10" stroke-linecap="round" stroke-linejoin="round"/>
</g>
<g id="g2409">
<path id="path2411" d="M6.9043 22.9004L9.63867 25.6348L12.373 22.9004" stroke="#EC6A4F" stroke-width="1.3" stroke-miterlimit="10" stroke-linecap="round" stroke-linejoin="round"/>
</g>
<g id="g2413">
<path id="path2415" d="M9.63867 13.3301V25.6348" stroke="#EC6A4F" stroke-width="1.3" stroke-miterlimit="10" stroke-linecap="round" stroke-linejoin="round"/>
</g>
</g>
</g>
</g>
</g>
</g>
</g>
</svg>
