<svg width="36" height="36" viewBox="0 0 36 36" fill="none" xmlns="http://www.w3.org/2000/svg">
<g id="g2769">
<g id="g2771">
<g id="Clip path group">
<mask id="mask0_547_1749" style="mask-type:luminance" maskUnits="userSpaceOnUse" x="0" y="0" width="36" height="36">
<g id="clipPath2777">
<path id="path2775" d="M0 3.8147e-06H36V36H0V3.8147e-06Z" fill="white"/>
</g>
</mask>
<g mask="url(#mask0_547_1749)">
<g id="g2773">
<g id="g2779">
<path id="path2781" d="M22.4982 26.5622C23.337 24.7106 23.7895 22.7025 23.7895 20.6342V13.3609L12.6233 9.25116L1.45703 13.3609V20.6342C1.45703 26.9591 5.68654 32.7206 12.2646 35.1664C12.3829 35.2103 12.5024 35.2538 12.6233 35.2969C12.7441 35.2538 12.8638 35.2103 12.982 35.1664C15.2651 34.3175 17.2648 33.069 18.9034 31.5364" stroke="#EC6A4F" stroke-width="1.3" stroke-miterlimit="10" stroke-linecap="round" stroke-linejoin="round"/>
</g>
<g id="g2783">
<path id="path2785" d="M12.6231 32.1206C10.2288 31.1143 8.20812 29.5582 6.75145 27.5923C5.21723 25.5216 4.40625 23.125 4.40625 20.6613V15.4368L12.6231 12.4124L20.84 15.4369V20.6613C20.84 23.125 20.0291 25.5216 18.4948 27.5923C17.0383 29.5579 15.0175 31.1142 12.6231 32.1206Z" stroke="#EC6A4F" stroke-width="1.3" stroke-miterlimit="10" stroke-linecap="round" stroke-linejoin="round"/>
</g>
<g id="g2787">
<path id="path2789" d="M29.525 11.4573C29.525 14.6262 26.9565 17.1948 23.7882 17.1948V13.3606L18.0557 11.2506C18.1639 8.17795 20.6888 5.72053 23.7882 5.72053C26.9565 5.72053 29.525 8.28897 29.525 11.4573Z" stroke="#EC6A4F" stroke-width="1.3" stroke-miterlimit="10" stroke-linecap="round" stroke-linejoin="round"/>
</g>
<g id="g2791">
<path id="path2793" d="M23.7881 2.97656V0.7035" stroke="#EC6A4F" stroke-width="1.3" stroke-miterlimit="10" stroke-linecap="round" stroke-linejoin="round"/>
</g>
<g id="g2795">
<path id="path2797" d="M17.7918 5.45996L16.1846 3.85269" stroke="#EC6A4F" stroke-width="1.3" stroke-miterlimit="10" stroke-linecap="round" stroke-linejoin="round"/>
</g>
<g id="g2799">
<path id="path2801" d="M31.3944 19.0625L29.7871 17.4552" stroke="#EC6A4F" stroke-width="1.3" stroke-miterlimit="10" stroke-linecap="round" stroke-linejoin="round"/>
</g>
<g id="g2803">
<path id="path2805" d="M29.7871 5.45996L31.3944 3.85269" stroke="#EC6A4F" stroke-width="1.3" stroke-miterlimit="10" stroke-linecap="round" stroke-linejoin="round"/>
</g>
<g id="g2807">
<path id="path2809" d="M32.2705 11.458H34.5436" stroke="#EC6A4F" stroke-width="1.3" stroke-miterlimit="10" stroke-linecap="round" stroke-linejoin="round"/>
</g>
<g id="g2811">
<path id="path2813" d="M9.17871 22.0742L11.5532 24.4487L16.8138 19.1882" stroke="#EC6A4F" stroke-width="1.3" stroke-miterlimit="10" stroke-linecap="round" stroke-linejoin="round"/>
</g>
</g>
</g>
</g>
</g>
</g>
</svg>
