<svg width="35" height="35" viewBox="0 0 35 35" fill="none" xmlns="http://www.w3.org/2000/svg">
<g id="ice-skate 1" clip-path="url(#clip0_550_1830)">
<path id="Vector" d="M33.8333 24.5V23.3333C33.8333 20.9417 32.3301 19.2943 30.0049 19.1333C28.7129 19.0373 27.4441 18.738 26.2453 18.2467C26.2383 18.2467 26.2337 18.2385 26.2267 18.2362H26.2173C25.226 17.8327 24.2886 17.3078 23.4267 16.6734C23.415 16.6641 23.408 16.6507 23.3952 16.6419C23.3823 16.6332 23.3695 16.6332 23.3572 16.6262C22.5335 16.0059 21.7846 15.2922 21.1254 14.4993C21.1138 14.479 21.1008 14.4595 21.0863 14.441C21.0787 14.4334 21.0688 14.4311 21.0607 14.4241C19.1591 12.1579 18.1063 9.30018 18.0833 6.342V1.75C18.0908 1.29427 17.9173 0.854161 17.6009 0.526126C17.2845 0.198091 16.8509 0.00889353 16.3952 0C15.9927 0.000628045 15.5907 0.0296725 15.1923 0.0869167L5.53233 1.82758C5.13063 1.88678 4.76348 2.08811 4.49759 2.395C4.23171 2.70188 4.08472 3.09396 4.08333 3.5V7.06883C4.08513 8.35795 3.78548 9.62963 3.20833 10.7823C3.10333 11.0238 2.99892 11.2665 2.89742 11.5191C2.05192 13.6005 1.66072 15.8385 1.75 18.0833C1.74624 19.5071 1.94581 20.9241 2.34267 22.2915L2.80408 26.4472C2.84388 26.7944 2.98714 27.1217 3.21525 27.3865C3.44336 27.6514 3.74581 27.8415 4.08333 27.9323V29.75C4.08333 30.0594 3.96042 30.3562 3.74162 30.575C3.52283 30.7938 3.22609 30.9167 2.91667 30.9167H1.75C1.28587 30.9167 0.840752 31.101 0.512563 31.4292C0.184374 31.7574 0 32.2025 0 32.6667L0 33.25C0 33.7141 0.184374 34.1592 0.512563 34.4874C0.840752 34.8156 1.28587 35 1.75 35H28.9077C29.8112 34.9969 30.7051 34.8136 31.5369 34.4608C32.3688 34.1081 33.1219 33.5929 33.7522 32.9455C34.5409 32.0662 34.9841 30.931 35 29.75C34.9752 28.6024 34.5642 27.4967 33.8333 26.6117V24.5ZM2.91667 18.0833C2.82985 15.9868 3.19223 13.8958 3.9795 11.9507C4.07633 11.7087 4.17725 11.4759 4.27758 11.2443C4.92052 9.9459 5.25339 8.51598 5.25 7.06708V3.5C5.25188 3.37167 5.30019 3.24837 5.38599 3.15292C5.47179 3.05747 5.58926 2.99633 5.71667 2.98083L15.3778 1.239C15.7148 1.19106 16.0548 1.16689 16.3952 1.16667C16.5415 1.17525 16.6786 1.24142 16.7763 1.35073C16.874 1.46004 16.9245 1.60359 16.9167 1.75V2.93183H15.75C15.5953 2.93183 15.4469 2.99329 15.3375 3.10269C15.2281 3.21208 15.1667 3.36046 15.1667 3.51517C15.1667 3.66988 15.2281 3.81825 15.3375 3.92765C15.4469 4.03704 15.5953 4.0985 15.75 4.0985H16.9167V5.8485H15.75C15.5953 5.8485 15.4469 5.90996 15.3375 6.01935C15.2281 6.12875 15.1667 6.27712 15.1667 6.43183C15.1667 6.58654 15.2281 6.73492 15.3375 6.84431C15.4469 6.95371 15.5953 7.01517 15.75 7.01517H16.9336C16.9669 7.646 17.0449 8.27368 17.1669 8.8935L16.2242 9.18517C16.0908 9.22661 15.9767 9.31456 15.9026 9.43303C15.8286 9.55151 15.7995 9.69263 15.8207 9.83073C15.8419 9.96883 15.9119 10.0947 16.0181 10.1856C16.1243 10.2764 16.2595 10.3261 16.3992 10.3256C16.4586 10.326 16.5176 10.3171 16.5742 10.2993L17.4452 10.0281C17.6304 10.6776 17.8632 11.3126 18.1417 11.928L17.1821 12.5697C17.1183 12.6122 17.0636 12.6668 17.021 12.7305C16.9784 12.7942 16.9487 12.8656 16.9337 12.9407C16.9187 13.0159 16.9187 13.0932 16.9335 13.1684C16.9484 13.2435 16.978 13.315 17.0205 13.3787C17.063 13.4425 17.1177 13.4972 17.1813 13.5398C17.245 13.5824 17.3164 13.6121 17.3916 13.6271C17.4667 13.6421 17.5441 13.6422 17.6192 13.6273C17.6944 13.6124 17.7658 13.5828 17.8296 13.5403L18.6667 12.978C19.0239 13.6231 19.4299 14.2399 19.8812 14.8231L19.2978 15.4029C19.1883 15.5126 19.1268 15.6613 19.1269 15.8163C19.127 15.9713 19.1887 16.12 19.2984 16.2295C19.4081 16.339 19.5568 16.4005 19.7118 16.4004C19.8668 16.4003 20.0155 16.3386 20.125 16.2289L20.6372 15.7173C21.1453 16.273 21.6956 16.7884 22.2833 17.2591L21.987 17.7012C21.9444 17.7649 21.9147 17.8364 21.8997 17.9116C21.8847 17.9867 21.8846 18.0641 21.8995 18.1393C21.9144 18.2145 21.944 18.286 21.9865 18.3498C22.029 18.4135 22.0837 18.4683 22.1474 18.5109C22.2111 18.5535 22.2826 18.5832 22.3577 18.5982C22.4329 18.6132 22.5103 18.6133 22.5855 18.5984C22.6607 18.5835 22.7322 18.5539 22.7959 18.5114C22.8597 18.4689 22.9145 18.4142 22.9571 18.3505L23.2225 17.9538C23.8821 18.4007 24.5784 18.791 25.3038 19.1205L25.1189 19.649C25.068 19.7949 25.0771 19.955 25.1441 20.0943C25.2112 20.2335 25.3307 20.3404 25.4765 20.3916C25.5383 20.4136 25.6034 20.4249 25.669 20.4248C25.7899 20.4247 25.9077 20.387 26.0063 20.317C26.1048 20.247 26.1792 20.1481 26.2191 20.034L26.3865 19.5563C27.5271 19.9626 28.7174 20.2128 29.925 20.3C30.3079 20.3086 30.6851 20.3954 31.0333 20.5549C31.3816 20.7144 31.6936 20.9433 31.9503 21.2276C32.207 21.5119 32.4029 21.8456 32.5261 22.2083C32.6493 22.571 32.6971 22.955 32.6667 23.3368V23.9931L23.9085 25.1866C21.6987 25.4916 19.4484 25.1194 17.4545 24.1191L14.9742 22.8801C13.2722 22.032 11.397 21.5895 9.4955 21.5874H3.35708C3.06739 20.4418 2.91948 19.265 2.91667 18.0833ZM3.96667 26.3165L3.57117 22.7541H9.4955C11.2164 22.7558 12.9136 23.1561 14.4538 23.9237L16.9342 25.1627C18.6307 26.0132 20.5022 26.4562 22.4 26.4565C22.9579 26.4554 23.5151 26.4164 24.0677 26.3398L32.6667 25.1708V26.3322L23.1618 27.7544C20.9529 28.0556 18.7045 27.6831 16.7107 26.6858L14.2269 25.4444C12.7109 24.6865 11.0537 24.2526 9.36075 24.1704C9.28187 24.1667 9.20306 24.179 9.12909 24.2067C9.05512 24.2343 8.98754 24.2767 8.93043 24.3313C8.87333 24.3858 8.82789 24.4514 8.79687 24.524C8.76586 24.5966 8.74991 24.6748 8.75 24.7537V26.25C8.75 26.4047 8.68854 26.5531 8.57915 26.6625C8.46975 26.7719 8.32138 26.8333 8.16667 26.8333H4.543C4.40036 26.8326 4.26294 26.7795 4.15675 26.6843C4.05055 26.5891 3.98293 26.4582 3.96667 26.3165ZM30.3333 29.4233C30.333 29.8193 30.1756 30.1989 29.8956 30.4789C29.6156 30.7589 29.236 30.9164 28.84 30.9167H26.25C25.9406 30.9167 25.6438 30.7938 25.425 30.575C25.2062 30.3562 25.0833 30.0594 25.0833 29.75V28.6469L29.3026 28.0152C29.602 28.1094 29.8635 28.2969 30.049 28.5502C30.2344 28.8035 30.334 29.1094 30.3333 29.4233ZM20.4167 28.9567V29.75C20.4167 30.0594 20.2938 30.3562 20.075 30.575C19.8562 30.7938 19.5594 30.9167 19.25 30.9167H9.91667C9.60725 30.9167 9.3105 30.7938 9.09171 30.575C8.87292 30.3562 8.75 30.0594 8.75 29.75V27.8932C9.09012 27.773 9.38477 27.5506 9.59362 27.2564C9.80246 26.9623 9.91529 26.6108 9.91667 26.25V25.3808C11.2352 25.5194 12.5182 25.8938 13.7042 26.4862L16.1892 27.7282C17.5123 28.3902 18.9448 28.8059 20.4167 28.9549V28.9567ZM32.8965 32.1533C32.3761 32.6837 31.7555 33.1053 31.0707 33.3937C30.386 33.6821 29.6507 33.8316 28.9077 33.8333H1.75C1.59529 33.8333 1.44692 33.7719 1.33752 33.6625C1.22812 33.5531 1.16667 33.4047 1.16667 33.25V32.6667C1.16667 32.512 1.22812 32.3636 1.33752 32.2542C1.44692 32.1448 1.59529 32.0833 1.75 32.0833H2.91667C3.53551 32.0833 4.129 31.8375 4.56658 31.3999C5.00417 30.9623 5.25 30.3688 5.25 29.75V28H7.58333V29.75C7.58333 30.3688 7.82917 30.9623 8.26675 31.3999C8.70434 31.8375 9.29783 32.0833 9.91667 32.0833H19.25C19.8688 32.0833 20.4623 31.8375 20.8999 31.3999C21.3375 30.9623 21.5833 30.3688 21.5833 29.75V29.0197C21.609 29.0197 21.6341 29.0197 21.6597 29.0197C22.2172 29.0194 22.7739 28.982 23.3263 28.9077L23.9167 28.8213V29.75C23.9167 30.3688 24.1625 30.9623 24.6001 31.3999C25.0377 31.8375 25.6312 32.0833 26.25 32.0833H28.84C29.3399 32.0834 29.8297 31.9425 30.2532 31.677C30.6767 31.4114 31.0168 31.0318 31.2344 30.5818C31.4521 30.1318 31.5385 29.6295 31.4837 29.1326C31.4289 28.6357 31.2353 28.1643 30.9248 27.7725L33.0248 27.4581C33.5297 28.1175 33.8127 28.9198 33.8333 29.75C33.8191 30.6375 33.4867 31.4904 32.8965 32.1533Z" fill="#EC6A4F"/>
</g>
<defs>
<clipPath id="clip0_550_1830">
<rect width="35" height="35" fill="white"/>
</clipPath>
</defs>
</svg>
