<svg width="27" height="35" viewBox="0 0 27 35" fill="none" xmlns="http://www.w3.org/2000/svg">
<g id="Group">
<path id="Vector" d="M10.4956 0.0517659C10.2212 -0.064492 9.90294 0.0198547 9.72221 0.256776C9.54144 0.493664 9.54408 0.822925 9.72867 1.05684C11.2189 2.94562 11.3891 4.67102 10.8593 6.36115C10.3093 8.11582 8.99235 9.8701 7.38912 11.7146C6.91335 12.2619 6.41093 12.8186 5.90198 13.3824C4.73411 14.6763 3.53192 16.0082 2.53885 17.3533C1.10548 19.2947 0 21.3962 0 23.6801C0 29.5505 3.98073 33.0924 6.01383 34.1496C6.33356 34.3157 6.72759 34.1914 6.89387 33.8716C7.06015 33.5518 6.93573 33.1577 6.61597 32.9916C4.87415 32.0858 1.30517 28.9231 1.30517 23.6801C1.30517 21.8176 2.20985 19.9963 3.58882 18.1285C4.54274 16.8365 5.67227 15.5854 6.81876 14.3156C7.33867 13.7397 7.86211 13.1599 8.37419 12.5708C9.97968 10.7237 11.4656 8.7903 12.1047 6.75153C12.5583 5.30458 12.5794 3.82423 11.9766 2.3165C15.0841 4.35409 16.9874 7.57414 16.9874 10.4664C16.9874 12.2897 16.3198 13.3964 15.5925 14.4369C14.8017 15.5682 13.9621 16.7265 13.9621 18.1995C13.9621 19.1144 14.4279 19.9846 15.081 20.6113C15.7383 21.2421 16.6502 21.6903 17.64 21.6903C19.0635 21.6903 20.3222 21.1409 21.0773 20.0365C21.6084 19.2599 21.8471 18.2723 21.7711 17.1338C22.2401 17.5256 22.7235 18.0495 23.1782 18.6911C24.0032 19.8552 24.6903 21.3475 25.0019 22.9812C25.618 26.2108 24.779 30.024 20.5101 33.0373C20.2157 33.2451 20.1455 33.6523 20.3533 33.947C20.5612 34.2413 20.9684 34.3114 21.2628 34.1036C25.9784 30.7748 26.9893 26.4341 26.2841 22.7367C25.935 20.907 25.1687 19.2425 24.2431 17.9364C23.3273 16.6442 22.2112 15.6419 21.1224 15.2197C20.893 15.1308 20.6331 15.1784 20.4501 15.3429C20.2672 15.5074 20.1923 15.7609 20.2565 15.9984C20.6691 17.5254 20.4686 18.6144 20 19.2998C19.537 19.9767 18.7273 20.3851 17.64 20.3851C17.0443 20.3851 16.4436 20.11 15.9846 19.6696C15.5215 19.2251 15.2673 18.6762 15.2673 18.1995C15.2673 17.1634 15.7567 16.2936 16.6622 15.1847C17.4475 14.0612 18.2926 12.6855 18.2926 10.4664C18.2926 6.36954 15.1387 2.01918 10.4956 0.0517659Z" fill="#EC6A4F"/>
<path id="Vector_2" d="M9.02382 21.2386C8.78853 21.1391 8.51683 21.186 8.32853 21.3586C8.14022 21.5313 8.06997 21.7979 8.1488 22.0409C8.61367 23.4744 8.32406 24.6143 7.74867 25.8584C7.39321 26.6269 6.97461 27.532 6.97461 28.6059C6.97461 31.2485 9.14977 33.2957 9.93382 34.0324C10.1887 34.2873 10.6019 34.2873 10.8567 34.0324C11.1115 33.7776 11.1115 33.3642 10.8567 33.1093C10.035 32.3217 8.27978 30.6357 8.27978 28.6059C8.27978 27.8453 8.54424 27.2669 8.87836 26.5362C9.33289 25.542 9.75922 24.2472 9.69983 23.2167C10.8787 24.3204 11.5002 26.1253 11.5002 27.9909C11.5002 28.9853 11.9301 29.7844 12.6102 30.3019C13.2755 30.8083 14.1424 31.0194 15.0076 30.948C16.1811 30.8508 17.3789 30.2367 18.2065 29.078C18.2061 29.4767 18.1722 29.8911 18.0964 30.299C17.869 31.5219 17.2994 32.5302 16.3197 32.9772C15.9918 33.1266 15.8472 33.5139 15.9968 33.8419C16.1464 34.1698 16.5334 34.3143 16.8613 34.1646C18.386 33.4692 19.1127 31.9729 19.3796 30.5375C19.6465 29.1021 19.4885 27.5691 19.0857 26.5622C18.979 26.2953 18.7101 26.1297 18.4237 26.1544C18.1374 26.1791 17.9009 26.3882 17.8414 26.6695C17.4158 28.6812 16.0644 29.5508 14.9 29.6474C14.3043 29.6967 13.7707 29.5449 13.4007 29.2633C13.0454 28.9928 12.8054 28.5781 12.8054 27.9909C12.8054 25.3088 11.6497 22.3496 9.02382 21.2386Z" fill="#EC6A4F"/>
</g>
</svg>
