<svg width="35" height="35" viewBox="0 0 35 35" fill="none" xmlns="http://www.w3.org/2000/svg">
<g id="cloth 1" clip-path="url(#clip0_550_1841)">
<g id="Page-1">
<g id="005---Wiping-Surface">
<path id="Shape" d="M5.22644 16.6034C5.20252 16.6553 5.17802 16.7043 5.1541 16.7574C4.68319 17.8145 3.91247 18.7102 2.93744 19.3334L1.32569 20.3583C0.916041 20.6196 0.64696 21.0526 0.594012 21.5356C0.541064 22.0185 0.709962 22.4995 1.05327 22.8433L8.08069 29.8713C8.38086 30.1708 8.78776 30.3387 9.21177 30.338C9.27189 30.3397 9.33207 30.3382 9.39202 30.3333C9.87558 30.2813 10.3089 30.0113 10.5686 29.6001C11.3136 28.4567 12.422 27.5975 13.7151 27.1612C14.2033 26.9874 14.6706 26.7601 15.1087 26.4833L16.5303 27.9043C17.1387 28.5152 18.1028 28.5885 18.7965 28.0764L25.5463 34.8291C25.7752 35.0502 26.139 35.047 26.364 34.822C26.589 34.597 26.5922 34.2331 26.3711 34.0043L19.6377 27.2708L22.0212 24.8873L27.4421 30.3083C27.671 30.5293 28.0348 30.5262 28.2598 30.3011C28.4848 30.0761 28.488 29.7123 28.2669 29.4834L22.846 24.0625L24.9379 21.9707L27.1504 24.1833C27.3793 24.4043 27.7432 24.4012 27.9682 24.1761C28.1932 23.9511 28.1963 23.5873 27.9753 23.3584L25.7627 21.1458L27.8545 19.054L32.4004 23.5999C32.6293 23.821 32.9932 23.8178 33.2182 23.5928C33.4432 23.3678 33.4463 23.004 33.2253 22.7751L28.6607 18.2105C29.1727 17.5168 29.0995 16.5527 28.4886 15.9443L25.0364 12.4921C25.0703 12.3483 25.0881 12.2012 25.0895 12.0534C25.0914 11.5307 24.8838 11.029 24.5132 10.6604C24.3151 10.4652 24.076 10.3165 23.8132 10.2253L24.5132 9.52525C25.2816 8.75554 25.2816 7.50897 24.5132 6.73925C23.7341 5.99376 22.5062 5.99376 21.7272 6.73925L21.3614 7.105C21.1651 6.57713 20.75 6.15996 20.2232 5.96093C19.6963 5.7619 19.1091 5.80045 18.6128 6.06667L13.0624 0.517418C12.3708 -0.149686 11.2753 -0.149686 10.5838 0.517418L1.1011 9.99717C0.769607 10.3243 0.583008 10.7707 0.583008 11.2365C0.583008 11.7022 0.769607 12.1486 1.1011 12.4758L5.22644 16.6034ZM27.8341 17.1821C27.8344 17.3369 27.7731 17.4855 27.6638 17.5951L18.1788 27.0801C17.9473 27.2999 17.5842 27.2999 17.3528 27.0801L16.063 25.7903C16.2269 25.6509 16.3296 25.5523 16.3419 25.5401L21.2419 20.6372C21.6285 20.25 21.8368 19.7195 21.8169 19.1726C21.797 18.6258 21.5507 18.1118 21.1369 17.7538C20.9622 17.6043 20.7615 17.4882 20.5448 17.4113L24.4239 13.5328L27.6609 16.7697C27.7715 16.8784 27.8339 17.027 27.8341 17.1821ZM20.0933 7.23625C20.4056 7.55064 20.4056 8.05819 20.0933 8.37259L15.517 12.95C15.3654 13.0965 15.3046 13.3133 15.3579 13.5173C15.4113 13.7212 15.5706 13.8805 15.7746 13.9339C15.9785 13.9873 16.1954 13.9265 16.3419 13.7748L20.9175 9.19917L22.5509 7.56584C22.8685 7.26153 23.3695 7.26153 23.6872 7.56584C23.9998 7.8801 23.9998 8.38791 23.6872 8.70217L17.4782 14.9094C17.3265 15.0559 17.2657 15.2728 17.3191 15.4767C17.3725 15.6807 17.5318 15.8399 17.7357 15.8933C17.9397 15.9467 18.1566 15.8859 18.303 15.7343L22.552 11.4853C22.8696 11.1806 23.3708 11.1806 23.6884 11.4853C24.001 11.7995 24.001 12.3073 23.6884 12.6216L18.7884 17.5245C18.7491 17.5676 18.7167 17.6163 18.6921 17.6692C18.5901 17.7399 18.4945 17.8193 18.4063 17.9066L15.8437 20.4657C15.6156 20.6934 15.6153 21.063 15.8431 21.2911C16.0709 21.5192 16.4404 21.5194 16.6685 21.2917L19.2282 18.732C19.5302 18.4117 20.025 18.3702 20.3762 18.6358C20.545 18.7819 20.6456 18.9917 20.6539 19.2148C20.6622 19.438 20.5774 19.6546 20.4199 19.8129L15.5199 24.7129C14.8871 25.3007 14.1437 25.7568 13.333 26.0546C11.7907 26.5774 10.4697 27.605 9.58335 28.9713C9.51224 29.0827 9.39446 29.1559 9.26306 29.1703C9.13166 29.1847 9.00082 29.1387 8.90727 29.0453L1.8781 22.0185C1.78449 21.9249 1.73841 21.794 1.75281 21.6624C1.76721 21.5308 1.84055 21.4129 1.95219 21.3418L3.56219 20.3175C4.73009 19.5722 5.65373 18.5008 6.21869 17.2358C6.68374 16.0858 7.34407 15.0248 8.17052 14.0998L14.6525 7.61834C14.9541 7.29761 15.4491 7.25609 15.7999 7.52209C15.9688 7.66828 16.0693 7.87799 16.0776 8.10116C16.0859 8.32433 16.0012 8.54093 15.8437 8.69925L13.5559 10.9871C13.4042 11.1335 13.3434 11.3504 13.3968 11.5544C13.4502 11.7583 13.6094 11.9176 13.8134 11.971C14.0173 12.0244 14.2342 11.9636 14.3807 11.8119L16.6685 9.52408L18.9587 7.23625C19.2761 6.93307 19.7758 6.93307 20.0933 7.23625ZM1.92535 10.8249L11.4115 1.337C11.6408 1.11346 12.0069 1.11476 12.2346 1.33992L17.7179 6.82325L17.1066 7.434C16.9941 7.12784 16.8071 6.85456 16.5624 6.63892C15.7502 5.96807 14.5586 6.03489 13.8265 6.79234L7.34569 13.2749C6.72004 13.9395 6.19138 14.6891 5.77535 15.5015L1.92127 11.6515C1.80985 11.5426 1.74738 11.3931 1.74815 11.2373C1.74892 11.0815 1.81286 10.9327 1.92535 10.8249Z" fill="#EC6A4F"/>
<path id="Shape_2" d="M32.5466 29.2874L33.4216 30.1624C33.6504 30.3835 34.0143 30.3803 34.2393 30.1553C34.4643 29.9303 34.4675 29.5665 34.2464 29.3376L33.3714 28.4626C33.1425 28.2415 32.7787 28.2447 32.5537 28.4697C32.3287 28.6947 32.3255 29.0585 32.5466 29.2874Z" fill="#EC6A4F"/>
<path id="Shape_3" d="M30.7966 27.5374C31.0254 27.7585 31.3893 27.7553 31.6143 27.5303C31.8393 27.3053 31.8425 26.9415 31.6214 26.7126L30.7464 25.8376C30.5175 25.6165 30.1537 25.6197 29.9287 25.8447C29.7037 26.0697 29.7005 26.4335 29.9216 26.6624L30.7966 27.5374Z" fill="#EC6A4F"/>
<path id="Shape_4" d="M29.9208 30.1624C30.1486 30.3901 30.5178 30.3901 30.7456 30.1624L31.6206 29.2874C31.8417 29.0585 31.8385 28.6947 31.6135 28.4697C31.3885 28.2447 31.0247 28.2415 30.7958 28.4626L29.9208 29.3376C29.6931 29.5654 29.6931 29.9346 29.9208 30.1624Z" fill="#EC6A4F"/>
<path id="Shape_5" d="M32.5458 27.5374C32.7736 27.7651 33.1428 27.7651 33.3706 27.5374L34.2456 26.6624C34.4667 26.4335 34.4635 26.0697 34.2385 25.8447C34.0135 25.6197 33.6497 25.6165 33.4208 25.8376L32.5458 26.7126C32.3181 26.9404 32.3181 27.3096 32.5458 27.5374Z" fill="#EC6A4F"/>
<path id="Shape_6" d="M30.3333 10.0677C30.6555 10.0677 30.9167 9.80654 30.9167 9.48438V8.31771C30.9167 7.99554 30.6555 7.73438 30.3333 7.73438C30.0112 7.73438 29.75 7.99554 29.75 8.31771V9.48438C29.75 9.80654 30.0112 10.0677 30.3333 10.0677Z" fill="#EC6A4F"/>
<path id="Shape_7" d="M30.9167 12.9844V11.8177C30.9167 11.4955 30.6555 11.2344 30.3333 11.2344C30.0112 11.2344 29.75 11.4955 29.75 11.8177V12.9844C29.75 13.3065 30.0112 13.5677 30.3333 13.5677C30.6555 13.5677 30.9167 13.3065 30.9167 12.9844Z" fill="#EC6A4F"/>
<path id="Shape_8" d="M31.5003 11.2345H32.667C32.9892 11.2345 33.2503 10.9734 33.2503 10.6512C33.2503 10.329 32.9892 10.0679 32.667 10.0679H31.5003C31.1782 10.0679 30.917 10.329 30.917 10.6512C30.917 10.9734 31.1782 11.2345 31.5003 11.2345Z" fill="#EC6A4F"/>
<path id="Shape_9" d="M28.0003 11.2345H29.167C29.4892 11.2345 29.7503 10.9734 29.7503 10.6512C29.7503 10.329 29.4892 10.0679 29.167 10.0679H28.0003C27.6782 10.0679 27.417 10.329 27.417 10.6512C27.417 10.9734 27.6782 11.2345 28.0003 11.2345Z" fill="#EC6A4F"/>
</g>
</g>
</g>
<defs>
<clipPath id="clip0_550_1841">
<rect width="35" height="35" fill="white"/>
</clipPath>
</defs>
</svg>
