<svg width="31" height="31" viewBox="0 0 31 31" fill="none" xmlns="http://www.w3.org/2000/svg">
<path id="Vector" d="M0.574074 31H30.4259C30.5782 31 30.7242 30.9395 30.8319 30.8319C30.9395 30.7242 31 30.5782 31 30.4259V0.574074C31 0.42182 30.9395 0.275802 30.8319 0.168143C30.7242 0.0604827 30.5782 0 30.4259 0H0.574074C0.42182 0 0.275802 0.0604827 0.168143 0.168143C0.0604827 0.275802 0 0.42182 0 0.574074V30.4259C0 30.5782 0.0604827 30.7242 0.168143 30.8319C0.275802 30.9395 0.42182 31 0.574074 31ZM1.14815 17.7963H4.81878C5.4362 17.7973 6.0529 17.8383 6.665 17.9191C5.30254 20.2518 4.58714 22.9057 4.59259 25.6071V29.8519H1.14815V17.7963ZM14.3519 1.14815H25.2593V4.81878C25.266 7.71275 24.3768 10.5379 22.7138 12.9063C20.0238 12.3487 17.5568 11.0135 15.6188 9.06635C15.1349 8.58392 14.6196 8.13402 14.0763 7.71957C14.2593 6.76348 14.3516 5.79223 14.3519 4.81878V1.14815ZM14.8071 9.87809C16.7706 11.851 19.2387 13.2459 21.9417 13.9104C21.6816 14.2181 21.4101 14.5189 21.1219 14.8071C19.0531 16.8664 17.6227 19.4791 17.0024 22.3315C16.5157 21.9576 16.0536 21.5528 15.6188 21.1196C13.6789 19.1711 11.246 17.7863 8.58011 17.1131C8.97776 16.5862 9.41147 16.0875 9.87809 15.6206C11.7341 13.7713 13.0799 11.4733 13.7847 8.94982C14.1379 9.24144 14.4787 9.55087 14.8071 9.87809ZM23.2121 14.1636C24.0044 14.2882 24.8051 14.3512 25.6071 14.3519H29.8519V25.2593H25.6071C22.9223 25.2647 20.2923 24.4996 18.0294 23.0548C18.5404 20.2356 19.9027 17.6405 21.9331 15.6188C22.3895 15.161 22.8167 14.675 23.2121 14.1636ZM16.6481 29.8519H5.74074V25.6071C5.73527 22.9634 6.47674 20.3718 7.87974 18.131C10.5055 18.7087 12.91 20.0286 14.8071 21.9336C15.418 22.5427 16.0788 23.0996 16.7825 23.5985C16.694 24.2646 16.6491 24.9358 16.6481 25.6077V29.8519ZM9.06635 14.8071C8.43384 15.44 7.85759 16.1266 7.34413 16.8594C6.50936 16.72 5.66454 16.6493 4.8182 16.6481H1.14815V5.74074H4.81878C7.66766 5.73387 10.4511 6.59492 12.7984 8.20926C12.183 10.7092 10.8919 12.9917 9.06635 14.8071ZM17.7963 29.8519V25.6071C17.7963 25.168 17.8181 24.7323 17.8577 24.3C20.2048 25.6855 22.8816 26.4134 25.6071 26.4074H29.8519V29.8519H17.7963ZM29.8519 13.2037H25.6071C25.0585 13.2024 24.5103 13.1698 23.9653 13.1061C25.5653 10.6387 26.4138 7.75953 26.4074 4.81878V1.14815H29.8519V13.2037ZM13.2037 1.14815V4.81878C13.2033 5.54605 13.1477 6.27224 13.0372 6.99107C10.5849 5.41901 7.73173 4.58635 4.81878 4.59259H1.14815V1.14815H13.2037Z" fill="#EC6A4F"/>
</svg>
