<svg width="23" height="23" viewBox="0 0 23 23" fill="none" xmlns="http://www.w3.org/2000/svg">
<g clip-path="url(#clip0_625_25)">
<path d="M21.5877 16.2394C21.5496 16.2078 17.2399 13.1416 16.0763 13.3292C15.5149 13.4284 15.1944 13.8115 14.5511 14.5777C14.4476 14.7013 14.1982 14.9967 14.0056 15.2073C13.599 15.0749 13.2024 14.9134 12.8189 14.7243C10.8391 13.7605 9.23952 12.1609 8.27569 10.1811C8.08656 9.79758 7.92515 9.40102 7.79269 8.99444C8.004 8.80109 8.30013 8.55169 8.42662 8.44531C9.18922 7.80562 9.57159 7.48434 9.67078 6.92228C9.87419 5.75862 6.79219 1.45044 6.76056 1.41162C6.62021 1.21257 6.43741 1.04716 6.22536 0.927343C6.01331 0.807522 5.7773 0.736277 5.53437 0.71875C4.28519 0.71875 0.71875 5.34462 0.71875 6.12447C0.71875 6.16975 0.784156 10.7726 6.46012 16.5463C12.2274 22.2158 16.8302 22.2812 16.8755 22.2812C17.6547 22.2812 22.2812 18.7148 22.2812 17.4656C22.2635 17.2227 22.1921 16.9867 22.0722 16.7746C21.9523 16.5626 21.7868 16.3798 21.5877 16.2394ZM16.7957 20.8394C16.1719 20.7862 12.305 20.2767 7.475 15.5322C2.70753 10.6785 2.21088 6.80513 2.16128 6.20497C3.1034 4.72624 4.24119 3.38173 5.54372 2.208C5.57247 2.23675 5.61056 2.27988 5.65944 2.33594C6.65837 3.69957 7.5189 5.15938 8.22825 6.69372C7.99757 6.92578 7.75376 7.1444 7.498 7.3485C7.10139 7.6507 6.73719 7.99322 6.41125 8.37056C6.3561 8.44794 6.31684 8.53549 6.29574 8.62815C6.27465 8.7208 6.27213 8.81671 6.28834 8.91034C6.44045 9.56924 6.67342 10.2068 6.98194 10.8086C8.08729 13.0784 9.92146 14.9123 12.1914 16.0173C12.7931 16.3263 13.4307 16.5595 14.0897 16.7117C14.1833 16.7282 14.2793 16.7259 14.372 16.7048C14.4647 16.6837 14.5522 16.6442 14.6294 16.5887C15.0081 16.2615 15.3518 15.8958 15.6551 15.4977C15.8808 15.2289 16.1819 14.8702 16.2962 14.7689C17.8345 15.4775 19.2975 16.3391 20.6633 17.3406C20.723 17.3909 20.7654 17.4297 20.7934 17.4548C19.6196 18.7578 18.2749 19.8958 16.7957 20.838V20.8394Z" fill="black"/>
<path d="M16.5312 10.7812H17.9688C17.967 9.25678 17.3607 7.79524 16.2827 6.71728C15.2048 5.63931 13.7432 5.03296 12.2188 5.03125V6.46875C13.3621 6.46989 14.4584 6.92461 15.2669 7.73311C16.0754 8.54162 16.5301 9.63785 16.5312 10.7812Z" fill="black"/>
<path d="M20.125 10.7812H21.5625C21.5596 8.30401 20.5743 5.92905 18.8226 4.17737C17.071 2.4257 14.696 1.44035 12.2188 1.4375V2.875C14.3149 2.87747 16.3244 3.71124 17.8066 5.19342C19.2888 6.67559 20.1225 8.68514 20.125 10.7812Z" fill="black"/>
</g>
<defs>
<clipPath id="clip0_625_25">
<rect width="23" height="23" fill="white"/>
</clipPath>
</defs>
</svg>
