<svg width="20" height="12" viewBox="0 0 20 12" fill="none" xmlns="http://www.w3.org/2000/svg">
<path d="M19.8942 10.3053C19.87 10.2531 19.8474 10.2098 19.8265 10.1751C19.4795 9.55017 18.8163 8.78308 17.8375 7.87364L17.8169 7.85281L17.8065 7.8426L17.796 7.83213H17.7855C17.3413 7.40865 17.06 7.12391 16.9422 6.97813C16.7266 6.70043 16.6783 6.41933 16.7961 6.13452C16.8794 5.91933 17.192 5.46488 17.7333 4.77056C18.0181 4.40258 18.2436 4.10767 18.4101 3.88548C19.6112 2.28871 20.1319 1.26835 19.9722 0.82401L19.9101 0.720173C19.8684 0.657659 19.7608 0.60047 19.5875 0.548314C19.4137 0.496268 19.1916 0.487661 18.9208 0.522346L15.9219 0.543062C15.8733 0.525847 15.804 0.527452 15.7136 0.548314C15.6233 0.569176 15.5782 0.579644 15.5782 0.579644L15.526 0.605722L15.4845 0.637052C15.4498 0.657768 15.4116 0.694205 15.3699 0.746287C15.3285 0.798188 15.2938 0.859096 15.2661 0.928504C14.9396 1.7685 14.5684 2.54949 14.1517 3.27143C13.8949 3.70191 13.6589 4.07499 13.4435 4.39088C13.2284 4.70666 13.0479 4.93931 12.9022 5.08845C12.7563 5.23773 12.6246 5.35733 12.5064 5.44767C12.3883 5.53805 12.2982 5.57623 12.2358 5.56226C12.1732 5.5483 12.1143 5.53444 12.0586 5.52058C11.9614 5.45806 11.8833 5.37305 11.8244 5.26545C11.7653 5.15786 11.7254 5.02244 11.7046 4.85929C11.6839 4.69604 11.6716 4.55562 11.6681 4.43756C11.6649 4.31965 11.6664 4.15286 11.6734 3.93767C11.6806 3.72237 11.6839 3.5767 11.6839 3.50033C11.6839 3.23649 11.689 2.95014 11.6994 2.64122C11.7099 2.33229 11.7184 2.08753 11.7255 1.90721C11.7325 1.7267 11.7358 1.53574 11.7358 1.33441C11.7358 1.13308 11.7236 0.975188 11.6994 0.860592C11.6754 0.746141 11.6387 0.635046 11.5903 0.527342C11.5416 0.419749 11.4703 0.336518 11.3768 0.277433C11.2831 0.21842 11.1666 0.171589 11.028 0.136795C10.66 0.0535279 10.1915 0.00848438 9.6221 0.00148165C8.33093 -0.0123779 7.50129 0.0709981 7.13336 0.251501C6.98758 0.327765 6.85566 0.431967 6.7377 0.563778C6.61271 0.716562 6.59528 0.799938 6.68551 0.813652C7.1021 0.876057 7.39702 1.02534 7.57059 1.26135L7.63314 1.38642C7.6818 1.47665 7.73038 1.6364 7.77899 1.86545C7.82754 2.09449 7.85887 2.34787 7.87266 2.62542C7.9073 3.13228 7.9073 3.56616 7.87266 3.92709C7.8379 4.28817 7.80507 4.56926 7.77374 4.77059C7.74241 4.97192 7.69558 5.13506 7.63314 5.25998C7.57059 5.38494 7.52898 5.46131 7.50811 5.48903C7.48729 5.51675 7.46993 5.53422 7.45614 5.54107C7.36591 5.57565 7.27206 5.59327 7.17494 5.59327C7.07766 5.59327 6.95971 5.54461 6.8209 5.44738C6.68212 5.35014 6.53809 5.21658 6.38881 5.04647C6.23952 4.87633 6.07117 4.63856 5.88366 4.33314C5.6963 4.02772 5.50191 3.66675 5.30058 3.25024L5.13401 2.94817C5.02988 2.75384 4.88763 2.47089 4.70713 2.09956C4.52652 1.72809 4.36688 1.36876 4.2281 1.02165C4.17263 0.875874 4.08929 0.764888 3.97823 0.688515L3.92611 0.657185C3.89146 0.629465 3.83584 0.600032 3.75954 0.568666C3.68313 0.537336 3.6034 0.514869 3.52002 0.501046L0.666816 0.521762C0.375255 0.521762 0.177428 0.587814 0.0732621 0.719735L0.031574 0.782139C0.0107482 0.816898 0.000244141 0.872409 0.000244141 0.948819C0.000244141 1.02519 0.02107 1.11893 0.062758 1.22991C0.479274 2.20884 0.932227 3.15293 1.42161 4.06233C1.911 4.97174 2.33627 5.70429 2.69717 6.25933C3.05814 6.81477 3.42607 7.33899 3.80097 7.83173C4.17587 8.32466 4.42403 8.64055 4.54545 8.77932C4.66701 8.91836 4.7625 9.0223 4.8319 9.09171L5.09228 9.34158C5.25889 9.50823 5.50355 9.7078 5.82636 9.94032C6.14926 10.173 6.50672 10.402 6.89895 10.6278C7.29125 10.8533 7.74763 11.0372 8.26835 11.1795C8.78899 11.3219 9.29574 11.3791 9.78867 11.3515H10.9862C11.2291 11.3305 11.4131 11.2542 11.5381 11.1224L11.5796 11.0702C11.6074 11.0287 11.6335 10.9644 11.6576 10.8777C11.682 10.791 11.6941 10.6954 11.6941 10.5914C11.687 10.2929 11.7097 10.0239 11.7616 9.78447C11.8135 9.54506 11.8727 9.36456 11.9388 9.243C12.005 9.12155 12.0796 9.01906 12.1626 8.93597C12.2459 8.85271 12.3052 8.80227 12.34 8.7849C12.3745 8.76743 12.4021 8.75558 12.423 8.74847C12.5896 8.69296 12.7856 8.74672 13.0115 8.91C13.2371 9.07315 13.4488 9.27458 13.6468 9.51399C13.8446 9.75361 14.0824 10.0225 14.36 10.3209C14.6378 10.6195 14.8807 10.8414 15.0889 10.9874L15.2971 11.1124C15.4361 11.1957 15.6166 11.2721 15.8388 11.3415C16.0606 11.4109 16.2549 11.4283 16.4218 11.3936L19.0874 11.352C19.3511 11.352 19.5563 11.3083 19.7018 11.2217C19.8476 11.1349 19.9342 11.0393 19.9622 10.9354C19.99 10.8313 19.9915 10.7132 19.9675 10.5811C19.9428 10.4494 19.9184 10.3573 19.8942 10.3053Z" fill="#EC6A4F"/>
</svg>
