<svg width="20" height="15" viewBox="0 0 20 15" fill="none" xmlns="http://www.w3.org/2000/svg">
<path d="M19.5577 2.02418L19.5827 2.18751C19.3411 1.33001 18.6886 0.668345 17.8594 0.427512L17.8419 0.423345C16.2827 1.14242e-05 10.0086 1.15167e-05 10.0086 1.15167e-05C10.0086 1.15167e-05 3.75025 -0.0083219 2.17525 0.423345C1.33025 0.668345 0.676912 1.33001 0.439412 2.17001L0.435245 2.18751C-0.147255 5.23001 -0.151422 8.88585 0.461078 12.1433L0.435245 11.9783C0.676912 12.8358 1.32941 13.4975 2.15858 13.7383L2.17608 13.7425C3.73358 14.1667 10.0094 14.1667 10.0094 14.1667C10.0094 14.1667 16.2669 14.1667 17.8427 13.7425C18.6886 13.4975 19.3419 12.8358 19.5794 11.9958L19.5836 11.9783C19.8486 10.5633 20.0002 8.93501 20.0002 7.27168C20.0002 7.21084 20.0002 7.14918 19.9994 7.08751C20.0002 7.03084 20.0002 6.96334 20.0002 6.89584C20.0002 5.23168 19.8486 3.60334 19.5577 2.02418ZM8.00691 10.1258V4.04835L13.2286 7.09168L8.00691 10.1258Z" fill="#EC6A4F"/>
</svg>
