<svg width="15" height="21" viewBox="0 0 15 21" fill="none" xmlns="http://www.w3.org/2000/svg">
<path d="M7.4999 0.929688C5.6258 0.929688 3.82846 1.67417 2.50327 2.99936C1.17808 4.32455 0.433594 6.12189 0.433594 7.996C0.433594 10.4706 3.27461 15.5155 5.35547 18.8747C5.58163 19.2403 5.89747 19.5421 6.27301 19.7514C6.64856 19.9607 7.07135 20.0705 7.50127 20.0705C7.93119 20.0705 8.35398 19.9607 8.72952 19.7514C9.10507 19.5421 9.42091 19.2403 9.64707 18.8747C11.7266 15.5148 14.5689 10.4706 14.5689 7.996C14.5689 7.06781 14.3861 6.14871 14.0308 5.29121C13.6755 4.4337 13.1548 3.6546 12.4983 2.99839C11.8418 2.34219 11.0625 1.82175 10.2049 1.46679C9.34726 1.11184 8.42809 0.929329 7.4999 0.929688ZM7.4999 11.0667C6.87162 11.0667 6.25744 10.8804 5.73504 10.5313C5.21265 10.1823 4.80548 9.68615 4.56505 9.10569C4.32462 8.52524 4.26171 7.88652 4.38428 7.2703C4.50685 6.65409 4.8094 6.08807 5.25366 5.6438C5.69793 5.19954 6.26396 4.89699 6.88017 4.77442C7.49638 4.65185 8.1351 4.71475 8.71556 4.95519C9.29602 5.19562 9.79214 5.60278 10.1412 6.12518C10.4903 6.64758 10.6766 7.26176 10.6766 7.89004C10.6766 8.73254 10.3419 9.54054 9.74614 10.1363C9.1504 10.732 8.3424 11.0667 7.4999 11.0667Z" fill="white"/>
</svg>
