<svg width="15" height="15" viewBox="0 0 15 15" fill="none" xmlns="http://www.w3.org/2000/svg">
<path d="M13.7964 9.84576C12.878 9.84576 11.9763 9.70212 11.1218 9.41974C10.7031 9.27693 10.1884 9.40794 9.93283 9.67041L8.24623 10.9436C6.29026 9.89951 5.08542 8.69506 4.05558 6.75377L5.29131 5.11112C5.61237 4.7905 5.72752 4.32214 5.58956 3.88269C5.30596 3.0237 5.1619 2.12242 5.1619 1.20367C5.16194 0.53996 4.62198 0 3.95831 0H1.20363C0.53996 0 0 0.53996 0 1.20363C0 8.81103 6.18897 15 13.7964 15C14.46 15 15 14.46 15 13.7963V11.0493C15 10.3857 14.46 9.84576 13.7964 9.84576Z" fill="white"/>
</svg>
