<svg width="24" height="20" viewBox="0 0 24 20" fill="none" xmlns="http://www.w3.org/2000/svg">
<g clip-path="url(#clip0_6341_6564)">
<path d="M12.5934 12.0828H4.41548V8.71275H12.5934C13.0711 8.71275 13.4032 8.79945 13.5699 8.95088C13.7366 9.1023 13.8399 9.38314 13.8399 9.7934V11.0035C13.8399 11.4357 13.7366 11.7166 13.5699 11.868C13.4032 12.0194 13.0711 12.0841 12.5934 12.0841V12.0828ZM13.1544 5.53548H0.947266V19.9477H4.41548V15.2588H10.807L13.8399 19.9477H17.7236L14.3798 15.2368C15.6125 15.0466 16.1661 14.6531 16.6227 14.0047C17.0792 13.3563 17.3081 12.3197 17.3081 10.9362V9.85552C17.3081 9.035 17.2248 8.3866 17.0792 7.88963C16.9337 7.39265 16.6848 6.96039 16.3316 6.57214C15.9584 6.20457 15.5429 5.94574 15.044 5.77231C14.5452 5.62088 13.922 5.53418 13.1544 5.53418V5.53548Z" fill="#4997D2"/>
<path d="M20.3881 5.53394C21.8597 5.53394 23.0526 4.30692 23.0526 2.79334C23.0526 1.27974 21.8597 0.0527344 20.3881 0.0527344C18.9166 0.0527344 17.7236 1.27974 17.7236 2.79334C17.7236 4.30692 18.9166 5.53394 20.3881 5.53394Z" fill="#4997D2"/>
</g>
<defs>
<clipPath id="clip0_6341_6564">
<rect width="22.1053" height="19.8947" fill="white" transform="translate(0.947266 0.0527344)"/>
</clipPath>
</defs>
</svg>
