<svg width="18" height="18" viewBox="0 0 18 18" fill="none" xmlns="http://www.w3.org/2000/svg">
<path fill-rule="evenodd" clip-rule="evenodd" d="M7.63794 0C3.41961 0 0 3.43139 0 7.66425C0 11.8971 3.41961 15.3285 7.63794 15.3285C11.8563 15.3285 15.2759 11.8971 15.2759 7.66425C15.2759 3.43139 11.8563 0 7.63794 0ZM17.6852 17.6705C17.2602 18.1044 16.5611 18.1106 16.1286 17.6841L13.0755 14.6738C13.6563 14.2195 14.1791 13.694 14.6311 13.1105L17.6716 16.1085C18.1041 16.5349 18.1102 17.2364 17.6852 17.6705ZM7.63794 2.13393C10.6818 2.13393 13.1493 4.60994 13.1493 7.66422C13.1493 10.7185 10.6817 13.1945 7.63794 13.1945C4.59411 13.1945 2.12664 10.7185 2.12664 7.66422C2.12664 4.60994 4.59415 2.13393 7.63794 2.13393Z" fill="#2B2A29"/>
</svg>
