<svg width="107" height="19" viewBox="0 0 107 19" fill="none" xmlns="http://www.w3.org/2000/svg">
<path d="M18.549 6.89856H11.8649L9.79918 0.0236816L7.74902 9.11706L9.79918 13.7746L15.208 18.0237L13.1423 11.1488L18.549 6.89856Z" fill="#FFCC00"/>
<path d="M7.42343 6.89856H0.549072L6.11189 11.1477L3.98625 18.0237L9.54907 13.7746V0.0236816L7.42343 6.89856Z" fill="#FFCC00"/>
<path d="M40.549 6.89856H33.8649L31.7992 0.0236816L29.749 9.11706L31.7992 13.7746L37.208 18.0237L35.1423 11.1488L40.549 6.89856Z" fill="#FFCC00"/>
<path d="M29.4234 6.89856H22.5491L28.1119 11.1477L25.9863 18.0237L31.5491 13.7746V0.0236816L29.4234 6.89856Z" fill="#FFCC00"/>
<path d="M62.549 6.89856H55.8649L53.7992 0.0236816L51.749 9.11706L53.7992 13.7746L59.208 18.0237L57.1423 11.1488L62.549 6.89856Z" fill="#FFCC00"/>
<path d="M51.4234 6.89856H44.5491L50.1119 11.1477L47.9863 18.0237L53.5491 13.7746V0.0236816L51.4234 6.89856Z" fill="#FFCC00"/>
<path d="M84.549 6.89856H77.8649L75.7992 0.0236816L73.749 9.11706L75.7992 13.7746L81.208 18.0237L79.1423 11.1488L84.549 6.89856Z" fill="#FFCC00"/>
<path d="M73.4234 6.89856H66.5491L72.1119 11.1477L69.9863 18.0237L75.5491 13.7746V0.0236816L73.4234 6.89856Z" fill="#FFCC00"/>
<path d="M106.549 6.89856H99.8649L97.7992 0.0236816L95.749 9.11706L97.7992 13.7746L103.208 18.0237L101.142 11.1488L106.549 6.89856Z" fill="#FFCC00"/>
<path d="M95.4234 6.89856H88.5491L94.1119 11.1477L91.9863 18.0237L97.5491 13.7746V0.0236816L95.4234 6.89856Z" fill="#FFCC00"/>
</svg>
