<svg width="20" height="24" viewBox="0 0 20 24" fill="none" xmlns="http://www.w3.org/2000/svg">
<path d="M4.79053 13.1982C5.20029 13.1982 5.53247 12.8661 5.53247 12.4563C5.53247 12.0465 5.20029 11.7144 4.79053 11.7144C4.38076 11.7144 4.04858 12.0465 4.04858 12.4563C4.04858 12.8661 4.38076 13.1982 4.79053 13.1982Z" fill="#3F9BD8"/>
<path d="M7.01563 11.7554C7.42539 11.7554 7.75757 11.4232 7.75757 11.0134C7.75757 10.6037 7.42539 10.2715 7.01563 10.2715C6.60586 10.2715 6.27368 10.6037 6.27368 11.0134C6.27368 11.4232 6.60586 11.7554 7.01563 11.7554Z" fill="#3F9BD8"/>
<path d="M10.1072 12.9922C10.5169 12.9922 10.8491 12.66 10.8491 12.2502C10.8491 11.8405 10.5169 11.5083 10.1072 11.5083C9.69741 11.5083 9.36523 11.8405 9.36523 12.2502C9.36523 12.66 9.69741 12.9922 10.1072 12.9922Z" fill="#3F9BD8"/>
<path d="M12.8687 11.7554C13.2784 11.7554 13.6106 11.4232 13.6106 11.0134C13.6106 10.6037 13.2784 10.2715 12.8687 10.2715C12.4589 10.2715 12.1267 10.6037 12.1267 11.0134C12.1267 11.4232 12.4589 11.7554 12.8687 11.7554Z" fill="#3F9BD8"/>
<path d="M15.6714 13.2393C16.0812 13.2393 16.4133 12.9071 16.4133 12.4973C16.4133 12.0876 16.0812 11.7554 15.6714 11.7554C15.2616 11.7554 14.9294 12.0876 14.9294 12.4973C14.9294 12.9071 15.2616 13.2393 15.6714 13.2393Z" fill="#3F9BD8"/>
<path d="M14.847 16.1659H17.3614L16.4133 21.9778H14.3112L14.1875 22.7198C14.1875 22.8434 14.0639 22.9671 13.899 22.9671H13.8578C13.6929 22.9671 13.6104 22.8022 13.6104 22.6786L13.6929 21.9778H10.4778V22.1839C10.4778 22.3488 10.3541 22.4725 10.1893 22.4725C10.0244 22.4725 9.90073 22.3488 9.90073 22.1839V21.9778H6.6032L6.68564 22.8022C6.68564 22.9671 6.6032 23.0907 6.43832 23.0907H6.3971C6.27344 23.0907 6.14979 22.9671 6.10857 22.8434L6.02613 21.9778H3.71786L2.5225 16.1659H5.5315H1.82178C1.6569 16.1659 1.49202 16.1247 1.32715 16.0835L2.76982 23.132H17.3202L18.4743 16.0835C18.3094 16.1247 18.1446 16.1659 17.9797 16.1659H14.847Z" fill="#2B2A29"/>
<path d="M9.07646 10.2306C11.1374 10.2306 12.8686 8.66427 13.0747 6.64453C13.0335 6.64453 13.0335 6.60331 12.9923 6.60331C12.8686 6.56209 12.745 6.52088 12.6625 6.47966C12.6213 6.47966 12.5801 6.43844 12.5389 6.43844C12.374 6.39722 12.2503 6.31478 12.0855 6.27356C12.0442 6.27356 12.003 6.23234 12.003 6.23234C11.8794 6.19112 11.7557 6.1499 11.632 6.10868C11.5908 6.10868 11.5496 6.06747 11.5084 6.06747C11.3847 6.02625 11.2611 5.98503 11.1374 5.94381C11.0962 5.94381 11.0962 5.94381 11.055 5.90259C10.8901 5.86137 10.7664 5.82015 10.6016 5.73771C10.4779 5.69649 10.3543 5.65527 10.1894 5.61406C10.1482 5.61406 10.1069 5.57284 10.1069 5.57284C9.98328 5.53162 9.90084 5.4904 9.81841 5.4904C9.77719 5.4904 9.73597 5.4904 9.73597 5.44918C9.65353 5.40796 9.52987 5.40796 9.44743 5.36674H9.40621C9.20012 5.2843 8.99402 5.24308 8.78793 5.16064V6.93307L8.2933 7.05672H8.25208C8.00476 7.09794 7.71623 7.18038 7.46892 7.2216C7.38648 7.2216 7.30404 7.26282 7.2216 7.30404C7.05672 7.34526 6.85063 7.38648 6.68575 7.4277C6.60331 7.4277 6.52088 7.46892 6.43844 7.46892C6.27356 7.51014 6.1499 7.55135 6.02625 7.59257C5.94381 7.63379 5.82015 7.67501 5.73771 7.67501C5.61405 7.71623 5.53162 7.75745 5.40796 7.79867C6.02625 9.24134 7.4277 10.2306 9.07646 10.2306Z" fill="#ED4A41"/>
<path d="M5.82084 6.47942C5.90328 6.4382 5.98572 6.4382 6.06816 6.39698C6.23303 6.35576 6.43913 6.31454 6.60401 6.2321C6.68644 6.2321 6.76888 6.19089 6.85132 6.19089C7.09864 6.10845 7.38717 6.06723 7.63448 6.02601V3.55286H7.6757L8.41765 3.84139C8.7474 3.96505 9.20081 4.08871 9.73666 4.25359C9.98398 4.33602 10.2313 4.41846 10.4786 4.5009C10.4786 4.5009 10.4786 4.5009 10.5198 4.5009C10.7671 4.58334 11.0145 4.66578 11.303 4.74822C11.3442 4.74822 11.3442 4.74822 11.3854 4.78943C11.6327 4.87187 11.8801 4.95431 12.1686 5.03675C12.2098 5.03675 12.2098 5.07797 12.251 5.07797C12.4983 5.16041 12.7869 5.28406 13.0342 5.3665H13.0754C12.7044 3.51164 11.0557 2.15141 9.11837 2.15141C8.41765 2.15141 7.71692 2.35751 7.13986 2.68726L7.63448 3.26433C7.6757 3.30555 7.6757 3.34677 7.6757 3.34677C7.6757 3.30555 7.63448 3.26433 7.63448 3.26433L7.13986 2.68726C6.97498 2.7697 6.8101 2.89335 6.64523 3.01701C6.8101 2.89335 6.97498 2.81092 7.13986 2.68726L5.28499 0.585083C5.20256 0.502645 5.12012 0.461426 5.03768 0.461426C4.95524 0.461426 4.91402 0.502645 4.83158 0.543864C4.70793 0.667521 4.70793 0.832398 4.79036 0.956055L6.56279 3.01701C5.61475 3.75896 4.99646 4.91309 4.99646 6.2321C4.99646 6.39698 4.99646 6.56186 5.03768 6.76795C5.03768 6.76795 5.03768 6.76795 5.0789 6.76795C5.12012 6.76795 5.16134 6.72673 5.20256 6.72673C5.40865 6.60308 5.61475 6.52064 5.82084 6.47942Z" fill="#ED4A41"/>
<path d="M20 12.168C19.9588 8.66439 16.3315 6.64466 12.9927 5.36686C12.7454 5.28443 12.4569 5.16077 12.2096 5.07833C12.1684 5.07833 12.1684 5.03711 12.1271 5.03711C11.8798 4.95467 11.5913 4.87223 11.344 4.7898C11.3028 4.7898 11.3028 4.7898 11.2615 4.74858C11.0142 4.66614 10.7257 4.5837 10.4784 4.50126C10.4784 4.50126 10.4784 4.50126 10.4372 4.50126C10.1898 4.41882 9.94253 4.33639 9.69522 4.25395C9.15937 4.08907 8.70596 3.92419 8.3762 3.84176L7.63426 3.55322H7.59304V6.02637C7.30451 6.06759 7.05719 6.15003 6.80988 6.19125C6.72744 6.19125 6.645 6.23247 6.56256 6.23247C6.35647 6.27369 6.19159 6.3149 6.02671 6.39734C5.94428 6.43856 5.86184 6.43856 5.7794 6.47978C5.5733 6.521 5.40843 6.60344 5.20233 6.68588C5.16111 6.68588 5.11989 6.7271 5.07867 6.7271C1.86358 7.84001 0.132379 9.69487 0.00872133 12.168C-0.0324978 13.3634 0.0499404 14.9297 0.750666 15.7129C0.915542 15.8777 1.08042 16.0014 1.28651 16.0838L1.08042 15.0121H18.6398L18.4749 16.0838C18.7222 16.0014 18.9283 15.8777 19.1344 15.6716C19.9176 14.8885 20 13.4046 20 12.168ZM18.3512 14.8473C18.2688 14.9297 18.1451 14.9709 18.0215 14.9709H1.82236C1.73992 14.9709 1.69871 14.9709 1.61627 14.8885C1.28651 14.5587 1.12164 13.487 1.16286 12.2092C1.2453 10.2719 2.68796 8.78805 5.36721 7.79879C5.49087 7.75757 5.5733 7.71635 5.69696 7.67514C5.7794 7.63392 5.90306 7.5927 5.9855 7.5927C6.10915 7.55148 6.27403 7.51026 6.39769 7.46904C6.48012 7.42782 6.60378 7.42782 6.68622 7.3866C6.8511 7.34538 7.01597 7.30416 7.22207 7.26294C7.30451 7.26294 7.38695 7.22172 7.46938 7.18051C7.7167 7.13929 7.96401 7.05685 8.25255 7.01563H8.29377L8.74718 6.93319V5.16077C8.95327 5.20199 9.11815 5.28443 9.36546 5.36686H9.40668C9.48912 5.40808 9.57156 5.40808 9.69522 5.4493C9.73644 5.4493 9.73644 5.4493 9.77766 5.49052C9.86009 5.53174 9.98375 5.57296 10.0662 5.57296C10.1074 5.57296 10.1486 5.61418 10.1486 5.61418C10.2723 5.6554 10.3959 5.69662 10.5608 5.73784C10.6845 5.77906 10.8494 5.82027 11.0142 5.90271C11.0554 5.90271 11.0554 5.90271 11.0967 5.94393C11.2203 5.98515 11.344 6.02637 11.4676 6.06759C11.5089 6.06759 11.5501 6.10881 11.5913 6.10881C11.715 6.15003 11.8386 6.19125 11.9623 6.23247C12.0035 6.23247 12.0035 6.27369 12.0447 6.27369C12.2096 6.3149 12.3332 6.39734 12.4981 6.43856C12.5393 6.43856 12.5806 6.47978 12.6218 6.47978C12.7454 6.521 12.8691 6.56222 12.9515 6.60344C12.9927 6.60344 12.9927 6.60344 13.034 6.64466C15.8369 7.79879 18.7222 9.57122 18.7634 12.2092C18.8459 13.6107 18.681 14.5175 18.3512 14.8473Z" fill="#2B2A29"/>
<path d="M1.12183 15.0117L1.32792 16.0834C1.4928 16.1246 1.65767 16.1659 1.82255 16.1659H5.53227L5.49105 15.63C5.49105 15.4651 5.57349 15.3415 5.73837 15.3415C5.90325 15.3415 6.0269 15.4239 6.0269 15.5888L6.06812 16.2071H9.94272V15.7949C9.94272 15.63 10.0664 15.5063 10.2313 15.5063C10.3961 15.5063 10.5198 15.63 10.5198 15.7949V16.2071H14.2707L14.3532 15.4651C14.3532 15.3003 14.518 15.2178 14.6417 15.2178C14.8066 15.2178 14.889 15.3827 14.889 15.5063L14.8478 16.1659H18.0217C18.1865 16.1659 18.3514 16.1246 18.5163 16.0834L18.6812 15.0117H1.12183Z" fill="#2B2A29"/>
<path d="M1.12183 15.0117L1.32792 16.0834C1.4928 16.1246 1.65767 16.1659 1.82255 16.1659H5.53227L5.49105 15.63C5.49105 15.4651 5.57349 15.3415 5.73837 15.3415C5.90325 15.3415 6.0269 15.4239 6.0269 15.5888L6.06812 16.2071H9.94272V15.7949C9.94272 15.63 10.0664 15.5063 10.2313 15.5063C10.3961 15.5063 10.5198 15.63 10.5198 15.7949V16.2071H14.2707L14.3532 15.4651C14.3532 15.3003 14.518 15.2178 14.6417 15.2178C14.8066 15.2178 14.889 15.3827 14.889 15.5063L14.8478 16.1659H18.0217C18.1865 16.1659 18.3514 16.1246 18.5163 16.0834L18.6812 15.0117H1.12183Z" fill="#2B2A29"/>
<path d="M6.02734 6.39697C5.94491 6.43819 5.86247 6.43819 5.78003 6.47941C5.90369 6.43819 5.98613 6.43819 6.02734 6.39697Z" fill="#ED4A41"/>
<path d="M6.02734 6.39697C5.94491 6.43819 5.86247 6.43819 5.78003 6.47941C5.90369 6.43819 5.98613 6.43819 6.02734 6.39697Z" fill="#2B2A29"/>
<path d="M5.36768 7.79846C5.49133 7.75724 5.57377 7.71602 5.69743 7.6748C5.61499 7.75724 5.49133 7.79846 5.36768 7.79846Z" fill="#ED4A41"/>
<path d="M5.36768 7.79846C5.49133 7.75724 5.57377 7.71602 5.69743 7.6748C5.61499 7.75724 5.49133 7.79846 5.36768 7.79846Z" fill="#2B2A29"/>
<path d="M5.98535 7.59241C6.10901 7.55119 6.27389 7.50997 6.39754 7.46875C6.27389 7.50997 6.15023 7.55119 5.98535 7.59241Z" fill="#ED4A41"/>
<path d="M5.98535 7.59241C6.10901 7.55119 6.27389 7.50997 6.39754 7.46875C6.27389 7.50997 6.15023 7.55119 5.98535 7.59241Z" fill="#2B2A29"/>
<path d="M13.0756 6.64376C13.0344 6.64376 13.0344 6.60254 12.9932 6.60254C13.0344 6.64376 13.0756 6.64376 13.0756 6.64376Z" fill="#ED4A41"/>
<path d="M13.0756 6.64376C13.0344 6.64376 13.0344 6.60254 12.9932 6.60254C13.0344 6.64376 13.0756 6.64376 13.0756 6.64376Z" fill="#2B2A29"/>
<path d="M9.44759 5.36674H9.40637C9.20028 5.2843 8.99418 5.24308 8.78809 5.16064C8.99418 5.20186 9.15906 5.2843 9.40637 5.36674C9.40637 5.36674 9.40637 5.36674 9.44759 5.36674Z" fill="#ED4A41"/>
<path d="M9.44759 5.36674H9.40637C9.20028 5.2843 8.99418 5.24308 8.78809 5.16064C8.99418 5.20186 9.15906 5.2843 9.40637 5.36674C9.40637 5.36674 9.40637 5.36674 9.44759 5.36674Z" fill="#2B2A29"/>
<path d="M10.1074 5.57275C10.1486 5.57275 10.1899 5.61397 10.1899 5.61397C10.1899 5.61397 10.1486 5.61397 10.1074 5.57275Z" fill="#ED4A41"/>
<path d="M10.1074 5.57275C10.1486 5.57275 10.1899 5.61397 10.1899 5.61397C10.1899 5.61397 10.1486 5.61397 10.1074 5.57275Z" fill="#2B2A29"/>
<path d="M9.73633 5.44922C9.77755 5.44922 9.77755 5.44922 9.81877 5.49044C9.77755 5.49044 9.73633 5.49044 9.73633 5.44922Z" fill="#ED4A41"/>
<path d="M9.73633 5.44922C9.77755 5.44922 9.77755 5.44922 9.81877 5.49044C9.77755 5.49044 9.73633 5.49044 9.73633 5.44922Z" fill="#2B2A29"/>
<path d="M7.46948 7.22152C7.7168 7.1803 7.96411 7.09786 8.25265 7.05664C8.00533 7.09786 7.75802 7.13908 7.46948 7.22152Z" fill="#ED4A41"/>
<path d="M7.46948 7.22152C7.7168 7.1803 7.96411 7.09786 8.25265 7.05664C8.00533 7.09786 7.75802 7.13908 7.46948 7.22152Z" fill="#2B2A29"/>
<path d="M11.5088 6.06738C11.55 6.06738 11.5912 6.1086 11.6324 6.1086C11.5912 6.06738 11.55 6.06738 11.5088 6.06738Z" fill="#ED4A41"/>
<path d="M11.5088 6.06738C11.55 6.06738 11.5912 6.1086 11.6324 6.1086C11.5912 6.06738 11.55 6.06738 11.5088 6.06738Z" fill="#2B2A29"/>
<path d="M12.0032 6.23193C12.0444 6.23193 12.0444 6.27315 12.0856 6.27315C12.0444 6.23193 12.0444 6.23193 12.0032 6.23193Z" fill="#ED4A41"/>
<path d="M12.0032 6.23193C12.0444 6.23193 12.0444 6.27315 12.0856 6.27315C12.0444 6.23193 12.0444 6.23193 12.0032 6.23193Z" fill="#2B2A29"/>
<path d="M11.2617 4.74829C11.0144 4.66585 10.7258 4.58341 10.4785 4.50098C10.7258 4.58341 10.9731 4.66585 11.2617 4.74829Z" fill="#ED4A41"/>
<path d="M11.2617 4.74829C11.0144 4.66585 10.7258 4.58341 10.4785 4.50098C10.7258 4.58341 10.9731 4.66585 11.2617 4.74829Z" fill="#2B2A29"/>
<path d="M12.0854 5.03687C11.8381 4.95443 11.5496 4.87199 11.3022 4.78955C11.5908 4.87199 11.8381 4.95443 12.0854 5.03687Z" fill="#ED4A41"/>
<path d="M12.0854 5.03687C11.8381 4.95443 11.5496 4.87199 11.3022 4.78955C11.5908 4.87199 11.8381 4.95443 12.0854 5.03687Z" fill="#2B2A29"/>
<path d="M6.80981 6.19092C6.72738 6.19092 6.64494 6.23214 6.5625 6.23214C6.68616 6.23214 6.72738 6.23214 6.80981 6.19092Z" fill="#ED4A41"/>
<path d="M6.80981 6.19092C6.72738 6.19092 6.64494 6.23214 6.5625 6.23214C6.68616 6.23214 6.72738 6.23214 6.80981 6.19092Z" fill="#2B2A29"/>
<path d="M5.12012 6.68526C5.16134 6.68526 5.20256 6.64404 5.24377 6.64404C5.20256 6.68526 5.16134 6.68526 5.12012 6.68526Z" fill="#ED4A41"/>
<path d="M5.12012 6.68526C5.16134 6.68526 5.20256 6.64404 5.24377 6.64404C5.20256 6.68526 5.16134 6.68526 5.12012 6.68526Z" fill="#2B2A29"/>
<path d="M12.9931 5.36666C12.7458 5.28422 12.4573 5.16056 12.21 5.07812C12.4573 5.16056 12.7046 5.243 12.9931 5.36666Z" fill="#ED4A41"/>
<path d="M12.9931 5.36666C12.7458 5.28422 12.4573 5.16056 12.21 5.07812C12.4573 5.16056 12.7046 5.243 12.9931 5.36666Z" fill="#2B2A29"/>
<path d="M8.41773 3.84176C8.74748 3.96541 9.20089 4.08907 9.73674 4.25395C9.20089 4.08907 8.70626 3.96541 8.41773 3.84176Z" fill="#ED4A41"/>
<path d="M8.41773 3.84176C8.74748 3.96541 9.20089 4.08907 9.73674 4.25395C9.20089 4.08907 8.70626 3.96541 8.41773 3.84176Z" fill="#2B2A29"/>
<path d="M11.0557 5.90234C11.0969 5.90234 11.0969 5.90234 11.1381 5.94356C11.1381 5.90234 11.0969 5.90234 11.0557 5.90234Z" fill="#ED4A41"/>
<path d="M11.0557 5.90234C11.0969 5.90234 11.0969 5.90234 11.1381 5.94356C11.1381 5.90234 11.0969 5.90234 11.0557 5.90234Z" fill="#2B2A29"/>
<path d="M5.53223 16.166L6.10929 21.9779H6.64514L6.06808 16.166H5.53223Z" fill="#2B2A29"/>
<path d="M6.19137 22.8431C6.19137 22.9668 6.31502 23.0905 6.4799 23.0905H6.52112C6.686 23.0905 6.76843 22.9256 6.76843 22.8019L6.686 21.9775H6.15015L6.19137 22.8431Z" fill="#2B2A29"/>
<path d="M6.19137 22.8431C6.19137 22.9668 6.31502 23.0905 6.4799 23.0905H6.52112C6.686 23.0905 6.76843 22.9256 6.76843 22.8019L6.686 21.9775H6.15015L6.19137 22.8431Z" fill="#2B2A29"/>
<path d="M6.02706 15.5476C6.02706 15.3827 5.86218 15.3003 5.73853 15.3003C5.57365 15.3003 5.49121 15.4652 5.49121 15.5888L5.53243 16.1247H6.06828L6.02706 15.5476Z" fill="#2B2A29"/>
<path d="M6.02706 15.5476C6.02706 15.3827 5.86218 15.3003 5.73853 15.3003C5.57365 15.3003 5.49121 15.4652 5.49121 15.5888L5.53243 16.1247H6.06828L6.02706 15.5476Z" fill="#2B2A29"/>
<path d="M6.02706 15.5476C6.02706 15.3827 5.86218 15.3003 5.73853 15.3003C5.57365 15.3003 5.49121 15.4652 5.49121 15.5888L5.53243 16.1247H6.06828L6.02706 15.5476Z" fill="#2B2A29"/>
<path d="M13.6936 21.9779H14.2707L14.8477 16.166H14.2707L13.6936 21.9779Z" fill="#2B2A29"/>
<path d="M13.6523 22.6372C13.6523 22.8021 13.7348 22.9258 13.8997 22.9258H13.9409C14.0645 22.9258 14.1882 22.8021 14.2294 22.6785L14.3119 21.9365H13.776L13.6523 22.6372Z" fill="#2B2A29"/>
<path d="M13.6523 22.6372C13.6523 22.8021 13.7348 22.9258 13.8997 22.9258H13.9409C14.0645 22.9258 14.1882 22.8021 14.2294 22.6785L14.3119 21.9365H13.776L13.6523 22.6372Z" fill="#2B2A29"/>
<path d="M14.8888 15.4653C14.8888 15.3004 14.8064 15.1768 14.6415 15.1768C14.4766 15.1768 14.3529 15.2592 14.3529 15.4241L14.2705 16.166H14.8476L14.8888 15.4653Z" fill="#2B2A29"/>
<path d="M14.8888 15.4653C14.8888 15.3004 14.8064 15.1768 14.6415 15.1768C14.4766 15.1768 14.3529 15.2592 14.3529 15.4241L14.2705 16.166H14.8476L14.8888 15.4653Z" fill="#2B2A29"/>
<path d="M14.8888 15.4653C14.8888 15.3004 14.8064 15.1768 14.6415 15.1768C14.4766 15.1768 14.3529 15.2592 14.3529 15.4241L14.2705 16.166H14.8476L14.8888 15.4653Z" fill="#2B2A29"/>
<path d="M10.4785 16.166H9.94263V21.9779H10.4785V16.166Z" fill="#2B2A29"/>
<path d="M9.94263 22.1836C9.94263 22.3485 10.0663 22.4722 10.2312 22.4722C10.396 22.4722 10.5197 22.3485 10.5197 22.1836V21.9775H9.98385V22.1836H9.94263Z" fill="#2B2A29"/>
<path d="M9.94263 22.1836C9.94263 22.3485 10.0663 22.4722 10.2312 22.4722C10.396 22.4722 10.5197 22.3485 10.5197 22.1836V21.9775H9.98385V22.1836H9.94263Z" fill="#2B2A29"/>
<path d="M10.5197 15.7124C10.5197 15.5475 10.396 15.4238 10.2312 15.4238C10.0663 15.4238 9.94263 15.5475 9.94263 15.7124V16.1246H10.4785V15.7124H10.5197Z" fill="#2B2A29"/>
<path d="M10.5197 15.7124C10.5197 15.5475 10.396 15.4238 10.2312 15.4238C10.0663 15.4238 9.94263 15.5475 9.94263 15.7124V16.1246H10.4785V15.7124H10.5197Z" fill="#2B2A29"/>
<path d="M10.5197 15.7124C10.5197 15.5475 10.396 15.4238 10.2312 15.4238C10.0663 15.4238 9.94263 15.5475 9.94263 15.7124V16.1246H10.4785V15.7124H10.5197Z" fill="#2B2A29"/>
</svg>
