<svg width="22" height="14" viewBox="0 0 22 14" fill="none" xmlns="http://www.w3.org/2000/svg">
<path d="M0.458333 14H16.0417V11.6667C16.0417 11.41 16.2479 11.2 16.5 11.2C16.7521 11.2 16.9583 11.41 16.9583 11.6667V14H21.5417C21.7938 14 22 13.79 22 13.5333V8.78733C22 8.53067 21.7938 8.32067 21.5417 8.32067C20.7854 8.32067 20.1667 7.69067 20.1667 6.92067C20.1667 6.15067 20.7854 5.52067 21.5417 5.52067C21.7938 5.52067 22 5.31067 22 5.054V0.466667C22 0.21 21.7938 0 21.5417 0H16.9583V2.33333C16.9583 2.59 16.7521 2.8 16.5 2.8C16.2479 2.8 16.0417 2.59 16.0417 2.33333V0H0.458333C0.20625 0 0 0.21 0 0.466667V5.054C0 5.31067 0.20625 5.52067 0.458333 5.52067C1.21458 5.52067 1.83333 6.15067 1.83333 6.92067C1.83333 7.69067 1.21458 8.32067 0.458333 8.32067C0.20625 8.32067 0 8.53067 0 8.78733V13.5333C0 13.79 0.20625 14 0.458333 14ZM16.0417 4.2C16.0417 3.94333 16.2479 3.73333 16.5 3.73333C16.7521 3.73333 16.9583 3.94333 16.9583 4.2V6.06667C16.9583 6.32333 16.7521 6.53333 16.5 6.53333C16.2479 6.53333 16.0417 6.32333 16.0417 6.06667V4.2ZM16.0417 7.93333C16.0417 7.67667 16.2479 7.46667 16.5 7.46667C16.7521 7.46667 16.9583 7.67667 16.9583 7.93333V9.8C16.9583 10.0567 16.7521 10.2667 16.5 10.2667C16.2479 10.2667 16.0417 10.0567 16.0417 9.8V7.93333ZM5.06458 6.19267C5.11958 6.02467 5.26167 5.90333 5.43125 5.87533L7.09042 5.61867L7.83292 4.004C7.91083 3.836 8.07125 3.73333 8.25 3.73333C8.42875 3.73333 8.58917 3.836 8.66708 4.004L9.40958 5.61867L11.0688 5.87533C11.2383 5.90333 11.3804 6.02467 11.4354 6.19267C11.4904 6.356 11.4492 6.538 11.33 6.664L10.1154 7.93333L10.3996 9.72533C10.4317 9.90267 10.3583 10.08 10.2117 10.1827C10.1338 10.2387 10.0421 10.2667 9.95042 10.2667C9.8725 10.2667 9.79917 10.248 9.72583 10.2107L8.25 9.37533L6.77417 10.2107C6.61833 10.2947 6.43042 10.2853 6.28833 10.1827C6.14167 10.08 6.06833 9.90267 6.10042 9.72533L6.38458 7.93333L5.17 6.664C5.05083 6.538 5.00958 6.356 5.06458 6.19267Z" fill="white"/>
</svg>
