<svg width="24" height="13" viewBox="0 0 24 13" fill="none" xmlns="http://www.w3.org/2000/svg">
<path d="M19.3287 7.395C18.9695 6.96398 19.0723 6.77222 19.3287 6.38695C19.3334 6.38255 22.2991 2.48931 22.6047 1.16898L22.6065 1.1681C22.7584 0.686947 22.6065 0.333336 21.8723 0.333336H19.4426C18.8241 0.333336 18.5389 0.636808 18.3861 0.976345C18.3861 0.976345 17.1491 3.7894 15.3991 5.61287C14.8343 6.13977 14.5732 6.30866 14.2648 6.30866C14.113 6.30866 13.8769 6.13977 13.8769 5.65861V1.1681C13.8769 0.591067 13.7037 0.333336 13.1917 0.333336H9.37132C8.98336 0.333336 8.75281 0.602503 8.75281 0.853197C8.75281 1.40033 9.62781 1.52611 9.71855 3.06547V6.40542C9.71855 7.13727 9.57873 7.27185 9.26855 7.27185C8.44262 7.27185 6.43799 4.44736 5.25003 1.21472C5.01021 0.587549 4.77595 0.334215 4.15281 0.334215H1.72225C1.02873 0.334215 0.888916 0.637688 0.888916 0.977225C0.888916 1.57713 1.71484 4.55996 4.72966 8.5007C6.73892 11.1906 9.56855 12.6482 12.1426 12.6482C13.6898 12.6482 13.8787 12.3244 13.8787 11.7676C13.8787 9.19736 13.7389 8.95459 14.5139 8.95459C14.8732 8.95459 15.4917 9.12348 16.9361 10.4209C18.5871 11.9594 18.8584 12.6482 19.7824 12.6482H22.2121C22.9047 12.6482 23.2556 12.3244 23.0537 11.6858C22.5917 10.3426 19.4695 7.57972 19.3287 7.395Z" fill="#4997D2"/>
</svg>
