<svg width="21" height="21" viewBox="0 0 21 21" fill="none" xmlns="http://www.w3.org/2000/svg">
<path fill-rule="evenodd" clip-rule="evenodd" d="M17.6124 3.38017C15.7323 1.50688 13.2319 0.474777 10.5682 0.473679C5.07928 0.473679 0.612105 4.91936 0.609897 10.3835C0.609161 12.1302 1.06765 13.8353 1.93913 15.3382L0.526367 20.4737L5.80541 19.0955C7.26 19.8852 8.8976 20.3013 10.5641 20.3018H10.5683C16.0566 20.3018 20.5243 15.8558 20.5264 10.3914C20.5275 7.74321 19.4926 5.25334 17.6124 3.38017ZM10.5682 18.6281H10.5648C9.07963 18.6275 7.62307 18.2303 6.3521 17.4799L6.04999 17.3013L2.91733 18.1192L3.75348 15.0795L3.55661 14.7679C2.72806 13.4563 2.29055 11.9405 2.29128 10.3841C2.293 5.84245 6.00608 2.14751 10.5715 2.14751C12.7823 2.14824 14.8605 3.00615 16.4231 4.56316C17.9858 6.12016 18.8458 8.18974 18.8451 10.3908C18.8431 14.9328 15.1303 18.6281 10.5682 18.6281ZM15.1082 12.4588C14.8595 12.3348 13.6361 11.7359 13.408 11.6531C13.1801 11.5705 13.014 11.5293 12.8483 11.7771C12.6823 12.0249 12.2055 12.5828 12.0603 12.748C11.9151 12.9133 11.7701 12.934 11.5212 12.81C11.2724 12.6861 10.4707 12.4245 9.52021 11.5809C8.78059 10.9242 8.28125 10.1133 8.13602 9.86552C7.99104 9.61748 8.1348 9.49638 8.24519 9.36015C8.51454 9.02727 8.78427 8.67827 8.86718 8.51311C8.95022 8.34782 8.90864 8.20317 8.84633 8.07927C8.78427 7.95537 8.28665 6.7365 8.07936 6.24052C7.87722 5.75786 7.67226 5.82304 7.51942 5.81548C7.37444 5.80827 7.20849 5.80681 7.04253 5.80681C6.8767 5.80681 6.6071 5.8687 6.37896 6.11674C6.15094 6.36467 5.50821 6.96367 5.50821 8.18254C5.50821 9.40141 6.39981 10.5789 6.52418 10.7442C6.64856 10.9095 8.2788 13.4107 10.7747 14.4832C11.3684 14.7386 11.8318 14.8908 12.1933 15.0049C12.7894 15.1934 13.3317 15.1668 13.7605 15.1031C14.2386 15.0319 15.2325 14.504 15.44 13.9256C15.6473 13.3471 15.6473 12.8514 15.585 12.748C15.5229 12.6447 15.357 12.5828 15.1082 12.4588Z" fill="#4997D2" stroke="#4997D2" stroke-width="0.3"/>
</svg>
