<svg width="10" height="13" viewBox="0 0 10 13" fill="none" xmlns="http://www.w3.org/2000/svg">
<path d="M0.015997 6.35697C0.015997 4.63143 0.015997 2.9059 0.015997 1.18429C0.015997 1.04311 -0.0249613 0.88624 0.0241982 0.764669C0.126614 0.505839 0.212656 0.1568 0.421584 0.0430716C0.601836 -0.0588917 1.0033 0.0352312 1.21223 0.168568C3.40802 1.59213 5.58743 3.04315 7.77094 4.48633C8.36495 4.87849 8.96304 5.26281 9.54886 5.66282C10.1511 6.07068 10.1511 6.57657 9.54476 6.98442C6.77134 8.85114 3.99794 10.7179 1.21223 12.561C1.0033 12.6983 0.601836 12.7846 0.421584 12.6826C0.212656 12.565 0.0405968 12.212 0.0365001 11.961C0.0037271 10.0904 0.015997 8.22368 0.015997 6.35697Z" fill="#2D2928"/>
</svg>
