<svg width="10" height="13" viewBox="0 0 10 13" fill="none" xmlns="http://www.w3.org/2000/svg">
<path d="M9.984 6.64303C9.984 8.36857 9.984 10.0941 9.984 11.8157C9.984 11.9569 10.025 12.1138 9.9758 12.2353C9.87339 12.4942 9.78734 12.8432 9.57842 12.9569C9.39816 13.0589 8.9967 12.9648 8.78777 12.8314C6.59198 11.4079 4.41257 9.95685 2.22906 8.51367C1.63505 8.12151 1.03696 7.73718 0.451141 7.33717C-0.151063 6.92932 -0.15106 6.42343 0.455242 6.01558C3.22866 4.14886 6.00206 2.28214 8.78777 0.438956C8.9967 0.301698 9.39817 0.215422 9.57842 0.317386C9.78734 0.435036 9.9594 0.787995 9.9635 1.03898C9.99627 2.90962 9.984 4.77632 9.984 6.64303Z" fill="#BCBECD"/>
</svg>
