<svg width="26" height="14" viewBox="0 0 26 14" fill="none" xmlns="http://www.w3.org/2000/svg">
<path d="M0.297882 7.71892C0.298187 7.71922 0.298441 7.71958 0.298797 7.71988L5.60564 13.0011C6.00321 13.3968 6.64625 13.3953 7.04199 12.9977C7.43768 12.6001 7.43615 11.9571 7.03859 11.5614L3.47557 8.01563L24.9844 8.01563C25.5453 8.01563 26 7.56093 26 7C26 6.43907 25.5453 5.98438 24.9844 5.98438L3.47562 5.98438L7.03853 2.43863C7.4361 2.04294 7.43762 1.3999 7.04194 1.00233C6.6462 0.604666 6.0031 0.603295 5.60559 0.998881L0.298745 6.28013C0.298441 6.28044 0.298186 6.28079 0.297831 6.2811C-0.0999386 6.6781 -0.0986686 7.32323 0.297882 7.71892Z" fill="#13447C"/>
</svg>
