<svg width="23" height="21" viewBox="0 0 23 21" fill="none" xmlns="http://www.w3.org/2000/svg">
<path d="M18.0788 15.2727H9.60239C8.28512 15.2727 7.13966 14.3754 6.82466 13.1059L4.80103 5.00181C4.67693 4.4959 4.98239 3.9709 5.49784 3.84681C5.57421 3.82772 5.65057 3.81818 5.72693 3.81818H21.9542C22.4792 3.81818 22.9088 4.24772 22.9088 4.77272C22.9088 4.84909 22.8992 4.92545 22.8801 5.00181L20.8565 13.0964C20.5415 14.3754 19.396 15.2727 18.0788 15.2727ZM6.94875 5.72727L8.67648 12.6382C8.78148 13.0677 9.1633 13.3636 9.60239 13.3636H18.0788C18.5178 13.3636 18.8997 13.0677 19.0047 12.6382L20.7324 5.72727H6.94875Z" fill="#13447C"/>
<path d="M5.72727 5.72727C5.28818 5.72727 4.90636 5.43136 4.80136 5.00182L4.02818 1.90909H0.954546C0.429545 1.90909 0 1.47955 0 0.954545C0 0.429545 0.429545 0 0.954546 0H4.77273C5.21182 0 5.59364 0.295909 5.69864 0.725455L6.65318 4.54364C6.77727 5.04955 6.47182 5.57455 5.95636 5.69864C5.88 5.71773 5.80364 5.72727 5.72727 5.72727Z" fill="#13447C"/>
<path d="M8.59073 21C7.54073 21 6.68164 20.1409 6.68164 19.0909C6.68164 18.0409 7.54073 17.1818 8.59073 17.1818C9.64073 17.1818 10.4998 18.0409 10.4998 19.0909C10.4998 20.1409 9.64073 21 8.59073 21Z" fill="#13447C"/>
<path d="M19.0907 21C18.0407 21 17.1816 20.1409 17.1816 19.0909C17.1816 18.0409 18.0407 17.1818 19.0907 17.1818C20.1407 17.1818 20.9998 18.0409 20.9998 19.0909C20.9998 20.1409 20.1407 21 19.0907 21Z" fill="#13447C"/>
</svg>
