<svg width="19" height="20" viewBox="0 0 19 20" fill="none" xmlns="http://www.w3.org/2000/svg">
<path fill-rule="evenodd" clip-rule="evenodd" d="M2.36615 5.50169C2.77945 5.47414 3.13684 5.78684 3.16439 6.20014L3.62433 13.0992C3.71418 14.4471 3.77821 15.3849 3.91877 16.0905C4.05512 16.775 4.24546 17.1373 4.51887 17.3931C4.79228 17.6488 5.16645 17.8147 5.85845 17.9052C6.57185 17.9985 7.5119 18 8.8627 18H9.6361C10.9869 18 11.9269 17.9985 12.6403 17.9052C13.3323 17.8147 13.7065 17.6488 13.9799 17.3931C14.2533 17.1373 14.4436 16.775 14.58 16.0905C14.7206 15.3849 14.7846 14.4471 14.8744 13.0992L15.3344 6.20014C15.3619 5.78684 15.7193 5.47414 16.1326 5.50169C16.5459 5.52924 16.8586 5.88662 16.8311 6.29992L16.3676 13.2516C16.2821 14.5344 16.2131 15.5705 16.0511 16.3836C15.8827 17.2289 15.5963 17.935 15.0047 18.4884C14.4131 19.0419 13.6895 19.2807 12.8349 19.3925C12.0128 19.5 10.9744 19.5 9.6888 19.5H8.81C7.5244 19.5 6.48594 19.5 5.6639 19.3925C4.80925 19.2807 4.0857 19.0419 3.4941 18.4884C2.90251 17.935 2.61609 17.2289 2.44769 16.3836C2.28572 15.5705 2.21665 14.5344 2.13115 13.2516L1.6677 6.29992C1.64015 5.88662 1.95286 5.52924 2.36615 5.50169Z" fill="#A1A5C6"/>
<path fill-rule="evenodd" clip-rule="evenodd" d="M7.6053 3.93484e-05L7.5594 1.93212e-05C7.343 -0.000120679 7.15445 -0.00024057 6.97643 0.0281894C6.27313 0.140499 5.66453 0.579149 5.33559 1.21084C5.25232 1.37074 5.19282 1.54964 5.12452 1.75497L5.11 1.79858L5.01291 2.08984C4.99392 2.14681 4.98863 2.16252 4.98402 2.17524C4.80891 2.65936 4.35488 2.9866 3.84023 2.99964C3.8267 2.99998 3.81013 3.00004 3.75008 3.00004H0.75C0.33579 3.00004 0 3.33583 0 3.75004C0 4.16425 0.33579 4.50004 0.75 4.50004H3.75865H3.77539H14.7248H14.7415H17.7501C18.1643 4.50004 18.5001 4.16425 18.5001 3.75004C18.5001 3.33583 18.1643 3.00004 17.7501 3.00004H14.7501C14.69 3.00004 14.6735 2.99998 14.6599 2.99964C14.1453 2.9866 13.6913 2.65934 13.5161 2.17522C13.5116 2.16258 13.5062 2.14653 13.4873 2.08984L13.3902 1.79858L13.3756 1.75494C13.3073 1.54961 13.2478 1.37073 13.1646 1.21084C12.8356 0.579149 12.227 0.140499 11.5237 0.0281894C11.3457 -0.00024057 11.1572 -0.000120679 10.9408 1.93212e-05L10.8948 3.93484e-05H7.6053ZM6.39458 2.68548C6.35531 2.79404 6.30966 2.89902 6.25815 3.00004H12.242C12.1905 2.89902 12.1449 2.79406 12.1056 2.6855L12.0669 2.57216L11.9671 2.27293C11.876 1.99941 11.855 1.94363 11.8342 1.90364C11.7245 1.69308 11.5216 1.54686 11.2872 1.50942C11.2427 1.50231 11.1831 1.50004 10.8948 1.50004H7.6053C7.317 1.50004 7.2575 1.50231 7.21296 1.50942C6.97853 1.54686 6.77566 1.69308 6.66601 1.90364C6.64519 1.94363 6.62419 1.99942 6.53302 2.27293L6.43322 2.57234C6.4182 2.61742 6.4065 2.65252 6.39458 2.68548Z" fill="#A1A5C6"/>
</svg>
