<svg width="12" height="12" viewBox="0 0 12 12" fill="none" xmlns="http://www.w3.org/2000/svg">
<path d="M1.13468 11.233C0.86546 11.2483 0.600694 11.1609 0.39621 10.9893C-0.00707015 10.5931 -0.00707015 9.95331 0.39621 9.55717L9.22673 0.934223C9.64618 0.550959 10.3044 0.572264 10.6969 0.981851C11.0518 1.35224 11.0725 1.92153 10.7453 2.31553L1.86273 10.9893C1.66089 11.1584 1.40037 11.2457 1.13468 11.233Z" fill="#7D809F"/>
<path d="M9.95718 11.2344C9.68433 11.2333 9.42282 11.1276 9.22909 10.9399L0.398537 2.31693C0.0249186 1.89089 0.075714 1.24972 0.512013 0.884852C0.901422 0.559216 1.47572 0.559216 1.8651 0.884852L10.7476 9.5078C11.167 9.89117 11.1887 10.5339 10.7961 10.9434C10.7805 10.9597 10.7643 10.9754 10.7476 10.9907C10.5301 11.1754 10.2439 11.2636 9.95718 11.2344Z" fill="#7D809F"/>
</svg>
