<svg width="13" height="13" viewBox="0 0 13 13" fill="none" xmlns="http://www.w3.org/2000/svg">
<path d="M13 12.1875C13 12.6362 12.6362 13 12.1875 13H0.8125C0.363771 13 0 12.6362 0 12.1875C0 11.7388 0.363771 11.375 0.8125 11.375H12.1875C12.6362 11.375 13 11.7388 13 12.1875ZM5.92549 9.6136C6.08415 9.77227 6.29205 9.85159 6.5 9.85159C6.7079 9.85159 6.9159 9.77224 7.07451 9.6136L9.95325 6.73489C10.2706 6.41758 10.2706 5.90314 9.95325 5.58584C9.63595 5.26853 9.12151 5.26853 8.8042 5.58584L7.3125 7.07754V0.8125C7.3125 0.363771 6.94873 0 6.5 0C6.05127 0 5.6875 0.363771 5.6875 0.8125V7.07754L4.1958 5.58584C3.87849 5.26853 3.36405 5.26853 3.04675 5.58584C2.72944 5.90314 2.72944 6.41758 3.04675 6.73489L5.92549 9.6136Z" fill="#13447C"/>
</svg>
