<svg width="10" height="8" viewBox="0 0 10 8" fill="none" xmlns="http://www.w3.org/2000/svg">
<path d="M5.00524 0.0127974C6.36102 0.0127974 7.71679 0.0127975 9.06949 0.0127975C9.18041 0.0127976 9.30367 -0.0199691 9.39919 0.0193586C9.60256 0.101291 9.8768 0.170125 9.96616 0.337267C10.0463 0.481469 9.97232 0.802642 9.86755 0.969784C8.74904 2.72642 7.60895 4.46995 6.47503 6.21675C6.1669 6.69196 5.86493 7.17043 5.55064 7.63909C5.23018 8.12085 4.83269 8.12085 4.51224 7.63581C3.04554 5.41707 1.57882 3.19835 0.130609 0.969784C0.0227632 0.802642 -0.0450249 0.481468 0.0350885 0.337267C0.127528 0.170125 0.404854 0.032477 0.602057 0.0291997C2.07184 0.00298134 3.53854 0.0127973 5.00524 0.0127974Z" fill="#2D2928"/>
</svg>
