<svg width="17" height="16" viewBox="0 0 17 16" fill="none" xmlns="http://www.w3.org/2000/svg">
<path d="M4.49454 15.65C3.60496 15.6489 2.73566 15.3842 1.99645 14.8893C1.25725 14.3944 0.681322 13.6914 0.341427 12.8694C0.00153154 12.0473 -0.0870787 11.1429 0.0867912 10.2705C0.260661 9.39803 0.68921 8.59671 1.31829 7.96773L7.68204 1.60398C7.82268 1.46325 8.01345 1.38415 8.2124 1.38408C8.41136 1.38401 8.60219 1.46297 8.74292 1.6036C8.88365 1.74423 8.96275 1.93501 8.96282 2.13396C8.96289 2.33292 8.88393 2.52375 8.74329 2.66448L2.37654 9.02823C1.81392 9.59085 1.49784 10.3539 1.49784 11.1496C1.49784 11.9453 1.81392 12.7084 2.37654 13.271C2.93917 13.8336 3.70225 14.1497 4.49792 14.1497C5.29359 14.1497 6.05667 13.8336 6.61929 13.271L14.8393 5.05098C15.0134 4.87685 15.1516 4.67012 15.2458 4.4426C15.34 4.21509 15.3885 3.97124 15.3885 3.72498C15.3885 3.47872 15.34 3.23487 15.2458 3.00735C15.1516 2.77984 15.0134 2.57311 14.8393 2.39898C14.6652 2.22485 14.4584 2.08672 14.2309 1.99248C14.0034 1.89824 13.7596 1.84973 13.5133 1.84973C13.0159 1.84973 12.539 2.0473 12.1873 2.39898L5.55804 9.02823C5.45314 9.13316 5.38172 9.26685 5.35282 9.41239C5.32392 9.55792 5.33883 9.70876 5.39568 9.84582C5.45252 9.98287 5.54875 10.1 5.67217 10.1823C5.79559 10.2647 5.94067 10.3086 6.08904 10.3085C6.18761 10.309 6.2853 10.2899 6.37636 10.2521C6.46742 10.2144 6.55002 10.1588 6.61929 10.0887L10.862 5.84673C10.9312 5.7751 11.014 5.71796 11.1055 5.67865C11.197 5.63935 11.2954 5.61866 11.395 5.61779C11.4946 5.61693 11.5933 5.6359 11.6855 5.67361C11.7777 5.71132 11.8614 5.76701 11.9318 5.83743C12.0023 5.90785 12.058 5.99159 12.0957 6.08376C12.1334 6.17594 12.1523 6.2747 12.1515 6.37428C12.1506 6.47386 12.1299 6.57228 12.0906 6.66378C12.0513 6.75529 11.9942 6.83804 11.9225 6.90723L7.67979 11.15C7.47086 11.359 7.2228 11.5247 6.9498 11.6378C6.67679 11.7509 6.38418 11.8091 6.08867 11.8091C5.79316 11.8091 5.50055 11.7509 5.22754 11.6378C4.95454 11.5247 4.70648 11.359 4.49754 11.15C4.07573 10.728 3.83877 10.1558 3.83877 9.55923C3.83877 8.96261 4.07573 8.39042 4.49754 7.96848L11.1268 1.33923C11.7597 0.706289 12.6182 0.350708 13.5133 0.350708C14.4084 0.350708 15.2669 0.706289 15.8998 1.33923C16.5327 1.97217 16.8883 2.83062 16.8883 3.72573C16.8883 4.62084 16.5327 5.47929 15.8998 6.11223L7.67979 14.3322C7.26297 14.7515 6.76705 15.0839 6.22078 15.3101C5.67452 15.5364 5.08879 15.6519 4.49754 15.65H4.49454Z" fill="white"/>
<path d="M4.4968 15.4594C3.64387 15.4602 2.80992 15.2078 2.10052 14.7343C1.39112 14.2607 0.838192 13.5874 0.511743 12.7994C0.185293 12.0114 0.100006 11.1443 0.266682 10.3078C0.433357 9.47132 0.844498 8.70311 1.44805 8.10045L7.8118 1.73595C7.91732 1.63043 8.06044 1.57114 8.20967 1.57114C8.3589 1.57114 8.50202 1.63043 8.60755 1.73595C8.71307 1.84147 8.77235 1.98459 8.77235 2.13382C8.77235 2.28306 8.71307 2.42618 8.60755 2.5317L2.24305 8.89545C1.67035 9.49825 1.35587 10.301 1.36669 11.1324C1.37751 11.9638 1.71277 12.758 2.30096 13.3457C2.88914 13.9334 3.68369 14.268 4.5151 14.2782C5.34651 14.2883 6.14897 13.9731 6.7513 13.4L14.9713 5.17995C15.1629 4.98842 15.3149 4.761 15.4186 4.51071C15.5224 4.26041 15.5757 3.99213 15.5757 3.7212C15.5757 3.45027 15.5224 3.18199 15.4186 2.93169C15.3149 2.68139 15.1629 2.45398 14.9713 2.26245C14.5838 1.87673 14.0593 1.66018 13.5125 1.66018C12.9658 1.66018 12.4413 1.87673 12.0538 2.26245L5.4253 8.89545C5.24946 9.07129 5.15067 9.30978 5.15067 9.55845C5.15067 9.80712 5.24946 10.0456 5.4253 10.2214C5.60113 10.3973 5.83962 10.4961 6.0883 10.4961C6.33697 10.4961 6.57546 10.3973 6.7513 10.2214L10.9925 5.97945C11.0444 5.9257 11.1065 5.88282 11.1751 5.85331C11.2437 5.8238 11.3175 5.80824 11.3922 5.80756C11.4669 5.80688 11.5409 5.82107 11.6101 5.84932C11.6792 5.87757 11.742 5.91931 11.7949 5.9721C11.8477 6.02489 11.8895 6.08767 11.9178 6.15679C11.9462 6.22591 11.9604 6.29997 11.9598 6.37466C11.9592 6.44935 11.9437 6.52316 11.9143 6.5918C11.8848 6.66045 11.842 6.72253 11.7883 6.77445L7.5463 11.0164C7.15872 11.3991 6.63555 11.6129 6.09093 11.6112C5.54632 11.6095 5.02448 11.3925 4.63928 11.0075C4.25407 10.6225 4.03678 10.1007 4.03482 9.55612C4.03286 9.0115 4.24638 8.48822 4.6288 8.10045L11.2588 1.47495C11.5548 1.17893 11.9062 0.94412 12.293 0.783918C12.6798 0.623715 13.0943 0.54126 13.5129 0.54126C13.9316 0.54126 14.3461 0.623715 14.7328 0.783918C15.1196 0.94412 15.471 1.17893 15.767 1.47495C16.0631 1.77096 16.2979 2.12239 16.4581 2.50915C16.6183 2.89591 16.7007 3.31044 16.7007 3.72907C16.7007 4.1477 16.6183 4.56223 16.4581 4.949C16.2979 5.33576 16.0631 5.68718 15.767 5.9832L7.54705 14.2032C7.14637 14.6031 6.67066 14.92 6.14721 15.1355C5.62377 15.3511 5.0629 15.4612 4.4968 15.4594Z" fill="white"/>
</svg>
