<svg width="27" height="27" viewBox="0 0 27 27" fill="none" xmlns="http://www.w3.org/2000/svg">
<g clip-path="url(#clip0_4089_7405)">
<path fill-rule="evenodd" clip-rule="evenodd" d="M13.5 27C20.952 27 27 20.952 27 13.5C27 6.048 20.952 0 13.5 0C6.048 0 0 6.048 0 13.5C0 20.952 6.048 27 13.5 27Z" fill="#DF1B12"/>
<path fill-rule="evenodd" clip-rule="evenodd" d="M7.68131 7.41016V12.0002C8.38331 11.1632 9.22031 10.7447 10.1923 10.7447C10.6918 10.7447 11.1373 10.8392 11.5423 11.0282C11.9473 11.2172 12.2443 11.4602 12.4468 11.7572C12.6493 12.0542 12.7843 12.3782 12.8653 12.7427C12.9463 13.0937 12.9733 13.6472 12.9733 14.4032V19.3037H10.7998V14.8757C10.7998 13.9982 10.7593 13.4447 10.6783 13.2017C10.5973 12.9587 10.4488 12.7832 10.2463 12.6347C10.0438 12.4997 9.77381 12.4187 9.46331 12.4187C9.09881 12.4187 8.77481 12.5132 8.50481 12.6887C8.22131 12.8642 8.00531 13.1342 7.88381 13.4987C7.74881 13.8632 7.68131 14.3897 7.68131 15.0917V19.2902H5.50781V7.41016H7.68131Z" fill="white"/>
<path fill-rule="evenodd" clip-rule="evenodd" d="M16.2282 7.41016V12.0002C16.9302 11.1632 17.7672 10.7447 18.7392 10.7447C19.2387 10.7447 19.6842 10.8392 20.0892 11.0282C20.4942 11.2172 20.7912 11.4602 20.9937 11.7572C21.1962 12.0542 21.3312 12.3782 21.4122 12.7427C21.4932 13.0937 21.5202 13.6472 21.5202 14.4032V19.3037H19.3467V14.8757C19.3467 13.9982 19.3062 13.4447 19.2252 13.2017C19.1442 12.9587 18.9957 12.7832 18.7932 12.6347C18.5907 12.4997 18.3207 12.4187 18.0102 12.4187C17.6457 12.4187 17.3217 12.5132 17.0517 12.6887C16.7682 12.8642 16.5657 13.1342 16.4307 13.4987C16.2957 13.8632 16.2282 14.3897 16.2282 15.0917V19.3037H14.0547V7.41016H16.2282Z" fill="white"/>
</g>
<defs>
<clipPath id="clip0_4089_7405">
<rect width="27" height="27" fill="white"/>
</clipPath>
</defs>
</svg>
