<svg width="8" height="11" viewBox="0 0 8 11" fill="none" xmlns="http://www.w3.org/2000/svg">
<path d="M0.0127976 5.49424C0.0127976 4.00288 0.0127976 2.51153 0.0127976 1.02356C0.0127976 0.901545 -0.019969 0.765965 0.0193586 0.660892C0.101291 0.437189 0.170125 0.13552 0.337267 0.0372262C0.481469 -0.0508992 0.802642 0.0304498 0.969784 0.145691C2.72642 1.37606 4.46995 2.63015 6.21675 3.87747C6.69196 4.21641 7.17043 4.54858 7.63909 4.8943C8.12085 5.2468 8.12085 5.68404 7.63581 6.03654C5.41707 7.64991 3.19835 9.26329 0.969784 10.8563C0.802642 10.975 0.481469 11.0495 0.337267 10.9614C0.170125 10.8597 0.0324774 10.5547 0.0292001 10.3377C0.00298168 8.72097 0.0127976 7.10761 0.0127976 5.49424Z" fill="#13447C"/>
</svg>
