<svg width="25" height="21" viewBox="0 0 25 21" fill="none" xmlns="http://www.w3.org/2000/svg">
<path d="M10.5 16.1538C10.7142 16.1538 10.9197 16.0688 11.0711 15.9173C11.2226 15.7658 11.3077 15.5604 11.3077 15.3462C11.3077 15.1319 11.2226 14.9265 11.0711 14.775C10.9197 14.6236 10.7142 14.5385 10.5 14.5385H2.42308C2.2089 14.5383 2.00354 14.4532 1.85209 14.3018C1.70065 14.1503 1.61551 13.9449 1.61538 13.7308V3.82911L9.27667 8.29936C9.64774 8.51371 10.0687 8.62657 10.4973 8.62657C10.9258 8.62657 11.3468 8.51371 11.7178 8.29936L19.3846 3.82588V7.26923C19.3846 7.48344 19.4697 7.68888 19.6212 7.84036C19.7727 7.99183 19.9781 8.07692 20.1923 8.07692C20.4065 8.07692 20.612 7.99183 20.7634 7.84036C20.9149 7.68888 21 7.48344 21 7.26923V2.42308C20.9993 1.78065 20.7438 1.16474 20.2895 0.710482C19.8353 0.25622 19.2193 0.000705502 18.5769 0H2.42308C2.03452 0.00176362 1.65207 0.0967541 1.30784 0.276991C0.963615 0.457228 0.667672 0.717446 0.444877 1.03578C0.161466 1.44346 0.00652775 1.92661 0 2.42308V13.7308C0.000705502 14.3732 0.25622 14.9891 0.710482 15.4434C1.16474 15.8976 1.78065 16.1531 2.42308 16.1538H10.5ZM2.42308 1.61538H18.5769C18.7177 1.61697 18.8555 1.65579 18.9764 1.72792C19.0973 1.80004 19.197 1.90289 19.2652 2.02602L10.9038 6.9048C10.7801 6.97592 10.6399 7.01335 10.4973 7.01335C10.3546 7.01335 10.2144 6.97592 10.0907 6.9048L1.73323 2.02836C1.80131 1.90458 1.90107 1.80111 2.02228 1.72854C2.1435 1.65598 2.28181 1.61693 2.42308 1.61538Z" fill="#13447C"/>
<path d="M18.5777 9.69232C17.0782 9.69232 15.6401 10.288 14.5798 11.3483C13.5195 12.4086 12.9238 13.8467 12.9238 15.3462C12.9238 16.8457 13.5195 18.2837 14.5798 19.344C15.6401 20.4043 17.0782 21 18.5777 21C18.7919 21 18.9973 20.9149 19.1488 20.7634C19.3003 20.612 19.3854 20.4065 19.3854 20.1923C19.3854 19.9781 19.3003 19.7727 19.1488 19.6212C18.9973 19.4697 18.7919 19.3846 18.5777 19.3846C17.7789 19.3846 16.9981 19.1478 16.334 18.704C15.6699 18.2603 15.1523 17.6296 14.8466 16.8916C14.541 16.1537 14.461 15.3417 14.6168 14.5583C14.7726 13.7749 15.1573 13.0553 15.7221 12.4905C16.2868 11.9258 17.0064 11.5411 17.7898 11.3853C18.5732 11.2295 19.3852 11.3095 20.1231 11.6151C20.8611 11.9208 21.4918 12.4384 21.9355 13.1025C22.3793 13.7666 22.6161 14.5474 22.6161 15.3462V16.1539C22.6161 16.3681 22.531 16.5735 22.3796 16.725C22.2281 16.8765 22.0227 16.9616 21.8084 16.9616C21.5942 16.9616 21.3888 16.8765 21.2373 16.725C21.0858 16.5735 21.0008 16.3681 21.0008 16.1539V15.3462C21.0008 14.8669 20.8586 14.3985 20.5924 14C20.3261 13.6015 19.9477 13.2909 19.5049 13.1075C19.0622 12.9241 18.575 12.8762 18.105 12.9696C17.6349 13.0631 17.2032 13.2939 16.8643 13.6328C16.5254 13.9717 16.2947 14.4034 16.2012 14.8734C16.1077 15.3435 16.1556 15.8307 16.339 16.2734C16.5224 16.7162 16.833 17.0946 17.2315 17.3609C17.63 17.6271 18.0984 17.7692 18.5777 17.7692C18.9952 17.7666 19.4047 17.6548 19.7656 17.445C20.0449 17.8897 20.4613 18.2313 20.9519 18.4184C21.4425 18.6054 21.9806 18.6277 22.485 18.4819C22.9894 18.3361 23.4326 18.03 23.7477 17.61C24.0628 17.19 24.2326 16.6789 24.2315 16.1539V15.3462C24.2297 13.8472 23.6334 12.4102 22.5735 11.3503C21.5136 10.2904 20.0766 9.69414 18.5777 9.69232ZM18.5777 16.1539C18.4179 16.1539 18.2618 16.1065 18.1289 16.0177C17.9961 15.929 17.8926 15.8028 17.8315 15.6553C17.7703 15.5077 17.7543 15.3453 17.7855 15.1886C17.8167 15.0319 17.8936 14.888 18.0065 14.775C18.1195 14.6621 18.2634 14.5852 18.4201 14.554C18.5768 14.5228 18.7392 14.5388 18.8868 14.6C19.0344 14.6611 19.1605 14.7646 19.2492 14.8974C19.338 15.0303 19.3854 15.1864 19.3854 15.3462C19.3852 15.5603 19.3001 15.7657 19.1487 15.9172C18.9972 16.0686 18.7918 16.1537 18.5777 16.1539Z" fill="#13447C"/>
</svg>
