<svg width="154" height="154" viewBox="0 0 154 154" fill="none" xmlns="http://www.w3.org/2000/svg">
<g filter="url(#filter0_d_4089_7227)">
<circle cx="76.9668" cy="76.9668" r="36.9668" fill="white"/>
</g>
<path d="M58.2305 65.5469C58.4742 65.6829 58.6482 65.7588 58.7969 65.8632C63.8145 69.3718 68.8321 72.8835 73.8498 76.3952C77.3552 78.8471 80.8574 81.299 84.3596 83.754C84.4102 83.7888 84.464 83.8268 84.5146 83.8616C85.005 84.2159 85.0019 84.5924 84.4988 84.9404C82.357 86.4242 80.212 87.9048 78.0638 89.3823C77.0008 90.1131 77.2286 90.1099 76.1783 89.3823C70.1894 85.2315 64.2036 81.0744 58.2084 76.9299C57.9079 76.7211 57.7781 76.5123 57.7813 76.1326C57.7971 72.931 57.7908 69.7293 57.7908 66.5276C57.7908 66.3631 57.756 66.1765 57.8193 66.0404C57.911 65.8601 58.0819 65.7209 58.2305 65.5469Z" fill="#13447C"/>
<path d="M96.4618 83.855C96.4618 85.285 96.4555 86.715 96.4649 88.145C96.4681 88.5499 96.3922 88.9043 96.0062 89.1131C95.6171 89.3282 95.2849 89.1795 94.9527 88.9517C89.4478 85.1679 83.9398 81.3873 78.4318 77.6066C77.6472 77.0688 77.6472 76.3918 78.435 75.8571C80.5167 74.4398 82.5984 73.0256 84.6801 71.6114C85.2559 71.2191 85.4679 71.2223 86.0532 71.6272C89.3213 73.883 92.5894 76.145 95.8638 78.3912C96.2814 78.676 96.4744 79.0113 96.4681 79.5239C96.4491 80.9697 96.4618 82.4123 96.4618 83.855Z" fill="#C1111B"/>
<path d="M96.4597 70.2019C96.4597 71.9988 96.4597 73.7958 96.4597 75.5928C96.4597 75.8523 96.4628 76.1053 96.1971 76.2572C95.906 76.4217 95.6909 76.2509 95.4726 76.099C92.8878 74.3179 90.3062 72.5398 87.7215 70.7618C87.0856 70.3221 87.0824 69.9836 87.712 69.5533C90.2968 67.7974 92.8815 66.0416 95.4631 64.2857C95.6846 64.137 95.8965 63.9567 96.1876 64.1181C96.4723 64.2731 96.4628 64.5452 96.4597 64.8141C96.4597 66.6079 96.4597 68.4049 96.4597 70.2019Z" fill="#C1111B"/>
<path d="M57.7936 84.351C57.7936 82.959 57.7936 81.5669 57.7936 80.1781C57.7936 80.0642 57.762 79.9376 57.7999 79.8395C57.879 79.6307 57.9455 79.3492 58.1068 79.2574C58.246 79.1751 58.5561 79.2511 58.7174 79.3586C60.4132 80.5071 62.0963 81.6776 63.7825 82.8419C64.2413 83.1583 64.7031 83.4683 65.1556 83.791C65.6206 84.12 65.6206 84.5281 65.1524 84.8572C63.0106 86.3631 60.8687 87.869 58.7174 89.356C58.5561 89.4667 58.246 89.5363 58.1068 89.454C57.9455 89.3591 57.8126 89.0744 57.8094 88.8719C57.7841 87.3628 57.7936 85.8569 57.7936 84.351Z" fill="#13447C"/>
<defs>
<filter id="filter0_d_4089_7227" x="0" y="0" width="153.938" height="153.934" filterUnits="userSpaceOnUse" color-interpolation-filters="sRGB">
<feFlood flood-opacity="0" result="BackgroundImageFix"/>
<feColorMatrix in="SourceAlpha" type="matrix" values="0 0 0 0 0 0 0 0 0 0 0 0 0 0 0 0 0 0 127 0" result="hardAlpha"/>
<feOffset/>
<feGaussianBlur stdDeviation="20"/>
<feComposite in2="hardAlpha" operator="out"/>
<feColorMatrix type="matrix" values="0 0 0 0 0 0 0 0 0 0 0 0 0 0 0 0 0 0 0.15 0"/>
<feBlend mode="normal" in2="BackgroundImageFix" result="effect1_dropShadow_4089_7227"/>
<feBlend mode="normal" in="SourceGraphic" in2="effect1_dropShadow_4089_7227" result="shape"/>
</filter>
</defs>
</svg>
