<svg width="137" height="96" viewBox="0 0 137 96" fill="none" xmlns="http://www.w3.org/2000/svg">
<path fill-rule="evenodd" clip-rule="evenodd" d="M26.2934 64.4134C11.3177 61.5124 0 48.318 0 32.5025C0 14.5622 14.5622 0 32.5025 0C50.4428 0 65.005 14.5622 65.005 32.5025C65.005 56.4102 56.951 71.2587 47.4973 80.5406C33.0242 94.7529 14.8994 95.9871 14.8994 95.9871C13.0544 96.1207 11.3049 95.1728 10.4016 93.5632C9.49183 91.9601 9.59998 89.9688 10.6688 88.4674C10.6688 88.4674 19.2827 76.3418 24.652 67.3716C25.2119 66.4301 25.7781 65.3931 26.2934 64.4134ZM32.5025 9.54272C19.8298 9.54272 9.54272 19.8298 9.54272 32.5025C9.54272 45.1753 19.8298 55.4623 32.5025 55.4623C34.3029 55.4623 35.5626 56.2003 36.4787 57.2563C37.2484 58.147 37.9737 59.572 37.7256 61.6651C37.5093 63.4782 35.6516 67.5752 32.8397 72.2766C30.7021 75.8392 28.0747 79.8853 25.6381 83.5179C30.3395 81.6476 35.8361 78.6193 40.8111 73.7271C48.9033 65.7875 55.4623 52.9621 55.4623 32.5025C55.4623 19.8298 45.1753 9.54272 32.5025 9.54272Z" fill="white" fill-opacity="0.5"/>
<path fill-rule="evenodd" clip-rule="evenodd" d="M98.0668 64.4134C83.0911 61.5124 71.7734 48.318 71.7734 32.5025C71.7734 14.5622 86.3356 0 104.276 0C122.216 0 136.778 14.5622 136.778 32.5025C136.778 56.4102 128.724 71.2587 119.271 80.5406C104.798 94.7529 86.6728 95.9871 86.6728 95.9871C84.8279 96.1207 83.0784 95.1728 82.175 93.5632C81.2716 91.9601 81.3734 89.9688 82.4422 88.4674C82.4422 88.4674 91.0561 76.3418 96.4255 67.3716C96.9853 66.4301 97.5515 65.3931 98.0668 64.4134ZM104.276 9.54272C91.6032 9.54272 81.3162 19.8298 81.3162 32.5025C81.3162 45.1753 91.6032 55.4623 104.276 55.4623C106.076 55.4623 107.336 56.2003 108.252 57.2563C109.022 58.147 109.747 59.572 109.499 61.6651C109.283 63.4782 107.425 67.5752 104.613 72.2766C102.476 75.8392 99.8481 79.8853 97.4116 83.5179C102.113 81.6476 107.61 78.6193 112.584 73.7271C120.677 65.7875 127.236 52.9621 127.236 32.5025C127.236 19.8298 116.949 9.54272 104.276 9.54272Z" fill="white" fill-opacity="0.5"/>
</svg>
