<svg width="29" height="35" viewBox="0 0 29 35" fill="none" xmlns="http://www.w3.org/2000/svg">
<path d="M28.4445 11.0178V31.2725C28.4445 33.1586 26.9156 34.6875 25.0295 34.6875H3.96967C2.08361 34.6875 0.554688 33.1586 0.554688 31.2725V3.41498C0.554615 1.52892 2.08354 0 3.96967 0H18.0751L28.4445 11.0178Z" fill="#C1111B"/>
<path d="M28.4476 11.0178H20.3548C19.0974 11.0178 18.0781 9.99853 18.0781 8.74118V0L28.4476 11.0178Z" fill="#DC3B44"/>
<path d="M7.83386 24.3583V26.6661H6.19531V19.8672H8.90773C9.42797 19.8672 9.88823 19.9628 10.2884 20.154C10.6886 20.3452 10.9977 20.6187 11.2178 20.9722C11.4357 21.3257 11.5468 21.7259 11.5468 22.175C11.5468 22.8375 11.3089 23.3667 10.8331 23.7647C10.3595 24.1604 9.70807 24.3583 8.87882 24.3583H7.83386ZM7.83386 23.0932H8.90773C9.2257 23.0932 9.46801 23.0154 9.63472 22.8553C9.80144 22.6975 9.88375 22.4729 9.88375 22.1839C9.88375 21.8659 9.79703 21.6125 9.62583 21.4213C9.45464 21.2323 9.22122 21.1367 8.92551 21.1322H7.83386V23.0932Z" fill="white"/>
<path d="M12.4219 26.6661V19.8672H14.6118C15.2121 19.8672 15.7524 20.0028 16.2326 20.2763C16.7106 20.5475 17.0863 20.9322 17.3554 21.4302C17.6244 21.926 17.76 22.4818 17.7622 23.0977V23.4112C17.7622 24.0337 17.6311 24.5918 17.3687 25.0853C17.1063 25.5789 16.735 25.9636 16.257 26.2437C15.779 26.5216 15.2454 26.6617 14.6584 26.6662H12.4219V26.6661ZM14.0605 21.1323V25.4055H14.6297C15.101 25.4055 15.4612 25.2388 15.7124 24.903C15.9659 24.5695 16.0926 24.0715 16.0926 23.4112V23.1177C16.0926 22.4596 15.9659 21.966 15.7124 21.6325C15.4612 21.299 15.0943 21.1323 14.6119 21.1323H14.0605Z" fill="white"/>
<path d="M22.8837 23.9581H20.2401V26.6661H18.6016V19.8672H23.1482V21.1323H20.2401V22.6975H22.8837V23.9581Z" fill="white"/>
</svg>
