<svg width="26" height="27" viewBox="0 0 26 27" fill="none" xmlns="http://www.w3.org/2000/svg">
<path d="M5.33875 1.91782H15.3386V4.62626C15.3386 4.88042 15.4395 5.12418 15.6193 5.3039C15.799 5.48363 16.0427 5.58459 16.2969 5.58459H19.0053V7.86542H20.922V4.62626C20.9206 4.41238 20.8753 4.20106 20.7891 4.00535C20.7028 3.80964 20.5773 3.63368 20.4204 3.48833L17.3883 0.498334C17.2522 0.342564 17.0845 0.217557 16.8964 0.131633C16.7082 0.0457081 16.5039 0.00083521 16.2971 0H5.10185C4.65411 0.00283873 4.22579 0.183165 3.91084 0.501416C3.5959 0.819667 3.42005 1.24985 3.42189 1.69759V7.86504H5.33855L5.33875 1.91782Z" fill="white"/>
<path d="M3.42188 25.3125C3.42096 25.7593 3.59734 26.1881 3.9123 26.505C4.22726 26.8219 4.65507 27.0008 5.10184 27.0026H19.2373C19.6846 27.0014 20.1133 26.8228 20.4291 26.506C20.7449 26.1891 20.9221 25.7599 20.9218 25.3125V25.0859H3.42265L3.42188 25.3125Z" fill="white"/>
<path d="M7.17813 15.183V15.1577C7.18544 14.7146 7.09784 14.275 6.92121 13.8685C6.74459 13.462 6.48303 13.098 6.1541 12.801C5.82517 12.504 5.43649 12.2807 5.01416 12.1463C4.59183 12.0119 4.14563 11.9694 3.70552 12.0217H0.997649C0.866383 12.0208 0.736244 12.046 0.614792 12.0958C0.49334 12.1456 0.382998 12.219 0.290177 12.3118C0.197355 12.4047 0.123906 12.515 0.0740952 12.6365C0.0242848 12.7579 -0.000893244 12.8881 2.4199e-05 13.0193V20.1712C2.42101e-05 20.4358 0.10513 20.6895 0.292221 20.8766C0.479312 21.0637 0.733062 21.1688 0.997649 21.1688C1.26224 21.1688 1.51599 21.0637 1.70308 20.8766C1.89017 20.6895 1.99527 20.4358 1.99527 20.1712V18.3705H3.51136C3.96678 18.4307 4.42981 18.3934 4.86975 18.2612C5.30969 18.1289 5.7165 17.9047 6.06321 17.6033C6.40992 17.3019 6.68862 16.9303 6.88083 16.513C7.07305 16.0958 7.17438 15.6424 7.17813 15.183ZM1.99527 13.8232H3.53762C4.53524 13.8232 5.15662 14.3023 5.15662 15.1961V15.2223C5.15387 15.4199 5.10945 15.6146 5.02626 15.7938C4.94308 15.973 4.823 16.1326 4.67389 16.2622C4.52478 16.3918 4.34999 16.4884 4.16096 16.5458C3.97192 16.6032 3.7729 16.6201 3.57691 16.5952H1.99527V13.8232Z" fill="white"/>
<path d="M12.1939 12.0216H9.6539C9.52263 12.0207 9.39249 12.0459 9.27104 12.0957C9.14959 12.1455 9.03925 12.219 8.94643 12.3118C8.85361 12.4046 8.78016 12.5149 8.73035 12.6364C8.68053 12.7578 8.65536 12.888 8.65627 13.0192V20.0935C8.65536 20.2247 8.68053 20.3549 8.73035 20.4763C8.78016 20.5978 8.85361 20.7081 8.94643 20.8009C9.03925 20.8938 9.14959 20.9672 9.27104 21.017C9.39249 21.0668 9.52263 21.092 9.6539 21.0911H12.1939C12.8127 21.1293 13.4328 21.0403 14.0159 20.8296C14.599 20.619 15.1328 20.2911 15.5843 19.8663C16.0359 19.4415 16.3957 18.9287 16.6415 18.3595C16.8873 17.7903 17.0139 17.1768 17.0135 16.5568V16.5306C17.0133 15.9119 16.886 15.2998 16.6397 14.7323C16.3933 14.1648 16.0331 13.6538 15.5813 13.2312C15.1295 12.8085 14.5957 12.483 14.013 12.275C13.4304 12.0669 12.8112 11.9807 12.1939 12.0216ZM14.9286 16.5821C14.9465 16.9448 14.8878 17.3072 14.7563 17.6456C14.6249 17.9841 14.4236 18.2911 14.1656 18.5466C13.9076 18.8021 13.5987 19.0004 13.259 19.1286C12.9193 19.2568 12.5563 19.312 12.1939 19.2906H10.6515V13.8231H12.1939C12.5578 13.8045 12.9216 13.8625 13.2617 13.9933C13.6019 14.1241 13.9108 14.3248 14.1685 14.5825C14.4262 14.8401 14.627 15.1489 14.758 15.489C14.8889 15.8291 14.947 16.1929 14.9286 16.5568V16.5821Z" fill="white"/>
<path d="M24.8659 13.8343C25.1065 13.8343 25.3373 13.7387 25.5075 13.5685C25.6776 13.3983 25.7732 13.1675 25.7732 12.9269C25.7732 12.6863 25.6776 12.4555 25.5075 12.2853C25.3373 12.1152 25.1065 12.0196 24.8659 12.0196H19.7867C19.6554 12.0186 19.5253 12.0438 19.4039 12.0936C19.2824 12.1434 19.1721 12.2169 19.0792 12.3097C18.9864 12.4025 18.913 12.5129 18.8632 12.6343C18.8133 12.7558 18.7882 12.8859 18.7891 13.0172V20.169C18.7891 20.3 18.8149 20.4298 18.865 20.5508C18.9152 20.6718 18.9886 20.7818 19.0813 20.8745C19.1739 20.9671 19.2839 21.0406 19.4049 21.0907C19.526 21.1409 19.6557 21.1667 19.7867 21.1667C19.9177 21.1667 20.0475 21.1409 20.1685 21.0907C20.2895 21.0406 20.3995 20.9671 20.4921 20.8745C20.5848 20.7818 20.6583 20.6718 20.7084 20.5508C20.7585 20.4298 20.7843 20.3 20.7843 20.169V17.5779H24.2826C24.5232 17.5779 24.7538 17.4823 24.9239 17.3123C25.094 17.1422 25.1895 16.9115 25.1895 16.671C25.1895 16.4305 25.094 16.1998 24.9239 16.0298C24.7538 15.8597 24.5232 15.7641 24.2826 15.7641H20.7836V13.8343H24.8659Z" fill="white"/>
</svg>
