<svg width="21" height="21" viewBox="0 0 21 21" fill="none" xmlns="http://www.w3.org/2000/svg">
<path d="M20.4243 15.8728C19.5032 14.9552 18.5845 14.0374 17.6633 13.1222C16.9329 12.3575 15.9746 12.3575 15.207 13.1222C14.6325 13.6946 14.0556 14.2669 13.4811 14.8417C13.3275 14.9946 13.2112 14.9946 13.0205 14.9181C12.6739 14.6887 12.2529 14.5358 11.9062 14.3063C10.2571 13.2752 8.83826 11.9356 7.61005 10.4061C6.99596 9.64137 6.45862 8.83962 6.0748 7.92193C5.99805 7.73197 5.99805 7.61603 6.15157 7.46308C6.76566 6.92775 7.30301 6.35543 7.87747 5.85711C8.6847 5.05536 8.6847 4.13765 7.87747 3.3359C7.37975 2.83759 6.95633 2.41821 6.49825 1.95936C5.99805 1.46351 5.53749 1.00466 5.07692 0.545799C4.34891 -0.181933 3.38818 -0.181933 2.62301 0.545799C2.04608 1.11813 1.47161 1.69046 0.894644 2.26526C0.357332 2.80058 0.089885 3.44938 0.0131089 4.17713C-0.063637 5.36125 0.20378 6.50838 0.627197 7.61603C1.47161 9.94729 2.77654 11.9356 4.34891 13.808C6.45862 16.3317 9.0289 18.357 11.983 19.7731C13.3275 20.3849 14.7093 20.9202 16.1652 20.9967C17.2399 21.0337 18.1239 20.7672 18.8519 19.963C19.3496 19.4277 19.9266 18.9318 20.4243 18.3965C21.1919 17.5923 21.1919 16.6376 20.4243 15.8728Z" fill="#13447C"/>
</svg>
