<svg width="43" height="43" viewBox="0 0 43 43" fill="none" xmlns="http://www.w3.org/2000/svg">
<ellipse cx="21.9663" cy="21.9585" rx="21.0415" ry="21.0415" transform="rotate(-180 21.9663 21.9585)" fill="#13447C"/>
<path d="M27.1597 20.7522L19.2913 16.2062C19.0664 16.0731 18.8103 16.002 18.5489 16C18.1381 16 17.7442 16.1632 17.4537 16.4537C17.1632 16.7442 17 17.1381 17 17.5489V27.3054C17.0001 27.578 17.0731 27.8456 17.2116 28.0804C17.3501 28.3152 17.549 28.5086 17.7876 28.6405C18.0262 28.7724 18.2957 28.838 18.5682 28.8305C18.8407 28.823 19.1062 28.7426 19.3371 28.5977L27.2147 23.6209C27.4596 23.4676 27.6607 23.2535 27.7983 22.9994C27.9358 22.7453 28.0052 22.4599 27.9997 22.171C27.9942 21.8821 27.9139 21.5995 27.7667 21.3509C27.6195 21.1023 27.4103 20.896 27.1597 20.7522Z" fill="white"/>
</svg>
