<svg width="62" height="62" viewBox="0 0 62 62" fill="none" xmlns="http://www.w3.org/2000/svg">
<mask id="mask0_4166_1691" style="mask-type:alpha" maskUnits="userSpaceOnUse" x="0" y="0" width="62" height="62">
<rect width="62" height="62" rx="31" fill="#13447C"/>
</mask>
<g mask="url(#mask0_4166_1691)">
<rect width="62" height="62" rx="31" fill="#C1111B"/>
</g>
<path d="M24.0224 30.9906C24.0224 28.5502 24.0224 26.1098 24.0224 23.6749C24.0224 23.4753 23.9651 23.2534 24.0339 23.0815C24.1773 22.7154 24.2977 22.2218 24.5902 22.0609C24.8426 21.9167 25.4046 22.0498 25.6971 22.2384C28.7712 24.2517 31.8224 26.3039 34.8793 28.3449C35.7109 28.8996 36.5483 29.4431 37.3684 30.0089C38.2115 30.5857 38.2115 31.3012 37.3627 31.878C33.4799 34.518 29.5971 37.1581 25.6971 39.7649C25.4046 39.959 24.8426 40.081 24.5902 39.9368C24.2977 39.7705 24.0568 39.2713 24.0511 38.9163C24.0052 36.2707 24.0224 33.6306 24.0224 30.9906Z" fill="white"/>
</svg>
