<svg width="17" height="9" viewBox="0 0 17 9" fill="none" xmlns="http://www.w3.org/2000/svg">
<path d="M16.8052 4.02994C16.805 4.02974 16.8049 4.02951 16.8046 4.02931L13.3348 0.576185C13.0748 0.3175 12.6544 0.318462 12.3956 0.578443C12.1369 0.83839 12.1379 1.25884 12.3978 1.51756L14.7275 3.83594H0.664063C0.297301 3.83594 0 4.13324 0 4.5C0 4.86676 0.297301 5.16406 0.664063 5.16406H14.7275L12.3979 7.48244C12.1379 7.74115 12.1369 8.1616 12.3957 8.42155C12.6544 8.68157 13.0749 8.68246 13.3348 8.42381L16.8047 4.97069C16.8049 4.97049 16.805 4.97025 16.8053 4.97005C17.0653 4.71047 17.0645 4.28866 16.8052 4.02994Z" fill="#13447C"/>
</svg>
