<svg width="22" height="20" viewBox="0 0 22 20" fill="none" xmlns="http://www.w3.org/2000/svg">
<g clip-path="url(#clip0_4031_2839)">
<path d="M11.5907 12.0936H3.4517V8.70564H11.5907C12.0661 8.70564 12.3967 8.7928 12.5625 8.94503C12.7285 9.09725 12.8312 9.37958 12.8312 9.79201V11.0085C12.8312 11.443 12.7285 11.7254 12.5625 11.8776C12.3967 12.0298 12.0661 12.0949 11.5907 12.0949V12.0936ZM12.149 5.51156H0V20H3.4517V15.2863H9.81282L12.8312 20H16.6964L13.3685 15.2642C14.5954 15.073 15.1464 14.6775 15.6007 14.0256C16.0551 13.3738 16.2829 12.3317 16.2829 10.9408V9.85446C16.2829 9.0296 16.2 8.37776 16.0551 7.87817C15.9103 7.37856 15.6626 6.94401 15.311 6.5537C14.9396 6.18419 14.5261 5.92399 14.0297 5.74964C13.5332 5.59742 12.9129 5.51025 12.149 5.51025V5.51156Z" fill="white"/>
<path d="M19.3491 5.5102C20.8136 5.5102 22.0008 4.27669 22.0008 2.7551C22.0008 1.2335 20.8136 0 19.3491 0C17.8845 0 16.6973 1.2335 16.6973 2.7551C16.6973 4.27669 17.8845 5.5102 19.3491 5.5102Z" fill="white"/>
</g>
<defs>
<clipPath id="clip0_4031_2839">
<rect width="22" height="20" fill="white"/>
</clipPath>
</defs>
</svg>
