<svg width="23" height="21" viewBox="0 0 23 21" fill="none" xmlns="http://www.w3.org/2000/svg">
<g clip-path="url(#clip0_4031_2842)">
<path d="M18.5738 11.3995C18.2181 10.9708 18.3199 10.78 18.5738 10.3968C18.5784 10.3924 21.5144 6.51962 21.8169 5.20625L21.8188 5.20537C21.9691 4.72675 21.8188 4.375 21.0919 4.375H18.6865C18.0742 4.375 17.7919 4.67687 17.6406 5.01463C17.6406 5.01463 16.4159 7.81288 14.6834 9.62675C14.1243 10.1509 13.8658 10.3189 13.5605 10.3189C13.4102 10.3189 13.1764 10.1509 13.1764 9.67225V5.20537C13.1764 4.63137 13.005 4.375 12.4981 4.375H8.71594C8.33186 4.375 8.10361 4.64275 8.10361 4.89213C8.10361 5.43638 8.96986 5.5615 9.05969 7.09275V10.4151C9.05969 11.1431 8.92128 11.277 8.61419 11.277C7.79653 11.277 5.81194 8.46738 4.63586 5.25175C4.39844 4.62787 4.16653 4.37587 3.54961 4.37587H1.14336C0.456776 4.37587 0.318359 4.67775 0.318359 5.0155C0.318359 5.61225 1.13603 8.57938 4.12069 12.4994C6.10986 15.1751 8.91119 16.625 11.4595 16.625C12.9913 16.625 13.1783 16.303 13.1783 15.7491C13.1783 13.1924 13.0399 12.9509 13.8071 12.9509C14.1628 12.9509 14.7751 13.1189 16.2051 14.4095C17.8395 15.9399 18.1081 16.625 19.0229 16.625H21.4283C22.1139 16.625 22.4614 16.303 22.2615 15.6678C21.8041 14.3316 18.7131 11.5833 18.5738 11.3995Z" fill="white"/>
</g>
<defs>
<clipPath id="clip0_4031_2842">
<rect width="22" height="21" fill="white" transform="translate(0.318359)"/>
</clipPath>
</defs>
</svg>
