<svg width="23" height="23" viewBox="0 0 23 23" fill="none" xmlns="http://www.w3.org/2000/svg">
<path d="M11.5 0C9.22552 0 7.00211 0.674463 5.11095 1.9381C3.21978 3.20174 1.7458 4.99779 0.87539 7.09914C0.00498281 9.20049 -0.222756 11.5128 0.220974 13.7435C0.664704 15.9743 1.75997 18.0234 3.36828 19.6317C4.97658 21.24 7.02568 22.3353 9.25646 22.779C11.4872 23.2228 13.7995 22.995 15.9009 22.1246C18.0022 21.2542 19.7983 19.7802 21.0619 17.8891C22.3255 15.9979 23 13.7745 23 11.5C22.9964 8.45111 21.7836 5.52813 19.6278 3.37224C17.4719 1.21636 14.5489 0.00359686 11.5 0ZM15.3755 15.3755C15.1795 15.5715 14.9136 15.6816 14.6364 15.6816C14.3591 15.6816 14.0933 15.5715 13.8972 15.3755L10.7609 12.2391C10.5648 12.0431 10.4546 11.7772 10.4545 11.5V5.22727C10.4545 4.95 10.5647 4.68408 10.7608 4.48802C10.9568 4.29196 11.2227 4.18182 11.5 4.18182C11.7773 4.18182 12.0432 4.29196 12.2393 4.48802C12.4353 4.68408 12.5455 4.95 12.5455 5.22727V11.0672L15.3755 13.8972C15.5715 14.0933 15.6816 14.3591 15.6816 14.6364C15.6816 14.9136 15.5715 15.1794 15.3755 15.3755Z" fill="#13447C"/>
</svg>
