<svg width="21" height="21" viewBox="0 0 21 21" fill="none" xmlns="http://www.w3.org/2000/svg">
<path d="M19.9283 5.57929C19.7014 4.73586 19.0365 4.071 18.1932 3.84389C16.6525 3.42236 10.49 3.42236 10.49 3.42236C10.49 3.42236 4.32768 3.42236 2.78707 3.82791C1.95999 4.05478 1.27878 4.73598 1.05191 5.57929C0.646484 7.11978 0.646484 10.3146 0.646484 10.3146C0.646484 10.3146 0.646484 13.5254 1.05191 15.0498C1.27902 15.8931 1.94376 16.558 2.78719 16.7851C4.3439 17.2067 10.4902 17.2067 10.4902 17.2067C10.4902 17.2067 16.6525 17.2067 18.1932 16.8012C19.0366 16.5742 19.7014 15.9093 19.9286 15.066C20.3339 13.5254 20.3339 10.3308 20.3339 10.3308C20.3339 10.3308 20.3501 7.11978 19.9283 5.57929ZM8.52797 13.266V7.36311L13.6524 10.3146L8.52797 13.266Z" fill="white"/>
</svg>
